<svg width="17" height="17" viewBox="0 0 17 17" fill="none" xmlns="http://www.w3.org/2000/svg">
<path id="Vector" fill-rule="evenodd" clip-rule="evenodd" d="M2.10889 0.354787C1.63583 -0.118262 0.868863 -0.118262 0.395802 0.354787C-0.0772466 0.827848 -0.0772466 1.59481 0.395802 2.06787L6.80727 8.47931L0.395802 14.8908C-0.0772466 15.3638 -0.0772466 16.1308 0.395802 16.6038C0.868863 17.0769 1.63583 17.0769 2.10889 16.6038L8.52033 10.1924L14.9318 16.6038C15.4048 17.0769 16.1718 17.0769 16.6448 16.6038C17.1179 16.1308 17.1179 15.3638 16.6448 14.8908L10.2334 8.47931L16.6448 2.06787C17.1179 1.59481 17.1179 0.827848 16.6448 0.354787C16.1718 -0.118262 15.4048 -0.118262 14.9318 0.354787L8.52033 6.76625L2.10889 0.354787Z" fill="#390419"/>
</svg>
