<svg width="60" height="60" viewBox="0 0 60 60" fill="none" xmlns="http://www.w3.org/2000/svg">
<g id="Group 181">
<g id="Vector">
<path d="M4 51H34.629C35.2707 52.9838 36.38 54.7841 37.8636 56.2491C39.3471 57.7141 41.1612 58.8008 43.1529 59.4175C45.1446 60.0342 47.2554 60.1628 49.3072 59.7925C51.359 59.4221 53.2917 58.5637 54.9421 57.2896C56.5925 56.0156 57.9122 54.3632 58.7899 52.472C59.6677 50.5808 60.0777 48.5062 59.9853 46.4233C59.8929 44.3404 59.3009 42.3102 58.2592 40.5041C57.2175 38.698 55.7567 37.169 54 36.046V9C54 7.93913 53.5786 6.92172 52.8284 6.17157C52.0783 5.42143 51.0609 5 50 5H46V3C46 2.20435 45.6839 1.44129 45.1213 0.87868C44.5587 0.31607 43.7957 0 43 0L42 0C41.2043 0 40.4413 0.31607 39.8787 0.87868C39.3161 1.44129 39 2.20435 39 3V5H30V3C30 2.20435 29.6839 1.44129 29.1213 0.87868C28.5587 0.31607 27.7956 0 27 0L26 0C25.2044 0 24.4413 0.31607 23.8787 0.87868C23.3161 1.44129 23 2.20435 23 3V5H15V3C15 2.20435 14.6839 1.44129 14.1213 0.87868C13.5587 0.31607 12.7956 0 12 0L11 0C10.2044 0 9.44129 0.31607 8.87868 0.87868C8.31607 1.44129 8 2.20435 8 3V5H4C2.93913 5 1.92172 5.42143 1.17157 6.17157C0.421427 6.92172 0 7.93913 0 9L0 47C0 48.0609 0.421427 49.0783 1.17157 49.8284C1.92172 50.5786 2.93913 51 4 51ZM2 47V18H52V35C51.3524 34.7279 50.6834 34.5095 50 34.347C48.0906 33.8969 46.1041 33.8843 44.1892 34.3101C42.2742 34.7359 40.4803 35.5891 38.9415 36.806C37.4028 38.0228 36.1591 39.5718 35.3033 41.3371C34.4476 43.1024 34.0021 45.0383 34 47C34.0049 47.6702 34.0628 48.3389 34.173 49H4C3.46957 49 2.96086 48.7893 2.58579 48.4142C2.21071 48.0391 2 47.5304 2 47ZM58 47C58.0019 49.6205 57.0683 52.1556 55.3672 54.1489C53.6661 56.1422 51.3092 57.4627 48.721 57.8727C46.1328 58.2827 43.4832 57.7552 41.2493 56.3852C39.0154 55.0153 37.344 52.8928 36.536 50.4C36.5315 50.3851 36.527 50.3703 36.5225 50.3554C36.4649 50.1653 36.4069 49.9738 36.354 49.741C36.1159 48.8469 35.9969 47.9253 36 47C36 45.5555 36.2845 44.1251 36.8373 42.7905C37.3901 41.4559 38.2004 40.2433 39.2218 39.2218C40.2433 38.2004 41.4559 37.3901 42.7905 36.8373C44.1251 36.2845 45.5555 36 47 36C48.4445 36 49.8749 36.2845 51.2095 36.8373C52.5441 37.3901 53.7567 38.2004 54.7782 39.2218C55.7996 40.2433 56.6099 41.4559 57.1627 42.7905C57.7155 44.1251 58 45.5555 58 47ZM41 3C41 2.73478 41.1054 2.48043 41.2929 2.29289C41.4804 2.10536 41.7348 2 42 2H43C43.2652 2 43.5196 2.10536 43.7071 2.29289C43.8946 2.48043 44 2.73478 44 3V9C44 9.26522 43.8946 9.51957 43.7071 9.70711C43.5196 9.89464 43.2652 10 43 10H42C41.7348 10 41.4804 9.89464 41.2929 9.70711C41.1054 9.51957 41 9.26522 41 9V3ZM25 3C25 2.73478 25.1054 2.48043 25.2929 2.29289C25.4804 2.10536 25.7348 2 26 2H27C27.2652 2 27.5196 2.10536 27.7071 2.29289C27.8946 2.48043 28 2.73478 28 3V9C28 9.26522 27.8946 9.51957 27.7071 9.70711C27.5196 9.89464 27.2652 10 27 10H26C25.7348 10 25.4804 9.89464 25.2929 9.70711C25.1054 9.51957 25 9.26522 25 9V3ZM10 3C10 2.73478 10.1054 2.48043 10.2929 2.29289C10.4804 2.10536 10.7348 2 11 2H12C12.2652 2 12.5196 2.10536 12.7071 2.29289C12.8946 2.48043 13 2.73478 13 3V9C13 9.26522 12.8946 9.51957 12.7071 9.70711C12.5196 9.89464 12.2652 10 12 10H11C10.7348 10 10.4804 9.89464 10.2929 9.70711C10.1054 9.51957 10 9.26522 10 9V3ZM2 9C2 8.46957 2.21071 7.96086 2.58579 7.58579C2.96086 7.21071 3.46957 7 4 7H8V9C8 9.79565 8.31607 10.5587 8.87868 11.1213C9.44129 11.6839 10.2044 12 11 12H12C12.7956 12 13.5587 11.6839 14.1213 11.1213C14.6839 10.5587 15 9.79565 15 9V7H23V9C23 9.79565 23.3161 10.5587 23.8787 11.1213C24.4413 11.6839 25.2044 12 26 12H27C27.7956 12 28.5587 11.6839 29.1213 11.1213C29.6839 10.5587 30 9.79565 30 9V7H39V9C39 9.79565 39.3161 10.5587 39.8787 11.1213C40.4413 11.6839 41.2043 12 42 12H43C43.7957 12 44.5587 11.6839 45.1213 11.1213C45.6839 10.5587 46 9.79565 46 9V7H50C50.5304 7 51.0391 7.21071 51.4142 7.58579C51.7893 7.96086 52 8.46957 52 9V16H2V9Z" fill="#831441"/>
<path d="M2 9C2 8.46957 2.21071 7.96086 2.58579 7.58579C2.96086 7.21071 3.46957 7 4 7H8V9C8 9.79565 8.31607 10.5587 8.87868 11.1213C9.44129 11.6839 10.2044 12 11 12H12C12.7956 12 13.5587 11.6839 14.1213 11.1213C14.6839 10.5587 15 9.79565 15 9V7H23V9C23 9.79565 23.3161 10.5587 23.8787 11.1213C24.4413 11.6839 25.2044 12 26 12H27C27.7956 12 28.5587 11.6839 29.1213 11.1213C29.6839 10.5587 30 9.79565 30 9V7H39V9C39 9.79565 39.3161 10.5587 39.8787 11.1213C40.4413 11.6839 41.2043 12 42 12H43C43.7957 12 44.5587 11.6839 45.1213 11.1213C45.6839 10.5587 46 9.79565 46 9V7H50C50.5304 7 51.0391 7.21071 51.4142 7.58579C51.7893 7.96086 52 8.46957 52 9V16H2V9Z" fill="white"/>
<path d="M2 47V18H52V35C51.3524 34.7279 50.6834 34.5095 50 34.347C48.0906 33.8969 46.1041 33.8843 44.1892 34.3101C42.2742 34.7359 40.4803 35.5891 38.9415 36.806C37.4028 38.0228 36.1591 39.5718 35.3033 41.3371C34.4476 43.1024 34.0021 45.0383 34 47C34.0049 47.6702 34.0628 48.3389 34.173 49H4C3.46957 49 2.96086 48.7893 2.58579 48.4142C2.21071 48.0391 2 47.5304 2 47Z" fill="white"/>
<path d="M10 3C10 2.73478 10.1054 2.48043 10.2929 2.29289C10.4804 2.10536 10.7348 2 11 2H12C12.2652 2 12.5196 2.10536 12.7071 2.29289C12.8946 2.48043 13 2.73478 13 3V9C13 9.26522 12.8946 9.51957 12.7071 9.70711C12.5196 9.89464 12.2652 10 12 10H11C10.7348 10 10.4804 9.89464 10.2929 9.70711C10.1054 9.51957 10 9.26522 10 9V3Z" fill="#FCC20A"/>
<path d="M25 3C25 2.73478 25.1054 2.48043 25.2929 2.29289C25.4804 2.10536 25.7348 2 26 2H27C27.2652 2 27.5196 2.10536 27.7071 2.29289C27.8946 2.48043 28 2.73478 28 3V9C28 9.26522 27.8946 9.51957 27.7071 9.70711C27.5196 9.89464 27.2652 10 27 10H26C25.7348 10 25.4804 9.89464 25.2929 9.70711C25.1054 9.51957 25 9.26522 25 9V3Z" fill="#FCC20A"/>
<path d="M41 3C41 2.73478 41.1054 2.48043 41.2929 2.29289C41.4804 2.10536 41.7348 2 42 2H43C43.2652 2 43.5196 2.10536 43.7071 2.29289C43.8946 2.48043 44 2.73478 44 3V9C44 9.26522 43.8946 9.51957 43.7071 9.70711C43.5196 9.89464 43.2652 10 43 10H42C41.7348 10 41.4804 9.89464 41.2929 9.70711C41.1054 9.51957 41 9.26522 41 9V3Z" fill="#FCC20A"/>
<path d="M58 47C58.0019 49.6205 57.0683 52.1556 55.3672 54.1489C53.6661 56.1422 51.3092 57.4627 48.721 57.8727C46.1328 58.2827 43.4832 57.7552 41.2493 56.3852C39.0154 55.0153 37.344 52.8928 36.536 50.4L36.5225 50.3554C36.4649 50.1653 36.4069 49.9738 36.354 49.741C36.1159 48.8469 35.9969 47.9253 36 47C36 45.5555 36.2845 44.1251 36.8373 42.7905C37.3901 41.4559 38.2004 40.2433 39.2218 39.2218C40.2433 38.2004 41.4559 37.3901 42.7905 36.8373C44.1251 36.2845 45.5555 36 47 36C48.4445 36 49.8749 36.2845 51.2095 36.8373C52.5441 37.3901 53.7567 38.2004 54.7782 39.2218C55.7996 40.2433 56.6099 41.4559 57.1627 42.7905C57.7155 44.1251 58 45.5555 58 47Z" fill="#831441"/>
</g>
<g id="Vector_2">
<path d="M16 21H10C9.46957 21 8.96086 21.2107 8.58579 21.5858C8.21071 21.9609 8 22.4696 8 23V29C8 29.5304 8.21071 30.0391 8.58579 30.4142C8.96086 30.7893 9.46957 31 10 31H16C16.5304 31 17.0391 30.7893 17.4142 30.4142C17.7893 30.0391 18 29.5304 18 29V23C18 22.4696 17.7893 21.9609 17.4142 21.5858C17.0391 21.2107 16.5304 21 16 21ZM10 29V23H16V29H10Z" fill="#831441"/>
<path d="M10 29V23H16V29H10Z" fill="#FCC20A"/>
</g>
<g id="Vector_3">
<path d="M30 21H24C23.4696 21 22.9609 21.2107 22.5858 21.5858C22.2107 21.9609 22 22.4696 22 23V29C22 29.5304 22.2107 30.0391 22.5858 30.4142C22.9609 30.7893 23.4696 31 24 31H30C30.5304 31 31.0391 30.7893 31.4142 30.4142C31.7893 30.0391 32 29.5304 32 29V23C32 22.4696 31.7893 21.9609 31.4142 21.5858C31.0391 21.2107 30.5304 21 30 21ZM24 29V23H30V29H24Z" fill="#831441"/>
<path d="M24 29V23H30V29H24Z" fill="#FCC20A"/>
</g>
<g id="Vector_4">
<path d="M16 33H10C9.46957 33 8.96086 33.2107 8.58579 33.5858C8.21071 33.9609 8 34.4696 8 35V41C8 41.5304 8.21071 42.0391 8.58579 42.4142C8.96086 42.7893 9.46957 43 10 43H16C16.5304 43 17.0391 42.7893 17.4142 42.4142C17.7893 42.0391 18 41.5304 18 41V35C18 34.4696 17.7893 33.9609 17.4142 33.5858C17.0391 33.2107 16.5304 33 16 33ZM10 41V35H16V41H10Z" fill="#831441"/>
<path d="M10 41V35H16V41H10Z" fill="#FCC20A"/>
</g>
<g id="Vector_5">
<path d="M30 33H24C23.4696 33 22.9609 33.2107 22.5858 33.5858C22.2107 33.9609 22 34.4696 22 35V41C22 41.5304 22.2107 42.0391 22.5858 42.4142C22.9609 42.7893 23.4696 43 24 43H30C30.5304 43 31.0391 42.7893 31.4142 42.4142C31.7893 42.0391 32 41.5304 32 41V35C32 34.4696 31.7893 33.9609 31.4142 33.5858C31.0391 33.2107 30.5304 33 30 33ZM24 41V35H30V41H24Z" fill="#831441"/>
<path d="M24 41V35H30V41H24Z" fill="#FCC20A"/>
</g>
<g id="Vector_6">
<path d="M38 31H44C44.5304 31 45.0391 30.7893 45.4142 30.4142C45.7893 30.0391 46 29.5304 46 29V23C46 22.4696 45.7893 21.9609 45.4142 21.5858C45.0391 21.2107 44.5304 21 44 21H38C37.4696 21 36.9609 21.2107 36.5858 21.5858C36.2107 21.9609 36 22.4696 36 23V29C36 29.5304 36.2107 30.0391 36.5858 30.4142C36.9609 30.7893 37.4696 31 38 31ZM38 23H44V29H38V23Z" fill="#831441"/>
<path d="M38 23H44V29H38V23Z" fill="#FCC20A"/>
</g>
</g>
</svg>
