<svg width="26" height="26" viewBox="0 0 26 26" fill="none" xmlns="http://www.w3.org/2000/svg">
<g id="no">
<g id="Vector">
<path d="M24.9783 7.94495C24.3222 6.39693 23.3834 5.00708 22.1905 3.81171C20.995 2.61893 19.605 1.68026 18.0569 1.02423C16.4542 0.344869 14.753 0 13 0C5.83224 0.002593 0 5.83425 0 13.0013C0 20.1683 5.83224 26 13 26C20.1678 26 26 20.1683 26 13.0013C26 11.2484 25.6577 9.54742 24.9783 7.94495ZM13 23.8504C7.01735 23.8504 2.14981 18.9833 2.14981 13.0013C2.14981 7.01925 7.01735 2.15219 13 2.15219C18.9826 2.15219 23.8502 7.01925 23.8502 13.0013C23.8502 18.9833 18.9826 23.8504 13 23.8504Z" fill="#831441"/>
<path d="M13 23.8504C7.01735 23.8504 2.14981 18.9833 2.14981 13.0013C2.14981 7.01925 7.01735 2.15219 13 2.15219C18.9826 2.15219 23.8502 7.01925 23.8502 13.0013C23.8502 18.9833 18.9826 23.8504 13 23.8504Z" fill="#831441"/>
</g>
<path id="Vector_2" d="M17.3053 8.28071L13.0123 12.5737L8.71929 8.28071C8.53069 8.09855 8.27808 7.99776 8.01588 8.00004C7.75369 8.00232 7.50287 8.10748 7.31747 8.29289C7.13206 8.4783 7.02689 8.72911 7.02461 8.99131C7.02233 9.25351 7.12313 9.50611 7.30529 9.69471L11.5983 13.9877L7.30529 18.2807C7.20978 18.373 7.13359 18.4833 7.08118 18.6053C7.02877 18.7273 7.00119 18.8585 7.00004 18.9913C6.99888 19.1241 7.02419 19.2558 7.07447 19.3787C7.12475 19.5016 7.199 19.6132 7.29289 19.7071C7.38678 19.801 7.49844 19.8753 7.62133 19.9255C7.74423 19.9758 7.87591 20.0011 8.00869 20C8.14147 19.9988 8.27269 19.9712 8.39469 19.9188C8.5167 19.8664 8.62704 19.7902 8.71929 19.6947L13.0123 15.4017L17.3053 19.6947C17.4939 19.8769 17.7465 19.9777 18.0087 19.9754C18.2709 19.9731 18.5217 19.8679 18.7071 19.6825C18.8925 19.4971 18.9977 19.2463 19 18.9841C19.0022 18.7219 18.9014 18.4693 18.7193 18.2807L14.4263 13.9877L18.7193 9.69471C18.9014 9.50611 19.0022 9.25351 19 8.99131C18.9977 8.72911 18.8925 8.4783 18.7071 8.29289C18.5217 8.10748 18.2709 8.00232 18.0087 8.00004C17.7465 7.99776 17.4939 8.09855 17.3053 8.28071Z" fill="#FCC20A"/>
</g>
</svg>
