<svg width="32" height="48" viewBox="0 0 32 48" fill="none" xmlns="http://www.w3.org/2000/svg">
<g id="Group 30">
<g id="Vector">
<path d="M3.81139 47.8295C4.32597 48.0522 4.89394 48.0522 5.40851 47.8295L8.212 46.6059C8.33157 46.552 8.46822 46.552 8.5942 46.6059L11.3977 47.8295C11.9123 48.0568 12.4802 48.0568 12.9948 47.8295L15.7983 46.6059C15.9179 46.552 16.0545 46.552 16.1805 46.6059L18.984 47.8295C19.2402 47.9443 19.5092 47.9982 19.7825 47.9982C20.0558 47.9982 20.3227 47.9443 20.5811 47.8295L23.3909 46.5989C23.5169 46.545 23.6472 46.545 23.7731 46.5989L26.583 47.8295C27.0976 48.0568 27.6656 48.0522 28.1738 47.8295L30.6399 46.7559C31.4662 46.3949 32 45.5323 32 44.5596V2.94696C32 2.16173 31.6456 1.42811 31.0541 0.989765C30.4648 0.551443 29.709 0.462371 29.047 0.75068L27.5716 1.3976C27.452 1.45151 27.3154 1.45151 27.1894 1.3976L24.3795 0.167006C23.865 -0.0556686 23.3034 -0.0556686 22.7888 0.167006L19.9789 1.3976C19.8529 1.45151 19.7227 1.45151 19.5967 1.3976L16.7932 0.174026C16.2787 -0.0533406 15.7107 -0.0533406 15.1961 0.174026L12.3926 1.3976C12.273 1.45151 12.1364 1.45151 12.0104 1.3976L9.20693 0.174026C8.69235 -0.0533406 8.12438 -0.0533406 7.60981 0.174026L4.80632 1.3976C4.68675 1.45151 4.5501 1.45151 4.42412 1.3976L2.95298 0.75536C2.28678 0.467051 1.53738 0.551437 0.945901 0.994446C0.356605 1.43277 0 2.17109 0 2.95165V44.5667C0 45.5394 0.529524 46.402 1.35586 46.763L3.81558 47.8366L3.81139 47.8295ZM1.63562 2.94715C1.63562 2.67759 1.79362 2.52757 1.85982 2.47835C1.926 2.43147 2.11177 2.32131 2.34023 2.42444L3.81137 3.06668C4.32595 3.28935 4.89392 3.28935 5.4085 3.06668L8.21198 1.84311C8.33155 1.7892 8.46821 1.7892 8.59418 1.84311L11.3977 3.06668C11.9123 3.29405 12.4802 3.29405 12.9948 3.06668L15.7983 1.84311C15.9179 1.7892 16.0545 1.7892 16.1805 1.84311L18.984 3.06668C19.4986 3.29405 20.0665 3.29405 20.5811 3.06668L23.391 1.83609C23.517 1.78218 23.6472 1.78218 23.7732 1.83609L26.5831 3.06668C27.0976 3.29405 27.6656 3.28935 28.1738 3.06668L29.6492 2.41976C29.8798 2.31662 30.0592 2.42679 30.1296 2.4807C30.1958 2.52758 30.3538 2.67759 30.3538 2.9495V44.5645C30.3538 44.7989 30.2278 45.0028 30.0314 45.0919L27.5653 46.1655C27.4457 46.2194 27.3091 46.2194 27.1831 46.1655L24.3732 44.9349C24.117 44.82 23.8479 44.7661 23.5747 44.7661C23.3014 44.7661 23.0345 44.82 22.7761 44.9349L19.9662 46.1655C19.8403 46.2194 19.71 46.2194 19.584 46.1655L16.7806 44.9419C16.266 44.7145 15.698 44.7145 15.1834 44.9419L12.3799 46.1655C12.2604 46.2194 12.1237 46.2194 11.9977 46.1655L9.19425 44.9419C8.67967 44.7145 8.1117 44.7145 7.59713 44.9419L4.79364 46.1655C4.67407 46.2194 4.53742 46.2194 4.41144 46.1655L1.95171 45.0919C1.75527 45.0075 1.6293 44.7989 1.6293 44.5645V2.9477L1.63562 2.94715Z" fill="#831441"/>
<path d="M1.63562 2.94715C1.63562 2.67759 1.79362 2.52757 1.85982 2.47835C1.926 2.43147 2.11177 2.32131 2.34023 2.42444L3.81137 3.06668C4.32595 3.28935 4.89392 3.28935 5.4085 3.06668L8.21198 1.84311C8.33155 1.7892 8.46821 1.7892 8.59418 1.84311L11.3977 3.06668C11.9123 3.29405 12.4802 3.29405 12.9948 3.06668L15.7983 1.84311C15.9179 1.7892 16.0545 1.7892 16.1805 1.84311L18.984 3.06668C19.4986 3.29405 20.0665 3.29405 20.5811 3.06668L23.391 1.83609C23.517 1.78218 23.6472 1.78218 23.7732 1.83609L26.5831 3.06668C27.0976 3.29405 27.6656 3.28935 28.1738 3.06668L29.6492 2.41976C29.8798 2.31662 30.0592 2.42679 30.1296 2.4807C30.1958 2.52758 30.3538 2.67759 30.3538 2.9495V44.5645C30.3538 44.7989 30.2278 45.0028 30.0314 45.0919L27.5653 46.1655C27.4457 46.2194 27.3091 46.2194 27.1831 46.1655L24.3732 44.9349C24.117 44.82 23.8479 44.7661 23.5747 44.7661C23.3014 44.7661 23.0345 44.82 22.7761 44.9349L19.9662 46.1655C19.8403 46.2194 19.71 46.2194 19.584 46.1655L16.7806 44.9419C16.266 44.7145 15.698 44.7145 15.1834 44.9419L12.3799 46.1655C12.2604 46.2194 12.1237 46.2194 11.9977 46.1655L9.19425 44.9419C8.67967 44.7145 8.1117 44.7145 7.59713 44.9419L4.79364 46.1655C4.67407 46.2194 4.53742 46.2194 4.41144 46.1655L1.95171 45.0919C1.75527 45.0075 1.6293 44.7989 1.6293 44.5645V2.9477L1.63562 2.94715Z" fill="white"/>
</g>
<path id="Line 24" d="M11 9H21.9279" stroke="#FCC20A" stroke-width="2" stroke-linecap="round"/>
<rect id="Rectangle 4062" x="3.75" y="18.75" width="11.5" height="1.5" rx="0.75" fill="#831441" stroke="#831441" stroke-width="0.5"/>
<rect id="Rectangle 4063" x="3.75" y="22.75" width="11.5" height="1.5" rx="0.75" fill="#831441" stroke="#831441" stroke-width="0.5"/>
<rect id="Rectangle 4064" x="3.75" y="26.75" width="11.5" height="1.5" rx="0.75" fill="#831441" stroke="#831441" stroke-width="0.5"/>
<rect id="Rectangle 4065" x="3.75" y="30.75" width="11.5" height="1.5" rx="0.75" fill="#831441" stroke="#831441" stroke-width="0.5"/>
<rect id="Rectangle 4066" x="3.75" y="34.75" width="11.5" height="1.5" rx="0.75" fill="#831441" stroke="#831441" stroke-width="0.5"/>
</g>
</svg>
