<svg width="32" height="49" viewBox="0 0 32 49" fill="none" xmlns="http://www.w3.org/2000/svg">
<g id="Group 30">
<g id="Vector">
<path d="M3.81139 48.6295C4.32597 48.8522 4.89394 48.8522 5.40851 48.6295L8.212 47.406C8.33157 47.352 8.46822 47.352 8.5942 47.406L11.3977 48.6295C11.9123 48.8569 12.4802 48.8569 12.9948 48.6295L15.7983 47.406C15.9179 47.352 16.0545 47.352 16.1805 47.406L18.984 48.6295C19.2402 48.7444 19.5092 48.7983 19.7825 48.7983C20.0558 48.7983 20.3227 48.7444 20.5811 48.6295L23.3909 47.3989C23.5169 47.345 23.6472 47.345 23.7731 47.3989L26.583 48.6295C27.0976 48.8569 27.6656 48.8522 28.1738 48.6295L30.6399 47.556C31.4662 47.195 32 46.3324 32 45.3596V3.74701C32 2.96178 31.6456 2.22815 31.0541 1.78981C30.4648 1.35149 29.709 1.26242 29.047 1.55073L27.5716 2.19765C27.452 2.25156 27.3154 2.25156 27.1894 2.19765L24.3795 0.967055C23.865 0.74438 23.3034 0.74438 22.7888 0.967055L19.9789 2.19765C19.8529 2.25156 19.7227 2.25156 19.5967 2.19765L16.7932 0.974075C16.2787 0.746708 15.7107 0.746708 15.1961 0.974075L12.3926 2.19765C12.273 2.25156 12.1364 2.25156 12.0104 2.19765L9.20693 0.974075C8.69235 0.746708 8.12438 0.746708 7.60981 0.974075L4.80632 2.19765C4.68675 2.25156 4.5501 2.25156 4.42412 2.19765L2.95298 1.55541C2.28678 1.2671 1.53738 1.35149 0.945901 1.79449C0.356605 2.23282 0 2.97114 0 3.75169V45.3667C0 46.3395 0.529524 47.2021 1.35586 47.563L3.81558 48.6366L3.81139 48.6295ZM1.63562 3.74719C1.63562 3.47764 1.79362 3.32762 1.85982 3.2784C1.926 3.23152 2.11177 3.12135 2.34023 3.22449L3.81137 3.86673C4.32595 4.0894 4.89392 4.0894 5.4085 3.86673L8.21198 2.64316C8.33155 2.58925 8.46821 2.58925 8.59418 2.64316L11.3977 3.86673C11.9123 4.0941 12.4802 4.0941 12.9948 3.86673L15.7983 2.64316C15.9179 2.58925 16.0545 2.58925 16.1805 2.64316L18.984 3.86673C19.4986 4.0941 20.0665 4.0941 20.5811 3.86673L23.391 2.63614C23.517 2.58222 23.6472 2.58222 23.7732 2.63614L26.5831 3.86673C27.0976 4.0941 27.6656 4.0894 28.1738 3.86673L29.6492 3.21981C29.8798 3.11667 30.0592 3.22684 30.1296 3.28075C30.1958 3.32763 30.3538 3.47764 30.3538 3.74954V45.3646C30.3538 45.599 30.2278 45.8029 30.0314 45.892L27.5653 46.9655C27.4457 47.0194 27.3091 47.0194 27.1831 46.9655L24.3732 45.7349C24.117 45.6201 23.8479 45.5662 23.5747 45.5662C23.3014 45.5662 23.0345 45.6201 22.7761 45.7349L19.9662 46.9655C19.8403 47.0194 19.71 47.0194 19.584 46.9655L16.7806 45.742C16.266 45.5146 15.698 45.5146 15.1834 45.742L12.3799 46.9655C12.2604 47.0194 12.1237 47.0194 11.9977 46.9655L9.19425 45.742C8.67967 45.5146 8.1117 45.5146 7.59713 45.742L4.79364 46.9655C4.67407 47.0194 4.53742 47.0194 4.41144 46.9655L1.95171 45.892C1.75527 45.8076 1.6293 45.599 1.6293 45.3646V3.74774L1.63562 3.74719Z" fill="#831441"/>
<path d="M1.63562 3.74719C1.63562 3.47764 1.79362 3.32762 1.85982 3.2784C1.926 3.23152 2.11177 3.12135 2.34023 3.22449L3.81137 3.86673C4.32595 4.0894 4.89392 4.0894 5.4085 3.86673L8.21198 2.64316C8.33155 2.58925 8.46821 2.58925 8.59418 2.64316L11.3977 3.86673C11.9123 4.0941 12.4802 4.0941 12.9948 3.86673L15.7983 2.64316C15.9179 2.58925 16.0545 2.58925 16.1805 2.64316L18.984 3.86673C19.4986 4.0941 20.0665 4.0941 20.5811 3.86673L23.391 2.63614C23.517 2.58222 23.6472 2.58222 23.7732 2.63614L26.5831 3.86673C27.0976 4.0941 27.6656 4.0894 28.1738 3.86673L29.6492 3.21981C29.8798 3.11667 30.0592 3.22684 30.1296 3.28075C30.1958 3.32763 30.3538 3.47764 30.3538 3.74954V45.3646C30.3538 45.599 30.2278 45.8029 30.0314 45.892L27.5653 46.9655C27.4457 47.0194 27.3091 47.0194 27.1831 46.9655L24.3732 45.7349C24.117 45.6201 23.8479 45.5662 23.5747 45.5662C23.3014 45.5662 23.0345 45.6201 22.7761 45.7349L19.9662 46.9655C19.8403 47.0194 19.71 47.0194 19.584 46.9655L16.7806 45.742C16.266 45.5146 15.698 45.5146 15.1834 45.742L12.3799 46.9655C12.2604 47.0194 12.1237 47.0194 11.9977 46.9655L9.19425 45.742C8.67967 45.5146 8.1117 45.5146 7.59713 45.742L4.79364 46.9655C4.67407 47.0194 4.53742 47.0194 4.41144 46.9655L1.95171 45.892C1.75527 45.8076 1.6293 45.599 1.6293 45.3646V3.74774L1.63562 3.74719Z" fill="white"/>
</g>
<path id="Line 34" d="M11 9H21.9279" stroke="#FCC20A" stroke-width="2" stroke-linecap="round"/>
<rect id="Rectangle 4067" x="4.75" y="17.75" width="11.5" height="1.5" rx="0.75" fill="#831441" stroke="#831441" stroke-width="0.5"/>
<rect id="Rectangle 4068" x="4.75" y="21.75" width="11.5" height="1.5" rx="0.75" fill="#831441" stroke="#831441" stroke-width="0.5"/>
<rect id="Rectangle 4069" x="4.75" y="25.75" width="11.5" height="1.5" rx="0.75" fill="#831441" stroke="#831441" stroke-width="0.5"/>
<rect id="Rectangle 4070" x="4.75" y="29.75" width="11.5" height="1.5" rx="0.75" fill="#831441" stroke="#831441" stroke-width="0.5"/>
<rect id="Rectangle 4071" x="4.75" y="33.75" width="11.5" height="1.5" rx="0.75" fill="#831441" stroke="#831441" stroke-width="0.5"/>
<rect id="Rectangle 4072" x="20.75" y="17.75" width="6.5" height="1.5" rx="0.75" fill="#831441" stroke="#831441" stroke-width="0.5"/>
<rect id="Rectangle 4073" x="20.75" y="21.75" width="6.5" height="1.5" rx="0.75" fill="#831441" stroke="#831441" stroke-width="0.5"/>
<rect id="Rectangle 4074" x="20.75" y="25.75" width="6.5" height="1.5" rx="0.75" fill="#831441" stroke="#831441" stroke-width="0.5"/>
<rect id="Rectangle 4075" x="20.75" y="29.75" width="6.5" height="1.5" rx="0.75" fill="#831441" stroke="#831441" stroke-width="0.5"/>
</g>
</svg>
