<svg width="50" height="54" viewBox="0 0 50 54" fill="none" xmlns="http://www.w3.org/2000/svg">
<g id="Vector">
<path d="M49.1052 21.1768C49.1052 20.9228 48.9942 20.6809 48.8014 20.5156L43.9259 16.3352V9.19841C43.9259 7.82621 42.8097 6.70993 41.4375 6.70993H32.7587C32.7504 6.70227 32.7447 6.69334 32.7357 6.68632L25.1165 0.20695C24.7897 -0.0700439 24.3104 -0.0687674 23.9849 0.209503L16.4052 6.70993H7.42013C6.04792 6.70993 4.93165 7.82621 4.93165 9.19841V16.5477L0.3038 20.5162C0.111053 20.6815 0 20.9234 0 21.1775C0 21.187 0.00255302 21.1966 0.00319125 21.2062V51.7266C0.00319125 52.9801 1.02309 54 2.27595 54H46.835C48.0885 54 49.1078 52.9801 49.1078 51.7266V21.1768H49.1052ZM17.8074 36.8461L1.74494 50.6193V23.0737L17.8074 36.8461ZM19.1452 37.9937L23.9855 42.1441C24.1483 42.2839 24.3506 42.3541 24.5523 42.3541C24.754 42.3541 24.9563 42.2839 25.119 42.1441L29.9594 37.9937L46.5938 52.257H2.51082L19.1452 37.9937ZM31.2978 36.8468L47.3667 23.0685V50.625L31.2978 36.8468ZM46.8963 21.1768L43.9253 23.724V18.6296L46.8963 21.1768ZM24.5548 2.01635L30.0743 6.70993H19.0813L24.5548 2.01635ZM7.42013 8.45168H41.4375C41.8491 8.45168 42.1842 8.78675 42.1842 9.19841V16.5668C42.1657 16.6683 42.1663 16.7711 42.1842 16.8726V25.2181L24.5523 40.3354L6.67339 25.005V9.19841C6.67403 8.78611 7.00847 8.45168 7.42013 8.45168ZM4.93229 18.8422V23.5121L2.20893 21.1775L4.93229 18.8422ZM24.4291 31.4416C26.2155 31.4416 27.9745 30.9757 29.5165 30.0942C29.9339 29.8555 30.0788 29.3233 29.8401 28.9059C29.6007 28.4884 29.0691 28.3429 28.6517 28.5823C27.3726 29.3137 25.9124 29.7005 24.4291 29.7005C19.7291 29.7005 15.9061 25.8768 15.9061 21.1775C15.9061 16.4781 19.7298 12.6545 24.4291 12.6545C29.1284 12.6545 32.9515 16.4781 32.9515 21.1775C32.9515 24.1497 31.6048 25.2768 30.6998 25.3094C30.0118 25.34 29.5037 24.7867 29.431 23.911V21.3262C29.4322 21.2764 29.4386 21.2279 29.4386 21.1775C29.4386 21.127 29.4322 21.0785 29.431 21.0287V17.0487C29.431 16.5675 29.041 16.1775 28.5598 16.1775C28.0785 16.1775 27.6886 16.5675 27.6886 17.0487V17.3819C26.8116 16.6275 25.6737 16.1679 24.4285 16.1679C21.6662 16.1679 19.419 18.4152 19.419 21.1775C19.419 23.9397 21.6662 26.187 24.4285 26.187C25.7483 26.187 26.9469 25.67 27.8424 24.8333C28.2477 26.2023 29.3818 27.1003 30.7617 27.0505C32.6553 26.9822 34.6926 25.116 34.6926 21.1781C34.6926 15.5182 30.0883 10.9134 24.4278 10.9134C18.7673 10.9134 14.1637 15.5169 14.1637 21.1768C14.1637 26.8367 18.7686 31.4416 24.4291 31.4416ZM24.4291 24.4446C22.6267 24.4446 21.1613 22.9786 21.1613 21.1768C21.1613 19.3751 22.6274 17.9091 24.4291 17.9091C26.1804 17.9091 27.6107 19.2953 27.6892 21.0281V21.3255C27.6107 23.0583 26.1811 24.4446 24.4291 24.4446Z" fill="#831441"/>
<path d="M19.1452 37.9937L23.9855 42.1441C24.1483 42.2839 24.3506 42.3541 24.5523 42.3541C24.754 42.3541 24.9563 42.2839 25.119 42.1441L29.9594 37.9937L46.5938 52.257H2.51082L19.1452 37.9937Z" fill="white"/>
<path d="M31.2978 36.8468L47.3667 23.0685V50.625L31.2978 36.8468Z" fill="white"/>
<path d="M17.8074 36.8461L1.74494 50.6193V23.0737L17.8074 36.8461Z" fill="white"/>
<path d="M24.5548 2.01635L30.0743 6.70993H19.0813L24.5548 2.01635Z" fill="white"/>
<path d="M46.8963 21.1768L43.9253 23.724V18.6296L46.8963 21.1768Z" fill="white"/>
<path d="M4.93229 18.8422V23.5121L2.20893 21.1775L4.93229 18.8422Z" fill="white"/>
<path fill-rule="evenodd" clip-rule="evenodd" d="M7.42013 8.45168H41.4375C41.8491 8.45168 42.1842 8.78675 42.1842 9.19841V16.5668C42.1657 16.6683 42.1663 16.7711 42.1842 16.8726V25.2181L24.5523 40.3354L6.67339 25.005V9.19841C6.67403 8.78611 7.00847 8.45168 7.42013 8.45168ZM29.5165 30.0942C27.9745 30.9757 26.2155 31.4416 24.4291 31.4416C18.7686 31.4416 14.1637 26.8367 14.1637 21.1768C14.1637 15.5169 18.7673 10.9134 24.4278 10.9134C30.0883 10.9134 34.6926 15.5182 34.6926 21.1781C34.6926 25.116 32.6553 26.9822 30.7617 27.0505C29.3818 27.1003 28.2477 26.2023 27.8424 24.8333C26.9469 25.67 25.7483 26.187 24.4285 26.187C21.6662 26.187 19.419 23.9397 19.419 21.1775C19.419 18.4152 21.6662 16.1679 24.4285 16.1679C25.6737 16.1679 26.8116 16.6275 27.6886 17.3819V17.0487C27.6886 16.5675 28.0785 16.1775 28.5598 16.1775C29.041 16.1775 29.431 16.5675 29.431 17.0487V21.0287C29.4322 21.0785 29.4386 21.127 29.4386 21.1775C29.4386 21.2279 29.4322 21.2764 29.431 21.3262V23.911C29.5037 24.7867 30.0118 25.34 30.6998 25.3094C31.6048 25.2768 32.9515 24.1497 32.9515 21.1775C32.9515 16.4781 29.1284 12.6545 24.4291 12.6545C19.7298 12.6545 15.9061 16.4781 15.9061 21.1775C15.9061 25.8768 19.7291 29.7005 24.4291 29.7005C25.9124 29.7005 27.3726 29.3137 28.6517 28.5823C29.0691 28.3429 29.6007 28.4884 29.8401 28.9059C30.0788 29.3233 29.9339 29.8555 29.5165 30.0942Z" fill="#FCC20A"/>
<path d="M24.4291 24.4446C22.6267 24.4446 21.1613 22.9786 21.1613 21.1768C21.1613 19.3751 22.6274 17.9091 24.4291 17.9091C26.1804 17.9091 27.6107 19.2953 27.6892 21.0281V21.3255C27.6107 23.0583 26.1811 24.4446 24.4291 24.4446Z" fill="#FCC20A"/>
</g>
</svg>
