<svg width="47" height="53" viewBox="0 0 47 53" fill="none" xmlns="http://www.w3.org/2000/svg">
<g id="Group">
<rect id="Rectangle 10" x="1" y="1" width="39.7064" height="50.7199" rx="3" fill="white" stroke="#831441" stroke-width="2"/>
<path id="Vector" d="M13.2336 8.02196C13.3435 7.25594 13.1147 6.48088 12.6079 5.89457C12.1011 5.3105 11.3677 4.9735 10.594 4.9735C9.66782 4.9735 8.82463 5.44301 8.33348 6.22927L4.89553 11.7398C4.6623 12.1128 4.77667 12.607 5.14895 12.8406C5.52123 13.0743 6.01459 12.9597 6.24786 12.5868L9.6858 7.07621C10.0491 6.49215 10.9529 6.4225 11.4037 6.94142C11.61 7.17955 11.6997 7.48282 11.6548 7.79509L10.7264 14.3052C10.603 15.1723 10.8609 16.0507 11.4328 16.7112C12.0069 17.3738 12.8367 17.7535 13.7113 17.7535C14.891 17.7535 15.9697 17.0571 16.4563 15.9811L19.3358 9.63718C19.5219 9.22833 19.9301 8.96547 20.3764 8.96547C21.0066 8.96547 21.5201 9.47991 21.5201 10.1112V12.5823C21.5201 14.1122 22.7625 15.3567 24.2897 15.3567C25.346 15.3567 26.2946 14.7704 26.7656 13.8246L28.9207 9.50687C29.2168 8.91383 30.1093 8.8037 30.5377 9.31367C30.726 9.53607 30.8023 9.81913 30.7552 10.1067L29.829 15.6667C29.7101 16.3878 29.9097 17.1201 30.3829 17.6773C30.8539 18.2344 31.5423 18.5534 32.2712 18.5534C33.3387 18.5534 34.2828 17.8727 34.6192 16.8573L35.8325 13.2136C35.9715 12.7957 35.745 12.342 35.3279 12.2027C34.9063 12.0634 34.46 12.2903 34.3187 12.7081L33.1054 16.3519C32.9866 16.7113 32.6502 16.9539 32.2712 16.9539C32.0088 16.9539 31.7689 16.8439 31.5984 16.6417C31.428 16.4417 31.3584 16.1879 31.4033 15.9273L32.3295 10.3673C32.4551 9.61918 32.2443 8.85764 31.7554 8.27806C31.2665 7.70072 30.5511 7.36826 29.7953 7.36826C28.8131 7.36826 27.934 7.91415 27.4967 8.79254L25.3415 13.108C25.1419 13.5079 24.7382 13.7572 24.292 13.7572C23.6439 13.7572 23.1191 13.2293 23.1191 12.5823V10.1112C23.1191 8.59931 21.8901 7.36826 20.3808 7.36826C19.3111 7.36826 18.3311 7.99954 17.8893 8.9745L15.0098 15.3184C14.7811 15.8261 14.272 16.1541 13.7158 16.1541C13.3032 16.1541 12.913 15.9743 12.6416 15.6621C12.3725 15.3498 12.2492 14.9365 12.3075 14.5276L13.2359 8.0175L13.2336 8.02196Z" fill="#831441"/>
<path id="Vector_2" d="M27.154 20.948C27.3536 20.948 27.4747 21.0581 27.5308 21.1255C27.5868 21.1906 27.6721 21.3321 27.6384 21.5276L26.6763 26.8293C26.544 27.5504 26.7369 28.285 27.2056 28.8488C27.6743 29.4127 28.3628 29.734 29.0939 29.734C30.1547 29.734 31.0921 29.0578 31.4262 28.0491L31.8456 26.7911C31.9846 26.3732 31.7604 25.9195 31.341 25.7802C30.9239 25.6409 30.4731 25.8678 30.3318 26.2856L29.9125 27.5437C29.7958 27.8986 29.4662 28.1367 29.0939 28.1367C28.836 28.1367 28.5938 28.0221 28.4301 27.8244C28.2619 27.6245 28.1969 27.3707 28.244 27.1145L29.2083 21.8106C29.3182 21.1996 29.1545 20.5751 28.7575 20.0988C28.3606 19.6225 27.7753 19.3484 27.1563 19.3484C26.322 19.3484 25.5685 19.8449 25.2389 20.6154L21.256 29.9251C20.9846 30.5586 20.0539 30.7114 19.5942 30.1992C19.4036 29.9858 19.3139 29.7094 19.3453 29.4219L19.749 25.7893C19.8185 25.1671 19.6189 24.5425 19.2018 24.0775C18.7846 23.6102 18.1881 23.3429 17.5624 23.3429C16.764 23.3429 16.0262 23.7765 15.6404 24.4774L12.6308 29.9049C12.4155 30.2935 12.0074 30.5339 11.5633 30.5339C11.1664 30.5339 10.8053 30.3497 10.5743 30.0262C10.3411 29.7027 10.2805 29.3029 10.4061 28.9254L11.801 24.7357C12.0971 23.8484 11.9535 22.9049 11.4063 22.1456C10.8591 21.3863 10.0114 20.9505 9.07624 20.9505C8.11415 20.9505 7.22158 21.429 6.68783 22.231L4.11329 26.0994C3.86885 26.4656 3.96752 26.9621 4.33531 27.2069C4.70086 27.4518 5.19648 27.353 5.44093 26.9845L8.01547 23.1161C8.48418 22.4129 9.61896 22.3927 10.1123 23.0779C10.3545 23.4149 10.4195 23.835 10.2872 24.2303L8.89231 28.42C8.60301 29.2894 8.74429 30.2172 9.28028 30.9608C9.81626 31.7044 10.6483 32.1312 11.5633 32.1312C12.5859 32.1312 13.5278 31.5764 14.0235 30.68L17.0331 25.2526C17.1385 25.0594 17.3425 24.9403 17.5623 24.9403C17.7978 24.9403 17.9458 25.0661 18.0131 25.1425C18.0804 25.2189 18.1903 25.3784 18.1634 25.6142L17.7597 29.2445C17.679 29.9769 17.9122 30.7137 18.4033 31.2641C18.8945 31.8145 19.5986 32.129 20.3365 32.129C21.3748 32.129 22.31 31.5112 22.7181 30.5542L26.701 21.2446C26.7795 21.0626 26.9566 20.9458 27.1518 20.9458L27.154 20.948Z" fill="#831441"/>
<path id="Vector_3" d="M19.3671 44.9896C20.0241 45.9399 21.1073 46.5082 22.2623 46.5082H22.3161C22.7557 46.5082 23.0853 46.1511 23.0853 45.7085C23.0853 45.2682 22.7018 44.9088 22.26 44.9088C21.6186 44.9088 21.0401 44.6055 20.6745 44.0776C20.309 43.5497 20.2282 42.9004 20.4547 42.3007C20.7754 41.4425 20.6566 40.4788 20.1341 39.7239C19.6115 38.9691 18.7549 38.5198 17.8376 38.5198C16.8688 38.5198 15.9829 39.0118 15.4694 39.8363L12.5405 44.5292C12.249 44.9964 11.5044 45.0166 11.1882 44.5651C11.0335 44.345 10.9976 44.0731 11.0895 43.8215L12.5427 39.8183C12.8477 38.9759 12.7244 38.0346 12.2108 37.3C11.6973 36.5655 10.8563 36.1273 9.96145 36.1273C8.91416 36.1273 7.97227 36.7092 7.50581 37.6482L4.05667 44.5562C3.85932 44.9516 4.01855 45.4301 4.41324 45.6278C4.80794 45.8255 5.28561 45.6638 5.48298 45.2706L8.93212 38.3626C9.12723 37.9695 9.52191 37.7246 9.9615 37.7246C10.3427 37.7246 10.6859 37.9043 10.9034 38.2165C11.1209 38.5288 11.1725 38.9129 11.0424 39.2724L9.58924 43.2756C9.32238 44.0147 9.43002 44.8391 9.88078 45.4816C10.3316 46.1263 11.0671 46.5105 11.852 46.5105C12.6885 46.5105 13.4511 46.0859 13.8928 45.3782L16.8217 40.6853C17.2545 39.9934 18.3602 39.9665 18.8244 40.6381C19.0509 40.9661 19.1025 41.3705 18.9612 41.7434C18.5553 42.8262 18.7055 44.0416 19.3649 44.9918L19.3671 44.9896Z" fill="#831441"/>
<g id="Vector_4">
<path d="M23.6436 32.1003L22.8453 36.0945C22.7937 36.3573 22.8744 36.6269 23.0628 36.8156C23.2131 36.9661 23.4172 37.0493 23.6257 37.0493C23.6773 37.0493 23.7311 37.0448 23.7827 37.0335L27.7701 36.2338C27.9248 36.2024 28.0661 36.126 28.1782 36.0159L45.9533 18.2103C46.4668 17.6959 46.7516 17.0108 46.7516 16.2806C46.7516 15.5528 46.469 14.8676 45.9533 14.3531L45.4868 13.8836C44.4574 12.8547 42.6656 12.8525 41.6362 13.8836L23.8612 31.6892C23.7491 31.8015 23.6751 31.943 23.6437 32.098L23.6436 32.1003ZM25.1619 32.6507L42.7664 15.0159C43.1925 14.5891 43.9348 14.5891 44.3609 15.0159L44.8273 15.4855C45.0404 15.6989 45.157 15.9819 45.157 16.2829C45.157 16.584 45.0404 16.8692 44.8273 17.0827L27.2228 34.7174L24.646 35.2341L25.1618 32.6529L25.1619 32.6507Z" fill="#831441"/>
<path d="M25.1619 32.6507L42.7664 15.0159C43.1925 14.5891 43.9348 14.5891 44.3609 15.0159L44.8273 15.4855C45.0404 15.6989 45.157 15.9819 45.157 16.2829C45.157 16.584 45.0404 16.8692 44.8273 17.0827L27.2228 34.7174L24.646 35.2341L25.1618 32.6529L25.1619 32.6507Z" fill="#FCC20A"/>
</g>
</g>
</svg>
