<svg width="36" height="54" viewBox="0 0 36 54" fill="none" xmlns="http://www.w3.org/2000/svg">
<g id="Group 35">
<g id="Vector">
<path d="M4.28781 53.8082C4.86671 54.0587 5.50568 54.0587 6.08458 53.8082L9.2385 52.4316C9.37302 52.371 9.52675 52.371 9.66848 52.4316L12.8224 53.8082C13.4013 54.0639 14.0403 54.0639 14.6192 53.8082L17.7731 52.4316C17.9076 52.371 18.0613 52.371 18.2031 52.4316L21.357 53.8082C21.6452 53.9374 21.9479 53.998 22.2553 53.998C22.5628 53.998 22.8631 53.9374 23.1537 53.8082L26.3148 52.4237C26.4565 52.3631 26.6031 52.3631 26.7448 52.4237L29.9059 53.8082C30.4848 54.0639 31.1238 54.0587 31.6955 53.8082L34.4699 52.6004C35.3995 52.1943 36 51.2239 36 50.1295V3.31534C36 2.43195 35.6013 1.60662 34.9359 1.11349C34.2729 0.620373 33.4226 0.520167 32.6779 0.844514L31.0181 1.5723C30.8836 1.63295 30.7298 1.63295 30.5881 1.5723L27.427 0.187882C26.8481 -0.0626272 26.2163 -0.0626272 25.6374 0.187882L22.4763 1.5723C22.3346 1.63295 22.188 1.63295 22.0463 1.5723L18.8924 0.19578C18.3135 -0.0600082 17.6745 -0.0600082 17.0956 0.19578L13.9417 1.5723C13.8072 1.63295 13.6534 1.63295 13.5117 1.5723L10.3578 0.19578C9.7789 -0.0600082 9.13993 -0.0600082 8.56103 0.19578L5.40711 1.5723C5.27259 1.63295 5.11886 1.63295 4.97714 1.5723L3.32211 0.849779C2.57263 0.525432 1.72956 0.620367 1.06414 1.11875C0.401181 1.61186 0 2.44248 0 3.3206V50.1375C0 51.2318 0.595715 52.2023 1.52534 52.6084L4.29253 53.8161L4.28781 53.8082ZM1.84007 3.31554C1.84007 3.01229 2.01782 2.84352 2.09229 2.78815C2.16675 2.73541 2.37574 2.61147 2.63276 2.7275L4.28779 3.45002C4.86669 3.70052 5.50566 3.70052 6.08456 3.45002L9.23848 2.0735C9.373 2.01285 9.52673 2.01285 9.66846 2.0735L12.8224 3.45002C13.4013 3.7058 14.0403 3.7058 14.6191 3.45002L17.7731 2.0735C17.9076 2.01285 18.0613 2.01285 18.203 2.0735L21.357 3.45002C21.9359 3.7058 22.5748 3.7058 23.1537 3.45002L26.3149 2.0656C26.4566 2.00495 26.6031 2.00495 26.7448 2.0656L29.9059 3.45002C30.4848 3.7058 31.1238 3.70052 31.6955 3.45002L33.3553 2.72223C33.6148 2.6062 33.8165 2.73014 33.8958 2.79079C33.9703 2.84353 34.148 3.01229 34.148 3.31818V50.1351C34.148 50.3988 34.0063 50.6282 33.7853 50.7284L31.0109 51.9362C30.8764 51.9968 30.7227 51.9968 30.581 51.9362L27.4198 50.5517C27.1316 50.4225 26.8289 50.3619 26.5215 50.3619C26.214 50.3619 25.9138 50.4225 25.6231 50.5517L22.462 51.9362C22.3203 51.9968 22.1738 51.9968 22.032 51.9362L18.8781 50.5596C18.2992 50.3038 17.6603 50.3038 17.0814 50.5596L13.9274 51.9362C13.7929 51.9968 13.6392 51.9968 13.4975 51.9362L10.3435 50.5596C9.76463 50.3038 9.12566 50.3038 8.54677 50.5596L5.39284 51.9362C5.25832 51.9968 5.10459 51.9968 4.96287 51.9362L2.19568 50.7284C1.97468 50.6335 1.83296 50.3988 1.83296 50.1351V3.31616L1.84007 3.31554Z" fill="#831441"/>
<path d="M1.84007 3.31554C1.84007 3.01229 2.01782 2.84352 2.09229 2.78815C2.16675 2.73541 2.37574 2.61147 2.63276 2.7275L4.28779 3.45002C4.86669 3.70052 5.50566 3.70052 6.08456 3.45002L9.23848 2.0735C9.373 2.01285 9.52673 2.01285 9.66846 2.0735L12.8224 3.45002C13.4013 3.7058 14.0403 3.7058 14.6191 3.45002L17.7731 2.0735C17.9076 2.01285 18.0613 2.01285 18.203 2.0735L21.357 3.45002C21.9359 3.7058 22.5748 3.7058 23.1537 3.45002L26.3149 2.0656C26.4566 2.00495 26.6031 2.00495 26.7448 2.0656L29.9059 3.45002C30.4848 3.7058 31.1238 3.70052 31.6955 3.45002L33.3553 2.72223C33.6148 2.6062 33.8165 2.73014 33.8958 2.79079C33.9703 2.84353 34.148 3.01229 34.148 3.31818V50.1351C34.148 50.3988 34.0063 50.6282 33.7853 50.7284L31.0109 51.9362C30.8764 51.9968 30.7227 51.9968 30.581 51.9362L27.4198 50.5517C27.1316 50.4225 26.8289 50.3619 26.5215 50.3619C26.214 50.3619 25.9138 50.4225 25.6231 50.5517L22.462 51.9362C22.3203 51.9968 22.1738 51.9968 22.032 51.9362L18.8781 50.5596C18.2992 50.3038 17.6603 50.3038 17.0814 50.5596L13.9274 51.9362C13.7929 51.9968 13.6392 51.9968 13.4975 51.9362L10.3435 50.5596C9.76463 50.3038 9.12566 50.3038 8.54677 50.5596L5.39284 51.9362C5.25832 51.9968 5.10459 51.9968 4.96287 51.9362L2.19568 50.7284C1.97468 50.6335 1.83296 50.3988 1.83296 50.1351V3.31616L1.84007 3.31554Z" fill="white"/>
</g>
<path id="Vector_2" fill-rule="evenodd" clip-rule="evenodd" d="M12.417 21.1805C12.417 22.439 11.3987 23.4572 10.1517 23.4572C8.89322 23.4572 7.875 22.439 7.875 21.1805C7.875 18.4347 8.98475 15.9521 10.7809 14.1559C12.5771 12.3597 15.0597 11.25 17.8055 11.25C20.5513 11.25 23.0339 12.3597 24.8301 14.1559C26.6263 15.9521 27.736 18.4347 27.736 21.1805C27.736 23.9263 26.6263 26.4089 24.8301 28.2051C23.5487 29.4864 21.9127 30.4246 20.0822 30.8479V31.8318C20.0822 33.0903 19.064 34.1085 17.8055 34.1085C16.547 34.1085 15.5288 33.0903 15.5288 31.8318V28.8343C15.5288 27.5873 16.547 26.5691 17.8055 26.5691C19.2928 26.5691 20.6428 25.9627 21.6153 24.9903C22.5877 24.0178 23.1941 22.6678 23.1941 21.1805C23.1941 19.6932 22.5877 18.3432 21.6153 17.3708C20.6428 16.3983 19.2928 15.7919 17.8055 15.7919C16.3182 15.7919 14.9682 16.3983 13.9958 17.3708C13.0233 18.3432 12.417 19.6932 12.417 21.1805ZM17.5767 41.625C16.3182 41.625 15.3 40.6182 15.3 39.3597C15.3 38.1013 16.3182 37.083 17.5767 37.083H18.0801C19.3386 37.083 20.3568 38.1013 20.3568 39.3597C20.3568 40.6182 19.3386 41.625 18.0801 41.625H17.5767Z" fill="#FCC20A" stroke="#831441" stroke-width="2"/>
</g>
</svg>
