<svg width="79" height="68" viewBox="0 0 79 68" fill="none" xmlns="http://www.w3.org/2000/svg">
<g id="Group 8651">
<g id="Group 183">
<g id="Ellipse 136" filter="url(#filter0_d_878_10513)">
<circle cx="30" cy="31.2158" r="23" fill="white"/>
<circle cx="30" cy="31.2158" r="22.08" stroke="#831441" stroke-width="1.84"/>
</g>
<circle id="Ellipse 153" cx="65" cy="14" r="13" stroke="#831441" stroke-width="2"/>
<g id="Vector 2">
<path d="M69.7705 18.7553C69.1698 19.7738 68.4883 20.6173 67.7402 21.2089C66.5362 22.1882 64.5508 22.5549 63.8969 20.8647C63.911 18.872 70.693 14.8642 69.7705 18.7553Z" fill="#FDB21E"/>
<path d="M70.6969 16.917C70.4267 17.5481 70.1175 18.1618 69.7712 18.7546C70.6931 14.8647 63.911 18.8725 63.8976 20.8652C63.7884 20.5706 63.7214 20.262 63.6988 19.9487C63.6597 19.2934 63.6597 18.6363 63.6988 17.981C63.8097 16.2101 71.7502 11.1665 70.6969 16.917Z" fill="#B52147"/>
<path d="M71.9188 13.335C71.5996 14.5573 71.1912 15.7544 70.6969 16.917C71.7502 11.1646 63.8097 16.2122 63.6956 17.9812C63.7386 17.0902 63.8238 16.1538 63.8751 15.2014C64.0418 13.4946 62.4404 13.6131 62.1589 13.5888C62.4872 13.5888 62.8212 13.567 63.1552 13.5317C66.5613 13.0664 68.1486 11.7544 70.5078 11.7339C70.6975 11.7335 70.8869 11.7513 71.0732 11.7871C71.7912 11.9358 72.1791 12.3941 71.9188 13.335Z" fill="#6E1843"/>
<path d="M71.0732 11.7871C70.8869 11.7513 70.6975 11.7335 70.5078 11.7339C68.1486 11.7544 66.5613 13.0664 63.1552 13.5317C62.8212 13.567 62.4872 13.5869 62.1589 13.5888C61.2268 13.5952 60.3414 13.4602 59.6292 13.1519C58.7515 12.5937 59.0637 9.28897 63.8975 9.75622C67.5479 10.1107 69.3967 10.6157 68.814 9.28321C69.2672 10.1549 69.4878 11.0808 71.0732 11.7871Z" fill="#FB9E2A"/>
<path d="M63.8975 9.75622C59.0637 9.28897 58.7518 12.5935 59.6294 13.1531C58.6024 12.7044 57.9357 11.8924 58.0049 10.5983C58.2492 7.35577 63.3484 6.09183 67.1032 7.6897C68.104 8.13836 68.5136 8.69982 68.8175 9.28436C69.3983 10.6182 67.5517 10.1132 63.8975 9.75622Z" fill="#B52147"/>
</g>
</g>
<g id="no" filter="url(#filter1_d_878_10513)">
<g id="Vector">
<path d="M63.9783 41.9449C63.3222 40.3969 62.3834 39.0071 61.1905 37.8117C59.995 36.6189 58.605 35.6803 57.0569 35.0242C55.4542 34.3449 53.753 34 52 34C44.8322 34.0026 39 39.8342 39 47.0013C39 54.1683 44.8322 60 52 60C59.1678 60 65 54.1683 65 47.0013C65 45.2484 64.6577 43.5474 63.9783 41.9449ZM52 57.8504C46.0174 57.8504 41.1498 52.9833 41.1498 47.0013C41.1498 41.0192 46.0174 36.1522 52 36.1522C57.9826 36.1522 62.8502 41.0192 62.8502 47.0013C62.8502 52.9833 57.9826 57.8504 52 57.8504Z" fill="#831441"/>
<path d="M52 57.8504C46.0174 57.8504 41.1498 52.9833 41.1498 47.0013C41.1498 41.0192 46.0174 36.1522 52 36.1522C57.9826 36.1522 62.8502 41.0192 62.8502 47.0013C62.8502 52.9833 57.9826 57.8504 52 57.8504Z" fill="#831441"/>
</g>
<path id="Vector_2" d="M56.3053 42.2807L52.0123 46.5737L47.7193 42.2807C47.5307 42.0986 47.2781 41.9978 47.0159 42C46.7537 42.0023 46.5029 42.1075 46.3175 42.2929C46.1321 42.4783 46.0269 42.7291 46.0246 42.9913C46.0223 43.2535 46.1231 43.5061 46.3053 43.6947L50.5983 47.9877L46.3053 52.2807C46.2098 52.373 46.1336 52.4833 46.0812 52.6053C46.0288 52.7273 46.0012 52.8585 46 52.9913C45.9989 53.1241 46.0242 53.2558 46.0745 53.3787C46.1247 53.5016 46.199 53.6132 46.2929 53.7071C46.3868 53.801 46.4984 53.8753 46.6213 53.9255C46.7442 53.9758 46.8759 54.0011 47.0087 54C47.1415 53.9988 47.2727 53.9712 47.3947 53.9188C47.5167 53.8664 47.627 53.7902 47.7193 53.6947L52.0123 49.4017L56.3053 53.6947C56.4939 53.8769 56.7465 53.9777 57.0087 53.9754C57.2709 53.9731 57.5217 53.8679 57.7071 53.6825C57.8925 53.4971 57.9977 53.2463 58 52.9841C58.0022 52.7219 57.9014 52.4693 57.7193 52.2807L53.4263 47.9877L57.7193 43.6947C57.9014 43.5061 58.0022 43.2535 58 42.9913C57.9977 42.7291 57.8925 42.4783 57.7071 42.2929C57.5217 42.1075 57.2709 42.0023 57.0087 42C56.7465 41.9978 56.4939 42.0986 56.3053 42.2807Z" fill="#FCC20A"/>
</g>
<g id="Group">
<g id="Vector_3">
<path d="M30.5 45C23.0635 45 17 38.9365 17 31.5C17 24.0635 23.0635 18 30.5 18C37.9365 18 44 24.0635 44 31.5C44 38.9365 37.9365 45 30.5 45ZM30.5 19.416C23.8607 19.416 18.416 24.8607 18.416 31.5C18.416 38.1394 23.8607 43.5841 30.5 43.5841C37.1393 43.5841 42.584 38.1394 42.584 31.5C42.584 24.8607 37.1393 19.416 30.5 19.416Z" fill="#831441"/>
<path d="M30.5 19.416C23.8607 19.416 18.416 24.8607 18.416 31.5C18.416 38.1394 23.8607 43.5841 30.5 43.5841C37.1393 43.5841 42.584 38.1394 42.584 31.5C42.584 24.8607 37.1393 19.416 30.5 19.416Z" fill="#FCC20A"/>
</g>
<g id="Vector_4">
<path d="M30.4999 45C27.0471 45 24.3913 39.0698 24.3913 31.5C24.3913 23.9303 27.092 18 30.4999 18C33.9527 18 36.6086 23.9303 36.6086 31.5C36.6086 39.0698 33.9528 45 30.4999 45ZM30.4999 19.416C28.2868 19.416 25.8072 24.3729 25.8072 31.5C25.8072 38.6271 28.2866 43.5841 30.4999 43.5841C32.7132 43.5841 35.1926 38.6271 35.1926 31.5C35.1926 24.3729 32.7132 19.416 30.4999 19.416Z" fill="#831441"/>
<path d="M30.4999 19.416C28.2868 19.416 25.8072 24.3729 25.8072 31.5C25.8072 38.6271 28.2866 43.5841 30.4999 43.5841C32.7132 43.5841 35.1926 38.6271 35.1926 31.5C35.1926 24.3729 32.7132 19.416 30.4999 19.416Z" fill="#FCC20A"/>
</g>
<path id="Vector_5" d="M19.08 25.0368H41.8751V26.4529H19.08V25.0368Z" fill="#831441"/>
<path id="Vector_6" d="M19.08 36.545H41.8751V37.9611H19.08V36.545Z" fill="#831441"/>
</g>
</g>
<defs>
<filter id="filter0_d_878_10513" x="0.0566039" y="1.27242" width="59.8868" height="59.8868" filterUnits="userSpaceOnUse" color-interpolation-filters="sRGB">
<feFlood flood-opacity="0" result="BackgroundImageFix"/>
<feColorMatrix in="SourceAlpha" type="matrix" values="0 0 0 0 0 0 0 0 0 0 0 0 0 0 0 0 0 0 127 0" result="hardAlpha"/>
<feOffset/>
<feGaussianBlur stdDeviation="3.4717"/>
<feComposite in2="hardAlpha" operator="out"/>
<feColorMatrix type="matrix" values="0 0 0 0 0 0 0 0 0 0 0 0 0 0 0 0 0 0 0.2 0"/>
<feBlend mode="normal" in2="BackgroundImageFix" result="effect1_dropShadow_878_10513"/>
<feBlend mode="normal" in="SourceGraphic" in2="effect1_dropShadow_878_10513" result="shape"/>
</filter>
<filter id="filter1_d_878_10513" x="31" y="26" width="42" height="42" filterUnits="userSpaceOnUse" color-interpolation-filters="sRGB">
<feFlood flood-opacity="0" result="BackgroundImageFix"/>
<feColorMatrix in="SourceAlpha" type="matrix" values="0 0 0 0 0 0 0 0 0 0 0 0 0 0 0 0 0 0 127 0" result="hardAlpha"/>
<feOffset/>
<feGaussianBlur stdDeviation="4"/>
<feComposite in2="hardAlpha" operator="out"/>
<feColorMatrix type="matrix" values="0 0 0 0 0 0 0 0 0 0 0 0 0 0 0 0 0 0 0.2 0"/>
<feBlend mode="normal" in2="BackgroundImageFix" result="effect1_dropShadow_878_10513"/>
<feBlend mode="normal" in="SourceGraphic" in2="effect1_dropShadow_878_10513" result="shape"/>
</filter>
</defs>
</svg>
