<svg width="12" height="12" viewBox="0 0 12 12" fill="none" xmlns="http://www.w3.org/2000/svg">
<path id="Vector" d="M10.3053 0.280712L6.01229 4.57371L1.71929 0.280712C1.53069 0.0985537 1.27808 -0.00224062 1.01588 3.78026e-05C0.753687 0.00231622 0.502874 0.107484 0.317466 0.292892C0.132058 0.4783 0.0268905 0.729113 0.024612 0.99131C0.0223336 1.25351 0.123128 1.50611 0.305286 1.69471L4.59829 5.98771L0.305286 10.2807C0.209776 10.373 0.133593 10.4833 0.081184 10.6053C0.028775 10.7273 0.00119157 10.8585 3.77571e-05 10.9913C-0.00111606 11.1241 0.0241854 11.2558 0.0744663 11.3787C0.124747 11.5016 0.198999 11.6132 0.292892 11.7071C0.386785 11.801 0.498437 11.8753 0.621334 11.9255C0.74423 11.9758 0.87591 12.0011 1.00869 12C1.14147 11.9988 1.27269 11.9712 1.39469 11.9188C1.5167 11.8664 1.62704 11.7902 1.71929 11.6947L6.01229 7.40171L10.3053 11.6947C10.4939 11.8769 10.7465 11.9777 11.0087 11.9754C11.2709 11.9731 11.5217 11.8679 11.7071 11.6825C11.8925 11.4971 11.9977 11.2463 12 10.9841C12.0022 10.7219 11.9014 10.4693 11.7193 10.2807L7.42629 5.98771L11.7193 1.69471C11.9014 1.50611 12.0022 1.25351 12 0.99131C11.9977 0.729113 11.8925 0.4783 11.7071 0.292892C11.5217 0.107484 11.2709 0.00231622 11.0087 3.78026e-05C10.7465 -0.00224062 10.4939 0.0985537 10.3053 0.280712Z" fill="#FCC20A"/>
</svg>
