<svg width="38" height="10" viewBox="0 0 38 10" fill="none" xmlns="http://www.w3.org/2000/svg" xmlns:xlink="http://www.w3.org/1999/xlink">
<path d="M4.289,-0.759L0,9.152L5.134,9.152L5.771,7.572L7.225,7.572L7.862,9.152L13.513,9.152L13.513,7.946L14.017,9.152L16.94,9.152L17.443,7.92L17.443,9.152L29.196,9.152L30.625,7.613L31.963,9.152L38,9.165L33.698,4.224L38,-0.759L32.057,-0.759L30.666,0.752L29.37,-0.759L16.584,-0.759L15.486,1.799L14.363,-0.759L9.239,-0.759L9.239,0.406L8.669,-0.759L4.289,-0.759ZM21.839,0.648L28.588,0.648L30.652,2.977L32.783,0.648L34.847,0.648L31.711,4.223L34.847,7.756L32.69,7.756L30.625,5.4L28.484,7.756L21.839,7.756L21.839,0.648ZM23.506,3.419L23.506,2.121L23.506,2.119L27.717,2.119L29.555,4.196L27.636,6.283L23.506,6.283L23.506,4.866L27.188,4.866L27.188,3.419L23.506,3.419ZM5.282,0.648L7.785,0.648L10.629,7.369L10.629,0.648L13.371,0.648L15.568,5.467L17.593,0.648L20.321,0.648L20.321,7.76L18.661,7.76L18.647,2.187L16.227,7.76L14.743,7.76L12.309,2.187L12.309,7.76L8.895,7.76L8.247,6.166L4.75,6.166L4.104,7.759L2.274,7.759L5.282,0.648ZM5.347,4.692L6.499,1.851L7.65,4.692L5.347,4.692Z" clip-rule="evenodd" fill-rule="evenodd" fill="#FFFFFF"/>
</svg>
