<svg width="120" height="120" viewBox="0 0 120 120" fill="none" xmlns="http://www.w3.org/2000/svg" xmlns:xlink="http://www.w3.org/1999/xlink">
<path d="M8,102L69.258,102C70.541,105.968 72.76,109.568 75.727,112.498C78.694,115.428 82.322,117.602 86.306,118.835C90.289,120.068 94.511,120.326 98.614,119.585C102.718,118.844 106.583,117.127 109.884,114.579C113.185,112.031 115.824,108.726 117.58,104.944C119.335,101.162 120.155,97.012 119.971,92.847C119.786,88.681 118.602,84.62 116.518,81.008C114.435,77.396 111.513,74.338 108,72.092L108,18C108,15.878 107.157,13.843 105.657,12.343C104.157,10.843 102.122,10 100,10L92,10L92,6C92,4.409 91.368,2.883 90.243,1.757C89.117,0.632 87.591,0 86,0L84,0C82.409,0 80.883,0.632 79.757,1.757C78.632,2.883 78,4.409 78,6L78,10L60,10L60,6C60,4.409 59.368,2.883 58.243,1.757C57.117,0.632 55.591,0 54,0L52,0C50.409,0 48.883,0.632 47.757,1.757C46.632,2.883 46,4.409 46,6L46,10L30,10L30,6C30,4.409 29.368,2.883 28.243,1.757C27.117,0.632 25.591,0 24,0L22,0C20.409,0 18.883,0.632 17.757,1.757C16.632,2.883 16,4.409 16,6L16,10L8,10C5.878,10 3.843,10.843 2.343,12.343C0.843,13.843 0,15.878 0,18L0,94C0,96.122 0.843,98.157 2.343,99.657C3.843,101.157 5.878,102 8,102ZM4,94L4,36L104,36L104,70C102.705,69.456 101.367,69.019 100,68.694C96.181,67.794 92.208,67.769 88.378,68.62C84.548,69.472 80.961,71.178 77.883,73.612C74.806,76.046 72.318,79.144 70.607,82.674C68.895,86.205 68.004,90.077 68,94C68.01,95.34 68.126,96.678 68.346,98L8,98C6.939,98 5.922,97.579 5.172,96.828C4.421,96.078 4,95.061 4,94ZM116,94C116.004,99.241 114.137,104.311 110.734,108.298C107.332,112.284 102.618,114.925 97.442,115.745C92.266,116.565 86.966,115.51 82.499,112.77C78.031,110.031 74.688,105.786 73.072,100.8C73.063,100.77 73.054,100.741 73.045,100.711C72.93,100.331 72.814,99.948 72.708,99.482C72.232,97.694 71.994,95.851 72,94C72,91.111 72.569,88.25 73.675,85.581C74.78,82.912 76.401,80.487 78.444,78.444C80.487,76.401 82.912,74.78 85.581,73.675C88.25,72.569 91.111,72 94,72C96.889,72 99.75,72.569 102.419,73.675C105.088,74.78 107.513,76.401 109.556,78.444C111.599,80.487 113.22,82.912 114.325,85.581C115.431,88.25 116,91.111 116,94ZM82,6C82,5.47 82.211,4.961 82.586,4.586C82.961,4.211 83.47,4 84,4L86,4C86.53,4 87.039,4.211 87.414,4.586C87.789,4.961 88,5.47 88,6L88,18C88,18.53 87.789,19.039 87.414,19.414C87.039,19.789 86.53,20 86,20L84,20C83.47,20 82.961,19.789 82.586,19.414C82.211,19.039 82,18.53 82,18L82,6ZM50,6C50,5.47 50.211,4.961 50.586,4.586C50.961,4.211 51.47,4 52,4L54,4C54.53,4 55.039,4.211 55.414,4.586C55.789,4.961 56,5.47 56,6L56,18C56,18.53 55.789,19.039 55.414,19.414C55.039,19.789 54.53,20 54,20L52,20C51.47,20 50.961,19.789 50.586,19.414C50.211,19.039 50,18.53 50,18L50,6ZM20,6C20,5.47 20.211,4.961 20.586,4.586C20.961,4.211 21.47,4 22,4L24,4C24.53,4 25.039,4.211 25.414,4.586C25.789,4.961 26,5.47 26,6L26,18C26,18.53 25.789,19.039 25.414,19.414C25.039,19.789 24.53,20 24,20L22,20C21.47,20 20.961,19.789 20.586,19.414C20.211,19.039 20,18.53 20,18L20,6ZM4,18C4,16.939 4.421,15.922 5.172,15.172C5.922,14.421 6.939,14 8,14L16,14L16,18C16,19.591 16.632,21.117 17.757,22.243C18.883,23.368 20.409,24 22,24L24,24C25.591,24 27.117,23.368 28.243,22.243C29.368,21.117 30,19.591 30,18L30,14L46,14L46,18C46,19.591 46.632,21.117 47.757,22.243C48.883,23.368 50.409,24 52,24L54,24C55.591,24 57.117,23.368 58.243,22.243C59.368,21.117 60,19.591 60,18L60,14L78,14L78,18C78,19.591 78.632,21.117 79.757,22.243C80.883,23.368 82.409,24 84,24L86,24C87.591,24 89.117,23.368 90.243,22.243C91.368,21.117 92,19.591 92,18L92,14L100,14C101.061,14 102.078,14.421 102.828,15.172C103.579,15.922 104,16.939 104,18L104,32L4,32L4,18Z" fill="#831441"/>
<path d="M4,18C4,16.939 4.421,15.922 5.172,15.172C5.922,14.421 6.939,14 8,14L16,14L16,18C16,19.591 16.632,21.117 17.757,22.243C18.883,23.368 20.409,24 22,24L24,24C25.591,24 27.117,23.368 28.243,22.243C29.368,21.117 30,19.591 30,18L30,14L46,14L46,18C46,19.591 46.632,21.117 47.757,22.243C48.883,23.368 50.409,24 52,24L54,24C55.591,24 57.117,23.368 58.243,22.243C59.368,21.117 60,19.591 60,18L60,14L78,14L78,18C78,19.591 78.632,21.117 79.757,22.243C80.883,23.368 82.409,24 84,24L86,24C87.591,24 89.117,23.368 90.243,22.243C91.368,21.117 92,19.591 92,18L92,14L100,14C101.061,14 102.078,14.421 102.828,15.172C103.579,15.922 104,16.939 104,18L104,32L4,32L4,18Z" fill="#FFFFFF"/>
<path d="M4,94L4,36L104,36L104,70C102.705,69.456 101.367,69.019 100,68.694C96.181,67.794 92.208,67.769 88.378,68.62C84.548,69.472 80.961,71.178 77.883,73.612C74.806,76.046 72.318,79.144 70.607,82.674C68.895,86.205 68.004,90.077 68,94C68.01,95.34 68.126,96.678 68.346,98L8,98C6.939,98 5.922,97.579 5.172,96.828C4.421,96.078 4,95.061 4,94Z" fill="#FFFFFF"/>
<path d="M20,6C20,5.47 20.211,4.961 20.586,4.586C20.961,4.211 21.47,4 22,4L24,4C24.53,4 25.039,4.211 25.414,4.586C25.789,4.961 26,5.47 26,6L26,18C26,18.53 25.789,19.039 25.414,19.414C25.039,19.789 24.53,20 24,20L22,20C21.47,20 20.961,19.789 20.586,19.414C20.211,19.039 20,18.53 20,18L20,6Z" fill="#FCC20A"/>
<path d="M50,6C50,5.47 50.211,4.961 50.586,4.586C50.961,4.211 51.47,4 52,4L54,4C54.53,4 55.039,4.211 55.414,4.586C55.789,4.961 56,5.47 56,6L56,18C56,18.53 55.789,19.039 55.414,19.414C55.039,19.789 54.53,20 54,20L52,20C51.47,20 50.961,19.789 50.586,19.414C50.211,19.039 50,18.53 50,18L50,6Z" fill="#FCC20A"/>
<path d="M82,6C82,5.47 82.211,4.961 82.586,4.586C82.961,4.211 83.47,4 84,4L86,4C86.53,4 87.039,4.211 87.414,4.586C87.789,4.961 88,5.47 88,6L88,18C88,18.53 87.789,19.039 87.414,19.414C87.039,19.789 86.53,20 86,20L84,20C83.47,20 82.961,19.789 82.586,19.414C82.211,19.039 82,18.53 82,18L82,6Z" fill="#FCC20A"/>
<path d="M116,94C116.004,99.241 114.137,104.311 110.734,108.298C107.332,112.284 102.618,114.925 97.442,115.745C92.266,116.565 86.966,115.51 82.499,112.77C78.031,110.031 74.688,105.786 73.072,100.8L73.045,100.711C72.93,100.331 72.814,99.948 72.708,99.482C72.232,97.694 71.994,95.851 72,94C72,91.111 72.569,88.25 73.675,85.581C74.78,82.912 76.401,80.487 78.444,78.444C80.487,76.401 82.912,74.78 85.581,73.675C88.25,72.569 91.111,72 94,72C96.889,72 99.75,72.569 102.419,73.675C105.088,74.78 107.513,76.401 109.556,78.444C111.599,80.487 113.22,82.912 114.325,85.581C115.431,88.25 116,91.111 116,94Z" fill="#831441"/>
<path d="M32,42L20,42C18.939,42 17.922,42.421 17.172,43.172C16.421,43.922 16,44.939 16,46L16,58C16,59.061 16.421,60.078 17.172,60.828C17.922,61.579 18.939,62 20,62L32,62C33.061,62 34.078,61.579 34.828,60.828C35.579,60.078 36,59.061 36,58L36,46C36,44.939 35.579,43.922 34.828,43.172C34.078,42.421 33.061,42 32,42ZM20,58L20,46L32,46L32,58L20,58Z" fill="#831441"/>
<path d="M20,58L20,46L32,46L32,58L20,58Z" fill="#FCC20A"/>
<path d="M60,42L48,42C46.939,42 45.922,42.421 45.172,43.172C44.421,43.922 44,44.939 44,46L44,58C44,59.061 44.421,60.078 45.172,60.828C45.922,61.579 46.939,62 48,62L60,62C61.061,62 62.078,61.579 62.828,60.828C63.579,60.078 64,59.061 64,58L64,46C64,44.939 63.579,43.922 62.828,43.172C62.078,42.421 61.061,42 60,42ZM48,58L48,46L60,46L60,58L48,58Z" fill="#831441"/>
<path d="M48,58L48,46L60,46L60,58L48,58Z" fill="#FCC20A"/>
<path d="M32,66L20,66C18.939,66 17.922,66.421 17.172,67.172C16.421,67.922 16,68.939 16,70L16,82C16,83.061 16.421,84.078 17.172,84.828C17.922,85.579 18.939,86 20,86L32,86C33.061,86 34.078,85.579 34.828,84.828C35.579,84.078 36,83.061 36,82L36,70C36,68.939 35.579,67.922 34.828,67.172C34.078,66.421 33.061,66 32,66ZM20,82L20,70L32,70L32,82L20,82Z" fill="#831441"/>
<path d="M20,82L20,70L32,70L32,82L20,82Z" fill="#FCC20A"/>
<path d="M60,66L48,66C46.939,66 45.922,66.421 45.172,67.172C44.421,67.922 44,68.939 44,70L44,82C44,83.061 44.421,84.078 45.172,84.828C45.922,85.579 46.939,86 48,86L60,86C61.061,86 62.078,85.579 62.828,84.828C63.579,84.078 64,83.061 64,82L64,70C64,68.939 63.579,67.922 62.828,67.172C62.078,66.421 61.061,66 60,66ZM48,82L48,70L60,70L60,82L48,82Z" fill="#831441"/>
<path d="M48,82L48,70L60,70L60,82L48,82Z" fill="#FCC20A"/>
<path d="M76,62L88,62C89.061,62 90.078,61.579 90.828,60.828C91.579,60.078 92,59.061 92,58L92,46C92,44.939 91.579,43.922 90.828,43.172C90.078,42.421 89.061,42 88,42L76,42C74.939,42 73.922,42.421 73.172,43.172C72.421,43.922 72,44.939 72,46L72,58C72,59.061 72.421,60.078 73.172,60.828C73.922,61.579 74.939,62 76,62ZM76,46L88,46L88,58L76,58L76,46Z" fill="#831441"/>
<path d="M76,46L88,46L88,58L76,58L76,46Z" fill="#FCC20A"/>
<path d="M102.586,82.586L94,91.172L85.414,82.586C85.037,82.222 84.532,82.02 84.007,82.025C83.483,82.029 82.981,82.24 82.611,82.61C82.24,82.981 82.029,83.483 82.025,84.007C82.02,84.532 82.222,85.037 82.586,85.414L91.172,94L82.586,102.586C82.395,102.771 82.243,102.991 82.138,103.235C82.033,103.479 81.978,103.742 81.976,104.007C81.973,104.273 82.024,104.536 82.125,104.782C82.225,105.028 82.374,105.251 82.561,105.439C82.749,105.627 82.972,105.775 83.218,105.876C83.464,105.976 83.727,106.027 83.993,106.025C84.259,106.022 84.521,105.967 84.765,105.862C85.009,105.757 85.23,105.605 85.414,105.414L94,96.828L102.586,105.414C102.963,105.778 103.469,105.98 103.993,105.975C104.517,105.971 105.019,105.76 105.39,105.39C105.761,105.019 105.971,104.517 105.976,103.993C105.98,103.468 105.778,102.963 105.414,102.586L96.828,94L105.414,85.414C105.778,85.037 105.98,84.532 105.976,84.007C105.971,83.483 105.761,82.981 105.39,82.61C105.019,82.24 104.517,82.029 103.993,82.025C103.469,82.02 102.963,82.222 102.586,82.586Z" fill="#FCC20A"/>
</svg>
