<svg width="134" height="142" viewBox="0 0 134 142" fill="none" xmlns="http://www.w3.org/2000/svg" xmlns:xlink="http://www.w3.org/1999/xlink">
<path d="M111.139,105.419C111.139,105.561 111.139,105.71 111.139,105.852C111.139,105.994 111.139,106.149 111.139,106.303C111.139,106.458 111.139,106.606 111.139,106.755C111.139,106.903 111.139,107.07 111.108,107.237C111.077,107.404 111.108,107.552 111.058,107.707L111.003,108.214C111.003,108.375 110.953,108.542 110.929,108.709C110.904,108.876 110.879,109.055 110.848,109.234C110.817,109.414 110.787,109.581 110.756,109.754C110.725,109.927 110.694,110.119 110.657,110.31C110.62,110.502 110.577,110.669 110.54,110.848C110.503,111.028 110.472,111.158 110.435,111.318C104.556,121.268 98.147,129.016 91.362,134.371C83.878,140.468 74.104,143.306 67.04,141.427C62.317,140.19 58.902,136.999 56.877,131.997C56.877,131.891 56.877,131.786 56.877,131.681C56.877,131.576 56.877,131.403 56.914,131.267C56.951,131.131 56.963,130.964 56.988,130.809C57.013,130.655 57.044,130.525 57.075,130.383C57.105,130.24 57.155,130.073 57.198,129.913C57.241,129.752 57.278,129.622 57.322,129.474C57.365,129.325 57.433,129.152 57.494,128.991C57.556,128.831 57.599,128.694 57.655,128.546C57.711,128.398 57.797,128.212 57.871,128.045C57.945,127.878 58.001,127.742 58.075,127.588L58.328,127.074C58.408,126.92 58.482,126.771 58.569,126.617C58.655,126.462 58.76,126.264 58.865,126.091C58.97,125.918 59.044,125.776 59.137,125.621C59.229,125.467 59.359,125.263 59.47,125.083L59.779,124.613C59.896,124.434 60.026,124.248 60.149,124.069L60.489,123.593C60.619,123.407 60.761,123.222 60.897,123.036L61.261,122.56L61.712,121.998L62.101,121.521C62.255,121.33 62.422,121.138 62.582,120.953C62.743,120.767 62.854,120.631 62.996,120.476C63.138,120.322 63.335,120.093 63.515,119.901C63.694,119.71 63.799,119.58 63.947,119.425L64.496,118.844C64.644,118.689 64.793,118.529 64.947,118.374L65.521,117.799L66.003,117.323L66.62,116.748L67.12,116.271L67.738,115.696C67.905,115.542 68.071,115.387 68.25,115.233C68.429,115.078 68.683,114.849 68.905,114.658C69.127,114.466 69.251,114.348 69.43,114.2C69.609,114.052 69.874,113.817 70.103,113.631L70.646,113.173L71.331,112.617L71.893,112.166L72.597,111.615L73.171,111.17L73.894,110.626L74.474,110.193L75.215,109.655L75.833,109.234L76.586,108.709L77.203,108.301L77.981,107.781L78.599,107.392L79.395,106.878L79.97,106.507L80.766,106.013L81.384,105.654C81.649,105.487 81.915,105.333 82.186,105.178L82.804,104.826L83.619,104.362L84.193,104.04L85.039,103.583L85.588,103.286L86.508,102.81L86.972,102.575C87.435,102.34 87.898,102.117 88.355,101.901C97.802,97.43 105.489,96.428 108.922,99.211C109.077,99.337 109.226,99.471 109.366,99.613L109.508,99.78C109.595,99.872 109.688,99.965 109.768,100.07C109.848,100.175 109.867,100.212 109.916,100.281C109.965,100.349 110.058,100.466 110.12,100.571C110.17,100.651 110.215,100.733 110.256,100.818C110.317,100.917 110.373,101.01 110.428,101.115C110.484,101.22 110.509,101.301 110.546,101.387C110.583,101.474 110.645,101.604 110.688,101.715C110.731,101.826 110.756,101.913 110.787,102.012C110.817,102.111 110.867,102.241 110.904,102.358C110.941,102.476 110.959,102.581 110.984,102.692L111.077,103.051L111.132,103.409C111.132,103.539 111.182,103.663 111.2,103.793L111.237,104.176C111.237,104.312 111.268,104.442 111.274,104.584C111.281,104.727 111.274,104.856 111.274,104.992C111.274,105.129 111.139,105.271 111.139,105.419Z" fill="#831441"/>
<path d="M120.141,84.749C120.141,85.009 120.141,85.287 120.141,85.553C120.141,85.819 120.141,86.103 120.141,86.388C120.141,86.672 120.11,86.957 120.091,87.241C120.073,87.525 120.091,87.816 120.036,88.113C119.98,88.41 119.98,88.731 119.949,89.003C119.918,89.275 119.894,89.622 119.857,89.925C119.82,90.228 119.776,90.543 119.733,90.852C119.69,91.161 119.653,91.471 119.604,91.817C119.554,92.163 119.499,92.472 119.443,92.8C119.387,93.128 119.344,93.418 119.289,93.715C117.652,97.487 115.948,101.086 114.195,104.475C114.195,104.388 114.195,104.302 114.195,104.215L114.121,103.479C114.121,103.343 114.084,103.201 114.059,103.065C114.022,102.824 113.979,102.583 113.929,102.348C113.929,102.23 113.886,102.113 113.855,102.001C113.781,101.686 113.695,101.383 113.596,101.086L113.596,101.006C113.485,100.684 113.367,100.387 113.231,100.084C113.194,99.992 113.145,99.905 113.102,99.819C113.003,99.614 112.904,99.417 112.793,99.2C112.682,98.984 112.67,99.002 112.614,98.903C112.558,98.804 112.386,98.557 112.268,98.396L112.058,98.118C111.929,97.951 111.787,97.79 111.645,97.636L111.441,97.419C111.223,97.199 110.992,96.992 110.749,96.801C104.661,91.854 93.208,96.121 86.916,99.095C86.459,99.311 85.996,99.54 85.533,99.769L85.094,99.992L84.143,100.48L83.637,100.746L82.729,101.241L82.229,101.513L81.229,102.082L80.84,102.298L79.475,103.108L79.161,103.3L78.111,103.955L77.617,104.271L76.746,104.833L76.221,105.174L75.363,105.755L74.875,106.089C74.53,106.324 74.196,106.559 73.857,106.8L73.554,107.016C73.128,107.319 72.702,107.635 72.282,107.944C72.134,108.049 71.998,108.154 71.856,108.265C71.566,108.476 71.282,108.692 70.998,108.884L70.504,109.273L69.732,109.892L69.244,110.287L68.454,110.937L68.028,111.295C67.645,111.617 67.269,111.914 66.898,112.266L66.663,112.47L65.725,113.317C65.583,113.441 65.447,113.571 65.311,113.701L64.533,114.4L64.101,114.82L63.44,115.438L63.033,115.853C62.792,116.094 62.564,116.335 62.329,116.576L62.014,116.904C61.693,117.25 61.397,117.59 61.069,117.937C60.977,118.036 60.896,118.135 60.81,118.233C60.582,118.487 60.365,118.741 60.149,118.994L59.816,119.396L59.273,120.07C59.168,120.206 59.056,120.342 58.952,120.484L58.427,121.165L58.149,121.542C57.933,121.832 57.729,122.123 57.531,122.414C57.494,122.475 57.445,122.531 57.408,122.593C57.173,122.939 56.951,123.286 56.735,123.626L56.543,123.947C56.395,124.19 56.253,124.432 56.117,124.671C56.043,124.794 55.975,124.918 55.907,125.048C55.784,125.27 55.667,125.493 55.556,125.716L55.37,126.087C55.37,126.155 55.296,126.223 55.265,126.297C55.105,125.332 54.981,124.331 54.895,123.292C54.514,117.04 54.514,110.77 54.895,104.518C55.364,97.098 72.918,81.942 89.67,74.441C90.343,74.144 91.003,73.86 91.658,73.587L91.948,73.47C92.565,73.21 93.183,72.975 93.8,72.747L94.128,72.623C94.745,72.4 95.362,72.184 95.93,72.004L96.147,71.936C96.764,71.739 97.332,71.553 97.906,71.386L98.005,71.386C98.586,71.219 99.16,71.065 99.722,70.929L99.999,70.86C100.543,70.731 101.074,70.613 101.605,70.508L101.877,70.459C102.408,70.353 102.932,70.267 103.445,70.193L103.575,70.193C104.081,70.125 104.575,70.075 105.056,70.032L105.217,70.032C105.699,69.995 106.168,69.976 106.631,69.964L106.884,69.964C107.261,69.964 107.631,69.964 107.995,69.964L108.354,69.964C108.811,69.989 109.255,70.032 109.687,70.094L109.971,70.137C110.305,70.186 110.632,70.242 110.953,70.316L111.379,70.421C111.638,70.483 111.892,70.551 112.139,70.632C112.287,70.675 112.429,70.731 112.571,70.78C112.812,70.86 113.04,70.953 113.268,71.052L113.664,71.225C113.898,71.337 114.121,71.46 114.343,71.584L114.658,71.763C114.974,71.952 115.279,72.158 115.572,72.382C115.849,72.598 116.109,72.833 116.362,73.074C116.455,73.167 116.541,73.272 116.634,73.371C116.726,73.47 116.936,73.686 117.078,73.86C117.22,74.033 117.263,74.113 117.362,74.243C117.461,74.373 117.609,74.558 117.72,74.731C117.831,74.905 117.893,75.016 117.98,75.158C118.066,75.3 118.19,75.504 118.288,75.684C118.387,75.863 118.443,76.005 118.517,76.166C118.591,76.327 118.702,76.531 118.782,76.729C118.863,76.927 118.912,77.087 118.98,77.261C119.048,77.434 119.134,77.65 119.202,77.879C119.27,78.108 119.313,78.262 119.369,78.46C119.424,78.658 119.492,78.875 119.548,79.079C119.604,79.283 119.634,79.499 119.678,79.697C119.721,79.895 119.776,80.142 119.813,80.377C119.851,80.612 119.881,80.822 119.912,81.045C119.943,81.268 119.986,81.515 120.011,81.762C120.036,82.01 120.054,82.245 120.073,82.48C120.091,82.715 120.116,82.974 120.135,83.234C120.153,83.494 120.135,83.741 120.135,84.001C120.135,84.26 120.141,84.477 120.141,84.749Z" fill="#831441"/>
<path d="M131.033,59.18C128.711,67.923 126.093,76.197 123.21,83.914C123.21,83.469 123.173,83.03 123.142,82.597C123.142,82.498 123.142,82.405 123.142,82.306C123.142,81.88 123.068,81.465 123.019,81.07C123.019,80.958 122.988,80.841 122.975,80.723C122.907,80.247 122.833,79.784 122.747,79.332C122.747,79.258 122.716,79.184 122.697,79.11C122.617,78.72 122.531,78.343 122.432,77.972C122.432,77.867 122.383,77.761 122.352,77.656C122.234,77.236 122.105,76.822 121.969,76.42C121.946,76.367 121.925,76.313 121.907,76.259C121.777,75.906 121.642,75.566 121.493,75.239C121.45,75.146 121.413,75.047 121.37,74.954C121.197,74.589 121.018,74.224 120.827,73.884L120.765,73.779C120.586,73.464 120.394,73.161 120.197,72.87L120.03,72.629C119.808,72.314 119.573,72.011 119.326,71.714L119.283,71.664C119.048,71.392 118.801,71.133 118.542,70.879L118.332,70.675C118.054,70.415 117.77,70.162 117.474,69.927C111.571,65.283 101.247,65.889 88.41,71.64C87.947,71.844 87.484,72.06 87.015,72.258L86.601,72.456L85.558,72.963L85.138,73.173C84.687,73.396 84.236,73.631 83.786,73.866L83.718,73.903C83.242,74.15 82.767,74.404 82.285,74.67L81.89,74.886L80.816,75.504C80.674,75.579 80.538,75.659 80.402,75.739L79.031,76.519L78.957,76.568C78.476,76.852 77.988,77.149 77.506,77.446L77.173,77.656C76.79,77.891 76.413,78.132 76.037,78.374L75.685,78.596L74.283,79.518L72.826,80.513L72.61,80.662C72.196,80.946 71.789,81.237 71.375,81.527L71.134,81.694C70.179,82.387 69.241,83.086 68.319,83.791L68.263,83.834C67.818,84.18 67.374,84.526 66.936,84.879L66.837,84.959C62.126,88.731 58.063,92.707 55.346,96.405C55.488,94.303 55.636,92.169 55.791,89.98C56.075,85.986 56.365,81.855 56.599,77.724C57.1,72.555 56.05,68.449 53.512,65.543C52.519,64.423 51.333,63.49 50.011,62.791L50.69,62.686L52.074,62.469L53.549,62.222L54.883,61.987L56.328,61.721L57.606,61.474L59.02,61.183L60.255,60.923L61.638,60.614L62.823,60.342L64.176,60.021L65.312,59.736L66.645,59.396L67.732,59.112L69.041,58.753L70.091,58.462L71.381,58.085L72.381,57.794L73.666,57.405L74.617,57.12L75.889,56.718L76.796,56.428L78.08,56.014L78.92,55.735C79.359,55.593 79.791,55.451 80.217,55.302L81.007,55.037C81.464,54.888 81.909,54.734 82.353,54.579L83.045,54.344L84.514,53.837L85.051,53.651L86.996,52.971C98.043,49.119 107.582,45.798 118.968,45.699C119.446,45.699 119.909,45.712 120.357,45.736L120.771,45.736L121.672,45.798L122.173,45.86C122.426,45.86 122.673,45.909 122.914,45.947L123.438,46.033C123.654,46.07 123.871,46.101 124.056,46.144L124.105,46.144C127.304,46.763 129.52,48.098 130.7,50.028C131.984,52.217 132.132,55.284 131.033,59.18Z" fill="#831441"/>
<path d="M117.313,42.668L117.011,42.668L116.023,42.717C115.64,42.717 115.257,42.754 114.88,42.785L113.911,42.865L112.794,42.971L111.843,43.076L110.737,43.218L109.805,43.354L108.706,43.527L107.786,43.688C107.422,43.75 107.064,43.818 106.705,43.892L105.798,44.071L104.711,44.306L103.822,44.51L102.735,44.776L101.858,44.993L100.759,45.283L99.901,45.518L98.79,45.834L97.944,46.081L96.808,46.427L95.98,46.681L94.801,47.058L94.011,47.311L92.776,47.726L92.035,47.967L90.676,48.431L90.059,48.647L88.546,49.173L88.021,49.352L85.978,50.063C75.561,53.693 63.749,57.811 47.992,59.957C47.189,60.044 46.393,60.118 45.596,60.18C43.207,60.378 40.842,60.483 38.551,60.495C29.339,60.557 21.207,59.172 14.958,56.482L14.736,56.309C14.66,56.256 14.588,56.198 14.52,56.136C14.437,56.064 14.359,55.988 14.285,55.907C14.218,55.839 14.143,55.771 14.082,55.696C14.02,55.622 13.934,55.511 13.866,55.418C13.798,55.325 13.736,55.257 13.674,55.171C13.612,55.084 13.545,54.967 13.477,54.862C13.409,54.757 13.359,54.676 13.31,54.577C13.26,54.478 13.186,54.342 13.131,54.225C13.075,54.107 13.026,54.021 12.976,53.909C12.927,53.798 12.878,53.656 12.822,53.526L12.649,53.18C12.6,53.044 12.563,52.901 12.52,52.759C12.476,52.617 12.445,52.518 12.408,52.388C12.371,52.258 12.34,52.091 12.31,51.943C12.279,51.795 12.248,51.677 12.223,51.541C12.198,51.405 12.174,51.22 12.149,51.065C12.124,50.91 12.106,50.787 12.087,50.644C12.069,50.502 12.087,50.304 12.044,50.137C12.001,49.97 12.044,49.847 12.013,49.705C11.982,49.562 12.013,49.346 12.013,49.167C12.013,48.987 12.013,48.87 12.013,48.715C12.013,48.561 12.013,48.344 12.013,48.152C12.013,47.961 12.013,47.856 12.013,47.701C12.013,47.546 12.056,47.299 12.081,47.083C12.106,46.866 12.112,46.786 12.131,46.637C12.149,46.489 12.205,46.205 12.248,46.019C12.291,45.834 12.291,45.729 12.322,45.58C12.353,45.432 12.433,45.11 12.495,44.869C12.526,44.739 12.55,44.615 12.587,44.486C12.692,44.115 12.804,43.744 12.933,43.366C12.983,43.218 13.038,43.063 13.106,42.896C13.174,42.729 13.168,42.723 13.205,42.637C15.138,37.789 22.312,26.219 46.547,26.213C49.196,26.213 52.043,26.349 55.105,26.646C61.675,27.264 67.67,27.981 72.962,28.594C91.084,30.69 101.068,31.846 104.211,27.586C104.23,27.557 104.25,27.531 104.273,27.505C106.878,32.774 110.071,38.011 117.313,42.668Z" fill="#831441"/>
<path d="M102.105,24.506C102.105,24.581 102.105,24.649 102.105,24.717C102.105,24.785 102.105,24.902 102.105,24.982C102.088,25.054 102.067,25.124 102.043,25.193C102.029,25.26 102.01,25.326 101.987,25.391C101.939,25.514 101.874,25.63 101.796,25.737C99.709,28.557 88.095,27.209 73.393,25.508C68.089,24.89 62.076,24.203 55.487,23.56C42.342,22.262 31.58,23.721 23.46,27.827C15.057,32.069 11.537,38.061 10.062,42.34C9.901,42.804 9.765,43.268 9.642,43.731C9.598,43.886 9.568,44.034 9.531,44.189C9.45,44.498 9.376,44.807 9.314,45.123L9.222,45.654C9.172,45.939 9.129,46.23 9.092,46.514C9.092,46.693 9.049,46.879 9.03,47.058C9.03,47.336 8.981,47.615 8.962,47.887C8.962,48.066 8.962,48.252 8.962,48.431C8.962,48.703 8.962,48.981 8.962,49.253C8.962,49.42 8.962,49.593 8.962,49.76C8.962,50.045 8.981,50.329 9.018,50.614L9.055,51.047C9.1,51.413 9.156,51.772 9.222,52.123C9.219,52.178 9.219,52.234 9.222,52.289C9.296,52.691 9.395,53.081 9.5,53.464L9.5,53.526C2.745,48.851 -0.429,42.093 0.046,33.312C0.787,23.498 6.425,15.126 16.366,9.078C26.307,3.03 39.15,0 52.48,0C63.806,-0.037 75.026,2.187 85.483,6.543C94.282,10.513 98.172,15.262 101.222,21.167C101.29,21.322 101.345,21.464 101.401,21.612C101.456,21.761 101.5,21.847 101.543,21.959C101.586,22.07 101.629,22.206 101.673,22.33C101.716,22.453 101.759,22.577 101.796,22.694C101.833,22.812 101.852,22.899 101.876,22.997C101.901,23.096 101.944,23.245 101.975,23.362C102.006,23.48 101.975,23.535 102.018,23.616C102.062,23.696 102.062,23.857 102.074,23.968C102.08,24.047 102.08,24.125 102.074,24.203C102.092,24.302 102.105,24.414 102.105,24.506Z" fill="#831441"/>
<path d="M111.144,111.005C105.472,120.622 99.037,128.587 91.972,134.173C80.604,143.421 61.856,146.882 55.682,130.923C55.815,112.107 119.855,74.263 111.144,111.005Z" fill="url(#pf_0_646_8557)"/>
<path d="M119.891,93.641C117.339,99.599 114.42,105.394 111.15,110.992C119.855,74.262 55.815,112.106 55.688,130.922C54.656,128.14 54.025,125.226 53.811,122.267C53.441,116.079 53.441,109.875 53.811,103.687C54.858,86.965 129.837,39.341 119.891,93.641Z" fill="url(#pf_0_646_8558)"/>
<path d="M131.431,59.815C128.416,71.356 124.56,82.662 119.893,93.64C129.839,39.322 54.86,86.983 53.782,103.686C54.188,95.274 54.993,86.432 55.477,77.438C57.051,61.322 41.929,62.441 39.272,62.211C42.371,62.211 45.525,62.005 48.679,61.673C80.841,57.279 95.83,44.89 118.107,44.696C119.899,44.693 121.686,44.861 123.446,45.199L123.446,45.199C130.226,46.603 133.888,50.93 131.431,59.815Z" fill="url(#pf_0_646_8559)"/>
<path d="M123.445,45.198C121.685,44.861 119.897,44.692 118.105,44.696C95.829,44.89 80.84,57.278 48.678,61.672C45.524,62.005 42.37,62.193 39.271,62.211C30.469,62.271 22.109,61 15.384,58.089C7.096,52.818 10.044,21.613 55.688,26.025C90.156,29.372 107.615,34.141 102.112,21.559C106.392,29.79 108.474,38.529 123.445,45.198Z" fill="url(#pf_0_646_8560)"/>
<defs>
<linearGradient id="pf_0_646_8557" x1="55.682" y1="118.77" x2="111.955" y2="118.77" gradientUnits="userSpaceOnUse">
<stop offset="0.06" stop-color="#EB7A26"/>
<stop offset="0.17" stop-color="#EF8D21"/>
<stop offset="0.36" stop-color="#F3A61B"/>
<stop offset="0.55" stop-color="#F6B716"/>
<stop offset="0.76" stop-color="#F8C214"/>
<stop offset="1" stop-color="#F9C513"/>
</linearGradient>
<linearGradient id="pf_0_646_8558" x1="53.514" y1="99.65" x2="120.799" y2="99.65" gradientUnits="userSpaceOnUse">
<stop stop-color="#B52147"/>
<stop offset="0.06" stop-color="#BD2644"/>
<stop offset="0.29" stop-color="#D43739"/>
<stop offset="0.51" stop-color="#E34133"/>
<stop offset="0.69" stop-color="#E84531"/>
</linearGradient>
<linearGradient id="pf_0_646_8559" x1="39.272" y1="74.194" x2="132.199" y2="74.194" gradientUnits="userSpaceOnUse">
<stop stop-color="#6E1843"/>
<stop offset="1" stop-color="#BD1F4D"/>
</linearGradient>
<linearGradient id="pf_0_646_8560" x1="14.905" y1="48.073" x2="125.448" y2="32.095" gradientUnits="userSpaceOnUse">
<stop stop-color="#F47640"/>
<stop offset="0.1" stop-color="#F68537"/>
<stop offset="0.3" stop-color="#FA9E29"/>
<stop offset="0.51" stop-color="#FCAF1F"/>
<stop offset="0.73" stop-color="#FEBA19"/>
<stop offset="1" stop-color="#FEBD17"/>
</linearGradient>
</defs>
</svg>
