<svg width="64" height="30" viewBox="0 0 64 30" fill="none" xmlns="http://www.w3.org/2000/svg" xmlns:xlink="http://www.w3.org/1999/xlink">
<path d="M55.443,9.115C55.082,8.89 54.704,8.991 54.366,9.397C53.751,10.136 53.051,10.796 52.392,11.496C52.392,11.529 52.318,11.58 52.262,11.496C52.375,11.208 52.51,10.932 52.606,10.616C52.773,10.19 52.806,9.724 52.702,9.279C52.684,9.153 52.635,9.034 52.559,8.931C52.483,8.829 52.382,8.748 52.267,8.695C52.151,8.641 52.024,8.618 51.897,8.626C51.77,8.635 51.647,8.675 51.54,8.743C51.268,8.877 51.029,9.07 50.841,9.307C50.034,10.283 49.233,11.264 48.427,12.246L47.976,12.793C47.951,12.654 47.967,12.511 48.021,12.381C48.327,11.655 48.556,10.899 48.703,10.125C48.754,9.936 48.74,9.736 48.663,9.556C48.586,9.376 48.452,9.227 48.28,9.132C48.067,9.011 47.823,8.954 47.578,8.968C47.332,8.982 47.097,9.067 46.898,9.211C46.526,9.539 46.143,9.849 45.799,10.198C45.455,10.548 45.33,10.514 45.009,10.198C43.971,9.2 42.753,8.766 41.354,9.386C40.487,9.813 39.759,10.478 39.256,11.304C38.429,12.58 37.789,13.969 37.356,15.427C37.321,15.585 37.248,15.733 37.141,15.855C36.563,16.446 35.885,16.931 35.139,17.288C34.011,17.773 33.193,17.243 33.131,16.024C33.102,15.345 33.161,14.664 33.306,14C33.763,11.93 34.97,10.706 36.837,10.39C37.107,10.345 37.198,10.39 37.181,10.678C37.145,10.998 37.172,11.321 37.26,11.631C37.356,11.907 37.48,12.195 37.824,12.155C37.986,12.144 38.139,12.076 38.256,11.962C38.373,11.848 38.445,11.697 38.461,11.535C38.496,11.243 38.483,10.948 38.422,10.661C38.401,10.487 38.344,10.319 38.256,10.168C38.167,10.017 38.047,9.886 37.905,9.784C37.763,9.682 37.601,9.61 37.43,9.574C37.259,9.537 37.082,9.537 36.91,9.572C36.516,9.622 36.135,9.74 35.782,9.922C34.586,10.523 33.538,11.382 32.714,12.436C31.889,13.49 31.307,14.714 31.011,16.019C30.923,16.462 30.717,16.874 30.413,17.209C30.042,17.672 29.582,18.055 29.059,18.337C28.687,18.5 28.495,18.337 28.422,17.959C28.403,17.707 28.424,17.454 28.484,17.209C28.831,15.866 29.315,14.562 29.928,13.317C30.644,11.665 31.372,10.018 32.088,8.371C32.184,8.157 32.206,7.918 32.151,7.69C32.096,7.462 31.967,7.259 31.783,7.113C31.588,6.993 31.357,6.947 31.13,6.982C30.904,7.017 30.698,7.132 30.548,7.305C30.351,7.488 30.199,7.714 30.103,7.965C30.001,8.241 29.9,8.529 29.792,8.788C28.868,11.32 27.675,13.746 26.234,16.024C25.739,16.849 25.097,17.576 24.339,18.168C23.549,18.732 22.968,18.506 22.765,17.564C22.731,17.395 22.726,17.22 22.697,17.051C22.652,16.741 22.754,16.594 23.092,16.487C24.184,16.125 25.158,15.475 25.91,14.605C26.663,13.736 27.166,12.679 27.367,11.546C27.508,10.294 26.736,9.646 25.523,9.978C24.715,10.228 23.987,10.687 23.414,11.309C21.936,12.87 20.879,14.779 20.34,16.859C20.214,17.269 19.956,17.626 19.607,17.874C19.268,18.139 18.998,18.032 18.919,17.604C18.885,17.406 18.873,17.206 18.885,17.006C18.918,16.328 19.027,15.656 19.212,15.004C19.674,13.385 20.34,11.834 20.904,10.26C21.152,9.642 21.357,9.007 21.519,8.36C21.566,8.163 21.543,7.956 21.454,7.774C21.364,7.593 21.213,7.449 21.028,7.367C20.673,7.232 20.464,7.367 20.182,7.813L15.478,16.227C15.422,16.318 15.405,16.459 15.208,16.47C15.382,15.906 15.557,15.342 15.732,14.778L17.526,9.138C17.675,8.762 17.691,8.346 17.571,7.959C17.539,7.822 17.469,7.695 17.369,7.595C17.269,7.495 17.143,7.424 17.006,7.391C16.868,7.359 16.724,7.365 16.59,7.409C16.455,7.454 16.336,7.535 16.245,7.643C15.984,7.912 15.738,8.195 15.506,8.489C13.459,11.056 11.654,13.797 9.804,16.504L7.464,19.888C7.369,19.917 7.281,19.965 7.206,20.03C7.132,20.095 7.071,20.176 7.03,20.266C6.607,20.954 6.026,21.546 5.851,22.369C5.479,22.877 5.112,23.379 4.723,23.875C4.413,24.312 4.032,24.694 3.595,25.003C3.507,25.089 3.399,25.15 3.28,25.182C3.161,25.213 3.036,25.213 2.918,25.182C2.799,25.151 2.69,25.089 2.603,25.004C2.515,24.918 2.45,24.811 2.416,24.693C2.232,24.351 2.111,23.978 2.061,23.593C2.031,23.471 1.972,23.357 1.891,23.261C1.809,23.165 1.706,23.09 1.59,23.041C1.474,22.991 1.348,22.97 1.222,22.978C1.096,22.985 0.974,23.022 0.865,23.086C0.595,23.258 0.383,23.508 0.256,23.802C0.092,24.128 0.005,24.488 0,24.853C-0.004,25.219 0.074,25.58 0.23,25.911C0.386,26.241 0.615,26.532 0.9,26.76C1.185,26.989 1.518,27.15 1.875,27.231C2.126,27.317 2.396,27.333 2.656,27.277C2.915,27.22 3.154,27.093 3.347,26.91C3.83,26.471 4.281,25.998 4.695,25.494C5.456,24.597 6.099,23.616 6.793,22.674C6.953,22.616 7.091,22.51 7.188,22.369C7.515,21.856 7.881,21.377 8.22,20.869C8.267,20.807 8.301,20.736 8.319,20.66C8.338,20.585 8.34,20.506 8.327,20.429C10.019,17.846 11.711,15.263 13.544,12.759C13.589,12.697 13.623,12.612 13.73,12.657C13.837,12.703 13.73,12.838 13.73,12.928C13.388,14.515 13.046,16.103 12.703,17.694C12.549,18.247 12.549,18.832 12.703,19.386C12.725,19.521 12.783,19.647 12.872,19.75C12.961,19.853 13.077,19.93 13.207,19.971C13.337,20.012 13.476,20.016 13.608,19.982C13.741,19.949 13.861,19.879 13.955,19.781C14.316,19.503 14.617,19.156 14.841,18.76C15.495,17.632 16.082,16.504 16.663,15.336C16.725,15.218 16.736,15.049 16.939,14.992C16.894,15.522 16.843,16.036 16.815,16.549C16.722,17.503 16.839,18.465 17.159,19.369C17.197,19.535 17.277,19.689 17.392,19.814C17.508,19.94 17.654,20.033 17.817,20.084C17.979,20.136 18.153,20.144 18.319,20.107C18.486,20.071 18.64,19.991 18.766,19.876C19.239,19.548 19.644,19.131 19.956,18.647C20.227,18.252 20.221,18.258 20.52,18.647C20.668,18.868 20.83,19.079 21.005,19.279C21.834,20.187 22.652,20.266 23.656,19.544C24.5,18.875 25.272,18.118 25.957,17.288C26.025,17.214 26.07,17.073 26.194,17.107C26.318,17.141 26.284,17.288 26.301,17.384C26.403,18.099 26.65,18.787 27.029,19.403C27.177,19.652 27.416,19.834 27.695,19.912C27.975,19.99 28.273,19.957 28.529,19.82C28.82,19.684 29.089,19.508 29.33,19.296C29.796,18.897 30.22,18.451 30.593,17.965C30.796,17.699 30.892,17.745 31.005,18.032C31.113,18.306 31.243,18.57 31.394,18.822C31.512,19.056 31.676,19.264 31.877,19.433C32.078,19.602 32.312,19.727 32.563,19.802C32.815,19.877 33.079,19.9 33.34,19.869C33.6,19.838 33.852,19.754 34.079,19.623C34.532,19.397 34.952,19.108 35.325,18.765C35.907,18.236 36.438,17.652 36.91,17.023C37.006,16.899 37.068,16.667 37.226,16.69C37.384,16.712 37.344,16.955 37.384,17.096C37.47,17.432 37.586,17.761 37.728,18.077C37.937,18.567 38.326,18.958 38.816,19.168C39.305,19.378 39.857,19.392 40.356,19.205C41.19,18.94 41.926,18.434 42.471,17.75C43.86,16.111 44.726,14.094 44.958,11.958C44.998,11.631 45.094,11.434 45.398,11.343C45.545,11.304 45.691,11.112 45.827,11.23C45.962,11.349 45.793,11.501 45.742,11.631L43.898,16.571C43.743,16.927 43.672,17.312 43.689,17.699C43.691,17.93 43.779,18.152 43.935,18.322C44.091,18.492 44.305,18.598 44.535,18.619C44.768,18.657 45.006,18.615 45.212,18.499C45.417,18.383 45.576,18.201 45.663,17.981C46.103,16.91 46.549,15.844 46.983,14.767C47.019,14.652 47.081,14.547 47.164,14.46C47.247,14.373 47.349,14.306 47.462,14.265C47.575,14.231 47.699,14.073 47.818,14.191C47.936,14.31 47.818,14.417 47.767,14.524C47.507,15.263 47.237,16.002 46.983,16.746C46.895,17.022 46.903,17.319 47.005,17.589C47.108,17.859 47.299,18.087 47.547,18.235C47.681,18.283 47.824,18.304 47.966,18.296C48.109,18.288 48.248,18.251 48.376,18.189C48.504,18.126 48.619,18.039 48.713,17.932C48.806,17.824 48.878,17.699 48.923,17.564C49.514,16.318 50.273,15.158 51.179,14.118C51.269,14.017 51.337,13.876 51.506,13.842C51.475,14.194 51.407,14.542 51.303,14.88C51.071,15.66 50.994,16.478 51.078,17.288C51.085,17.44 51.127,17.589 51.201,17.722C51.275,17.855 51.379,17.97 51.505,18.057C51.63,18.143 51.774,18.2 51.925,18.222C52.076,18.244 52.23,18.231 52.375,18.185C52.921,18.062 53.444,17.855 53.926,17.57C54.185,17.44 54.117,17.35 53.926,17.226C53.734,17.102 53.537,16.949 53.362,16.814C52.882,16.487 52.848,16.419 53.029,15.855C53.342,14.976 53.732,14.127 54.196,13.317C54.76,12.274 55.324,11.259 55.804,10.187C55.871,9.994 55.871,9.784 55.806,9.59C55.741,9.396 55.613,9.229 55.443,9.115ZM22.731,15.173C22.942,14.206 23.361,13.298 23.961,12.511C24.297,12.012 24.719,11.576 25.207,11.225C25.424,11.068 25.669,10.955 25.929,10.892C26.493,10.774 26.736,10.982 26.73,11.738C26.536,13.053 25.846,14.244 24.801,15.066C24.421,15.404 23.978,15.664 23.498,15.833C22.833,16.047 22.596,15.85 22.714,15.173L22.731,15.173ZM44.231,12.505C43.945,13.951 43.293,15.299 42.336,16.419C42.073,16.725 41.728,16.95 41.343,17.068C41.15,17.144 40.942,17.175 40.735,17.156C40.529,17.137 40.329,17.071 40.153,16.961C39.977,16.851 39.829,16.702 39.721,16.524C39.613,16.347 39.549,16.147 39.533,15.94C39.533,15.782 39.533,15.618 39.482,15.376C39.575,13.607 40.352,11.943 41.648,10.734C42.036,10.379 42.542,10.178 43.069,10.17C43.351,10.17 43.537,10.243 43.418,10.593C43.328,10.889 43.305,11.201 43.351,11.507C43.345,11.599 43.358,11.692 43.389,11.78C43.42,11.867 43.469,11.947 43.532,12.015C43.596,12.083 43.673,12.136 43.758,12.173C43.843,12.21 43.935,12.229 44.028,12.229C44.242,12.229 44.259,12.33 44.214,12.505L44.231,12.505Z" fill="#EC2429"/>
<path d="M8.344,20.446C7.767,21.153 7.252,21.907 6.804,22.702C7.983,23.404 9.21,24.022 10.476,24.552C16.116,26.921 22.054,27.913 28.117,28.302C31.301,28.485 34.494,28.436 37.671,28.156C41.572,27.872 45.441,27.249 49.233,26.295C52.378,25.547 55.391,24.325 58.167,22.668C60.195,21.485 61.888,19.804 63.085,17.784C63.651,16.782 63.964,15.657 63.999,14.507C64.035,12.59 63.348,10.73 62.075,9.296C60.277,7.155 57.974,5.494 55.375,4.462C47.571,1.282 39.229,-0.368 30.802,-0.399C30.782,-0.4 30.761,-0.402 30.74,-0.404C30.631,-0.415 30.511,-0.427 30.407,-0.281L30.915,-0.179C36.506,0.815 42.02,2.21 47.412,3.994C50.443,4.954 53.36,6.246 56.108,7.846C57.408,8.589 58.577,9.542 59.566,10.666C60.379,11.525 60.861,12.644 60.926,13.824C60.991,15.005 60.635,16.17 59.921,17.113C59.247,18.077 58.4,18.907 57.422,19.561C55.318,20.967 52.997,22.02 50.553,22.679C43.33,24.846 35.78,25.719 28.253,25.257C24.164,25.001 20.106,24.384 16.127,23.413C13.404,22.802 10.783,21.803 8.344,20.446ZM6.281,21.758C6.699,21.152 7.116,20.549 7.464,19.898C6.509,19.239 5.683,18.409 5.027,17.451C4.625,16.892 4.337,16.259 4.181,15.588C4.024,14.917 4.001,14.222 4.114,13.542C4.373,12.386 5.012,11.349 5.93,10.598C7.127,9.53 8.491,8.665 9.968,8.038C13.601,6.48 17.431,5.427 21.349,4.908C26.655,4.089 32.036,3.877 37.389,4.276C40.708,4.5 43.995,5.067 47.197,5.968C47.209,5.973 47.221,5.978 47.233,5.984C47.329,6.025 47.426,6.068 47.541,6.013C47.502,5.991 47.502,5.951 47.502,5.951C47.395,5.896 47.286,5.847 47.175,5.804C39.487,2.965 31.271,1.842 23.103,2.516C17.474,2.91 11.957,4.289 6.804,6.588C4.789,7.432 3.068,8.853 1.858,10.672C0.945,12.058 0.547,13.721 0.735,15.37C0.922,17.019 1.683,18.55 2.884,19.695C3.742,20.529 4.672,21.284 5.665,21.951C5.677,21.96 5.69,21.968 5.703,21.977C5.849,22.074 5.991,22.168 5.851,22.386C5.992,22.175 6.137,21.966 6.281,21.758Z" clip-rule="evenodd" fill-rule="evenodd" fill="#2A367D"/>
</svg>
