<svg width="98" height="120" viewBox="0 0 98 120" fill="none" xmlns="http://www.w3.org/2000/svg" xmlns:xlink="http://www.w3.org/1999/xlink">
<path d="M8.576,107.616C9.733,108.117 11.011,108.117 12.169,107.616L18.477,104.863C18.746,104.742 19.053,104.742 19.337,104.863L25.645,107.616C26.803,108.128 28.081,108.128 29.238,107.616L35.546,104.863C35.815,104.742 36.123,104.742 36.406,104.863L42.714,107.616C43.29,107.875 43.896,107.996 44.511,107.996C45.126,107.996 45.726,107.875 46.307,107.616L52.63,104.847C52.913,104.726 53.206,104.726 53.49,104.847L59.812,107.616C60.97,108.128 62.248,108.117 63.391,107.616L68.94,105.201C70.799,104.389 72,102.448 72,100.259L72,6.631C72,4.864 71.203,3.213 69.872,2.227C68.546,1.241 66.845,1.04 65.356,1.689L62.036,3.145C61.767,3.266 61.46,3.266 61.176,3.145L54.854,0.376C53.696,-0.125 52.433,-0.125 51.275,0.376L44.953,3.145C44.669,3.266 44.376,3.266 44.093,3.145L37.785,0.392C36.627,-0.12 35.349,-0.12 34.191,0.392L27.883,3.145C27.614,3.266 27.307,3.266 27.023,3.145L20.716,0.392C19.558,-0.12 18.28,-0.12 17.122,0.392L10.814,3.145C10.545,3.266 10.238,3.266 9.954,3.145L6.644,1.7C5.145,1.051 3.459,1.241 2.128,2.238C0.802,3.224 0,4.885 0,6.641L0,100.275C0,102.464 1.191,104.405 3.051,105.217L8.585,107.632L8.576,107.616ZM3.68,6.631C3.68,6.025 4.036,5.687 4.185,5.576C4.334,5.471 4.751,5.223 5.266,5.455L8.576,6.9C9.733,7.401 11.011,7.401 12.169,6.9L18.477,4.147C18.746,4.026 19.053,4.026 19.337,4.147L25.645,6.9C26.803,7.412 28.081,7.412 29.238,6.9L35.546,4.147C35.815,4.026 36.123,4.026 36.406,4.147L42.714,6.9C43.872,7.412 45.15,7.412 46.307,6.9L52.63,4.131C52.913,4.01 53.206,4.01 53.49,4.131L59.812,6.9C60.97,7.412 62.248,7.401 63.391,6.9L66.711,5.444C67.23,5.212 67.633,5.46 67.792,5.582C67.941,5.687 68.296,6.025 68.296,6.636L68.296,100.27C68.296,100.798 68.013,101.256 67.571,101.457L62.022,103.872C61.753,103.994 61.445,103.994 61.162,103.872L54.84,101.103C54.263,100.845 53.658,100.724 53.043,100.724C52.428,100.724 51.828,100.845 51.246,101.103L44.924,103.872C44.641,103.994 44.348,103.994 44.064,103.872L37.756,101.119C36.598,100.608 35.321,100.608 34.163,101.119L27.855,103.872C27.586,103.994 27.278,103.994 26.995,103.872L20.687,101.119C19.529,100.608 18.251,100.608 17.094,101.119L10.786,103.872C10.517,103.994 10.209,103.994 9.926,103.872L4.391,101.457C3.949,101.267 3.666,100.798 3.666,100.27L3.666,6.632L3.68,6.631Z" fill="#831441"/>
<path d="M3.68,6.631C3.68,6.025 4.036,5.687 4.185,5.576C4.334,5.471 4.751,5.223 5.266,5.455L8.576,6.9C9.733,7.401 11.011,7.401 12.169,6.9L18.477,4.147C18.746,4.026 19.053,4.026 19.337,4.147L25.645,6.9C26.803,7.412 28.081,7.412 29.238,6.9L35.546,4.147C35.815,4.026 36.123,4.026 36.406,4.147L42.714,6.9C43.872,7.412 45.15,7.412 46.307,6.9L52.63,4.131C52.913,4.01 53.206,4.01 53.49,4.131L59.812,6.9C60.97,7.412 62.248,7.401 63.391,6.9L66.711,5.444C67.23,5.212 67.633,5.46 67.792,5.582C67.941,5.687 68.296,6.025 68.296,6.636L68.296,100.27C68.296,100.798 68.013,101.256 67.571,101.457L62.022,103.872C61.753,103.994 61.445,103.994 61.162,103.872L54.84,101.103C54.263,100.845 53.658,100.724 53.043,100.724C52.428,100.724 51.828,100.845 51.246,101.103L44.924,103.872C44.641,103.994 44.348,103.994 44.064,103.872L37.756,101.119C36.598,100.608 35.321,100.608 34.163,101.119L27.855,103.872C27.586,103.994 27.278,103.994 26.995,103.872L20.687,101.119C19.529,100.608 18.251,100.608 17.094,101.119L10.786,103.872C10.517,103.994 10.209,103.994 9.926,103.872L4.391,101.457C3.949,101.267 3.666,100.798 3.666,100.27L3.666,6.632L3.68,6.631Z" fill="#FFFFFF"/>
<path d="M24.834,42.361C24.834,44.878 22.797,46.914 20.303,46.914C17.786,46.914 15.75,44.878 15.75,42.361C15.75,36.87 17.97,31.904 21.562,28.312C25.154,24.719 30.119,22.5 35.611,22.5C41.103,22.5 46.068,24.719 49.66,28.312C53.253,31.904 55.472,36.87 55.472,42.361C55.472,47.853 53.253,52.818 49.66,56.41C47.097,58.973 43.825,60.849 40.164,61.696L40.164,63.664C40.164,66.181 38.128,68.217 35.611,68.217C33.094,68.217 31.058,66.181 31.058,63.664L31.058,57.669C31.058,55.175 33.094,53.138 35.611,53.138C38.586,53.138 41.286,51.925 43.231,49.981C45.175,48.036 46.388,45.336 46.388,42.361C46.388,39.386 45.175,36.686 43.231,34.742C41.286,32.797 38.586,31.584 35.611,31.584C32.636,31.584 29.936,32.797 27.992,34.742C26.047,36.686 24.834,39.386 24.834,42.361ZM35.153,83.25C32.636,83.25 30.6,81.236 30.6,78.719C30.6,76.203 32.636,74.166 35.153,74.166L36.16,74.166C38.677,74.166 40.714,76.203 40.714,78.719C40.714,81.236 38.677,83.25 36.16,83.25L35.153,83.25Z" clip-rule="evenodd" fill-rule="evenodd" fill="#FCC20A" stroke="#831441" stroke-width="2" stroke-miterlimit="3.999327"/>
<path d="M95.957,83.89C94.644,80.794 92.767,78.014 90.381,75.623C87.99,73.238 85.21,71.361 82.114,70.048C78.908,68.69 75.506,68 72,68C57.664,68.005 46,79.669 46,94.003C46,108.337 57.664,120 72,120C86.336,120 98,108.337 98,94.003C98,90.497 97.315,87.095 95.957,83.89ZM72,115.701C60.035,115.701 50.3,105.967 50.3,94.003C50.3,82.039 60.035,72.304 72,72.304C83.965,72.304 93.7,82.039 93.7,94.003C93.7,105.967 83.965,115.701 72,115.701Z" fill="#831441"/>
<path d="M72,115.701C60.035,115.701 50.3,105.967 50.3,94.003C50.3,82.039 60.035,72.304 72,72.304C83.965,72.304 93.7,82.039 93.7,94.003C93.7,105.967 83.965,115.701 72,115.701Z" fill="#831441"/>
<path d="M80.611,84.561L72.025,93.147L63.439,84.561C63.061,84.197 62.556,83.996 62.032,84C61.507,84.005 61.006,84.215 60.635,84.586C60.264,84.957 60.054,85.458 60.049,85.983C60.045,86.507 60.246,87.012 60.611,87.389L69.197,95.975L60.611,104.561C60.42,104.746 60.267,104.967 60.162,105.211C60.058,105.455 60.002,105.717 60,105.983C59.998,106.248 60.048,106.512 60.149,106.757C60.249,107.003 60.398,107.226 60.586,107.414C60.774,107.602 60.997,107.751 61.243,107.851C61.488,107.952 61.752,108.002 62.017,108C62.283,107.998 62.545,107.942 62.789,107.838C63.033,107.733 63.254,107.58 63.439,107.389L72.025,98.803L80.611,107.389C80.988,107.754 81.493,107.955 82.017,107.951C82.542,107.946 83.043,107.736 83.414,107.365C83.785,106.994 83.995,106.493 84,105.968C84.004,105.444 83.803,104.939 83.439,104.561L74.853,95.975L83.439,87.389C83.803,87.012 84.004,86.507 84,85.983C83.995,85.458 83.785,84.957 83.414,84.586C83.043,84.215 82.542,84.005 82.017,84C81.493,83.996 80.988,84.197 80.611,84.561Z" fill="#FCC20A"/>
</svg>
