<svg width="102" height="120" viewBox="0 0 102 120" fill="none" xmlns="http://www.w3.org/2000/svg" xmlns:xlink="http://www.w3.org/1999/xlink">
<rect  x="0" y="0" width="79.413" height="101.44" rx="6" fill="#FFFFFF" stroke="#831441" stroke-width="2" stroke-miterlimit="3.999327"/>
<path d="M26.467,16.044C26.687,14.512 26.229,12.962 25.216,11.789C24.202,10.621 22.735,9.947 21.188,9.947C19.336,9.947 17.649,10.886 16.667,12.459L9.791,23.48C9.325,24.226 9.553,25.214 10.298,25.681C11.042,26.149 12.029,25.919 12.496,25.174L19.372,14.152C20.098,12.984 21.906,12.845 22.807,13.883C23.22,14.359 23.399,14.966 23.31,15.59L21.453,28.61C21.206,30.345 21.722,32.101 22.866,33.422C24.014,34.748 25.673,35.507 27.423,35.507C29.782,35.507 31.939,34.114 32.912,31.962L38.672,19.274C39.044,18.457 39.86,17.931 40.753,17.931C42.013,17.931 43.04,18.96 43.04,20.222L43.04,25.165C43.04,28.224 45.525,30.713 48.579,30.713C50.692,30.713 52.589,29.541 53.531,27.649L57.841,19.014C58.433,17.828 60.219,17.607 61.075,18.627C61.452,19.072 61.605,19.638 61.51,20.213L59.658,31.333C59.42,32.776 59.819,34.24 60.766,35.355C61.708,36.469 63.085,37.107 64.542,37.107C66.677,37.107 68.566,35.745 69.238,33.715L71.665,26.427C71.943,25.591 71.49,24.684 70.656,24.405C69.812,24.127 68.92,24.581 68.637,25.416L66.211,32.704C65.973,33.423 65.3,33.908 64.542,33.908C64.018,33.908 63.538,33.688 63.197,33.283C62.856,32.883 62.717,32.376 62.807,31.855L64.659,20.735C64.91,19.238 64.489,17.715 63.511,16.556C62.533,15.401 61.102,14.737 59.591,14.737C57.626,14.737 55.868,15.828 54.993,17.585L50.683,26.216C50.284,27.016 49.476,27.514 48.584,27.514C47.288,27.514 46.238,26.459 46.238,25.165L46.238,20.222C46.238,17.199 43.78,14.737 40.762,14.737C38.622,14.737 36.662,15.999 35.779,17.949L30.02,30.637C29.562,31.652 28.544,32.308 27.432,32.308C26.606,32.308 25.826,31.949 25.283,31.324C24.745,30.7 24.498,29.873 24.615,29.055L26.472,16.035L26.467,16.044Z" fill="#831441"/>
<path d="M54.308,41.896C54.707,41.896 54.949,42.116 55.062,42.251C55.174,42.381 55.344,42.664 55.277,43.055L53.353,53.659C53.088,55.101 53.474,56.57 54.411,57.698C55.349,58.825 56.725,59.468 58.188,59.468C60.309,59.468 62.184,58.116 62.852,56.098L63.691,53.582C63.969,52.746 63.521,51.839 62.682,51.56C61.848,51.282 60.946,51.736 60.664,52.571L59.825,55.087C59.592,55.797 58.932,56.273 58.188,56.273C57.672,56.273 57.188,56.044 56.86,55.649C56.524,55.249 56.394,54.741 56.488,54.229L58.417,43.621C58.636,42.399 58.309,41.15 57.515,40.198C56.721,39.245 55.551,38.697 54.313,38.697C52.644,38.697 51.137,39.69 50.478,41.231L42.512,59.85C41.969,61.117 40.108,61.423 39.188,60.398C38.807,59.971 38.628,59.419 38.691,58.844L39.498,51.579C39.637,50.334 39.238,49.085 38.403,48.155C37.569,47.22 36.376,46.686 35.125,46.686C33.528,46.686 32.052,47.553 31.281,48.955L25.262,59.81C24.831,60.587 24.015,61.068 23.127,61.068C22.333,61.068 21.611,60.699 21.149,60.052C20.682,59.405 20.561,58.606 20.812,57.851L23.602,49.471C24.194,47.697 23.907,45.81 22.813,44.291C21.718,42.773 20.023,41.901 18.152,41.901C16.228,41.901 14.443,42.858 13.376,44.462L8.227,52.199C7.738,52.931 7.935,53.924 8.671,54.414C9.402,54.904 10.393,54.706 10.882,53.969L16.031,46.232C16.968,44.826 19.238,44.785 20.225,46.156C20.709,46.83 20.839,47.67 20.574,48.461L17.785,56.84C17.206,58.579 17.489,60.434 18.561,61.922C19.633,63.409 21.297,64.262 23.127,64.262C25.172,64.262 27.056,63.153 28.047,61.36L34.066,50.505C34.277,50.119 34.685,49.881 35.125,49.881C35.596,49.881 35.892,50.132 36.026,50.285C36.161,50.438 36.38,50.757 36.327,51.228L35.519,58.489C35.358,59.954 35.824,61.427 36.807,62.528C37.789,63.629 39.197,64.258 40.673,64.258C42.75,64.258 44.62,63.022 45.436,61.108L53.402,42.489C53.559,42.125 53.913,41.892 54.303,41.892L54.308,41.896Z" fill="#831441"/>
<path d="M38.734,89.979C40.048,91.88 42.214,93.017 44.524,93.017L44.632,93.017C45.511,93.017 46.17,92.302 46.17,91.417C46.17,90.536 45.404,89.818 44.52,89.818C43.237,89.818 42.08,89.211 41.349,88.155C40.618,87.099 40.456,85.801 40.909,84.601C41.551,82.885 41.313,80.958 40.268,79.448C39.223,77.938 37.51,77.04 35.675,77.04C33.737,77.04 31.966,78.024 30.939,79.673L25.081,89.058C24.498,89.993 23.009,90.033 22.376,89.13C22.067,88.69 21.995,88.146 22.179,87.643L25.085,79.637C25.695,77.952 25.449,76.069 24.422,74.6C23.394,73.131 21.712,72.255 19.923,72.255C17.828,72.255 15.944,73.418 15.011,75.296L8.113,89.113C7.719,89.903 8.037,90.86 8.826,91.256C9.616,91.651 10.571,91.328 10.966,90.541L17.864,76.725C18.254,75.939 19.044,75.449 19.923,75.449C20.685,75.449 21.372,75.809 21.807,76.433C22.242,77.058 22.345,77.826 22.085,78.545L19.178,86.551C18.645,88.029 18.86,89.678 19.761,90.963C20.663,92.253 22.134,93.021 23.704,93.021C25.377,93.021 26.902,92.172 27.786,90.756L33.643,81.371C34.509,79.987 36.72,79.933 37.649,81.276C38.102,81.932 38.205,82.741 37.922,83.487C37.11,85.652 37.411,88.083 38.73,89.984L38.734,89.979Z" fill="#831441"/>
<path d="M47.287,64.201L45.691,72.189C45.588,72.715 45.749,73.254 46.126,73.631C46.426,73.932 46.834,74.099 47.252,74.099C47.355,74.099 47.462,74.09 47.566,74.067L55.54,72.468C55.85,72.405 56.132,72.252 56.357,72.032L91.907,36.421C92.934,35.392 93.503,34.022 93.503,32.561C93.503,31.106 92.938,29.735 91.907,28.706L90.974,27.767C88.915,25.709 85.331,25.705 83.273,27.767L47.723,63.378C47.498,63.603 47.35,63.886 47.287,64.196L47.287,64.201ZM50.324,65.301L85.533,30.032C86.385,29.178 87.87,29.178 88.722,30.032L89.655,30.971C90.081,31.398 90.314,31.964 90.314,32.566C90.314,33.168 90.081,33.738 89.655,34.165L54.446,69.435L49.292,70.468L50.324,65.306L50.324,65.301Z" fill="#831441"/>
<path d="M50.324,65.301L85.533,30.032C86.385,29.178 87.87,29.178 88.722,30.032L89.655,30.971C90.081,31.398 90.314,31.964 90.314,32.566C90.314,33.168 90.081,33.738 89.655,34.165L54.446,69.435L49.292,70.468L50.324,65.306L50.324,65.301Z" fill="#FCC20A"/>
<path d="M99.294,83.39C97.963,80.251 96.06,77.433 93.641,75.009C91.217,72.59 88.399,70.687 85.259,69.357C82.01,67.979 78.56,67.28 75.006,67.28C60.471,67.285 48.646,79.11 48.646,93.643C48.646,108.175 60.471,120 75.006,120C89.54,120 101.366,108.175 101.366,93.643C101.366,90.088 100.671,86.639 99.294,83.39ZM75.006,115.641C62.875,115.641 53.005,105.772 53.005,93.643C53.005,81.513 62.875,71.644 75.006,71.644C87.137,71.644 97.006,81.513 97.006,93.643C97.006,105.772 87.137,115.641 75.006,115.641Z" fill="#831441"/>
<path d="M75.006,115.641C62.875,115.641 53.005,105.772 53.005,93.643C53.005,81.513 62.875,71.644 75.006,71.644C87.137,71.644 97.006,81.513 97.006,93.643C97.006,105.772 87.137,115.641 75.006,115.641Z" fill="#831441"/>
<path d="M83.736,84.071L75.031,92.776L66.326,84.071C65.944,83.701 65.431,83.497 64.9,83.502C64.368,83.506 63.86,83.72 63.484,84.096C63.108,84.471 62.894,84.98 62.89,85.512C62.885,86.043 63.09,86.556 63.459,86.938L72.164,95.643L63.459,104.348C63.265,104.535 63.111,104.758 63.004,105.006C62.898,105.253 62.842,105.519 62.84,105.789C62.838,106.058 62.889,106.325 62.991,106.574C63.093,106.823 63.243,107.05 63.434,107.24C63.624,107.43 63.851,107.581 64.1,107.683C64.349,107.785 64.616,107.836 64.885,107.834C65.154,107.831 65.42,107.776 65.668,107.669C65.915,107.563 66.139,107.409 66.326,107.215L75.031,98.51L83.736,107.215C84.118,107.584 84.63,107.789 85.162,107.784C85.694,107.779 86.202,107.566 86.578,107.19C86.954,106.814 87.167,106.306 87.172,105.774C87.177,105.242 86.972,104.73 86.603,104.348L77.898,95.643L86.603,86.938C86.972,86.556 87.177,86.043 87.172,85.512C87.167,84.98 86.954,84.471 86.578,84.096C86.202,83.72 85.694,83.506 85.162,83.502C84.63,83.497 84.118,83.701 83.736,84.071Z" fill="#FCC20A"/>
</svg>
