<svg width="98" height="108" viewBox="0 0 98 108" fill="none" xmlns="http://www.w3.org/2000/svg" xmlns:xlink="http://www.w3.org/1999/xlink">
<path d="M7.623,95.659C8.652,96.104 9.788,96.104 10.817,95.659L16.424,93.212C16.663,93.104 16.936,93.104 17.188,93.212L22.795,95.659C23.825,96.114 24.96,96.114 25.99,95.659L31.597,93.212C31.836,93.104 32.109,93.104 32.361,93.212L37.968,95.659C38.48,95.889 39.018,95.996 39.565,95.996C40.112,95.996 40.645,95.889 41.162,95.659L46.782,93.198C47.034,93.09 47.294,93.09 47.546,93.198L53.166,95.659C54.195,96.114 55.331,96.104 56.348,95.659L61.28,93.512C62.932,92.79 64,91.065 64,89.119L64,5.894C64,4.323 63.291,2.856 62.108,1.98C60.93,1.103 59.418,0.925 58.094,1.501L55.143,2.795C54.904,2.903 54.631,2.903 54.379,2.795L48.759,0.334C47.73,-0.111 46.607,-0.111 45.578,0.334L39.958,2.795C39.706,2.903 39.445,2.903 39.193,2.795L33.586,0.348C32.557,-0.107 31.421,-0.107 30.392,0.348L24.785,2.795C24.546,2.903 24.273,2.903 24.021,2.795L18.414,0.348C17.385,-0.107 16.249,-0.107 15.22,0.348L9.613,2.795C9.374,2.903 9.1,2.903 8.848,2.795L5.906,1.511C4.574,0.934 3.075,1.103 1.892,1.989C0.713,2.866 0,4.342 0,5.903L0,89.133C0,91.079 1.059,92.804 2.712,93.526L7.631,95.673L7.623,95.659ZM3.271,5.894C3.271,5.355 3.587,5.055 3.72,4.957C3.852,4.863 4.224,4.643 4.68,4.849L7.623,6.133C8.652,6.579 9.788,6.579 10.817,6.133L16.424,3.686C16.663,3.578 16.936,3.578 17.188,3.686L22.795,6.133C23.825,6.588 24.96,6.588 25.99,6.133L31.597,3.686C31.836,3.578 32.109,3.578 32.361,3.686L37.968,6.133C38.997,6.588 40.133,6.588 41.162,6.133L46.782,3.672C47.034,3.564 47.294,3.564 47.546,3.672L53.166,6.133C54.195,6.588 55.331,6.579 56.348,6.133L59.298,4.84C59.76,4.633 60.118,4.854 60.259,4.961C60.392,5.055 60.708,5.355 60.708,5.899L60.708,89.129C60.708,89.598 60.456,90.006 60.063,90.184L55.131,92.331C54.891,92.439 54.618,92.439 54.366,92.331L48.746,89.87C48.234,89.64 47.696,89.532 47.149,89.532C46.603,89.532 46.069,89.64 45.552,89.87L39.932,92.331C39.681,92.439 39.42,92.439 39.168,92.331L33.561,89.884C32.532,89.429 31.396,89.429 30.367,89.884L24.76,92.331C24.521,92.439 24.247,92.439 23.995,92.331L18.389,89.884C17.359,89.429 16.223,89.429 15.194,89.884L9.587,92.331C9.348,92.439 9.075,92.439 8.823,92.331L3.903,90.184C3.511,90.015 3.259,89.598 3.259,89.129L3.259,5.895L3.271,5.894Z" fill="#831441"/>
<path d="M3.271,5.894C3.271,5.355 3.587,5.055 3.72,4.957C3.852,4.863 4.224,4.643 4.68,4.849L7.623,6.133C8.652,6.579 9.788,6.579 10.817,6.133L16.424,3.686C16.663,3.578 16.936,3.578 17.188,3.686L22.795,6.133C23.825,6.588 24.96,6.588 25.99,6.133L31.597,3.686C31.836,3.578 32.109,3.578 32.361,3.686L37.968,6.133C38.997,6.588 40.133,6.588 41.162,6.133L46.782,3.672C47.034,3.564 47.294,3.564 47.546,3.672L53.166,6.133C54.195,6.588 55.331,6.579 56.348,6.133L59.298,4.84C59.76,4.633 60.118,4.854 60.259,4.961C60.392,5.055 60.708,5.355 60.708,5.899L60.708,89.129C60.708,89.598 60.456,90.006 60.063,90.184L55.131,92.331C54.891,92.439 54.618,92.439 54.366,92.331L48.746,89.87C48.234,89.64 47.696,89.532 47.149,89.532C46.603,89.532 46.069,89.64 45.552,89.87L39.932,92.331C39.681,92.439 39.42,92.439 39.168,92.331L33.561,89.884C32.532,89.429 31.396,89.429 30.367,89.884L24.76,92.331C24.521,92.439 24.247,92.439 23.995,92.331L18.389,89.884C17.359,89.429 16.223,89.429 15.194,89.884L9.587,92.331C9.348,92.439 9.075,92.439 8.823,92.331L3.903,90.184C3.511,90.015 3.259,89.598 3.259,89.129L3.259,5.895L3.271,5.894Z" fill="#FFFFFF"/>
<line x1="22" y1="16" x2="43.856" y2="16" stroke="#FCC20A" stroke-width="2" stroke-miterlimit="3.999327" stroke-linecap="round"/>
<rect  x="7" y="37" width="23" height="3" rx="20.5" fill="#831441" stroke="#831441" stroke-width="0.5" stroke-miterlimit="3.999327"/>
<rect  x="7" y="45" width="23" height="3" rx="20.5" fill="#831441" stroke="#831441" stroke-width="0.5" stroke-miterlimit="3.999327"/>
<rect  x="7" y="53" width="23" height="3" rx="20.5" fill="#831441" stroke="#831441" stroke-width="0.5" stroke-miterlimit="3.999327"/>
<rect  x="7" y="61" width="23" height="3" rx="20.5" fill="#831441" stroke="#831441" stroke-width="0.5" stroke-miterlimit="3.999327"/>
<rect  x="7" y="69" width="23" height="3" rx="20.5" fill="#831441" stroke="#831441" stroke-width="0.5" stroke-miterlimit="3.999327"/>
<path d="M41.623,107.259C42.652,107.704 43.788,107.704 44.817,107.259L50.424,104.812C50.663,104.704 50.936,104.704 51.188,104.812L56.795,107.259C57.825,107.714 58.96,107.714 59.99,107.259L65.597,104.812C65.836,104.704 66.109,104.704 66.361,104.812L71.968,107.259C72.48,107.489 73.018,107.596 73.565,107.596C74.112,107.596 74.645,107.489 75.162,107.259L80.782,104.798C81.034,104.69 81.294,104.69 81.546,104.798L87.166,107.259C88.195,107.714 89.331,107.704 90.348,107.259L95.28,105.112C96.932,104.39 98,102.665 98,100.719L98,17.494C98,15.924 97.291,14.456 96.108,13.58C94.93,12.703 93.418,12.525 92.094,13.101L89.143,14.395C88.904,14.503 88.631,14.503 88.379,14.395L82.759,11.934C81.73,11.489 80.607,11.489 79.578,11.934L73.958,14.395C73.706,14.503 73.445,14.503 73.193,14.395L67.586,11.948C66.557,11.493 65.421,11.493 64.392,11.948L58.785,14.395C58.546,14.503 58.273,14.503 58.021,14.395L52.414,11.948C51.385,11.493 50.249,11.493 49.22,11.948L43.613,14.395C43.374,14.503 43.1,14.503 42.848,14.395L39.906,13.111C38.574,12.534 37.075,12.703 35.892,13.589C34.713,14.466 34,15.942 34,17.503L34,100.733C34,102.679 35.059,104.404 36.712,105.126L41.631,107.273L41.623,107.259ZM37.271,17.494C37.271,16.955 37.587,16.655 37.72,16.557C37.852,16.463 38.224,16.243 38.68,16.449L41.623,17.733C42.652,18.179 43.788,18.179 44.817,17.733L50.424,15.286C50.663,15.178 50.936,15.178 51.188,15.286L56.795,17.733C57.825,18.188 58.96,18.188 59.99,17.733L65.597,15.286C65.836,15.178 66.109,15.178 66.361,15.286L71.968,17.733C72.997,18.188 74.133,18.188 75.162,17.733L80.782,15.272C81.034,15.164 81.294,15.164 81.546,15.272L87.166,17.733C88.195,18.188 89.331,18.179 90.348,17.733L93.298,16.44C93.76,16.233 94.118,16.454 94.259,16.561C94.392,16.655 94.708,16.955 94.708,17.499L94.708,100.729C94.708,101.198 94.456,101.606 94.063,101.784L89.131,103.931C88.891,104.039 88.618,104.039 88.366,103.931L82.746,101.47C82.234,101.24 81.696,101.132 81.149,101.132C80.603,101.132 80.069,101.24 79.552,101.47L73.932,103.931C73.681,104.039 73.42,104.039 73.168,103.931L67.561,101.484C66.532,101.029 65.396,101.029 64.367,101.484L58.76,103.931C58.521,104.039 58.247,104.039 57.995,103.931L52.389,101.484C51.359,101.029 50.223,101.029 49.194,101.484L43.587,103.931C43.348,104.039 43.075,104.039 42.823,103.931L37.903,101.784C37.511,101.615 37.259,101.198 37.259,100.729L37.259,17.495L37.271,17.494Z" fill="#831441"/>
<path d="M37.271,17.494C37.271,16.955 37.587,16.655 37.72,16.557C37.852,16.463 38.224,16.243 38.68,16.449L41.623,17.733C42.652,18.179 43.788,18.179 44.817,17.733L50.424,15.286C50.663,15.178 50.936,15.178 51.188,15.286L56.795,17.733C57.825,18.188 58.96,18.188 59.99,17.733L65.597,15.286C65.836,15.178 66.109,15.178 66.361,15.286L71.968,17.733C72.997,18.188 74.133,18.188 75.162,17.733L80.782,15.272C81.034,15.164 81.294,15.164 81.546,15.272L87.166,17.733C88.195,18.188 89.331,18.179 90.348,17.733L93.298,16.44C93.76,16.233 94.118,16.454 94.259,16.561C94.392,16.655 94.708,16.955 94.708,17.499L94.708,100.729C94.708,101.198 94.456,101.606 94.063,101.784L89.131,103.931C88.891,104.039 88.618,104.039 88.366,103.931L82.746,101.47C82.234,101.24 81.696,101.132 81.149,101.132C80.603,101.132 80.069,101.24 79.552,101.47L73.932,103.931C73.681,104.039 73.42,104.039 73.168,103.931L67.561,101.484C66.532,101.029 65.396,101.029 64.367,101.484L58.76,103.931C58.521,104.039 58.247,104.039 57.995,103.931L52.389,101.484C51.359,101.029 50.223,101.029 49.194,101.484L43.587,103.931C43.348,104.039 43.075,104.039 42.823,103.931L37.903,101.784C37.511,101.615 37.259,101.198 37.259,100.729L37.259,17.495L37.271,17.494Z" fill="#FFFFFF"/>
<line x1="56" y1="26" x2="77.856" y2="26" stroke="#FCC20A" stroke-width="2" stroke-miterlimit="3.999327" stroke-linecap="round"/>
<rect  x="43" y="45" width="23" height="3" rx="20.5" fill="#831441" stroke="#831441" stroke-width="0.5" stroke-miterlimit="3.999327"/>
<rect  x="43" y="53" width="23" height="3" rx="20.5" fill="#831441" stroke="#831441" stroke-width="0.5" stroke-miterlimit="3.999327"/>
<rect  x="43" y="61" width="23" height="3" rx="20.5" fill="#831441" stroke="#831441" stroke-width="0.5" stroke-miterlimit="3.999327"/>
<rect  x="43" y="69" width="23" height="3" rx="20.5" fill="#831441" stroke="#831441" stroke-width="0.5" stroke-miterlimit="3.999327"/>
<rect  x="43" y="77" width="23" height="3" rx="20.5" fill="#831441" stroke="#831441" stroke-width="0.5" stroke-miterlimit="3.999327"/>
<rect  x="75" y="45" width="13" height="3" rx="20.5" fill="#831441" stroke="#831441" stroke-width="0.5" stroke-miterlimit="3.999327"/>
<rect  x="75" y="53" width="13" height="3" rx="20.5" fill="#831441" stroke="#831441" stroke-width="0.5" stroke-miterlimit="3.999327"/>
<rect  x="75" y="61" width="13" height="3" rx="20.5" fill="#831441" stroke="#831441" stroke-width="0.5" stroke-miterlimit="3.999327"/>
<rect  x="75" y="69" width="13" height="3" rx="20.5" fill="#831441" stroke="#831441" stroke-width="0.5" stroke-miterlimit="3.999327"/>
</svg>
