<svg width="112" height="120" viewBox="0 0 112 120" fill="none" xmlns="http://www.w3.org/2000/svg" xmlns:xlink="http://www.w3.org/1999/xlink">
<path d="M98.21,42.354C98.21,41.846 97.988,41.362 97.603,41.031L87.852,32.67L87.852,18.397C87.852,15.652 85.619,13.42 82.875,13.42L65.517,13.42C65.501,13.405 65.489,13.387 65.471,13.373L50.233,0.414C49.579,-0.14 48.621,-0.138 47.97,0.419L32.81,13.42L14.84,13.42C12.096,13.42 9.863,15.652 9.863,18.397L9.863,33.095L0.608,41.032C0.222,41.363 0,41.847 0,42.355C0,42.374 0.005,42.393 0.006,42.412L0.006,103.453C0.006,105.96 2.046,108 4.552,108L93.67,108C96.177,108 98.216,105.96 98.216,103.453L98.216,42.354L98.21,42.354ZM35.615,73.692L3.49,101.239L3.49,46.147L35.615,73.692ZM38.29,75.987L47.971,84.288C48.297,84.568 48.701,84.708 49.105,84.708C49.508,84.708 49.913,84.568 50.238,84.288L59.919,75.987L93.188,104.514L5.022,104.514L38.29,75.987ZM62.596,73.694L94.733,46.137L94.733,101.25L62.596,73.694ZM93.793,42.354L87.851,47.448L87.851,37.259L93.793,42.354ZM49.11,4.033L60.149,13.42L38.163,13.42L49.11,4.033ZM14.84,16.903L82.875,16.903C83.698,16.903 84.368,17.574 84.368,18.397L84.368,33.134C84.331,33.337 84.333,33.542 84.368,33.745L84.368,50.436L49.105,80.671L13.347,50.01L13.347,18.397C13.348,17.572 14.017,16.903 14.84,16.903ZM9.865,37.684L9.865,47.024L4.418,42.355L9.865,37.684ZM48.858,62.883C52.431,62.883 55.949,61.951 59.033,60.188C59.868,59.711 60.158,58.647 59.68,57.812C59.201,56.977 58.138,56.686 57.303,57.165C54.745,58.627 51.825,59.401 48.858,59.401C39.458,59.401 31.812,51.754 31.812,42.355C31.812,32.956 39.46,25.309 48.858,25.309C58.257,25.309 65.903,32.956 65.903,42.355C65.903,48.299 63.21,50.554 61.4,50.619C60.024,50.68 59.007,49.573 58.862,47.822L58.862,42.652C58.864,42.553 58.877,42.456 58.877,42.355C58.877,42.254 58.864,42.157 58.862,42.057L58.862,34.097C58.862,33.135 58.082,32.355 57.12,32.355C56.157,32.355 55.377,33.135 55.377,34.097L55.377,34.764C53.623,33.255 51.347,32.336 48.857,32.336C43.332,32.336 38.838,36.83 38.838,42.355C38.838,47.879 43.332,52.374 48.857,52.374C51.497,52.374 53.894,51.34 55.685,49.667C56.495,52.405 58.764,54.201 61.523,54.101C65.311,53.964 69.385,50.232 69.385,42.356C69.385,31.036 60.177,21.827 48.856,21.827C37.535,21.827 28.327,31.034 28.327,42.354C28.327,53.673 37.537,62.883 48.858,62.883ZM48.858,48.889C45.253,48.889 42.323,45.957 42.323,42.354C42.323,38.75 45.255,35.818 48.858,35.818C52.361,35.818 55.221,38.591 55.378,42.056L55.378,42.651C55.221,46.117 52.362,48.889 48.858,48.889Z" fill="#831441"/>
<path d="M38.29,75.987L47.971,84.288C48.297,84.568 48.701,84.708 49.105,84.708C49.508,84.708 49.913,84.568 50.238,84.288L59.919,75.987L93.188,104.514L5.022,104.514L38.29,75.987Z" fill="#FFFFFF"/>
<path d="M62.596,73.694L94.733,46.137L94.733,101.25L62.596,73.694Z" fill="#FFFFFF"/>
<path d="M35.615,73.692L3.49,101.239L3.49,46.147L35.615,73.692Z" fill="#FFFFFF"/>
<path d="M49.11,4.033L60.149,13.42L38.163,13.42L49.11,4.033Z" fill="#FFFFFF"/>
<path d="M93.793,42.354L87.851,47.448L87.851,37.259L93.793,42.354Z" fill="#FFFFFF"/>
<path d="M9.865,37.684L9.865,47.024L4.418,42.355L9.865,37.684Z" fill="#FFFFFF"/>
<path d="M14.84,16.903L82.875,16.903C83.698,16.903 84.368,17.574 84.368,18.397L84.368,33.134C84.331,33.337 84.333,33.542 84.368,33.745L84.368,50.436L49.105,80.671L13.347,50.01L13.347,18.397C13.348,17.572 14.017,16.903 14.84,16.903ZM59.033,60.188C55.949,61.951 52.431,62.883 48.858,62.883C37.537,62.883 28.327,53.673 28.327,42.354C28.327,31.034 37.535,21.827 48.856,21.827C60.177,21.827 69.385,31.036 69.385,42.356C69.385,50.232 65.311,53.964 61.523,54.101C58.764,54.201 56.495,52.405 55.685,49.667C53.894,51.34 51.497,52.374 48.857,52.374C43.332,52.374 38.838,47.879 38.838,42.355C38.838,36.83 43.332,32.336 48.857,32.336C51.347,32.336 53.623,33.255 55.377,34.764L55.377,34.097C55.377,33.135 56.157,32.355 57.12,32.355C58.082,32.355 58.862,33.135 58.862,34.097L58.862,42.057C58.864,42.157 58.877,42.254 58.877,42.355C58.877,42.456 58.864,42.553 58.862,42.652L58.862,47.822C59.007,49.573 60.024,50.68 61.4,50.619C63.21,50.554 65.903,48.299 65.903,42.355C65.903,32.956 58.257,25.309 48.858,25.309C39.46,25.309 31.812,32.956 31.812,42.355C31.812,51.754 39.458,59.401 48.858,59.401C51.825,59.401 54.745,58.627 57.303,57.165C58.138,56.686 59.201,56.977 59.68,57.812C60.158,58.647 59.868,59.711 59.033,60.188Z" clip-rule="evenodd" fill-rule="evenodd" fill="#FCC20A"/>
<path d="M48.858,48.889C45.253,48.889 42.323,45.957 42.323,42.354C42.323,38.75 45.255,35.818 48.858,35.818C52.361,35.818 55.221,38.591 55.378,42.056L55.378,42.651C55.221,46.117 52.362,48.889 48.858,48.889Z" fill="#FCC20A"/>
<path d="M109.702,83.89C108.39,80.794 106.512,78.014 104.126,75.623C101.735,73.238 98.955,71.361 95.859,70.048C92.654,68.69 89.251,68 85.745,68C71.41,68.005 59.745,79.669 59.745,94.003C59.745,108.337 71.41,120 85.745,120C100.081,120 111.745,108.337 111.745,94.003C111.745,90.497 111.061,87.095 109.702,83.89ZM85.745,115.701C73.78,115.701 64.045,105.967 64.045,94.003C64.045,82.039 73.78,72.304 85.745,72.304C97.71,72.304 107.446,82.039 107.446,94.003C107.446,105.967 97.71,115.701 85.745,115.701Z" fill="#831441"/>
<path d="M85.745,115.701C73.78,115.701 64.045,105.967 64.045,94.003C64.045,82.039 73.78,72.304 85.745,72.304C97.71,72.304 107.446,82.039 107.446,94.003C107.446,105.967 97.71,115.701 85.745,115.701Z" fill="#831441"/>
<path d="M94.356,84.561L85.77,93.147L77.184,84.561C76.806,84.197 76.301,83.996 75.777,84C75.252,84.005 74.751,84.215 74.38,84.586C74.009,84.957 73.799,85.458 73.794,85.983C73.79,86.507 73.991,87.012 74.356,87.389L82.942,95.975L74.356,104.561C74.165,104.746 74.012,104.967 73.907,105.211C73.803,105.455 73.748,105.717 73.745,105.983C73.743,106.248 73.793,106.512 73.894,106.757C73.995,107.003 74.143,107.226 74.331,107.414C74.519,107.602 74.742,107.751 74.988,107.851C75.234,107.952 75.497,108.002 75.762,108C76.028,107.998 76.29,107.942 76.534,107.838C76.779,107.733 76.999,107.58 77.184,107.389L85.77,98.803L94.356,107.389C94.733,107.754 95.238,107.955 95.763,107.951C96.287,107.946 96.789,107.736 97.159,107.365C97.53,106.994 97.741,106.493 97.745,105.968C97.75,105.444 97.548,104.939 97.184,104.561L88.598,95.975L97.184,87.389C97.548,87.012 97.75,86.507 97.745,85.983C97.741,85.458 97.53,84.957 97.159,84.586C96.789,84.215 96.287,84.005 95.763,84C95.238,83.996 94.733,84.197 94.356,84.561Z" fill="#FCC20A"/>
</svg>
