<svg width="136" height="332" viewBox="0 0 136 332" fill="none" xmlns="http://www.w3.org/2000/svg" xmlns:xlink="http://www.w3.org/1999/xlink">
<path d="M134,332C135.105,332 136,331.104 136,330C136,328.896 135.105,328 134,328L134,332ZM42,2C42,0.895 41.105,0 40,0C38.895,0 38,0.895 38,2L42,2ZM134,328L50,328L50,332L134,332L134,328ZM42,320L42,2L38,2L38,320L42,320ZM50,328C45.582,328 42,324.418 42,320L38,320C38,326.628 43.373,332 50,332L50,328Z" transform="rotate(-360 87 166)" fill="#00BC35"/>
<path d="M99.131,69.716L107.534,57.635L100.05,57.635L105.302,39.252L91.252,39.252L91.252,60.261L99.131,60.261L99.131,69.716ZM113.246,58.554L97.489,81.336C97.227,81.73 96.888,81.993 96.473,82.124C96.058,82.255 95.653,82.255 95.257,82.124C94.861,81.993 94.533,81.763 94.272,81.436C94.012,81.109 93.88,80.703 93.878,80.22L93.878,65.514L91.252,65.514C89.808,65.514 88.572,65 87.544,63.972C86.516,62.945 86.002,61.708 86,60.261L86,39.252C86,37.808 86.515,36.572 87.544,35.544C88.574,34.516 89.81,34.002 91.252,34L106.615,34C108.016,34 109.143,34.547 109.998,35.641C110.852,36.736 111.103,37.939 110.751,39.252L107.009,52.383L109.964,52.383C111.539,52.383 112.711,53.083 113.477,54.484C114.244,55.885 114.167,57.241 113.246,58.554Z" fill="#F99A1C"/>
<path d="M99.131,69.716L107.534,57.635L100.05,57.635L105.302,39.252L91.252,39.252L91.252,60.261L99.131,60.261L99.131,69.716Z" fill="#F99A1C"/>
<path d="M25,69.5C25.708,69.5 26.302,69.26 26.782,68.78C27.262,68.3 27.502,67.707 27.5,67L27.5,57C27.5,56.292 27.26,55.698 26.78,55.22C26.3,54.742 25.707,54.502 25,54.5C24.293,54.498 23.7,54.738 23.22,55.22C22.74,55.702 22.5,56.295 22.5,57L22.5,67C22.5,67.708 22.74,68.302 23.22,68.782C23.7,69.262 24.293,69.502 25,69.5ZM25,49.5C25.708,49.5 26.302,49.26 26.782,48.78C27.262,48.3 27.502,47.707 27.5,47C27.498,46.293 27.258,45.7 26.78,45.22C26.302,44.74 25.708,44.5 25,44.5C24.292,44.5 23.698,44.74 23.22,45.22C22.742,45.7 22.502,46.293 22.5,47C22.498,47.707 22.738,48.301 23.22,48.782C23.702,49.264 24.295,49.503 25,49.5ZM25,82C21.542,82 18.292,81.343 15.25,80.03C12.208,78.717 9.563,76.936 7.313,74.687C5.063,72.439 3.282,69.793 1.97,66.75C0.658,63.707 0.002,60.457 0,57C-0.002,53.543 0.655,50.293 1.97,47.25C3.285,44.207 5.066,41.561 7.313,39.313C9.559,37.064 12.205,35.283 15.25,33.97C18.295,32.657 21.545,32 25,32C28.455,32 31.705,32.657 34.75,33.97C37.795,35.283 40.441,37.064 42.687,39.313C44.934,41.561 46.716,44.207 48.032,47.25C49.349,50.293 50.005,53.543 50,57C49.995,60.457 49.338,63.707 48.03,66.75C46.722,69.793 44.941,72.439 42.687,74.687C40.434,76.936 37.788,78.717 34.75,80.032C31.712,81.347 28.462,82.003 25,82ZM25,77C30.583,77 35.312,75.062 39.187,71.187C43.062,67.312 45,62.583 45,57C45,51.417 43.062,46.688 39.187,42.813C35.312,38.938 30.583,37 25,37C19.417,37 14.688,38.938 10.813,42.813C6.938,46.688 5,51.417 5,57C5,62.583 6.938,67.312 10.813,71.187C14.688,75.062 19.417,77 25,77Z" fill="#F99A1C"/>
<path d="M25,77C30.583,77 35.312,75.062 39.187,71.187C43.062,67.312 45,62.583 45,57C45,51.417 43.062,46.688 39.187,42.813C35.312,38.938 30.583,37 25,37C19.417,37 14.688,38.938 10.813,42.813C6.938,46.688 5,51.417 5,57C5,62.583 6.938,67.312 10.813,71.187C14.688,75.062 19.417,77 25,77ZM26.782,68.78C26.302,69.26 25.708,69.5 25,69.5C24.293,69.502 23.7,69.262 23.22,68.782C22.74,68.302 22.5,67.708 22.5,67L22.5,57C22.5,56.295 22.74,55.702 23.22,55.22C23.7,54.738 24.293,54.498 25,54.5C25.707,54.502 26.3,54.742 26.78,55.22C27.26,55.698 27.5,56.292 27.5,57L27.5,67C27.502,67.707 27.262,68.3 26.782,68.78ZM26.782,48.78C26.302,49.26 25.708,49.5 25,49.5C24.295,49.503 23.702,49.264 23.22,48.782C22.738,48.301 22.498,47.707 22.5,47C22.502,46.293 22.742,45.7 23.22,45.22C23.698,44.74 24.292,44.5 25,44.5C25.708,44.5 26.302,44.74 26.78,45.22C27.258,45.7 27.498,46.293 27.5,47C27.502,47.707 27.262,48.3 26.782,48.78Z" clip-rule="evenodd" fill-rule="evenodd" fill="#FFFFFF" fill-opacity="0"/>
</svg>
