<svg width="56" height="36" viewBox="0 0 56 36" fill="none" xmlns="http://www.w3.org/2000/svg" xmlns:xlink="http://www.w3.org/1999/xlink">
<path d="M55.387,0.677C40.665,0.677 25.94,0.677 11.214,0.677C9.186,0.721 7.237,1.476 5.708,2.81C4.179,4.145 3.166,5.973 2.848,7.977C2.557,10.105 2.354,12.247 2.152,14.394C1.796,17.754 1.443,21.124 1.091,24.503C0.74,27.86 0.38,31.216 0.029,34.573C-0.045,35.318 -0.03,35.323 0.706,35.323L22.943,35.323C30.182,35.323 37.41,35.323 44.627,35.323C46.689,35.312 48.68,34.563 50.238,33.212C51.797,31.862 52.822,29.998 53.127,27.958C53.497,25.199 53.734,22.42 54.025,19.646C54.351,16.576 54.667,13.501 55.012,10.431C55.358,7.36 55.639,4.349 55.999,1.314C56.009,0.835 55.901,0.677 55.387,0.677Z" stroke="#FFFFFF" stroke-width="0.5" stroke-miterlimit="3.999327"/>
<path d="M35.88,3.663C35.633,3.663 35.386,3.666 35.139,3.67C34.646,3.676 34.152,3.683 33.659,3.663C33.2,3.639 33.071,3.796 33.071,4.265C33.088,5.351 33.082,6.437 33.077,7.523L33.077,7.523C33.074,8.066 33.071,8.609 33.071,9.152C33.106,9.352 33.069,9.559 32.968,9.735C32.579,9.204 32.072,8.771 31.487,8.471C30.439,7.973 29.25,7.852 28.123,8.129C26.996,8.406 26,9.064 25.302,9.991C23.555,12.415 23.619,16.408 25.406,18.817C27.336,21.423 31.645,21.285 32.987,19.098C33.005,19.069 33.034,19.047 33.087,19.007C33.124,18.979 33.174,18.941 33.239,18.886L33.239,19.967C33.239,20.283 33.363,20.461 33.733,20.461L35.9,20.461C36.25,20.461 36.364,20.327 36.364,19.967L36.364,4.172C36.344,3.801 36.23,3.639 35.88,3.663ZM32.425,16.334C32.272,16.865 31.96,17.337 31.531,17.686C31.102,18.034 30.577,18.244 30.026,18.286C29.475,18.328 28.924,18.2 28.448,17.92C27.971,17.64 27.592,17.221 27.36,16.719C27,15.975 26.813,15.159 26.813,14.333C26.813,13.506 27,12.69 27.36,11.946C27.591,11.487 27.947,11.102 28.385,10.834C28.824,10.567 29.33,10.427 29.844,10.433C30.358,10.438 30.86,10.587 31.294,10.863C31.727,11.139 32.074,11.532 32.296,11.995C32.615,12.737 32.771,13.538 32.755,14.345C32.749,15.02 32.645,15.69 32.444,16.334L32.425,16.334ZM49.059,13.511L49.059,15.529C49.059,15.86 49.058,16.192 49.058,16.524C49.055,17.634 49.052,18.75 49.079,19.863C49.089,20.303 48.951,20.441 48.501,20.441C47.84,20.411 47.184,20.411 46.527,20.441C46.093,20.461 45.9,20.322 45.945,19.868C45.947,19.842 45.951,19.813 45.956,19.783L45.956,19.782L45.956,19.782L45.956,19.782C45.978,19.64 46.003,19.474 45.861,19.409C45.741,19.354 45.654,19.445 45.568,19.535C45.53,19.575 45.492,19.614 45.451,19.641C44.617,20.248 43.64,20.628 42.615,20.741C41.59,20.854 40.553,20.698 39.607,20.288C38.254,19.74 37.721,18.59 37.701,17.178C37.682,15.766 38.215,14.661 39.557,14.054C40.627,13.647 41.752,13.404 42.894,13.333C43.582,13.283 44.261,13.152 44.918,12.943C45.164,12.886 45.384,12.747 45.541,12.549C45.698,12.351 45.783,12.105 45.782,11.852C45.835,11.557 45.79,11.252 45.654,10.984C45.517,10.717 45.297,10.502 45.026,10.371C44.594,10.179 44.126,10.083 43.653,10.089C43.18,10.095 42.714,10.203 42.287,10.406C42.07,10.504 41.881,10.654 41.737,10.842C41.592,11.031 41.496,11.252 41.458,11.487C41.389,11.872 41.176,11.951 40.826,11.951L38.659,11.951C38.091,11.946 38.052,11.897 38.165,11.324C38.283,10.665 38.58,10.051 39.023,9.55C39.466,9.049 40.038,8.679 40.678,8.481C42.721,7.743 44.958,7.743 47.001,8.481C48.403,8.974 49.059,9.962 49.059,11.442L49.059,13.511ZM45.777,15.692L45.777,15.594C45.777,15.526 45.775,15.458 45.773,15.391C45.77,15.257 45.767,15.123 45.777,14.991C45.796,14.631 45.683,14.542 45.342,14.7C44.905,14.872 44.444,14.978 43.975,15.016C43.22,15.065 42.481,15.253 41.793,15.569C41.494,15.729 41.255,15.981 41.111,16.288C40.967,16.595 40.926,16.94 40.994,17.272C41.03,17.575 41.165,17.858 41.378,18.077C41.591,18.296 41.871,18.438 42.173,18.481C44.296,19.014 45.777,17.884 45.777,15.692ZM41.127,24.34C40.821,24.355 40.712,24.207 40.712,23.916C40.717,23.279 40.994,22.993 41.606,23.047C42.055,23.087 42.178,22.914 42.139,22.514C42.129,22.379 42.129,22.244 42.139,22.109C42.159,21.793 42.01,21.645 41.704,21.616C39.972,21.453 38.684,22.144 38.743,23.921C38.753,24.222 38.61,24.336 38.313,24.336L36.956,24.336C36.67,24.34 36.571,24.202 36.571,23.936C36.546,23.304 36.823,22.978 37.484,23.037C37.943,23.077 38.052,22.904 38.017,22.509L38.017,21.956C38.014,21.88 37.986,21.807 37.937,21.749C37.888,21.691 37.82,21.651 37.746,21.635C37.403,21.517 37.037,21.48 36.677,21.528C36.317,21.575 35.973,21.706 35.673,21.909C35.373,22.113 35.124,22.384 34.946,22.701C34.769,23.017 34.668,23.371 34.651,23.733C34.631,24.173 34.498,24.405 34.049,24.34C33.599,24.276 33.471,24.508 33.481,24.923C33.491,25.338 33.575,25.673 34.058,25.609C34.542,25.545 34.646,25.797 34.646,26.236L34.646,30.214C34.646,30.873 34.646,31.203 34.811,31.369C34.978,31.537 35.314,31.537 35.988,31.537C36.497,31.547 36.606,31.35 36.606,30.891C36.606,30.376 36.609,29.86 36.612,29.345C36.619,28.313 36.625,27.282 36.606,26.256C36.596,25.732 36.783,25.56 37.277,25.604C37.596,25.626 37.916,25.626 38.234,25.604C38.634,25.579 38.797,25.728 38.797,26.152L38.797,28.571L38.797,30.234C38.797,30.886 38.797,31.211 38.96,31.374C39.123,31.537 39.449,31.537 40.1,31.537C40.569,31.542 40.702,31.389 40.702,30.93L40.702,26.394C40.702,25.614 40.707,25.614 41.487,25.614C41.941,25.629 42.099,25.486 42.099,25.017L42.096,24.947C42.071,24.34 42.071,24.34 41.428,24.34L41.127,24.34ZM47.386,23.284C47.323,23.55 47.087,23.552 46.869,23.555L46.808,23.556C46.654,23.559 46.438,23.558 46.221,23.557L46.22,23.557L46.22,23.557C46.113,23.556 46.005,23.556 45.905,23.556L45.263,23.556C44.4,23.556 44.054,23.062 44.36,22.233C44.387,22.152 44.443,22.085 44.517,22.043C44.59,22.001 44.677,21.988 44.76,22.006C45.579,22.087 46.37,22.344 47.08,22.761C47.262,22.889 47.46,23.032 47.386,23.284ZM44.424,28.393L46.542,28.393L48.709,28.393C48.97,28.393 49.153,28.358 49.202,28.028C49.24,27.31 49.074,26.597 48.725,25.97C48.376,25.342 47.857,24.825 47.228,24.479C46.565,24.179 45.829,24.08 45.11,24.194C44.392,24.308 43.723,24.63 43.185,25.12C42.564,25.778 42.173,26.62 42.07,27.518C41.968,28.417 42.16,29.325 42.618,30.106C43.094,30.796 43.787,31.309 44.587,31.562C45.387,31.814 46.248,31.794 47.035,31.503C47.451,31.355 47.831,31.118 48.147,30.81C48.463,30.501 48.708,30.128 48.867,29.716C48.875,29.696 48.884,29.675 48.895,29.655C48.942,29.558 48.992,29.456 48.837,29.37C48.239,29.263 47.622,29.381 47.104,29.701C46.844,29.969 46.513,30.158 46.149,30.245C45.786,30.333 45.405,30.315 45.051,30.195C44.768,30.106 44.517,29.937 44.329,29.707C44.141,29.477 44.025,29.197 43.995,28.901C43.931,28.541 44.029,28.383 44.424,28.393ZM44.039,26.749C44.139,26.392 44.361,26.08 44.667,25.869C44.973,25.658 45.343,25.561 45.713,25.594C46.062,25.588 46.403,25.707 46.674,25.928C46.945,26.149 47.129,26.46 47.193,26.804C47.258,27.09 47.159,27.213 46.877,27.218L45.589,27.218L44.385,27.218C43.985,27.218 43.931,27.085 44.024,26.749L44.039,26.749ZM33.037,28.531L33.037,26.063C33.057,25.738 32.972,25.416 32.794,25.144C32.617,24.871 32.355,24.664 32.05,24.553C31.362,24.256 30.618,24.111 29.869,24.129C29.12,24.147 28.384,24.327 27.711,24.656C27.442,24.794 27.207,24.991 27.024,25.232C26.841,25.473 26.715,25.752 26.654,26.048C26.585,26.335 26.654,26.507 26.985,26.502L28.135,26.502C28.219,26.508 28.302,26.488 28.374,26.446C28.446,26.404 28.504,26.341 28.54,26.265C28.712,25.9 29.02,25.617 29.398,25.476C29.777,25.336 30.195,25.35 30.564,25.515C30.734,25.575 30.88,25.688 30.981,25.837C31.083,25.986 31.134,26.164 31.126,26.344C31.14,26.51 31.095,26.676 31,26.812C30.904,26.948 30.764,27.046 30.603,27.09C30.381,27.161 30.153,27.215 29.922,27.253C29.203,27.324 28.49,27.448 27.79,27.623C26.684,27.983 26.269,28.659 26.378,29.908C26.424,30.357 26.625,30.775 26.945,31.092C27.266,31.409 27.686,31.605 28.135,31.646C29.086,31.823 30.069,31.627 30.88,31.098C30.898,31.086 30.919,31.07 30.94,31.053C31.057,30.963 31.204,30.85 31.225,31.137C31.25,31.478 31.492,31.532 31.773,31.527C31.96,31.524 32.136,31.525 32.313,31.526L32.313,31.526L32.313,31.526L32.314,31.526L32.314,31.526L32.314,31.526L32.314,31.526L32.314,31.526L32.314,31.526C32.403,31.527 32.492,31.527 32.583,31.527C32.938,31.527 33.076,31.384 33.047,31.034C33.032,30.416 33.034,29.789 33.035,29.161C33.036,28.951 33.037,28.741 33.037,28.531ZM31.136,28.734C31.136,30.032 30.218,30.708 28.994,30.387C28.81,30.355 28.642,30.265 28.513,30.13C28.384,29.995 28.302,29.822 28.278,29.637C28.245,29.441 28.275,29.24 28.363,29.062C28.452,28.885 28.595,28.74 28.772,28.65C29.12,28.472 29.499,28.36 29.888,28.319L30.044,28.295C30.209,28.269 30.373,28.244 30.534,28.21L30.548,28.207C30.84,28.144 30.99,28.111 31.065,28.171C31.144,28.234 31.141,28.398 31.136,28.733L31.136,28.733L31.136,28.734ZM22.212,31.705C23.564,31.774 24.808,31.315 25.47,29.938C25.939,28.956 25.865,28.852 24.798,28.813C24.566,28.765 24.324,28.806 24.121,28.929C23.918,29.051 23.769,29.246 23.703,29.474C23.59,29.696 23.424,29.886 23.221,30.029C23.017,30.172 22.782,30.263 22.535,30.294C22.288,30.325 22.038,30.296 21.805,30.208C21.572,30.12 21.365,29.976 21.2,29.79C20.455,28.931 20.479,26.957 21.245,26.112C21.891,25.402 23.179,25.417 23.594,26.221C23.885,26.779 24.231,26.942 24.68,26.838C25.845,26.838 25.958,26.611 25.42,25.673C25.29,25.438 25.123,25.225 24.927,25.041C23.693,23.876 21.225,23.793 19.946,25.017C18.668,26.241 18.466,27.761 18.959,29.38C19.374,30.792 20.578,31.646 22.212,31.705ZM11.121,28.393L13.238,28.393L15.405,28.393C15.721,28.393 15.864,28.274 15.854,27.949C15.746,25.076 13.702,23.6 11.16,24.335C9.363,24.829 8.361,26.853 8.796,28.896C9.442,31.947 12.745,32.174 14.369,31.172C14.89,30.828 15.296,30.334 15.533,29.755C15.598,29.612 15.701,29.36 15.43,29.37C15.299,29.37 15.167,29.358 15.034,29.345C14.574,29.301 14.11,29.257 13.712,29.736C13.467,30.001 13.146,30.184 12.793,30.262C12.44,30.34 12.072,30.307 11.738,30.17C11.462,30.087 11.215,29.928 11.026,29.71C10.838,29.492 10.714,29.226 10.671,28.941C10.597,28.561 10.691,28.383 11.121,28.393ZM10.726,26.655C10.85,26.314 11.086,26.024 11.394,25.831C11.703,25.639 12.067,25.556 12.429,25.594C12.757,25.606 13.072,25.727 13.324,25.938C13.576,26.149 13.751,26.438 13.821,26.759C13.91,27.065 13.821,27.213 13.51,27.213L12.251,27.213L11.101,27.213C10.716,27.213 10.592,27.026 10.726,26.655ZM22.706,5.949L22.706,4.033C22.706,3.782 22.607,3.668 22.355,3.668L19.833,3.668C19.556,3.668 19.438,3.792 19.438,4.068L19.438,5.934C19.433,6.235 19.566,6.353 19.857,6.353L22.266,6.353C22.548,6.353 22.706,6.265 22.706,5.949ZM22.73,19.863C22.73,20.303 22.602,20.461 22.158,20.441C21.472,20.421 20.781,20.421 20.094,20.421C19.601,20.451 19.423,20.288 19.428,19.77L19.428,10.208L19.428,8.698C19.428,8.392 19.547,8.278 19.848,8.283C20.099,8.283 20.351,8.286 20.603,8.289C21.106,8.294 21.61,8.3 22.113,8.283C22.567,8.283 22.73,8.402 22.72,8.876L22.72,14.414C22.72,14.92 22.719,15.422 22.718,15.921C22.715,17.244 22.712,18.548 22.73,19.863ZM14.808,19.064L18.263,8.895C18.431,8.333 18.411,8.308 17.809,8.288C17.578,8.288 17.348,8.293 17.118,8.297C16.657,8.306 16.198,8.315 15.741,8.288C15.297,8.264 15.129,8.461 15.01,8.856C14.304,11.201 13.579,13.545 12.853,15.885C12.839,15.929 12.827,15.975 12.815,16.022C12.775,16.184 12.732,16.353 12.567,16.472C12.439,16.337 12.359,16.164 12.34,15.979C11.596,13.593 10.856,11.189 10.119,8.767C10.03,8.501 9.946,8.273 9.561,8.273L6.94,8.273C6.649,8.269 6.54,8.338 6.649,8.654C7.948,12.441 9.245,16.225 10.538,20.006C10.567,20.137 10.644,20.253 10.753,20.33C10.863,20.406 10.998,20.439 11.131,20.421L12.898,20.421C14.344,20.421 14.344,20.421 14.808,19.064Z" clip-rule="evenodd" fill-rule="evenodd" fill="#FFFFFF"/>
</svg>
