<svg width="72" height="24" viewBox="0 0 72 24" fill="none" xmlns="http://www.w3.org/2000/svg" xmlns:xlink="http://www.w3.org/1999/xlink">
<path d="M37.847,4.119C38.021,4.045 38.172,3.978 38.325,3.915C40.595,2.985 42.928,2.216 45.306,1.614C46.714,1.254 48.14,0.973 49.579,0.77C50.557,0.634 51.54,0.535 52.527,0.474C53.45,0.418 54.373,0.404 55.296,0.434C56.992,0.492 58.667,0.701 60.287,1.241C61.236,1.558 62.131,1.983 62.926,2.598C64.226,3.606 64.967,4.928 65.163,6.562C65.279,7.538 65.159,8.495 64.987,9.453C64.685,11.14 64.386,12.828 64.09,14.516C63.952,15.295 63.814,16.075 63.677,16.854C63.673,16.876 63.673,16.899 63.67,16.931C63.742,16.928 63.769,16.873 63.803,16.836C64.918,15.658 66.032,14.48 67.145,13.301C67.785,12.623 68.425,11.944 69.065,11.265C69.103,11.222 69.15,11.188 69.203,11.165C69.257,11.143 69.314,11.133 69.372,11.137C69.977,11.142 70.582,11.139 71.186,11.14C71.227,11.14 71.285,11.121 71.304,11.16C71.331,11.212 71.269,11.239 71.238,11.269C70.373,12.148 69.507,13.025 68.64,13.902C67.65,14.907 66.663,15.915 65.668,16.915C65.551,17.033 65.611,17.107 65.67,17.204C66.868,19.164 68.065,21.123 69.262,23.083C69.367,23.255 69.474,23.426 69.577,23.599C69.645,23.714 69.633,23.743 69.507,23.744C68.809,23.746 68.11,23.744 67.412,23.746C67.293,23.746 67.254,23.661 67.208,23.58C66.821,22.895 66.434,22.209 66.047,21.523C65.264,20.135 64.481,18.748 63.697,17.36C63.68,17.33 63.673,17.276 63.627,17.284C63.581,17.293 63.589,17.34 63.583,17.378C63.226,19.407 62.869,21.436 62.512,23.466C62.463,23.745 62.466,23.746 62.178,23.746C61.658,23.746 61.137,23.746 60.617,23.746C60.438,23.746 60.427,23.731 60.457,23.563C61.007,20.445 61.558,17.327 62.11,14.21C62.384,12.66 62.671,11.114 62.937,9.562C63.138,8.386 63.193,7.206 62.926,6.03C62.572,4.471 61.663,3.338 60.261,2.589C59.307,2.079 58.28,1.799 57.221,1.62C56.259,1.458 55.288,1.391 54.313,1.355C53.459,1.322 52.607,1.342 51.755,1.371C49.94,1.433 48.141,1.643 46.354,1.968C43.718,2.448 41.127,3.111 38.574,3.922C38.351,3.993 38.128,4.064 37.904,4.135C37.895,4.137 37.885,4.13 37.847,4.119Z" fill="#FFFFFF"/>
<path d="M39.528,15.772C39.453,17.536 38.999,19.412 37.882,21.081C36.89,22.562 35.526,23.512 33.76,23.85C32.952,24.005 32.139,24 31.325,23.905C30.712,23.833 30.114,23.704 29.542,23.467C29.343,23.383 29.152,23.283 28.969,23.168C28.875,23.109 28.84,23.04 28.861,22.924C29.153,21.282 29.443,19.64 29.731,17.998C30.084,15.996 30.437,13.994 30.791,11.993C31.093,10.282 31.394,8.571 31.694,6.859C31.7,6.818 31.716,6.779 31.74,6.745C31.765,6.711 31.797,6.683 31.834,6.665C32.513,6.274 33.191,5.883 33.868,5.491C33.9,5.473 33.937,5.434 33.97,5.459C34.014,5.492 33.985,5.547 33.977,5.59C33.854,6.296 33.728,7.001 33.603,7.706C33.385,8.938 33.168,10.169 32.951,11.401C32.945,11.436 32.925,11.48 32.964,11.504C33.002,11.527 33.036,11.496 33.069,11.48C33.596,11.233 34.162,11.076 34.741,11.014C35.584,10.925 36.417,10.943 37.214,11.283C38.087,11.654 38.688,12.296 39.069,13.153C39.409,13.915 39.522,14.724 39.528,15.772ZM37.441,15.597C37.443,15.049 37.392,14.509 37.229,13.986C36.941,13.066 36.381,12.415 35.39,12.262C34.53,12.129 33.69,12.234 32.893,12.613C32.767,12.672 32.711,12.747 32.689,12.88C32.51,13.923 32.326,14.966 32.142,16.008C31.789,18.014 31.435,20.02 31.081,22.026C31.024,22.347 31.026,22.349 31.345,22.448C31.669,22.549 32.005,22.584 32.342,22.605C33.164,22.656 33.95,22.536 34.67,22.109C35.478,21.63 36.021,20.913 36.416,20.082C37.092,18.666 37.39,17.158 37.441,15.597Z" fill="#FFFFFF"/>
<path d="M5.001,23.726C3.904,23.726 2.806,23.726 1.709,23.726C1.149,23.726 0.77,23.389 0.696,22.836C0.672,22.656 0.716,22.481 0.746,22.307C1.057,20.535 1.369,18.764 1.683,16.993C2.054,14.88 2.426,12.768 2.799,10.655C2.902,10.074 3.003,9.493 3.108,8.912C3.242,8.168 3.856,7.655 4.613,7.654C6.611,7.653 8.608,7.653 10.606,7.654C10.798,7.654 10.801,7.655 10.77,7.841C10.704,8.224 10.63,8.605 10.569,8.989C10.547,9.127 10.462,9.128 10.356,9.128C8.729,9.127 7.102,9.127 5.475,9.128C5.241,9.128 5.243,9.128 5.203,9.36C4.926,10.933 4.649,12.506 4.371,14.078C4.343,14.245 4.315,14.411 4.282,14.576C4.266,14.657 4.297,14.692 4.375,14.692C4.422,14.692 4.469,14.692 4.516,14.692L8.736,14.692C8.783,14.692 8.83,14.695 8.877,14.692C8.984,14.686 9.018,14.731 8.999,14.836C8.944,15.131 8.894,15.428 8.842,15.722C8.824,15.828 8.805,15.934 8.788,16.041C8.776,16.117 8.735,16.156 8.655,16.153C8.608,16.152 8.561,16.153 8.514,16.153L4.21,16.153C4.009,16.153 4.007,16.153 3.972,16.355C3.634,18.265 3.297,20.174 2.961,22.084C2.933,22.236 2.95,22.253 3.123,22.253C4.92,22.253 6.715,22.253 8.511,22.253C8.558,22.253 8.605,22.254 8.652,22.253C8.753,22.249 8.784,22.3 8.767,22.393C8.693,22.799 8.618,23.204 8.551,23.611C8.532,23.723 8.462,23.723 8.378,23.723C7.796,23.723 7.215,23.723 6.633,23.723L5.001,23.726Z" fill="#FFFFFF"/>
<path d="M57.841,23.728C57.546,23.728 57.25,23.724 56.955,23.731C56.83,23.734 56.802,23.689 56.823,23.573C56.987,22.66 57.149,21.747 57.309,20.834C57.614,19.105 57.919,17.375 58.223,15.645C58.299,15.207 58.398,14.773 58.437,14.329C58.481,13.826 58.422,13.344 58.094,12.932C57.79,12.549 57.363,12.374 56.899,12.314C55.881,12.183 54.88,12.263 53.912,12.633C53.797,12.676 53.747,12.739 53.725,12.862C53.244,15.606 52.76,18.351 52.273,21.094C52.13,21.901 51.988,22.708 51.846,23.515C51.808,23.727 51.807,23.727 51.587,23.727C51.024,23.727 50.461,23.727 49.898,23.727C49.736,23.727 49.729,23.719 49.757,23.558C50.081,21.723 50.405,19.887 50.73,18.052C51.089,16.014 51.447,13.975 51.804,11.936C51.823,11.83 51.869,11.773 51.966,11.733C52.895,11.346 53.862,11.116 54.858,10.997C55.342,10.941 55.829,10.909 56.316,10.901C57.202,10.885 58.08,10.943 58.905,11.309C59.958,11.774 60.49,12.595 60.543,13.738C60.571,14.368 60.417,14.976 60.311,15.588C60.028,17.231 59.734,18.872 59.445,20.514C59.265,21.533 59.086,22.552 58.908,23.572C58.887,23.692 58.834,23.734 58.711,23.731C58.423,23.724 58.132,23.728 57.841,23.728Z" fill="#FFFFFF"/>
<path d="M18.292,19.396C18.352,17.538 18.717,15.752 19.589,14.093C20.108,13.106 20.799,12.266 21.759,11.672C22.511,11.204 23.373,10.942 24.259,10.912C24.734,10.893 25.204,10.912 25.669,11.016C27.033,11.317 27.874,12.17 28.269,13.487C28.514,14.303 28.557,15.142 28.502,15.992C28.432,17.134 28.211,18.262 27.845,19.346C27.521,20.303 27.074,21.196 26.428,21.982C25.499,23.113 24.317,23.789 22.853,23.943C22.137,24.019 21.429,23.972 20.742,23.739C19.675,23.378 18.997,22.629 18.626,21.583C18.375,20.875 18.288,20.143 18.292,19.396ZM26.489,15.192C26.48,14.703 26.454,14.217 26.316,13.745C26.122,13.074 25.763,12.549 25.056,12.334C24.69,12.221 24.315,12.219 23.942,12.265C23.154,12.362 22.546,12.778 22.064,13.391C21.497,14.111 21.171,14.949 20.928,15.819C20.619,16.936 20.41,18.071 20.355,19.233C20.327,19.827 20.357,20.413 20.511,20.988C20.646,21.49 20.89,21.926 21.343,22.215C21.76,22.481 22.223,22.533 22.706,22.51C23.49,22.472 24.128,22.138 24.648,21.565C25.024,21.151 25.289,20.666 25.507,20.155C25.837,19.379 26.034,18.565 26.193,17.74C26.356,16.898 26.471,16.05 26.489,15.192Z" fill="#FFFFFF"/>
<path d="M43.838,23.977C42.998,23.96 42.172,23.897 41.387,23.59C40.486,23.237 39.859,22.635 39.664,21.655C39.525,20.956 39.631,20.273 39.835,19.604C40.201,18.406 40.983,17.549 42.054,16.937C43.019,16.385 44.072,16.087 45.15,15.867C45.899,15.714 46.657,15.616 47.416,15.535C47.491,15.527 47.542,15.506 47.554,15.426C47.623,14.963 47.744,14.508 47.73,14.035C47.716,13.548 47.594,13.106 47.207,12.777C46.893,12.509 46.513,12.395 46.113,12.337C45.056,12.181 44.042,12.372 43.049,12.722C42.795,12.807 42.547,12.907 42.305,13.02C42.205,13.068 42.154,13.054 42.128,12.937C42.058,12.607 41.982,12.279 41.903,11.95C41.883,11.866 41.909,11.824 41.988,11.788C42.89,11.367 43.853,11.092 44.842,10.972C45.684,10.867 46.525,10.861 47.356,11.059C47.979,11.207 48.542,11.467 48.984,11.949C49.387,12.388 49.581,12.915 49.656,13.496C49.75,14.215 49.607,14.914 49.483,15.616C49.176,17.359 48.868,19.103 48.559,20.846C48.436,21.547 48.311,22.248 48.191,22.949C48.173,23.05 48.12,23.103 48.033,23.145C47.338,23.478 46.602,23.675 45.846,23.807C45.179,23.921 44.506,23.961 43.838,23.977ZM44.191,22.756C44.375,22.773 44.557,22.742 44.738,22.728C45.235,22.69 45.723,22.602 46.186,22.409C46.286,22.367 46.34,22.308 46.359,22.196C46.677,20.374 46.998,18.553 47.322,16.733C47.343,16.616 47.291,16.604 47.2,16.617C46.954,16.653 46.709,16.686 46.464,16.723C45.623,16.851 44.796,17.025 44.002,17.341C42.4,17.979 41.528,19.334 41.638,21.141C41.674,21.725 41.98,22.16 42.51,22.429C43.04,22.699 43.614,22.736 44.191,22.755L44.191,22.756Z" fill="#FFFFFF"/>
<path d="M9.793,19.226C9.829,17.541 10.178,15.926 10.933,14.413C11.462,13.353 12.174,12.439 13.17,11.77C13.942,11.252 14.787,10.95 15.721,10.912C16.441,10.882 17.143,10.95 17.815,11.229C18.067,11.333 18.3,11.478 18.504,11.659C18.575,11.722 18.59,11.777 18.537,11.863C18.343,12.183 18.153,12.507 17.967,12.832C17.914,12.924 17.874,12.953 17.778,12.875C17.175,12.387 16.467,12.297 15.73,12.378C14.501,12.512 13.692,13.249 13.101,14.274C12.592,15.158 12.32,16.125 12.123,17.118C11.96,17.934 11.879,18.759 11.926,19.591C11.967,20.315 12.108,21.016 12.554,21.615C12.943,22.138 13.479,22.39 14.125,22.421C14.858,22.456 15.537,22.272 16.163,21.895C16.277,21.827 16.315,21.855 16.34,21.973C16.412,22.312 16.486,22.651 16.567,22.987C16.592,23.092 16.563,23.151 16.477,23.209C15.952,23.567 15.366,23.767 14.744,23.872C14.085,23.985 13.423,24.024 12.761,23.883C11.704,23.658 10.933,23.049 10.421,22.108C10.066,21.455 9.898,20.748 9.826,20.013C9.801,19.751 9.805,19.489 9.793,19.226Z" fill="#FFFFFF"/>
</svg>
