<svg width="144" height="120" viewBox="0 0 144 120" fill="none" xmlns="http://www.w3.org/2000/svg" xmlns:xlink="http://www.w3.org/1999/xlink">
<g filter="url(#filter878_10515)">
<circle cx="46" cy="62.432" r="46" fill="#FFFFFF" stroke="#831441" stroke-width="1.84" stroke-miterlimit="3.999327"/>
</g>
<circle cx="116" cy="28" r="28" stroke="#831441" stroke-width="2" stroke-miterlimit="3.999327"/>
<path d="M125.541,37.511C124.34,39.548 122.977,41.235 121.48,42.418C119.072,44.376 115.102,45.11 113.794,41.729C113.822,37.744 127.386,29.728 125.541,37.511Z" fill="#FDB21E"/>
<path d="M127.394,33.834C126.853,35.096 126.235,36.324 125.542,37.509C127.386,29.729 113.822,37.745 113.795,41.73C113.577,41.141 113.443,40.524 113.398,39.897C113.319,38.587 113.319,37.273 113.398,35.962C113.619,32.42 129.5,22.333 127.394,33.834Z" fill="#B52147"/>
<path d="M129.838,26.67C129.199,29.115 128.382,31.509 127.394,33.834C129.5,22.329 113.619,32.424 113.391,35.962C113.477,34.18 113.648,32.308 113.75,30.403C114.084,26.989 110.881,27.226 110.318,27.178C110.974,27.178 111.642,27.134 112.31,27.063C119.123,26.133 122.297,23.509 127.016,23.468C127.395,23.467 127.774,23.503 128.146,23.574C129.582,23.872 130.358,24.788 129.838,26.67Z" fill="#6E1843"/>
<path d="M128.146,23.574C127.774,23.503 127.395,23.467 127.016,23.468C122.297,23.509 119.123,26.133 112.31,27.063C111.642,27.134 110.974,27.174 110.318,27.178C108.454,27.19 106.683,26.92 105.258,26.304C103.503,25.187 104.127,18.578 113.795,19.512C121.096,20.221 124.793,21.231 123.628,18.566C124.534,20.31 124.976,22.162 128.146,23.574Z" fill="#FB9E2A"/>
<path d="M113.795,19.512C104.127,18.578 103.504,25.187 105.259,26.306C103.205,25.409 101.871,23.785 102.01,21.197C102.498,14.712 112.697,12.184 120.206,15.379C122.208,16.277 123.027,17.4 123.635,18.569C124.797,21.236 121.103,20.226 113.795,19.512Z" fill="#B52147"/>
<g filter="url(#filter878_10519)">
<path d="M113.957,83.89C112.644,80.794 110.767,78.014 108.381,75.623C105.99,73.238 103.21,71.361 100.114,70.048C96.908,68.69 93.506,68 90,68C75.664,68.005 64,79.669 64,94.003C64,108.337 75.664,120 90,120C104.336,120 116,108.337 116,94.003C116,90.497 115.315,87.095 113.957,83.89ZM90,115.701C78.035,115.701 68.3,105.967 68.3,94.003C68.3,82.039 78.035,72.304 90,72.304C101.965,72.304 111.7,82.039 111.7,94.003C111.7,105.967 101.965,115.701 90,115.701Z" fill="#831441"/>
<path d="M90,115.701C78.035,115.701 68.3,105.967 68.3,94.003C68.3,82.039 78.035,72.304 90,72.304C101.965,72.304 111.7,82.039 111.7,94.003C111.7,105.967 101.965,115.701 90,115.701Z" fill="#831441"/>
<path d="M98.611,84.561L90.025,93.147L81.439,84.561C81.061,84.197 80.556,83.996 80.032,84C79.507,84.005 79.006,84.215 78.635,84.586C78.264,84.957 78.054,85.458 78.049,85.983C78.045,86.507 78.246,87.012 78.611,87.389L87.197,95.975L78.611,104.561C78.42,104.746 78.267,104.967 78.162,105.211C78.058,105.455 78.002,105.717 78,105.983C77.998,106.248 78.048,106.512 78.149,106.757C78.249,107.003 78.398,107.226 78.586,107.414C78.774,107.602 78.997,107.751 79.243,107.851C79.488,107.952 79.752,108.002 80.017,108C80.283,107.998 80.545,107.942 80.789,107.838C81.033,107.733 81.254,107.58 81.439,107.389L90.025,98.803L98.611,107.389C98.988,107.754 99.493,107.955 100.017,107.951C100.542,107.946 101.043,107.736 101.414,107.365C101.785,106.994 101.995,106.493 102,105.968C102.004,105.444 101.803,104.939 101.439,104.561L92.853,95.975L101.439,87.389C101.803,87.012 102.004,86.507 102,85.983C101.995,85.458 101.785,84.957 101.414,84.586C101.043,84.215 100.542,84.005 100.017,84C99.493,83.996 98.988,84.197 98.611,84.561Z" fill="#FCC20A"/>
</g>
<path d="M47,90C32.127,90 20,77.873 20,63C20,48.127 32.127,36 47,36C61.873,36 74,48.127 74,63C74,77.873 61.873,90 47,90ZM47,38.832C33.721,38.832 22.832,49.721 22.832,63C22.832,76.279 33.721,87.168 47,87.168C60.279,87.168 71.168,76.279 71.168,63C71.168,49.721 60.279,38.832 47,38.832Z" fill="#831441"/>
<path d="M47,38.832C33.721,38.832 22.832,49.721 22.832,63C22.832,76.279 33.721,87.168 47,87.168C60.279,87.168 71.168,76.279 71.168,63C71.168,49.721 60.279,38.832 47,38.832Z" fill="#FCC20A"/>
<path d="M47,90C40.094,90 34.783,78.139 34.783,63C34.783,47.861 40.184,36 47,36C53.905,36 59.217,47.861 59.217,63C59.217,78.139 53.906,90 47,90ZM47,38.832C42.574,38.832 37.614,48.746 37.614,63C37.614,77.254 42.573,87.168 47,87.168C51.426,87.168 56.385,77.254 56.385,63C56.385,48.746 51.426,38.832 47,38.832Z" fill="#831441"/>
<path d="M47,38.832C42.574,38.832 37.614,48.746 37.614,63C37.614,77.254 42.573,87.168 47,87.168C51.426,87.168 56.385,77.254 56.385,63C56.385,48.746 51.426,38.832 47,38.832Z" fill="#FCC20A"/>
<rect  x="24.16" y="50.074" width="45.59" height="2.832" fill="#831441"/>
<rect  x="24.16" y="73.09" width="45.59" height="2.832" fill="#831441"/>
<defs>
<filter id="filter878_10515" x="-6.943396" y="9.488245" width="59.886792" height="59.886792" filterUnits="userSpaceOnUse" color-interpolation-filters="sRGB">
<feFlood flood-opacity="0" result="BackgroundImageFix"/>
<feColorMatrix in="SourceAlpha" type="matrix" values="0 0 0 0 0 0 0 0 0 0 0 0 0 0 0 0 0 0 127 0" result="hardAlpha"/>
<feMorphology radius="0" operator="dilate" in="SourceAlpha" result="0dropshadow"/>
<feOffset dx="0" dy="0"/>
<feGaussianBlur stdDeviation="3.471698"/>
<feComposite in2="hardAlpha" operator="out"/>
<feColorMatrix type="matrix" values="0 0 0 0 0 0 0 0 0 0 0 0 0 0 0 0 0 0 0.2 0"/>
<feBlend mode="normal" in2="BackgroundImageFix" result="0dropshadow"/>
<feBlend mode="normal" in="SourceGraphic" in2="0dropshadow" result="shape"/>
</filter>
<filter id="filter878_10519" x="56" y="60" width="42" height="42" filterUnits="userSpaceOnUse" color-interpolation-filters="sRGB">
<feFlood flood-opacity="0" result="BackgroundImageFix"/>
<feColorMatrix in="SourceAlpha" type="matrix" values="0 0 0 0 0 0 0 0 0 0 0 0 0 0 0 0 0 0 127 0" result="hardAlpha"/>
<feMorphology radius="0" operator="dilate" in="SourceAlpha" result="0dropshadow"/>
<feOffset dx="0" dy="0"/>
<feGaussianBlur stdDeviation="4"/>
<feComposite in2="hardAlpha" operator="out"/>
<feColorMatrix type="matrix" values="0 0 0 0 0 0 0 0 0 0 0 0 0 0 0 0 0 0 0.2 0"/>
<feBlend mode="normal" in2="BackgroundImageFix" result="0dropshadow"/>
<feBlend mode="normal" in="SourceGraphic" in2="0dropshadow" result="shape"/>
</filter>
</defs>
</svg>
