<svg width="44" height="38" viewBox="0 0 44 38" fill="none" xmlns="http://www.w3.org/2000/svg" xmlns:xlink="http://www.w3.org/1999/xlink">
<path d="M0,9.51C0.129,8.627 0.325,7.755 0.586,6.902C0.768,6.409 0.974,5.917 1.16,5.432C1.214,5.3 1.265,5.125 1.428,5.106C1.591,5.086 1.645,5.273 1.723,5.385C1.821,5.583 1.952,5.763 2.111,5.917C2.306,5.322 2.464,4.715 2.584,4.101C2.689,3.736 2.766,3.36 2.84,2.987C2.964,2.382 3.418,2.052 3.876,1.738C4.132,1.563 4.113,1.819 4.128,1.967C4.196,2.681 4.223,3.399 4.21,4.116C4.196,4.283 4.23,4.449 4.307,4.597C4.59,3.589 4.877,2.584 5.149,1.571C5.281,1.213 5.504,0.895 5.797,0.65C6.089,0.405 6.441,0.241 6.817,0.174C7.093,0.151 7.034,0.36 7.034,0.504C7.034,1.455 7.034,2.409 7.034,3.36C7.024,3.516 7.05,3.673 7.112,3.818C7.294,3.29 7.5,2.762 7.659,2.235C7.907,1.501 8.167,0.768 8.385,0.027C8.415,-0.109 8.487,-0.232 8.589,-0.325C8.692,-0.419 8.821,-0.479 8.959,-0.497C9.816,-0.679 10.682,-0.838 11.551,-0.947C11.679,-0.947 11.846,-1.009 11.939,-0.897C12.032,-0.784 11.888,-0.621 11.819,-0.509C10.814,1.092 10.031,2.821 9.491,4.632C9.021,6.243 8.815,7.872 9.265,9.525C9.743,11.263 10.946,12.365 12.513,13.122C12.901,13.312 13.332,13.436 13.739,13.599C13.867,13.65 14.069,13.63 14.084,13.809C14.1,13.987 13.925,14.003 13.817,14.072C13.291,14.394 12.833,14.814 12.466,15.31C12.188,15.708 11.996,16.16 11.904,16.637C11.85,16.901 11.935,17.056 12.241,17.056C13.308,17.056 14.379,17.056 15.446,17.056C15.653,17.044 15.851,16.965 16.009,16.831C16.626,16.387 17.306,16.038 18.027,15.795C18.803,15.562 19.532,15.465 20.071,16.253C20.188,16.424 20.269,16.377 20.335,16.203C20.421,16.005 20.466,15.793 20.468,15.578C20.47,15.363 20.429,15.149 20.347,14.951C20.265,14.752 20.145,14.571 19.992,14.42C19.839,14.268 19.658,14.149 19.458,14.069C19.068,13.901 18.646,13.817 18.221,13.824C17.475,13.836 16.729,13.808 15.986,13.743C16.925,13.382 17.887,13.056 18.554,12.338C19.222,11.62 20.087,11.523 20.952,11.376C24.273,10.802 27.548,10.092 30.706,8.831C33.283,7.777 35.779,6.537 38.175,5.121C38.354,5.016 38.529,4.908 38.711,4.819C38.893,4.729 39.01,4.539 39.173,4.656C39.336,4.772 39.227,4.962 39.204,5.117C39.099,5.839 38.975,6.561 38.866,7.282C38.842,7.487 38.762,7.681 38.635,7.844C38.507,8.006 38.338,8.13 38.144,8.202L34.839,9.638C34.674,9.681 34.526,9.775 34.416,9.905L37.795,9.758C38.276,9.758 38.226,9.727 38.09,10.2C37.995,10.606 37.77,10.971 37.45,11.237C37.129,11.504 36.73,11.659 36.313,11.678C35.556,11.8 34.813,12 34.098,12.276L35.44,12.396C35.828,12.427 36.216,12.466 36.581,12.486C36.845,12.486 36.887,12.617 36.752,12.819C36.329,13.471 35.925,14.096 35.017,14.212C34.216,14.356 33.424,14.548 32.646,14.786C33.094,14.975 33.555,15.133 34.024,15.26C34.47,15.434 34.478,15.477 34.129,15.791C32.554,17.159 30.768,18.261 28.84,19.054C25.437,20.56 21.856,21.483 18.24,22.333C16.075,22.845 13.883,23.229 11.69,23.606C11.023,23.718 10.969,23.679 10.973,23.02C10.973,22.434 10.938,21.856 10.911,21.266C10.911,20.878 10.783,20.878 10.495,21.064C8.244,22.486 6.372,24.434 5.04,26.741C4.38,27.894 3.852,29.119 3.469,30.392C3.321,30.861 3.271,30.869 2.91,30.516C2.475,30.121 2.094,29.671 1.777,29.177C1.696,29.064 1.652,28.929 1.652,28.789C1.652,28.65 1.696,28.514 1.777,28.401C2.122,27.85 2.429,27.272 2.813,26.601C2.36,26.91 1.937,27.261 1.548,27.649C1.23,27.924 1.11,27.835 1.024,27.486C1.006,27.418 0.983,27.352 0.954,27.288C0.883,27.16 0.837,27.02 0.821,26.874C0.804,26.729 0.816,26.582 0.857,26.441C0.898,26.301 0.966,26.17 1.058,26.056C1.15,25.942 1.264,25.848 1.393,25.778C1.766,25.496 2.086,25.151 2.34,24.758C1.952,24.816 1.564,24.855 1.176,24.948C0.788,25.041 0.691,24.874 0.788,24.517C0.923,24.025 1.048,23.528 1.176,23.035C1.212,22.901 1.276,22.775 1.363,22.665C1.449,22.556 1.557,22.465 1.68,22.399C2.733,21.763 3.782,21.116 4.827,20.459C5.013,20.377 5.171,20.242 5.281,20.071L4.594,20.071C3.791,20.071 2.984,20.052 2.177,20.071C2.039,20.088 1.901,20.053 1.787,19.974C1.674,19.894 1.594,19.775 1.564,19.64C0.81,17.561 0.307,15.398 0.066,13.199C0.05,13.114 0.028,13.03 0,12.947L0,9.51Z" fill="#FFC629"/>
<path d="M16.773,30.609L19.039,30.609C19.406,30.609 19.593,30.609 19.687,30.702C19.784,30.798 19.784,30.992 19.784,31.385L19.784,35.16C19.784,35.863 19.784,35.886 19.097,36.142C17.95,36.586 16.74,36.848 15.512,36.918C13.797,37.011 12.125,36.918 10.534,36.173C9.513,35.695 8.673,34.9 8.139,33.907C7.605,32.914 7.406,31.775 7.57,30.66C7.872,28.382 9.242,27.047 11.283,26.31C13.657,25.453 16.051,25.577 18.43,26.349C18.771,26.462 18.961,26.613 18.849,27.016C18.756,27.4 18.684,27.789 18.632,28.18C18.57,28.518 18.418,28.642 18.05,28.537C17.268,28.248 16.455,28.049 15.629,27.944C14.616,27.874 13.607,27.827 12.668,28.332C11.314,29.046 10.682,30.59 11.046,32.25C11.197,33.012 11.611,33.696 12.217,34.183C12.822,34.669 13.58,34.926 14.356,34.908C14.983,34.907 15.61,34.847 16.226,34.73C16.366,34.719 16.497,34.656 16.593,34.553C16.688,34.45 16.742,34.315 16.742,34.175C16.774,33.723 16.752,33.268 16.676,32.821C16.646,32.576 16.472,32.573 16.296,32.569L16.288,32.569C15.731,32.574 15.174,32.551 14.62,32.499C14.472,32.499 14.317,32.472 14.251,32.313C14.073,31.864 13.96,31.392 13.914,30.912C13.89,30.7 14.053,30.689 14.193,30.68C14.214,30.679 14.235,30.677 14.255,30.675C14.839,30.596 15.423,30.604 15.962,30.611C16.247,30.615 16.52,30.619 16.773,30.609ZM41.653,31.13L41.654,31.13C41.911,31.217 42.13,31.292 42.343,31.389C43.2,31.777 43.864,32.321 43.972,33.33C44.05,33.841 43.964,34.365 43.728,34.826C43.492,35.287 43.118,35.662 42.657,35.898C41.899,36.351 41.043,36.617 40.162,36.674C38.366,36.781 36.568,36.781 34.772,36.781C34.344,36.781 33.916,36.781 33.488,36.783C33.174,36.783 33.034,36.67 33.038,36.348L33.038,26.423C33.038,26.093 33.159,25.942 33.5,25.946C34.068,25.946 34.636,25.939 35.204,25.933C36.816,25.914 38.429,25.895 40.042,26.027C40.759,26.077 41.459,26.273 42.098,26.602C42.526,26.786 42.886,27.1 43.125,27.5C43.365,27.899 43.472,28.364 43.433,28.829C43.379,29.791 42.808,30.381 41.99,30.769L41.369,31.033C41.469,31.068 41.564,31.1 41.653,31.13ZM37.815,34.936L37.815,34.87L39.262,34.87C39.423,34.854 39.581,34.814 39.731,34.753C40.044,34.69 40.321,34.513 40.512,34.258C40.702,34.002 40.792,33.686 40.763,33.368C40.738,33.045 40.598,32.741 40.37,32.51C40.141,32.28 39.838,32.139 39.514,32.111C38.918,32.026 38.325,32.027 37.726,32.029C37.346,32.03 36.964,32.031 36.577,32.01C36.383,32.01 36.321,32.103 36.321,32.278L36.321,34.649C36.321,34.901 36.433,34.967 36.678,34.951C36.948,34.928 37.233,34.931 37.523,34.934L37.523,34.934C37.62,34.935 37.717,34.936 37.815,34.936ZM37.958,27.808L36.709,27.808C36.43,27.808 36.321,27.917 36.321,28.196L36.321,29.861C36.321,30.218 36.433,30.365 36.802,30.35C37.387,30.33 37.976,30.327 38.564,30.324L38.858,30.322C39.165,30.311 39.465,30.226 39.731,30.074C39.962,29.975 40.154,29.804 40.279,29.586C40.404,29.369 40.456,29.117 40.426,28.867C40.377,28.631 40.26,28.413 40.089,28.242C39.918,28.071 39.701,27.954 39.464,27.905C38.967,27.818 38.462,27.785 37.958,27.808ZM23.14,35.649C24.533,36.665 26.136,37.003 27.994,36.96C29.202,36.989 30.404,36.782 31.533,36.351C31.812,36.254 31.901,36.114 31.835,35.831C31.788,35.637 31.749,35.437 31.711,35.237C31.672,35.031 31.633,34.826 31.583,34.628C31.44,34.054 31.308,33.984 30.753,34.24C29.833,34.672 28.818,34.863 27.804,34.795C26.105,34.687 24.731,33.856 24.428,32.002C24.137,30.209 25.034,28.199 27.505,27.99C28.572,27.853 29.656,28.01 30.64,28.444C30.99,28.611 31.219,28.568 31.304,28.126C31.389,27.683 31.479,27.237 31.595,26.799C31.669,26.496 31.556,26.364 31.281,26.298C31.097,26.255 30.914,26.208 30.731,26.16C30.448,26.085 30.164,26.011 29.876,25.957C27.902,25.523 25.84,25.744 24.002,26.585C23.161,26.967 22.436,27.564 21.9,28.316C21.363,29.068 21.035,29.948 20.948,30.868C20.86,31.787 21.017,32.713 21.402,33.553C21.787,34.392 22.387,35.115 23.14,35.649Z" clip-rule="evenodd" fill-rule="evenodd" fill="#000000"/>
</svg>
