<svg width="48" height="38" viewBox="0 0 48 38" fill="none" xmlns="http://www.w3.org/2000/svg" xmlns:xlink="http://www.w3.org/1999/xlink">
<path d="M29.05,7.81L19.934,15.851L19.478,16.254C19.527,16.429 19.551,16.61 19.55,16.791C19.555,16.839 19.555,16.887 19.55,16.935C19.516,17.467 19.281,17.966 18.892,18.33C18.504,18.695 17.991,18.897 17.459,18.898C17.297,18.897 17.135,18.876 16.979,18.835L16.638,19.176L16.048,18.504L14.839,17.122L13.285,15.405L9.84,11.485L16.945,11.485L14.355,13.946L15.52,14.949L15.943,15.314C16.137,15.116 16.369,14.959 16.626,14.851C16.882,14.744 17.157,14.69 17.435,14.69C17.552,14.69 17.669,14.7 17.785,14.719C17.99,14.754 18.189,14.82 18.375,14.916L18.797,14.513L25.792,7.796L6.899,7.796L6.75,7.949L3.689,11.269L3.881,11.485L10.224,18.71L12.143,20.889L13.438,22.361L14.326,23.374L14.609,23.7C15.057,24.141 15.627,24.437 16.245,24.549C16.427,24.582 16.612,24.598 16.797,24.597C16.981,24.598 17.166,24.582 17.348,24.549C17.916,24.445 18.444,24.186 18.874,23.801L19.085,23.59L19.809,22.865L20.975,21.829L24.641,24.573L29.683,24.573L30.163,24.055L33.108,20.893L35.21,18.643L30.206,18.643L28.1,20.893L27.745,21.277L24.19,18.504L31.204,11.49L36.879,11.49L33.636,14.963L38.664,14.963L41.912,11.49L45.337,7.815L29.05,7.81Z" fill="#DA322B"/>
<path d="M48,33.731L46.887,33.731L46.887,0.393L1.118,0.393L1.118,33.731L0,33.731L0,-0.725L48,-0.725L48,33.731ZM34.778,1.189L34.519,0.92C34.245,0.644 33.883,0.474 33.497,0.44L33.386,0.44C33.173,0.434 32.961,0.471 32.763,0.548C32.564,0.626 32.383,0.742 32.23,0.891L30.791,2.282L25.034,7.828L18.317,14.286C18.05,14.201 17.772,14.157 17.492,14.157C17.134,14.156 16.779,14.228 16.449,14.368C16.119,14.508 15.821,14.714 15.573,14.972C15.091,15.464 14.823,16.126 14.824,16.814C14.817,16.925 14.817,17.035 14.824,17.145C14.933,17.794 15.278,18.38 15.793,18.789C16.308,19.198 16.956,19.402 17.613,19.361C18.269,19.32 18.887,19.036 19.347,18.566C19.806,18.096 20.075,17.472 20.102,16.814C20.109,16.704 20.109,16.594 20.102,16.483L29.923,7.848L32.983,5.151C33.101,5.087 33.209,5.006 33.305,4.912L33.905,4.336L34.759,3.52C35.057,3.223 35.228,2.823 35.238,2.402C35.251,2.179 35.216,1.956 35.137,1.747C35.058,1.538 34.935,1.347 34.778,1.189ZM34.356,3.108L33.818,3.626L32.58,4.715L31.894,5.319L29.049,7.828L19.934,15.869L19.478,16.272C19.527,16.447 19.551,16.628 19.55,16.81C19.555,16.857 19.555,16.906 19.55,16.954C19.516,17.485 19.281,17.984 18.892,18.348C18.504,18.713 17.991,18.916 17.458,18.916C17.296,18.915 17.135,18.894 16.979,18.853C16.433,18.741 15.954,18.416 15.648,17.95C15.341,17.485 15.232,16.916 15.345,16.371C15.458,15.825 15.782,15.346 16.248,15.04C16.714,14.733 17.282,14.624 17.828,14.737C18.033,14.772 18.232,14.838 18.418,14.934L18.84,14.531L25.835,7.814L30.306,3.496L31.05,2.781L32.777,1.126C32.954,1.006 33.163,0.942 33.377,0.944C33.52,0.946 33.661,0.977 33.792,1.034C33.923,1.092 34.041,1.176 34.14,1.28L34.394,1.544C34.592,1.751 34.701,2.029 34.696,2.316C34.693,2.46 34.662,2.601 34.603,2.732C34.545,2.863 34.461,2.981 34.356,3.079L34.356,3.108ZM0.835,36.725L47.424,36.725C47.511,36.724 47.595,36.696 47.666,36.645C47.736,36.594 47.788,36.522 47.816,36.439C47.843,36.357 47.844,36.268 47.819,36.185C47.793,36.102 47.743,36.029 47.674,35.976L32.849,24.808C32.807,24.764 32.755,24.73 32.698,24.708C32.641,24.686 32.58,24.677 32.519,24.681C32.458,24.686 32.399,24.704 32.346,24.733C32.292,24.763 32.246,24.804 32.21,24.854C32.175,24.904 32.15,24.96 32.139,25.02C32.128,25.08 32.13,25.142 32.145,25.201C32.16,25.261 32.188,25.316 32.227,25.363C32.266,25.41 32.314,25.448 32.369,25.474L46.196,35.89L1.929,35.89L13.443,25.45C13.484,25.414 13.517,25.369 13.54,25.32C13.564,25.27 13.577,25.216 13.58,25.161C13.582,25.107 13.574,25.052 13.556,25C13.537,24.948 13.509,24.901 13.472,24.86C13.435,24.819 13.391,24.786 13.341,24.762C13.292,24.738 13.238,24.724 13.183,24.722C13.128,24.719 13.073,24.727 13.021,24.746C12.969,24.765 12.922,24.794 12.882,24.832L0.557,36C0.492,36.056 0.447,36.13 0.426,36.212C0.406,36.294 0.411,36.381 0.441,36.46C0.472,36.539 0.526,36.607 0.596,36.655C0.667,36.702 0.75,36.726 0.835,36.725Z" clip-rule="evenodd" fill-rule="evenodd" fill="#0D8E45"/>
</svg>
