<svg width="60" height="24" viewBox="0 0 60 24" fill="none" xmlns="http://www.w3.org/2000/svg" xmlns:xlink="http://www.w3.org/1999/xlink">
<path d="M1.367,5.687C0.482,7.33 0.029,9.171 0.05,11.037C0.051,11.074 0.053,11.111 0.054,11.149C0.062,11.343 0.07,11.548 0.118,11.778C0.193,13.024 0.466,14.249 0.928,15.409C1.004,15.602 1.032,15.69 1.086,15.712C1.142,15.734 1.225,15.687 1.415,15.615C1.755,15.473 2.11,15.372 2.473,15.313C2.486,15.313 2.5,15.31 2.512,15.306C2.537,15.299 2.56,15.293 2.574,15.313C2.587,15.332 2.571,15.351 2.556,15.369C2.546,15.381 2.537,15.393 2.537,15.403L2.262,15.774C2.075,16.025 1.909,16.29 1.764,16.568C1.721,16.637 1.697,16.718 1.697,16.801C1.697,16.883 1.721,16.964 1.764,17.033C1.949,17.334 2.151,17.617 2.35,17.896C2.397,17.962 2.443,18.027 2.489,18.092C2.504,18.117 2.526,18.137 2.553,18.149C2.579,18.162 2.609,18.166 2.637,18.161C2.799,18.142 2.962,18.128 3.124,18.114C3.424,18.088 3.725,18.062 4.024,18.007C4.842,17.852 5.631,17.572 6.363,17.176C7.563,16.576 8.503,15.561 9.009,14.318C9.068,14.236 9.109,14.143 9.13,14.044C9.151,13.945 9.152,13.843 9.132,13.743C9.112,13.644 9.072,13.55 9.015,13.467C8.957,13.384 8.883,13.314 8.798,13.26C8.57,13.036 8.341,12.815 8.112,12.594C7.628,12.125 7.144,11.658 6.681,11.17C6.391,10.869 6.186,10.498 6.086,10.092C5.987,9.687 5.996,9.263 6.114,8.862C6.219,8.484 6.387,8.126 6.612,7.804C7.155,6.979 7.846,6.261 8.649,5.687C10.74,4.069 13.17,2.946 15.757,2.4C15.78,2.396 15.807,2.393 15.835,2.389C15.933,2.378 16.042,2.365 16.059,2.279C16.076,2.186 15.973,2.123 15.883,2.068C15.865,2.057 15.847,2.046 15.831,2.035C15.125,1.544 14.358,1.146 13.55,0.85C11.918,0.209 10.136,0.051 8.417,0.395C6.919,0.689 5.507,1.318 4.286,2.234C3.066,3.151 2.068,4.331 1.367,5.687ZM9.734,18.086L13.682,18.086L13.693,18.113L17.715,18.113C17.758,18.12 17.803,18.115 17.844,18.099C17.885,18.083 17.92,18.057 17.948,18.023C18.85,16.849 19.526,15.517 19.943,14.096C20.152,13.38 20.269,12.64 20.292,11.895C20.348,11.067 20.332,10.237 20.245,9.413C20.05,7.982 19.575,6.605 18.848,5.359C18.721,5.136 18.662,5.126 18.445,5.269C18.025,5.524 17.568,5.715 17.091,5.835C17.08,5.835 17.069,5.839 17.058,5.843C17.038,5.852 17.018,5.859 17.001,5.835C16.979,5.804 17.004,5.78 17.029,5.758C17.034,5.754 17.039,5.749 17.043,5.745C17.223,5.576 17.398,5.401 17.572,5.216C17.721,5.058 17.846,4.88 17.943,4.687C17.988,4.603 18.007,4.507 17.997,4.413C17.986,4.318 17.947,4.229 17.884,4.157C17.774,3.994 17.629,3.849 17.483,3.704C17.44,3.661 17.397,3.618 17.355,3.575C17.308,3.535 17.248,3.514 17.186,3.517C16.81,3.49 16.434,3.49 16.053,3.49C15.771,3.478 15.488,3.514 15.217,3.596C14.207,3.917 13.314,4.528 12.65,5.353C12.276,5.778 11.972,6.261 11.751,6.782C11.653,7.014 11.615,7.267 11.64,7.518C11.712,7.936 11.936,8.313 12.269,8.576C12.597,8.864 12.951,9.119 13.328,9.338C13.676,9.527 13.994,9.768 14.27,10.053C14.443,10.232 14.574,10.447 14.652,10.684C14.73,10.92 14.753,11.171 14.72,11.418C14.645,11.916 14.464,12.393 14.19,12.815C13.6,13.712 12.887,14.523 12.074,15.223C11.094,16.118 10.052,16.942 8.956,17.69L8.554,17.975C8.549,17.981 8.542,17.986 8.535,17.991C8.515,18.006 8.493,18.022 8.501,18.049C8.512,18.086 8.554,18.086 8.586,18.086L8.644,18.086L9.734,18.086Z" clip-rule="evenodd" fill-rule="evenodd" fill="#2791D0"/>
<path d="M31.755,10.862L34.46,10.862L37.19,10.847C37.307,10.847 37.339,10.81 37.339,10.693C37.328,10.547 37.328,10.4 37.339,10.254C37.349,10.122 37.307,10.079 37.169,10.079L31.697,10.079C31.597,10.069 31.597,10.106 31.597,10.18C31.597,10.245 31.598,10.309 31.599,10.372C31.601,10.493 31.604,10.608 31.597,10.709C31.586,10.862 31.639,10.862 31.755,10.862ZM59.979,15.626L59.979,15.655C59.985,15.645 59.992,15.635 60,15.625L60,16.054C59.992,16.045 59.985,16.035 59.979,16.024L59.979,16.054C59.935,16.538 59.736,16.994 59.412,17.356C59.088,17.717 58.655,17.964 58.18,18.06C57.381,18.235 56.549,18.17 55.787,17.875L55.338,17.716C55.309,17.709 55.283,17.691 55.266,17.667C55.249,17.643 55.24,17.613 55.242,17.584L55.242,16.308C55.242,16.192 55.279,16.208 55.353,16.25C55.609,16.392 55.872,16.519 56.142,16.631C56.56,16.824 57.026,16.888 57.481,16.816C57.663,16.779 57.829,16.687 57.956,16.553C58.084,16.419 58.168,16.248 58.195,16.065C58.239,15.906 58.231,15.737 58.174,15.583C58.117,15.428 58.014,15.295 57.878,15.202C57.584,14.983 57.262,14.805 56.92,14.673C56.668,14.567 56.424,14.443 56.19,14.303C55.828,14.107 55.544,13.794 55.385,13.414C55.226,13.035 55.202,12.612 55.316,12.217C55.384,11.812 55.583,11.44 55.883,11.159C55.961,11.096 56.024,11.016 56.068,10.926C55.951,10.895 55.829,10.884 55.708,10.894C55.086,10.894 54.463,10.885 53.84,10.876C53.217,10.867 52.594,10.857 51.972,10.857L41.387,10.857L41.323,10.858C41.248,10.859 41.211,10.859 41.192,10.841C41.174,10.822 41.174,10.785 41.175,10.71L41.176,10.646L41.176,10.206L41.176,10.206C41.176,10.132 41.176,10.103 41.189,10.094C41.198,10.088 41.212,10.09 41.235,10.094C41.247,10.096 41.263,10.099 41.281,10.1L54.803,10.1L54.804,10.1C55.481,10.1 56.158,10.1 56.841,10.138L57.132,10.164C57.211,10.164 57.269,10.196 57.28,10.302C57.29,10.406 57.399,10.413 57.488,10.418L57.492,10.418C57.789,10.422 58.085,10.441 58.381,10.476C58.716,10.523 59.044,10.609 59.36,10.73C59.46,10.761 59.547,10.825 59.607,10.911C59.666,10.998 59.695,11.102 59.688,11.207L59.688,11.995C59.693,12.046 59.693,12.098 59.688,12.149C59.656,12.276 59.614,12.281 59.513,12.196C59.264,11.974 58.962,11.818 58.637,11.742C58.312,11.666 57.972,11.673 57.65,11.762C57.49,11.81 57.348,11.906 57.243,12.036C57.138,12.166 57.075,12.326 57.063,12.493C57.029,12.639 57.043,12.792 57.102,12.93C57.161,13.068 57.262,13.183 57.391,13.26C57.667,13.433 57.96,13.578 58.264,13.694C58.56,13.819 58.847,13.966 59.122,14.133C59.372,14.297 59.58,14.517 59.729,14.776C59.878,15.036 59.964,15.327 59.979,15.626ZM43.265,13.234C43.285,13.202 43.306,13.171 43.327,13.139L43.327,13.139C43.375,13.066 43.423,12.994 43.462,12.916C43.564,12.72 43.715,12.555 43.901,12.435C44.086,12.315 44.3,12.246 44.52,12.233C45.064,12.161 45.616,12.285 46.076,12.583C46.243,12.698 46.375,12.858 46.457,13.043C46.611,13.318 46.664,13.318 46.833,13.043L46.887,12.958C47.047,12.703 47.207,12.449 47.521,12.344C47.956,12.179 48.432,12.155 48.881,12.276C49.13,12.344 49.365,12.457 49.574,12.609C49.743,12.746 49.879,12.92 49.971,13.117C50.062,13.314 50.108,13.529 50.104,13.747C50.143,14.283 50.15,14.823 50.157,15.361L50.157,15.361L50.157,15.361L50.157,15.362C50.158,15.482 50.16,15.601 50.162,15.721C50.165,15.942 50.167,16.176 50.168,16.415C50.17,16.886 50.173,17.378 50.194,17.838L50.194,17.838C50.194,17.954 50.194,18.002 50.04,17.997L48.982,17.997C48.865,17.997 48.839,17.96 48.839,17.854L48.839,16.113L48.839,16.112C48.839,15.535 48.839,14.916 48.802,14.318C48.802,14.202 48.802,14.091 48.765,13.98C48.732,13.759 48.613,13.561 48.435,13.427C48.257,13.293 48.033,13.235 47.812,13.265C47.444,13.287 47.088,13.405 46.78,13.609C46.721,13.639 46.721,13.691 46.722,13.741L46.722,13.752L46.722,15.504L46.722,17.854C46.722,17.96 46.69,18.002 46.579,17.997L45.616,17.997C45.521,17.997 45.478,17.997 45.462,17.87C45.399,17.353 45.372,16.833 45.383,16.314L45.383,14.393C45.396,14.223 45.371,14.052 45.311,13.893C45.251,13.734 45.156,13.59 45.034,13.472C44.917,13.36 44.766,13.291 44.605,13.276C44.154,13.252 43.707,13.363 43.319,13.593C43.267,13.624 43.265,13.665 43.263,13.709C43.262,13.718 43.262,13.727 43.261,13.736L43.229,16.912L43.229,17.859C43.229,17.965 43.229,18.012 43.091,18.007L42.086,18.007C41.996,18.007 41.964,18.007 41.964,17.885L41.964,12.461C41.964,12.376 41.964,12.344 42.075,12.344L43.107,12.344C43.192,12.344 43.218,12.344 43.224,12.456C43.224,12.643 43.238,12.836 43.251,13.027C43.256,13.096 43.261,13.165 43.265,13.234ZM26.685,10.539C27.133,10.54 27.58,10.586 28.019,10.677C28.113,10.701 28.205,10.734 28.297,10.767C28.365,10.791 28.433,10.815 28.501,10.836C28.524,10.841 28.545,10.855 28.558,10.874C28.572,10.894 28.578,10.918 28.575,10.942L28.575,12.159C28.575,12.355 28.548,12.355 28.368,12.27C28.291,12.234 28.219,12.197 28.149,12.161L28.149,12.161L28.149,12.161L28.149,12.161L28.149,12.161L28.149,12.161C28.057,12.114 27.967,12.069 27.871,12.027C27.579,11.897 27.264,11.83 26.945,11.83C26.626,11.83 26.31,11.897 26.019,12.027C25.708,12.138 25.442,12.348 25.262,12.625C24.941,13.087 24.758,13.63 24.733,14.192C24.709,14.754 24.844,15.312 25.124,15.8C25.304,16.125 25.567,16.397 25.886,16.588C26.204,16.78 26.568,16.884 26.939,16.89C27.377,16.915 27.816,16.854 28.231,16.71C28.366,16.667 28.504,16.633 28.644,16.61C28.728,16.61 28.765,16.61 28.723,16.71C28.551,17.099 28.338,17.468 28.088,17.811C27.992,17.936 27.852,18.019 27.696,18.044C26.299,18.319 25.013,18.15 23.965,17.091C23.406,16.537 23.077,15.792 23.044,15.006C22.984,14.387 23.018,13.763 23.145,13.154C23.264,12.678 23.482,12.233 23.785,11.847C24.088,11.462 24.468,11.144 24.902,10.915C25.443,10.608 26.066,10.477 26.685,10.539ZM32.936,12.852L32.618,13.307L32.618,13.281L32.618,12.45C32.618,12.355 32.592,12.323 32.491,12.323L31.47,12.323C31.369,12.323 31.343,12.355 31.343,12.45L31.343,17.869C31.343,18.002 31.385,18.002 31.485,18.002L32.475,18.002C32.586,18.007 32.618,17.965 32.618,17.859L32.618,14.985L32.618,13.757C32.613,13.727 32.617,13.696 32.631,13.669C32.644,13.641 32.665,13.619 32.692,13.604C32.999,13.43 33.337,13.317 33.687,13.27C33.813,13.247 33.942,13.249 34.067,13.276C34.192,13.304 34.31,13.356 34.414,13.43C34.518,13.504 34.606,13.599 34.673,13.708C34.74,13.817 34.785,13.938 34.804,14.064C34.852,14.315 34.877,14.57 34.878,14.826C34.904,15.832 34.904,16.842 34.904,17.847L34.904,17.848C34.904,17.965 34.931,18.002 35.052,18.002L36.01,18.002C36.132,18.007 36.158,17.965 36.158,17.848L36.158,16.462C36.154,16.193 36.152,15.924 36.151,15.655L36.151,15.654L36.151,15.654L36.151,15.654L36.151,15.654L36.151,15.654C36.147,15.001 36.144,14.346 36.095,13.694C36.099,13.408 36.015,13.128 35.854,12.892C35.693,12.657 35.463,12.476 35.195,12.376C34.755,12.22 34.284,12.167 33.819,12.222C33.647,12.22 33.478,12.27 33.334,12.364C33.19,12.458 33.077,12.593 33.01,12.752C32.99,12.788 32.965,12.822 32.936,12.852ZM41.52,15.149C41.509,15.04 41.501,14.93 41.492,14.821C41.476,14.602 41.46,14.383 41.424,14.165C41.372,13.817 41.241,13.486 41.042,13.196C40.843,12.906 40.581,12.665 40.275,12.49C39.97,12.316 39.629,12.214 39.278,12.19C38.927,12.167 38.575,12.223 38.249,12.355C37.882,12.496 37.554,12.723 37.291,13.015C37.028,13.307 36.837,13.658 36.735,14.038C36.574,14.616 36.537,15.222 36.624,15.816C36.658,16.279 36.822,16.724 37.098,17.098C37.373,17.473 37.748,17.762 38.18,17.933C38.898,18.226 39.694,18.27 40.44,18.06C40.616,18.015 40.769,17.905 40.869,17.753C41.026,17.518 41.161,17.268 41.271,17.007C41.271,16.996 41.275,16.985 41.28,16.974C41.289,16.951 41.299,16.927 41.271,16.906C41.243,16.885 41.222,16.892 41.2,16.899C41.189,16.902 41.178,16.906 41.165,16.906L41.022,16.959C40.579,17.129 40.104,17.203 39.63,17.176C39.312,17.172 39.002,17.077 38.735,16.903C38.469,16.728 38.258,16.482 38.127,16.192C38.027,15.948 37.962,15.692 37.937,15.43L37.937,15.43C37.937,15.313 37.937,15.297 38.058,15.297L41.398,15.297L41.413,15.293C41.501,15.27 41.525,15.264 41.52,15.149ZM39.837,14.392L39.149,14.392L38.254,14.392C38,14.392 37.958,14.329 38.027,14.08C38.1,13.854 38.23,13.65 38.404,13.488C38.578,13.326 38.791,13.211 39.022,13.154C39.283,13.128 39.545,13.2 39.757,13.357C39.968,13.513 40.113,13.743 40.165,14.001L40.165,14.001L40.165,14.001L40.165,14.001C40.202,14.196 40.22,14.294 40.18,14.343C40.139,14.392 40.038,14.392 39.837,14.392L39.837,14.392ZM54.376,12.866C54.599,13.145 54.725,13.49 54.734,13.847C54.766,15.197 54.792,16.541 54.777,17.891C54.777,17.996 54.745,18.023 54.644,18.023L53.697,18.023C53.602,18.023 53.549,17.996 53.549,17.901C53.534,17.767 53.509,17.636 53.482,17.498L53.482,17.498L53.482,17.498L53.482,17.498L53.482,17.497C53.471,17.439 53.459,17.38 53.448,17.319C53.325,17.418 53.226,17.542 53.157,17.684C53.068,17.863 52.921,18.006 52.741,18.093C52.561,18.179 52.357,18.203 52.162,18.161C51.975,18.147 51.789,18.117 51.607,18.071C51.227,17.991 50.892,17.772 50.667,17.456C50.442,17.14 50.345,16.751 50.395,16.366C50.391,15.938 50.548,15.524 50.833,15.205C51.119,14.886 51.514,14.685 51.94,14.641C52.4,14.558 52.865,14.512 53.332,14.504C53.448,14.493 53.48,14.445 53.48,14.345L53.48,14.038C53.451,13.82 53.346,13.62 53.185,13.471C53.024,13.322 52.815,13.234 52.596,13.223C52.187,13.188 51.776,13.242 51.39,13.382L50.966,13.503C50.892,13.525 50.855,13.498 50.892,13.419C51.041,13.102 51.218,12.799 51.421,12.514C51.507,12.412 51.628,12.345 51.76,12.328C52.329,12.19 52.923,12.181 53.496,12.302C53.843,12.389 54.152,12.587 54.376,12.866ZM53.489,16.919C53.5,16.901 53.504,16.879 53.501,16.859L53.469,16.224C53.469,16.188 53.474,16.157 53.478,16.126C53.486,16.064 53.494,16.003 53.469,15.911C53.454,15.854 53.461,15.789 53.469,15.726L53.469,15.726C53.479,15.637 53.488,15.553 53.432,15.504C53.361,15.44 53.244,15.448 53.13,15.456C53.093,15.459 53.055,15.461 53.02,15.461C52.655,15.423 52.29,15.525 51.998,15.747C51.868,15.862 51.775,16.013 51.73,16.18C51.686,16.348 51.693,16.525 51.749,16.689C51.795,16.823 51.881,16.939 51.994,17.023C52.107,17.107 52.243,17.155 52.385,17.16C52.75,17.202 53.119,17.132 53.443,16.959C53.462,16.951 53.479,16.937 53.489,16.919ZM30.58,15.186L30.58,17.87L30.58,17.87C30.58,17.986 30.58,18.028 30.438,18.023L29.533,18.023C29.332,18.023 29.31,17.981 29.31,17.785L29.31,14.546L29.31,12.567C29.31,12.434 29.353,12.397 29.474,12.387C29.7,12.369 29.924,12.375 30.147,12.381C30.258,12.384 30.369,12.387 30.48,12.387C30.583,12.387 30.58,12.44 30.576,12.498C30.576,12.508 30.575,12.519 30.575,12.53L30.58,15.186Z" clip-rule="evenodd" fill-rule="evenodd" fill="#A52627"/>
<path d="M31.083,10.508C31.08,10.724 31.013,10.935 30.891,11.113C30.769,11.291 30.597,11.429 30.396,11.509C30.196,11.59 29.976,11.609 29.764,11.565C29.553,11.521 29.359,11.415 29.208,11.262C29.056,11.108 28.953,10.912 28.912,10.7C28.871,10.488 28.894,10.269 28.977,10.07C29.061,9.87 29.201,9.7 29.381,9.581C29.561,9.461 29.772,9.397 29.988,9.397C30.133,9.396 30.277,9.425 30.412,9.48C30.546,9.536 30.668,9.618 30.77,9.722C30.872,9.825 30.952,9.948 31.006,10.083C31.06,10.218 31.086,10.363 31.083,10.508Z" fill="#EAEAEA"/>
<path d="M3.368,21.727C3.368,21.29 3.383,20.852 3.398,20.414L3.398,20.414L3.398,20.414L3.398,20.414L3.398,20.414L3.398,20.414C3.406,20.164 3.415,19.914 3.421,19.663C3.421,19.542 3.463,19.505 3.585,19.505C3.62,19.505 3.651,19.504 3.679,19.504C3.8,19.503 3.859,19.502 3.886,19.531C3.912,19.558 3.911,19.611 3.909,19.714L3.909,19.714L3.909,19.714L3.909,19.714L3.909,19.714C3.908,19.748 3.908,19.787 3.908,19.833C3.908,20.161 3.9,20.487 3.893,20.814L3.893,20.814L3.893,20.814L3.893,20.814L3.893,20.814L3.893,20.814C3.882,21.263 3.872,21.711 3.881,22.161C3.881,22.28 3.892,22.399 3.913,22.516C3.933,22.652 3.995,22.778 4.09,22.878C4.184,22.977 4.307,23.045 4.442,23.072C4.489,23.084 4.532,23.107 4.57,23.138C4.607,23.169 4.636,23.208 4.657,23.252C4.677,23.296 4.687,23.344 4.687,23.392C4.686,23.441 4.675,23.489 4.654,23.532C4.643,23.557 4.623,23.577 4.599,23.589C4.575,23.602 4.548,23.606 4.522,23.601C4.374,23.603 4.227,23.576 4.09,23.521C3.952,23.466 3.827,23.385 3.722,23.282C3.616,23.178 3.532,23.055 3.474,22.919C3.416,22.783 3.385,22.637 3.384,22.49L3.368,21.727ZM19.901,19.647C19.901,19.542 19.943,19.505 20.044,19.505C20.084,19.505 20.119,19.504 20.152,19.504C20.304,19.503 20.373,19.502 20.403,19.536C20.427,19.564 20.424,19.615 20.419,19.709L20.419,19.709L20.419,19.709L20.419,19.709L20.419,19.709L20.419,19.709L20.419,19.709L20.419,19.709C20.417,19.751 20.415,19.8 20.414,19.859C20.41,20.227 20.399,20.594 20.389,20.962C20.375,21.451 20.361,21.941 20.361,22.431C20.318,22.807 20.133,23.152 19.844,23.395C19.554,23.638 19.183,23.761 18.805,23.738C18.554,23.69 18.319,23.579 18.122,23.415C17.926,23.252 17.774,23.041 17.68,22.802C17.587,22.564 17.556,22.306 17.59,22.052C17.624,21.798 17.722,21.557 17.874,21.352C18.057,21.077 18.336,20.881 18.656,20.802C18.976,20.723 19.314,20.766 19.604,20.923L19.604,20.923C19.752,20.997 19.826,21.034 19.863,21.011C19.901,20.988 19.901,20.903 19.901,20.732L19.901,20.732L19.901,20.283L19.901,19.647ZM19.2,23.164C19.371,23.115 19.522,23.012 19.631,22.87C19.775,22.74 19.868,22.563 19.896,22.371C19.923,22.178 19.881,21.982 19.779,21.817C19.712,21.667 19.605,21.538 19.47,21.445C19.334,21.351 19.176,21.297 19.012,21.288C18.793,21.299 18.584,21.384 18.42,21.528C18.256,21.673 18.145,21.869 18.106,22.084C18.068,22.3 18.103,22.522 18.207,22.715C18.311,22.908 18.477,23.059 18.678,23.146C18.846,23.207 19.028,23.214 19.2,23.164ZM14.169,21.239C14.376,21.467 14.506,21.755 14.54,22.061C14.595,22.418 14.517,22.783 14.319,23.086C14.122,23.389 13.82,23.608 13.471,23.702C13.288,23.741 13.099,23.743 12.915,23.707C12.731,23.671 12.557,23.597 12.403,23.491C12.249,23.385 12.118,23.249 12.018,23.09C11.919,22.931 11.853,22.754 11.825,22.569C11.761,21.992 11.761,21.405 11.761,20.934L11.761,20.934L11.761,19.685C11.761,19.558 11.793,19.505 11.936,19.505L11.949,19.505C12.125,19.51 12.203,19.512 12.236,19.552C12.263,19.583 12.262,19.637 12.26,19.735C12.259,19.763 12.259,19.796 12.259,19.833C12.259,19.94 12.255,20.048 12.251,20.156L12.251,20.156C12.242,20.373 12.234,20.591 12.259,20.807C12.275,20.976 12.301,20.997 12.46,20.939C12.749,20.806 13.07,20.755 13.386,20.791C13.688,20.854 13.962,21.01 14.169,21.239ZM13.862,22.827C13.955,22.684 14.007,22.518 14.01,22.347L14.032,22.347C14.054,22.211 14.046,22.072 14.007,21.94C13.969,21.808 13.901,21.686 13.809,21.584C13.717,21.482 13.603,21.402 13.476,21.35C13.348,21.298 13.211,21.275 13.074,21.283C12.841,21.318 12.628,21.438 12.478,21.619C12.328,21.801 12.25,22.032 12.259,22.267C12.26,22.414 12.296,22.559 12.364,22.689C12.431,22.82 12.528,22.933 12.647,23.019C12.765,23.105 12.903,23.163 13.048,23.187C13.193,23.211 13.341,23.2 13.481,23.156C13.636,23.084 13.768,22.97 13.862,22.827ZM9.618,22.431C9.449,22.389 9.274,22.431 9.232,22.553C9.188,22.69 9.114,22.815 9.015,22.92C8.917,23.024 8.795,23.105 8.661,23.156C8.527,23.206 8.382,23.226 8.239,23.214C8.096,23.201 7.958,23.156 7.834,23.082C7.692,23.003 7.692,22.955 7.834,22.844C7.88,22.802 7.927,22.763 7.977,22.728C8.288,22.503 8.614,22.3 8.939,22.097C9.074,22.013 9.209,21.929 9.343,21.844C9.687,21.632 9.692,21.627 9.443,21.315C9.29,21.114 9.084,20.961 8.849,20.872C8.613,20.783 8.357,20.762 8.11,20.812C7.874,20.842 7.652,20.941 7.473,21.098C7.294,21.254 7.165,21.46 7.104,21.69C7.034,21.936 7,22.191 7.004,22.447C7.008,22.642 7.058,22.833 7.15,23.005C7.242,23.177 7.373,23.325 7.533,23.437C7.657,23.561 7.807,23.656 7.973,23.715C8.139,23.774 8.316,23.794 8.491,23.775C8.777,23.737 9.045,23.617 9.264,23.429C9.483,23.241 9.643,22.994 9.724,22.717L9.726,22.701C9.741,22.562 9.75,22.472 9.618,22.431ZM7.427,22.225C7.433,22.073 7.476,21.925 7.55,21.793C7.625,21.66 7.729,21.548 7.856,21.464C7.982,21.379 8.127,21.326 8.278,21.309C8.428,21.291 8.581,21.309 8.724,21.362C8.776,21.362 8.84,21.399 8.851,21.468C8.859,21.522 8.819,21.546 8.78,21.57L8.78,21.57L8.78,21.57L8.78,21.57L8.78,21.57L8.78,21.57L8.78,21.57C8.77,21.576 8.759,21.583 8.75,21.59C8.375,21.846 7.986,22.08 7.586,22.294C7.469,22.352 7.427,22.331 7.427,22.225ZM4.998,21.061C4.924,20.876 4.802,20.775 4.622,20.775C4.41,20.775 4.379,20.817 4.447,21.034C4.717,21.844 5.03,22.639 5.384,23.416C5.411,23.481 5.45,23.541 5.501,23.591C5.527,23.626 5.562,23.654 5.601,23.674C5.641,23.693 5.684,23.704 5.728,23.704C5.772,23.704 5.816,23.693 5.855,23.674C5.895,23.654 5.929,23.626 5.956,23.591C6.034,23.491 6.1,23.383 6.151,23.268C6.267,23.02 6.367,22.765 6.453,22.506C6.548,22.241 6.645,21.977 6.742,21.712L6.742,21.712C6.838,21.447 6.935,21.183 7.03,20.918C7.078,20.786 7.067,20.786 6.924,20.786L6.628,20.786C6.58,20.785 6.533,20.801 6.495,20.831C6.457,20.86 6.431,20.903 6.421,20.95C6.298,21.34 6.172,21.728 6.044,22.117L5.95,22.405C5.924,22.485 5.882,22.59 5.86,22.643L5.86,22.643L5.852,22.666C5.834,22.715 5.813,22.771 5.749,22.776C5.684,22.78 5.668,22.744 5.64,22.682L5.628,22.654C5.591,22.575 5.559,22.49 5.527,22.405L5.527,22.405L5.527,22.405L5.527,22.405L5.527,22.405L5.527,22.405L5.527,22.405L5.527,22.405C5.353,21.994 5.197,21.584 5.042,21.177L4.998,21.061ZM2.069,21.023C2.074,20.993 2.073,20.963 2.066,20.934C2.066,20.717 2.018,20.669 1.828,20.685C1.61,20.701 1.403,20.786 1.238,20.929C1.073,21.073 0.959,21.265 0.912,21.479C0.889,21.575 0.872,21.672 0.859,21.77C0.846,21.872 0.837,21.974 0.828,22.077C0.814,22.252 0.799,22.427 0.759,22.601C0.742,22.735 0.681,22.86 0.585,22.956C0.489,23.052 0.364,23.113 0.229,23.13L0.118,23.167C-0.005,23.208 -0.002,23.305 0.001,23.402C0.001,23.417 0.002,23.432 0.002,23.447C0.002,23.473 0.007,23.498 0.017,23.521C0.027,23.544 0.042,23.565 0.06,23.582C0.078,23.6 0.1,23.613 0.124,23.622C0.147,23.63 0.173,23.634 0.198,23.633C0.426,23.641 0.649,23.572 0.833,23.437C1.061,23.249 1.215,22.987 1.267,22.696C1.312,22.475 1.333,22.25 1.33,22.024C1.362,21.638 1.447,21.304 1.891,21.204C1.921,21.198 1.949,21.186 1.974,21.17C1.999,21.153 2.02,21.131 2.036,21.106C2.053,21.081 2.064,21.052 2.069,21.023ZM16.074,22.68C16.062,22.305 16.084,21.93 16.138,21.558C16.18,21.307 16.314,21.08 16.515,20.923C16.716,20.766 16.969,20.691 17.223,20.711C17.371,20.711 17.408,20.759 17.413,20.928C17.419,21.098 17.382,21.188 17.233,21.204C17.163,21.198 17.091,21.206 17.024,21.229C16.957,21.251 16.894,21.287 16.841,21.334C16.788,21.381 16.744,21.438 16.714,21.502C16.683,21.566 16.665,21.635 16.662,21.706C16.597,22.02 16.567,22.339 16.572,22.659L16.572,23.479C16.572,23.596 16.53,23.633 16.413,23.633C16.377,23.633 16.346,23.633 16.317,23.633C16.189,23.635 16.128,23.635 16.1,23.605C16.073,23.577 16.073,23.524 16.074,23.421C16.075,23.385 16.075,23.343 16.074,23.294L16.074,22.68ZM10.131,21.627C10.08,22.001 10.061,22.378 10.073,22.754L10.073,23.294C10.074,23.338 10.073,23.376 10.073,23.408L10.073,23.408C10.073,23.505 10.072,23.555 10.097,23.581C10.124,23.609 10.181,23.608 10.299,23.607C10.328,23.607 10.36,23.606 10.396,23.606C10.528,23.612 10.565,23.559 10.565,23.432C10.572,22.938 10.588,22.446 10.613,21.955C10.602,21.766 10.664,21.58 10.786,21.436C10.908,21.291 11.081,21.199 11.269,21.177C11.305,21.176 11.338,21.161 11.363,21.135C11.388,21.109 11.401,21.075 11.401,21.04C11.407,20.964 11.407,20.888 11.401,20.812C11.401,20.795 11.397,20.779 11.39,20.764C11.383,20.749 11.373,20.735 11.36,20.724C11.348,20.712 11.334,20.704 11.318,20.698C11.302,20.692 11.286,20.69 11.269,20.69C11.087,20.663 10.901,20.696 10.74,20.786C10.584,20.873 10.448,20.994 10.343,21.139C10.238,21.285 10.166,21.451 10.131,21.627ZM15.064,22.178L15.064,20.934C15.064,20.812 15.101,20.765 15.228,20.77C15.268,20.77 15.304,20.769 15.335,20.769C15.461,20.768 15.522,20.767 15.55,20.797C15.577,20.825 15.576,20.88 15.573,20.985C15.573,21.022 15.572,21.064 15.572,21.114L15.572,23.416C15.572,23.601 15.572,23.607 15.381,23.601C15.338,23.601 15.301,23.602 15.269,23.602C15.162,23.604 15.109,23.605 15.083,23.579C15.058,23.554 15.058,23.502 15.059,23.399C15.059,23.365 15.059,23.325 15.058,23.278L15.064,22.178ZM2.32,20.955L2.32,22.188L2.368,23.289C2.368,23.612 2.368,23.612 2.675,23.576C2.68,23.576 2.685,23.575 2.69,23.574C2.786,23.569 2.828,23.527 2.828,23.437L2.828,22.844L2.828,21.103C2.836,20.911 2.846,20.827 2.81,20.792C2.773,20.756 2.689,20.77 2.505,20.77C2.357,20.764 2.32,20.817 2.32,20.955Z" clip-rule="evenodd" fill-rule="evenodd" fill="#EAEAEA"/>
<path d="M15.339,20.415C15.299,20.416 15.259,20.41 15.221,20.395C15.184,20.381 15.15,20.36 15.121,20.332C15.091,20.305 15.068,20.271 15.052,20.235C15.036,20.198 15.027,20.159 15.027,20.118C15.029,20.08 15.04,20.041 15.057,20.007C15.074,19.972 15.099,19.94 15.128,19.915C15.158,19.889 15.192,19.87 15.229,19.858C15.266,19.845 15.305,19.84 15.344,19.843C15.382,19.84 15.42,19.845 15.456,19.858C15.492,19.871 15.524,19.892 15.551,19.918C15.578,19.945 15.599,19.977 15.613,20.012C15.627,20.048 15.632,20.086 15.63,20.124C15.632,20.163 15.626,20.201 15.612,20.238C15.599,20.274 15.577,20.307 15.55,20.335C15.522,20.362 15.489,20.384 15.453,20.397C15.417,20.411 15.378,20.417 15.339,20.415Z" fill="#EAEAEA"/>
<path d="M2.59,19.849C2.764,19.849 2.876,19.939 2.876,20.087C2.878,20.17 2.848,20.251 2.792,20.313C2.736,20.374 2.657,20.411 2.574,20.415C2.537,20.413 2.502,20.404 2.469,20.387C2.436,20.371 2.407,20.349 2.384,20.321C2.36,20.293 2.342,20.261 2.331,20.226C2.32,20.191 2.316,20.155 2.32,20.118C2.315,20.082 2.318,20.044 2.33,20.009C2.341,19.974 2.361,19.942 2.387,19.916C2.413,19.89 2.445,19.87 2.481,19.858C2.516,19.847 2.553,19.843 2.59,19.849Z" fill="#EAEAEA"/>
<path d="M47.727,6.407C47.682,6.458 47.619,6.491 47.551,6.499C47.483,6.508 47.414,6.492 47.357,6.454C47.267,6.401 47.357,6.322 47.357,6.248C47.357,6.174 47.325,6.248 47.315,6.248C47.225,6.386 47.029,6.433 46.986,6.613L46.732,6.857C46.605,6.904 46.648,6.809 46.658,6.761C46.708,6.526 46.779,6.296 46.87,6.073C46.896,5.994 46.928,5.92 46.955,5.84C47.018,5.65 46.955,5.592 46.759,5.581C46.61,5.556 46.474,5.482 46.372,5.369C46.214,5.179 46.145,5.168 45.954,5.338C45.891,5.396 45.838,5.481 45.732,5.486C45.763,5.378 45.803,5.274 45.854,5.174C46.005,4.87 46.11,4.545 46.166,4.21C46.225,4.026 46.225,3.828 46.166,3.644C45.993,3.501 45.803,3.38 45.6,3.284C45.444,3.156 45.276,3.044 45.097,2.951C44.882,2.798 44.655,2.662 44.42,2.543C44.393,2.496 44.346,2.485 44.303,2.459C44.171,2.459 44.028,2.485 43.885,2.363C44.007,2.363 44.097,2.411 44.187,2.363C43.984,2.273 43.758,2.249 43.541,2.295C42.993,2.419 42.473,2.643 42.006,2.956C41.781,3.082 41.564,3.222 41.355,3.374C41.075,3.559 40.826,3.761 40.54,3.972C40.011,4.364 39.54,4.782 39.064,5.221L38.979,5.295C38.45,5.766 37.963,6.243 37.482,6.745C37.222,7.015 36.952,7.275 36.698,7.56L35.666,8.651C35.629,8.693 35.566,8.73 35.666,8.793C35.852,8.942 36.031,9.09 36.233,9.222C36.245,9.233 36.259,9.241 36.275,9.246C36.291,9.25 36.307,9.251 36.323,9.249C36.34,9.246 36.355,9.24 36.369,9.231C36.382,9.222 36.394,9.21 36.402,9.196C36.518,9.058 36.645,8.931 36.762,8.793C36.774,8.773 36.79,8.756 36.81,8.743C36.829,8.73 36.851,8.721 36.874,8.717C36.897,8.713 36.921,8.714 36.943,8.72C36.966,8.726 36.987,8.736 37.005,8.751C37.423,8.984 37.847,9.212 38.27,9.439L39.175,9.937C39.27,9.99 39.286,10.042 39.217,10.122C39.149,10.201 39.138,10.228 39.09,10.275C39.043,10.323 39,10.413 39.117,10.466C39.233,10.519 39.366,10.603 39.493,10.672C39.826,10.852 39.831,10.857 40.059,10.545C40.694,9.693 41.318,8.841 41.943,7.984C42.039,7.888 42.126,7.784 42.202,7.672C42.774,6.931 43.356,6.195 43.965,5.486C44.002,5.444 44.023,5.369 44.102,5.385C43.954,5.756 43.79,6.11 43.668,6.486C43.589,6.655 43.531,6.833 43.494,7.015C43.461,7.098 43.462,7.189 43.496,7.271C43.529,7.353 43.593,7.418 43.673,7.455L43.737,7.507C43.769,7.534 43.795,7.566 43.843,7.566L43.875,7.539C43.964,7.563 44.047,7.605 44.12,7.663C44.193,7.72 44.253,7.791 44.298,7.873C44.304,7.903 44.313,7.933 44.324,7.963C44.362,7.988 44.397,8.016 44.43,8.047C44.589,8.195 44.658,8.195 44.838,8.047C44.894,8.016 44.946,7.977 44.991,7.931C45.321,7.599 45.629,7.245 45.912,6.872C45.97,6.804 46.007,6.788 46.055,6.872C46.103,6.957 46.245,7.021 46.357,7.052C46.468,7.084 46.537,7.105 46.621,7.132C46.706,7.158 46.843,7.264 46.955,7.19C47.066,7.116 47.135,7.1 47.219,7.042C47.383,6.915 47.536,6.773 47.674,6.618C47.717,6.557 47.736,6.481 47.727,6.407ZM36.439,8.656C36.352,8.629 36.269,8.588 36.196,8.534C36.192,8.526 36.19,8.517 36.19,8.508C36.19,8.499 36.192,8.49 36.196,8.481C36.243,8.402 36.301,8.307 36.391,8.296C36.443,8.295 36.495,8.307 36.541,8.331C36.587,8.355 36.627,8.39 36.656,8.434C36.682,8.481 36.529,8.651 36.439,8.656ZM45.843,5.846C45.785,5.793 45.79,5.766 45.843,5.692L45.907,5.629C45.991,5.629 46.044,5.666 46.108,5.698C46.171,5.729 46.108,5.729 46.108,5.75C46.103,5.808 46.087,5.864 46.06,5.915C46.051,5.931 46.038,5.945 46.023,5.957L45.886,5.893L45.843,5.846ZM45.081,6.063L44.938,6.354C44.891,6.46 44.827,6.518 44.716,6.423C44.68,6.401 44.64,6.385 44.6,6.375L44.25,6.142C44.166,6.089 44.139,6.036 44.187,5.941L44.361,5.56C44.388,5.496 44.425,5.491 44.478,5.528C44.679,5.66 44.901,5.745 45.097,5.888C45.15,5.957 45.108,6.01 45.081,6.063ZM43.785,7.333C43.737,7.272 43.711,7.196 43.711,7.118C43.711,7.041 43.737,6.965 43.785,6.904C43.827,6.872 43.859,6.904 43.885,6.904C43.912,6.904 44.065,7.031 44.15,7.095C44.054,7.208 43.927,7.291 43.785,7.333ZM43.933,5.041C43.901,4.994 43.795,4.988 43.848,4.904C43.901,4.819 43.97,4.867 44.044,4.904C44.118,4.941 44.123,5.004 44.044,5.068L44.002,5.068L43.949,5.068L43.933,5.041ZM41.138,7.333C40.609,7.068 40.117,6.804 39.614,6.502C39.493,6.438 39.376,6.364 39.26,6.296C39.143,6.227 39.17,6.211 39.26,6.142C39.424,5.983 39.577,5.825 39.736,5.66C39.889,5.535 40.03,5.397 40.159,5.248C40.179,5.24 40.197,5.23 40.212,5.216C40.274,5.166 40.329,5.109 40.376,5.047C40.393,5.022 40.415,5.002 40.44,4.986C40.465,4.97 40.493,4.96 40.522,4.955C40.551,4.951 40.581,4.952 40.61,4.96C40.639,4.967 40.665,4.981 40.689,4.999L41.361,5.391L41.488,5.475L42.382,6.004C42.472,6.052 42.499,6.1 42.419,6.184C42.34,6.269 42.308,6.317 42.255,6.386L42.197,6.454C41.938,6.724 41.715,7.021 41.472,7.306C41.318,7.449 41.329,7.444 41.138,7.333ZM42.991,5.518L42.938,5.581L42.901,5.623C42.758,5.782 42.758,5.782 42.578,5.682L41.578,5.121L40.948,4.75C40.8,4.666 40.8,4.655 40.948,4.539C41.096,4.422 41.223,4.337 41.345,4.21L41.392,4.157L41.498,4.073L41.535,4.041C41.653,3.971 41.765,3.892 41.869,3.803C41.896,3.782 41.93,3.771 41.964,3.771C41.998,3.771 42.032,3.782 42.059,3.803L43.61,4.703C43.7,4.756 43.689,4.798 43.61,4.861C43.388,5.084 43.171,5.29 42.98,5.528L42.991,5.518ZM43.652,4.427C43.377,4.226 43.044,4.11 42.768,3.898L42.652,3.824C42.536,3.755 42.419,3.681 42.297,3.618C42.176,3.554 42.207,3.517 42.297,3.464L42.409,3.38C42.589,3.268 42.758,3.147 42.938,3.046C42.971,3.026 43.01,3.015 43.049,3.015C43.088,3.015 43.127,3.026 43.16,3.046L44.42,3.803C44.568,3.893 44.568,3.935 44.42,4.046C44.271,4.157 44.256,4.205 44.171,4.284C44.142,4.304 44.115,4.327 44.092,4.353L44.049,4.401C43.927,4.586 43.785,4.549 43.642,4.438L43.652,4.427ZM45.859,3.761C45.859,3.845 45.859,3.93 45.859,4.009C45.859,4.089 45.79,4.115 45.716,4.073L45.494,3.956L45.526,3.925L45.563,3.882L45.785,3.734L45.838,3.734C45.838,3.734 45.843,3.729 45.849,3.771L45.859,3.761ZM45.743,5.1L45.674,5.068C45.674,5.031 45.674,4.983 45.722,4.978C45.735,4.976 45.748,4.978 45.76,4.985C45.771,4.992 45.78,5.002 45.785,5.015C45.79,5.073 45.769,5.094 45.732,5.11L45.743,5.1ZM45.298,3.628C45.325,3.627 45.353,3.635 45.376,3.649C45.399,3.663 45.418,3.683 45.43,3.708C45.43,3.755 45.43,3.755 45.372,3.761L45.261,3.686C45.224,3.655 45.245,3.628 45.288,3.628L45.298,3.628ZM44.811,4.083C44.811,4.052 44.811,4.02 44.864,4.03C44.889,4.034 44.912,4.044 44.933,4.059C44.953,4.074 44.969,4.093 44.981,4.115C44.981,4.163 44.944,4.179 44.907,4.168C44.883,4.171 44.859,4.165 44.839,4.152C44.82,4.138 44.806,4.117 44.801,4.094L44.811,4.083ZM44.727,3.597C44.695,3.597 44.674,3.597 44.674,3.544C44.674,3.491 44.674,3.496 44.716,3.501C44.73,3.504 44.743,3.511 44.753,3.521C44.762,3.532 44.768,3.545 44.769,3.559C44.758,3.597 44.748,3.628 44.716,3.628L44.727,3.597ZM44.727,3.395C44.718,3.395 44.71,3.394 44.702,3.391C44.695,3.387 44.688,3.383 44.682,3.377C44.676,3.371 44.671,3.364 44.668,3.356C44.665,3.349 44.663,3.34 44.663,3.332C44.663,3.332 44.663,3.3 44.7,3.3C44.716,3.301 44.732,3.307 44.744,3.318C44.757,3.328 44.765,3.342 44.769,3.358C44.78,3.401 44.758,3.417 44.732,3.406L44.727,3.395ZM44.335,4.406C44.341,4.399 44.348,4.393 44.356,4.388C44.364,4.384 44.373,4.381 44.383,4.38C44.393,4.376 44.404,4.376 44.414,4.38C44.417,4.396 44.417,4.412 44.414,4.427C44.407,4.451 44.392,4.471 44.372,4.486L44.319,4.449C44.324,4.436 44.331,4.426 44.34,4.417L44.335,4.406ZM44.928,3.877C44.928,3.877 44.959,3.84 44.981,3.851C45.002,3.861 45.108,3.893 45.134,3.956C45.161,4.02 45.092,4.009 45.065,3.993C45.039,3.978 44.938,3.978 44.933,3.898L44.928,3.877ZM45.081,3.734C45.121,3.725 45.163,3.729 45.201,3.746C45.238,3.764 45.269,3.793 45.288,3.829C45.203,3.872 45.155,3.824 45.086,3.755L45.081,3.734ZM45.081,3.528L45.034,3.559C44.991,3.585 44.95,3.613 44.912,3.644C44.91,3.628 44.91,3.612 44.912,3.597C44.88,3.498 44.88,3.393 44.912,3.295L44.912,3.231L45.076,3.337C45.213,3.448 45.213,3.448 45.081,3.549L45.081,3.528ZM44.166,4.586C44.213,4.586 44.245,4.586 44.287,4.618L44.34,4.676C44.331,4.699 44.316,4.719 44.296,4.733C44.275,4.747 44.251,4.755 44.226,4.755C44.202,4.755 44.178,4.747 44.157,4.733C44.137,4.719 44.121,4.699 44.113,4.676C44.065,4.655 44.118,4.634 44.166,4.618L44.166,4.586ZM44.473,5.211C44.503,5.048 44.554,4.889 44.626,4.74C44.634,4.725 44.643,4.711 44.653,4.697C44.683,4.684 44.716,4.68 44.749,4.685C44.782,4.689 44.812,4.703 44.838,4.724L45.33,4.994C45.355,5.003 45.379,5.018 45.399,5.036C45.473,5.089 45.478,5.168 45.425,5.269C45.365,5.393 45.312,5.52 45.266,5.65C45.24,5.719 45.198,5.735 45.139,5.692L44.515,5.306C44.503,5.3 44.493,5.291 44.486,5.28C44.478,5.268 44.474,5.256 44.473,5.242L44.473,5.211ZM45.425,5.602C45.425,5.576 45.425,5.56 45.462,5.555C45.499,5.549 45.536,5.555 45.536,5.623C45.537,5.629 45.537,5.634 45.535,5.639C45.534,5.644 45.531,5.649 45.528,5.653C45.524,5.657 45.52,5.66 45.515,5.663C45.51,5.665 45.505,5.666 45.499,5.666C45.485,5.67 45.47,5.669 45.457,5.663C45.443,5.657 45.432,5.647 45.425,5.634L45.425,5.602ZM45.425,5.803C45.425,5.84 45.425,5.856 45.372,5.872C45.358,5.869 45.345,5.861 45.335,5.849C45.326,5.838 45.32,5.824 45.319,5.809C45.319,5.772 45.319,5.75 45.367,5.756C45.415,5.761 45.43,5.803 45.43,5.835L45.425,5.803ZM45.568,5.475C45.531,5.475 45.494,5.443 45.505,5.396C45.504,5.39 45.505,5.384 45.507,5.378C45.509,5.373 45.513,5.368 45.518,5.365C45.523,5.362 45.529,5.36 45.535,5.36C45.541,5.36 45.547,5.361 45.552,5.364C45.589,5.364 45.626,5.391 45.616,5.438C45.605,5.486 45.6,5.512 45.573,5.507L45.568,5.475ZM45.568,5.216C45.567,5.207 45.568,5.199 45.571,5.191C45.574,5.183 45.579,5.175 45.585,5.169C45.591,5.163 45.598,5.158 45.606,5.156C45.614,5.153 45.623,5.152 45.632,5.152C45.652,5.153 45.672,5.161 45.687,5.175C45.702,5.188 45.713,5.206 45.716,5.227C45.716,5.264 45.679,5.269 45.653,5.269C45.626,5.269 45.573,5.29 45.568,5.248L45.568,5.216ZM45.732,4.364C45.684,4.512 45.642,4.66 45.6,4.808C45.557,4.957 45.526,4.898 45.452,4.856C45.288,4.761 45.118,4.666 44.949,4.581C44.78,4.496 44.859,4.486 44.949,4.422C45.039,4.359 45.018,4.348 45.055,4.311L45.314,4.083L45.346,4.083L45.679,4.269C45.703,4.279 45.721,4.298 45.731,4.322C45.741,4.345 45.741,4.372 45.732,4.396L45.732,4.364ZM45.356,3.538C45.399,3.525 45.446,3.528 45.486,3.547C45.527,3.565 45.56,3.598 45.579,3.639C45.504,3.64 45.431,3.615 45.372,3.57L45.356,3.538ZM44.541,3.057C44.58,3.231 44.58,3.412 44.541,3.586C44.539,3.605 44.539,3.625 44.541,3.644L43.356,2.93C43.324,2.93 43.266,2.898 43.271,2.845C43.277,2.792 43.329,2.792 43.366,2.771C43.658,2.607 43.949,2.496 44.24,2.797C44.323,2.867 44.415,2.924 44.515,2.967C44.53,3.009 44.539,3.054 44.541,3.099L44.541,3.057ZM46.335,5.851C46.338,5.842 46.338,5.833 46.335,5.825C46.329,5.802 46.329,5.778 46.335,5.756C46.388,5.787 46.473,5.793 46.473,5.888C46.428,5.902 46.379,5.9 46.335,5.883L46.335,5.851ZM46.515,6.153C46.531,6.135 46.543,6.116 46.552,6.094L46.611,6.094C46.618,6.112 46.622,6.131 46.622,6.15C46.622,6.169 46.618,6.188 46.611,6.206C46.611,6.243 46.568,6.28 46.515,6.253C46.462,6.227 46.494,6.221 46.515,6.184L46.515,6.153ZM46.261,5.412L46.584,5.586C46.59,5.601 46.594,5.616 46.594,5.631C46.594,5.647 46.59,5.662 46.584,5.676L46.552,5.676C46.525,5.696 46.493,5.706 46.46,5.706C46.427,5.706 46.394,5.696 46.367,5.676C46.283,5.623 46.193,5.586 46.103,5.533C46.013,5.481 46.007,5.496 46.05,5.433C46.058,5.411 46.073,5.392 46.093,5.379C46.112,5.366 46.136,5.359 46.159,5.361C46.183,5.362 46.206,5.37 46.224,5.385C46.242,5.4 46.255,5.421 46.261,5.443L46.261,5.412ZM45.817,4.856C45.809,4.856 45.801,4.854 45.793,4.851C45.786,4.848 45.779,4.843 45.774,4.837C45.768,4.831 45.764,4.824 45.761,4.816C45.759,4.809 45.758,4.801 45.759,4.793C45.759,4.766 45.759,4.745 45.806,4.756C45.822,4.759 45.836,4.768 45.847,4.78C45.858,4.792 45.864,4.808 45.864,4.824C45.859,4.883 45.843,4.898 45.817,4.888L45.817,4.856ZM45.901,4.687C45.87,4.687 45.838,4.687 45.838,4.629C45.838,4.57 45.838,4.576 45.87,4.581C45.901,4.586 45.933,4.581 45.939,4.639C45.94,4.645 45.941,4.651 45.939,4.657C45.938,4.662 45.936,4.668 45.932,4.672C45.929,4.677 45.924,4.681 45.919,4.683C45.913,4.686 45.907,4.687 45.901,4.687ZM45.944,4.486C45.912,4.486 45.87,4.459 45.88,4.412C45.891,4.364 45.912,4.374 45.939,4.38C45.965,4.385 46.007,4.406 46.013,4.454C46.013,4.464 46.01,4.474 46.005,4.482C45.999,4.49 45.991,4.497 45.982,4.5C45.972,4.504 45.962,4.504 45.952,4.502C45.943,4.499 45.934,4.493 45.928,4.486L45.944,4.486ZM46.044,4.131C46.029,4.132 46.013,4.128 45.999,4.119C45.986,4.111 45.976,4.098 45.97,4.083C45.97,4.052 45.97,4.036 46.002,4.041C46.018,4.042 46.033,4.048 46.046,4.057C46.059,4.067 46.07,4.079 46.076,4.094C46.076,4.094 46.05,4.157 46.028,4.157L46.044,4.131ZM46.092,3.628L46.092,3.66C46.066,3.66 46.124,3.755 46.055,3.739C45.986,3.724 45.944,3.686 45.991,3.607L46.028,3.607C46.046,3.61 46.063,3.617 46.076,3.628L46.092,3.628ZM45.827,3.459C45.833,3.463 45.837,3.468 45.84,3.474C45.843,3.48 45.845,3.487 45.845,3.493C45.845,3.5 45.843,3.507 45.84,3.513C45.837,3.519 45.833,3.524 45.827,3.528C45.753,3.554 45.716,3.501 45.674,3.459C45.693,3.443 45.717,3.434 45.743,3.434C45.768,3.434 45.792,3.443 45.812,3.459L45.827,3.459ZM45.727,3.591C45.626,3.591 45.573,3.559 45.536,3.491C45.6,3.48 45.637,3.522 45.711,3.591L45.727,3.591ZM45.542,3.295L45.573,3.321L45.489,3.321L45.425,3.321L44.896,2.998C44.875,2.989 44.857,2.973 44.844,2.953C44.832,2.934 44.826,2.911 44.827,2.887C45.068,3.009 45.301,3.145 45.526,3.295L45.542,3.295ZM44.398,2.57C44.398,2.628 44.467,2.681 44.467,2.744C44.472,2.762 44.472,2.78 44.467,2.797C44.351,2.702 44.192,2.676 44.065,2.549C44.177,2.541 44.289,2.548 44.398,2.57ZM43.943,2.459C43.837,2.459 43.795,2.427 43.721,2.385C43.832,2.374 43.869,2.427 43.943,2.48L43.943,2.459ZM43.726,2.496C43.636,2.522 43.589,2.496 43.509,2.411C43.552,2.403 43.596,2.409 43.636,2.428C43.675,2.447 43.707,2.478 43.726,2.517L43.726,2.496ZM43.361,2.459C43.391,2.455 43.422,2.459 43.45,2.471C43.478,2.483 43.502,2.503 43.52,2.527C43.52,2.527 43.52,2.554 43.52,2.554C43.52,2.554 43.404,2.527 43.361,2.475L43.361,2.459ZM43.123,2.549C43.135,2.536 43.149,2.527 43.165,2.522C43.196,2.529 43.225,2.541 43.251,2.56C43.276,2.578 43.297,2.601 43.314,2.628C43.229,2.67 43.187,2.628 43.134,2.58C43.081,2.533 43.118,2.57 43.123,2.57L43.123,2.549ZM42.948,2.623C42.978,2.627 43.006,2.637 43.031,2.654C43.056,2.67 43.076,2.692 43.091,2.718C43.091,2.725 43.089,2.731 43.086,2.737C43.082,2.743 43.077,2.748 43.072,2.752C43.066,2.755 43.06,2.757 43.053,2.758C43.046,2.759 43.039,2.758 43.033,2.755C42.97,2.755 42.906,2.723 42.89,2.66C42.874,2.596 42.922,2.639 42.948,2.644L42.948,2.623ZM42.71,2.739C42.742,2.744 42.773,2.756 42.799,2.774C42.826,2.793 42.848,2.817 42.864,2.845C42.864,2.887 42.816,2.903 42.784,2.893C42.753,2.882 42.652,2.856 42.641,2.787C42.631,2.718 42.679,2.755 42.726,2.76L42.71,2.739ZM42.456,2.882C42.516,2.898 42.568,2.933 42.604,2.983C42.603,2.992 42.599,3.002 42.593,3.01C42.587,3.018 42.58,3.025 42.572,3.03C42.563,3.035 42.554,3.038 42.544,3.039C42.534,3.04 42.524,3.039 42.514,3.036C42.456,3.036 42.377,3.009 42.361,2.94C42.345,2.871 42.409,2.893 42.456,2.903L42.456,2.882ZM42.303,3.099C42.35,3.131 42.366,3.163 42.303,3.21L42.271,3.21C42.214,3.213 42.158,3.197 42.112,3.163C42.059,3.126 42.054,3.094 42.08,3.062L42.112,3.036C42.18,3.039 42.246,3.061 42.303,3.099ZM41.821,3.253C41.922,3.221 41.985,3.279 42.049,3.332C42.044,3.348 42.034,3.362 42.021,3.372C42.007,3.383 41.991,3.389 41.975,3.39C41.934,3.393 41.894,3.386 41.857,3.369C41.82,3.353 41.788,3.327 41.763,3.295C41.747,3.305 41.795,3.284 41.821,3.274L41.821,3.253ZM41.525,3.454C41.609,3.454 41.668,3.491 41.736,3.533L41.774,3.533C41.731,3.612 41.673,3.665 41.583,3.607C41.493,3.549 41.419,3.559 41.482,3.448L41.525,3.454ZM41.239,3.681C41.303,3.718 41.403,3.729 41.414,3.819C41.424,3.909 41.361,3.914 41.308,3.903C41.255,3.893 41.144,3.866 41.128,3.776C41.112,3.686 41.181,3.718 41.239,3.702L41.239,3.681ZM40.969,3.983C40.969,3.983 41.006,4.009 41.033,4.025C41.064,4.025 41.091,4.057 41.07,4.11C41.048,4.163 40.974,4.221 40.927,4.184C40.879,4.147 40.752,4.147 40.763,4.046C40.763,4.046 40.763,4.02 40.763,4.004C40.791,3.979 40.828,3.966 40.866,3.966C40.904,3.966 40.94,3.979 40.969,4.004L40.969,3.983ZM40.387,4.327C40.398,4.307 40.413,4.29 40.431,4.278C40.45,4.265 40.471,4.257 40.493,4.254C40.515,4.251 40.537,4.253 40.559,4.26C40.58,4.267 40.599,4.279 40.615,4.295L40.715,4.348C40.718,4.36 40.718,4.373 40.715,4.385C40.715,4.48 40.636,4.512 40.53,4.48L40.498,4.48C40.466,4.438 40.323,4.454 40.387,4.348L40.387,4.327ZM40.001,4.666C40.007,4.645 40.019,4.627 40.035,4.613C40.05,4.599 40.069,4.588 40.089,4.583C40.11,4.578 40.131,4.578 40.152,4.583C40.173,4.588 40.191,4.598 40.207,4.613L40.26,4.613L40.308,4.655C40.355,4.718 40.308,4.745 40.212,4.814L40.181,4.814C40.151,4.8 40.123,4.784 40.096,4.766C40.048,4.787 39.953,4.777 40.001,4.687L40.001,4.666ZM39.588,5.015C39.635,4.972 39.673,4.904 39.752,4.935L39.852,4.988C39.89,5.015 39.964,5.031 39.932,5.1C39.918,5.129 39.896,5.154 39.869,5.172C39.842,5.189 39.811,5.199 39.778,5.2C39.707,5.184 39.641,5.149 39.588,5.1C39.551,5.1 39.551,5.062 39.588,5.036L39.588,5.015ZM39.508,5.433C39.518,5.443 39.524,5.456 39.524,5.47C39.524,5.484 39.518,5.497 39.508,5.507C39.506,5.519 39.506,5.532 39.508,5.544C39.463,5.58 39.406,5.596 39.349,5.59C39.291,5.584 39.239,5.556 39.202,5.512C39.138,5.449 39.202,5.412 39.228,5.364L39.26,5.364C39.305,5.357 39.352,5.362 39.395,5.378C39.439,5.394 39.478,5.42 39.508,5.454L39.508,5.433ZM38.842,5.745C38.888,5.749 38.932,5.763 38.972,5.786C39.013,5.809 39.047,5.84 39.074,5.877C39.027,5.957 38.99,6.047 38.9,6.036C38.81,6.026 38.693,5.983 38.683,5.888C38.672,5.793 38.757,5.745 38.842,5.745ZM38.217,6.317C38.237,6.272 38.274,6.237 38.319,6.219C38.365,6.201 38.416,6.202 38.461,6.221C38.582,6.274 38.619,6.306 38.614,6.348C38.599,6.397 38.568,6.438 38.525,6.464C38.482,6.49 38.431,6.5 38.381,6.491C38.36,6.482 38.34,6.47 38.323,6.454C38.275,6.438 38.18,6.438 38.217,6.338L38.217,6.317ZM38.095,6.756C38.159,6.798 38.159,6.835 38.122,6.894L38.09,6.92C38.064,6.944 38.032,6.962 37.997,6.971C37.963,6.98 37.926,6.982 37.891,6.974C37.856,6.967 37.823,6.952 37.795,6.929C37.767,6.907 37.745,6.879 37.73,6.846C37.728,6.835 37.728,6.825 37.73,6.814C37.905,6.666 37.926,6.661 38.095,6.804L38.095,6.756ZM37.159,7.899C37.142,7.94 37.116,7.977 37.081,8.006C37.047,8.034 37.007,8.054 36.963,8.063C36.882,8.04 36.806,8 36.741,7.947C36.704,7.92 36.714,7.878 36.741,7.846C36.767,7.814 36.841,7.687 36.952,7.724C36.989,7.736 37.023,7.754 37.053,7.777C37.1,7.83 37.201,7.862 37.159,7.92L37.159,7.899ZM37.243,7.322C37.312,7.195 37.402,7.163 37.508,7.216C37.614,7.269 37.635,7.269 37.667,7.328C37.699,7.386 37.497,7.539 37.418,7.507C37.395,7.5 37.374,7.489 37.355,7.476C37.307,7.449 37.185,7.46 37.243,7.333L37.243,7.322ZM39.434,9.476L37.376,8.391C37.259,8.328 37.249,8.275 37.339,8.18L38.323,7.095C38.445,6.968 38.577,6.841 38.699,6.708C38.722,6.677 38.757,6.656 38.795,6.65C38.834,6.644 38.874,6.654 38.905,6.677L40.9,7.772C40.943,7.799 40.98,7.825 40.985,7.878L40.985,7.91L39.757,9.45C39.625,9.598 39.625,9.603 39.434,9.497L39.434,9.476ZM39.757,10.445C39.683,10.445 39.487,10.318 39.487,10.265C39.487,10.212 39.62,10.064 39.683,10.064C39.787,10.083 39.88,10.142 39.942,10.228C39.932,10.279 39.91,10.328 39.878,10.369C39.846,10.41 39.805,10.443 39.757,10.466L39.757,10.445ZM40.212,9.831C40.138,9.831 39.958,9.709 39.958,9.656C39.97,9.612 39.992,9.572 40.023,9.538C40.053,9.504 40.091,9.477 40.133,9.46C40.202,9.46 40.392,9.582 40.392,9.63C40.38,9.678 40.358,9.722 40.327,9.761C40.296,9.799 40.257,9.83 40.212,9.852L40.212,9.831ZM40.646,9.254C40.567,9.254 40.382,9.122 40.398,9.074C40.413,9.026 40.466,8.894 40.572,8.905C40.624,8.905 40.674,8.92 40.718,8.947C40.761,8.974 40.797,9.013 40.821,9.058C40.842,9.122 40.694,9.275 40.646,9.275L40.646,9.254ZM41.064,8.693C40.969,8.656 40.858,8.635 40.821,8.529C40.784,8.423 40.932,8.344 40.99,8.349C41.048,8.354 41.234,8.476 41.234,8.513C41.234,8.55 41.101,8.73 41.064,8.714L41.064,8.693ZM41.594,8.068C41.546,8.132 41.509,8.206 41.392,8.148C41.276,8.09 41.186,8.016 41.308,7.867L41.345,7.825L41.546,7.915L41.578,7.915C41.609,7.989 41.668,8.026 41.588,8.09L41.594,8.068ZM41.837,7.666C41.758,7.666 41.636,7.624 41.631,7.513C41.625,7.402 41.684,7.343 41.779,7.359C41.875,7.377 41.961,7.432 42.017,7.513C41.964,7.613 41.922,7.709 41.832,7.687L41.837,7.666ZM42.218,7.201C42.128,7.201 42.022,7.158 42.006,7.047C42.006,7.012 42.019,6.978 42.042,6.951C42.066,6.925 42.098,6.908 42.133,6.904C42.197,6.904 42.361,7.015 42.356,7.074C42.35,7.132 42.297,7.232 42.197,7.222L42.218,7.201ZM42.636,6.745C42.541,6.814 42.477,6.745 42.409,6.692C42.34,6.64 42.329,6.645 42.356,6.592C42.368,6.566 42.386,6.543 42.407,6.525C42.429,6.507 42.455,6.493 42.483,6.486C42.567,6.5 42.643,6.545 42.694,6.613C42.726,6.687 42.668,6.735 42.631,6.767L42.636,6.745ZM42.874,6.38L42.811,6.343L42.758,6.306C42.716,6.28 42.657,6.253 42.7,6.19C42.742,6.126 42.774,6.079 42.848,6.116C42.922,6.153 42.98,6.158 43.007,6.216C43.015,6.233 43.019,6.252 43.019,6.272C43.019,6.291 43.015,6.31 43.007,6.327L42.874,6.38ZM43.314,5.915C43.31,5.933 43.301,5.951 43.289,5.965C43.276,5.98 43.26,5.991 43.242,5.997C43.224,6.004 43.204,6.005 43.185,6.002C43.166,5.999 43.148,5.99 43.134,5.978L43.107,5.978C43.033,5.925 42.975,5.872 43.038,5.787L43.075,5.75C43.129,5.75 43.181,5.767 43.224,5.798C43.255,5.835 43.345,5.856 43.308,5.936L43.314,5.915ZM43.504,5.645C43.425,5.645 43.329,5.608 43.314,5.512C43.298,5.417 43.361,5.412 43.425,5.406C43.488,5.401 43.599,5.454 43.605,5.555C43.614,5.57 43.618,5.587 43.616,5.605C43.614,5.622 43.607,5.638 43.594,5.651C43.582,5.664 43.566,5.672 43.549,5.675C43.532,5.677 43.514,5.674 43.499,5.666L43.504,5.645ZM43.785,5.343C43.71,5.301 43.61,5.295 43.594,5.195C43.594,5.183 43.596,5.172 43.601,5.161C43.606,5.15 43.612,5.141 43.621,5.133C43.629,5.125 43.639,5.119 43.65,5.115C43.661,5.111 43.672,5.109 43.684,5.11C43.726,5.111 43.766,5.125 43.801,5.148C43.836,5.171 43.863,5.204 43.88,5.242C43.89,5.316 43.832,5.343 43.785,5.364L43.785,5.343ZM44.049,6.264C44.076,6.2 44.107,6.19 44.166,6.227L44.626,6.502L44.663,6.502L44.705,6.534L44.674,6.592C44.583,6.729 44.462,6.843 44.319,6.925L44.261,6.957C44.166,6.883 44.07,6.809 43.97,6.74C43.943,6.725 43.921,6.703 43.906,6.676C43.892,6.648 43.887,6.617 43.89,6.587L43.89,6.555L44.049,6.264ZM44.372,7.619C44.354,7.622 44.337,7.622 44.319,7.619C44.266,7.56 44.123,7.534 44.16,7.46C44.181,7.408 44.218,7.363 44.265,7.333C44.313,7.302 44.369,7.288 44.425,7.29C44.494,7.423 44.372,7.523 44.367,7.64L44.372,7.619ZM44.901,7.666C44.88,7.708 44.849,7.743 44.81,7.768C44.771,7.793 44.725,7.807 44.679,7.809L44.615,7.809L44.764,7.507L44.79,7.507C44.796,7.519 44.805,7.528 44.817,7.534C44.843,7.582 44.922,7.597 44.88,7.687L44.901,7.666ZM45.272,7.264C45.255,7.315 45.227,7.361 45.19,7.401C45.154,7.44 45.109,7.471 45.06,7.492C44.986,7.518 44.928,7.46 44.864,7.407L44.817,7.375L44.991,7.042L45.039,7.068C45.064,7.081 45.087,7.097 45.108,7.116C45.15,7.185 45.272,7.195 45.251,7.285L45.272,7.264ZM45.573,6.936C45.367,7.158 45.457,7.19 45.182,7.021L45.108,6.989C45.076,6.846 45.203,6.65 45.319,6.655L45.393,6.703L45.584,6.819C45.6,6.862 45.605,6.904 45.552,6.957L45.573,6.936ZM45.917,6.55C45.774,6.804 45.61,6.687 45.452,6.597L45.42,6.597C45.33,6.544 45.282,6.486 45.346,6.37C45.409,6.253 45.43,6.184 45.563,6.248L45.589,6.248L45.907,6.423C45.939,6.486 45.949,6.523 45.901,6.571L45.917,6.55ZM45.711,6.211C45.66,6.19 45.611,6.161 45.568,6.126C45.542,6.1 45.542,6.079 45.568,6.036C45.589,5.999 45.614,5.963 45.642,5.93C45.659,5.91 45.682,5.895 45.709,5.891C45.735,5.886 45.762,5.89 45.785,5.904L46.007,6.031C46.012,6.05 46.012,6.07 46.007,6.089C46.014,6.162 46.001,6.235 45.97,6.301L45.939,6.37L45.711,6.211ZM46.478,6.915C46.478,6.915 46.478,6.946 46.41,6.915C46.326,6.895 46.246,6.859 46.177,6.809C46.177,6.809 46.177,6.809 46.177,6.777C46.173,6.772 46.171,6.765 46.171,6.759C46.171,6.752 46.173,6.745 46.177,6.74C46.177,6.714 46.214,6.714 46.235,6.74L46.468,6.846C46.474,6.852 46.478,6.86 46.481,6.868C46.484,6.876 46.485,6.885 46.484,6.893C46.483,6.902 46.48,6.91 46.475,6.918C46.471,6.925 46.465,6.931 46.457,6.936L46.478,6.915ZM46.478,6.714C46.478,6.761 46.42,6.745 46.383,6.714L46.203,6.64L46.166,6.64C46.203,6.507 46.272,6.47 46.394,6.555L46.425,6.555L46.468,6.592C46.483,6.596 46.497,6.606 46.507,6.618C46.517,6.631 46.522,6.647 46.522,6.663C46.522,6.68 46.517,6.695 46.507,6.708C46.497,6.721 46.483,6.731 46.468,6.735L46.478,6.714ZM46.478,6.523C46.314,6.438 46.314,6.438 46.425,6.301C46.494,6.301 46.563,6.333 46.563,6.417C46.563,6.502 46.521,6.55 46.431,6.544L46.478,6.523ZM46.859,7.153C46.791,7.153 46.706,7.153 46.701,7.052C46.695,6.952 46.743,6.978 46.791,6.989C46.838,6.999 46.976,6.989 46.997,7.074C47.018,7.158 46.881,7.148 46.833,7.174L46.859,7.153ZM47.251,6.851C47.243,6.889 47.223,6.922 47.193,6.945C47.162,6.969 47.125,6.98 47.087,6.978C47.064,6.983 47.041,6.983 47.018,6.978C46.976,6.978 46.875,6.978 46.896,6.904C46.908,6.865 46.932,6.831 46.966,6.809C47,6.786 47.041,6.777 47.082,6.782C47.099,6.78 47.117,6.78 47.135,6.782C47.15,6.83 47.24,6.804 47.225,6.872L47.251,6.851ZM47.494,6.634C47.447,6.687 47.404,6.745 47.336,6.74L47.267,6.74C47.219,6.74 47.14,6.74 47.14,6.677C47.14,6.613 47.203,6.571 47.262,6.55C47.339,6.531 47.42,6.542 47.489,6.581C47.489,6.597 47.489,6.634 47.489,6.655L47.494,6.634Z" fill="#EAEAEA"/>
</svg>
