<svg width="146" height="120" viewBox="0 0 146 120" fill="none" xmlns="http://www.w3.org/2000/svg" xmlns:xlink="http://www.w3.org/1999/xlink">
<g filter="url(#filter649_12839)">
<circle cx="60" cy="60" r="60" fill="#831441"/>
</g>
<path d="M52,78L44,78C43.47,78 42.961,77.789 42.586,77.414C42.211,77.039 42,76.53 42,76L42,68C42,67.47 41.789,66.961 41.414,66.586C41.039,66.211 40.53,66 40,66C39.47,66 38.961,66.211 38.586,66.586C38.211,66.961 38,67.47 38,68L38,76C38,77.591 38.632,79.117 39.757,80.243C40.883,81.368 42.409,82 44,82L52,82C52.53,82 53.039,81.789 53.414,81.414C53.789,81.039 54,80.53 54,80C54,79.47 53.789,78.961 53.414,78.586C53.039,78.211 52.53,78 52,78L52,78ZM80,66C79.47,66 78.961,66.211 78.586,66.586C78.211,66.961 78,67.47 78,68L78,76C78,76.53 77.789,77.039 77.414,77.414C77.039,77.789 76.53,78 76,78L68,78C67.47,78 66.961,78.211 66.586,78.586C66.211,78.961 66,79.47 66,80C66,80.53 66.211,81.039 66.586,81.414C66.961,81.789 67.47,82 68,82L76,82C77.591,82 79.117,81.368 80.243,80.243C81.368,79.117 82,77.591 82,76L82,68C82,67.47 81.789,66.961 81.414,66.586C81.039,66.211 80.53,66 80,66ZM76,38L68,38C67.47,38 66.961,38.211 66.586,38.586C66.211,38.961 66,39.47 66,40C66,40.53 66.211,41.039 66.586,41.414C66.961,41.789 67.47,42 68,42L76,42C76.53,42 77.039,42.211 77.414,42.586C77.789,42.961 78,43.47 78,44L78,52C78,52.53 78.211,53.039 78.586,53.414C78.961,53.789 79.47,54 80,54C80.53,54 81.039,53.789 81.414,53.414C81.789,53.039 82,52.53 82,52L82,44C82,42.409 81.368,40.883 80.243,39.757C79.117,38.632 77.591,38 76,38L76,38ZM40,54C40.53,54 41.039,53.789 41.414,53.414C41.789,53.039 42,52.53 42,52L42,44C42,43.47 42.211,42.961 42.586,42.586C42.961,42.211 43.47,42 44,42L52,42C52.53,42 53.039,41.789 53.414,41.414C53.789,41.039 54,40.53 54,40C54,39.47 53.789,38.961 53.414,38.586C53.039,38.211 52.53,38 52,38L44,38C42.409,38 40.883,38.632 39.757,39.757C38.632,40.883 38,42.409 38,44L38,52C38,52.53 38.211,53.039 38.586,53.414C38.961,53.789 39.47,54 40,54ZM56,46L48,46C47.47,46 46.961,46.211 46.586,46.586C46.211,46.961 46,47.47 46,48L46,56C46,56.53 46.211,57.039 46.586,57.414C46.961,57.789 47.47,58 48,58L56,58C56.53,58 57.039,57.789 57.414,57.414C57.789,57.039 58,56.53 58,56L58,48C58,47.47 57.789,46.961 57.414,46.586C57.039,46.211 56.53,46 56,46ZM54,54L50,54L50,50L54,50L54,54ZM64,58L72,58C72.53,58 73.039,57.789 73.414,57.414C73.789,57.039 74,56.53 74,56L74,48C74,47.47 73.789,46.961 73.414,46.586C73.039,46.211 72.53,46 72,46L64,46C63.47,46 62.961,46.211 62.586,46.586C62.211,46.961 62,47.47 62,48L62,56C62,56.53 62.211,57.039 62.586,57.414C62.961,57.789 63.47,58 64,58ZM66,50L70,50L70,54L66,54L66,50ZM56,62L48,62C47.47,62 46.961,62.211 46.586,62.586C46.211,62.961 46,63.47 46,64L46,72C46,72.53 46.211,73.039 46.586,73.414C46.961,73.789 47.47,74 48,74L56,74C56.53,74 57.039,73.789 57.414,73.414C57.789,73.039 58,72.53 58,72L58,64C58,63.47 57.789,62.961 57.414,62.586C57.039,62.211 56.53,62 56,62ZM54,70L50,70L50,66L54,66L54,70ZM64,68C64.53,68 65.039,67.789 65.414,67.414C65.789,67.039 66,66.53 66,66C66.53,66 67.039,65.789 67.414,65.414C67.789,65.039 68,64.53 68,64C68,63.47 67.789,62.961 67.414,62.586C67.039,62.211 66.53,62 66,62L64,62C63.47,62 62.961,62.211 62.586,62.586C62.211,62.961 62,63.47 62,64L62,66C62,66.53 62.211,67.039 62.586,67.414C62.961,67.789 63.47,68 64,68ZM72,62C71.47,62 70.961,62.211 70.586,62.586C70.211,62.961 70,63.47 70,64L70,70C69.47,70 68.961,70.211 68.586,70.586C68.211,70.961 68,71.47 68,72C68,72.53 68.211,73.039 68.586,73.414C68.961,73.789 69.47,74 70,74L72,74C72.53,74 73.039,73.789 73.414,73.414C73.789,73.039 74,72.53 74,72L74,64C74,63.47 73.789,62.961 73.414,62.586C73.039,62.211 72.53,62 72,62ZM64,70C63.604,70 63.218,70.117 62.889,70.337C62.56,70.557 62.304,70.869 62.152,71.235C62.001,71.6 61.961,72.002 62.038,72.39C62.116,72.778 62.306,73.135 62.586,73.414C62.865,73.694 63.222,73.884 63.61,73.962C63.998,74.039 64.4,73.999 64.765,73.848C65.131,73.696 65.443,73.44 65.663,73.111C65.883,72.782 66,72.396 66,72C66,71.47 65.789,70.961 65.414,70.586C65.039,70.211 64.53,70 64,70Z" fill="#FFFFFF"/>
<g filter="url(#filter649_12843)">
<circle cx="114" cy="88" r="32" fill="#F99A1C"/>
</g>
<path d="M109.258,83.022C108.578,83.022 108.027,83.659 108.027,84.444C108.027,85.229 108.578,85.866 109.258,85.866L114.189,85.866C114.87,85.866 115.422,85.229 115.422,84.444C115.422,83.659 114.87,83.022 114.189,83.022L109.258,83.022Z" fill="#FFFFFF"/>
<path d="M108.027,90.134C108.027,89.348 108.586,88.711 109.277,88.711L119.291,88.711C119.982,88.711 120.542,89.348 120.542,90.134C120.542,90.919 119.982,91.555 119.291,91.555L109.277,91.555C108.586,91.555 108.027,90.919 108.027,90.134Z" fill="#FFFFFF"/>
<path d="M102.48,73.92C101.774,73.92 101.2,74.57 101.2,75.371C101.2,76.172 101.774,76.822 102.48,76.822L103.761,76.822L103.761,100.124C103.761,101.966 105.672,103.013 106.933,101.777L108.027,100.706L109.759,102.404C110.48,103.11 111.546,103.11 112.267,102.404L114,100.706L115.733,102.404C116.453,103.11 117.519,103.11 118.241,102.404L119.973,100.706L121.065,101.777C122.328,103.013 124.239,101.966 124.239,100.124L124.239,76.822L125.52,76.822C126.226,76.822 126.8,76.172 126.8,75.371C126.8,74.57 126.226,73.92 125.52,73.92L102.48,73.92ZM106.32,76.822L106.32,98.543L106.773,98.099C107.494,97.392 108.561,97.392 109.281,98.099L111.013,99.797L112.746,98.099C113.466,97.392 114.533,97.392 115.254,98.099L116.987,99.797L118.719,98.099C119.439,97.392 120.506,97.392 121.227,98.099L121.68,98.543L121.68,76.822L106.32,76.822Z" clip-rule="evenodd" fill-rule="evenodd" fill="#FFFFFF"/>
<defs>
<filter id="filter649_12839" x="-4" y="-4" width="68" height="68" filterUnits="userSpaceOnUse" color-interpolation-filters="sRGB">
<feFlood flood-opacity="0" result="BackgroundImageFix"/>
<feColorMatrix in="SourceAlpha" type="matrix" values="0 0 0 0 0 0 0 0 0 0 0 0 0 0 0 0 0 0 127 0" result="hardAlpha"/>
<feMorphology radius="0" operator="dilate" in="SourceAlpha" result="0dropshadow"/>
<feOffset dx="0" dy="4"/>
<feGaussianBlur stdDeviation="2"/>
<feComposite in2="hardAlpha" operator="out"/>
<feColorMatrix type="matrix" values="0 0 0 0 0 0 0 0 0 0 0 0 0 0 0 0 0 0 0.25 0"/>
<feBlend mode="normal" in2="BackgroundImageFix" result="0dropshadow"/>
<feBlend mode="normal" in="SourceGraphic" in2="0dropshadow" result="shape"/>
</filter>
<filter id="filter649_12843" x="79.866667" y="53.866667" width="36.266667" height="36.266667" filterUnits="userSpaceOnUse" color-interpolation-filters="sRGB">
<feFlood flood-opacity="0" result="BackgroundImageFix"/>
<feColorMatrix in="SourceAlpha" type="matrix" values="0 0 0 0 0 0 0 0 0 0 0 0 0 0 0 0 0 0 127 0" result="hardAlpha"/>
<feMorphology radius="0" operator="dilate" in="SourceAlpha" result="0dropshadow"/>
<feOffset dx="0" dy="2.133333"/>
<feGaussianBlur stdDeviation="1.066667"/>
<feComposite in2="hardAlpha" operator="out"/>
<feColorMatrix type="matrix" values="0 0 0 0 0 0 0 0 0 0 0 0 0 0 0 0 0 0 0.25 0"/>
<feBlend mode="normal" in2="BackgroundImageFix" result="0dropshadow"/>
<feBlend mode="normal" in="SourceGraphic" in2="0dropshadow" result="shape"/>
</filter>
</defs>
</svg>
