<svg width="56" height="6" viewBox="0 0 56 6" fill="none" xmlns="http://www.w3.org/2000/svg" xmlns:xlink="http://www.w3.org/1999/xlink">
<path d="M0.665,1.203C0.677,1.16 0.691,1.117 0.699,1.074C0.73,0.912 0.729,0.912 0.887,0.912L2.906,0.912C3.056,0.912 3.061,0.914 3.034,1.062C2.978,1.363 3.034,1.318 2.727,1.322C2.564,1.323 2.4,1.327 2.236,1.32C2.145,1.317 2.113,1.356 2.099,1.439C1.906,2.543 1.712,3.648 1.517,4.752C1.493,4.887 1.467,5.022 1.447,5.158C1.434,5.249 1.397,5.297 1.295,5.289C1.18,5.282 1.065,5.282 0.95,5.289C0.847,5.295 0.821,5.259 0.838,5.159C0.918,4.729 0.992,4.297 1.068,3.865C1.211,3.057 1.354,2.249 1.497,1.441C1.514,1.352 1.491,1.32 1.399,1.32C1.154,1.322 0.908,1.317 0.664,1.314L0.665,1.203Z" fill="#FFFFFF"/>
<path d="M44.829,2.97C45.061,3.044 45.241,3.151 45.387,3.312C45.584,3.53 45.661,3.786 45.613,4.074C45.501,4.74 45.083,5.118 44.45,5.273C43.938,5.4 43.401,5.38 42.9,5.216C42.642,5.134 42.645,5.13 42.691,4.865C42.902,3.663 43.115,2.46 43.321,1.257C43.343,1.13 43.396,1.061 43.516,1.021C44.037,0.847 44.566,0.785 45.105,0.921C45.777,1.09 45.981,1.621 45.739,2.219C45.605,2.554 45.35,2.774 45.017,2.905C44.965,2.925 44.911,2.942 44.829,2.97ZM43.914,3.146C43.82,3.146 43.758,3.15 43.694,3.146C43.6,3.137 43.554,3.168 43.537,3.269C43.456,3.764 43.369,4.257 43.279,4.75C43.26,4.849 43.296,4.881 43.381,4.904C43.582,4.959 43.787,4.953 43.991,4.946C44.556,4.928 44.923,4.599 45.007,4.043C45.076,3.591 44.898,3.321 44.457,3.206C44.28,3.162 44.098,3.141 43.915,3.146L43.914,3.146ZM43.949,2.827C44.053,2.837 44.189,2.818 44.325,2.801C44.857,2.738 45.138,2.485 45.229,1.987C45.304,1.573 45.145,1.313 44.767,1.236C44.507,1.184 44.251,1.205 43.995,1.267C43.914,1.287 43.879,1.331 43.866,1.41C43.802,1.787 43.734,2.162 43.667,2.539C43.617,2.829 43.617,2.829 43.95,2.827L43.949,2.827Z" fill="#FFFFFF"/>
<path d="M5.114,5.287C4.822,5.287 4.822,5.287 4.874,4.995C4.999,4.285 5.124,3.576 5.248,2.867C5.264,2.775 5.266,2.681 5.255,2.589C5.233,2.385 5.089,2.243 4.858,2.216C4.613,2.188 4.37,2.206 4.135,2.299C4.036,2.338 3.991,2.395 3.973,2.499C3.864,3.135 3.75,3.771 3.638,4.408C3.594,4.664 3.546,4.919 3.504,5.176C3.491,5.257 3.454,5.291 3.37,5.288C3.255,5.283 3.14,5.284 3.025,5.288C2.935,5.29 2.909,5.258 2.925,5.167C3.037,4.545 3.145,3.923 3.255,3.302C3.423,2.351 3.593,1.401 3.757,0.449C3.776,0.338 3.815,0.293 3.928,0.303C4.029,0.31 4.129,0.31 4.229,0.303C4.331,0.298 4.358,0.335 4.339,0.435C4.25,0.925 4.166,1.415 4.081,1.906C4.076,1.937 4.048,1.975 4.078,2C4.108,2.024 4.14,1.99 4.17,1.978C4.471,1.857 4.778,1.798 5.107,1.84C5.629,1.907 5.923,2.27 5.837,2.789C5.705,3.587 5.559,4.384 5.42,5.181C5.407,5.257 5.37,5.291 5.292,5.286C5.233,5.284 5.174,5.287 5.114,5.287Z" fill="#FFFFFF"/>
<path d="M25.546,5.287C25.187,5.283 25.261,5.335 25.206,4.982C25.161,4.689 25.124,4.394 25.087,4.099C25.075,4.012 25.044,3.972 24.946,3.974C24.533,3.979 24.12,3.978 23.708,3.974C23.62,3.974 23.574,4.006 23.537,4.083C23.357,4.45 23.17,4.813 22.991,5.181C22.953,5.258 22.905,5.292 22.818,5.288C22.714,5.282 22.61,5.284 22.506,5.288C22.413,5.291 22.394,5.262 22.437,5.176C22.696,4.679 22.951,4.179 23.209,3.681C23.598,2.924 23.987,2.168 24.377,1.411C24.448,1.273 24.523,1.136 24.592,0.996C24.603,0.968 24.622,0.945 24.647,0.929C24.673,0.914 24.702,0.907 24.732,0.91C24.844,0.913 24.955,0.913 25.067,0.91C25.139,0.909 25.175,0.94 25.186,1.011C25.32,1.855 25.455,2.698 25.59,3.541C25.675,4.068 25.759,4.596 25.844,5.124C25.869,5.278 25.863,5.285 25.713,5.286L25.546,5.287ZM24.771,1.52C24.744,1.585 24.727,1.63 24.705,1.673C24.42,2.29 24.115,2.896 23.813,3.504C23.773,3.585 23.779,3.613 23.878,3.612C24.219,3.608 24.56,3.608 24.902,3.612C25.002,3.613 25.03,3.579 25.016,3.479C24.93,2.834 24.835,2.189 24.771,1.52L24.771,1.52Z" fill="#FFFFFF"/>
<path d="M53.264,3.574C53.218,3.833 53.172,4.091 53.126,4.349C53.079,4.617 53.031,4.883 52.989,5.151C52.974,5.248 52.938,5.298 52.833,5.289C52.744,5.281 52.654,5.287 52.565,5.287C52.399,5.287 52.398,5.286 52.426,5.127C52.55,4.429 52.674,3.731 52.798,3.032C52.948,2.176 53.099,1.321 53.249,0.465C53.277,0.306 53.277,0.306 53.44,0.306C53.529,0.306 53.618,0.31 53.708,0.305C53.805,0.299 53.84,0.327 53.819,0.432C53.736,0.878 53.661,1.325 53.582,1.771C53.491,2.291 53.399,2.81 53.308,3.329C53.306,3.349 53.306,3.369 53.308,3.388C53.41,3.291 53.51,3.203 53.601,3.108C53.975,2.715 54.348,2.321 54.72,1.925C54.74,1.901 54.765,1.882 54.794,1.869C54.823,1.857 54.854,1.85 54.886,1.851C55.005,1.854 55.124,1.851 55.243,1.851C55.276,1.851 55.319,1.842 55.333,1.877C55.347,1.913 55.307,1.935 55.284,1.957C54.828,2.421 54.375,2.887 53.913,3.346C53.824,3.434 53.821,3.495 53.885,3.599C54.208,4.115 54.524,4.637 54.841,5.157C54.861,5.19 54.905,5.224 54.881,5.265C54.856,5.307 54.806,5.286 54.767,5.288C54.636,5.289 54.506,5.285 54.376,5.29C54.295,5.293 54.247,5.261 54.208,5.191C53.938,4.707 53.665,4.225 53.393,3.743C53.361,3.686 53.326,3.629 53.294,3.571L53.264,3.574Z" fill="#FFFFFF"/>
<path d="M12.686,3.506C12.601,3.502 12.481,3.512 12.364,3.488C12.291,3.473 12.258,3.501 12.245,3.577C12.153,4.107 12.054,4.637 11.964,5.167C11.948,5.263 11.906,5.292 11.817,5.288C11.705,5.281 11.593,5.281 11.482,5.288C11.376,5.295 11.354,5.253 11.372,5.157C11.45,4.729 11.525,4.302 11.6,3.874C11.754,3 11.91,2.127 12.059,1.252C12.079,1.137 12.123,1.067 12.236,1.026C12.729,0.847 13.234,0.785 13.746,0.91C14.282,1.041 14.54,1.401 14.522,1.952C14.5,2.634 14.072,3.202 13.422,3.411C13.333,3.439 13.243,3.459 13.152,3.478C13.01,3.51 12.864,3.508 12.686,3.506ZM13.937,1.967C13.938,1.542 13.796,1.334 13.481,1.26C13.236,1.202 12.988,1.216 12.742,1.271C12.669,1.287 12.639,1.327 12.627,1.399C12.536,1.93 12.442,2.459 12.347,2.989C12.331,3.073 12.35,3.117 12.444,3.117C12.507,3.117 12.569,3.129 12.632,3.131C13.028,3.144 13.399,3.081 13.667,2.751C13.865,2.506 13.924,2.213 13.937,1.967Z" fill="#FFFFFF"/>
<path d="M19.316,1.799C19.504,1.79 19.693,1.815 19.874,1.872C20.256,1.999 20.471,2.333 20.404,2.73C20.267,3.543 20.119,4.354 19.98,5.166C19.964,5.255 19.928,5.295 19.834,5.289C19.726,5.282 19.619,5.282 19.511,5.289C19.408,5.296 19.382,5.258 19.399,5.159C19.487,4.681 19.569,4.201 19.654,3.722C19.708,3.415 19.766,3.109 19.816,2.801C19.879,2.429 19.709,2.215 19.332,2.185C19.117,2.165 18.901,2.186 18.693,2.246C18.604,2.273 18.559,2.319 18.544,2.412C18.41,3.188 18.274,3.963 18.137,4.739C18.111,4.888 18.082,5.038 18.058,5.188C18.047,5.26 18.012,5.29 17.939,5.288C17.824,5.285 17.708,5.282 17.593,5.288C17.491,5.294 17.464,5.259 17.482,5.159C17.563,4.721 17.638,4.282 17.717,3.842C17.816,3.283 17.918,2.724 18.012,2.164C18.029,2.064 18.073,2.017 18.163,1.985C18.522,1.857 18.89,1.797 19.316,1.799Z" fill="#FFFFFF"/>
<path d="M50.946,1.799C51.076,1.797 51.206,1.804 51.335,1.82C51.887,1.903 52.161,2.275 52.065,2.824C51.929,3.607 51.787,4.389 51.651,5.171C51.636,5.258 51.597,5.292 51.51,5.288C51.403,5.283 51.294,5.284 51.187,5.288C51.091,5.292 51.055,5.266 51.075,5.159C51.212,4.403 51.343,3.646 51.474,2.888C51.492,2.787 51.515,2.685 51.494,2.579C51.452,2.359 51.33,2.225 51.106,2.195C50.858,2.163 50.61,2.173 50.366,2.246C50.279,2.272 50.233,2.318 50.217,2.413C50.059,3.332 49.895,4.249 49.736,5.167C49.721,5.253 49.692,5.292 49.602,5.289C49.487,5.284 49.372,5.285 49.256,5.289C49.167,5.291 49.141,5.259 49.158,5.168C49.255,4.634 49.348,4.1 49.442,3.566C49.521,3.113 49.605,2.66 49.678,2.205C49.699,2.079 49.752,2.011 49.874,1.971C50.219,1.854 50.581,1.796 50.946,1.799Z" fill="#FFFFFF"/>
<path d="M39.528,5.287C39.238,5.287 39.241,5.287 39.293,4.995C39.422,4.268 39.55,3.54 39.676,2.813C39.747,2.398 39.562,2.193 39.095,2.177C38.909,2.167 38.723,2.191 38.546,2.249C38.461,2.278 38.421,2.32 38.406,2.409C38.287,3.104 38.164,3.799 38.041,4.493C38.002,4.717 37.96,4.94 37.926,5.163C37.911,5.259 37.867,5.295 37.77,5.289C37.666,5.282 37.562,5.289 37.457,5.287C37.333,5.287 37.326,5.278 37.349,5.15C37.413,4.788 37.477,4.426 37.54,4.064C37.652,3.432 37.765,2.8 37.873,2.167C37.889,2.071 37.931,2.019 38.024,1.986C38.516,1.811 39.022,1.751 39.538,1.826C40.079,1.905 40.331,2.258 40.253,2.795C40.236,2.913 40.216,3.03 40.195,3.147C40.081,3.794 39.967,4.441 39.852,5.089C39.817,5.288 39.818,5.29 39.618,5.29L39.528,5.287Z" fill="#FFFFFF"/>
<path d="M35.991,1.8C36.199,1.792 36.393,1.818 36.577,1.899C36.917,2.049 37.09,2.377 37.024,2.77C36.926,3.367 36.819,3.963 36.715,4.559C36.688,4.709 36.659,4.858 36.636,5.009C36.626,5.074 36.599,5.119 36.537,5.142C35.989,5.355 35.428,5.429 34.856,5.268C34.386,5.136 34.202,4.768 34.321,4.264C34.439,3.759 34.779,3.474 35.238,3.298C35.559,3.175 35.894,3.109 36.235,3.071C36.442,3.048 36.442,3.05 36.471,2.845C36.474,2.827 36.476,2.808 36.479,2.79C36.536,2.435 36.36,2.215 36.001,2.189C35.695,2.168 35.389,2.223 35.109,2.347C35.012,2.389 34.971,2.371 34.952,2.266C34.912,2.047 34.844,2.061 35.118,1.959C35.271,1.901 35.429,1.858 35.59,1.831C35.722,1.805 35.857,1.795 35.991,1.8ZM34.849,4.424C34.847,4.751 34.964,4.905 35.227,4.969C35.489,5.034 35.749,5.01 36.008,4.937C36.082,4.915 36.116,4.872 36.128,4.797C36.206,4.343 36.285,3.89 36.366,3.436C36.377,3.376 36.37,3.354 36.303,3.363C36.014,3.4 35.729,3.45 35.46,3.564C35.058,3.737 34.866,4.052 34.849,4.424Z" fill="#FFFFFF"/>
<path d="M47.764,1.799C47.864,1.797 47.965,1.805 48.064,1.822C48.579,1.917 48.848,2.277 48.763,2.794C48.644,3.527 48.509,4.257 48.384,4.989C48.369,5.078 48.328,5.127 48.247,5.157C47.746,5.348 47.23,5.41 46.704,5.298C46.114,5.172 45.893,4.726 46.102,4.122C46.243,3.715 46.546,3.475 46.929,3.318C47.266,3.179 47.62,3.117 47.978,3.068C48.205,3.038 48.173,3.081 48.209,2.853C48.282,2.398 48.109,2.196 47.649,2.185C47.369,2.181 47.092,2.238 46.837,2.353C46.744,2.393 46.715,2.366 46.694,2.277C46.638,2.038 46.635,2.039 46.869,1.955C47.155,1.849 47.459,1.796 47.764,1.799ZM46.587,4.447C46.585,4.732 46.708,4.901 46.955,4.965C47.228,5.035 47.499,5.013 47.766,4.928C47.831,4.908 47.86,4.869 47.872,4.802C47.948,4.355 48.026,3.91 48.106,3.466C48.12,3.388 48.112,3.354 48.022,3.367C47.723,3.406 47.428,3.46 47.152,3.588C46.776,3.764 46.613,4.078 46.587,4.447Z" fill="#FFFFFF"/>
<path d="M16.162,1.799C16.305,1.793 16.447,1.81 16.584,1.85C16.993,1.966 17.214,2.274 17.165,2.73C17.108,3.254 16.99,3.77 16.902,4.29C16.862,4.528 16.818,4.765 16.778,5.004C16.775,5.037 16.763,5.069 16.742,5.095C16.721,5.121 16.693,5.14 16.662,5.151C16.157,5.346 15.639,5.411 15.108,5.299C14.561,5.184 14.338,4.818 14.461,4.267C14.573,3.763 14.918,3.476 15.376,3.299C15.697,3.176 16.032,3.109 16.373,3.072C16.583,3.049 16.591,3.045 16.612,2.834C16.618,2.764 16.637,2.695 16.629,2.623C16.595,2.347 16.437,2.211 16.127,2.189C15.825,2.17 15.523,2.225 15.247,2.349C15.148,2.392 15.111,2.371 15.089,2.266C15.042,2.043 15.037,2.041 15.248,1.962C15.54,1.85 15.85,1.795 16.162,1.799ZM14.99,4.472C14.988,4.734 15.093,4.892 15.327,4.958C15.611,5.038 15.893,5.017 16.172,4.927C16.195,4.922 16.216,4.91 16.232,4.892C16.248,4.874 16.258,4.852 16.261,4.828C16.341,4.364 16.423,3.899 16.507,3.435C16.521,3.358 16.489,3.359 16.43,3.366C16.19,3.396 15.953,3.439 15.723,3.518C15.249,3.681 14.994,4.013 14.99,4.472Z" fill="#FFFFFF"/>
<path d="M8.99,2.93C8.998,3.087 8.978,3.234 8.956,3.381C8.946,3.458 8.907,3.49 8.835,3.5C8.349,3.567 7.864,3.637 7.378,3.705C7.202,3.73 7.025,3.755 6.849,3.776C6.768,3.786 6.732,3.822 6.735,3.907C6.74,4.033 6.735,4.159 6.758,4.284C6.826,4.675 7.087,4.907 7.486,4.922C7.78,4.934 8.065,4.893 8.334,4.774C8.421,4.736 8.467,4.744 8.475,4.845C8.477,4.856 8.479,4.867 8.481,4.878C8.535,5.129 8.537,5.135 8.294,5.212C7.9,5.34 7.498,5.396 7.086,5.31C6.64,5.217 6.325,4.953 6.246,4.507C6.094,3.641 6.275,2.845 6.906,2.203C7.282,1.821 7.763,1.724 8.279,1.836C8.712,1.93 8.971,2.28 8.991,2.759C8.994,2.818 8.99,2.878 8.99,2.93ZM7.827,2.183C7.642,2.176 7.462,2.24 7.322,2.36C6.991,2.632 6.871,3.013 6.791,3.412C6.78,3.471 6.819,3.469 6.861,3.462C7.353,3.39 7.845,3.318 8.338,3.246C8.392,3.237 8.437,3.215 8.444,3.15C8.457,3.025 8.476,2.9 8.466,2.773C8.438,2.372 8.238,2.182 7.828,2.183L7.827,2.183Z" fill="#FFFFFF"/>
<path d="M27.929,2.229C27.643,2.229 27.638,2.229 27.59,2.505C27.436,3.375 27.282,4.246 27.131,5.117C27.102,5.287 27.104,5.287 26.927,5.287L26.681,5.287C26.522,5.287 26.519,5.285 26.546,5.133C26.607,4.786 26.67,4.439 26.731,4.091C26.835,3.506 26.936,2.921 27.044,2.336C27.059,2.253 27.032,2.227 26.954,2.229C26.891,2.231 26.828,2.229 26.765,2.229C26.698,2.229 26.669,2.197 26.684,2.13C26.685,2.123 26.687,2.116 26.688,2.108C26.747,1.814 26.697,1.85 26.989,1.853C27.098,1.853 27.136,1.815 27.154,1.71C27.201,1.425 27.236,1.135 27.395,0.881C27.639,0.491 27.997,0.313 28.45,0.304C28.541,0.303 28.572,0.338 28.551,0.426C28.541,0.465 28.535,0.506 28.531,0.546C28.525,0.639 28.478,0.68 28.385,0.693C28.099,0.729 27.923,0.9 27.838,1.168C27.776,1.363 27.759,1.568 27.719,1.768C27.705,1.839 27.751,1.85 27.805,1.85C27.932,1.85 28.058,1.852 28.185,1.85C28.266,1.85 28.296,1.877 28.28,1.965C28.219,2.279 28.273,2.222 27.929,2.229Z" fill="#FFFFFF"/>
<path d="M33.655,1.798C33.846,1.795 34.035,1.845 34.199,1.943C34.279,1.992 34.312,2.044 34.248,2.131C34.201,2.193 34.181,2.283 34.121,2.324C34.046,2.377 33.989,2.275 33.92,2.25C33.75,2.191 33.567,2.185 33.393,2.234C33.22,2.282 33.066,2.382 32.951,2.521C32.741,2.778 32.638,3.083 32.569,3.401C32.502,3.711 32.458,4.024 32.521,4.339C32.617,4.83 32.964,5.027 33.438,4.865C33.469,4.854 33.5,4.843 33.531,4.828C33.684,4.761 33.684,4.761 33.722,4.93C33.768,5.132 33.767,5.14 33.576,5.221C33.308,5.337 33.027,5.378 32.737,5.329C32.342,5.262 32.023,4.939 31.949,4.476C31.821,3.661 32.003,2.913 32.54,2.278C32.809,1.959 33.171,1.791 33.655,1.798Z" fill="#FFFFFF"/>
<path d="M30.062,1.801L30.308,1.801C30.364,1.801 30.383,1.827 30.358,1.878C30.309,1.979 30.259,2.078 30.21,2.178C30.18,2.24 30.132,2.231 30.076,2.221C29.886,2.182 29.689,2.193 29.505,2.253C29.431,2.278 29.393,2.32 29.378,2.401C29.219,3.316 29.054,4.23 28.896,5.144C28.876,5.255 28.833,5.298 28.721,5.289C28.621,5.283 28.52,5.283 28.42,5.289C28.326,5.293 28.293,5.258 28.31,5.163C28.431,4.487 28.552,3.81 28.67,3.134C28.726,2.819 28.787,2.505 28.834,2.19C28.851,2.078 28.901,2.022 29.002,1.982C29.344,1.847 29.699,1.803 30.062,1.801Z" fill="#FFFFFF"/>
<path d="M30.666,5.287C30.606,5.287 30.547,5.284 30.487,5.287C30.396,5.292 30.369,5.252 30.384,5.165C30.446,4.825 30.505,4.485 30.565,4.145C30.69,3.44 30.814,2.734 30.938,2.028C30.969,1.85 30.967,1.85 31.149,1.85C31.239,1.85 31.328,1.853 31.417,1.85C31.517,1.845 31.546,1.883 31.529,1.984C31.447,2.425 31.371,2.868 31.293,3.31C31.186,3.913 31.079,4.517 30.972,5.12C30.943,5.288 30.944,5.288 30.779,5.288L30.666,5.287Z" fill="#FFFFFF"/>
</svg>
