<svg width="64" height="40" viewBox="0 0 64 40" fill="none" xmlns="http://www.w3.org/2000/svg" xmlns:xlink="http://www.w3.org/1999/xlink">
<path d="M63.3,-0.798C46.474,-0.798 29.646,-0.798 12.816,-0.798C10.498,-0.747 8.27,0.116 6.523,1.64C4.776,3.165 3.619,5.255 3.255,7.546C2.922,9.977 2.69,12.425 2.459,14.879C2.053,18.719 1.649,22.57 1.246,26.432C0.846,30.268 0.434,34.104 0.033,37.94C-0.051,38.792 -0.034,38.798 0.806,38.798L26.22,38.798C34.494,38.798 42.754,38.798 51.002,38.798C53.359,38.785 55.634,37.929 57.415,36.386C59.197,34.842 60.368,32.712 60.716,30.381C61.139,27.228 61.41,24.052 61.743,20.881C62.115,17.373 62.476,13.858 62.871,10.349C63.266,6.84 63.588,3.399 63.999,-0.07C64.011,-0.617 63.886,-0.798 63.3,-0.798Z" stroke="#FFFFFF" stroke-width="0.75" stroke-miterlimit="3.999327"/>
<path d="M41.006,2.615C40.724,2.615 40.442,2.619 40.16,2.623C39.595,2.63 39.031,2.638 38.467,2.615C37.943,2.587 37.796,2.767 37.796,3.303C37.815,4.544 37.808,5.785 37.802,7.026L37.802,7.027C37.799,7.647 37.796,8.268 37.796,8.888C37.835,9.117 37.794,9.353 37.677,9.554C37.233,8.948 36.654,8.453 35.985,8.11C34.787,7.54 33.429,7.402 32.141,7.719C30.853,8.035 29.714,8.787 28.917,9.847C26.92,12.617 26.993,17.181 29.035,19.934C31.241,22.912 36.166,22.754 37.7,20.255C37.72,20.222 37.753,20.197 37.814,20.151C37.856,20.119 37.913,20.076 37.988,20.013L37.988,21.248C37.988,21.609 38.129,21.812 38.552,21.812L41.028,21.812C41.429,21.812 41.559,21.66 41.559,21.248L41.559,3.196C41.536,2.773 41.406,2.587 41.006,2.615ZM37.057,17.096C36.882,17.703 36.526,18.242 36.036,18.641C35.546,19.039 34.946,19.279 34.316,19.327C33.686,19.374 33.057,19.229 32.512,18.909C31.967,18.589 31.534,18.11 31.269,17.536C30.857,16.686 30.643,15.753 30.643,14.809C30.643,13.864 30.857,12.931 31.269,12.081C31.533,11.556 31.939,11.116 32.441,10.81C32.942,10.505 33.52,10.346 34.107,10.352C34.695,10.357 35.269,10.528 35.764,10.844C36.26,11.159 36.657,11.608 36.91,12.138C37.274,12.985 37.453,13.901 37.435,14.823C37.428,15.594 37.308,16.36 37.079,17.096L37.057,17.096ZM56.068,13.869L56.068,16.177C56.068,16.555 56.067,16.934 56.066,17.314C56.063,18.582 56.06,19.857 56.09,21.13C56.102,21.632 55.944,21.79 55.43,21.79C54.674,21.756 53.924,21.756 53.174,21.79C52.677,21.812 52.457,21.654 52.508,21.135C52.511,21.104 52.516,21.071 52.522,21.036L52.522,21.036C52.546,20.874 52.575,20.685 52.412,20.611C52.275,20.548 52.176,20.651 52.077,20.754L52.077,20.754C52.034,20.799 51.991,20.845 51.944,20.876C50.991,21.57 49.874,22.003 48.703,22.132C47.531,22.262 46.346,22.084 45.265,21.615C43.719,20.989 43.11,19.674 43.087,18.061C43.065,16.447 43.674,15.184 45.208,14.49C46.431,14.025 47.717,13.748 49.022,13.666C49.808,13.609 50.584,13.459 51.335,13.221C51.616,13.155 51.867,12.996 52.047,12.77C52.226,12.543 52.323,12.263 52.322,11.974C52.383,11.636 52.332,11.288 52.176,10.982C52.02,10.676 51.768,10.43 51.459,10.281C50.965,10.062 50.43,9.952 49.889,9.958C49.349,9.965 48.816,10.089 48.328,10.321C48.08,10.433 47.864,10.604 47.699,10.82C47.534,11.035 47.424,11.288 47.38,11.556C47.301,11.996 47.059,12.087 46.658,12.087L44.182,12.087C43.533,12.081 43.488,12.025 43.618,11.37C43.752,10.617 44.091,9.916 44.598,9.343C45.104,8.77 45.758,8.347 46.489,8.121C48.824,7.277 51.38,7.277 53.715,8.121C55.318,8.685 56.068,9.813 56.068,11.506L56.068,13.869ZM52.316,16.363L52.316,16.25C52.316,16.173 52.315,16.095 52.313,16.018L52.313,16.018L52.313,16.018L52.313,16.018L52.313,16.018L52.313,16.018C52.309,15.864 52.305,15.712 52.316,15.562C52.339,15.15 52.209,15.048 51.82,15.229C51.32,15.425 50.793,15.547 50.257,15.59C49.395,15.646 48.549,15.86 47.764,16.222C47.422,16.405 47.149,16.693 46.984,17.043C46.82,17.394 46.773,17.788 46.85,18.168C46.891,18.515 47.046,18.838 47.289,19.088C47.533,19.338 47.853,19.5 48.198,19.55C50.624,20.159 52.316,18.867 52.316,16.363ZM47.002,26.246C46.653,26.263 46.529,26.094 46.529,25.761C46.534,25.033 46.85,24.706 47.55,24.768C48.063,24.813 48.204,24.616 48.159,24.159C48.148,24.005 48.148,23.85 48.159,23.696C48.181,23.335 48.012,23.166 47.662,23.132C45.682,22.946 44.21,23.736 44.278,25.767C44.289,26.111 44.125,26.241 43.787,26.241L42.236,26.241C41.908,26.246 41.796,26.088 41.796,25.784C41.767,25.062 42.083,24.689 42.839,24.757C43.364,24.802 43.488,24.605 43.448,24.153L43.448,23.522C43.445,23.434 43.413,23.351 43.357,23.285C43.3,23.218 43.223,23.172 43.138,23.155C42.746,23.019 42.328,22.977 41.917,23.031C41.506,23.086 41.113,23.235 40.769,23.468C40.426,23.701 40.142,24.01 39.939,24.372C39.736,24.734 39.62,25.138 39.601,25.552C39.579,26.054 39.426,26.32 38.913,26.246C38.4,26.173 38.253,26.438 38.264,26.912C38.275,27.386 38.371,27.769 38.924,27.696C39.477,27.623 39.595,27.91 39.595,28.412L39.595,32.959C39.595,34.471 39.595,34.471 41.13,34.471C41.711,34.482 41.835,34.257 41.835,33.732C41.835,33.144 41.839,32.554 41.843,31.965C41.85,30.787 41.858,29.608 41.835,28.435C41.824,27.837 42.038,27.64 42.602,27.69C42.967,27.716 43.332,27.716 43.697,27.69C44.154,27.662 44.34,27.831 44.34,28.317L44.34,31.081L44.34,32.982C44.34,33.726 44.34,34.099 44.526,34.285C44.712,34.471 45.084,34.471 45.829,34.471C46.365,34.477 46.517,34.302 46.517,33.777L46.517,28.593C46.517,27.702 46.523,27.702 47.414,27.702C47.933,27.719 48.114,27.555 48.114,27.019L48.11,26.939C48.081,26.246 48.081,26.246 47.346,26.246L47.002,26.246ZM54.155,25.039C54.083,25.343 53.813,25.346 53.565,25.348L53.495,25.349C53.319,25.353 53.072,25.352 52.825,25.351L52.823,25.351L52.823,25.351L52.823,25.351L52.823,25.351L52.823,25.351L52.823,25.351L52.823,25.351C52.7,25.35 52.577,25.349 52.463,25.349L51.73,25.349C50.742,25.349 50.348,24.785 50.697,23.837C50.728,23.746 50.792,23.669 50.876,23.621C50.961,23.573 51.06,23.558 51.154,23.578C52.09,23.671 52.995,23.965 53.806,24.441C54.014,24.588 54.24,24.751 54.155,25.039ZM50.771,30.878L53.191,30.878L55.667,30.878C55.966,30.878 56.175,30.838 56.231,30.46C56.274,29.641 56.085,28.825 55.686,28.108C55.287,27.391 54.694,26.8 53.975,26.404C53.217,26.062 52.376,25.948 51.555,26.079C50.734,26.209 49.969,26.577 49.355,27.138C48.645,27.889 48.198,28.851 48.081,29.878C47.964,30.906 48.183,31.943 48.706,32.835C49.251,33.625 50.043,34.21 50.957,34.499C51.871,34.788 52.856,34.764 53.755,34.432C54.23,34.263 54.664,33.992 55.025,33.64C55.386,33.287 55.667,32.861 55.848,32.39C55.857,32.367 55.868,32.343 55.88,32.32L55.88,32.32C55.934,32.209 55.99,32.092 55.814,31.995C55.13,31.873 54.425,32.007 53.834,32.373C53.536,32.679 53.158,32.895 52.742,32.995C52.327,33.095 51.892,33.075 51.487,32.937C51.163,32.836 50.876,32.642 50.662,32.379C50.447,32.116 50.314,31.796 50.28,31.459C50.207,31.047 50.319,30.867 50.771,30.878ZM50.331,28.999C50.445,28.59 50.699,28.235 51.048,27.993C51.397,27.752 51.82,27.641 52.243,27.679C52.643,27.672 53.032,27.808 53.342,28.061C53.652,28.314 53.862,28.668 53.935,29.061C54.009,29.389 53.896,29.53 53.574,29.535L52.102,29.535L50.726,29.535C50.269,29.535 50.207,29.383 50.314,28.999L50.331,28.999ZM37.756,31.036L37.756,28.215C37.78,27.844 37.683,27.475 37.48,27.164C37.276,26.853 36.977,26.616 36.628,26.489C35.842,26.149 34.992,25.984 34.136,26.005C33.28,26.025 32.438,26.231 31.669,26.607C31.362,26.765 31.094,26.99 30.885,27.265C30.676,27.541 30.531,27.859 30.462,28.198C30.383,28.525 30.462,28.723 30.84,28.717L32.155,28.717C32.25,28.723 32.345,28.701 32.427,28.652C32.51,28.604 32.576,28.532 32.617,28.446C32.813,28.029 33.166,27.705 33.598,27.545C34.031,27.384 34.509,27.4 34.93,27.589C35.124,27.657 35.292,27.786 35.408,27.957C35.523,28.127 35.581,28.331 35.573,28.537C35.589,28.726 35.538,28.915 35.429,29.071C35.319,29.226 35.159,29.339 34.975,29.388C34.721,29.47 34.461,29.532 34.197,29.575C33.375,29.656 32.561,29.797 31.76,29.998C30.496,30.409 30.022,31.182 30.146,32.61C30.199,33.122 30.428,33.6 30.795,33.962C31.161,34.325 31.642,34.548 32.155,34.595C33.242,34.798 34.365,34.573 35.291,33.969C35.312,33.955 35.336,33.937 35.36,33.918C35.494,33.815 35.662,33.686 35.686,34.014C35.714,34.403 35.991,34.466 36.312,34.46C36.526,34.456 36.728,34.457 36.93,34.459L36.931,34.459L36.931,34.459C37.032,34.459 37.134,34.46 37.237,34.46C37.644,34.46 37.801,34.296 37.768,33.896C37.751,33.189 37.753,32.474 37.755,31.755L37.755,31.754C37.756,31.515 37.756,31.275 37.756,31.036ZM35.584,31.267C35.584,32.751 34.535,33.523 33.136,33.157C32.926,33.12 32.733,33.017 32.586,32.862C32.439,32.708 32.345,32.511 32.318,32.299C32.28,32.076 32.314,31.846 32.416,31.643C32.517,31.44 32.681,31.275 32.882,31.171C33.281,30.968 33.713,30.84 34.157,30.793C34.217,30.784 34.277,30.774 34.336,30.765L34.336,30.765C34.525,30.736 34.712,30.708 34.896,30.669L34.912,30.666C35.246,30.593 35.417,30.555 35.503,30.624C35.593,30.696 35.59,30.884 35.585,31.267L35.585,31.267L35.584,31.267ZM25.385,34.663C26.931,34.742 28.352,34.218 29.108,32.644C29.644,31.521 29.56,31.403 28.341,31.357C28.076,31.303 27.799,31.35 27.567,31.49C27.335,31.63 27.164,31.853 27.089,32.113C26.96,32.367 26.771,32.584 26.538,32.748C26.305,32.911 26.036,33.015 25.754,33.051C25.472,33.086 25.186,33.052 24.92,32.952C24.654,32.852 24.417,32.688 24.229,32.474C23.377,31.493 23.405,29.236 24.28,28.272C25.019,27.459 26.491,27.476 26.965,28.396C27.298,29.033 27.692,29.219 28.206,29.101C29.537,29.101 29.667,28.841 29.052,27.77C28.903,27.501 28.713,27.257 28.488,27.048C27.078,25.716 24.257,25.62 22.796,27.019C21.335,28.418 21.104,30.156 21.668,32.006C22.142,33.62 23.518,34.596 25.385,34.663ZM12.709,30.878L15.13,30.878L17.606,30.878C17.967,30.878 18.131,30.742 18.119,30.37C17.995,27.087 15.66,25.4 12.755,26.241C10.701,26.805 9.556,29.118 10.052,31.453C10.791,34.939 14.565,35.199 16.421,34.054C17.018,33.66 17.482,33.096 17.753,32.435C17.826,32.271 17.945,31.983 17.634,31.995C17.485,31.995 17.334,31.98 17.182,31.966C16.656,31.916 16.126,31.865 15.671,32.412C15.39,32.715 15.024,32.925 14.621,33.014C14.217,33.102 13.796,33.066 13.415,32.909C13.099,32.814 12.817,32.632 12.602,32.383C12.386,32.134 12.245,31.829 12.196,31.504C12.111,31.07 12.219,30.866 12.709,30.878ZM12.258,28.892C12.401,28.502 12.67,28.17 13.022,27.95C13.375,27.731 13.791,27.635 14.204,27.679C14.58,27.693 14.94,27.831 15.228,28.072C15.516,28.314 15.715,28.643 15.795,29.01C15.897,29.36 15.795,29.529 15.44,29.529L14.001,29.529L12.687,29.529C12.247,29.529 12.106,29.315 12.258,28.892ZM25.949,5.227L25.949,3.038C25.949,2.75 25.837,2.621 25.549,2.621L22.666,2.621C22.35,2.621 22.215,2.762 22.215,3.078L22.215,5.21C22.209,5.554 22.362,5.69 22.694,5.69L25.447,5.69C25.769,5.69 25.949,5.588 25.949,5.227ZM25.978,21.13C25.978,21.632 25.831,21.812 25.323,21.79C24.539,21.767 23.749,21.767 22.965,21.767C22.401,21.801 22.198,21.615 22.204,21.022L22.204,10.095L22.204,8.369C22.204,8.019 22.339,7.89 22.683,7.895C22.971,7.895 23.258,7.898 23.546,7.902L23.546,7.902C24.122,7.908 24.697,7.914 25.272,7.895C25.791,7.895 25.978,8.031 25.966,8.572L25.966,14.902C25.966,15.479 25.965,16.053 25.964,16.623L25.964,16.624L25.964,16.625C25.96,18.136 25.957,19.627 25.978,21.13ZM16.923,20.216L20.872,8.595C21.064,7.952 21.041,7.924 20.353,7.901C20.09,7.901 19.826,7.906 19.563,7.911C19.037,7.921 18.512,7.931 17.99,7.901C17.482,7.873 17.29,8.099 17.155,8.55C16.348,11.23 15.519,13.909 14.689,16.583C14.673,16.633 14.66,16.686 14.646,16.739C14.6,16.925 14.551,17.118 14.362,17.254C14.216,17.1 14.125,16.902 14.103,16.69C13.253,13.964 12.407,11.216 11.564,8.448C11.463,8.144 11.367,7.884 10.927,7.884L7.931,7.884C7.598,7.879 7.474,7.958 7.598,8.319C9.084,12.647 10.566,16.972 12.044,21.293C12.076,21.443 12.164,21.575 12.29,21.663C12.415,21.75 12.569,21.788 12.721,21.767L14.74,21.767C16.393,21.767 16.393,21.767 16.923,20.216Z" clip-rule="evenodd" fill-rule="evenodd" fill="#FFFFFF"/>
</svg>
