<svg width="70" height="6" viewBox="0 0 70 6" fill="none" xmlns="http://www.w3.org/2000/svg" xmlns:xlink="http://www.w3.org/1999/xlink">
<path d="M-0.472,0.344C-0.458,0.29 -0.44,0.237 -0.429,0.182C-0.39,-0.022 -0.391,-0.023 -0.192,-0.023L2.354,-0.023C2.543,-0.023 2.549,-0.019 2.515,0.167C2.445,0.546 2.515,0.49 2.129,0.494C1.923,0.496 1.716,0.501 1.51,0.493C1.395,0.488 1.355,0.537 1.336,0.642C1.093,2.035 0.849,3.428 0.602,4.82C0.572,4.991 0.539,5.161 0.514,5.332C0.497,5.448 0.451,5.507 0.323,5.498C0.178,5.488 0.032,5.488 -0.113,5.498C-0.243,5.506 -0.276,5.46 -0.254,5.334C-0.153,4.791 -0.06,4.246 0.036,3.702C0.216,2.683 0.397,1.664 0.578,0.645C0.598,0.532 0.57,0.492 0.454,0.493C0.144,0.495 -0.165,0.488 -0.474,0.485L-0.472,0.344Z" fill="#FFFFFF"/>
<path d="M55.223,2.573C55.516,2.666 55.743,2.801 55.927,3.004C56.176,3.279 56.273,3.602 56.212,3.965C56.071,4.805 55.544,5.282 54.746,5.478C54.1,5.637 53.423,5.612 52.791,5.406C52.466,5.302 52.469,5.297 52.527,4.963C52.794,3.447 53.062,1.93 53.322,0.413C53.35,0.252 53.416,0.165 53.567,0.115C54.225,-0.104 54.892,-0.182 55.571,-0.011C56.42,0.203 56.676,0.871 56.372,1.627C56.203,2.049 55.881,2.327 55.46,2.492C55.395,2.517 55.328,2.537 55.223,2.573ZM54.069,2.795C53.951,2.795 53.872,2.8 53.792,2.795C53.673,2.784 53.616,2.823 53.595,2.95C53.492,3.574 53.383,4.197 53.268,4.818C53.245,4.943 53.291,4.983 53.398,5.013C53.651,5.082 53.909,5.074 54.166,5.065C54.879,5.042 55.343,4.628 55.448,3.926C55.535,3.357 55.31,3.016 54.755,2.871C54.531,2.815 54.301,2.789 54.071,2.795L54.069,2.795ZM54.114,2.393C54.245,2.405 54.416,2.381 54.588,2.361C55.259,2.281 55.613,1.961 55.728,1.333C55.823,0.812 55.621,0.483 55.145,0.387C54.818,0.32 54.494,0.348 54.172,0.426C54.07,0.45 54.026,0.507 54.009,0.606C53.928,1.081 53.842,1.555 53.758,2.029C53.695,2.395 53.695,2.395 54.115,2.393L54.114,2.393Z" fill="#FFFFFF"/>
<path d="M5.139,5.495C4.77,5.495 4.77,5.495 4.836,5.126C4.993,4.232 5.151,3.337 5.308,2.443C5.327,2.327 5.33,2.209 5.317,2.092C5.289,1.836 5.107,1.656 4.816,1.623C4.506,1.587 4.2,1.61 3.903,1.727C3.779,1.777 3.722,1.848 3.7,1.979C3.563,2.782 3.418,3.583 3.277,4.386C3.221,4.709 3.161,5.031 3.109,5.355C3.092,5.457 3.045,5.501 2.94,5.496C2.794,5.49 2.649,5.491 2.504,5.496C2.391,5.499 2.358,5.459 2.378,5.343C2.519,4.56 2.656,3.775 2.794,2.991C3.006,1.793 3.221,0.594 3.427,-0.606C3.451,-0.746 3.5,-0.803 3.643,-0.79C3.77,-0.782 3.896,-0.782 4.023,-0.79C4.151,-0.797 4.185,-0.75 4.161,-0.623C4.049,-0.006 3.943,0.612 3.836,1.231C3.83,1.27 3.794,1.319 3.832,1.35C3.87,1.38 3.91,1.337 3.948,1.321C4.328,1.17 4.715,1.095 5.13,1.148C5.788,1.233 6.159,1.691 6.051,2.345C5.884,3.351 5.699,4.356 5.524,5.362C5.508,5.458 5.461,5.5 5.363,5.494C5.289,5.492 5.214,5.495 5.139,5.495Z" fill="#FFFFFF"/>
<path d="M30.906,5.495C30.453,5.49 30.546,5.556 30.477,5.111C30.42,4.741 30.373,4.369 30.326,3.997C30.312,3.887 30.272,3.837 30.148,3.839C29.628,3.846 29.107,3.844 28.587,3.839C28.477,3.839 28.418,3.88 28.371,3.976C28.145,4.439 27.91,4.898 27.683,5.361C27.635,5.459 27.575,5.502 27.466,5.496C27.335,5.489 27.203,5.491 27.072,5.496C26.955,5.5 26.931,5.463 26.985,5.356C27.311,4.728 27.633,4.098 27.958,3.47C28.449,2.515 28.94,1.561 29.431,0.608C29.521,0.433 29.616,0.26 29.702,0.084C29.716,0.049 29.74,0.019 29.772,0C29.804,-0.02 29.842,-0.028 29.879,-0.025C30.02,-0.021 30.16,-0.021 30.301,-0.025C30.393,-0.027 30.437,0.013 30.452,0.103C30.621,1.166 30.791,2.23 30.962,3.293C31.068,3.958 31.175,4.624 31.281,5.29C31.313,5.483 31.306,5.493 31.116,5.494L30.906,5.495ZM29.929,0.744C29.894,0.827 29.873,0.883 29.844,0.938C29.486,1.716 29.101,2.48 28.72,3.246C28.67,3.348 28.677,3.384 28.802,3.382C29.232,3.377 29.662,3.377 30.093,3.382C30.22,3.384 30.255,3.342 30.237,3.216C30.129,2.402 30.009,1.588 29.928,0.744L29.929,0.744Z" fill="#FFFFFF"/>
<path d="M65.861,3.335C65.803,3.661 65.745,3.987 65.687,4.313C65.628,4.651 65.567,4.986 65.514,5.324C65.495,5.446 65.45,5.509 65.317,5.497C65.205,5.488 65.092,5.496 64.979,5.496C64.77,5.496 64.769,5.494 64.805,5.294C64.961,4.413 65.117,3.532 65.273,2.651C65.463,1.572 65.653,0.493 65.842,-0.586C65.877,-0.786 65.877,-0.786 66.083,-0.787C66.195,-0.787 66.308,-0.781 66.421,-0.788C66.543,-0.795 66.588,-0.76 66.561,-0.627C66.457,-0.065 66.361,0.498 66.262,1.061C66.147,1.716 66.032,2.371 65.916,3.026C65.914,3.051 65.914,3.076 65.916,3.101C66.046,2.977 66.171,2.868 66.286,2.747C66.758,2.252 67.228,1.755 67.697,1.256C67.722,1.225 67.755,1.201 67.791,1.185C67.827,1.169 67.867,1.161 67.906,1.162C68.056,1.165 68.206,1.162 68.357,1.162C68.398,1.162 68.453,1.151 68.471,1.195C68.488,1.24 68.437,1.267 68.409,1.296C67.834,1.881 67.262,2.469 66.68,3.048C66.567,3.159 66.563,3.236 66.644,3.366C67.052,4.017 67.45,4.675 67.85,5.331C67.875,5.373 67.931,5.416 67.9,5.468C67.869,5.52 67.805,5.494 67.756,5.496C67.592,5.498 67.427,5.492 67.264,5.499C67.161,5.503 67.1,5.462 67.051,5.374C66.711,4.764 66.367,4.157 66.024,3.548C65.983,3.476 65.94,3.404 65.899,3.332L65.861,3.335Z" fill="#FFFFFF"/>
<path d="M14.687,3.249C14.58,3.245 14.43,3.256 14.281,3.226C14.189,3.207 14.148,3.243 14.131,3.339C14.015,4.007 13.891,4.675 13.777,5.344C13.757,5.465 13.704,5.501 13.591,5.496C13.451,5.488 13.31,5.488 13.169,5.496C13.035,5.505 13.008,5.452 13.03,5.331C13.129,4.792 13.224,4.252 13.319,3.713C13.513,2.611 13.709,1.509 13.898,0.407C13.922,0.261 13.978,0.173 14.12,0.121C14.742,-0.104 15.378,-0.182 16.025,-0.025C16.701,0.141 17.026,0.595 17.003,1.289C16.975,2.15 16.435,2.866 15.615,3.129C15.504,3.165 15.39,3.189 15.275,3.214C15.096,3.254 14.913,3.252 14.687,3.249ZM16.265,1.309C16.267,0.772 16.088,0.51 15.691,0.417C15.381,0.344 15.068,0.361 14.758,0.43C14.667,0.451 14.629,0.501 14.613,0.592C14.498,1.261 14.381,1.929 14.26,2.597C14.241,2.703 14.265,2.759 14.382,2.758C14.462,2.758 14.541,2.774 14.62,2.776C15.12,2.792 15.587,2.713 15.925,2.296C16.175,1.987 16.249,1.618 16.265,1.309Z" fill="#FFFFFF"/>
<path d="M23.048,1.096C23.286,1.085 23.525,1.116 23.752,1.188C24.235,1.348 24.505,1.77 24.42,2.271C24.248,3.296 24.062,4.318 23.886,5.343C23.866,5.455 23.821,5.505 23.702,5.497C23.566,5.489 23.43,5.489 23.295,5.497C23.165,5.506 23.132,5.459 23.154,5.334C23.264,4.73 23.368,4.126 23.475,3.522C23.543,3.134 23.616,2.748 23.68,2.36C23.758,1.891 23.544,1.62 23.069,1.583C22.798,1.558 22.525,1.584 22.263,1.66C22.151,1.694 22.095,1.752 22.075,1.87C21.907,2.848 21.734,3.825 21.562,4.803C21.529,4.992 21.493,5.181 21.462,5.371C21.448,5.461 21.405,5.499 21.312,5.496C21.167,5.492 21.021,5.489 20.876,5.496C20.747,5.504 20.713,5.46 20.736,5.333C20.838,4.781 20.933,4.227 21.032,3.673C21.157,2.967 21.285,2.263 21.404,1.556C21.425,1.43 21.482,1.371 21.595,1.331C22.048,1.169 22.512,1.094 23.048,1.096Z" fill="#FFFFFF"/>
<path d="M62.937,1.097C63.101,1.093 63.265,1.102 63.428,1.123C64.124,1.227 64.469,1.696 64.349,2.389C64.177,3.377 63.999,4.363 63.827,5.349C63.807,5.459 63.759,5.502 63.649,5.497C63.514,5.491 63.377,5.491 63.241,5.497C63.12,5.502 63.076,5.469 63.101,5.334C63.273,4.38 63.438,3.425 63.604,2.47C63.626,2.342 63.655,2.214 63.629,2.081C63.576,1.803 63.422,1.633 63.139,1.596C62.826,1.555 62.513,1.568 62.207,1.66C62.096,1.693 62.038,1.75 62.018,1.871C61.819,3.029 61.612,4.186 61.412,5.344C61.393,5.452 61.356,5.502 61.243,5.497C61.098,5.491 60.952,5.492 60.807,5.497C60.695,5.5 60.662,5.46 60.683,5.345C60.805,4.672 60.922,3.999 61.041,3.325C61.141,2.754 61.247,2.183 61.339,1.608C61.365,1.449 61.431,1.364 61.586,1.313C62.021,1.166 62.478,1.093 62.937,1.097Z" fill="#FFFFFF"/>
<path d="M48.539,5.495C48.173,5.495 48.176,5.495 48.242,5.127C48.405,4.21 48.566,3.292 48.725,2.374C48.814,1.851 48.582,1.593 47.993,1.573C47.758,1.56 47.523,1.591 47.299,1.663C47.193,1.7 47.142,1.754 47.123,1.866C46.973,2.743 46.818,3.618 46.664,4.494C46.614,4.776 46.561,5.057 46.518,5.339C46.499,5.46 46.443,5.506 46.321,5.498C46.19,5.489 46.058,5.498 45.927,5.495C45.77,5.495 45.762,5.483 45.79,5.322C45.871,4.866 45.951,4.409 46.031,3.953C46.172,3.156 46.315,2.358 46.451,1.56C46.472,1.439 46.525,1.374 46.641,1.333C47.262,1.111 47.901,1.036 48.551,1.131C49.233,1.229 49.551,1.675 49.453,2.353C49.432,2.501 49.406,2.649 49.38,2.796C49.236,3.612 49.091,4.428 48.947,5.245C48.902,5.497 48.904,5.498 48.652,5.498L48.539,5.495Z" fill="#FFFFFF"/>
<path d="M44.078,1.098C44.34,1.087 44.584,1.12 44.816,1.222C45.246,1.412 45.464,1.825 45.381,2.321C45.257,3.074 45.121,3.825 44.99,4.577C44.957,4.766 44.921,4.954 44.892,5.144C44.879,5.227 44.845,5.283 44.766,5.313C44.076,5.58 43.368,5.674 42.647,5.471C42.054,5.304 41.822,4.841 41.971,4.205C42.12,3.568 42.55,3.208 43.128,2.986C43.533,2.831 43.956,2.749 44.385,2.7C44.646,2.672 44.647,2.674 44.683,2.415C44.687,2.392 44.689,2.369 44.693,2.346C44.765,1.898 44.543,1.62 44.09,1.588C43.705,1.562 43.319,1.631 42.966,1.787C42.843,1.84 42.791,1.818 42.767,1.685C42.717,1.408 42.632,1.427 42.976,1.298C43.169,1.225 43.369,1.171 43.572,1.136C43.739,1.104 43.908,1.091 44.078,1.098ZM42.637,4.406C42.635,4.819 42.783,5.013 43.114,5.094C43.445,5.176 43.773,5.146 44.099,5.054C44.193,5.025 44.235,4.972 44.251,4.877C44.349,4.305 44.449,3.733 44.551,3.16C44.565,3.085 44.556,3.058 44.471,3.069C44.107,3.116 43.748,3.179 43.408,3.322C42.901,3.54 42.659,3.937 42.637,4.406Z" fill="#FFFFFF"/>
<path d="M58.925,1.096C59.052,1.094 59.179,1.104 59.304,1.126C59.953,1.245 60.292,1.7 60.185,2.351C60.035,3.275 59.864,4.196 59.707,5.119C59.688,5.232 59.637,5.293 59.535,5.332C58.902,5.571 58.252,5.65 57.589,5.509C56.844,5.35 56.566,4.788 56.829,4.026C57.007,3.512 57.39,3.21 57.872,3.011C58.296,2.837 58.743,2.758 59.195,2.697C59.481,2.658 59.44,2.713 59.486,2.426C59.579,1.852 59.36,1.597 58.78,1.584C58.427,1.578 58.078,1.65 57.756,1.795C57.638,1.845 57.602,1.812 57.576,1.699C57.505,1.398 57.502,1.399 57.797,1.293C58.157,1.159 58.54,1.092 58.925,1.096ZM57.44,4.436C57.438,4.796 57.593,5.008 57.905,5.089C58.249,5.178 58.591,5.149 58.928,5.043C59.009,5.017 59.047,4.968 59.061,4.883C59.157,4.32 59.255,3.758 59.356,3.198C59.374,3.1 59.363,3.057 59.251,3.073C58.873,3.123 58.501,3.191 58.153,3.353C57.679,3.575 57.474,3.971 57.44,4.436Z" fill="#FFFFFF"/>
<path d="M19.072,1.097C19.252,1.089 19.431,1.11 19.604,1.161C20.12,1.307 20.398,1.696 20.336,2.271C20.265,2.932 20.116,3.582 20.005,4.238C19.955,4.538 19.898,4.837 19.849,5.138C19.845,5.18 19.829,5.22 19.803,5.253C19.777,5.286 19.741,5.31 19.701,5.323C19.066,5.57 18.412,5.652 17.743,5.511C17.052,5.365 16.771,4.903 16.926,4.209C17.067,3.574 17.503,3.211 18.08,2.988C18.485,2.832 18.908,2.749 19.338,2.702C19.602,2.673 19.612,2.668 19.638,2.401C19.647,2.313 19.671,2.226 19.66,2.136C19.618,1.788 19.418,1.616 19.027,1.589C18.647,1.565 18.266,1.634 17.917,1.79C17.792,1.844 17.746,1.818 17.719,1.685C17.659,1.404 17.652,1.401 17.919,1.302C18.287,1.161 18.678,1.091 19.072,1.097ZM17.594,4.467C17.591,4.797 17.723,4.997 18.019,5.08C18.377,5.181 18.732,5.155 19.084,5.042C19.113,5.035 19.14,5.019 19.16,4.997C19.18,4.974 19.193,4.946 19.196,4.916C19.297,4.331 19.4,3.745 19.506,3.16C19.524,3.062 19.484,3.063 19.41,3.073C19.107,3.111 18.807,3.164 18.518,3.264C17.92,3.47 17.599,3.889 17.594,4.467Z" fill="#FFFFFF"/>
<path d="M10.027,2.522C10.036,2.721 10.011,2.906 9.984,3.092C9.97,3.188 9.921,3.228 9.83,3.241C9.218,3.326 8.606,3.414 7.994,3.5C7.771,3.531 7.549,3.563 7.326,3.59C7.224,3.602 7.179,3.648 7.183,3.755C7.189,3.914 7.183,4.072 7.211,4.231C7.298,4.724 7.626,5.015 8.13,5.035C8.5,5.049 8.86,4.998 9.2,4.848C9.308,4.8 9.367,4.81 9.378,4.937C9.379,4.951 9.381,4.965 9.385,4.979C9.452,5.296 9.455,5.303 9.149,5.401C8.652,5.562 8.145,5.633 7.626,5.524C7.063,5.407 6.666,5.074 6.566,4.511C6.375,3.419 6.603,2.416 7.398,1.606C7.872,1.124 8.479,1.002 9.13,1.143C9.676,1.262 10.003,1.702 10.028,2.307C10.031,2.382 10.027,2.457 10.027,2.522ZM8.56,1.581C8.327,1.572 8.099,1.652 7.922,1.804C7.505,2.147 7.354,2.627 7.254,3.13C7.239,3.205 7.288,3.202 7.341,3.194C7.962,3.102 8.583,3.011 9.204,2.921C9.273,2.91 9.329,2.882 9.338,2.801C9.354,2.642 9.378,2.485 9.366,2.325C9.33,1.819 9.079,1.579 8.561,1.58L8.56,1.581Z" fill="#FFFFFF"/>
<path d="M33.91,1.639C33.55,1.639 33.544,1.639 33.484,1.987C33.288,3.084 33.095,4.182 32.905,5.28C32.867,5.495 32.87,5.495 32.647,5.495L32.337,5.495C32.136,5.495 32.133,5.492 32.166,5.301C32.243,4.863 32.323,4.425 32.4,3.987C32.531,3.249 32.659,2.511 32.794,1.774C32.813,1.669 32.78,1.636 32.681,1.639C32.602,1.641 32.522,1.639 32.442,1.639C32.358,1.639 32.321,1.599 32.34,1.514C32.342,1.505 32.344,1.496 32.346,1.486C32.42,1.115 32.357,1.161 32.726,1.164C32.862,1.164 32.911,1.117 32.933,0.984C32.993,0.625 33.037,0.259 33.237,-0.061C33.545,-0.553 33.997,-0.777 34.568,-0.788C34.683,-0.791 34.722,-0.745 34.695,-0.635C34.683,-0.585 34.674,-0.534 34.67,-0.483C34.662,-0.366 34.603,-0.314 34.485,-0.299C34.125,-0.253 33.903,-0.037 33.796,0.3C33.718,0.547 33.696,0.805 33.646,1.058C33.629,1.147 33.686,1.161 33.754,1.161C33.914,1.161 34.073,1.163 34.233,1.161C34.336,1.161 34.374,1.195 34.353,1.306C34.276,1.702 34.344,1.63 33.91,1.639Z" fill="#FFFFFF"/>
<path d="M41.132,1.095C41.373,1.091 41.611,1.154 41.818,1.278C41.919,1.339 41.961,1.405 41.879,1.515C41.821,1.593 41.795,1.707 41.719,1.759C41.625,1.825 41.553,1.696 41.466,1.665C41.252,1.59 41.02,1.583 40.802,1.644C40.584,1.705 40.389,1.832 40.245,2.006C39.979,2.331 39.849,2.715 39.762,3.117C39.677,3.508 39.623,3.902 39.701,4.299C39.823,4.918 40.26,5.167 40.858,4.963C40.898,4.949 40.937,4.935 40.976,4.917C41.168,4.832 41.168,4.832 41.216,5.045C41.275,5.3 41.272,5.31 41.032,5.412C40.695,5.558 40.34,5.609 39.974,5.548C39.476,5.463 39.073,5.056 38.981,4.472C38.819,3.445 39.049,2.502 39.725,1.7C40.065,1.298 40.521,1.087 41.132,1.095Z" fill="#FFFFFF"/>
<path d="M36.601,1.099L36.911,1.099C36.982,1.099 37.006,1.131 36.974,1.196C36.913,1.323 36.849,1.448 36.788,1.575C36.75,1.653 36.689,1.641 36.619,1.629C36.379,1.579 36.131,1.593 35.898,1.669C35.805,1.7 35.757,1.753 35.738,1.856C35.537,3.01 35.33,4.162 35.13,5.315C35.106,5.454 35.051,5.509 34.91,5.497C34.783,5.49 34.656,5.49 34.53,5.497C34.412,5.503 34.37,5.459 34.391,5.339C34.545,4.486 34.696,3.633 34.845,2.78C34.916,2.383 34.992,1.987 35.052,1.589C35.073,1.448 35.137,1.378 35.264,1.328C35.695,1.157 36.143,1.101 36.601,1.099Z" fill="#FFFFFF"/>
<path d="M37.362,5.496C37.287,5.496 37.212,5.492 37.137,5.496C37.022,5.501 36.987,5.45 37.007,5.341C37.085,4.913 37.16,4.484 37.236,4.055C37.392,3.165 37.549,2.275 37.705,1.386C37.744,1.16 37.742,1.16 37.972,1.16C38.084,1.16 38.197,1.165 38.31,1.16C38.436,1.154 38.472,1.202 38.45,1.329C38.347,1.886 38.251,2.445 38.153,3.002C38.018,3.763 37.884,4.524 37.749,5.284C37.712,5.496 37.713,5.497 37.504,5.497L37.362,5.496Z" fill="#FFFFFF"/>
</svg>
