<svg width="34" height="38" viewBox="0 0 34 38" fill="none" xmlns="http://www.w3.org/2000/svg" xmlns:xlink="http://www.w3.org/1999/xlink">
<path d="M10.554,11.922C9.663,11.922 8.941,12.756 8.941,13.784C8.941,14.813 9.663,15.647 10.554,15.647L17.012,15.647C17.904,15.647 18.627,14.813 18.627,13.784C18.627,12.756 17.904,11.922 17.012,11.922L10.554,11.922Z" fill="#FFFFFF"/>
<path d="M8.941,21.236C8.941,20.208 9.674,19.373 10.579,19.373L23.695,19.373C24.6,19.373 25.333,20.208 25.333,21.236C25.333,22.265 24.6,23.098 23.695,23.098L10.579,23.098C9.674,23.098 8.941,22.265 8.941,21.236Z" fill="#FFFFFF"/>
<path d="M1.677,0C0.751,0 0,0.851 0,1.901C0,2.95 0.751,3.801 1.677,3.801L3.354,3.801L3.354,34.321C3.354,36.733 5.858,38.105 7.509,36.486L8.941,35.084L11.211,37.307C12.155,38.231 13.551,38.231 14.495,37.307L16.765,35.084L19.034,37.307C19.977,38.231 21.374,38.231 22.319,37.307L24.588,35.084L26.019,36.486C27.672,38.105 30.176,36.733 30.176,34.321L30.176,3.801L31.852,3.801C32.778,3.801 33.529,2.95 33.529,1.901C33.529,0.851 32.778,0 31.852,0L1.677,0ZM6.706,3.801L6.706,32.25L7.299,31.669C8.243,30.743 9.64,30.743 10.583,31.669L12.853,33.892L15.122,31.669C16.065,30.743 17.463,30.743 18.407,31.669L20.677,33.892L22.946,31.669C23.889,30.743 25.286,30.743 26.231,31.669L26.823,32.25L26.823,3.801L6.706,3.801Z" clip-rule="evenodd" fill-rule="evenodd" fill="#FFFFFF"/>
</svg>
