<svg width="58" height="62" viewBox="0 0 58 62" fill="none" xmlns="http://www.w3.org/2000/svg" xmlns:xlink="http://www.w3.org/1999/xlink">
<rect  x="0" y="0" width="58" height="62" rx="5.6" fill="#831441"/>
<path d="M27,36.684C26.494,36.684 26.008,36.886 25.65,37.244C25.292,37.603 25.091,38.089 25.091,38.597C25.091,39.104 25.292,39.59 25.65,39.949C26.008,40.307 26.494,40.509 27,40.509C28.888,40.509 30.733,39.948 32.303,38.898C33.873,37.847 35.096,36.354 35.819,34.606C36.541,32.859 36.73,30.937 36.362,29.082C35.994,27.227 35.085,25.523 33.75,24.186C32.415,22.849 30.714,21.938 28.862,21.569C27.011,21.201 25.091,21.39 23.347,22.114C21.603,22.837 20.112,24.063 19.063,25.635C18.014,27.208 17.455,29.056 17.455,30.947C17.455,31.455 17.656,31.941 18.014,32.3C18.372,32.658 18.857,32.86 19.364,32.86C19.87,32.86 20.356,32.658 20.714,32.3C21.072,31.941 21.273,31.455 21.273,30.947C21.273,29.813 21.609,28.704 22.238,27.76C22.867,26.817 23.762,26.081 24.808,25.647C25.855,25.213 27.006,25.099 28.117,25.321C29.228,25.542 30.249,26.088 31.05,26.891C31.851,27.693 32.396,28.715 32.617,29.828C32.838,30.941 32.725,32.095 32.291,33.143C31.858,34.191 31.124,35.087 30.182,35.717C29.24,36.348 28.133,36.684 27,36.684Z" fill="#FFFFFF"/>
<path d="M50,40.509L50,21.386C50,19.358 49.195,17.412 47.763,15.977C46.331,14.543 44.389,13.737 42.364,13.737L39.567,13.737L37.448,10.553C36.924,9.766 36.214,9.122 35.381,8.676C34.549,8.231 33.619,7.999 32.675,8L25.315,8C24.372,7.999 23.442,8.231 22.609,8.676C21.776,9.122 21.067,9.766 20.543,10.553L18.433,13.737L15.636,13.737C13.611,13.737 11.669,14.543 10.237,15.977C8.805,17.412 8,19.358 8,21.386L8,40.509C8,42.538 8.805,44.484 10.237,45.918C11.669,47.353 13.611,48.159 15.636,48.159L20.571,48.159L18.109,50.635C17.909,50.807 17.746,51.018 17.632,51.255C17.517,51.492 17.453,51.751 17.443,52.014C17.433,52.277 17.477,52.54 17.573,52.785C17.669,53.031 17.814,53.254 18,53.44C18.187,53.626 18.409,53.772 18.654,53.868C18.899,53.964 19.161,54.009 19.424,53.999C19.687,53.988 19.945,53.924 20.182,53.809C20.419,53.694 20.629,53.532 20.8,53.332L26.528,47.595C26.883,47.236 27.083,46.752 27.083,46.246C27.083,45.741 26.883,45.257 26.528,44.898L20.8,39.161C20.435,38.848 19.965,38.684 19.485,38.703C19.005,38.721 18.549,38.921 18.209,39.262C17.869,39.602 17.67,40.059 17.651,40.54C17.632,41.021 17.796,41.492 18.109,41.858L20.571,44.334L15.636,44.334C14.624,44.334 13.653,43.931 12.937,43.214C12.22,42.497 11.818,41.524 11.818,40.509L11.818,21.386C11.818,20.372 12.22,19.399 12.937,18.682C13.653,17.965 14.624,17.562 15.636,17.562L19.455,17.562C19.768,17.561 20.077,17.483 20.353,17.335C20.629,17.186 20.865,16.972 21.039,16.711L23.731,12.676C23.905,12.414 24.141,12.2 24.417,12.052C24.693,11.903 25.002,11.825 25.315,11.825L32.685,11.825C32.998,11.825 33.307,11.903 33.583,12.052C33.859,12.2 34.095,12.414 34.269,12.676L36.961,16.711C37.135,16.972 37.371,17.186 37.647,17.335C37.923,17.483 38.232,17.561 38.545,17.562L42.364,17.562C43.376,17.562 44.347,17.965 45.063,18.682C45.78,19.399 46.182,20.372 46.182,21.386L46.182,40.509C46.182,41.524 45.78,42.497 45.063,43.214C44.347,43.931 43.376,44.334 42.364,44.334L32.875,44.334C32.369,44.334 31.884,44.536 31.526,44.894C31.167,45.253 30.966,45.739 30.966,46.246C30.966,46.754 31.167,47.24 31.526,47.599C31.884,47.957 32.369,48.159 32.875,48.159L42.364,48.159C44.389,48.159 46.331,47.353 47.763,45.918C49.195,44.484 50,42.538 50,40.509Z" fill="#FFFFFF"/>
</svg>
