<svg width="40" height="36" viewBox="0 0 40 36" fill="none" xmlns="http://www.w3.org/2000/svg" xmlns:xlink="http://www.w3.org/1999/xlink">
<path d="M18,34L18,32L18,34ZM10,31.856L9,33.588L10,31.856ZM4.144,26L2.412,27L4.144,26ZM10,4.144L11,5.876L10,4.144ZM25,30.124C22.872,31.353 20.458,32 18,32L18,36C21.16,36 24.264,35.168 27,33.588L25,30.124ZM18,32C15.542,32 13.128,31.353 11,30.124L9,33.588C11.736,35.168 14.84,36 18,36L18,32ZM11,30.124C8.872,28.896 7.104,27.128 5.876,25L2.412,27C3.991,29.736 6.264,32.009 9,33.588L11,30.124ZM5.876,25C4.647,22.872 4,20.458 4,18L0,18C0,21.16 0.832,24.264 2.412,27L5.876,25ZM4,18C4,15.542 4.647,13.128 5.876,11L2.412,9C0.832,11.736 0,14.84 0,18L4,18ZM5.876,11C7.104,8.872 8.872,7.104 11,5.876L9,2.412C6.264,3.991 3.991,6.264 2.412,9L5.876,11ZM11,5.876C13.128,4.647 15.542,4 18,4L18,0C14.84,0 11.736,0.832 9,2.412L11,5.876ZM18,4C20.458,4 22.872,4.647 25,5.876L27,2.412C24.264,0.832 21.16,0 18,0L18,4Z" transform="rotate(0 18 18)" fill="#33363F"/>
<path d="M20,18L18.438,16.751L17.439,18L18.438,19.249L20,18ZM38,20C39.105,20 40,19.105 40,18C40,16.895 39.105,16 38,16L38,20ZM26.438,6.751L18.438,16.751L21.562,19.249L29.562,9.249L26.438,6.751ZM18.438,19.249L26.438,29.249L29.562,26.751L21.562,16.751L18.438,19.249ZM20,20L38,20L38,16L20,16L20,20Z" transform="rotate(360 29 18)" fill="#33363F"/>
</svg>
