<svg width="38" height="36" viewBox="0 0 38 36" fill="none" xmlns="http://www.w3.org/2000/svg" xmlns:xlink="http://www.w3.org/1999/xlink">
<path d="M22,34L22,32L22,34ZM14,31.856L13,33.588L14,31.856ZM8.144,26L6.412,27L8.144,26ZM14,4.144L15,5.876L14,4.144ZM29,30.124C26.872,31.353 24.458,32 22,32L22,36C25.16,36 28.264,35.168 31,33.588L29,30.124ZM22,32C19.542,32 17.128,31.353 15,30.124L13,33.588C15.736,35.168 18.84,36 22,36L22,32ZM15,30.124C12.872,28.896 11.104,27.128 9.876,25L6.412,27C7.991,29.736 10.264,32.009 13,33.588L15,30.124ZM9.876,25C8.647,22.872 8,20.458 8,18L4,18C4,21.16 4.832,24.264 6.412,27L9.876,25ZM8,18C8,15.542 8.647,13.128 9.876,11L6.412,9C4.832,11.736 4,14.84 4,18L8,18ZM9.876,11C11.104,8.872 12.872,7.104 15,5.876L13,2.412C10.264,3.991 7.991,6.264 6.412,9L9.876,11ZM15,5.876C17.128,4.647 19.542,4 22,4L22,0C18.84,0 15.736,0.832 13,2.412L15,5.876ZM22,4C24.458,4 26.872,4.647 29,5.876L31,2.412C28.264,0.832 25.16,0 22,0L22,4Z" transform="rotate(360 22 18)" fill="#33363F"/>
<path d="M2,18L0.438,16.751L-0.561,18L0.438,19.249L2,18ZM20,20C21.105,20 22,19.105 22,18C22,16.895 21.105,16 20,16L20,20ZM8.438,6.751L0.438,16.751L3.562,19.249L11.562,9.249L8.438,6.751ZM0.438,19.249L8.438,29.249L11.562,26.751L3.562,16.751L0.438,19.249ZM2,20L20,20L20,16L2,16L2,20Z" fill="#33363F"/>
</svg>
