<svg width="72" height="30" viewBox="0 0 72 30" fill="none" xmlns="http://www.w3.org/2000/svg" xmlns:xlink="http://www.w3.org/1999/xlink">
<path d="M1.641,7.424C0.578,9.396 0.034,11.605 0.059,13.845C0.061,13.889 0.063,13.934 0.065,13.979C0.074,14.212 0.083,14.457 0.142,14.734C0.232,16.229 0.56,17.699 1.114,19.09C1.205,19.323 1.238,19.428 1.304,19.454C1.37,19.481 1.47,19.425 1.698,19.338C2.105,19.168 2.532,19.046 2.968,18.976C2.983,18.976 2.999,18.972 3.015,18.967C3.044,18.959 3.072,18.951 3.089,18.976C3.104,18.999 3.085,19.022 3.068,19.043C3.056,19.057 3.044,19.071 3.044,19.084L2.714,19.529C2.49,19.83 2.29,20.148 2.117,20.481C2.065,20.565 2.037,20.662 2.037,20.761C2.037,20.859 2.065,20.956 2.117,21.04C2.338,21.4 2.581,21.74 2.82,22.076C2.876,22.154 2.932,22.232 2.987,22.31C3.005,22.34 3.031,22.365 3.063,22.379C3.095,22.394 3.13,22.399 3.165,22.393C3.359,22.37 3.554,22.354 3.749,22.337C4.109,22.306 4.47,22.274 4.829,22.209C5.81,22.022 6.757,21.686 7.636,21.211C9.075,20.492 10.204,19.273 10.811,17.782C10.881,17.683 10.931,17.571 10.956,17.452C10.982,17.334 10.982,17.211 10.959,17.092C10.935,16.973 10.887,16.86 10.818,16.761C10.749,16.661 10.66,16.576 10.557,16.512C10.284,16.243 10.009,15.978 9.735,15.712C9.153,15.151 8.573,14.59 8.017,14.004C7.669,13.643 7.423,13.197 7.303,12.711C7.184,12.224 7.196,11.715 7.337,11.235C7.462,10.78 7.664,10.351 7.934,9.965C8.586,8.974 9.415,8.113 10.379,7.424C12.888,5.483 15.804,4.135 18.908,3.48C18.936,3.475 18.969,3.471 19.002,3.467C19.119,3.454 19.25,3.438 19.27,3.334C19.291,3.224 19.168,3.148 19.06,3.082C19.038,3.068 19.016,3.055 18.997,3.042C18.149,2.453 17.229,1.975 16.26,1.62C14.301,0.851 12.163,0.662 10.1,1.074C8.303,1.427 6.608,2.181 5.144,3.281C3.679,4.381 2.482,5.797 1.641,7.424ZM11.681,22.304L16.419,22.304L16.432,22.336L21.258,22.336C21.31,22.344 21.363,22.338 21.412,22.319C21.461,22.3 21.505,22.269 21.537,22.228C22.62,20.818 23.432,19.221 23.932,17.515C24.182,16.656 24.323,15.768 24.351,14.874C24.418,13.881 24.398,12.884 24.294,11.895C24.06,10.179 23.491,8.526 22.617,7.03C22.465,6.764 22.395,6.751 22.134,6.923C21.63,7.229 21.082,7.458 20.509,7.602C20.496,7.602 20.483,7.607 20.47,7.612C20.445,7.622 20.422,7.631 20.401,7.602C20.374,7.565 20.405,7.537 20.435,7.51C20.441,7.505 20.446,7.499 20.452,7.494C20.667,7.291 20.877,7.081 21.087,6.859C21.265,6.67 21.415,6.456 21.531,6.224C21.586,6.124 21.608,6.009 21.596,5.895C21.583,5.782 21.536,5.675 21.461,5.589C21.329,5.393 21.155,5.219 20.98,5.045C20.928,4.994 20.877,4.942 20.826,4.89C20.77,4.842 20.697,4.817 20.623,4.82C20.172,4.789 19.721,4.789 19.264,4.789C18.925,4.774 18.585,4.817 18.261,4.916C17.049,5.3 15.977,6.034 15.18,7.024C14.731,7.534 14.367,8.113 14.101,8.739C13.984,9.017 13.938,9.321 13.967,9.622C14.054,10.124 14.323,10.576 14.723,10.892C15.116,11.237 15.542,11.543 15.993,11.806C16.412,12.033 16.793,12.322 17.124,12.664C17.332,12.878 17.489,13.137 17.582,13.421C17.676,13.705 17.703,14.006 17.664,14.302C17.574,14.9 17.357,15.471 17.028,15.979C16.32,17.055 15.465,18.027 14.488,18.868C13.313,19.942 12.063,20.931 10.748,21.828L10.265,22.17C10.258,22.177 10.25,22.183 10.242,22.189C10.218,22.207 10.192,22.226 10.202,22.259C10.214,22.304 10.265,22.304 10.303,22.304L10.373,22.304L11.681,22.304Z" clip-rule="evenodd" fill-rule="evenodd" fill="#2791D0"/>
<path d="M38.106,13.635L41.352,13.635L44.629,13.616C44.768,13.616 44.806,13.571 44.806,13.432C44.794,13.256 44.794,13.08 44.806,12.905C44.819,12.746 44.768,12.695 44.603,12.695L38.037,12.695C37.916,12.682 37.916,12.727 37.916,12.816C37.916,12.894 37.917,12.971 37.919,13.047C37.922,13.192 37.924,13.33 37.916,13.451C37.903,13.635 37.967,13.635 38.106,13.635ZM71.975,19.351L71.975,19.386C71.982,19.374 71.991,19.362 72,19.351L72,19.865C71.991,19.854 71.982,19.842 71.975,19.829L71.975,19.865C71.922,20.445 71.683,20.993 71.294,21.427C70.905,21.86 70.386,22.157 69.815,22.272C68.858,22.482 67.859,22.405 66.945,22.05L66.405,21.859C66.37,21.851 66.34,21.83 66.319,21.801C66.298,21.772 66.288,21.736 66.291,21.701L66.291,20.17C66.291,20.03 66.335,20.049 66.424,20.1C66.731,20.27 67.047,20.423 67.37,20.558C67.872,20.788 68.431,20.866 68.977,20.78C69.195,20.735 69.394,20.625 69.548,20.464C69.701,20.303 69.801,20.098 69.834,19.878C69.886,19.687 69.877,19.485 69.809,19.3C69.741,19.114 69.616,18.955 69.453,18.843C69.101,18.58 68.714,18.367 68.304,18.208C68.002,18.08 67.709,17.932 67.428,17.763C66.993,17.529 66.652,17.153 66.462,16.697C66.271,16.242 66.242,15.735 66.38,15.261C66.461,14.775 66.699,14.328 67.059,13.991C67.153,13.915 67.229,13.82 67.281,13.711C67.141,13.674 66.995,13.661 66.85,13.673C66.103,13.673 65.356,13.662 64.608,13.651C63.86,13.64 63.112,13.629 62.366,13.629L49.665,13.629C49.636,13.629 49.61,13.629 49.587,13.63C49.498,13.631 49.453,13.631 49.43,13.609C49.408,13.587 49.409,13.542 49.41,13.452C49.41,13.429 49.411,13.404 49.411,13.375L49.411,12.848L49.411,12.848C49.411,12.758 49.411,12.724 49.427,12.713C49.437,12.706 49.454,12.708 49.482,12.713C49.497,12.716 49.515,12.719 49.538,12.721L65.764,12.721L65.764,12.721C66.577,12.721 67.39,12.721 68.209,12.765L68.558,12.797C68.653,12.797 68.723,12.835 68.736,12.962C68.748,13.088 68.879,13.095 68.986,13.102L68.99,13.102C69.346,13.106 69.703,13.129 70.057,13.172C70.459,13.228 70.853,13.33 71.232,13.477C71.352,13.513 71.456,13.59 71.528,13.694C71.599,13.798 71.634,13.922 71.625,14.048L71.625,14.994C71.632,15.056 71.632,15.117 71.625,15.178C71.587,15.331 71.536,15.337 71.416,15.236C71.116,14.969 70.755,14.782 70.364,14.691C69.974,14.6 69.567,14.608 69.18,14.715C68.988,14.772 68.817,14.887 68.691,15.043C68.566,15.2 68.49,15.391 68.475,15.591C68.435,15.767 68.452,15.95 68.522,16.116C68.593,16.281 68.715,16.42 68.869,16.512C69.2,16.72 69.551,16.894 69.917,17.033C70.272,17.183 70.616,17.359 70.946,17.56C71.247,17.756 71.496,18.021 71.675,18.332C71.854,18.643 71.957,18.992 71.975,19.351ZM51.918,16.48C51.942,16.442 51.967,16.405 51.992,16.367L51.992,16.367L51.992,16.367C52.05,16.28 52.108,16.192 52.154,16.099C52.277,15.864 52.458,15.665 52.681,15.522C52.904,15.378 53.16,15.295 53.424,15.28C54.077,15.193 54.739,15.341 55.291,15.699C55.491,15.838 55.65,16.029 55.749,16.252C55.933,16.582 55.996,16.582 56.2,16.252C56.221,16.218 56.243,16.183 56.264,16.149C56.456,15.844 56.648,15.539 57.025,15.413C57.547,15.215 58.118,15.186 58.657,15.331C58.956,15.413 59.238,15.549 59.489,15.731C59.692,15.895 59.855,16.104 59.965,16.34C60.075,16.577 60.129,16.835 60.124,17.096C60.171,17.74 60.18,18.387 60.188,19.033L60.188,19.033L60.188,19.033L60.188,19.033L60.188,19.033L60.188,19.033L60.188,19.033L60.188,19.035C60.19,19.178 60.192,19.322 60.194,19.465C60.198,19.73 60.2,20.011 60.201,20.298L60.201,20.299C60.204,20.863 60.207,21.454 60.232,22.005L60.232,22.005C60.232,22.145 60.232,22.202 60.048,22.196L58.778,22.196C58.638,22.196 58.606,22.151 58.606,22.024L58.606,19.935L58.606,19.934C58.606,19.242 58.606,18.5 58.562,17.782C58.562,17.642 58.562,17.509 58.518,17.376C58.478,17.111 58.336,16.873 58.122,16.712C57.908,16.552 57.639,16.482 57.374,16.518C56.932,16.544 56.505,16.686 56.136,16.931C56.065,16.967 56.066,17.029 56.066,17.089L56.066,17.103L56.066,19.205L56.066,22.024C56.066,22.151 56.028,22.202 55.895,22.196L54.739,22.196L54.739,22.196C54.625,22.196 54.574,22.196 54.555,22.043C54.479,21.424 54.447,20.8 54.459,20.176L54.459,17.871C54.475,17.667 54.446,17.463 54.373,17.272C54.301,17.081 54.187,16.908 54.04,16.766C53.9,16.632 53.719,16.549 53.526,16.531C52.985,16.503 52.448,16.635 51.983,16.912C51.92,16.949 51.917,16.998 51.915,17.05L51.915,17.05C51.914,17.061 51.914,17.072 51.913,17.084L51.875,20.894L51.875,22.031C51.875,22.158 51.875,22.215 51.71,22.209L50.503,22.209C50.395,22.209 50.357,22.209 50.357,22.062L50.357,15.553C50.357,15.451 50.357,15.413 50.49,15.413L51.729,15.413C51.83,15.413 51.862,15.413 51.868,15.547C51.868,15.772 51.885,16.004 51.901,16.232C51.907,16.316 51.913,16.398 51.918,16.48ZM32.022,13.248C32.56,13.248 33.096,13.303 33.623,13.413C33.736,13.442 33.846,13.481 33.956,13.52C34.038,13.55 34.119,13.579 34.201,13.603C34.229,13.609 34.254,13.626 34.27,13.649C34.286,13.673 34.293,13.702 34.29,13.73L34.29,15.191C34.29,15.426 34.258,15.426 34.042,15.324C33.949,15.28 33.863,15.237 33.779,15.194L33.779,15.194C33.668,15.137 33.561,15.083 33.445,15.032C33.095,14.877 32.716,14.796 32.334,14.796C31.951,14.796 31.572,14.877 31.222,15.032C30.849,15.166 30.53,15.418 30.314,15.75C29.929,16.304 29.709,16.957 29.68,17.631C29.651,18.306 29.813,18.974 30.149,19.56C30.365,19.95 30.68,20.277 31.063,20.506C31.445,20.736 31.881,20.861 32.327,20.868C32.853,20.899 33.379,20.825 33.877,20.652C34.039,20.6 34.204,20.56 34.372,20.532C34.474,20.532 34.518,20.532 34.467,20.652C34.261,21.119 34.005,21.561 33.705,21.973C33.59,22.123 33.422,22.223 33.235,22.253C31.559,22.583 30.016,22.38 28.758,21.11C28.087,20.445 27.692,19.551 27.653,18.608C27.58,17.865 27.621,17.115 27.774,16.385C27.917,15.814 28.179,15.28 28.542,14.817C28.905,14.354 29.362,13.973 29.882,13.698C30.532,13.33 31.28,13.172 32.022,13.248ZM39.523,16.023L39.142,16.569L39.142,16.537L39.142,15.54C39.142,15.426 39.11,15.388 38.989,15.388L37.763,15.388C37.643,15.388 37.611,15.426 37.611,15.54L37.611,22.043C37.611,22.202 37.662,22.202 37.783,22.202L38.97,22.202C39.103,22.208 39.142,22.158 39.142,22.031L39.142,18.582L39.142,17.109C39.136,17.073 39.141,17.036 39.157,17.003C39.173,16.97 39.199,16.943 39.23,16.925C39.599,16.716 40.005,16.581 40.424,16.525C40.575,16.496 40.73,16.499 40.88,16.532C41.03,16.565 41.171,16.628 41.296,16.717C41.422,16.806 41.527,16.919 41.608,17.049C41.688,17.18 41.741,17.326 41.764,17.477C41.822,17.779 41.852,18.085 41.853,18.392C41.885,19.598 41.885,20.811 41.885,22.017L41.885,22.018C41.885,22.158 41.917,22.202 42.063,22.202L43.212,22.202C43.358,22.208 43.39,22.158 43.39,22.018L43.39,20.354C43.385,20.032 43.383,19.709 43.381,19.386L43.381,19.386C43.377,18.601 43.372,17.815 43.314,17.033C43.319,16.69 43.218,16.354 43.024,16.071C42.831,15.788 42.555,15.572 42.234,15.451C41.705,15.264 41.14,15.201 40.583,15.267C40.376,15.265 40.174,15.324 40.001,15.437C39.828,15.55 39.692,15.712 39.612,15.902C39.588,15.946 39.558,15.987 39.523,16.023ZM49.823,18.779C49.811,18.648 49.801,18.517 49.791,18.385C49.771,18.123 49.751,17.86 49.709,17.598C49.646,17.181 49.489,16.783 49.25,16.435C49.011,16.087 48.697,15.798 48.33,15.589C47.963,15.38 47.554,15.257 47.133,15.228C46.712,15.2 46.29,15.268 45.899,15.426C45.458,15.596 45.064,15.867 44.749,16.218C44.433,16.569 44.205,16.99 44.082,17.446C43.889,18.14 43.844,18.867 43.949,19.579C43.99,20.136 44.187,20.669 44.517,21.118C44.847,21.567 45.298,21.915 45.816,22.12C46.678,22.471 47.632,22.525 48.528,22.272C48.74,22.218 48.923,22.087 49.042,21.904C49.232,21.621 49.393,21.322 49.525,21.008C49.525,20.996 49.53,20.983 49.536,20.969C49.547,20.942 49.559,20.913 49.525,20.888C49.491,20.862 49.466,20.871 49.44,20.879C49.427,20.883 49.413,20.888 49.398,20.888L49.226,20.951C48.694,21.155 48.125,21.243 47.556,21.212C47.174,21.207 46.802,21.093 46.482,20.884C46.163,20.674 45.91,20.378 45.753,20.03C45.632,19.738 45.555,19.43 45.524,19.116L45.524,19.116C45.524,18.976 45.524,18.957 45.67,18.957L49.677,18.957L49.696,18.952C49.801,18.925 49.829,18.918 49.823,18.779ZM47.804,17.871L46.978,17.871L45.905,17.871C45.6,17.871 45.549,17.795 45.632,17.496C45.72,17.225 45.876,16.98 46.085,16.786C46.294,16.591 46.549,16.453 46.826,16.385C47.14,16.354 47.454,16.44 47.708,16.628C47.962,16.816 48.136,17.092 48.198,17.401C48.242,17.635 48.264,17.753 48.216,17.812C48.167,17.871 48.046,17.871 47.804,17.871L47.804,17.871ZM65.251,16.039C65.519,16.374 65.67,16.788 65.681,17.217C65.719,18.836 65.751,20.449 65.732,22.069C65.732,22.196 65.694,22.228 65.573,22.228L64.436,22.228C64.322,22.228 64.259,22.196 64.259,22.082C64.241,21.921 64.21,21.763 64.178,21.598C64.165,21.528 64.151,21.457 64.138,21.383C63.99,21.501 63.871,21.651 63.789,21.821C63.681,22.035 63.506,22.208 63.289,22.311C63.073,22.415 62.829,22.443 62.595,22.393C62.37,22.376 62.147,22.34 61.928,22.285C61.473,22.189 61.07,21.926 60.8,21.547C60.531,21.168 60.414,20.701 60.474,20.24C60.469,19.726 60.657,19.229 61,18.846C61.343,18.463 61.817,18.222 62.328,18.17C62.879,18.07 63.438,18.015 63.998,18.004C64.138,17.992 64.176,17.935 64.176,17.814L64.176,17.446C64.141,17.185 64.016,16.944 63.822,16.765C63.628,16.587 63.378,16.481 63.115,16.468C62.625,16.425 62.131,16.49 61.667,16.658L61.159,16.804C61.071,16.83 61.026,16.798 61.071,16.703C61.249,16.322 61.461,15.959 61.706,15.617C61.808,15.494 61.953,15.415 62.112,15.394C62.795,15.228 63.507,15.217 64.195,15.363C64.611,15.467 64.982,15.704 65.251,16.039ZM64.187,20.903C64.2,20.881 64.205,20.855 64.201,20.83L64.163,20.068C64.163,20.026 64.168,19.988 64.173,19.951L64.173,19.951C64.183,19.877 64.193,19.803 64.163,19.694C64.145,19.625 64.154,19.547 64.162,19.471C64.174,19.365 64.186,19.264 64.119,19.205C64.033,19.128 63.893,19.138 63.756,19.148C63.711,19.151 63.666,19.154 63.623,19.154C63.186,19.108 62.748,19.231 62.398,19.497C62.241,19.634 62.129,19.815 62.076,20.017C62.023,20.218 62.031,20.43 62.099,20.627C62.154,20.787 62.257,20.927 62.393,21.028C62.529,21.129 62.692,21.186 62.861,21.192C63.299,21.243 63.742,21.159 64.132,20.951C64.155,20.942 64.174,20.925 64.187,20.903ZM36.697,18.824L36.697,22.044L36.697,22.044C36.697,22.183 36.697,22.234 36.525,22.228L35.439,22.228C35.198,22.228 35.172,22.177 35.172,21.942L35.172,18.055L35.172,15.68C35.172,15.521 35.223,15.477 35.369,15.464C35.64,15.443 35.909,15.45 36.176,15.457C36.31,15.461 36.443,15.464 36.576,15.464C36.699,15.464 36.696,15.528 36.692,15.598C36.691,15.61 36.69,15.623 36.69,15.636L36.697,18.824Z" clip-rule="evenodd" fill-rule="evenodd" fill="#A52627"/>
<path d="M37.3,13.21C37.296,13.469 37.216,13.721 37.069,13.935C36.922,14.149 36.716,14.314 36.475,14.411C36.235,14.507 35.971,14.531 35.717,14.478C35.464,14.425 35.231,14.298 35.049,14.114C34.867,13.929 34.744,13.695 34.695,13.44C34.645,13.186 34.673,12.923 34.773,12.683C34.873,12.444 35.041,12.24 35.257,12.097C35.473,11.953 35.726,11.876 35.985,11.876C36.16,11.875 36.333,11.909 36.494,11.976C36.655,12.043 36.801,12.142 36.924,12.266C37.046,12.39 37.142,12.538 37.207,12.7C37.272,12.862 37.303,13.035 37.3,13.21Z" fill="#EAEAEA"/>
<path d="M4.077,25.097L4.077,25.097L4.077,25.097L4.077,25.097L4.077,25.097L4.077,25.097L4.077,25.097C4.088,24.797 4.098,24.496 4.105,24.196C4.105,24.05 4.156,24.006 4.302,24.006C4.344,24.006 4.381,24.005 4.415,24.005C4.56,24.003 4.631,24.003 4.664,24.037C4.695,24.07 4.694,24.134 4.691,24.257C4.69,24.297 4.689,24.345 4.689,24.399C4.689,24.793 4.68,25.185 4.671,25.577L4.671,25.577L4.671,25.577L4.671,25.577L4.671,25.577L4.671,25.577C4.659,26.115 4.646,26.653 4.657,27.194C4.657,27.336 4.67,27.479 4.695,27.619C4.72,27.782 4.794,27.934 4.907,28.053C5.021,28.172 5.169,28.254 5.331,28.286C5.387,28.301 5.439,28.328 5.484,28.365C5.528,28.403 5.564,28.449 5.588,28.502C5.612,28.555 5.625,28.613 5.624,28.671C5.623,28.729 5.61,28.786 5.585,28.839C5.571,28.868 5.548,28.892 5.519,28.907C5.491,28.922 5.458,28.927 5.426,28.921C5.248,28.924 5.072,28.891 4.908,28.825C4.743,28.76 4.593,28.662 4.466,28.538C4.339,28.414 4.238,28.266 4.168,28.103C4.099,27.94 4.062,27.765 4.06,27.587L4.041,26.673C4.041,26.148 4.059,25.622 4.077,25.097ZM23.881,24.177C23.881,24.05 23.932,24.006 24.052,24.006C24.1,24.006 24.143,24.005 24.182,24.005C24.365,24.004 24.448,24.003 24.483,24.043C24.512,24.077 24.509,24.139 24.503,24.251L24.503,24.251L24.503,24.251L24.503,24.251L24.503,24.251C24.501,24.301 24.498,24.36 24.497,24.431C24.491,24.872 24.479,25.313 24.467,25.754C24.45,26.342 24.433,26.93 24.433,27.518C24.382,27.968 24.16,28.382 23.813,28.674C23.465,28.966 23.019,29.113 22.566,29.086C22.265,29.028 21.983,28.895 21.747,28.698C21.511,28.502 21.328,28.249 21.217,27.963C21.105,27.677 21.068,27.367 21.108,27.062C21.149,26.758 21.266,26.469 21.449,26.222C21.668,25.893 22.003,25.658 22.387,25.563C22.771,25.467 23.177,25.519 23.525,25.708L23.525,25.708C23.702,25.796 23.791,25.84 23.836,25.813C23.881,25.785 23.881,25.684 23.881,25.479L23.881,25.479L23.881,24.939L23.881,24.177ZM23.04,28.398C23.245,28.338 23.427,28.214 23.557,28.045C23.73,27.888 23.842,27.676 23.875,27.445C23.907,27.214 23.858,26.979 23.735,26.781C23.655,26.601 23.526,26.446 23.364,26.334C23.201,26.222 23.011,26.157 22.814,26.146C22.552,26.159 22.301,26.26 22.104,26.434C21.907,26.607 21.774,26.843 21.727,27.101C21.681,27.36 21.724,27.627 21.848,27.858C21.973,28.089 22.172,28.271 22.414,28.375C22.615,28.449 22.834,28.457 23.04,28.398ZM17.003,26.086C17.251,26.36 17.407,26.706 17.448,27.073C17.514,27.502 17.42,27.94 17.183,28.303C16.946,28.667 16.584,28.93 16.165,29.042C15.945,29.09 15.718,29.092 15.498,29.048C15.278,29.005 15.068,28.917 14.883,28.79C14.698,28.662 14.541,28.498 14.422,28.308C14.303,28.118 14.224,27.905 14.19,27.683C14.114,26.991 14.114,26.286 14.114,25.721L14.114,25.721L14.114,24.222C14.114,24.069 14.152,24.006 14.323,24.006L14.339,24.006C14.55,24.012 14.644,24.015 14.684,24.062C14.715,24.1 14.714,24.165 14.712,24.282C14.711,24.316 14.71,24.355 14.71,24.4C14.71,24.528 14.706,24.658 14.701,24.788L14.701,24.788L14.701,24.788L14.701,24.788L14.701,24.788L14.701,24.788L14.701,24.788L14.701,24.788L14.701,24.788C14.691,25.048 14.681,25.31 14.71,25.568C14.73,25.771 14.761,25.797 14.952,25.727C15.299,25.567 15.683,25.506 16.063,25.549C16.425,25.625 16.754,25.813 17.003,26.086ZM16.634,27.993C16.746,27.821 16.808,27.621 16.813,27.416L16.838,27.416C16.865,27.253 16.855,27.087 16.809,26.928C16.762,26.77 16.681,26.624 16.571,26.501C16.46,26.379 16.323,26.282 16.171,26.22C16.018,26.157 15.853,26.13 15.688,26.14C15.409,26.182 15.154,26.325 14.974,26.543C14.793,26.761 14.7,27.038 14.71,27.321C14.712,27.497 14.755,27.671 14.836,27.827C14.917,27.984 15.033,28.119 15.176,28.223C15.319,28.327 15.483,28.396 15.657,28.424C15.831,28.453 16.009,28.44 16.178,28.388C16.364,28.301 16.522,28.164 16.634,27.993ZM11.542,27.518C11.338,27.467 11.129,27.518 11.078,27.664C11.026,27.828 10.937,27.979 10.819,28.104C10.7,28.229 10.555,28.326 10.393,28.387C10.232,28.448 10.059,28.472 9.887,28.457C9.715,28.441 9.549,28.387 9.401,28.299C9.23,28.204 9.23,28.146 9.401,28.013C9.456,27.963 9.513,27.916 9.573,27.873C9.945,27.604 10.337,27.36 10.727,27.117C10.889,27.016 11.051,26.915 11.211,26.813C11.624,26.559 11.63,26.552 11.332,26.178C11.149,25.937 10.901,25.753 10.618,25.646C10.335,25.54 10.028,25.515 9.732,25.574C9.448,25.61 9.182,25.73 8.967,25.917C8.753,26.105 8.598,26.353 8.525,26.629C8.441,26.924 8.4,27.23 8.404,27.537C8.409,27.771 8.469,28 8.58,28.207C8.69,28.413 8.847,28.59 9.039,28.724C9.188,28.874 9.369,28.988 9.568,29.058C9.767,29.129 9.979,29.153 10.189,29.131C10.532,29.085 10.854,28.94 11.117,28.715C11.379,28.489 11.571,28.193 11.669,27.861L11.671,27.841C11.689,27.674 11.7,27.567 11.542,27.518ZM8.912,27.27C8.92,27.088 8.971,26.91 9.06,26.752C9.15,26.593 9.275,26.457 9.427,26.356C9.579,26.256 9.752,26.192 9.933,26.171C10.114,26.15 10.297,26.172 10.468,26.235C10.532,26.235 10.608,26.279 10.621,26.362C10.631,26.426 10.582,26.456 10.536,26.484C10.524,26.492 10.511,26.5 10.5,26.508C10.05,26.815 9.584,27.097 9.103,27.353C8.963,27.422 8.912,27.397 8.912,27.27ZM5.997,25.873C5.908,25.651 5.762,25.53 5.546,25.53C5.292,25.53 5.254,25.581 5.337,25.841C5.661,26.813 6.036,27.767 6.461,28.699C6.493,28.778 6.541,28.849 6.601,28.909C6.633,28.951 6.674,28.985 6.721,29.008C6.769,29.032 6.821,29.044 6.874,29.044C6.927,29.044 6.979,29.032 7.026,29.008C7.074,28.985 7.115,28.951 7.147,28.909C7.241,28.79 7.32,28.66 7.382,28.521C7.52,28.224 7.641,27.918 7.744,27.607C7.858,27.289 7.974,26.972 8.09,26.655L8.09,26.654C8.206,26.337 8.322,26.019 8.436,25.702C8.493,25.543 8.48,25.543 8.309,25.543L7.953,25.543C7.896,25.542 7.839,25.561 7.794,25.597C7.749,25.633 7.717,25.683 7.706,25.74C7.558,26.209 7.406,26.673 7.253,27.14L7.253,27.14L7.14,27.486C7.109,27.581 7.058,27.708 7.033,27.772L7.032,27.772L7.022,27.799C7.001,27.858 6.976,27.925 6.899,27.931C6.821,27.936 6.802,27.893 6.768,27.818L6.753,27.785C6.709,27.69 6.671,27.588 6.632,27.486L6.632,27.486C6.424,26.993 6.236,26.5 6.05,26.012L6.05,26.012L5.997,25.873ZM2.483,25.827C2.489,25.792 2.487,25.755 2.479,25.72C2.479,25.46 2.422,25.403 2.193,25.422C1.932,25.441 1.683,25.544 1.485,25.715C1.287,25.887 1.15,26.118 1.095,26.375C1.067,26.49 1.046,26.606 1.031,26.724C1.015,26.846 1.004,26.969 0.994,27.092C0.976,27.302 0.959,27.513 0.91,27.721C0.89,27.882 0.817,28.032 0.702,28.148C0.587,28.263 0.437,28.336 0.275,28.356L0.142,28.4C-0.006,28.45 -0.003,28.566 0.001,28.682C0.002,28.701 0.002,28.719 0.002,28.737C0.002,28.767 0.008,28.797 0.02,28.825C0.032,28.853 0.05,28.878 0.072,28.899C0.094,28.92 0.12,28.936 0.148,28.946C0.177,28.956 0.207,28.961 0.237,28.959C0.511,28.97 0.779,28.887 0.999,28.724C1.273,28.499 1.458,28.184 1.52,27.835C1.574,27.57 1.6,27.299 1.596,27.029C1.634,26.565 1.736,26.165 2.27,26.044C2.305,26.038 2.339,26.024 2.369,26.004C2.398,25.983 2.424,25.957 2.444,25.927C2.463,25.897 2.476,25.863 2.483,25.827ZM19.289,27.816C19.275,27.366 19.3,26.915 19.366,26.47C19.415,26.168 19.577,25.896 19.818,25.708C20.059,25.52 20.362,25.429 20.667,25.454C20.845,25.454 20.89,25.511 20.896,25.714C20.902,25.917 20.858,26.025 20.68,26.044C20.595,26.037 20.51,26.048 20.429,26.074C20.348,26.101 20.273,26.144 20.209,26.2C20.145,26.257 20.093,26.325 20.056,26.402C20.019,26.479 19.998,26.562 19.994,26.648C19.917,27.024 19.881,27.407 19.886,27.791L19.886,28.775C19.886,28.915 19.835,28.959 19.696,28.959C19.653,28.959 19.615,28.96 19.58,28.96L19.58,28.96C19.427,28.961 19.354,28.962 19.319,28.926C19.288,28.893 19.288,28.828 19.289,28.705L19.289,28.705L19.289,28.705C19.29,28.662 19.29,28.611 19.289,28.553L19.289,27.816ZM12.157,26.553C12.096,27.001 12.073,27.453 12.088,27.905L12.088,28.553C12.088,28.606 12.088,28.651 12.088,28.69C12.087,28.806 12.087,28.866 12.117,28.897C12.149,28.931 12.217,28.93 12.359,28.928C12.393,28.928 12.432,28.928 12.475,28.928C12.634,28.934 12.678,28.871 12.678,28.718C12.687,28.125 12.706,27.535 12.735,26.946C12.723,26.72 12.797,26.496 12.943,26.323C13.09,26.149 13.297,26.038 13.523,26.013C13.566,26.011 13.606,25.993 13.636,25.962C13.665,25.931 13.682,25.89 13.682,25.848C13.688,25.757 13.688,25.665 13.682,25.575C13.681,25.555 13.676,25.535 13.668,25.517C13.659,25.498 13.647,25.482 13.633,25.469C13.618,25.455 13.601,25.444 13.582,25.438C13.563,25.431 13.543,25.428 13.523,25.428C13.304,25.396 13.081,25.436 12.888,25.543C12.7,25.648 12.538,25.793 12.412,25.967C12.286,26.142 12.199,26.341 12.157,26.553ZM18.076,27.213L18.076,25.721C18.076,25.575 18.121,25.517 18.273,25.524C18.322,25.524 18.364,25.523 18.402,25.523C18.553,25.521 18.626,25.52 18.66,25.556C18.692,25.59 18.691,25.655 18.688,25.782C18.687,25.826 18.686,25.877 18.686,25.937L18.686,28.699C18.686,28.921 18.686,28.928 18.457,28.921C18.406,28.921 18.361,28.922 18.322,28.923C18.195,28.925 18.131,28.926 18.1,28.895C18.069,28.864 18.069,28.802 18.07,28.679C18.07,28.638 18.071,28.59 18.07,28.534L18.076,27.213ZM2.784,25.746L2.784,27.225L2.841,28.546C2.841,28.934 2.841,28.934 3.21,28.891C3.216,28.891 3.222,28.89 3.228,28.889C3.343,28.883 3.394,28.832 3.394,28.724L3.394,28.013L3.394,25.924C3.403,25.693 3.416,25.593 3.372,25.55C3.328,25.507 3.226,25.523 3.006,25.523C2.828,25.517 2.784,25.581 2.784,25.746Z" clip-rule="evenodd" fill-rule="evenodd" fill="#EAEAEA"/>
<path d="M18.407,25.098C18.358,25.1 18.311,25.092 18.266,25.075C18.221,25.058 18.179,25.032 18.145,24.999C18.11,24.966 18.082,24.926 18.062,24.882C18.043,24.838 18.033,24.791 18.032,24.742C18.035,24.696 18.047,24.65 18.068,24.608C18.089,24.566 18.118,24.529 18.154,24.498C18.189,24.467 18.23,24.444 18.275,24.429C18.319,24.415 18.366,24.409 18.413,24.412C18.458,24.408 18.504,24.415 18.547,24.43C18.59,24.446 18.629,24.47 18.661,24.502C18.694,24.534 18.719,24.573 18.735,24.615C18.752,24.658 18.759,24.703 18.756,24.749C18.759,24.795 18.751,24.842 18.735,24.886C18.718,24.929 18.693,24.969 18.66,25.002C18.627,25.035 18.587,25.061 18.543,25.077C18.5,25.094 18.453,25.101 18.407,25.098Z" fill="#EAEAEA"/>
<path d="M3.108,24.418C3.317,24.418 3.451,24.526 3.451,24.704C3.454,24.804 3.418,24.902 3.35,24.975C3.283,25.049 3.189,25.093 3.089,25.098C3.045,25.096 3.002,25.084 2.963,25.065C2.924,25.046 2.889,25.019 2.86,24.985C2.832,24.952 2.81,24.913 2.797,24.872C2.784,24.83 2.779,24.786 2.784,24.742C2.777,24.698 2.781,24.653 2.795,24.611C2.809,24.569 2.833,24.531 2.865,24.499C2.896,24.468 2.934,24.444 2.977,24.43C3.019,24.416 3.064,24.412 3.108,24.418Z" fill="#EAEAEA"/>
<path d="M57.273,8.288C57.218,8.349 57.143,8.389 57.061,8.399C56.979,8.41 56.897,8.39 56.828,8.345C56.72,8.282 56.828,8.186 56.828,8.097C56.828,8.008 56.79,8.097 56.777,8.097C56.669,8.263 56.434,8.32 56.384,8.536L56.079,8.828C55.926,8.885 55.977,8.771 55.99,8.713C56.049,8.431 56.134,8.155 56.244,7.888C56.276,7.793 56.314,7.704 56.346,7.608C56.422,7.38 56.346,7.31 56.111,7.297C55.932,7.267 55.768,7.178 55.647,7.043C55.456,6.815 55.374,6.802 55.145,7.005C55.069,7.075 55.006,7.177 54.879,7.183C54.915,7.054 54.964,6.928 55.025,6.808C55.206,6.444 55.332,6.054 55.399,5.652C55.469,5.431 55.469,5.194 55.399,4.973C55.192,4.801 54.964,4.656 54.72,4.541C54.533,4.387 54.331,4.253 54.116,4.141C53.858,3.958 53.586,3.794 53.304,3.652C53.272,3.595 53.215,3.582 53.164,3.55C53.005,3.55 52.834,3.582 52.662,3.436C52.808,3.436 52.916,3.493 53.024,3.436C52.781,3.328 52.51,3.299 52.249,3.353C51.592,3.502 50.967,3.771 50.408,4.147C50.138,4.299 49.877,4.466 49.627,4.649C49.29,4.871 48.991,5.113 48.649,5.367C48.013,5.837 47.448,6.338 46.877,6.865L46.775,6.954C46.14,7.519 45.556,8.091 44.978,8.694C44.667,9.018 44.343,9.329 44.038,9.672L42.8,10.981C42.755,11.031 42.679,11.076 42.8,11.152C43.022,11.33 43.238,11.508 43.479,11.666C43.494,11.68 43.511,11.689 43.53,11.695C43.549,11.7 43.569,11.701 43.588,11.698C43.608,11.695 43.626,11.688 43.642,11.677C43.659,11.666 43.672,11.652 43.682,11.635C43.822,11.47 43.974,11.317 44.114,11.152C44.129,11.128 44.148,11.107 44.171,11.092C44.195,11.076 44.221,11.065 44.249,11.06C44.276,11.056 44.305,11.057 44.332,11.064C44.359,11.071 44.384,11.084 44.406,11.101C44.908,11.381 45.416,11.654 45.924,11.927L47.01,12.524C47.124,12.587 47.143,12.651 47.061,12.746C46.978,12.841 46.966,12.873 46.908,12.93C46.851,12.987 46.8,13.095 46.94,13.159C47.08,13.222 47.239,13.324 47.391,13.407C47.791,13.622 47.798,13.629 48.071,13.254C48.833,12.232 49.582,11.209 50.331,10.18C50.447,10.066 50.551,9.94 50.643,9.806C51.329,8.917 52.027,8.034 52.757,7.183C52.802,7.132 52.827,7.043 52.923,7.062C52.745,7.507 52.548,7.932 52.402,8.383C52.307,8.586 52.237,8.799 52.192,9.018C52.154,9.117 52.154,9.227 52.195,9.325C52.235,9.423 52.311,9.502 52.408,9.545L52.484,9.609C52.522,9.641 52.554,9.679 52.611,9.679L52.649,9.647C52.757,9.676 52.857,9.726 52.944,9.795C53.032,9.864 53.104,9.95 53.157,10.047C53.165,10.084 53.176,10.12 53.189,10.155C53.234,10.185 53.277,10.219 53.316,10.257C53.507,10.434 53.589,10.434 53.805,10.257C53.873,10.219 53.935,10.172 53.989,10.117C54.385,9.718 54.754,9.294 55.094,8.847C55.164,8.764 55.209,8.745 55.266,8.847C55.323,8.948 55.495,9.025 55.628,9.063C55.761,9.101 55.844,9.126 55.945,9.158C56.047,9.19 56.212,9.317 56.346,9.228C56.479,9.139 56.561,9.12 56.663,9.05C56.86,8.898 57.043,8.727 57.209,8.542C57.261,8.468 57.283,8.377 57.273,8.288ZM43.727,10.987C43.622,10.955 43.523,10.906 43.435,10.841C43.43,10.831 43.428,10.82 43.428,10.809C43.428,10.798 43.43,10.787 43.435,10.777C43.492,10.682 43.562,10.568 43.67,10.555C43.732,10.554 43.794,10.568 43.849,10.597C43.905,10.626 43.952,10.668 43.987,10.72C44.019,10.777 43.835,10.981 43.727,10.987ZM55.012,7.615C54.942,7.551 54.948,7.519 55.012,7.431L55.088,7.354C55.19,7.354 55.253,7.399 55.329,7.437C55.406,7.475 55.329,7.475 55.329,7.5C55.324,7.569 55.304,7.636 55.272,7.697C55.261,7.717 55.246,7.734 55.228,7.748L55.063,7.672L55.012,7.615ZM54.097,7.875L53.926,8.224C53.869,8.351 53.793,8.421 53.659,8.307C53.616,8.281 53.569,8.262 53.519,8.25L53.1,7.97C52.999,7.907 52.967,7.843 53.024,7.729L53.234,7.272C53.265,7.196 53.31,7.189 53.373,7.234C53.615,7.392 53.881,7.494 54.116,7.666C54.18,7.748 54.129,7.812 54.097,7.875ZM52.541,9.399C52.484,9.326 52.453,9.235 52.453,9.142C52.453,9.049 52.484,8.958 52.541,8.885C52.592,8.847 52.63,8.885 52.662,8.885C52.694,8.885 52.878,9.037 52.98,9.113C52.865,9.25 52.713,9.349 52.541,9.399ZM52.719,6.649C52.681,6.592 52.554,6.586 52.618,6.484C52.681,6.383 52.764,6.44 52.853,6.484C52.942,6.529 52.948,6.605 52.853,6.681L52.802,6.681L52.738,6.681L52.719,6.649ZM49.366,9.399C48.731,9.082 48.14,8.764 47.537,8.402C47.391,8.326 47.251,8.237 47.112,8.155C46.972,8.072 47.004,8.053 47.112,7.97C47.309,7.78 47.493,7.589 47.683,7.392C47.866,7.242 48.036,7.076 48.191,6.897C48.215,6.888 48.236,6.875 48.255,6.859C48.328,6.799 48.394,6.731 48.452,6.656C48.472,6.627 48.498,6.602 48.528,6.583C48.558,6.564 48.592,6.552 48.627,6.546C48.662,6.541 48.698,6.543 48.732,6.552C48.766,6.561 48.798,6.577 48.826,6.599L49.633,7.069L49.785,7.17L50.859,7.805C50.967,7.862 50.998,7.92 50.903,8.021C50.808,8.123 50.77,8.18 50.706,8.262L50.636,8.345C50.325,8.669 50.058,9.025 49.766,9.368C49.582,9.539 49.595,9.533 49.366,9.399ZM51.589,7.221L51.525,7.297L51.481,7.348C51.309,7.539 51.309,7.539 51.094,7.418L49.893,6.745L49.138,6.3C48.96,6.199 48.96,6.186 49.138,6.046C49.315,5.906 49.468,5.805 49.614,5.652L49.671,5.589L49.798,5.487L49.842,5.449C49.984,5.365 50.118,5.27 50.243,5.163C50.276,5.139 50.316,5.125 50.357,5.125C50.398,5.125 50.438,5.139 50.471,5.163L52.332,6.243C52.44,6.306 52.427,6.357 52.332,6.433C52.065,6.7 51.805,6.948 51.576,7.234L51.589,7.221ZM52.383,5.913C52.052,5.671 51.652,5.532 51.322,5.278L51.182,5.189C51.043,5.106 50.903,5.017 50.757,4.941C50.611,4.865 50.649,4.82 50.757,4.757L50.89,4.655C51.106,4.522 51.309,4.376 51.525,4.255C51.565,4.23 51.612,4.217 51.659,4.217C51.706,4.217 51.752,4.23 51.792,4.255L53.304,5.163C53.481,5.271 53.481,5.322 53.304,5.455C53.126,5.589 53.107,5.646 53.005,5.741C52.97,5.765 52.938,5.793 52.91,5.824L52.859,5.881C52.713,6.103 52.541,6.059 52.37,5.925L52.383,5.913ZM55.031,5.113C55.031,5.214 55.031,5.316 55.031,5.411C55.031,5.506 54.948,5.538 54.859,5.487L54.593,5.348L54.631,5.309L54.675,5.259L54.942,5.081L55.006,5.081C55.006,5.081 55.012,5.074 55.018,5.125L55.031,5.113ZM54.891,6.719L54.809,6.681C54.809,6.637 54.809,6.58 54.866,6.573C54.882,6.571 54.898,6.574 54.912,6.582C54.926,6.59 54.936,6.603 54.942,6.618C54.948,6.688 54.923,6.713 54.879,6.732L54.891,6.719ZM54.358,4.954C54.391,4.953 54.423,4.961 54.451,4.978C54.479,4.995 54.502,5.02 54.517,5.049C54.517,5.106 54.517,5.106 54.447,5.113L54.313,5.024C54.269,4.986 54.294,4.954 54.345,4.954L54.358,4.954ZM53.774,5.5C53.774,5.462 53.774,5.424 53.837,5.436C53.867,5.441 53.895,5.453 53.919,5.47C53.943,5.488 53.963,5.511 53.977,5.538C53.977,5.595 53.932,5.614 53.888,5.602C53.859,5.605 53.83,5.598 53.807,5.582C53.783,5.565 53.767,5.541 53.761,5.513L53.774,5.5ZM53.672,4.916C53.634,4.916 53.608,4.916 53.608,4.852C53.608,4.789 53.608,4.795 53.659,4.801C53.676,4.804 53.692,4.813 53.703,4.825C53.715,4.838 53.722,4.854 53.723,4.871C53.71,4.916 53.697,4.954 53.659,4.954L53.672,4.916ZM53.672,4.674C53.662,4.674 53.652,4.672 53.643,4.669C53.633,4.665 53.625,4.659 53.618,4.652C53.611,4.645 53.605,4.637 53.601,4.627C53.598,4.618 53.596,4.608 53.596,4.598C53.596,4.598 53.596,4.56 53.64,4.56C53.66,4.561 53.678,4.568 53.693,4.581C53.708,4.594 53.719,4.611 53.723,4.63C53.735,4.681 53.71,4.7 53.678,4.687L53.672,4.674ZM53.202,5.887C53.209,5.878 53.217,5.871 53.227,5.866C53.237,5.86 53.248,5.857 53.259,5.856C53.271,5.851 53.285,5.851 53.297,5.856C53.301,5.874 53.301,5.894 53.297,5.913C53.288,5.941 53.271,5.966 53.246,5.983L53.183,5.938C53.188,5.924 53.197,5.911 53.208,5.9L53.202,5.887ZM53.913,5.252C53.913,5.252 53.951,5.208 53.977,5.221C54.002,5.233 54.129,5.271 54.161,5.348C54.193,5.424 54.11,5.411 54.078,5.392C54.047,5.373 53.926,5.373 53.92,5.278L53.913,5.252ZM54.097,5.081C54.146,5.07 54.196,5.075 54.241,5.095C54.286,5.116 54.322,5.151 54.345,5.195C54.243,5.246 54.186,5.189 54.104,5.106L54.097,5.081ZM54.097,4.833L54.04,4.871C53.989,4.901 53.94,4.935 53.894,4.973C53.892,4.954 53.892,4.935 53.894,4.916C53.856,4.798 53.856,4.671 53.894,4.554L53.894,4.477L54.091,4.605C54.256,4.738 54.256,4.738 54.097,4.859L54.097,4.833ZM52.999,6.103C53.056,6.103 53.094,6.103 53.145,6.141L53.208,6.211C53.198,6.239 53.179,6.263 53.155,6.28C53.13,6.296 53.101,6.305 53.072,6.305C53.042,6.305 53.013,6.296 52.989,6.28C52.964,6.263 52.946,6.239 52.935,6.211C52.878,6.186 52.942,6.16 52.999,6.141L52.999,6.103ZM53.367,6.853C53.403,6.657 53.465,6.467 53.551,6.287C53.56,6.27 53.571,6.253 53.583,6.237C53.619,6.221 53.659,6.216 53.699,6.221C53.738,6.227 53.775,6.243 53.805,6.268L54.396,6.592C54.426,6.604 54.454,6.621 54.478,6.643C54.567,6.707 54.574,6.802 54.51,6.923C54.438,7.071 54.374,7.224 54.32,7.38C54.288,7.462 54.237,7.481 54.167,7.431L53.418,6.967C53.404,6.96 53.392,6.949 53.383,6.935C53.374,6.922 53.368,6.907 53.367,6.891L53.367,6.853ZM54.51,7.323C54.51,7.291 54.51,7.272 54.555,7.265C54.599,7.259 54.644,7.265 54.644,7.348C54.644,7.354 54.644,7.361 54.642,7.367C54.64,7.373 54.637,7.379 54.633,7.384C54.629,7.388 54.624,7.392 54.618,7.395C54.612,7.398 54.606,7.399 54.599,7.399C54.582,7.404 54.564,7.403 54.548,7.396C54.532,7.389 54.518,7.376 54.51,7.361L54.51,7.323ZM54.51,7.564C54.51,7.608 54.51,7.627 54.447,7.646C54.429,7.642 54.414,7.633 54.402,7.619C54.391,7.605 54.384,7.588 54.383,7.57C54.383,7.526 54.383,7.5 54.44,7.507C54.497,7.513 54.517,7.564 54.517,7.602L54.51,7.564ZM54.682,7.17C54.637,7.17 54.593,7.132 54.605,7.075C54.604,7.068 54.605,7.061 54.608,7.054C54.611,7.047 54.616,7.042 54.622,7.038C54.628,7.034 54.635,7.032 54.642,7.032C54.649,7.031 54.656,7.033 54.663,7.037C54.707,7.037 54.752,7.069 54.739,7.126C54.726,7.183 54.72,7.215 54.688,7.208L54.682,7.17ZM54.682,6.859C54.681,6.849 54.682,6.838 54.685,6.829C54.689,6.819 54.695,6.81 54.702,6.803C54.709,6.796 54.718,6.79 54.728,6.787C54.737,6.783 54.748,6.782 54.758,6.783C54.782,6.784 54.806,6.793 54.824,6.809C54.843,6.826 54.855,6.848 54.859,6.872C54.859,6.916 54.815,6.923 54.783,6.923C54.752,6.923 54.688,6.948 54.682,6.897L54.682,6.859ZM54.879,5.837C54.821,6.014 54.771,6.192 54.72,6.37C54.669,6.548 54.631,6.478 54.542,6.427C54.345,6.313 54.142,6.199 53.939,6.097C53.735,5.995 53.831,5.983 53.939,5.906C54.047,5.83 54.021,5.817 54.066,5.773L54.377,5.5L54.415,5.5L54.815,5.722C54.843,5.735 54.865,5.758 54.877,5.786C54.889,5.814 54.889,5.846 54.879,5.875L54.879,5.837ZM54.428,4.846C54.479,4.83 54.535,4.834 54.584,4.856C54.633,4.878 54.672,4.917 54.694,4.966C54.605,4.967 54.518,4.938 54.447,4.884L54.428,4.846ZM53.45,4.268C53.495,4.477 53.495,4.694 53.45,4.903C53.447,4.926 53.447,4.95 53.45,4.973L52.027,4.115C51.989,4.115 51.919,4.077 51.925,4.014C51.932,3.95 51.995,3.95 52.04,3.925C52.389,3.728 52.738,3.595 53.088,3.957C53.187,4.04 53.298,4.109 53.418,4.16C53.436,4.211 53.447,4.265 53.45,4.319L53.45,4.268ZM55.603,7.621C55.605,7.611 55.605,7.6 55.603,7.589C55.595,7.562 55.595,7.534 55.603,7.507C55.666,7.545 55.768,7.551 55.768,7.666C55.713,7.682 55.655,7.68 55.603,7.659L55.603,7.621ZM55.818,7.983C55.837,7.962 55.852,7.939 55.863,7.913L55.933,7.913C55.942,7.934 55.947,7.957 55.947,7.98C55.947,8.003 55.942,8.026 55.933,8.047C55.933,8.091 55.882,8.135 55.818,8.104C55.755,8.072 55.793,8.066 55.818,8.021L55.818,7.983ZM55.514,7.094L55.901,7.304C55.909,7.321 55.912,7.339 55.912,7.358C55.912,7.376 55.909,7.394 55.901,7.412L55.863,7.412C55.831,7.435 55.792,7.447 55.752,7.447C55.712,7.447 55.673,7.435 55.641,7.412C55.539,7.348 55.431,7.304 55.323,7.24C55.215,7.177 55.209,7.196 55.26,7.119C55.269,7.093 55.288,7.07 55.311,7.054C55.335,7.039 55.363,7.031 55.391,7.033C55.42,7.034 55.447,7.044 55.469,7.062C55.491,7.08 55.506,7.105 55.514,7.132L55.514,7.094ZM54.98,6.427C54.97,6.427 54.961,6.425 54.952,6.421C54.943,6.417 54.935,6.412 54.928,6.404C54.922,6.397 54.917,6.389 54.914,6.38C54.911,6.37 54.909,6.361 54.91,6.351C54.91,6.319 54.91,6.294 54.967,6.306C54.987,6.311 55.004,6.321 55.016,6.336C55.029,6.351 55.036,6.37 55.037,6.389C55.031,6.459 55.012,6.478 54.98,6.465L54.98,6.427ZM55.082,6.224C55.044,6.224 55.006,6.224 55.006,6.154C55.006,6.084 55.006,6.091 55.044,6.097C55.082,6.103 55.12,6.097 55.126,6.167C55.128,6.174 55.129,6.181 55.127,6.188C55.126,6.195 55.123,6.201 55.119,6.207C55.114,6.212 55.109,6.217 55.102,6.22C55.096,6.223 55.089,6.224 55.082,6.224ZM55.133,5.983C55.094,5.983 55.044,5.951 55.056,5.894C55.069,5.837 55.094,5.849 55.126,5.856C55.158,5.862 55.209,5.887 55.215,5.944C55.216,5.957 55.212,5.968 55.206,5.978C55.199,5.988 55.189,5.996 55.178,6C55.167,6.004 55.155,6.005 55.143,6.002C55.131,5.999 55.121,5.992 55.114,5.983L55.133,5.983ZM55.253,5.557C55.234,5.558 55.215,5.553 55.199,5.543C55.183,5.533 55.171,5.518 55.164,5.5C55.164,5.462 55.164,5.443 55.202,5.449C55.222,5.451 55.24,5.458 55.256,5.469C55.271,5.48 55.283,5.495 55.291,5.513C55.291,5.513 55.26,5.589 55.234,5.589L55.253,5.557ZM55.31,4.954L55.31,4.992C55.279,4.992 55.348,5.106 55.266,5.087C55.183,5.068 55.133,5.024 55.19,4.928L55.234,4.928C55.255,4.931 55.275,4.94 55.291,4.954L55.31,4.954ZM54.993,4.751C54.999,4.755 55.005,4.761 55.008,4.769C55.012,4.776 55.014,4.784 55.014,4.792C55.014,4.8 55.012,4.808 55.008,4.815C55.005,4.822 54.999,4.828 54.993,4.833C54.904,4.865 54.859,4.801 54.809,4.751C54.832,4.731 54.861,4.72 54.891,4.72C54.922,4.72 54.951,4.731 54.974,4.751L54.993,4.751ZM54.872,4.909C54.752,4.909 54.688,4.871 54.644,4.789C54.72,4.776 54.764,4.827 54.853,4.909L54.872,4.909ZM54.65,4.554L54.688,4.585L54.586,4.585L54.51,4.585L53.875,4.198C53.85,4.187 53.828,4.168 53.813,4.144C53.799,4.12 53.791,4.093 53.793,4.065C54.082,4.211 54.362,4.374 54.631,4.554L54.65,4.554ZM53.278,3.684C53.278,3.754 53.361,3.817 53.361,3.893C53.366,3.914 53.366,3.936 53.361,3.957C53.221,3.842 53.03,3.811 52.878,3.658C53.012,3.649 53.147,3.657 53.278,3.684ZM52.732,3.55C52.605,3.55 52.554,3.512 52.465,3.461C52.599,3.449 52.643,3.512 52.732,3.576L52.732,3.55ZM52.472,3.595C52.364,3.626 52.307,3.595 52.211,3.493C52.263,3.483 52.316,3.49 52.363,3.513C52.41,3.536 52.448,3.574 52.472,3.62L52.472,3.595ZM52.033,3.55C52.07,3.546 52.107,3.551 52.14,3.565C52.174,3.58 52.203,3.603 52.224,3.633C52.224,3.633 52.224,3.665 52.224,3.665C52.224,3.665 52.084,3.633 52.033,3.569L52.033,3.55ZM51.748,3.658C51.761,3.643 51.779,3.632 51.798,3.626C51.835,3.634 51.87,3.65 51.901,3.671C51.931,3.693 51.957,3.721 51.976,3.753C51.875,3.804 51.824,3.753 51.76,3.696C51.697,3.639 51.741,3.684 51.748,3.684L51.748,3.658ZM51.538,3.747C51.573,3.752 51.607,3.765 51.637,3.785C51.667,3.804 51.692,3.831 51.71,3.861C51.709,3.87 51.707,3.877 51.703,3.884C51.699,3.891 51.693,3.897 51.686,3.902C51.679,3.906 51.671,3.909 51.663,3.909C51.655,3.91 51.647,3.909 51.64,3.906C51.563,3.906 51.487,3.868 51.468,3.792C51.449,3.715 51.506,3.766 51.538,3.773L51.538,3.747ZM51.252,3.887C51.291,3.893 51.327,3.907 51.359,3.929C51.391,3.951 51.418,3.98 51.436,4.014C51.436,4.065 51.379,4.084 51.341,4.071C51.303,4.058 51.182,4.027 51.17,3.944C51.157,3.861 51.214,3.906 51.271,3.912L51.252,3.887ZM50.947,4.058C51.019,4.077 51.081,4.12 51.125,4.179C51.123,4.191 51.119,4.202 51.112,4.212C51.105,4.221 51.096,4.23 51.086,4.236C51.076,4.242 51.064,4.245 51.052,4.247C51.041,4.248 51.029,4.246 51.017,4.243C50.947,4.243 50.852,4.211 50.833,4.128C50.814,4.046 50.89,4.071 50.947,4.084L50.947,4.058ZM50.763,4.319C50.82,4.357 50.84,4.395 50.763,4.452L50.725,4.452C50.657,4.456 50.59,4.436 50.535,4.395C50.471,4.35 50.465,4.312 50.497,4.274L50.535,4.243C50.616,4.247 50.695,4.273 50.763,4.319ZM50.185,4.503C50.306,4.465 50.382,4.535 50.458,4.598C50.452,4.617 50.44,4.634 50.425,4.647C50.409,4.659 50.39,4.666 50.37,4.668C50.321,4.672 50.272,4.663 50.228,4.643C50.184,4.623 50.145,4.592 50.116,4.554C50.096,4.566 50.154,4.541 50.185,4.528L50.185,4.503ZM49.83,4.744C49.931,4.744 50.001,4.789 50.084,4.839L50.128,4.839C50.077,4.935 50.008,4.998 49.9,4.928C49.792,4.859 49.703,4.871 49.779,4.738L49.83,4.744ZM49.487,5.017C49.563,5.062 49.684,5.074 49.696,5.182C49.709,5.29 49.633,5.297 49.569,5.284C49.506,5.271 49.372,5.24 49.353,5.132C49.334,5.024 49.417,5.062 49.487,5.043L49.487,5.017ZM49.163,5.379C49.163,5.379 49.207,5.411 49.239,5.43C49.277,5.43 49.309,5.468 49.284,5.532C49.258,5.595 49.169,5.665 49.112,5.621C49.055,5.576 48.903,5.576 48.915,5.455C48.915,5.455 48.915,5.424 48.915,5.405C48.95,5.375 48.994,5.359 49.039,5.359C49.084,5.359 49.128,5.375 49.163,5.405L49.163,5.379ZM48.464,5.792C48.477,5.769 48.495,5.748 48.517,5.733C48.539,5.718 48.565,5.708 48.591,5.704C48.618,5.7 48.645,5.703 48.67,5.712C48.696,5.72 48.719,5.735 48.737,5.754L48.858,5.817C48.861,5.832 48.861,5.847 48.858,5.862C48.858,5.976 48.763,6.014 48.636,5.976L48.598,5.976C48.56,5.925 48.388,5.944 48.464,5.817L48.464,5.792ZM48.001,6.199C48.009,6.174 48.023,6.153 48.041,6.135C48.06,6.118 48.083,6.106 48.107,6.1C48.132,6.093 48.158,6.093 48.182,6.099C48.207,6.106 48.23,6.118 48.248,6.135L48.312,6.135L48.369,6.186C48.426,6.262 48.369,6.294 48.255,6.376L48.217,6.376C48.181,6.36 48.148,6.341 48.115,6.319C48.058,6.345 47.944,6.332 48.001,6.224L48.001,6.199ZM47.505,6.618C47.563,6.567 47.607,6.484 47.702,6.522L47.823,6.586C47.867,6.618 47.956,6.637 47.918,6.719C47.902,6.754 47.876,6.784 47.843,6.806C47.811,6.827 47.773,6.839 47.734,6.84C47.649,6.82 47.57,6.779 47.505,6.719C47.461,6.719 47.461,6.675 47.505,6.643L47.505,6.618ZM47.41,7.119C47.422,7.131 47.428,7.147 47.428,7.164C47.428,7.18 47.422,7.196 47.41,7.208C47.407,7.223 47.407,7.238 47.41,7.253C47.356,7.295 47.287,7.315 47.218,7.308C47.15,7.301 47.086,7.267 47.042,7.215C46.966,7.138 47.042,7.094 47.074,7.037L47.112,7.037C47.166,7.029 47.222,7.035 47.274,7.053C47.326,7.072 47.373,7.104 47.41,7.145L47.41,7.119ZM46.61,7.494C46.665,7.499 46.719,7.516 46.767,7.543C46.815,7.57 46.857,7.608 46.889,7.653C46.832,7.748 46.788,7.856 46.68,7.843C46.572,7.831 46.432,7.78 46.419,7.666C46.407,7.551 46.508,7.494 46.61,7.494ZM45.861,8.18C45.884,8.126 45.928,8.084 45.983,8.062C46.038,8.041 46.099,8.042 46.153,8.066C46.299,8.129 46.343,8.167 46.337,8.218C46.319,8.276 46.281,8.325 46.23,8.357C46.178,8.388 46.117,8.4 46.057,8.39C46.032,8.379 46.008,8.364 45.988,8.345C45.93,8.326 45.816,8.326 45.861,8.205L45.861,8.18ZM45.715,8.707C45.791,8.758 45.791,8.802 45.746,8.872L45.708,8.904C45.676,8.933 45.638,8.954 45.597,8.965C45.555,8.976 45.512,8.978 45.47,8.969C45.428,8.96 45.388,8.942 45.355,8.915C45.321,8.888 45.294,8.854 45.276,8.815C45.274,8.802 45.274,8.789 45.276,8.777C45.486,8.599 45.511,8.593 45.715,8.764L45.715,8.707ZM44.59,10.079C44.571,10.128 44.539,10.172 44.498,10.207C44.457,10.241 44.408,10.265 44.355,10.276C44.258,10.247 44.167,10.2 44.089,10.136C44.044,10.104 44.057,10.053 44.089,10.015C44.12,9.977 44.209,9.825 44.343,9.869C44.387,9.883 44.428,9.904 44.463,9.933C44.521,9.996 44.641,10.034 44.59,10.104L44.59,10.079ZM44.692,9.387C44.775,9.234 44.883,9.196 45.01,9.26C45.137,9.323 45.162,9.323 45.2,9.393C45.238,9.463 44.997,9.647 44.902,9.609C44.874,9.6 44.849,9.587 44.825,9.571C44.768,9.539 44.622,9.552 44.692,9.399L44.692,9.387ZM47.321,11.971L44.851,10.669C44.711,10.593 44.698,10.53 44.806,10.415L45.988,9.113C46.134,8.961 46.292,8.809 46.438,8.65C46.466,8.612 46.508,8.587 46.554,8.58C46.601,8.573 46.648,8.584 46.686,8.612L49.08,9.926C49.131,9.958 49.176,9.99 49.182,10.053L49.182,10.091L47.709,11.94C47.55,12.117 47.55,12.124 47.321,11.997L47.321,11.971ZM47.709,13.133C47.62,13.133 47.385,12.981 47.385,12.918C47.385,12.854 47.543,12.676 47.62,12.676C47.745,12.699 47.856,12.77 47.931,12.873C47.919,12.935 47.893,12.993 47.854,13.043C47.815,13.092 47.766,13.132 47.709,13.159L47.709,13.133ZM48.255,12.397C48.166,12.397 47.95,12.251 47.95,12.187C47.964,12.135 47.991,12.086 48.027,12.045C48.064,12.005 48.109,11.973 48.16,11.952C48.242,11.952 48.471,12.098 48.471,12.155C48.456,12.213 48.43,12.267 48.392,12.313C48.355,12.359 48.308,12.396 48.255,12.422L48.255,12.397ZM48.776,11.705C48.68,11.705 48.458,11.546 48.477,11.489C48.496,11.431 48.56,11.273 48.687,11.285C48.748,11.286 48.809,11.304 48.861,11.336C48.914,11.369 48.957,11.415 48.985,11.47C49.01,11.546 48.833,11.73 48.776,11.73L48.776,11.705ZM49.277,11.031C49.163,10.987 49.03,10.962 48.985,10.835C48.941,10.708 49.118,10.612 49.188,10.619C49.258,10.625 49.48,10.771 49.48,10.815C49.48,10.86 49.322,11.076 49.277,11.057L49.277,11.031ZM49.912,10.282C49.855,10.358 49.811,10.447 49.671,10.377C49.531,10.307 49.423,10.219 49.569,10.041L49.614,9.99L49.855,10.098L49.893,10.098C49.931,10.187 50.001,10.231 49.906,10.307L49.912,10.282ZM50.204,9.799C50.109,9.799 49.963,9.749 49.957,9.615C49.95,9.482 50.02,9.412 50.135,9.431C50.25,9.452 50.353,9.518 50.42,9.615C50.357,9.736 50.306,9.85 50.198,9.825L50.204,9.799ZM50.662,9.24C50.554,9.24 50.427,9.19 50.408,9.056C50.407,9.014 50.423,8.973 50.451,8.941C50.479,8.91 50.518,8.89 50.56,8.885C50.636,8.885 50.833,9.018 50.827,9.088C50.82,9.158 50.757,9.279 50.636,9.266L50.662,9.24ZM51.163,8.694C51.049,8.777 50.973,8.694 50.89,8.631C50.808,8.567 50.795,8.574 50.827,8.51C50.841,8.479 50.863,8.452 50.889,8.43C50.915,8.408 50.946,8.392 50.979,8.383C51.08,8.4 51.171,8.454 51.233,8.536C51.271,8.624 51.201,8.682 51.157,8.72L51.163,8.694ZM51.449,8.256L51.373,8.212L51.309,8.167C51.259,8.135 51.189,8.104 51.24,8.028C51.29,7.951 51.329,7.894 51.417,7.939C51.506,7.983 51.576,7.989 51.608,8.059C51.618,8.08 51.623,8.103 51.623,8.126C51.623,8.149 51.618,8.172 51.608,8.193L51.449,8.256ZM51.976,7.697C51.972,7.72 51.961,7.741 51.946,7.758C51.931,7.776 51.912,7.789 51.89,7.797C51.868,7.804 51.845,7.806 51.822,7.802C51.799,7.798 51.778,7.788 51.76,7.773L51.729,7.773C51.64,7.71 51.57,7.646 51.646,7.545L51.69,7.5C51.754,7.5 51.817,7.52 51.868,7.558C51.906,7.602 52.014,7.627 51.97,7.723L51.976,7.697ZM52.205,7.373C52.11,7.373 51.995,7.329 51.976,7.215C51.957,7.1 52.033,7.094 52.11,7.088C52.186,7.081 52.319,7.145 52.326,7.265C52.337,7.283 52.341,7.304 52.339,7.325C52.337,7.346 52.328,7.366 52.313,7.381C52.299,7.396 52.28,7.406 52.259,7.409C52.238,7.413 52.217,7.409 52.199,7.399L52.205,7.373ZM52.541,7.011C52.453,6.961 52.332,6.954 52.313,6.834C52.313,6.82 52.316,6.806 52.321,6.793C52.327,6.78 52.335,6.769 52.345,6.759C52.355,6.75 52.367,6.743 52.38,6.738C52.393,6.733 52.407,6.731 52.421,6.732C52.471,6.734 52.52,6.749 52.561,6.778C52.603,6.806 52.636,6.845 52.656,6.891C52.668,6.98 52.599,7.011 52.541,7.037L52.541,7.011ZM52.859,8.116C52.891,8.04 52.929,8.028 52.999,8.072L53.551,8.402L53.596,8.402L53.646,8.44L53.608,8.51C53.5,8.675 53.354,8.812 53.183,8.91L53.113,8.948C52.999,8.859 52.884,8.771 52.764,8.688C52.731,8.67 52.705,8.643 52.688,8.611C52.671,8.578 52.664,8.541 52.669,8.504L52.669,8.466L52.859,8.116ZM53.246,9.742C53.225,9.746 53.204,9.746 53.183,9.742C53.119,9.672 52.948,9.641 52.992,9.552C53.017,9.489 53.062,9.436 53.119,9.399C53.175,9.363 53.242,9.345 53.31,9.348C53.392,9.507 53.246,9.628 53.24,9.768L53.246,9.742ZM53.881,9.799C53.856,9.849 53.819,9.891 53.772,9.922C53.725,9.952 53.67,9.969 53.615,9.971L53.539,9.971L53.716,9.609L53.748,9.609C53.755,9.622 53.766,9.633 53.78,9.641C53.812,9.698 53.907,9.717 53.856,9.825L53.881,9.799ZM54.326,9.317C54.306,9.378 54.272,9.434 54.229,9.481C54.185,9.528 54.131,9.565 54.072,9.59C53.983,9.622 53.913,9.552 53.837,9.488L53.78,9.45L53.989,9.05L54.047,9.082C54.077,9.097 54.104,9.116 54.129,9.139C54.18,9.221 54.326,9.234 54.301,9.342L54.326,9.317ZM54.688,8.923C54.44,9.19 54.548,9.228 54.218,9.025L54.129,8.986C54.091,8.815 54.243,8.58 54.383,8.586L54.472,8.644L54.701,8.783C54.72,8.834 54.726,8.885 54.663,8.948L54.688,8.923ZM55.101,8.459C54.929,8.764 54.732,8.624 54.542,8.517L54.504,8.517C54.396,8.453 54.339,8.383 54.415,8.243C54.491,8.104 54.517,8.021 54.675,8.097L54.707,8.097L55.088,8.307C55.126,8.383 55.139,8.428 55.082,8.485L55.101,8.459ZM54.853,8.053C54.791,8.027 54.734,7.993 54.682,7.951C54.65,7.92 54.65,7.894 54.682,7.843C54.707,7.798 54.737,7.756 54.771,7.716C54.791,7.691 54.819,7.674 54.85,7.669C54.882,7.663 54.914,7.668 54.942,7.685L55.209,7.837C55.214,7.86 55.214,7.884 55.209,7.907C55.216,7.994 55.201,8.082 55.164,8.161L55.126,8.243L54.853,8.053ZM55.774,8.898C55.774,8.898 55.774,8.936 55.691,8.898C55.591,8.874 55.496,8.831 55.412,8.771C55.412,8.771 55.412,8.771 55.412,8.732C55.407,8.726 55.405,8.718 55.405,8.71C55.405,8.702 55.407,8.694 55.412,8.688C55.412,8.656 55.456,8.656 55.482,8.688L55.761,8.815C55.769,8.822 55.774,8.831 55.777,8.841C55.781,8.851 55.782,8.862 55.781,8.872C55.78,8.882 55.776,8.892 55.77,8.901C55.765,8.91 55.757,8.917 55.749,8.923L55.774,8.898ZM55.774,8.656C55.774,8.713 55.704,8.694 55.66,8.656L55.444,8.567L55.399,8.567C55.444,8.409 55.526,8.364 55.672,8.466L55.71,8.466L55.761,8.51C55.78,8.515 55.797,8.527 55.808,8.542C55.82,8.557 55.827,8.576 55.827,8.596C55.827,8.615 55.82,8.634 55.808,8.65C55.797,8.665 55.78,8.676 55.761,8.682L55.774,8.656ZM55.774,8.428C55.577,8.326 55.577,8.326 55.71,8.161C55.793,8.161 55.876,8.199 55.876,8.301C55.876,8.402 55.825,8.459 55.717,8.453L55.774,8.428ZM56.231,9.183C56.149,9.183 56.047,9.183 56.041,9.063C56.034,8.942 56.092,8.974 56.149,8.986C56.206,8.999 56.371,8.986 56.396,9.088C56.422,9.19 56.257,9.177 56.199,9.209L56.231,9.183ZM56.701,8.821C56.692,8.866 56.667,8.906 56.631,8.934C56.595,8.962 56.55,8.976 56.504,8.974C56.477,8.98 56.449,8.98 56.422,8.974C56.371,8.974 56.25,8.974 56.276,8.885C56.289,8.838 56.319,8.797 56.36,8.77C56.4,8.744 56.45,8.732 56.498,8.739C56.519,8.736 56.54,8.736 56.561,8.739C56.581,8.796 56.688,8.764 56.669,8.847L56.701,8.821ZM56.993,8.561C56.936,8.624 56.885,8.694 56.803,8.688L56.72,8.688C56.663,8.688 56.568,8.688 56.568,8.612C56.568,8.536 56.644,8.485 56.714,8.459C56.806,8.437 56.904,8.451 56.987,8.497C56.987,8.517 56.987,8.561 56.987,8.586L56.993,8.561Z" fill="#EAEAEA"/>
</svg>
