<svg width="48" height="50" viewBox="0 0 48 50" fill="none" xmlns="http://www.w3.org/2000/svg" xmlns:xlink="http://www.w3.org/1999/xlink">
<path d="M47.975,26.091C47.975,24.537 47.891,22.99 47.752,21.443C47.621,19.924 47.399,18.414 47.087,16.922C46.62,14.613 45.848,12.377 44.79,10.273C44.12,9.023 43.257,7.887 42.233,6.906C41.179,5.849 40.041,4.879 38.83,4.005C37.691,3.14 36.477,2.377 35.204,1.726C32.728,0.531 30.042,-0.167 27.297,-0.329C25.594,-0.433 23.884,-0.382 22.19,-0.178C20.94,-0.029 19.702,0.205 18.485,0.523C16.717,0.991 15.006,1.651 13.383,2.494C11.131,3.657 9.089,5.187 7.339,7.021C5.536,8.91 4.076,11.099 3.023,13.488C2.007,15.883 1.31,18.401 0.95,20.977C0.744,22.259 0.611,23.54 0.515,24.834C0.4,26.248 0.333,27.675 0.285,29.065C0.285,29.941 0.206,30.824 0.146,31.7C0.086,32.71 0.025,33.725 0.007,34.722C-0.016,35.642 0.018,36.563 0.11,37.479C0.132,37.985 0.22,38.487 0.37,38.972C0.861,40.232 1.755,41.295 2.914,41.994C4.233,42.787 5.739,43.217 7.278,43.239C8.48,43.286 9.683,43.192 10.863,42.961C10.904,42.951 10.948,42.952 10.989,42.964C11.03,42.975 11.068,42.997 11.098,43.027C12.172,43.97 13.334,44.808 14.568,45.53C16.353,46.598 18.289,47.393 20.31,47.887C22.263,48.364 24.284,48.497 26.282,48.28C27.653,48.127 29.001,47.809 30.295,47.331C32.32,46.579 34.219,45.526 35.929,44.206C35.964,44.172 36.006,44.146 36.051,44.129C36.097,44.112 36.146,44.106 36.195,44.109C37.579,44.218 38.972,44.176 40.347,43.982C41.764,43.802 43.136,43.365 44.397,42.695C45.807,41.968 46.929,40.783 47.576,39.334C47.72,39.079 47.808,38.797 47.836,38.506C47.836,36.892 47.867,35.278 47.903,33.671C47.951,31.948 48.006,30.231 48,28.509L47.975,26.091ZM46.162,30.546L46.126,30.546C46.126,31.422 46.09,32.305 46.065,33.187C46.011,34.855 45.987,36.53 45.981,38.204C45.943,38.535 45.818,38.85 45.618,39.117C44.951,40.238 43.914,41.093 42.687,41.534C41.595,41.963 40.446,42.226 39.277,42.314C38.349,42.402 37.415,42.414 36.485,42.35C36.213,42.35 35.935,42.308 35.669,42.266C35.618,42.257 35.566,42.261 35.517,42.275C35.468,42.29 35.423,42.316 35.385,42.35C34.525,43.05 33.614,43.685 32.659,44.248C30.816,45.354 28.779,46.097 26.657,46.436C24.617,46.742 22.537,46.633 20.54,46.116C18.041,45.464 15.693,44.333 13.625,42.786C12.919,42.281 12.26,41.715 11.655,41.093C11.63,41.064 11.598,41.042 11.561,41.031C11.525,41.019 11.486,41.018 11.449,41.027C10.653,41.211 9.845,41.342 9.031,41.419C7.501,41.615 5.947,41.407 4.522,40.815C3.498,40.38 2.667,39.587 2.183,38.585C2.032,38.199 1.95,37.79 1.941,37.376C1.845,36.489 1.808,35.596 1.832,34.704C1.832,33.671 1.923,32.643 1.99,31.609C2.05,30.679 2.098,29.748 2.123,28.817C2.165,27.554 2.225,26.29 2.322,25.027C2.437,23.595 2.594,22.162 2.83,20.742C3.076,19.22 3.429,17.717 3.887,16.245C4.626,13.925 5.766,11.752 7.254,9.825C9.397,7.07 12.187,4.888 15.378,3.473C17.046,2.724 18.797,2.174 20.594,1.835C21.939,1.573 23.304,1.426 24.674,1.394C25.979,1.35 27.285,1.413 28.579,1.581C31.183,1.898 33.687,2.779 35.917,4.162C37.762,5.316 39.475,6.67 41.024,8.2C42.323,9.504 43.331,11.07 43.98,12.793C44.641,14.472 45.139,16.211 45.467,17.985C45.815,19.973 46.027,21.983 46.102,24C46.18,25.601 46.168,27.203 46.174,28.835L46.162,30.546Z" fill="#FFFFFF"/>
<path d="M26.699,12.055C27.483,11.829 28.244,11.529 28.972,11.161C29.165,11.07 29.159,11.064 29.177,11.276C29.28,12.231 29.383,13.186 29.48,14.141C29.516,14.449 29.552,14.745 29.564,15.065C29.56,15.25 29.544,15.433 29.516,15.615C29.512,15.648 29.497,15.678 29.474,15.701C29.451,15.724 29.421,15.739 29.389,15.742L28.839,15.906C28.839,15.99 28.911,16.026 28.954,16.075C29.172,16.312 29.33,16.598 29.413,16.909C29.418,16.943 29.435,16.974 29.462,16.996C29.489,17.017 29.524,17.027 29.558,17.024C30.672,17.125 31.76,17.411 32.78,17.87C34.084,18.43 35.206,19.343 36.02,20.505C36.116,20.644 36.11,20.705 35.971,20.802C34.905,21.549 33.895,22.373 32.949,23.268C32.64,23.545 32.387,23.879 32.206,24.253C32.163,24.368 32.097,24.253 32.067,24.253C31.752,24.005 31.426,23.763 31.099,23.534C29.798,22.581 28.375,21.806 26.868,21.231C26.747,21.188 26.566,21.188 26.53,21.092C26.494,20.995 26.645,20.874 26.717,20.771C26.947,20.433 27.189,20.094 27.431,19.756C27.533,19.72 27.636,19.677 27.66,19.544C27.661,19.535 27.664,19.526 27.669,19.519C27.675,19.511 27.682,19.505 27.69,19.502C27.89,19.423 27.896,19.224 27.968,19.061C28.046,18.931 28.105,18.79 28.144,18.644C28.138,18.638 28.134,18.631 28.131,18.623C28.128,18.615 28.127,18.607 28.127,18.599C28.127,18.591 28.129,18.583 28.133,18.576C28.136,18.568 28.141,18.562 28.147,18.556C28.153,18.55 28.16,18.546 28.167,18.543C28.175,18.54 28.183,18.539 28.191,18.539C28.199,18.54 28.207,18.542 28.215,18.545C28.222,18.548 28.229,18.553 28.234,18.559C28.416,18.499 28.512,18.335 28.658,18.233C28.776,18.139 28.889,18.038 28.996,17.93C29.047,17.873 29.081,17.802 29.095,17.727C29.109,17.651 29.102,17.573 29.075,17.501C29.129,17.279 29.123,17.045 29.056,16.826C28.989,16.607 28.864,16.41 28.694,16.256C28.638,16.192 28.565,16.146 28.482,16.126C28.4,16.105 28.313,16.111 28.234,16.141C27.576,16.288 26.907,16.381 26.234,16.419C25.566,16.477 24.895,16.477 24.227,16.419C23.623,16.365 23.073,16.292 22.498,16.19C22.172,16.129 21.852,16.039 21.531,15.954C20.72,15.727 19.929,15.432 19.168,15.071C19.063,15.028 18.947,15.015 18.835,15.034C18.723,15.054 18.618,15.104 18.533,15.18C18.413,15.296 18.255,15.364 18.089,15.373C17.922,15.382 17.758,15.331 17.627,15.229C17.426,15.093 17.185,15.029 16.943,15.047C16.859,15.046 16.776,15.072 16.706,15.121C16.637,15.17 16.584,15.239 16.557,15.319C16.462,15.546 16.409,15.787 16.399,16.033C16.399,16.184 16.399,16.335 16.399,16.486C16.386,16.734 16.423,16.982 16.51,17.215C16.596,17.448 16.729,17.66 16.901,17.84C16.901,18.009 17.01,18.051 17.149,18.051L17.5,18.051C17.645,18.051 17.693,18.118 17.687,18.275C17.846,19.193 17.927,20.123 17.929,21.055C17.929,21.139 17.907,21.22 17.865,21.292C17.822,21.363 17.761,21.422 17.687,21.46C16.477,22.197 15.325,23.026 14.242,23.939C13.944,24.188 13.682,24.477 13.462,24.797C13.371,24.219 13.187,23.66 12.918,23.141C12.412,22.163 11.665,21.331 10.748,20.723C10.465,20.528 10.168,20.354 9.859,20.203C9.708,20.137 9.739,20.082 9.829,19.992C10.369,19.46 10.958,18.98 11.588,18.559C12.577,17.856 13.691,17.347 14.87,17.06C15.221,16.973 15.579,16.918 15.94,16.897C16.079,16.897 16.103,16.836 16.091,16.709C16.029,16.199 16.081,15.681 16.242,15.192C16.296,15.006 16.42,14.847 16.587,14.749C16.755,14.651 16.954,14.622 17.143,14.666C17.329,14.696 17.51,14.751 17.681,14.83C17.796,14.89 17.82,14.83 17.814,14.733C17.81,14.198 17.867,13.665 17.983,13.143C17.983,12.986 18.086,12.956 18.219,12.98C18.542,13.035 18.871,13.052 19.198,13.028C18.751,12.956 18.303,12.877 17.868,12.762C17.023,12.582 16.223,12.232 15.517,11.735C15.093,11.452 14.774,11.036 14.61,10.553C14.446,10.07 14.446,9.546 14.61,9.063C14.706,8.76 14.863,8.479 15.071,8.238C15.279,7.997 15.533,7.801 15.819,7.661C16.439,7.333 17.116,7.128 17.814,7.057C18.877,6.943 19.953,7.092 20.945,7.492C21.888,7.83 22.801,8.247 23.762,8.537C24.7,8.843 25.693,8.946 26.675,8.84L26.917,8.797L26.977,8.755C26.893,8.755 26.796,8.755 26.705,8.755C25.559,8.76 24.425,8.519 23.381,8.048C23.036,7.903 22.698,7.746 22.353,7.607C22.208,7.552 22.22,7.492 22.299,7.383C22.762,6.79 23.342,6.298 24.003,5.938C25.024,5.325 26.149,4.904 27.322,4.699C28.473,4.486 29.662,4.649 30.713,5.165C31.012,5.294 31.278,5.491 31.488,5.741C31.698,5.99 31.846,6.286 31.921,6.603C32.048,7.227 31.931,7.876 31.595,8.417C31.143,9.142 30.539,9.761 29.824,10.23C28.86,10.906 27.824,11.474 26.735,11.922L26.608,11.983C26.608,11.983 26.608,11.983 26.572,12.019C26.536,12.055 26.663,12.086 26.699,12.055Z" fill="#FFFFFF"/>
<path d="M26.119,24.156C25.994,23.961 25.816,23.806 25.605,23.709C25.362,23.593 25.095,23.534 24.826,23.534C24.781,23.538 24.736,23.53 24.695,23.51C24.655,23.489 24.622,23.458 24.599,23.419C24.576,23.38 24.565,23.336 24.566,23.291C24.568,23.246 24.582,23.202 24.608,23.165C24.696,23.012 24.835,22.894 25.001,22.833C25.27,22.726 25.558,22.676 25.847,22.685C26.136,22.695 26.42,22.763 26.681,22.887C27.648,23.33 28.417,24.116 28.839,25.093C28.908,25.241 28.945,25.402 28.948,25.565C28.957,25.732 28.906,25.897 28.804,26.031C28.702,26.164 28.556,26.256 28.392,26.29C27.996,26.4 27.578,26.4 27.183,26.29C26.445,26.139 25.745,25.843 25.122,25.42C24.842,25.237 24.615,24.985 24.463,24.688C24.363,24.47 24.345,24.223 24.414,23.993C24.451,23.842 24.529,23.794 24.693,23.818C25.134,23.885 25.567,24.005 25.98,24.175C26.003,24.183 26.028,24.186 26.052,24.183C26.076,24.179 26.099,24.17 26.119,24.156Z" fill="#FFFFFF"/>
<path d="M23.792,31.543L23.338,33.157C23.266,33.411 23.193,33.671 23.127,33.93C23.125,33.952 23.118,33.972 23.108,33.991C23.097,34.01 23.083,34.026 23.066,34.039C23.049,34.052 23.03,34.061 23.009,34.067C22.988,34.072 22.967,34.073 22.946,34.069C22.492,34.069 22.492,34.069 22.377,33.628C22.136,32.653 21.89,31.678 21.64,30.703C21.586,30.497 21.586,30.497 21.791,30.497C22.226,30.497 22.226,30.497 22.323,30.926L22.776,32.848C22.777,32.869 22.783,32.89 22.792,32.909C22.801,32.927 22.815,32.944 22.831,32.957C22.921,32.655 23.006,32.353 23.085,32.075C23.218,31.603 23.351,31.126 23.477,30.648C23.479,30.624 23.485,30.601 23.496,30.58C23.507,30.558 23.523,30.54 23.542,30.525C23.561,30.51 23.582,30.499 23.606,30.493C23.629,30.488 23.653,30.487 23.677,30.491C24.106,30.491 24.106,30.491 24.221,30.908C24.396,31.513 24.565,32.159 24.741,32.788C24.756,32.843 24.774,32.898 24.795,32.951C24.854,32.84 24.893,32.719 24.91,32.595C25.067,31.942 25.218,31.295 25.363,30.642C25.394,30.527 25.442,30.485 25.551,30.497C25.659,30.509 25.919,30.425 26.004,30.533C26.089,30.642 25.962,30.818 25.925,30.963C25.678,31.948 25.424,32.933 25.176,33.924C25.174,33.946 25.167,33.968 25.156,33.987C25.146,34.007 25.131,34.024 25.113,34.037C25.096,34.051 25.076,34.061 25.054,34.066C25.033,34.072 25.01,34.073 24.989,34.069C24.541,34.069 24.535,34.069 24.414,33.646L23.87,31.7C23.87,31.646 23.87,31.597 23.822,31.549L23.792,31.543Z" fill="#FEFEFE"/>
<path d="M12.223,33.217L12.422,32.613C12.646,31.948 12.869,31.289 13.087,30.624C13.09,30.598 13.098,30.572 13.111,30.549C13.125,30.526 13.143,30.506 13.165,30.491C13.187,30.475 13.211,30.464 13.238,30.459C13.264,30.454 13.291,30.455 13.317,30.461C13.461,30.473 13.607,30.473 13.752,30.461C13.867,30.461 13.891,30.497 13.891,30.6C13.891,31.694 13.891,32.788 13.891,33.888C13.891,33.985 13.891,34.027 13.758,34.033C13.292,34.033 13.292,34.033 13.292,33.586C13.292,32.981 13.292,32.341 13.292,31.712C13.22,31.918 13.147,32.129 13.081,32.317C12.906,32.83 12.73,33.344 12.561,33.858C12.525,33.961 12.482,34.015 12.356,34.015C11.945,34.015 11.951,34.015 11.818,33.616C11.624,33.012 11.419,32.407 11.213,31.803C11.199,31.761 11.181,31.72 11.159,31.682C11.142,31.804 11.142,31.928 11.159,32.051C11.159,32.655 11.159,33.26 11.159,33.816C11.159,33.955 11.159,34.009 10.977,34.009C10.578,34.009 10.578,34.009 10.578,33.604C10.578,32.619 10.578,31.634 10.578,30.648C10.578,30.485 10.609,30.413 10.784,30.431C10.959,30.449 11.177,30.364 11.292,30.467C11.407,30.57 11.431,30.775 11.491,30.938C11.739,31.676 11.987,32.413 12.241,33.151L12.223,33.217Z" fill="#FDFDFD"/>
<path d="M38.407,28.376C37.691,28.327 36.999,28.098 36.394,27.711C35.73,27.288 35.121,26.785 34.581,26.212C34.292,25.93 34.096,25.566 34.02,25.17C33.943,24.774 33.989,24.363 34.152,23.994C34.324,23.478 34.601,23.004 34.965,22.601C35.329,22.197 35.773,21.873 36.268,21.649C36.431,21.545 36.621,21.49 36.815,21.49C37.008,21.49 37.198,21.545 37.362,21.649C37.438,21.695 37.526,21.716 37.615,21.709C37.704,21.703 37.789,21.669 37.857,21.612C38.073,21.462 38.239,21.252 38.335,21.008C38.383,20.905 38.419,20.802 38.474,20.706C38.504,20.632 38.55,20.565 38.609,20.511C38.669,20.458 38.739,20.418 38.816,20.396C38.893,20.373 38.973,20.368 39.052,20.381C39.131,20.394 39.206,20.424 39.272,20.47C39.445,20.553 39.598,20.674 39.721,20.822C39.843,20.971 39.932,21.144 39.981,21.33C40.03,21.517 40.037,21.711 40.004,21.901C39.97,22.09 39.895,22.27 39.785,22.428C39.625,22.699 39.42,22.942 39.181,23.148C39.054,23.25 39.078,23.299 39.181,23.383C39.787,23.778 40.347,24.241 40.849,24.761C41.108,25 41.279,25.32 41.333,25.668C41.357,25.781 41.34,25.899 41.285,26C41.229,26.101 41.139,26.178 41.031,26.218C40.952,26.254 40.934,26.285 40.958,26.375C41.001,26.452 41.027,26.537 41.034,26.624C41.041,26.711 41.028,26.799 40.998,26.882C40.967,26.964 40.919,27.038 40.857,27.1C40.795,27.162 40.72,27.21 40.638,27.24C40.615,27.249 40.595,27.265 40.581,27.285C40.567,27.306 40.56,27.33 40.559,27.354C40.56,27.432 40.545,27.509 40.514,27.58C40.484,27.651 40.439,27.715 40.381,27.768C40.324,27.82 40.257,27.86 40.183,27.885C40.11,27.909 40.032,27.918 39.955,27.911C39.912,27.909 39.869,27.917 39.83,27.935C39.792,27.953 39.758,27.98 39.731,28.013C39.631,28.12 39.5,28.193 39.356,28.219C39.047,28.307 38.728,28.36 38.407,28.376Z" fill="#FBFBFB"/>
<path d="M18.618,26.188L18.158,26.188C18.104,26.188 18.019,26.188 18.05,26.079C18.171,25.513 18.343,24.959 18.563,24.423C18.694,24.124 18.912,23.872 19.19,23.701C19.468,23.531 19.791,23.449 20.117,23.468C20.233,23.469 20.349,23.485 20.461,23.516C20.915,23.637 20.969,23.849 20.818,24.266C20.77,24.386 20.776,24.423 20.903,24.441C20.959,24.448 21.014,24.464 21.066,24.489C21.115,24.504 21.16,24.53 21.198,24.564C21.235,24.599 21.264,24.643 21.283,24.691C21.301,24.739 21.307,24.79 21.302,24.841C21.297,24.892 21.28,24.941 21.253,24.985C21.111,25.238 20.902,25.447 20.649,25.589C20.058,26.011 19.343,26.222 18.618,26.188Z" fill="#FFFFFF"/>
<path d="M20.981,33.852C20.812,33.658 20.848,33.429 20.824,33.205C20.824,32.879 20.854,32.51 20.461,32.298C20.621,32.197 20.746,32.05 20.819,31.876C20.893,31.702 20.911,31.51 20.872,31.325C20.873,31.136 20.807,30.954 20.685,30.81C20.563,30.665 20.394,30.57 20.207,30.539C20.086,30.513 19.963,30.499 19.839,30.497C19.319,30.497 18.805,30.497 18.285,30.497C18.14,30.497 18.098,30.539 18.098,30.684C18.098,31.676 18.098,32.667 18.098,33.658C18.098,34.075 18.098,34.069 18.521,34.075C18.666,34.075 18.696,34.027 18.696,33.894C18.696,33.513 18.696,33.126 18.696,32.74C18.696,32.673 18.696,32.601 18.793,32.601C19.144,32.601 19.494,32.601 19.845,32.601C19.894,32.599 19.944,32.607 19.99,32.626C20.036,32.645 20.078,32.673 20.112,32.709C20.146,32.745 20.173,32.788 20.189,32.835C20.205,32.882 20.212,32.932 20.207,32.981C20.207,33.199 20.207,33.417 20.244,33.628C20.244,34.015 20.322,34.063 20.685,34.063L20.86,34.063C21.017,34.063 21.09,33.955 20.981,33.852ZM19.954,32.038C19.563,32.086 19.168,32.1 18.775,32.081C18.702,32.081 18.696,32.026 18.696,31.972L18.696,31.138C18.696,31.041 18.739,31.023 18.823,31.023L19.349,31.023C19.55,31.004 19.752,31.004 19.954,31.023C20.059,31.038 20.154,31.093 20.221,31.176C20.287,31.259 20.319,31.364 20.31,31.47C20.325,31.529 20.327,31.59 20.318,31.65C20.309,31.71 20.288,31.767 20.256,31.819C20.225,31.87 20.184,31.915 20.135,31.951C20.086,31.987 20.03,32.012 19.972,32.026L19.954,32.038Z" fill="#FDFDFD"/>
<path d="M37.017,32.081C37.004,31.704 36.868,31.341 36.628,31.048C36.389,30.756 36.061,30.55 35.693,30.463C35.325,30.376 34.939,30.412 34.594,30.565C34.249,30.719 33.964,30.982 33.783,31.314C33.591,31.722 33.523,32.178 33.59,32.625C33.617,32.932 33.726,33.225 33.905,33.475C34.085,33.725 34.328,33.922 34.61,34.045C34.892,34.169 35.201,34.214 35.507,34.177C35.812,34.14 36.102,34.022 36.346,33.834C36.57,33.653 36.748,33.421 36.865,33.157C36.982,32.893 37.034,32.605 37.017,32.317C37.017,32.244 37.023,32.166 37.017,32.081ZM36.152,33.23C36.018,33.404 35.834,33.532 35.624,33.597C35.414,33.662 35.189,33.66 34.98,33.592C34.766,33.529 34.576,33.403 34.435,33.23C34.294,33.058 34.208,32.847 34.188,32.625C34.131,32.368 34.131,32.102 34.188,31.845C34.236,31.591 34.376,31.362 34.581,31.203C34.785,31.044 35.041,30.965 35.3,30.981C35.556,30.974 35.806,31.058 36.006,31.219C36.205,31.379 36.341,31.606 36.388,31.858C36.416,31.982 36.431,32.11 36.43,32.238C36.464,32.592 36.365,32.945 36.152,33.23Z" fill="#FDFDFD"/>
<path d="M12.725,24.368C12.731,24.611 12.683,24.851 12.585,25.073C12.487,25.295 12.34,25.492 12.156,25.65C11.777,26.017 11.373,26.359 10.948,26.671C10.411,27.057 9.789,27.306 9.134,27.396C8.762,27.426 8.387,27.379 8.034,27.257C8.005,27.253 7.978,27.24 7.956,27.221C7.824,27.092 7.65,27.014 7.466,27.004C7.372,26.992 7.286,26.946 7.223,26.874C7.161,26.803 7.127,26.711 7.127,26.617C7.126,26.579 7.114,26.543 7.094,26.511C7.074,26.479 7.046,26.453 7.013,26.435C6.891,26.375 6.798,26.271 6.752,26.144C6.706,26.016 6.71,25.876 6.765,25.752C6.765,25.68 6.807,25.625 6.71,25.589C6.655,25.566 6.604,25.531 6.562,25.488C6.52,25.444 6.487,25.393 6.465,25.337C6.443,25.28 6.433,25.22 6.434,25.16C6.436,25.099 6.45,25.04 6.475,24.985C6.56,24.703 6.721,24.45 6.94,24.253C7.347,23.843 7.797,23.479 8.282,23.165C8.385,23.093 8.421,23.057 8.282,22.954C8.031,22.743 7.827,22.481 7.684,22.186C7.571,21.939 7.554,21.659 7.636,21.4C7.717,21.142 7.891,20.922 8.125,20.784C8.19,20.723 8.269,20.681 8.356,20.661C8.443,20.641 8.533,20.643 8.618,20.669C8.703,20.695 8.78,20.742 8.841,20.807C8.902,20.872 8.944,20.951 8.965,21.038C9.032,21.27 9.162,21.479 9.34,21.642C9.414,21.728 9.518,21.782 9.631,21.792C9.744,21.802 9.856,21.768 9.944,21.697C10.046,21.64 10.16,21.607 10.276,21.602C10.393,21.597 10.509,21.619 10.615,21.666C11.166,21.88 11.65,22.235 12.019,22.695C12.389,23.156 12.63,23.706 12.719,24.29C12.721,24.316 12.724,24.342 12.725,24.368Z" fill="#FAFAFA"/>
<path d="M30.749,32.075C31.033,31.773 31.317,31.47 31.607,31.162C31.794,30.963 31.994,30.775 32.211,30.558C32.253,30.509 32.311,30.479 32.375,30.473L33.034,30.473C33.034,30.552 32.961,30.588 32.919,30.63C32.514,31.035 32.109,31.44 31.71,31.839C31.69,31.854 31.674,31.874 31.662,31.896C31.651,31.919 31.645,31.944 31.645,31.969C31.645,31.994 31.651,32.019 31.662,32.041C31.674,32.064 31.69,32.084 31.71,32.099C32.127,32.703 32.532,33.308 32.919,33.876C32.949,33.918 32.973,33.967 33.027,34.039C32.792,34.039 32.58,34.039 32.369,34.039C32.308,34.039 32.29,33.961 32.254,33.912C31.927,33.441 31.595,32.969 31.269,32.492C31.202,32.395 31.166,32.389 31.063,32.492C30.924,32.587 30.815,32.72 30.75,32.876C30.684,33.031 30.665,33.202 30.694,33.368C30.694,33.556 30.694,33.749 30.694,33.973C30.694,34.069 30.658,34.1 30.555,34.106C30.108,34.106 30.108,34.106 30.108,33.677C30.108,32.691 30.108,31.706 30.108,30.721C30.108,30.57 30.15,30.527 30.301,30.527C30.688,30.527 30.694,30.527 30.694,30.926L30.694,32.057L30.749,32.075Z" fill="#FDFDFD"/>
<path d="M29.528,33.9C29.171,32.921 28.827,31.936 28.482,30.951C28.428,30.806 28.428,30.606 28.307,30.528C28.186,30.449 27.993,30.528 27.829,30.491C27.666,30.455 27.66,30.54 27.624,30.648L27.201,31.809C26.947,32.516 26.687,33.223 26.427,33.931C26.391,34.033 26.427,34.076 26.524,34.07C26.64,34.058 26.758,34.058 26.874,34.07C26.971,34.07 27.013,34.033 27.044,33.943C27.134,33.677 27.231,33.417 27.322,33.151C27.328,33.117 27.347,33.086 27.375,33.066C27.403,33.045 27.438,33.037 27.473,33.042C27.642,33.042 27.811,33.042 27.981,33.042C28.15,33.042 28.295,33.042 28.452,33.042C28.471,33.038 28.492,33.037 28.511,33.041C28.531,33.045 28.55,33.053 28.566,33.064C28.583,33.076 28.596,33.09 28.607,33.107C28.618,33.124 28.624,33.143 28.627,33.163C28.676,33.32 28.736,33.471 28.784,33.628C28.93,34.07 28.93,34.07 29.389,34.07C29.534,34.07 29.582,34.051 29.528,33.9ZM28.271,32.528C28.065,32.528 27.866,32.528 27.666,32.528C27.576,32.528 27.551,32.528 27.582,32.419C27.715,32.063 27.842,31.712 27.974,31.362L28.017,31.362C28.132,31.712 28.246,32.063 28.367,32.413C28.392,32.516 28.349,32.528 28.271,32.528Z" fill="#FDFDFD"/>
<path d="M17.548,33.876C17.185,32.849 16.828,31.821 16.46,30.8C16.327,30.425 16.46,30.51 16.031,30.497C15.601,30.485 15.71,30.497 15.601,30.8L15.1,32.178C14.894,32.782 14.689,33.338 14.495,33.913C14.441,34.052 14.495,34.076 14.604,34.064C14.709,34.055 14.814,34.055 14.918,34.064C14.961,34.071 15.004,34.061 15.04,34.036C15.075,34.011 15.098,33.973 15.106,33.931C15.19,33.671 15.287,33.417 15.372,33.157C15.385,33.125 15.409,33.098 15.44,33.081C15.471,33.065 15.507,33.059 15.541,33.066C15.871,33.066 16.204,33.066 16.538,33.066C16.573,33.061 16.608,33.07 16.636,33.09C16.664,33.11 16.684,33.141 16.689,33.175C16.738,33.338 16.804,33.495 16.853,33.659C16.986,34.094 16.986,34.094 17.457,34.088C17.614,34.064 17.614,34.064 17.548,33.876ZM16.303,32.528C16.097,32.528 15.892,32.528 15.698,32.528C15.65,32.528 15.577,32.528 15.608,32.45L16.006,31.362L16.049,31.362L16.393,32.395C16.424,32.504 16.393,32.528 16.303,32.528Z" fill="#FDFDFD"/>
<path d="M17.711,18.288C17.596,18.101 17.403,18.119 17.222,18.107C17.04,18.095 16.895,18.107 16.835,17.889C16.853,17.863 16.881,17.844 16.912,17.838C16.944,17.831 16.976,17.836 17.004,17.853C17.25,17.967 17.53,17.986 17.79,17.907C17.865,17.883 17.946,17.884 18.02,17.91C18.094,17.936 18.158,17.986 18.201,18.052C18.352,18.252 18.521,18.433 18.69,18.621C19.229,19.212 19.838,19.736 20.504,20.18C21.103,20.573 21.769,20.856 22.468,21.014C23.174,21.166 23.908,21.111 24.584,20.857C25.214,20.623 25.794,20.273 26.294,19.823C26.62,19.535 26.921,19.219 27.195,18.88C27.286,18.774 27.402,18.693 27.533,18.645C27.988,18.487 28.401,18.229 28.742,17.889C28.821,17.804 28.894,17.713 28.96,17.617C28.996,17.563 29.026,17.496 29.111,17.545C29.147,17.793 28.96,17.986 28.96,18.246C28.875,18.155 28.791,18.046 28.772,18.246C28.769,18.27 28.757,18.293 28.738,18.309C28.719,18.324 28.694,18.332 28.67,18.33C28.579,18.33 28.531,18.33 28.531,18.463C28.531,18.596 28.47,18.548 28.41,18.56C28.378,18.561 28.348,18.568 28.319,18.581C28.291,18.594 28.265,18.613 28.245,18.636C28.224,18.659 28.208,18.686 28.198,18.716C28.188,18.745 28.184,18.777 28.186,18.808C28.186,18.844 28.186,18.887 28.156,18.899C27.962,18.965 27.999,19.134 27.987,19.279C27.975,19.424 27.987,19.467 27.866,19.491C27.745,19.515 27.703,19.618 27.866,19.745C27.725,19.778 27.578,19.778 27.437,19.745L28.041,18.85C27.798,18.889 27.572,19 27.394,19.171C26.769,19.975 25.964,20.621 25.043,21.056C24.499,21.297 23.911,21.426 23.316,21.434C22.721,21.442 22.13,21.33 21.58,21.105C20.269,20.565 19.112,19.71 18.213,18.615C18.142,18.546 18.077,18.471 18.019,18.391C18.007,18.363 17.989,18.337 17.967,18.317C17.944,18.296 17.917,18.28 17.888,18.27C17.859,18.261 17.828,18.257 17.798,18.26C17.767,18.263 17.738,18.273 17.711,18.288Z" fill="#FAFAFA"/>
<path d="M18.727,20.482C19.331,20.996 19.99,21.48 20.655,21.933C20.998,22.119 21.37,22.245 21.755,22.308C21.901,22.34 22.042,22.395 22.172,22.471C22.414,22.628 22.414,22.846 22.172,22.997C22.033,23.079 21.879,23.133 21.719,23.154C21.559,23.176 21.397,23.166 21.241,23.124C20.714,22.989 20.231,22.72 19.839,22.344C19.522,22.104 19.232,21.83 18.974,21.528C18.81,21.331 18.698,21.096 18.648,20.845C18.627,20.758 18.615,20.669 18.612,20.579C18.6,20.488 18.636,20.446 18.727,20.482Z" fill="#FEFEFE"/>
<path d="M22.897,24C22.633,24.008 22.373,23.938 22.148,23.8C21.972,23.691 21.966,23.595 22.148,23.468C22.368,23.309 22.571,23.126 22.752,22.924C22.861,22.785 22.939,22.646 22.806,22.47C22.674,22.295 22.807,22.277 22.952,22.283C23.205,22.283 23.459,22.337 23.713,22.362C23.892,22.379 24.07,22.409 24.245,22.452C24.626,22.561 24.729,22.803 24.499,23.123C24.322,23.387 24.084,23.605 23.805,23.757C23.526,23.91 23.215,23.993 22.897,24Z" fill="#FFFFFF"/>
<path d="M34.883,35.484C34.768,35.484 34.744,35.532 34.744,35.635C34.744,35.738 34.744,35.973 34.744,36.137C34.744,36.3 34.744,36.312 34.581,36.245C34.473,36.186 34.353,36.153 34.229,36.149C34.106,36.145 33.984,36.169 33.872,36.221C33.76,36.273 33.662,36.35 33.586,36.447C33.51,36.543 33.457,36.657 33.432,36.777C33.378,37.01 33.378,37.252 33.432,37.485C33.445,37.627 33.494,37.764 33.575,37.882C33.655,38 33.764,38.095 33.892,38.159C34.02,38.224 34.162,38.254 34.304,38.248C34.447,38.242 34.586,38.2 34.708,38.125C34.725,38.114 34.745,38.108 34.765,38.108C34.786,38.108 34.806,38.114 34.823,38.125C35.046,38.222 35.173,38.125 35.173,37.908L35.173,36.844L35.173,35.762C35.167,35.484 35.167,35.484 34.883,35.484ZM34.672,37.605C34.64,37.678 34.588,37.74 34.522,37.783C34.456,37.827 34.379,37.85 34.3,37.85C34.221,37.85 34.143,37.827 34.077,37.783C34.011,37.74 33.959,37.678 33.928,37.605C33.869,37.488 33.835,37.36 33.828,37.229C33.82,37.098 33.84,36.967 33.886,36.844C33.904,36.757 33.954,36.68 34.025,36.627C34.096,36.573 34.184,36.547 34.273,36.554C34.363,36.547 34.454,36.57 34.529,36.62C34.605,36.671 34.661,36.745 34.69,36.832C34.731,36.954 34.751,37.083 34.75,37.213C34.757,37.349 34.734,37.485 34.684,37.612L34.672,37.605Z" fill="#FCFCFC"/>
<path d="M28.7,35.653C28.7,35.472 28.597,35.496 28.488,35.496C28.379,35.496 28.277,35.496 28.289,35.647C28.301,35.798 28.289,35.998 28.289,36.173C28.289,36.348 28.289,36.324 28.15,36.258C28.056,36.202 27.952,36.167 27.844,36.154C27.736,36.141 27.627,36.152 27.523,36.184C27.419,36.217 27.323,36.271 27.242,36.343C27.16,36.415 27.095,36.503 27.05,36.602C26.921,36.88 26.889,37.193 26.959,37.491C26.969,37.634 27.016,37.773 27.095,37.893C27.175,38.014 27.285,38.111 27.414,38.176C27.542,38.24 27.686,38.27 27.83,38.263C27.974,38.255 28.113,38.21 28.234,38.131C28.251,38.122 28.27,38.118 28.289,38.118C28.308,38.118 28.326,38.122 28.343,38.131C28.591,38.252 28.706,38.174 28.706,37.914L28.706,36.826C28.694,36.433 28.688,36.046 28.7,35.653ZM28.186,37.66C28.15,37.72 28.099,37.77 28.038,37.804C27.977,37.839 27.908,37.857 27.838,37.857C27.768,37.857 27.7,37.839 27.639,37.804C27.578,37.77 27.527,37.72 27.491,37.66C27.416,37.531 27.373,37.386 27.365,37.236C27.356,37.087 27.383,36.938 27.443,36.802C27.467,36.729 27.515,36.666 27.578,36.623C27.641,36.579 27.716,36.557 27.793,36.56C27.875,36.552 27.957,36.568 28.029,36.607C28.101,36.645 28.16,36.705 28.198,36.777C28.26,36.908 28.293,37.05 28.295,37.194C28.299,37.356 28.262,37.517 28.186,37.66Z" fill="#FCFCFC"/>
<path d="M15.819,37.901C15.734,37.901 15.735,37.817 15.735,37.75L15.735,36.783C15.735,36.396 15.65,36.281 15.269,36.178C15.088,36.139 14.9,36.139 14.719,36.178C14.582,36.196 14.454,36.26 14.359,36.36C14.263,36.46 14.205,36.59 14.193,36.729C14.193,36.777 14.145,36.868 14.242,36.861C14.338,36.855 14.501,36.94 14.574,36.807C14.731,36.535 14.828,36.481 15.118,36.547C15.15,36.55 15.181,36.559 15.209,36.575C15.237,36.591 15.262,36.612 15.281,36.638C15.301,36.663 15.314,36.693 15.322,36.724C15.329,36.755 15.33,36.788 15.323,36.819C15.323,36.988 15.197,36.976 15.088,36.988C14.844,36.992 14.603,37.045 14.381,37.146C14.276,37.204 14.193,37.294 14.143,37.402C14.092,37.511 14.078,37.633 14.103,37.75C14.107,37.853 14.143,37.952 14.206,38.034C14.269,38.117 14.355,38.178 14.453,38.209C14.575,38.259 14.707,38.277 14.838,38.263C14.968,38.25 15.094,38.204 15.203,38.131C15.299,38.064 15.36,38.034 15.438,38.131C15.478,38.179 15.53,38.214 15.589,38.234C15.648,38.253 15.711,38.255 15.771,38.24C15.861,38.24 15.958,38.24 15.946,38.095C15.934,37.949 16.006,37.901 15.819,37.901ZM15.311,37.472C15.348,37.677 15.221,37.762 15.082,37.835C15.011,37.876 14.931,37.898 14.849,37.898C14.767,37.898 14.687,37.876 14.616,37.835C14.583,37.814 14.555,37.785 14.535,37.751C14.516,37.717 14.506,37.678 14.506,37.638C14.506,37.599 14.516,37.56 14.535,37.525C14.555,37.491 14.583,37.462 14.616,37.442C14.81,37.369 15.014,37.324 15.221,37.309C15.366,37.297 15.293,37.412 15.311,37.448L15.311,37.472Z" fill="#FCFCFC"/>
<path d="M20.624,36.814C20.624,36.427 20.624,36.034 20.624,35.647C20.624,35.539 20.624,35.49 20.769,35.49C21.277,35.49 21.791,35.49 22.305,35.49C22.498,35.49 22.444,35.611 22.456,35.714C22.468,35.817 22.456,35.895 22.299,35.889C21.936,35.889 21.579,35.889 21.217,35.889C21.102,35.889 21.059,35.889 21.066,36.034C21.072,36.179 21.066,36.318 21.066,36.457C21.066,36.596 21.108,36.596 21.211,36.59C21.519,36.59 21.815,36.59 22.135,36.59C22.305,36.59 22.286,36.681 22.286,36.79C22.286,36.899 22.286,37.007 22.129,36.995C21.857,36.995 21.579,36.995 21.307,36.995C21.035,36.995 21.066,36.995 21.066,37.225C21.066,37.455 21.066,37.727 21.066,37.981C21.066,38.12 21.066,38.174 20.89,38.168C20.624,38.168 20.624,38.168 20.624,37.908L20.624,36.814Z" fill="#FCFCFC"/>
<path d="M12.053,36.826C12.053,36.433 12.053,36.046 12.053,35.653C12.053,35.533 12.053,35.49 12.211,35.49C12.718,35.49 13.226,35.49 13.728,35.49C13.915,35.49 13.879,35.605 13.885,35.708C13.891,35.811 13.885,35.895 13.734,35.889C13.371,35.889 13.008,35.889 12.652,35.889C12.525,35.889 12.483,35.925 12.489,36.046C12.501,36.169 12.501,36.292 12.489,36.415C12.489,36.548 12.519,36.596 12.664,36.596C12.948,36.596 13.232,36.596 13.516,36.596C13.685,36.596 13.716,36.651 13.722,36.802C13.728,36.953 13.661,37.007 13.51,37.001L12.724,37.001C12.495,37.001 12.495,37.001 12.495,37.219C12.495,37.437 12.495,37.745 12.495,38.011C12.495,38.138 12.458,38.192 12.325,38.174C12.298,38.168 12.269,38.168 12.241,38.174C12.096,38.174 12.047,38.138 12.053,37.993C12.06,37.594 12.053,37.207 12.053,36.826Z" fill="#FCFCFC"/>
<path d="M26.657,37.038C26.657,36.802 26.563,36.576 26.397,36.409C26.23,36.243 26.004,36.149 25.768,36.149C25.533,36.149 25.307,36.243 25.14,36.409C24.973,36.576 24.88,36.802 24.88,37.038L24.88,37.201C24.87,37.333 24.884,37.466 24.922,37.594C24.953,37.776 25.048,37.942 25.19,38.061C25.331,38.181 25.51,38.246 25.696,38.246C25.88,38.271 26.066,38.232 26.226,38.136C26.385,38.041 26.507,37.894 26.572,37.721C26.654,37.503 26.683,37.269 26.657,37.038ZM26.228,37.394C26.161,37.678 25.992,37.841 25.762,37.841C25.648,37.833 25.541,37.785 25.459,37.706C25.377,37.626 25.326,37.52 25.315,37.406C25.263,37.202 25.293,36.984 25.4,36.802C25.437,36.738 25.49,36.685 25.554,36.648C25.618,36.611 25.691,36.592 25.765,36.592C25.839,36.592 25.912,36.611 25.976,36.648C26.04,36.685 26.094,36.738 26.131,36.802C26.221,36.95 26.262,37.124 26.246,37.297C26.241,37.33 26.235,37.362 26.228,37.394Z" fill="#FCFCFC"/>
<path d="M24.384,36.693C24.341,36.543 24.253,36.41 24.132,36.311C24.011,36.213 23.863,36.154 23.707,36.143C23.535,36.105 23.355,36.123 23.194,36.195C23.033,36.266 22.899,36.388 22.812,36.542C22.678,36.809 22.633,37.112 22.686,37.406C22.682,37.639 22.77,37.863 22.932,38.03C23.093,38.197 23.314,38.294 23.547,38.298C23.779,38.302 24.004,38.213 24.171,38.052C24.338,37.89 24.434,37.669 24.438,37.436C24.438,37.352 24.438,37.261 24.438,37.176C24.448,37.013 24.429,36.85 24.384,36.693ZM23.913,37.63C23.876,37.692 23.823,37.744 23.76,37.781C23.697,37.817 23.626,37.836 23.553,37.836C23.48,37.836 23.409,37.817 23.346,37.781C23.283,37.744 23.23,37.692 23.193,37.63C23.119,37.503 23.08,37.359 23.08,37.213C23.08,37.066 23.119,36.922 23.193,36.796C23.227,36.725 23.281,36.665 23.349,36.625C23.417,36.585 23.495,36.567 23.574,36.572C23.657,36.572 23.738,36.597 23.807,36.643C23.876,36.689 23.93,36.755 23.961,36.832C24.019,36.941 24.046,37.065 24.039,37.189C24.052,37.352 24.007,37.514 23.913,37.648L23.913,37.63Z" fill="#FCFCFC"/>
<path d="M17.125,36.155C17.566,36.155 17.79,36.348 17.838,36.674C17.838,36.783 17.838,36.838 17.705,36.832C17.572,36.826 17.463,36.832 17.397,36.668C17.33,36.505 16.913,36.499 16.792,36.668C16.671,36.838 16.792,36.874 16.889,36.91L17.288,37.025C17.367,37.025 17.445,37.073 17.524,37.098C17.628,37.115 17.723,37.167 17.794,37.244C17.865,37.322 17.909,37.422 17.917,37.527C17.932,37.646 17.912,37.767 17.858,37.875C17.804,37.983 17.719,38.072 17.614,38.131C17.459,38.214 17.286,38.258 17.11,38.258C16.934,38.258 16.76,38.214 16.605,38.131C16.541,38.096 16.486,38.047 16.442,37.989C16.398,37.931 16.367,37.864 16.351,37.793C16.351,37.702 16.285,37.593 16.351,37.527C16.418,37.46 16.526,37.527 16.617,37.527C16.708,37.527 16.696,37.599 16.72,37.648C16.753,37.708 16.799,37.761 16.854,37.803C16.909,37.845 16.973,37.874 17.041,37.889C17.108,37.904 17.178,37.904 17.246,37.889C17.314,37.875 17.377,37.846 17.433,37.805C17.572,37.69 17.554,37.545 17.385,37.478C17.215,37.412 17.04,37.388 16.865,37.333C16.478,37.225 16.333,37.043 16.363,36.729C16.384,36.582 16.456,36.447 16.567,36.347C16.677,36.248 16.819,36.19 16.968,36.185L17.125,36.155Z" fill="#FCFCFC"/>
<path d="M30.283,36.826C30.283,36.445 30.283,36.064 30.283,35.689C30.283,35.52 30.338,35.472 30.489,35.496C30.519,35.499 30.549,35.499 30.58,35.496C30.707,35.496 30.731,35.538 30.731,35.653C30.731,36.258 30.731,36.923 30.731,37.557C30.731,37.726 30.791,37.769 30.942,37.763C31.245,37.763 31.547,37.763 31.849,37.763C32.012,37.763 32.012,37.847 32.006,37.962C32,38.077 32.006,38.174 31.849,38.168C31.377,38.168 30.906,38.168 30.435,38.168C30.314,38.168 30.289,38.125 30.289,38.017C30.283,37.618 30.283,37.219 30.283,36.826Z" fill="#FCFCFC"/>
<path d="M18.63,35.714C18.811,35.665 18.853,35.756 18.835,35.907C18.838,35.959 18.838,36.012 18.835,36.064C18.835,36.173 18.878,36.215 18.98,36.203C19.083,36.191 19.125,36.306 19.131,36.415C19.138,36.524 19.131,36.608 18.974,36.584C18.817,36.56 18.835,36.614 18.835,36.723C18.835,37.049 18.835,37.376 18.835,37.696C18.835,37.829 18.872,37.908 19.017,37.859C19.162,37.811 19.119,37.859 19.125,37.944C19.156,38.186 19.125,38.228 18.902,38.252C18.678,38.276 18.436,38.15 18.43,37.932C18.43,37.545 18.43,37.164 18.43,36.777C18.43,36.65 18.43,36.554 18.261,36.584C18.092,36.614 18.17,36.548 18.17,36.487C18.17,36.427 18.092,36.161 18.364,36.197C18.418,36.197 18.424,36.155 18.424,36.113C18.433,36.042 18.433,35.971 18.424,35.901C18.418,35.75 18.461,35.665 18.63,35.714Z" fill="#FDFDFD"/>
<path d="M32.465,37.298C32.465,37.098 32.465,36.905 32.465,36.693C32.465,36.596 32.465,36.542 32.338,36.56C32.211,36.578 32.199,36.488 32.211,36.397C32.224,36.306 32.151,36.167 32.338,36.179C32.435,36.179 32.471,36.143 32.465,36.046C32.468,35.994 32.468,35.942 32.465,35.889C32.465,35.714 32.514,35.678 32.677,35.678C32.84,35.678 32.888,35.726 32.87,35.877C32.867,35.93 32.867,35.982 32.87,36.034C32.87,36.131 32.87,36.198 33.003,36.179C33.136,36.161 33.166,36.252 33.166,36.367C33.166,36.482 33.166,36.59 32.997,36.56C32.828,36.53 32.864,36.615 32.87,36.705L32.87,37.648C32.87,37.787 32.87,37.89 33.064,37.836C33.13,37.836 33.154,37.836 33.166,37.914C33.166,38.15 33.166,38.204 32.967,38.228C32.768,38.253 32.49,38.132 32.465,37.914L32.465,37.298Z" fill="#FDFDFD"/>
<path d="M29.558,44.436C29.522,44.182 29.383,44.061 29.056,43.989C29.238,43.741 29.256,43.59 29.141,43.384C29.075,43.304 28.986,43.244 28.886,43.214C28.785,43.184 28.679,43.184 28.579,43.215C28.425,43.251 28.275,43.301 28.131,43.366C28.029,43.409 28.017,43.463 28.053,43.572C28.174,43.928 28.289,44.285 28.403,44.648C28.597,45.252 28.615,45.252 29.195,44.974C29.305,44.934 29.399,44.861 29.464,44.764C29.53,44.668 29.562,44.553 29.558,44.436ZM28.307,43.578C28.307,43.493 28.506,43.409 28.688,43.409C28.727,43.407 28.766,43.413 28.802,43.428C28.839,43.442 28.871,43.464 28.899,43.492C28.926,43.52 28.947,43.553 28.961,43.59C28.975,43.627 28.98,43.666 28.978,43.705C28.96,43.808 28.906,43.902 28.827,43.97C28.748,44.038 28.647,44.077 28.542,44.08C28.476,44.086 28.307,43.717 28.307,43.578ZM29.123,44.787L29.093,44.787C28.79,44.956 28.754,44.938 28.657,44.618C28.657,44.618 28.657,44.563 28.627,44.539C28.524,44.213 28.585,44.128 28.935,44.128C29.015,44.118 29.095,44.138 29.161,44.184C29.227,44.23 29.273,44.298 29.292,44.376C29.31,44.416 29.32,44.459 29.321,44.503C29.323,44.547 29.315,44.591 29.299,44.632C29.284,44.673 29.26,44.71 29.23,44.742C29.199,44.774 29.163,44.799 29.123,44.817L29.123,44.787Z" fill="#F9F9F9"/>
<path d="M18.104,43.341L17.469,44.043C17.459,44.06 17.445,44.075 17.429,44.087C17.412,44.099 17.394,44.107 17.374,44.112C17.354,44.116 17.334,44.117 17.314,44.113C17.294,44.109 17.275,44.102 17.258,44.091C17.161,44.049 17.185,43.976 17.191,43.904C17.234,43.559 17.276,43.208 17.324,42.864C17.324,42.803 17.294,42.689 17.409,42.701C17.434,42.7 17.458,42.706 17.481,42.717C17.503,42.728 17.522,42.745 17.537,42.765C17.552,42.785 17.562,42.808 17.566,42.833C17.57,42.857 17.568,42.883 17.56,42.906C17.494,43.208 17.451,43.511 17.391,43.873L18.056,43.118C18.092,43.082 18.122,43.015 18.195,43.045C18.267,43.075 18.34,43.112 18.316,43.233C18.267,43.547 18.237,43.837 18.201,44.212L18.805,43.493C18.835,43.493 18.86,43.426 18.89,43.402C18.92,43.378 19.029,43.402 19.077,43.402C19.126,43.402 19.077,43.499 19.047,43.529L18.285,44.375C18.275,44.392 18.261,44.406 18.245,44.417C18.229,44.428 18.211,44.436 18.192,44.44C18.172,44.444 18.153,44.444 18.133,44.44C18.114,44.436 18.096,44.428 18.08,44.417C17.989,44.381 18.007,44.321 18.013,44.248C18.038,43.946 18.074,43.662 18.104,43.341Z" fill="#F8F8F8"/>
<path d="M16.303,41.443C16.291,41.431 16.277,41.422 16.261,41.415C16.246,41.409 16.229,41.405 16.212,41.405C16.195,41.405 16.178,41.409 16.163,41.415C16.147,41.422 16.133,41.431 16.121,41.443L14.792,42.55C14.761,42.55 14.683,42.61 14.749,42.67C14.816,42.731 14.852,42.773 14.931,42.737L15.015,42.67C15.378,42.374 15.378,42.374 15.777,42.616C15.892,42.689 15.946,42.755 15.898,42.894C15.863,43.005 15.837,43.118 15.819,43.233C15.819,43.353 15.892,43.396 15.964,43.414C16.037,43.432 16.031,43.335 16.055,43.287C16.058,43.243 16.058,43.198 16.055,43.154L16.393,41.637C16.46,41.528 16.357,41.492 16.303,41.443ZM16.013,42.441C16.013,42.507 15.964,42.507 15.898,42.477C15.469,42.266 15.469,42.272 15.831,41.969L16.188,41.661C16.146,41.945 16.067,42.193 16.013,42.441Z" fill="#F9F9F9"/>
<path d="M24.964,44.593C25.043,44.525 25.128,44.464 25.218,44.412C25.279,44.383 25.346,44.368 25.414,44.368C25.482,44.369 25.548,44.384 25.609,44.414C25.67,44.444 25.724,44.486 25.766,44.539C25.808,44.592 25.838,44.654 25.853,44.72C25.901,45.011 25.926,45.307 25.925,45.602C25.925,45.693 25.883,45.711 25.811,45.717C25.738,45.723 25.69,45.717 25.684,45.614C25.684,45.397 25.684,45.185 25.647,44.968C25.611,44.75 25.508,44.563 25.321,44.569C25.269,44.574 25.218,44.589 25.172,44.615C25.126,44.641 25.086,44.676 25.055,44.718C25.024,44.76 25.002,44.809 24.99,44.86C24.979,44.911 24.978,44.964 24.989,45.016C24.989,45.221 24.989,45.427 25.025,45.62C25.025,45.705 25.025,45.753 24.922,45.759C24.819,45.765 24.801,45.759 24.795,45.645L24.704,44.285C24.704,44.17 24.704,44.049 24.704,43.934C24.704,43.819 24.704,43.807 24.807,43.795C24.91,43.783 24.946,43.795 24.946,43.916C24.934,44.14 24.952,44.351 24.964,44.593Z" fill="#FAFAFA"/>
<path d="M30.96,44.152C30.924,44.104 30.888,44.086 30.834,44.152C30.744,44.229 30.639,44.287 30.525,44.321C30.443,44.351 30.353,44.354 30.268,44.33C30.184,44.306 30.109,44.257 30.054,44.188C29.987,44.104 29.975,44.043 30.096,44.001L30.701,43.735C30.749,43.735 30.809,43.699 30.797,43.614C30.739,43.497 30.644,43.402 30.526,43.343C30.409,43.285 30.275,43.266 30.146,43.29C30.017,43.314 29.9,43.379 29.811,43.476C29.722,43.572 29.668,43.695 29.655,43.826C29.655,44.015 29.729,44.197 29.861,44.332C29.993,44.468 30.173,44.546 30.362,44.551C30.568,44.523 30.762,44.435 30.918,44.297C30.985,44.237 31.003,44.2 30.96,44.152ZM29.885,43.717C29.882,43.635 29.905,43.554 29.952,43.486C29.999,43.419 30.067,43.368 30.145,43.342C30.213,43.324 30.285,43.328 30.35,43.354C30.415,43.381 30.47,43.427 30.507,43.487C30.549,43.542 30.568,43.584 30.507,43.62C30.447,43.656 30.181,43.771 30.012,43.832C29.842,43.892 29.933,43.735 29.885,43.717Z" fill="#F8F8F8"/>
<path d="M27.394,45.312C27.364,45.251 27.328,45.239 27.273,45.27C27.232,45.294 27.187,45.312 27.14,45.324C26.85,45.409 26.639,45.324 26.536,45.149C26.433,44.973 26.469,44.961 26.633,44.943C26.796,44.925 27.056,44.877 27.267,44.84C27.328,44.84 27.394,44.84 27.4,44.738C27.416,44.647 27.41,44.553 27.384,44.465C27.358,44.376 27.312,44.295 27.25,44.227C27.188,44.159 27.111,44.106 27.025,44.073C26.939,44.039 26.847,44.026 26.755,44.033C26.663,44.041 26.574,44.069 26.495,44.117C26.415,44.164 26.348,44.229 26.298,44.306C26.247,44.383 26.216,44.471 26.204,44.563C26.193,44.654 26.203,44.747 26.234,44.834C26.223,44.929 26.233,45.025 26.263,45.115C26.294,45.205 26.343,45.287 26.409,45.356C26.475,45.425 26.555,45.478 26.644,45.512C26.733,45.546 26.828,45.56 26.923,45.554C27.073,45.548 27.221,45.507 27.352,45.433C27.4,45.409 27.424,45.378 27.394,45.312ZM26.445,44.707C26.448,44.622 26.478,44.54 26.532,44.473C26.585,44.407 26.659,44.36 26.741,44.339C26.822,44.324 26.905,44.34 26.975,44.383C27.044,44.427 27.095,44.495 27.116,44.574C27.116,44.635 27.116,44.677 27.056,44.683L26.542,44.774C26.488,44.792 26.451,44.786 26.421,44.719L26.445,44.707Z" fill="#F9F9F9"/>
<path d="M20.443,43.886C20.649,43.886 20.697,43.976 20.709,44.145C20.709,44.417 20.77,44.695 20.8,44.992C20.903,44.931 20.927,44.841 20.975,44.768C21.096,44.587 21.217,44.399 21.326,44.206C21.334,44.188 21.345,44.171 21.359,44.157C21.374,44.143 21.391,44.132 21.409,44.125C21.428,44.118 21.447,44.114 21.467,44.115C21.487,44.115 21.507,44.119 21.525,44.127C21.61,44.127 21.634,44.182 21.58,44.26C21.296,44.653 21.042,45.076 20.727,45.469C20.603,45.633 20.426,45.749 20.226,45.796C20.171,45.796 20.099,45.832 20.093,45.735C20.087,45.638 20.093,45.596 20.171,45.578C20.228,45.569 20.283,45.551 20.334,45.524C20.384,45.508 20.431,45.482 20.471,45.448C20.511,45.414 20.543,45.373 20.567,45.326C20.591,45.279 20.605,45.228 20.608,45.176C20.612,45.124 20.605,45.071 20.588,45.022C20.534,44.683 20.492,44.339 20.443,44C20.439,43.962 20.439,43.924 20.443,43.886Z" fill="#F9F9F9"/>
<path d="M19.458,43.559C19.403,43.559 19.337,43.559 19.337,43.65C19.337,43.741 19.409,43.729 19.464,43.729C19.599,43.722 19.733,43.765 19.839,43.849C19.876,43.883 19.901,43.928 19.91,43.977C19.919,44.026 19.911,44.077 19.887,44.121C19.845,44.212 19.766,44.121 19.706,44.121C19.538,44.073 19.36,44.073 19.192,44.121C19.115,44.152 19.049,44.205 19.003,44.274C18.958,44.344 18.935,44.425 18.938,44.508C18.938,44.585 18.962,44.66 19.007,44.723C19.051,44.785 19.114,44.833 19.186,44.859C19.333,44.919 19.498,44.919 19.645,44.859C19.647,44.875 19.647,44.891 19.645,44.907C19.645,45.01 19.706,45.022 19.772,45.04C19.839,45.058 19.851,44.98 19.869,44.931L20.068,44.327C20.113,44.235 20.131,44.132 20.12,44.03C20.108,43.928 20.068,43.831 20.005,43.751C19.941,43.671 19.856,43.61 19.759,43.576C19.662,43.542 19.558,43.537 19.458,43.559ZM19.458,44.768C19.424,44.773 19.39,44.772 19.358,44.763C19.325,44.755 19.294,44.741 19.267,44.72C19.24,44.7 19.217,44.675 19.2,44.645C19.183,44.616 19.172,44.584 19.168,44.551C19.172,44.512 19.184,44.474 19.204,44.44C19.223,44.406 19.249,44.377 19.28,44.353C19.311,44.329 19.346,44.312 19.384,44.302C19.422,44.293 19.462,44.291 19.5,44.297C19.591,44.345 19.778,44.26 19.784,44.442C19.778,44.528 19.74,44.609 19.677,44.668C19.615,44.727 19.532,44.761 19.446,44.762L19.458,44.768Z" fill="#F8F8F8"/>
<path d="M23.532,43.898L24.42,43.898C24.493,43.898 24.577,43.898 24.577,44.007C24.577,44.116 24.481,44.091 24.414,44.104C24.348,44.116 24.1,44.025 24.021,44.104C23.943,44.182 23.985,44.357 23.979,44.49C23.979,44.847 23.979,45.204 23.937,45.56C23.937,45.639 23.937,45.717 23.816,45.717C23.695,45.717 23.689,45.621 23.695,45.536C23.695,45.101 23.731,44.666 23.755,44.224C23.755,44.085 23.755,44.019 23.58,44.037C23.405,44.055 23.393,44.037 23.302,44.037C23.288,44.038 23.273,44.036 23.259,44.031C23.246,44.025 23.233,44.017 23.223,44.007C23.213,43.997 23.205,43.984 23.2,43.971C23.195,43.957 23.192,43.943 23.193,43.928C23.193,43.844 23.236,43.825 23.302,43.832L23.532,43.832L23.532,43.898Z" fill="#FAFAFA"/>
<path d="M22.136,44.212C22.248,44.212 22.358,44.241 22.456,44.297C22.47,44.3 22.483,44.307 22.494,44.317C22.504,44.328 22.512,44.34 22.517,44.354C22.521,44.368 22.521,44.383 22.518,44.397C22.515,44.412 22.508,44.425 22.498,44.436C22.462,44.508 22.426,44.484 22.371,44.436C22.154,44.339 22.021,44.351 21.972,44.472C21.894,44.671 22.069,44.72 22.184,44.798C22.299,44.877 22.456,44.998 22.45,45.191C22.449,45.283 22.413,45.371 22.351,45.438C22.288,45.505 22.203,45.546 22.111,45.554C21.943,45.579 21.77,45.547 21.622,45.463C21.561,45.463 21.537,45.391 21.573,45.324C21.61,45.258 21.658,45.27 21.712,45.324C21.788,45.37 21.872,45.399 21.96,45.409C22.008,45.419 22.058,45.412 22.102,45.389C22.145,45.366 22.178,45.328 22.196,45.282C22.213,45.238 22.214,45.188 22.197,45.144C22.18,45.099 22.148,45.062 22.105,45.04L21.9,44.907C21.827,44.863 21.771,44.795 21.74,44.715C21.709,44.636 21.706,44.548 21.731,44.466C21.764,44.387 21.821,44.321 21.893,44.275C21.966,44.23 22.05,44.208 22.136,44.212Z" fill="#F7F7F7"/>
<path d="M31.474,43.167C31.825,43.167 31.994,43.282 31.982,43.554C31.954,43.692 31.878,43.816 31.767,43.905C31.657,43.993 31.519,44.04 31.377,44.037C31.311,44.037 31.329,43.965 31.317,43.922C31.305,43.88 31.347,43.862 31.384,43.85C31.471,43.839 31.557,43.814 31.637,43.777C31.734,43.717 31.813,43.65 31.776,43.523C31.763,43.472 31.731,43.427 31.686,43.399C31.641,43.371 31.587,43.361 31.535,43.372C31.436,43.381 31.337,43.381 31.238,43.372C31.17,43.371 31.104,43.35 31.048,43.311C30.992,43.272 30.949,43.218 30.924,43.155C30.9,43.089 30.895,43.017 30.91,42.949C30.925,42.88 30.959,42.818 31.009,42.768C31.105,42.658 31.239,42.587 31.384,42.568C31.45,42.568 31.498,42.568 31.51,42.641C31.523,42.713 31.51,42.732 31.426,42.744C31.357,42.755 31.292,42.78 31.232,42.816C31.191,42.832 31.157,42.864 31.138,42.905C31.119,42.945 31.116,42.991 31.13,43.034C31.141,43.073 31.166,43.107 31.201,43.129C31.235,43.152 31.276,43.161 31.317,43.155L31.474,43.167Z" fill="#F8F8F8"/>
<path d="M32.647,43.384C32.585,43.383 32.526,43.366 32.474,43.334C32.421,43.302 32.379,43.257 32.35,43.202C32.236,43.009 32.121,42.81 32,42.598C31.958,42.531 31.921,42.453 31.819,42.538C31.716,42.622 31.728,42.538 31.698,42.495C31.667,42.453 31.698,42.398 31.734,42.374C31.77,42.35 31.813,42.272 31.734,42.205C31.72,42.194 31.709,42.181 31.701,42.165C31.694,42.149 31.69,42.132 31.69,42.114C31.69,42.097 31.694,42.08 31.701,42.064C31.709,42.048 31.72,42.034 31.734,42.024C31.806,41.945 31.861,41.921 31.903,42.024C31.945,42.126 32.054,42.175 32.169,42.084C32.284,41.994 32.272,41.975 32.338,42.084C32.405,42.193 32.338,42.211 32.272,42.241C32.097,42.308 32.103,42.405 32.205,42.544C32.308,42.683 32.381,42.84 32.477,42.991C32.574,43.142 32.647,43.184 32.792,43.075C32.84,43.039 32.876,43.033 32.919,43.075C32.93,43.084 32.939,43.095 32.945,43.107C32.952,43.12 32.955,43.134 32.955,43.148C32.955,43.162 32.952,43.176 32.945,43.189C32.939,43.201 32.93,43.212 32.919,43.221C32.848,43.303 32.753,43.36 32.647,43.384Z" fill="#F8F8F8"/>
<path d="M17.415,42.03L17.354,42.133L16.575,43.596C16.532,43.674 16.502,43.716 16.405,43.662C16.309,43.608 16.315,43.565 16.357,43.487L17.155,41.994C17.155,41.939 17.203,41.861 17.294,41.909C17.385,41.957 17.421,41.951 17.415,42.03Z" fill="#F9F9F9"/>
<path d="M18.726,20.481C18.563,20.572 18.684,20.723 18.648,20.844C18.594,20.748 18.571,20.639 18.581,20.53C18.581,20.487 18.581,20.439 18.618,20.421C18.654,20.403 18.702,20.445 18.726,20.481Z" fill="#E1E1E1"/>
<path d="M26.693,8.792L27.237,8.695C27.139,8.767 27.025,8.813 26.905,8.828C26.838,8.786 26.76,8.816 26.693,8.792Z" fill="#727272"/>
<path d="M26.699,12.056C26.572,12.117 26.435,12.154 26.294,12.165C26.397,12.1 26.509,12.051 26.627,12.02L26.699,12.056Z" fill="#535353"/>
<path d="M29.147,17.544C28.787,18.124 28.229,18.554 27.575,18.753C27.457,18.797 27.353,18.873 27.273,18.97C26.739,19.645 26.083,20.213 25.339,20.645C24.54,21.115 23.602,21.294 22.686,21.152C21.724,20.979 20.818,20.576 20.044,19.98C19.32,19.441 18.668,18.811 18.104,18.106C18.079,18.063 18.04,18.031 17.994,18.013C17.948,17.996 17.897,17.994 17.85,18.009C17.511,18.103 17.148,18.067 16.835,17.907C16.611,17.668 16.457,17.373 16.387,17.054C16.309,16.61 16.309,16.156 16.387,15.712C16.409,15.576 16.445,15.442 16.496,15.313C16.521,15.207 16.583,15.113 16.672,15.049C16.762,14.986 16.871,14.957 16.98,14.969C17.307,14.975 17.626,15.076 17.898,15.259C17.955,15.304 18.025,15.329 18.098,15.329C18.17,15.329 18.241,15.304 18.297,15.259C18.485,15.132 18.688,15.028 18.902,14.951C18.94,14.932 18.983,14.922 19.026,14.922C19.069,14.922 19.111,14.932 19.15,14.951C19.778,15.246 20.426,15.496 21.09,15.7C21.922,15.957 22.776,16.139 23.641,16.244C24.363,16.343 25.093,16.381 25.823,16.359C26.649,16.342 27.472,16.237 28.277,16.045C28.359,16.025 28.445,16.028 28.525,16.055C28.605,16.082 28.676,16.131 28.73,16.196C28.914,16.362 29.051,16.575 29.124,16.813C29.197,17.05 29.205,17.302 29.147,17.544Z" fill="#FDCF0B"/>
<path d="M36.987,21.811C37.03,21.826 37.073,21.844 37.114,21.866C37.274,21.971 37.465,22.016 37.655,21.994C37.845,21.972 38.022,21.884 38.153,21.745C38.38,21.536 38.552,21.274 38.655,20.983C38.788,20.669 38.969,20.615 39.223,20.826C39.34,20.895 39.441,20.986 39.521,21.096C39.601,21.205 39.657,21.33 39.687,21.462C39.716,21.594 39.718,21.731 39.693,21.864C39.667,21.997 39.614,22.123 39.537,22.234C39.383,22.524 39.179,22.784 38.933,23.002C38.889,23.033 38.851,23.073 38.822,23.118C38.793,23.164 38.773,23.215 38.764,23.268C38.756,23.331 38.768,23.394 38.797,23.45C38.826,23.506 38.871,23.552 38.927,23.582C39.622,24.033 40.249,24.58 40.789,25.208C40.886,25.331 40.962,25.47 41.012,25.619C41.097,25.867 41.012,26.018 40.74,26.042C40.656,26.042 40.577,26.042 40.492,26.042C40.408,26.042 40.402,26.042 40.384,26.042C40.365,26.042 40.384,26.115 40.432,26.151C40.48,26.188 40.559,26.302 40.613,26.387C40.66,26.44 40.693,26.504 40.707,26.573C40.721,26.643 40.717,26.715 40.695,26.782C40.673,26.849 40.634,26.909 40.582,26.957C40.529,27.004 40.465,27.037 40.396,27.052C40.293,27.094 40.245,27.13 40.257,27.251C40.257,27.56 40.184,27.644 39.87,27.638L39.682,27.638C39.616,27.638 39.58,27.638 39.568,27.711C39.531,27.892 39.386,27.94 39.241,27.983C38.512,28.179 37.736,28.095 37.065,27.747C36.427,27.443 35.845,27.035 35.343,26.538L34.919,26.169C34.623,25.935 34.412,25.611 34.317,25.245C34.222,24.88 34.249,24.493 34.394,24.145C34.551,23.655 34.811,23.203 35.154,22.82C35.498,22.437 35.918,22.13 36.388,21.92C36.479,21.882 36.572,21.849 36.666,21.823C36.767,21.778 36.882,21.773 36.987,21.811Z" fill="#FDCF0B"/>
<path d="M36.987,21.811L36.697,21.811C36.738,21.778 36.789,21.76 36.842,21.76C36.894,21.76 36.946,21.778 36.987,21.811Z" fill="#D8D8D8"/>
<path d="M7.242,25.39L6.958,25.39C6.922,25.393 6.885,25.387 6.852,25.372C6.818,25.358 6.789,25.335 6.767,25.306C6.745,25.277 6.73,25.243 6.724,25.207C6.719,25.171 6.722,25.134 6.734,25.1C6.767,24.932 6.847,24.777 6.964,24.653C7.416,24.149 7.934,23.71 8.505,23.347C8.554,23.327 8.597,23.293 8.628,23.251C8.659,23.208 8.677,23.157 8.681,23.104C8.685,23.052 8.674,22.999 8.649,22.952C8.624,22.905 8.587,22.866 8.542,22.839C8.378,22.7 8.232,22.542 8.106,22.368C8.017,22.273 7.949,22.159 7.907,22.035C7.864,21.911 7.85,21.78 7.863,21.65C7.876,21.52 7.917,21.394 7.983,21.281C8.049,21.168 8.138,21.071 8.245,20.996C8.451,20.82 8.62,20.851 8.729,21.092C8.821,21.332 8.961,21.55 9.14,21.733C9.247,21.852 9.39,21.932 9.548,21.961C9.705,21.991 9.867,21.968 10.01,21.896C10.115,21.84 10.233,21.81 10.352,21.81C10.471,21.81 10.588,21.84 10.693,21.896C11.148,22.1 11.547,22.411 11.855,22.803C12.163,23.195 12.373,23.655 12.464,24.145C12.508,24.349 12.501,24.56 12.443,24.761C12.385,24.961 12.278,25.144 12.132,25.293C11.54,25.947 10.83,26.484 10.041,26.877C9.494,27.135 8.876,27.199 8.288,27.058C8.232,27.052 8.178,27.034 8.13,27.005C8.082,26.975 8.041,26.936 8.01,26.889C7.961,26.762 7.901,26.738 7.768,26.762C7.484,26.804 7.399,26.726 7.381,26.442C7.386,26.407 7.38,26.373 7.363,26.342C7.347,26.312 7.321,26.287 7.29,26.272C6.934,26.067 6.91,25.958 7.133,25.608L7.169,25.553C7.228,25.452 7.309,25.365 7.405,25.299C7.871,24.961 8.336,24.622 8.832,24.32C8.832,24.32 8.88,24.284 8.904,24.32C8.587,24.501 8.282,24.703 7.992,24.924C7.774,25.064 7.574,25.221 7.387,25.378C7.342,25.401 7.29,25.405 7.242,25.39Z" fill="#FDCF0B"/>
<path d="M7.242,25.39C7.671,25.075 8.082,24.731 8.542,24.453C8.729,24.328 8.933,24.228 9.146,24.157C8.506,24.646 7.78,25.021 7.17,25.565L7.242,25.39Z" fill="#D4D4D4"/>
<path d="M20.377,18.324C20.915,18.777 21.529,19.133 22.19,19.375C22.57,19.51 22.979,19.545 23.376,19.477C23.774,19.409 24.148,19.241 24.463,18.989C24.729,18.773 24.98,18.539 25.212,18.287C25.24,18.257 25.275,18.234 25.315,18.221C25.219,18.491 25.071,18.739 24.88,18.952C24.57,19.357 24.15,19.663 23.671,19.835C23.138,20.003 22.564,19.982 22.045,19.774C21.355,19.497 20.758,19.03 20.322,18.427C20.292,18.318 20.304,18.306 20.377,18.324Z" fill="#FBFBFB"/>
<path d="M20.377,18.324C20.334,18.324 20.322,18.385 20.31,18.427C20.221,18.351 20.158,18.25 20.129,18.137C20.23,18.17 20.318,18.236 20.377,18.324Z" fill="#D7D7D7"/>
<path d="M38.244,24.55C38.956,24.915 39.622,25.366 40.226,25.891L40.226,25.928L38.208,24.604L38.244,24.55Z" fill="#DCDCDC"/>
<path d="M38.069,25.522C38.301,25.642 38.539,25.748 38.782,25.843C39.16,26.038 39.502,26.298 39.791,26.61C39.791,26.671 39.755,26.671 39.713,26.647C39.315,26.292 38.859,26.01 38.365,25.813C38.246,25.767 38.135,25.702 38.038,25.619C38.008,25.553 38.008,25.522 38.069,25.522Z" fill="#DFDFDF"/>
<path d="M38.975,26.786C38.68,26.662 38.357,26.614 38.038,26.647C37.713,26.661 37.39,26.577 37.114,26.405C37.114,26.345 37.15,26.345 37.192,26.363C37.507,26.502 37.852,26.562 38.195,26.538C38.5,26.523 38.804,26.586 39.078,26.719C39.114,26.81 39.114,26.822 38.975,26.786Z" fill="#E1E1E1"/>
<path d="M36.92,24.634C36.757,24.387 36.54,24.181 36.285,24.03C36.01,23.918 35.709,23.882 35.415,23.927C35.562,23.856 35.723,23.818 35.886,23.818C36.05,23.818 36.211,23.856 36.358,23.927C36.501,23.991 36.627,24.089 36.725,24.212C36.823,24.335 36.89,24.48 36.92,24.634Z" fill="#DBDBDB"/>
<path d="M38.975,26.786C38.997,26.787 39.019,26.781 39.037,26.769C39.055,26.757 39.07,26.74 39.078,26.72C39.208,26.781 39.323,26.87 39.415,26.981C39.507,27.092 39.574,27.221 39.61,27.361C39.449,27.12 39.231,26.923 38.975,26.786Z" fill="#C8C8C8"/>
<path d="M37.192,26.363L37.114,26.405C36.954,26.341 36.808,26.246 36.684,26.127C36.864,26.181 37.035,26.26 37.192,26.363Z" fill="#C2C2C2"/>
<path d="M39.719,26.647L39.797,26.61C39.911,26.697 40.004,26.809 40.069,26.937C39.935,26.863 39.816,26.765 39.719,26.647Z" fill="#BDBDBD"/>
<path d="M38.069,25.523L38.069,25.595C37.938,25.518 37.841,25.395 37.797,25.251L38.069,25.523Z" fill="#C3C3C3"/>
<path d="M7.635,26.109C7.912,25.716 8.29,25.405 8.729,25.209C9.011,25.108 9.275,24.961 9.509,24.773C9.393,24.968 9.214,25.118 9.001,25.197C8.514,25.415 8.069,25.716 7.683,26.085L7.635,26.109Z" fill="#D5D5D5"/>
<path d="M10.101,25.722C9.885,25.863 9.634,25.94 9.376,25.946C9.09,25.92 8.802,25.953 8.53,26.042C8.367,26.115 8.24,26.242 8.076,26.314C8.243,26.079 8.494,25.919 8.778,25.867C9.074,25.813 9.382,25.867 9.678,25.801C9.817,25.801 9.95,25.716 10.089,25.674L10.101,25.722Z" fill="#D9D9D9"/>
<path d="M10.21,24.277C10.232,24.143 10.286,24.016 10.366,23.905C10.445,23.795 10.55,23.705 10.67,23.642C10.791,23.579 10.925,23.544 11.061,23.541C11.197,23.538 11.332,23.567 11.455,23.624C11.204,23.578 10.945,23.617 10.719,23.735C10.494,23.854 10.314,24.044 10.21,24.277Z" fill="#D2D2D2"/>
</svg>
