<svg width="64" height="64" viewBox="0 0 64 64" fill="none" xmlns="http://www.w3.org/2000/svg" xmlns:xlink="http://www.w3.org/1999/xlink">
<path d="M61.485,19.557C59.87,15.746 57.559,12.325 54.623,9.383C51.68,6.447 48.259,4.136 44.448,2.521C40.503,0.849 36.315,0 32,0C14.356,0.006 0,14.361 0,32.003C0,49.645 14.356,64 32,64C49.644,64 64,49.645 64,32.003C64,27.688 63.157,23.501 61.485,19.557ZM32,58.709C17.273,58.709 5.292,46.728 5.292,32.003C5.292,17.278 17.273,5.298 32,5.298C46.727,5.298 58.708,17.278 58.708,32.003C58.708,46.728 46.727,58.709 32,58.709Z" fill="#00BC35"/>
<path d="M32,58.709C17.273,58.709 5.292,46.728 5.292,32.003C5.292,17.278 17.273,5.298 32,5.298C46.727,5.298 58.708,17.278 58.708,32.003C58.708,46.728 46.727,58.709 32,58.709Z" fill="#00BC35"/>
<path d="M48.007,19.98C47.288,19.261 46.319,18.855 45.304,18.855C44.289,18.855 43.321,19.251 42.601,19.98L26.614,35.883L21.494,30.726C20.018,29.25 17.592,29.232 16.097,30.699C14.593,32.165 14.575,34.591 16.051,36.104L23.874,43.982C24.594,44.701 25.562,45.107 26.586,45.107C27.601,45.107 28.56,44.71 29.28,43.991L47.989,25.395C49.465,23.919 49.483,21.493 48.016,19.998L48.007,19.98Z" fill="#FFFFFF"/>
</svg>
