<svg width="48" height="10" viewBox="0 0 48 10" fill="none" xmlns="http://www.w3.org/2000/svg" xmlns:xlink="http://www.w3.org/1999/xlink">
<path d="M2.557,4.6L2.821,3.661L3.519,1.133C3.566,0.981 3.566,0.981 3.396,0.981L2.991,0.981C2.915,0.981 2.892,0.981 2.898,0.887C2.898,0.723 2.898,0.558 2.898,0.4C2.898,0.242 2.898,0.283 3.015,0.283L5.127,0.283C5.238,0.283 5.379,0.23 5.443,0.283C5.508,0.335 5.443,0.482 5.443,0.588C5.443,0.693 5.49,0.857 5.443,0.928C5.396,0.998 5.22,0.928 5.103,0.928C4.816,0.928 4.816,0.928 4.886,1.198C5.187,2.273 5.488,3.344 5.789,4.412C5.795,4.462 5.815,4.509 5.848,4.547C5.913,4.306 5.977,4.072 6.047,3.843C6.306,2.916 6.568,1.991 6.833,1.069C6.875,0.94 6.833,0.916 6.722,0.928L6.288,0.928C6.229,0.928 6.206,0.928 6.206,0.846C6.206,0.67 6.206,0.488 6.206,0.306C6.206,0.236 6.235,0.236 6.294,0.236L8.183,0.236C8.247,0.236 8.27,0.236 8.27,0.318C8.27,0.488 8.27,0.664 8.27,0.84C8.27,0.91 8.241,0.928 8.177,0.928L7.702,0.928C7.631,0.928 7.602,0.928 7.578,1.022C7.297,2.036 6.992,3.045 6.722,4.06C6.558,4.647 6.399,5.233 6.241,5.779C6.241,5.855 6.188,5.884 6.106,5.878L5.52,5.878C5.426,5.878 5.396,5.849 5.373,5.767C5.127,4.905 4.88,4.042 4.64,3.18C4.475,2.623 4.317,2.06 4.147,1.467C4.106,1.608 4.071,1.714 4.041,1.819C3.65,3.141 3.279,4.463 2.927,5.785C2.925,5.8 2.92,5.816 2.911,5.829C2.903,5.843 2.891,5.855 2.878,5.864C2.865,5.873 2.85,5.879 2.834,5.881C2.818,5.884 2.802,5.883 2.786,5.878L2.252,5.878C2.147,5.878 2.106,5.878 2.082,5.755C1.701,4.418 1.314,3.086 0.909,1.749C0.839,1.514 0.768,1.28 0.704,1.045C0.703,1.026 0.697,1.008 0.688,0.991C0.679,0.974 0.667,0.96 0.652,0.948C0.637,0.937 0.62,0.928 0.602,0.924C0.583,0.919 0.564,0.919 0.546,0.922C0.387,0.922 0.235,0.922 0.082,0.922C0.023,0.922 0,0.922 0,0.84L0,0.3C0,0.247 0,0.23 0.076,0.23L2.059,0.23C2.123,0.23 2.141,0.23 2.141,0.312C2.141,0.488 2.141,0.664 2.141,0.84C2.141,0.91 2.106,0.922 2.047,0.922C1.895,0.922 1.748,0.922 1.595,0.922C1.443,0.922 1.472,0.957 1.502,1.057C1.707,1.755 1.906,2.453 2.088,3.151C2.205,3.567 2.329,3.99 2.452,4.406C2.452,4.445 2.461,4.483 2.48,4.516C2.498,4.55 2.525,4.579 2.557,4.6Z" fill="#2A2560"/>
<path d="M26.307,5.273C26.307,5.191 26.278,5.18 26.208,5.18C26.137,5.18 25.944,5.18 25.814,5.18C25.795,5.184 25.775,5.184 25.756,5.181C25.736,5.177 25.718,5.169 25.702,5.158C25.685,5.147 25.671,5.133 25.66,5.117C25.649,5.1 25.642,5.082 25.639,5.062C25.234,3.948 24.823,2.845 24.418,1.736C24.319,1.473 24.225,1.203 24.119,0.921L24.594,0.921C24.811,0.921 24.817,0.921 24.811,0.704C24.806,0.487 24.864,0.399 24.811,0.323C24.759,0.247 24.553,0.294 24.418,0.294L22.072,0.294C21.973,0.294 21.943,0.323 21.949,0.417C21.955,0.511 21.949,0.698 21.949,0.839C21.949,0.98 21.949,0.933 22.043,0.927L22.512,0.927C22.606,0.927 22.624,0.927 22.588,1.033C22.102,2.388 21.621,3.743 21.134,5.092C21.128,5.121 21.112,5.146 21.088,5.164C21.064,5.181 21.034,5.189 21.005,5.185L20.518,5.185C20.447,5.185 20.424,5.185 20.424,5.273C20.424,5.444 20.424,5.62 20.424,5.79C20.424,5.86 20.424,5.883 20.518,5.883L22.53,5.883C22.618,5.883 22.635,5.854 22.629,5.778C22.624,5.702 22.629,5.455 22.629,5.291C22.629,5.127 22.629,5.185 22.524,5.185L21.937,5.185L22.348,3.971C22.348,3.901 22.424,3.918 22.471,3.918L24.272,3.918C24.348,3.918 24.389,3.918 24.413,4.012C24.526,4.372 24.643,4.73 24.765,5.086C24.794,5.18 24.765,5.185 24.682,5.185L24.184,5.185C24.119,5.185 24.096,5.185 24.096,5.273C24.096,5.449 24.096,5.62 24.096,5.79C24.096,5.866 24.096,5.883 24.196,5.883L26.19,5.883C26.26,5.883 26.29,5.883 26.29,5.79C26.297,5.61 26.303,5.438 26.307,5.273ZM24.072,3.262L22.712,3.262C22.629,3.262 22.594,3.262 22.624,3.162C22.864,2.446 23.099,1.731 23.339,1.009C23.339,1.009 23.339,0.927 23.404,0.927C23.468,0.927 23.462,0.98 23.468,1.015L24.155,3.162C24.184,3.232 24.16,3.256 24.072,3.25L24.072,3.262Z" fill="#292560"/>
<path d="M44.966,2.441C45.112,2.353 45.235,2.271 45.365,2.2C45.715,1.983 46.129,1.892 46.538,1.942C46.731,1.972 46.909,2.064 47.045,2.205C47.181,2.346 47.266,2.528 47.288,2.722C47.321,3.075 47.332,3.43 47.324,3.784C47.324,4.212 47.324,4.64 47.324,5.069C47.324,5.168 47.353,5.204 47.453,5.198C47.552,5.192 47.746,5.198 47.898,5.198C48.051,5.198 47.986,5.198 47.986,5.286C47.978,5.448 47.978,5.61 47.986,5.773C47.986,5.86 47.957,5.872 47.881,5.872L46.708,5.872C46.602,5.872 46.59,5.837 46.59,5.743L46.59,3.473C46.599,3.302 46.587,3.131 46.555,2.963C46.538,2.865 46.486,2.776 46.408,2.713C46.331,2.651 46.233,2.618 46.133,2.623C45.819,2.644 45.515,2.747 45.253,2.922C45.162,2.965 45.086,3.036 45.037,3.124C44.987,3.212 44.966,3.314 44.977,3.415C44.977,3.954 44.977,4.5 44.977,5.039C44.977,5.18 45.018,5.209 45.147,5.204C45.277,5.198 45.417,5.204 45.552,5.204C45.687,5.204 45.658,5.204 45.652,5.297C45.646,5.391 45.652,5.626 45.652,5.796C45.652,5.86 45.652,5.878 45.57,5.878L43.617,5.878C43.546,5.878 43.534,5.878 43.534,5.79L43.534,5.274C43.534,5.204 43.534,5.186 43.622,5.186L44.109,5.186C44.186,5.186 44.215,5.186 44.215,5.086L44.215,2.74C44.215,2.664 44.215,2.634 44.115,2.64C44.015,2.646 43.793,2.64 43.628,2.64C43.464,2.64 43.529,2.64 43.534,2.546C43.534,2.382 43.534,2.218 43.534,2.06C43.534,1.901 43.564,1.966 43.634,1.966L44.878,1.966C44.96,1.966 44.989,1.966 44.983,2.071C44.977,2.177 44.966,2.341 44.966,2.441Z" fill="#2A2560"/>
<path d="M11.303,4.716C11.244,4.687 11.209,4.716 11.174,4.746C11.102,4.846 11.015,4.935 10.916,5.009C10.732,5.168 10.509,5.275 10.27,5.321C10.031,5.366 9.785,5.348 9.555,5.269C9.325,5.189 9.121,5.051 8.961,4.867C8.801,4.684 8.693,4.462 8.646,4.223C8.646,4.135 8.646,4.118 8.734,4.118C9.015,4.118 9.32,4.118 9.573,4.118L11.778,4.118C11.884,4.118 11.907,4.089 11.901,3.995C11.895,3.901 11.866,3.69 11.843,3.537C11.786,3.246 11.668,2.97 11.495,2.728C11.322,2.487 11.099,2.286 10.841,2.138C10.583,1.991 10.296,1.902 10,1.876C9.704,1.85 9.406,1.889 9.127,1.989C8.734,2.127 8.395,2.385 8.155,2.726C7.915,3.066 7.788,3.473 7.79,3.889C7.773,4.172 7.82,4.455 7.926,4.718C8.033,4.981 8.197,5.217 8.405,5.408C8.786,5.727 9.256,5.922 9.75,5.967C10.245,6.012 10.742,5.905 11.174,5.661C11.471,5.495 11.721,5.257 11.901,4.968L11.303,4.716ZM8.675,3.455C8.724,3.218 8.843,3 9.016,2.831C9.19,2.661 9.41,2.548 9.649,2.505C9.902,2.467 10.16,2.506 10.39,2.617C10.62,2.728 10.811,2.905 10.939,3.127C11,3.228 11.049,3.337 11.086,3.449C11.121,3.537 11.086,3.567 10.998,3.567L8.769,3.567C8.681,3.567 8.652,3.549 8.675,3.455Z" fill="#2A2560"/>
<path d="M43.194,5.273C43.194,5.203 43.194,5.179 43.106,5.179L42.778,5.179C42.537,5.179 42.543,5.179 42.537,4.939C42.537,4.247 42.537,3.561 42.537,2.868C42.528,2.681 42.463,2.5 42.352,2.349C42.24,2.197 42.086,2.082 41.91,2.018C41.523,1.861 41.1,1.817 40.69,1.889C40.431,1.912 40.182,1.997 39.963,2.136C39.744,2.274 39.56,2.463 39.429,2.687C39.393,2.745 39.393,2.775 39.464,2.792L40.05,2.945C40.068,2.951 40.088,2.952 40.107,2.945C40.125,2.939 40.14,2.926 40.15,2.909C40.251,2.755 40.396,2.634 40.567,2.564C40.738,2.494 40.926,2.477 41.106,2.516C41.246,2.514 41.383,2.554 41.5,2.632C41.616,2.709 41.706,2.82 41.757,2.951C41.811,3.209 41.827,3.474 41.804,3.736C41.757,3.732 41.712,3.714 41.675,3.684C41.451,3.549 41.199,3.465 40.938,3.44C40.677,3.415 40.414,3.448 40.168,3.537C39.992,3.596 39.831,3.693 39.699,3.823C39.566,3.953 39.465,4.111 39.403,4.286C39.34,4.461 39.319,4.647 39.34,4.832C39.36,5.016 39.423,5.193 39.522,5.35C39.698,5.593 39.948,5.773 40.234,5.864C40.52,5.955 40.828,5.951 41.112,5.854C41.4,5.759 41.662,5.601 41.88,5.391C41.88,5.537 41.88,5.649 41.88,5.766C41.88,5.883 41.88,5.854 41.968,5.854L43.141,5.854C43.206,5.854 43.224,5.854 43.224,5.772C43.188,5.613 43.188,5.449 43.194,5.273ZM41.593,5.027C41.343,5.222 41.036,5.329 40.719,5.332C40.552,5.342 40.387,5.286 40.26,5.177C40.133,5.067 40.054,4.912 40.039,4.745C40.027,4.57 40.086,4.398 40.201,4.266C40.317,4.134 40.48,4.054 40.654,4.041C40.849,4.024 41.046,4.046 41.232,4.105C41.418,4.165 41.591,4.261 41.74,4.388C41.833,4.458 41.74,4.564 41.775,4.652C41.857,4.845 41.728,4.945 41.593,5.039L41.593,5.027Z" fill="#2A2560"/>
<path d="M14.84,2.141C14.811,2 14.869,1.971 14.975,1.983L15.409,1.983C15.485,1.983 15.52,1.983 15.515,2.082L15.515,3.173C15.515,3.25 15.515,3.273 15.415,3.267L14.916,3.267C14.846,3.267 14.822,3.267 14.834,3.173C14.841,3.116 14.833,3.058 14.812,3.005C14.79,2.952 14.756,2.905 14.711,2.868C14.566,2.721 14.381,2.619 14.18,2.573C13.978,2.528 13.768,2.54 13.573,2.61C13.508,2.631 13.448,2.664 13.397,2.708C13.345,2.753 13.304,2.807 13.274,2.868C13.25,2.913 13.236,2.962 13.234,3.013C13.232,3.063 13.241,3.114 13.261,3.161C13.28,3.207 13.31,3.249 13.348,3.283C13.386,3.316 13.431,3.341 13.479,3.355C13.773,3.439 14.073,3.5 14.377,3.537C14.545,3.564 14.712,3.603 14.875,3.654C15.111,3.71 15.322,3.843 15.474,4.032C15.626,4.221 15.71,4.456 15.714,4.698C15.732,4.939 15.668,5.179 15.531,5.379C15.395,5.578 15.194,5.725 14.963,5.795C14.68,5.91 14.374,5.959 14.069,5.937C13.764,5.916 13.468,5.825 13.203,5.672C13.203,5.819 13.162,5.86 13.022,5.842C12.887,5.833 12.752,5.833 12.617,5.842C12.547,5.842 12.517,5.842 12.517,5.748L12.517,4.61C12.517,4.546 12.517,4.511 12.605,4.516L13.115,4.516C13.174,4.516 13.192,4.516 13.192,4.593C13.193,4.705 13.226,4.814 13.288,4.907C13.349,5.001 13.436,5.075 13.538,5.121C13.709,5.216 13.901,5.269 14.097,5.274C14.293,5.279 14.488,5.236 14.664,5.15C14.725,5.125 14.779,5.086 14.82,5.034C14.861,4.983 14.888,4.922 14.899,4.857C14.922,4.766 14.909,4.669 14.861,4.588C14.814,4.507 14.737,4.447 14.646,4.423C14.428,4.345 14.202,4.289 13.972,4.258C13.686,4.215 13.408,4.132 13.145,4.012C12.944,3.932 12.774,3.79 12.66,3.606C12.546,3.423 12.494,3.207 12.511,2.991C12.516,2.778 12.585,2.572 12.709,2.399C12.834,2.226 13.009,2.095 13.209,2.024C13.448,1.93 13.702,1.885 13.958,1.892C14.214,1.9 14.466,1.958 14.699,2.065L14.84,2.141Z" fill="#2A2560"/>
<path d="M37.939,2.229C37.939,1.983 37.939,1.983 38.203,1.983C38.343,1.983 38.525,1.924 38.607,2.012C38.69,2.1 38.607,2.27 38.607,2.405C38.607,2.716 38.607,3.027 38.607,3.338C38.607,3.432 38.607,3.455 38.49,3.449L38.003,3.449C37.956,3.449 37.927,3.449 37.915,3.385C37.887,3.186 37.795,3.002 37.651,2.861C37.508,2.72 37.323,2.63 37.123,2.605C36.91,2.552 36.686,2.567 36.482,2.648C36.278,2.729 36.104,2.872 35.985,3.056C35.807,3.349 35.725,3.691 35.751,4.033C35.778,4.375 35.911,4.7 36.132,4.963C36.257,5.079 36.404,5.167 36.565,5.223C36.726,5.278 36.897,5.3 37.066,5.285C37.236,5.271 37.401,5.221 37.55,5.139C37.699,5.058 37.83,4.945 37.933,4.81L37.98,4.74C38.033,4.681 38.044,4.552 38.121,4.546C38.197,4.54 38.279,4.605 38.361,4.646C38.443,4.687 38.549,4.74 38.648,4.775C38.748,4.81 38.725,4.845 38.695,4.91C38.565,5.2 38.36,5.449 38.101,5.634C37.842,5.818 37.54,5.931 37.223,5.96C36.754,6.009 36.283,5.898 35.886,5.644C35.489,5.39 35.19,5.009 35.038,4.562C34.887,4.116 34.892,3.632 35.052,3.188C35.213,2.745 35.519,2.37 35.921,2.124C36.216,1.939 36.56,1.849 36.907,1.863C37.255,1.878 37.59,1.997 37.868,2.206C37.868,2.206 37.915,2.218 37.939,2.229Z" fill="#2A2560"/>
<path d="M27.04,3.925C27.04,3.538 27.04,3.151 27.04,2.752C27.04,2.664 27.04,2.634 26.929,2.64C26.818,2.646 26.683,2.64 26.565,2.64C26.448,2.64 26.471,2.64 26.471,2.552C26.471,2.464 26.471,2.224 26.471,2.054C26.471,1.983 26.501,1.966 26.565,1.972L26.642,1.972C26.771,1.972 26.935,2.024 27.011,1.972C27.087,1.919 27.011,1.725 27.011,1.596C27.01,1.39 27.024,1.184 27.052,0.98C27.102,0.754 27.227,0.552 27.407,0.407C27.588,0.262 27.812,0.182 28.043,0.182C28.275,0.182 28.499,0.262 28.68,0.407C28.86,0.552 28.985,0.754 29.035,0.98C29.035,1.051 29.035,1.074 28.97,1.08C28.906,1.086 28.665,1.121 28.519,1.15C28.372,1.18 28.372,1.15 28.348,1.051C28.325,0.951 28.214,0.793 28.061,0.798C28.003,0.795 27.946,0.812 27.901,0.848C27.855,0.884 27.825,0.935 27.815,0.992C27.78,1.235 27.768,1.48 27.779,1.725C27.779,1.989 27.779,1.983 28.038,1.989C28.172,1.989 28.348,1.931 28.425,2.018C28.501,2.106 28.425,2.271 28.425,2.4C28.425,2.658 28.425,2.658 28.161,2.658L27.862,2.658C27.78,2.658 27.75,2.658 27.756,2.758C27.756,2.928 27.756,3.092 27.756,3.256L27.756,5.069C27.756,5.162 27.756,5.204 27.879,5.198C28.002,5.192 28.225,5.198 28.401,5.198C28.472,5.198 28.495,5.198 28.495,5.286C28.495,5.456 28.495,5.62 28.495,5.784C28.495,5.86 28.466,5.872 28.401,5.872L26.606,5.872C26.53,5.872 26.501,5.872 26.507,5.778C26.507,5.614 26.507,5.444 26.507,5.28C26.507,5.215 26.507,5.198 26.589,5.198C26.671,5.198 26.835,5.198 26.958,5.198C27.081,5.198 27.076,5.168 27.076,5.08C27.04,4.687 27.04,4.306 27.04,3.925Z" fill="#2A2560"/>
<path d="M30.22,2.788C30.31,2.631 30.412,2.482 30.525,2.342C30.654,2.204 30.812,2.095 30.987,2.023C31.162,1.951 31.35,1.918 31.539,1.925L31.885,1.925C31.956,1.925 31.973,1.955 31.973,2.019C31.973,2.213 31.973,2.406 31.973,2.606C31.973,2.694 31.944,2.711 31.868,2.711C31.618,2.703 31.368,2.725 31.123,2.776C30.956,2.804 30.802,2.884 30.682,3.003C30.562,3.123 30.482,3.277 30.454,3.445C30.397,3.728 30.371,4.017 30.378,4.307L30.378,5.11C30.378,5.187 30.378,5.216 30.478,5.216L31.135,5.216C31.205,5.216 31.228,5.216 31.228,5.304C31.228,5.468 31.228,5.638 31.228,5.803C31.228,5.873 31.228,5.89 31.135,5.89L28.953,5.89C28.87,5.89 28.847,5.861 28.853,5.785C28.859,5.709 28.853,5.468 28.853,5.31C28.853,5.239 28.853,5.216 28.947,5.216L29.533,5.216C29.615,5.216 29.645,5.216 29.645,5.105L29.645,2.758C29.645,2.67 29.615,2.647 29.533,2.653L28.947,2.653C28.87,2.653 28.841,2.653 28.847,2.559C28.853,2.465 28.847,2.224 28.847,2.06C28.847,1.996 28.847,1.978 28.929,1.978L30.126,1.978C30.202,1.978 30.202,2.025 30.202,2.078L30.22,2.788Z" fill="#2A2560"/>
<path d="M18.201,5.151L18.201,5.778C18.201,5.825 18.201,5.843 18.142,5.849C17.849,5.948 17.532,5.948 17.239,5.849C17.109,5.81 16.993,5.734 16.907,5.629C16.82,5.525 16.766,5.397 16.752,5.262C16.752,5.08 16.723,4.899 16.723,4.711L16.723,2.822C16.723,2.658 16.723,2.658 16.553,2.658C16.383,2.658 16.388,2.658 16.306,2.658C16.224,2.658 16.213,2.658 16.213,2.57C16.213,2.406 16.213,2.241 16.213,2.083C16.213,1.925 16.248,1.978 16.324,1.983L16.635,1.983C16.711,1.983 16.729,1.983 16.729,1.895C16.729,1.807 16.729,1.608 16.729,1.461C16.726,1.441 16.728,1.421 16.734,1.402C16.74,1.382 16.75,1.365 16.764,1.35L17.491,0.681L17.491,0.986C17.491,1.285 17.491,1.573 17.491,1.89C17.491,1.96 17.491,1.989 17.585,1.983L18.113,1.983C18.183,1.983 18.213,1.983 18.213,2.077C18.213,2.171 18.213,2.4 18.213,2.564C18.213,2.634 18.213,2.664 18.113,2.658C17.937,2.658 17.767,2.658 17.591,2.658C17.515,2.658 17.491,2.658 17.491,2.752C17.491,3.45 17.491,4.154 17.491,4.852C17.491,5.174 17.573,5.239 17.89,5.204C17.995,5.194 18.099,5.177 18.201,5.151Z" fill="#2A2560"/>
<path d="M33.897,3.585C33.897,4.084 33.897,4.576 33.897,5.069C33.897,5.169 33.897,5.204 34.026,5.198C34.155,5.192 34.279,5.198 34.402,5.198C34.525,5.198 34.507,5.198 34.501,5.292C34.501,5.456 34.501,5.614 34.501,5.779C34.501,5.855 34.501,5.873 34.408,5.873L32.619,5.873C32.548,5.873 32.531,5.873 32.531,5.785C32.531,5.62 32.531,5.462 32.531,5.298C32.531,5.133 32.56,5.198 32.636,5.198L33.059,5.198C33.117,5.198 33.141,5.198 33.141,5.116L33.141,2.77C33.141,2.693 33.105,2.676 33.041,2.682C32.976,2.687 32.759,2.682 32.619,2.682C32.478,2.682 32.531,2.682 32.531,2.594C32.531,2.429 32.531,2.259 32.531,2.095C32.531,2.025 32.531,2.007 32.624,2.007L33.798,2.007C33.886,2.007 33.897,2.036 33.897,2.113L33.897,3.585Z" fill="#2A2560"/>
<path d="M3.144,8.418L3.555,8.418C3.619,8.418 3.637,8.418 3.637,8.336C3.637,8.178 3.637,8.014 3.637,7.849C3.637,7.773 3.607,7.755 3.537,7.755C3.373,7.755 3.332,7.685 3.367,7.521C3.367,7.468 3.42,7.474 3.455,7.474L4.153,7.474C4.288,7.474 4.235,7.568 4.241,7.632C4.247,7.697 4.241,7.761 4.153,7.767C4.065,7.773 3.983,7.767 3.983,7.955C3.983,8.418 3.983,8.888 3.983,9.357C3.983,9.456 3.983,9.509 4.112,9.492C4.241,9.474 4.253,9.533 4.253,9.638C4.253,9.744 4.253,9.785 4.118,9.779C3.903,9.767 3.687,9.767 3.472,9.779C3.343,9.779 3.373,9.697 3.373,9.632C3.373,9.568 3.373,9.468 3.478,9.492C3.584,9.515 3.654,9.451 3.643,9.316C3.631,9.181 3.643,8.976 3.643,8.805C3.643,8.735 3.643,8.706 3.543,8.706C3.273,8.706 3.003,8.706 2.733,8.706C2.663,8.706 2.64,8.706 2.64,8.8C2.64,8.993 2.64,9.187 2.64,9.386C2.64,9.486 2.675,9.509 2.763,9.503C2.851,9.498 2.886,9.474 2.904,9.503C2.915,9.581 2.915,9.66 2.904,9.738C2.904,9.767 2.857,9.738 2.833,9.738L2.123,9.738C1.988,9.738 2.047,9.644 2.041,9.586C2.035,9.527 2.041,9.433 2.123,9.456C2.206,9.48 2.299,9.415 2.299,9.275C2.299,8.805 2.299,8.33 2.299,7.855C2.299,7.75 2.264,7.709 2.164,7.726C2.065,7.744 2.035,7.667 2.035,7.574C2.035,7.48 2.035,7.433 2.164,7.439C2.37,7.439 2.581,7.439 2.792,7.439C3.003,7.439 2.909,7.515 2.909,7.597C2.909,7.679 2.909,7.75 2.798,7.726C2.686,7.703 2.628,7.726 2.64,7.885C2.648,8.025 2.648,8.166 2.64,8.307C2.64,8.371 2.64,8.395 2.733,8.395L3.144,8.418Z" fill="#922B8C"/>
<path d="M28.155,8.471C28.15,8.209 28.043,7.959 27.857,7.775C27.671,7.591 27.42,7.487 27.158,7.486L26.606,7.486C26.43,7.486 26.249,7.486 26.067,7.486C25.885,7.486 25.897,7.486 25.897,7.65C25.897,7.814 25.973,7.785 26.061,7.773C26.149,7.761 26.225,7.773 26.225,7.931C26.225,8.412 26.225,8.893 26.225,9.374C26.225,9.474 26.225,9.509 26.096,9.503C25.897,9.503 25.897,9.503 25.908,9.703C25.908,9.761 25.908,9.791 25.99,9.791C26.407,9.791 26.823,9.791 27.24,9.761C27.42,9.755 27.594,9.696 27.741,9.592C27.888,9.488 28.002,9.343 28.067,9.175C28.149,8.95 28.18,8.709 28.155,8.471ZM27.756,8.946C27.725,9.082 27.651,9.204 27.546,9.295C27.44,9.386 27.308,9.44 27.169,9.451C26.991,9.474 26.81,9.486 26.63,9.486C26.559,9.486 26.542,9.456 26.542,9.392C26.542,8.876 26.542,8.36 26.542,7.849C26.542,7.773 26.571,7.755 26.636,7.755L26.87,7.755L27.093,7.755C27.257,7.753 27.416,7.812 27.538,7.92C27.661,8.029 27.739,8.179 27.756,8.342C27.816,8.538 27.825,8.746 27.779,8.946L27.756,8.946Z" fill="#922B8C"/>
<path d="M23.885,9.485L23.762,9.485C23.736,9.482 23.712,9.473 23.691,9.459C23.67,9.445 23.652,9.425 23.64,9.403C23.628,9.38 23.622,9.355 23.621,9.33C23.621,9.304 23.627,9.279 23.638,9.256C23.7,9.165 23.745,9.064 23.773,8.957C23.773,8.857 23.85,8.816 23.949,8.834C24.049,8.852 24.061,8.834 24.061,8.74C24.061,8.558 24.061,8.558 23.885,8.558C23.82,8.558 23.762,8.558 23.697,8.558C23.633,8.558 23.574,8.558 23.556,8.664C23.534,8.812 23.483,8.953 23.404,9.08L23.099,8.67C23.052,8.605 22.97,8.541 22.97,8.476C22.97,8.412 23.093,8.388 23.163,8.347C23.267,8.295 23.347,8.206 23.388,8.097C23.428,7.988 23.425,7.868 23.38,7.761C23.307,7.629 23.186,7.53 23.041,7.485C22.897,7.44 22.741,7.453 22.606,7.52C22.541,7.547 22.482,7.588 22.435,7.639C22.387,7.691 22.351,7.753 22.33,7.82C22.309,7.887 22.302,7.958 22.312,8.028C22.321,8.098 22.345,8.165 22.383,8.224C22.454,8.347 22.43,8.382 22.319,8.441C22.213,8.5 22.123,8.585 22.058,8.688C21.994,8.791 21.956,8.909 21.948,9.03C21.94,9.152 21.963,9.273 22.015,9.383C22.066,9.493 22.144,9.589 22.242,9.661C22.389,9.763 22.563,9.817 22.741,9.817C22.919,9.817 23.093,9.763 23.24,9.661C23.345,9.591 23.416,9.573 23.48,9.702C23.49,9.725 23.506,9.744 23.527,9.756C23.548,9.769 23.573,9.775 23.597,9.773L23.979,9.773C24.014,9.773 24.043,9.772 24.055,9.726C24.102,9.561 24.049,9.485 23.885,9.485ZM22.876,7.725C22.905,7.723 22.935,7.727 22.963,7.736C22.991,7.746 23.017,7.761 23.039,7.78C23.061,7.8 23.078,7.824 23.091,7.851C23.103,7.878 23.11,7.907 23.11,7.937C23.093,8.01 23.055,8.077 23.001,8.13C22.947,8.183 22.879,8.219 22.805,8.236C22.747,8.236 22.641,8.066 22.641,7.954C22.637,7.922 22.64,7.888 22.65,7.857C22.66,7.826 22.677,7.797 22.699,7.773C22.721,7.748 22.749,7.73 22.779,7.717C22.81,7.705 22.843,7.7 22.876,7.702L22.876,7.725ZM23.146,9.415C23.102,9.456 23.051,9.489 22.994,9.51C22.938,9.531 22.877,9.541 22.817,9.538C22.702,9.542 22.588,9.508 22.494,9.44C22.401,9.371 22.333,9.274 22.301,9.162C22.274,9.053 22.287,8.937 22.337,8.836C22.388,8.735 22.473,8.655 22.577,8.611C22.63,8.611 22.653,8.611 22.682,8.611C22.841,8.834 22.999,9.063 23.163,9.286C23.198,9.333 23.181,9.38 23.146,9.38L23.146,9.415Z" fill="#922C8D"/>
<path d="M12.529,8.688C12.423,9.017 12.312,9.339 12.218,9.674C12.215,9.694 12.208,9.713 12.198,9.73C12.187,9.747 12.173,9.762 12.157,9.774C12.14,9.785 12.122,9.793 12.102,9.797C12.082,9.801 12.062,9.801 12.042,9.797C11.942,9.797 11.866,9.797 11.831,9.674C11.725,9.304 11.596,8.94 11.479,8.571C11.479,8.489 11.432,8.442 11.332,8.448C11.233,8.454 11.262,8.354 11.256,8.295C11.25,8.237 11.227,8.166 11.332,8.172L11.843,8.172C11.942,8.172 11.925,8.231 11.919,8.283C11.913,8.336 11.972,8.454 11.843,8.448C11.714,8.442 11.725,8.489 11.755,8.583C11.843,8.841 11.925,9.105 12.019,9.404L12.206,8.817L12.277,8.588C12.277,8.512 12.365,8.442 12.2,8.43C12.036,8.418 12.171,8.301 12.159,8.231C12.148,8.16 12.189,8.16 12.236,8.16L12.822,8.16C12.904,8.16 12.922,8.195 12.904,8.254C12.887,8.313 12.969,8.43 12.834,8.436C12.699,8.442 12.746,8.436 12.769,8.542C12.852,8.8 12.928,9.058 13.01,9.316L13.051,9.369C13.139,9.075 13.227,8.782 13.321,8.518C13.321,8.436 13.291,8.436 13.233,8.442C13.08,8.442 13.133,8.342 13.121,8.266C13.11,8.19 13.162,8.154 13.245,8.16L13.761,8.16C13.86,8.16 13.855,8.219 13.843,8.278C13.831,8.336 13.89,8.454 13.761,8.436C13.632,8.418 13.596,8.489 13.567,8.588C13.456,8.952 13.333,9.316 13.227,9.679C13.198,9.779 13.139,9.791 13.051,9.785C12.963,9.779 12.893,9.785 12.857,9.679C12.764,9.345 12.646,9.011 12.541,8.682L12.529,8.688Z" fill="#922C8C"/>
<path d="M44.614,9.638C44.614,9.562 44.614,9.474 44.497,9.486C44.379,9.498 44.326,9.515 44.326,9.31C44.326,8.723 44.326,8.166 44.326,7.591C44.326,7.503 44.326,7.462 44.209,7.468L43.793,7.468C43.752,7.468 43.716,7.468 43.705,7.515C43.658,7.685 43.705,7.744 43.875,7.744L43.939,7.744C43.986,7.744 44.01,7.744 44.01,7.814L44.01,8.354C43.546,8.043 43.188,8.049 42.878,8.354C42.749,8.501 42.669,8.685 42.651,8.88C42.633,9.075 42.678,9.271 42.778,9.439C42.844,9.536 42.931,9.616 43.033,9.675C43.134,9.734 43.248,9.769 43.364,9.779C43.483,9.788 43.602,9.771 43.713,9.73C43.825,9.688 43.926,9.623 44.01,9.539C44.015,9.564 44.015,9.59 44.01,9.615C44.01,9.72 44.01,9.767 44.145,9.756C44.262,9.744 44.379,9.744 44.497,9.756C44.608,9.779 44.62,9.726 44.614,9.638ZM43.499,9.509C43.429,9.511 43.36,9.498 43.295,9.471C43.23,9.445 43.172,9.404 43.124,9.353C43.076,9.303 43.039,9.242 43.015,9.176C42.992,9.11 42.983,9.04 42.989,8.97C42.985,8.901 42.995,8.832 43.018,8.767C43.041,8.702 43.077,8.643 43.123,8.592C43.17,8.541 43.226,8.5 43.289,8.471C43.351,8.442 43.419,8.426 43.488,8.424C43.558,8.42 43.628,8.431 43.694,8.456C43.76,8.481 43.819,8.519 43.869,8.569C43.918,8.62 43.956,8.68 43.981,8.746C44.005,8.811 44.015,8.882 44.01,8.952C44.016,9.023 44.008,9.094 43.985,9.162C43.962,9.229 43.926,9.291 43.878,9.344C43.83,9.396 43.771,9.438 43.706,9.466C43.641,9.495 43.571,9.51 43.499,9.509Z" fill="#922B8C"/>
<path d="M10.687,9.486C10.558,9.515 10.529,9.456 10.529,9.333C10.529,8.747 10.529,8.16 10.529,7.574C10.529,7.515 10.529,7.456 10.447,7.456L9.989,7.456C9.96,7.456 9.931,7.456 9.913,7.497C9.897,7.523 9.888,7.553 9.889,7.583C9.889,7.614 9.898,7.643 9.915,7.668C9.932,7.694 9.955,7.714 9.983,7.726C10.011,7.738 10.041,7.742 10.071,7.738L10.183,7.738C10.183,7.738 10.23,7.738 10.23,7.779L10.23,8.336C10.152,8.257 10.059,8.195 9.956,8.155C9.853,8.114 9.743,8.095 9.633,8.099C9.522,8.104 9.414,8.131 9.315,8.18C9.215,8.229 9.127,8.298 9.057,8.383C8.931,8.545 8.864,8.744 8.864,8.949C8.864,9.154 8.931,9.353 9.057,9.515C9.13,9.596 9.219,9.662 9.319,9.707C9.418,9.753 9.526,9.779 9.636,9.782C9.745,9.785 9.854,9.766 9.956,9.727C10.058,9.687 10.151,9.627 10.23,9.55C10.23,9.75 10.23,9.75 10.453,9.75C10.537,9.744 10.621,9.744 10.705,9.75C10.81,9.75 10.846,9.75 10.84,9.609C10.834,9.468 10.816,9.462 10.687,9.486ZM9.708,9.486C9.638,9.489 9.569,9.477 9.505,9.45C9.441,9.424 9.383,9.384 9.336,9.334C9.288,9.283 9.252,9.223 9.231,9.157C9.209,9.091 9.201,9.021 9.209,8.952C9.203,8.882 9.211,8.812 9.233,8.746C9.255,8.68 9.29,8.619 9.337,8.567C9.384,8.515 9.441,8.473 9.505,8.445C9.569,8.416 9.638,8.401 9.708,8.401C9.777,8.397 9.847,8.408 9.911,8.434C9.976,8.459 10.035,8.498 10.083,8.548C10.131,8.598 10.168,8.658 10.192,8.724C10.215,8.789 10.224,8.859 10.218,8.929C10.229,9.001 10.224,9.076 10.203,9.147C10.183,9.217 10.147,9.283 10.098,9.338C10.05,9.393 9.989,9.437 9.922,9.467C9.854,9.496 9.781,9.511 9.708,9.509L9.708,9.486Z" fill="#922B8C"/>
<path d="M39.739,9.767C39.493,9.767 39.247,9.767 39.006,9.767C38.877,9.767 38.907,9.685 38.907,9.621C38.907,9.556 38.877,9.456 39.006,9.474L39.071,9.474C39.176,9.474 39.206,9.474 39.2,9.345L39.2,7.873C39.2,7.773 39.2,7.738 39.071,7.744C38.942,7.75 38.848,7.638 38.907,7.497C38.907,7.456 38.959,7.456 38.995,7.456L39.757,7.456C39.869,7.456 39.839,7.538 39.833,7.597C39.827,7.656 39.88,7.738 39.757,7.75C39.634,7.761 39.563,7.75 39.563,7.967C39.563,8.43 39.563,8.893 39.563,9.357C39.563,9.445 39.563,9.48 39.681,9.474L40.168,9.474C40.256,9.474 40.279,9.439 40.273,9.363C40.273,9.181 40.273,8.999 40.273,8.823C40.273,8.647 40.314,8.67 40.42,8.688C40.449,8.691 40.479,8.691 40.508,8.688C40.572,8.688 40.602,8.688 40.602,8.776C40.602,9.075 40.602,9.363 40.602,9.668C40.602,9.756 40.566,9.761 40.496,9.761L39.739,9.767Z" fill="#922C8D"/>
<path d="M19.914,9.045C19.961,9.045 20.008,9.045 20.008,8.974C20.006,8.855 19.979,8.738 19.93,8.63C19.88,8.522 19.809,8.425 19.72,8.345C19.632,8.266 19.527,8.206 19.414,8.169C19.301,8.132 19.182,8.118 19.063,8.13C18.849,8.155 18.652,8.262 18.514,8.428C18.375,8.593 18.306,8.806 18.319,9.022C18.333,9.237 18.428,9.439 18.586,9.587C18.744,9.734 18.953,9.815 19.169,9.813C19.313,9.823 19.457,9.8 19.59,9.745C19.724,9.69 19.842,9.605 19.937,9.497C19.937,9.467 20.019,9.438 19.972,9.385C19.926,9.347 19.868,9.326 19.808,9.326C19.748,9.326 19.69,9.347 19.644,9.385C19.575,9.452 19.492,9.501 19.4,9.528C19.308,9.555 19.211,9.559 19.118,9.54C19.024,9.521 18.936,9.479 18.862,9.418C18.789,9.358 18.731,9.28 18.694,9.192C18.658,9.098 18.694,9.051 18.787,9.057L19.914,9.057L19.914,9.045ZM19.18,8.822L18.776,8.822C18.676,8.822 18.676,8.787 18.705,8.716C18.736,8.615 18.799,8.528 18.885,8.467C18.971,8.406 19.075,8.376 19.18,8.382C19.287,8.389 19.39,8.428 19.475,8.492C19.56,8.557 19.625,8.645 19.661,8.746C19.661,8.81 19.661,8.822 19.597,8.822L19.18,8.822Z" fill="#932D8C"/>
<path d="M30.22,9.38C30.149,9.445 30.064,9.491 29.971,9.515C29.879,9.539 29.782,9.54 29.688,9.518C29.595,9.496 29.509,9.452 29.437,9.389C29.365,9.326 29.309,9.246 29.275,9.157C29.275,9.075 29.275,9.034 29.357,9.04L30.489,9.04C30.56,9.04 30.589,9.04 30.589,8.952C30.584,8.771 30.522,8.596 30.411,8.453C30.3,8.309 30.147,8.205 29.973,8.154C29.818,8.112 29.654,8.115 29.5,8.163C29.346,8.212 29.21,8.303 29.106,8.426C29.003,8.549 28.937,8.7 28.916,8.859C28.895,9.019 28.92,9.181 28.988,9.327C29.057,9.468 29.165,9.586 29.299,9.667C29.433,9.748 29.588,9.789 29.745,9.785C29.892,9.796 30.04,9.773 30.176,9.717C30.313,9.661 30.434,9.574 30.531,9.462C30.531,9.433 30.607,9.403 30.531,9.356C30.484,9.323 30.428,9.307 30.371,9.311C30.314,9.315 30.26,9.34 30.22,9.38ZM29.287,8.711C29.319,8.609 29.385,8.521 29.473,8.46C29.561,8.4 29.667,8.371 29.774,8.377C29.881,8.386 29.983,8.427 30.068,8.493C30.152,8.56 30.215,8.65 30.249,8.752C30.249,8.828 30.249,8.817 30.179,8.817L29.369,8.817C29.287,8.828 29.258,8.793 29.287,8.717L29.287,8.711Z" fill="#922D8D"/>
<path d="M34.314,8.125C34.147,8.124 33.983,8.172 33.844,8.264C33.704,8.356 33.595,8.487 33.53,8.641C33.465,8.795 33.447,8.965 33.478,9.129C33.51,9.293 33.589,9.444 33.707,9.563C33.824,9.682 33.974,9.763 34.137,9.797C34.301,9.831 34.471,9.815 34.626,9.752C34.781,9.689 34.913,9.582 35.007,9.444C35.101,9.306 35.151,9.143 35.153,8.976C35.157,8.864 35.139,8.752 35.099,8.647C35.059,8.543 34.997,8.447 34.919,8.368C34.84,8.288 34.746,8.225 34.641,8.183C34.537,8.142 34.426,8.122 34.314,8.125ZM34.314,9.509C34.245,9.509 34.176,9.496 34.113,9.468C34.049,9.441 33.992,9.402 33.944,9.352C33.897,9.302 33.86,9.243 33.835,9.178C33.811,9.113 33.8,9.045 33.803,8.976C33.809,8.878 33.843,8.783 33.902,8.704C33.961,8.626 34.041,8.565 34.133,8.532C34.225,8.498 34.325,8.491 34.421,8.514C34.517,8.536 34.604,8.585 34.672,8.656C34.74,8.727 34.785,8.817 34.803,8.913C34.821,9.01 34.81,9.11 34.772,9.2C34.734,9.291 34.671,9.368 34.589,9.423C34.508,9.478 34.412,9.508 34.314,9.509Z" fill="#922C8D"/>
<path d="M6.499,9.527C6.499,9.456 6.405,9.486 6.364,9.491C6.323,9.497 6.229,9.456 6.235,9.356C6.235,9.134 6.235,8.911 6.235,8.688C6.235,8.33 6.094,8.172 5.742,8.131C5.604,8.104 5.461,8.115 5.329,8.164C5.196,8.213 5.08,8.296 4.992,8.406C4.992,8.406 4.927,8.465 4.992,8.506C5.04,8.529 5.093,8.541 5.147,8.541C5.201,8.541 5.254,8.529 5.303,8.506C5.363,8.446 5.44,8.405 5.523,8.389C5.606,8.372 5.693,8.38 5.772,8.412C5.942,8.483 5.942,8.623 5.948,8.77C5.954,8.917 5.913,8.876 5.842,8.834C5.714,8.773 5.572,8.749 5.432,8.764C5.295,8.773 5.167,8.834 5.075,8.934C4.982,9.035 4.931,9.167 4.933,9.304C4.943,9.438 5.006,9.563 5.106,9.653C5.207,9.742 5.338,9.79 5.473,9.785C5.652,9.777 5.824,9.709 5.959,9.591C6.012,9.644 5.918,9.761 6.053,9.761L6.452,9.761L6.517,9.761C6.525,9.683 6.519,9.603 6.499,9.527ZM5.883,9.398C5.758,9.505 5.596,9.56 5.432,9.55C5.372,9.544 5.317,9.516 5.276,9.472C5.236,9.427 5.214,9.369 5.215,9.31C5.21,9.274 5.214,9.238 5.224,9.205C5.235,9.171 5.252,9.139 5.275,9.112C5.298,9.085 5.327,9.063 5.359,9.048C5.391,9.032 5.425,9.024 5.461,9.022C5.615,9.007 5.769,9.053 5.889,9.151C5.913,9.185 5.925,9.225 5.924,9.267C5.923,9.308 5.908,9.347 5.883,9.38L5.883,9.398Z" fill="#922B8C"/>
<path d="M15.855,9.491C15.767,9.491 15.732,9.491 15.737,9.374C15.743,9.256 15.737,9.11 15.737,8.981L15.737,8.693C15.737,8.324 15.608,8.171 15.245,8.107C15.107,8.078 14.964,8.088 14.832,8.137C14.701,8.186 14.585,8.271 14.5,8.382C14.5,8.412 14.447,8.441 14.465,8.476C14.515,8.498 14.568,8.509 14.623,8.509C14.677,8.509 14.731,8.498 14.781,8.476C14.845,8.414 14.926,8.373 15.014,8.356C15.101,8.339 15.192,8.348 15.274,8.382C15.438,8.459 15.427,8.611 15.432,8.752C15.438,8.893 15.432,8.846 15.344,8.811C15.217,8.743 15.072,8.714 14.928,8.729C14.807,8.734 14.691,8.781 14.599,8.861C14.508,8.941 14.446,9.049 14.424,9.168C14.405,9.284 14.429,9.403 14.49,9.503C14.551,9.603 14.646,9.678 14.758,9.714C14.861,9.75 14.973,9.759 15.081,9.74C15.188,9.72 15.29,9.673 15.374,9.603C15.421,9.567 15.473,9.532 15.462,9.638C15.45,9.743 15.491,9.726 15.556,9.726L15.937,9.726C15.966,9.726 15.995,9.726 16.007,9.691C16.048,9.597 16.001,9.485 15.855,9.491ZM15.362,9.415C15.272,9.496 15.155,9.542 15.034,9.544C14.834,9.544 14.729,9.456 14.723,9.298C14.721,9.26 14.727,9.223 14.741,9.188C14.754,9.153 14.775,9.121 14.801,9.095C14.828,9.068 14.86,9.048 14.895,9.034C14.929,9.02 14.967,9.014 15.004,9.016C15.127,9.012 15.248,9.047 15.35,9.116C15.376,9.13 15.398,9.152 15.414,9.177C15.43,9.203 15.438,9.232 15.44,9.262C15.441,9.292 15.434,9.322 15.421,9.348C15.407,9.375 15.387,9.398 15.362,9.415Z" fill="#922C8D"/>
<path d="M32.777,8.482L32.777,8.588C32.777,8.782 32.742,8.811 32.548,8.776C32.534,8.775 32.52,8.769 32.51,8.759C32.499,8.75 32.492,8.737 32.49,8.723C32.459,8.616 32.388,8.525 32.292,8.47C32.195,8.415 32.081,8.401 31.973,8.43C31.875,8.452 31.786,8.506 31.72,8.583C31.655,8.66 31.616,8.757 31.61,8.858C31.595,8.972 31.607,9.089 31.645,9.198C31.668,9.285 31.717,9.363 31.785,9.421C31.853,9.48 31.937,9.516 32.026,9.526C32.12,9.543 32.216,9.531 32.303,9.493C32.39,9.454 32.463,9.39 32.513,9.309C32.613,9.145 32.695,9.309 32.771,9.309C32.847,9.309 32.771,9.421 32.771,9.462C32.674,9.606 32.533,9.714 32.369,9.772C32.205,9.829 32.027,9.831 31.862,9.779C31.7,9.73 31.558,9.633 31.453,9.501C31.348,9.369 31.286,9.208 31.275,9.04C31.247,8.828 31.302,8.614 31.429,8.443C31.556,8.272 31.745,8.158 31.956,8.125C32.118,8.1 32.283,8.131 32.425,8.213C32.454,8.213 32.478,8.265 32.519,8.213C32.56,8.16 32.671,8.177 32.748,8.213C32.824,8.248 32.789,8.289 32.789,8.336C32.789,8.383 32.777,8.418 32.777,8.482Z" fill="#922C8D"/>
<path d="M7.643,8.458C7.703,8.351 7.793,8.264 7.903,8.209C8.013,8.153 8.137,8.132 8.259,8.148C8.335,8.148 8.364,8.148 8.358,8.241C8.353,8.284 8.353,8.328 8.358,8.37C8.358,8.441 8.358,8.464 8.265,8.464C7.813,8.494 7.725,8.587 7.713,9.051C7.713,9.174 7.713,9.291 7.713,9.409C7.713,9.526 7.713,9.508 7.801,9.497L7.919,9.497C8.036,9.497 8.065,9.526 8.065,9.643C8.065,9.761 8.065,9.79 7.93,9.784C7.678,9.784 7.432,9.784 7.179,9.784C7.056,9.784 7.074,9.714 7.074,9.637C7.074,9.561 7.074,9.491 7.179,9.497C7.402,9.497 7.402,9.497 7.402,9.262C7.402,9.027 7.402,8.81 7.402,8.582C7.402,8.482 7.367,8.447 7.273,8.464C7.103,8.464 7.056,8.4 7.097,8.23C7.097,8.177 7.15,8.183 7.191,8.183L7.572,8.183C7.655,8.183 7.678,8.183 7.672,8.288C7.666,8.394 7.643,8.394 7.643,8.458Z" fill="#922B8C"/>
<path d="M36.343,8.465C36.36,8.46 36.375,8.451 36.387,8.438C36.4,8.426 36.409,8.411 36.414,8.394C36.477,8.301 36.567,8.228 36.671,8.185C36.775,8.141 36.889,8.128 37,8.148C37.035,8.148 37.053,8.148 37.053,8.207L37.053,8.283C37.053,8.418 37.053,8.471 36.889,8.471C36.543,8.471 36.42,8.611 36.408,8.958C36.408,9.098 36.408,9.245 36.408,9.392C36.408,9.538 36.408,9.497 36.502,9.491L36.607,9.491C36.73,9.491 36.766,9.521 36.76,9.644C36.754,9.767 36.73,9.779 36.619,9.779C36.38,9.779 36.14,9.779 35.897,9.779C35.78,9.779 35.774,9.726 35.78,9.638C35.786,9.55 35.78,9.485 35.892,9.491C36.003,9.497 36.097,9.491 36.097,9.286C36.097,9.081 36.097,8.811 36.097,8.576C36.097,8.477 36.062,8.441 35.968,8.459C35.768,8.459 35.768,8.459 35.786,8.248C35.786,8.195 35.786,8.177 35.862,8.177L36.244,8.177C36.332,8.177 36.355,8.207 36.349,8.289C36.343,8.371 36.343,8.4 36.343,8.465Z" fill="#922C8D"/>
<path d="M17.157,8.476C17.209,8.368 17.293,8.278 17.398,8.22C17.503,8.161 17.624,8.136 17.743,8.148C17.826,8.148 17.861,8.148 17.849,8.253C17.846,8.296 17.846,8.339 17.849,8.382C17.849,8.447 17.849,8.47 17.767,8.465L17.738,8.465C17.321,8.465 17.21,8.599 17.198,9.016C17.198,9.139 17.198,9.262 17.198,9.385C17.198,9.509 17.198,9.497 17.304,9.491L17.391,9.491C17.526,9.491 17.556,9.526 17.55,9.649C17.544,9.773 17.55,9.778 17.427,9.778C17.174,9.778 16.916,9.778 16.664,9.778C16.535,9.778 16.57,9.69 16.57,9.626C16.57,9.561 16.57,9.491 16.664,9.491C16.887,9.491 16.887,9.491 16.887,9.262L16.887,8.57C16.887,8.488 16.887,8.441 16.781,8.459L16.729,8.459C16.582,8.459 16.518,8.359 16.57,8.212C16.57,8.171 16.611,8.177 16.641,8.177L16.811,8.177C16.905,8.156 17.004,8.156 17.098,8.177C17.186,8.206 17.104,8.359 17.157,8.476Z" fill="#922C8D"/>
<path d="M41.675,7.679C41.675,7.797 41.675,7.908 41.675,8.019C41.675,8.131 41.675,8.195 41.822,8.172C41.968,8.148 41.974,8.207 41.974,8.319C41.974,8.43 41.945,8.471 41.839,8.453C41.734,8.436 41.663,8.495 41.669,8.624C41.669,8.858 41.669,9.099 41.669,9.333C41.669,9.568 41.704,9.515 41.863,9.492C42.021,9.468 41.957,9.492 41.963,9.562C41.963,9.761 41.963,9.791 41.745,9.797C41.528,9.803 41.364,9.685 41.353,9.415C41.341,9.146 41.353,8.858 41.353,8.577C41.353,8.483 41.353,8.442 41.229,8.448C41.106,8.453 41.153,8.36 41.141,8.295C41.13,8.231 41.141,8.16 41.241,8.172C41.341,8.184 41.364,8.172 41.347,8.107C41.311,7.867 41.517,7.796 41.628,7.667L41.675,7.679Z" fill="#922C8C"/>
<path d="M33.481,0.206C33.541,0.204 33.602,0.215 33.658,0.237C33.715,0.259 33.766,0.292 33.81,0.334C33.854,0.376 33.888,0.426 33.913,0.482C33.937,0.537 33.949,0.597 33.95,0.658C33.95,0.782 33.901,0.902 33.813,0.99C33.725,1.078 33.605,1.127 33.481,1.127C33.36,1.123 33.245,1.072 33.16,0.986C33.075,0.9 33.026,0.785 33.023,0.664C33.023,0.603 33.034,0.543 33.057,0.488C33.079,0.432 33.113,0.381 33.156,0.338C33.198,0.296 33.249,0.262 33.305,0.239C33.361,0.217 33.421,0.205 33.481,0.206Z" fill="#2A2660"/>
<path d="M46.69,8.33C46.648,8.334 46.605,8.328 46.565,8.313C46.526,8.298 46.49,8.273 46.461,8.242C46.432,8.206 46.385,8.16 46.426,8.119C46.435,8.109 46.445,8.101 46.457,8.095C46.468,8.09 46.481,8.087 46.494,8.087C46.507,8.087 46.519,8.09 46.531,8.095C46.543,8.101 46.553,8.109 46.561,8.119C46.602,8.195 46.673,8.195 46.743,8.183C46.813,8.171 46.837,8.154 46.843,8.095C46.849,8.036 46.813,8.007 46.761,7.989C46.708,7.972 46.643,7.989 46.585,7.943C46.538,7.932 46.496,7.904 46.467,7.866C46.438,7.827 46.424,7.78 46.426,7.731C46.427,7.681 46.444,7.633 46.477,7.594C46.509,7.556 46.553,7.53 46.602,7.52C46.661,7.501 46.725,7.5 46.785,7.518C46.845,7.535 46.898,7.571 46.937,7.62C46.937,7.655 46.989,7.696 46.937,7.726C46.929,7.734 46.919,7.741 46.909,7.746C46.898,7.751 46.887,7.753 46.875,7.753C46.863,7.753 46.852,7.751 46.841,7.746C46.831,7.741 46.821,7.734 46.813,7.726C46.805,7.705 46.792,7.687 46.774,7.674C46.756,7.66 46.736,7.652 46.714,7.649C46.643,7.649 46.573,7.649 46.555,7.726C46.538,7.802 46.596,7.819 46.655,7.837L46.743,7.866C46.925,7.913 46.989,7.984 46.972,8.124C46.954,8.265 46.86,8.33 46.69,8.33Z" fill="#2C2A63"/>
<path d="M45.804,7.966L45.804,7.92C45.804,7.802 45.752,7.62 45.804,7.585C45.857,7.55 46.074,7.585 46.215,7.556C46.222,7.555 46.23,7.556 46.236,7.558C46.243,7.56 46.249,7.564 46.255,7.569C46.26,7.574 46.263,7.58 46.266,7.587C46.268,7.594 46.269,7.601 46.268,7.609C46.268,7.65 46.268,7.679 46.215,7.679C46.162,7.679 46.08,7.679 46.016,7.679C45.951,7.679 45.916,7.679 45.916,7.773C45.916,7.867 45.916,7.89 46.016,7.878L46.109,7.878C46.156,7.878 46.239,7.837 46.233,7.937C46.227,8.037 46.151,7.978 46.104,7.99L46.039,7.99C45.951,7.99 45.916,7.99 45.916,8.101C45.916,8.213 45.975,8.195 46.039,8.195L46.209,8.195C46.256,8.195 46.268,8.195 46.268,8.26C46.268,8.324 46.268,8.324 46.209,8.324C46.086,8.324 45.922,8.371 45.84,8.324C45.758,8.277 45.822,8.066 45.804,7.966Z" fill="#312F66"/>
<path d="M47.177,8.98C47.14,8.97 47.101,8.967 47.063,8.972C47.025,8.977 46.988,8.99 46.955,9.01C46.922,9.03 46.894,9.056 46.871,9.087C46.849,9.118 46.833,9.154 46.825,9.192C46.818,9.225 46.818,9.259 46.825,9.292C46.832,9.325 46.845,9.357 46.864,9.385C46.883,9.413 46.908,9.436 46.937,9.455C46.965,9.473 46.997,9.485 47.03,9.491C47.06,9.491 47.101,9.491 47.13,9.491L46.983,9.714C47.036,9.714 47.095,9.743 47.124,9.714C47.238,9.579 47.327,9.427 47.388,9.262C47.395,9.197 47.377,9.132 47.338,9.08C47.299,9.027 47.241,8.992 47.177,8.98ZM47.136,9.379C47.117,9.382 47.097,9.38 47.078,9.374C47.059,9.369 47.042,9.359 47.027,9.347C47.012,9.334 47,9.318 46.991,9.301C46.983,9.283 46.978,9.264 46.978,9.244C46.977,9.225 46.98,9.205 46.987,9.186C46.994,9.168 47.005,9.151 47.018,9.137C47.032,9.123 47.049,9.111 47.067,9.103C47.085,9.096 47.104,9.092 47.124,9.092C47.218,9.092 47.277,9.145 47.277,9.238C47.278,9.257 47.275,9.276 47.268,9.293C47.261,9.311 47.251,9.327 47.237,9.34C47.224,9.353 47.208,9.363 47.191,9.37C47.173,9.377 47.155,9.38 47.136,9.379Z" fill="#2C2A64"/>
<path d="M46.508,8.987C46.471,8.974 46.432,8.97 46.392,8.973C46.353,8.976 46.315,8.988 46.28,9.006C46.246,9.025 46.215,9.051 46.191,9.082C46.167,9.113 46.149,9.148 46.139,9.186C46.104,9.345 46.197,9.462 46.373,9.497L46.45,9.497C46.397,9.579 46.344,9.644 46.291,9.732C46.356,9.732 46.414,9.732 46.444,9.732C46.543,9.611 46.626,9.476 46.69,9.333C46.704,9.299 46.71,9.261 46.708,9.224C46.706,9.187 46.696,9.151 46.679,9.118C46.661,9.085 46.637,9.057 46.608,9.034C46.578,9.011 46.544,8.995 46.508,8.987ZM46.414,9.38C46.396,9.381 46.378,9.378 46.36,9.372C46.343,9.365 46.327,9.355 46.313,9.343C46.3,9.33 46.289,9.315 46.281,9.298C46.273,9.282 46.269,9.264 46.268,9.245C46.266,9.225 46.269,9.205 46.275,9.186C46.282,9.167 46.293,9.15 46.307,9.136C46.321,9.121 46.337,9.11 46.356,9.102C46.375,9.095 46.394,9.092 46.414,9.093C46.434,9.091 46.454,9.093 46.472,9.1C46.49,9.106 46.507,9.116 46.522,9.129C46.536,9.143 46.547,9.159 46.555,9.177C46.563,9.194 46.567,9.214 46.567,9.233C46.569,9.254 46.566,9.274 46.559,9.293C46.552,9.312 46.541,9.329 46.526,9.344C46.512,9.358 46.494,9.368 46.475,9.375C46.455,9.381 46.435,9.383 46.414,9.38Z" fill="#2C2964"/>
<path d="M47.288,8.002C47.286,7.957 47.286,7.912 47.288,7.867C47.288,7.744 47.288,7.638 47.118,7.673C47.077,7.673 47.054,7.673 47.054,7.621C47.054,7.568 47.054,7.556 47.118,7.562L47.588,7.562C47.629,7.562 47.658,7.562 47.658,7.615C47.658,7.668 47.623,7.685 47.582,7.673C47.423,7.673 47.418,7.732 47.423,7.855C47.429,7.978 47.423,8.113 47.423,8.248C47.423,8.383 47.423,8.324 47.353,8.324C47.283,8.324 47.288,8.289 47.288,8.248L47.288,8.002Z" fill="#2B2862"/>
<path d="M47.811,9.38C47.811,9.479 47.811,9.579 47.811,9.679C47.811,9.779 47.811,9.761 47.74,9.761C47.67,9.761 47.67,9.732 47.67,9.679C47.67,9.626 47.67,9.444 47.67,9.327C47.67,9.21 47.67,9.221 47.582,9.227C47.494,9.233 47.482,9.227 47.476,9.18C47.47,9.133 47.523,9.127 47.558,9.122C47.609,9.107 47.653,9.073 47.681,9.028C47.681,8.987 47.74,8.993 47.775,8.998C47.811,9.004 47.805,9.045 47.805,9.075C47.805,9.104 47.811,9.268 47.811,9.38Z" fill="#35336A"/>
<path d="M45.998,9.379L45.998,9.667C45.998,9.714 45.998,9.766 45.934,9.766C45.869,9.766 45.863,9.714 45.863,9.661C45.863,9.608 45.863,9.456 45.863,9.35C45.863,9.244 45.863,9.221 45.752,9.233C45.64,9.244 45.675,9.233 45.67,9.198C45.664,9.162 45.67,9.133 45.74,9.127C45.768,9.124 45.794,9.113 45.817,9.097C45.839,9.081 45.857,9.059 45.869,9.033C45.882,9.022 45.899,9.015 45.916,9.015C45.933,9.015 45.95,9.022 45.963,9.033C46.004,9.033 45.998,9.074 45.998,9.104L45.998,9.379Z" fill="#312F66"/>
<path d="M47.664,8.166C47.73,8.166 47.76,8.195 47.752,8.254C47.753,8.265 47.752,8.276 47.748,8.286C47.744,8.296 47.738,8.305 47.73,8.312C47.722,8.32 47.712,8.325 47.702,8.328C47.691,8.331 47.68,8.332 47.67,8.33C47.657,8.331 47.645,8.329 47.634,8.325C47.622,8.321 47.612,8.314 47.603,8.305C47.595,8.296 47.588,8.285 47.585,8.273C47.581,8.261 47.58,8.249 47.582,8.236C47.585,8.217 47.595,8.199 47.61,8.186C47.625,8.173 47.644,8.166 47.664,8.166Z" fill="#363369"/>
</svg>
