<svg width="28" height="28" viewBox="0 0 28 28" fill="none" xmlns="http://www.w3.org/2000/svg" xmlns:xlink="http://www.w3.org/1999/xlink">
<path d="M6.53,5.358C7.708,5.065 9.175,4.957 10.981,5.132C11.066,5.14 11.151,5.148 11.235,5.157C11.151,5.148 11.066,5.14 10.981,5.132C9.175,4.957 7.708,5.065 6.53,5.358ZM2.429,10.563C2.55,10.966 2.761,11.283 3.034,11.457C1.122,10.621 -0.12,9.109 0.009,6.7C0.464,0.662 9.958,-1.691 16.95,1.284C18.813,2.12 19.576,3.165 20.141,4.253C20.15,4.273 20.158,4.292 20.166,4.31C20.28,4.534 20.387,4.759 20.494,4.984L20.495,4.984C21.159,6.38 21.831,7.794 24.342,8.912C23.995,8.846 23.642,8.813 23.289,8.813C21.034,8.833 19.158,9.486 17.009,10.234C14.97,10.944 12.686,11.739 9.599,12.161C8.977,12.226 8.355,12.263 7.744,12.267C6.008,12.279 4.36,12.028 3.034,11.454C2.761,11.281 2.55,10.965 2.429,10.563ZM23.642,18.463C24.562,16.298 25.322,14.07 25.916,11.794C26.401,10.043 25.678,9.189 24.342,8.912C23.995,8.846 23.642,8.813 23.289,8.813C21.034,8.833 19.158,9.486 17.009,10.234C14.97,10.944 12.686,11.739 9.599,12.161C8.977,12.227 8.355,12.267 7.744,12.267C7.79,12.271 7.855,12.273 7.936,12.275C8.769,12.3 11.222,12.372 10.939,15.27C10.894,16.109 10.835,16.942 10.776,17.762L10.776,17.762L10.776,17.762L10.776,17.762C10.711,18.675 10.647,19.572 10.605,20.445C10.817,17.152 25.602,7.754 23.641,18.464L23.642,18.463Z" clip-rule="evenodd" fill-rule="evenodd" fill="url(#pf_0_744_9217)" stroke="#FFFFFF" stroke-width="1" stroke-miterlimit="3.999327"/>
<path d="M21.915,21.888C20.796,23.785 19.527,25.355 18.134,26.457C15.893,28.28 12.196,28.963 10.979,25.816C11.005,22.106 23.632,14.643 21.915,21.888Z" fill="url(#pf_0_744_9224)"/>
<path d="M23.641,18.464C23.138,19.639 22.562,20.782 21.918,21.886C23.634,14.643 11.006,22.105 10.981,25.816C10.778,25.267 10.653,24.693 10.611,24.109C10.538,22.889 10.538,21.666 10.611,20.445C10.818,17.148 25.603,7.757 23.641,18.464Z" fill="url(#pf_0_744_9225)"/>
<path d="M25.916,11.795C25.322,14.07 24.561,16.3 23.641,18.464C25.602,7.754 10.817,17.152 10.605,20.445C10.685,18.787 10.844,17.043 10.939,15.27C11.249,12.092 8.268,12.312 7.744,12.267C8.355,12.267 8.977,12.227 9.599,12.161C15.941,11.295 18.896,8.852 23.289,8.813C23.642,8.813 23.995,8.846 24.341,8.913L24.341,8.913C25.678,9.189 26.401,10.043 25.916,11.795Z" fill="url(#pf_0_744_9226)"/>
<path d="M24.341,8.912C23.994,8.846 23.642,8.813 23.289,8.813C18.896,8.851 15.94,11.294 9.599,12.161C8.977,12.226 8.355,12.263 7.744,12.267C6.008,12.279 4.36,12.028 3.033,11.454C1.399,10.415 1.981,4.262 10.981,5.132C17.778,5.792 21.22,6.732 20.135,4.251C20.979,5.874 21.39,7.597 24.341,8.912Z" fill="url(#pf_0_744_9227)"/>
<path d="M10.981,5.132C1.981,4.262 1.4,10.415 3.034,11.457C1.122,10.621 -0.12,9.109 0.009,6.7C0.464,0.662 9.958,-1.691 16.95,1.284C18.813,2.12 19.576,3.165 20.141,4.253C21.223,6.737 17.785,5.796 10.981,5.132Z" fill="url(#pf_0_744_9228)"/>
<defs>
<linearGradient id="pf_0_744_9217" x1="0" y1="4.182" x2="20.335" y2="4.182" gradientUnits="userSpaceOnUse">
<stop stop-color="#B52147"/>
<stop offset="0.15" stop-color="#C62E3D"/>
<stop offset="0.35" stop-color="#D73C34"/>
<stop offset="0.58" stop-color="#E2442E"/>
<stop offset="0.85" stop-color="#E5472C"/>
</linearGradient>
<linearGradient id="pf_0_744_9224" x1="10.979" y1="23.419" x2="22.075" y2="23.419" gradientUnits="userSpaceOnUse">
<stop offset="0.06" stop-color="#EB7A26"/>
<stop offset="0.17" stop-color="#EF8D21"/>
<stop offset="0.36" stop-color="#F3A61B"/>
<stop offset="0.55" stop-color="#F6B716"/>
<stop offset="0.76" stop-color="#F8C214"/>
<stop offset="1" stop-color="#F9C513"/>
</linearGradient>
<linearGradient id="pf_0_744_9225" x1="10.553" y1="19.649" x2="23.82" y2="19.649" gradientUnits="userSpaceOnUse">
<stop stop-color="#B52147"/>
<stop offset="0.06" stop-color="#BD2644"/>
<stop offset="0.29" stop-color="#D43739"/>
<stop offset="0.51" stop-color="#E34133"/>
<stop offset="0.69" stop-color="#E84531"/>
</linearGradient>
<linearGradient id="pf_0_744_9226" x1="7.744" y1="14.63" x2="26.068" y2="14.63" gradientUnits="userSpaceOnUse">
<stop stop-color="#6E1843"/>
<stop offset="1" stop-color="#BD1F4D"/>
</linearGradient>
<linearGradient id="pf_0_744_9227" x1="2.939" y1="9.479" x2="24.737" y2="6.329" gradientUnits="userSpaceOnUse">
<stop stop-color="#F47640"/>
<stop offset="0.1" stop-color="#F68537"/>
<stop offset="0.3" stop-color="#FA9E29"/>
<stop offset="0.51" stop-color="#FCAF1F"/>
<stop offset="0.73" stop-color="#FEBA19"/>
<stop offset="1" stop-color="#FEBD17"/>
</linearGradient>
<linearGradient id="pf_0_744_9228" x1="0" y1="5.727" x2="20.335" y2="5.727" gradientUnits="userSpaceOnUse">
<stop stop-color="#B52147"/>
<stop offset="0.15" stop-color="#C62E3D"/>
<stop offset="0.35" stop-color="#D73C34"/>
<stop offset="0.58" stop-color="#E2442E"/>
<stop offset="0.85" stop-color="#E5472C"/>
</linearGradient>
</defs>
</svg>
