<svg width="48" height="28" viewBox="0 0 48 28" fill="none" xmlns="http://www.w3.org/2000/svg" xmlns:xlink="http://www.w3.org/1999/xlink">
<path d="M47.994,0.552C47.994,0.263 47.994,0.182 47.624,0.182L0.386,0.182C0.048,0.182 0,0.279 0,0.584C0,8.996 0,17.402 0,25.803C0,26.124 0.08,26.204 0.402,26.204L47.528,26.204C48.09,26.204 47.994,26.204 47.994,25.754L47.994,0.552ZM46.001,23.826C46.001,24.147 45.904,24.211 45.599,24.211L2.411,24.211C2.057,24.211 1.977,24.131 1.977,23.777C1.977,16.727 1.977,9.665 1.977,2.593C1.977,2.24 2.089,2.176 2.411,2.176L45.583,2.176C45.936,2.176 46.001,2.272 46.001,2.626L46.001,23.826Z" fill="#2A2560"/>
<path d="M34.3,22.186L25.058,22.186C24.768,22.186 24.672,22.186 24.672,21.817L24.672,8.251C24.672,7.962 24.768,7.881 25.042,7.817L38.462,5.261L43.606,4.281C43.863,4.281 43.975,4.281 43.959,4.554C43.959,10.308 43.959,16.073 43.959,21.849C43.959,22.17 43.831,22.186 43.574,22.186L34.3,22.186Z" fill="#2A2560"/>
<path d="M15.671,15.933C15.671,17.91 15.671,19.871 15.671,21.832C15.671,22.089 15.671,22.186 15.334,22.186L4.291,22.186C4.018,22.186 3.97,22.089 3.97,21.848L3.97,12.205C3.97,11.947 4.066,11.867 4.308,11.819L14.787,9.826C15.06,9.826 15.414,9.569 15.607,9.745C15.8,9.922 15.607,10.292 15.607,10.581C15.671,12.349 15.671,14.133 15.671,15.933Z" fill="#95519D"/>
<path d="M22.679,15.243C22.679,17.429 22.679,19.631 22.679,21.817C22.679,22.09 22.679,22.187 22.325,22.187L18.002,22.187C17.744,22.187 17.664,22.187 17.664,21.849L17.664,9.553C17.664,9.36 17.664,9.248 17.905,9.2C19.4,8.91 20.895,8.621 22.39,8.3C22.711,8.3 22.679,8.428 22.679,8.621L22.679,15.243Z" fill="#922A8C"/>
</svg>
