<svg width="56" height="20" viewBox="0 0 56 20" fill="none" xmlns="http://www.w3.org/2000/svg" xmlns:xlink="http://www.w3.org/1999/xlink">
<path d="M29.465,3.579C29.602,3.52 29.723,3.467 29.844,3.417C31.644,2.68 33.494,2.07 35.379,1.593C36.496,1.307 37.627,1.084 38.767,0.923C39.543,0.815 40.323,0.737 41.105,0.688C41.837,0.644 42.569,0.633 43.301,0.657C44.646,0.703 45.974,0.869 47.259,1.297C48.011,1.548 48.721,1.885 49.351,2.373C50.382,3.172 50.97,4.22 51.125,5.516C51.217,6.29 51.122,7.049 50.986,7.808C50.746,9.146 50.509,10.484 50.274,11.823C50.165,12.441 50.056,13.059 49.947,13.677C49.943,13.695 49.943,13.713 49.941,13.739C49.999,13.736 50.02,13.692 50.047,13.663C50.931,12.729 51.814,11.795 52.697,10.86C53.205,10.322 53.712,9.784 54.219,9.246C54.249,9.211 54.287,9.184 54.329,9.166C54.371,9.149 54.417,9.141 54.463,9.144C54.942,9.148 55.422,9.145 55.902,9.146C55.934,9.146 55.98,9.131 55.995,9.162C56.016,9.203 55.967,9.224 55.943,9.249C55.256,9.945 54.57,10.641 53.882,11.336C53.097,12.133 52.315,12.933 51.525,13.726C51.433,13.819 51.481,13.878 51.527,13.955C52.477,15.509 53.427,17.063 54.376,18.617C54.459,18.753 54.543,18.889 54.625,19.026C54.68,19.117 54.67,19.14 54.57,19.14C54.016,19.142 53.462,19.14 52.908,19.142C52.814,19.142 52.783,19.075 52.747,19.011C52.44,18.467 52.133,17.923 51.827,17.379C51.206,16.279 50.584,15.179 49.963,14.079C49.949,14.054 49.944,14.012 49.907,14.018C49.871,14.025 49.877,14.063 49.872,14.092C49.59,15.701 49.306,17.311 49.023,18.92C48.984,19.141 48.987,19.142 48.758,19.142C48.346,19.142 47.933,19.142 47.52,19.142C47.379,19.142 47.37,19.13 47.394,18.997C47.83,16.524 48.267,14.052 48.704,11.581C48.922,10.352 49.149,9.125 49.36,7.895C49.52,6.963 49.563,6.027 49.351,5.095C49.071,3.858 48.35,2.959 47.238,2.366C46.482,1.962 45.667,1.739 44.828,1.598C44.065,1.469 43.295,1.416 42.522,1.387C41.844,1.361 41.169,1.377 40.493,1.4C39.054,1.449 37.627,1.615 36.211,1.873C34.12,2.254 32.066,2.78 30.042,3.423C29.864,3.479 29.687,3.535 29.51,3.592C29.503,3.593 29.495,3.588 29.465,3.579Z" fill="#FFFFFF"/>
<path d="M30.798,12.819C30.739,14.218 30.379,15.705 29.492,17.029C28.706,18.203 27.624,18.957 26.224,19.225C25.583,19.348 24.939,19.343 24.293,19.268C23.807,19.211 23.333,19.109 22.88,18.921C22.722,18.854 22.57,18.775 22.425,18.684C22.35,18.637 22.323,18.582 22.339,18.49C22.571,17.188 22.801,15.886 23.029,14.584C23.309,12.997 23.589,11.41 23.87,9.823C24.109,8.466 24.347,7.109 24.585,5.752C24.59,5.719 24.603,5.688 24.622,5.661C24.642,5.634 24.667,5.612 24.697,5.597C25.235,5.288 25.773,4.978 26.31,4.666C26.335,4.652 26.364,4.622 26.39,4.641C26.425,4.667 26.402,4.711 26.396,4.745C26.298,5.305 26.198,5.864 26.099,6.423C25.927,7.4 25.754,8.377 25.582,9.353C25.578,9.381 25.562,9.416 25.592,9.435C25.623,9.453 25.65,9.428 25.676,9.416C26.094,9.22 26.542,9.095 27.002,9.046C27.67,8.976 28.331,8.99 28.963,9.259C29.655,9.554 30.131,10.063 30.434,10.742C30.703,11.347 30.793,11.988 30.798,12.819ZM29.143,12.68C29.145,12.246 29.104,11.818 28.974,11.403C28.747,10.673 28.302,10.157 27.516,10.036C26.834,9.931 26.168,10.013 25.536,10.314C25.437,10.361 25.392,10.42 25.374,10.526C25.233,11.353 25.087,12.18 24.941,13.006C24.661,14.597 24.38,16.187 24.099,17.778C24.055,18.033 24.056,18.034 24.309,18.113C24.566,18.193 24.832,18.221 25.099,18.238C25.751,18.278 26.375,18.183 26.945,17.844C27.586,17.464 28.017,16.896 28.33,16.237C28.866,15.114 29.102,13.918 29.143,12.68Z" fill="#FFFFFF"/>
<path d="M3.419,19.127C2.549,19.127 1.679,19.127 0.809,19.127C0.365,19.127 0.064,18.859 0.006,18.421C-0.013,18.278 0.021,18.139 0.045,18.001C0.292,16.596 0.539,15.191 0.788,13.787C1.083,12.112 1.378,10.437 1.673,8.762C1.755,8.301 1.835,7.84 1.918,7.38C2.024,6.79 2.511,6.382 3.112,6.382C4.696,6.381 6.28,6.381 7.864,6.382C8.016,6.382 8.019,6.383 7.994,6.53C7.941,6.834 7.883,7.136 7.834,7.441C7.817,7.55 7.749,7.551 7.666,7.551C6.376,7.55 5.085,7.55 3.795,7.551C3.61,7.551 3.612,7.551 3.579,7.735C3.36,8.982 3.14,10.229 2.92,11.476C2.898,11.608 2.875,11.74 2.849,11.871C2.837,11.935 2.861,11.963 2.923,11.963C2.96,11.963 2.998,11.963 3.035,11.963L6.381,11.963C6.418,11.963 6.456,11.965 6.493,11.963C6.577,11.958 6.604,11.994 6.59,12.077C6.546,12.311 6.506,12.546 6.465,12.78C6.451,12.864 6.436,12.948 6.422,13.032C6.413,13.093 6.38,13.124 6.317,13.121C6.28,13.12 6.242,13.121 6.205,13.121L2.792,13.121C2.632,13.121 2.631,13.121 2.603,13.282C2.335,14.796 2.068,16.31 1.802,17.824C1.78,17.945 1.793,17.958 1.93,17.958C3.355,17.958 4.779,17.958 6.203,17.958C6.24,17.958 6.277,17.959 6.314,17.958C6.395,17.955 6.419,17.995 6.405,18.07C6.347,18.391 6.288,18.713 6.234,19.035C6.219,19.124 6.164,19.124 6.097,19.124C5.636,19.124 5.175,19.124 4.713,19.124L3.419,19.127Z" fill="#FFFFFF"/>
<path d="M45.319,19.128C45.085,19.128 44.851,19.124 44.617,19.13C44.517,19.132 44.496,19.097 44.512,19.005C44.642,18.281 44.77,17.557 44.897,16.833C45.139,15.462 45.381,14.091 45.622,12.719C45.683,12.372 45.761,12.027 45.791,11.675C45.826,11.276 45.78,10.894 45.52,10.567C45.278,10.264 44.94,10.125 44.572,10.078C43.765,9.973 42.971,10.037 42.203,10.33C42.113,10.365 42.073,10.414 42.055,10.512C41.674,12.688 41.29,14.864 40.904,17.039C40.791,17.679 40.678,18.319 40.565,18.959C40.535,19.127 40.535,19.127 40.36,19.127C39.914,19.127 39.467,19.127 39.021,19.127C38.892,19.127 38.887,19.121 38.909,18.993C39.166,17.538 39.423,16.082 39.68,14.627C39.965,13.011 40.249,11.394 40.532,9.778C40.547,9.693 40.584,9.648 40.661,9.616C41.397,9.31 42.164,9.128 42.954,9.033C43.338,8.988 43.723,8.963 44.11,8.957C44.812,8.944 45.509,8.99 46.163,9.28C46.997,9.649 47.419,10.3 47.462,11.206C47.484,11.706 47.362,12.188 47.278,12.673C47.053,13.976 46.82,15.277 46.591,16.579C46.448,17.387 46.306,18.196 46.165,19.004C46.148,19.1 46.106,19.133 46.009,19.13C45.78,19.125 45.55,19.128 45.319,19.128Z" fill="#FFFFFF"/>
<path d="M13.958,15.693C14.006,14.219 14.295,12.803 14.987,11.488C15.398,10.705 15.947,10.039 16.708,9.568C17.304,9.197 17.988,8.989 18.69,8.966C19.067,8.951 19.44,8.966 19.808,9.048C20.889,9.286 21.557,9.963 21.87,11.007C22.064,11.654 22.098,12.32 22.055,12.993C21.999,13.899 21.824,14.793 21.534,15.653C21.277,16.412 20.922,17.121 20.41,17.743C19.674,18.64 18.736,19.176 17.575,19.299C17.008,19.359 16.446,19.321 15.901,19.137C15.055,18.85 14.518,18.256 14.223,17.427C14.024,16.866 13.956,16.285 13.958,15.693ZM20.458,12.359C20.451,11.971 20.43,11.586 20.321,11.212C20.167,10.68 19.882,10.264 19.322,10.093C19.032,10.003 18.735,10.002 18.438,10.038C17.813,10.115 17.332,10.445 16.95,10.931C16.5,11.502 16.241,12.166 16.049,12.857C15.803,13.742 15.638,14.642 15.594,15.564C15.572,16.035 15.595,16.5 15.718,16.955C15.825,17.354 16.019,17.699 16.378,17.928C16.708,18.139 17.076,18.181 17.458,18.162C18.081,18.132 18.586,17.867 18.999,17.413C19.297,17.084 19.506,16.7 19.679,16.295C19.942,15.679 20.097,15.034 20.224,14.38C20.353,13.712 20.444,13.04 20.458,12.359Z" fill="#FFFFFF"/>
<path d="M34.215,19.326C33.55,19.312 32.895,19.262 32.271,19.018C31.557,18.739 31.06,18.262 30.906,17.484C30.795,16.93 30.879,16.388 31.041,15.857C31.332,14.908 31.952,14.228 32.801,13.743C33.566,13.305 34.401,13.069 35.256,12.895C35.85,12.773 36.45,12.696 37.053,12.631C37.112,12.625 37.153,12.609 37.162,12.545C37.217,12.178 37.312,11.817 37.302,11.442C37.291,11.056 37.194,10.705 36.887,10.445C36.638,10.232 36.336,10.142 36.02,10.095C35.182,9.972 34.377,10.123 33.589,10.401C33.389,10.468 33.192,10.547 33,10.637C32.921,10.675 32.88,10.664 32.86,10.571C32.804,10.31 32.744,10.049 32.681,9.789C32.665,9.722 32.686,9.689 32.748,9.66C33.464,9.326 34.228,9.108 35.011,9.013C35.679,8.93 36.346,8.925 37.005,9.082C37.499,9.199 37.946,9.406 38.296,9.788C38.615,10.136 38.769,10.554 38.829,11.015C38.903,11.585 38.79,12.139 38.692,12.695C38.448,14.078 38.204,15.46 37.959,16.843C37.861,17.398 37.762,17.954 37.667,18.511C37.653,18.59 37.611,18.632 37.542,18.665C36.991,18.93 36.407,19.086 35.808,19.19C35.279,19.281 34.745,19.313 34.215,19.326ZM34.495,18.358C34.641,18.371 34.785,18.346 34.929,18.335C35.323,18.305 35.71,18.235 36.077,18.082C36.157,18.049 36.199,18.002 36.214,17.913C36.467,16.469 36.721,15.025 36.978,13.581C36.995,13.488 36.954,13.479 36.881,13.489C36.687,13.518 36.492,13.544 36.297,13.574C35.631,13.675 34.975,13.813 34.346,14.063C33.075,14.569 32.383,15.644 32.471,17.077C32.499,17.54 32.742,17.884 33.163,18.098C33.583,18.312 34.037,18.342 34.495,18.357L34.495,18.358Z" fill="#FFFFFF"/>
<path d="M7.219,15.558C7.248,14.222 7.524,12.942 8.123,11.741C8.542,10.901 9.107,10.176 9.897,9.646C10.509,9.235 11.179,8.996 11.92,8.965C12.49,8.941 13.048,8.996 13.58,9.217C13.78,9.299 13.965,9.414 14.126,9.557C14.183,9.607 14.195,9.651 14.153,9.719C13.999,9.974 13.848,10.23 13.7,10.488C13.659,10.561 13.627,10.584 13.551,10.522C13.072,10.135 12.511,10.064 11.927,10.128C10.952,10.234 10.311,10.818 9.843,11.631C9.439,12.332 9.223,13.099 9.066,13.887C8.938,14.534 8.873,15.188 8.91,15.848C8.943,16.422 9.055,16.978 9.408,17.453C9.717,17.867 10.142,18.067 10.654,18.091C11.236,18.119 11.773,17.973 12.27,17.675C12.361,17.62 12.391,17.642 12.41,17.736C12.467,18.005 12.526,18.274 12.591,18.541C12.61,18.623 12.588,18.67 12.52,18.717C12.103,19.001 11.638,19.159 11.145,19.242C10.622,19.332 10.098,19.363 9.573,19.251C8.734,19.072 8.123,18.59 7.717,17.843C7.436,17.326 7.303,16.765 7.245,16.182C7.225,15.974 7.229,15.767 7.219,15.558Z" fill="#FFFFFF"/>
</svg>
