<svg width="20" height="20" viewBox="0 0 20 20" fill="none" xmlns="http://www.w3.org/2000/svg" xmlns:xlink="http://www.w3.org/1999/xlink">
<path d="M11.636,7.723C11.614,9.672 11.06,11.578 10.034,13.235C9.007,14.892 7.548,16.237 5.813,17.125C4.77,15.48 4.219,13.572 4.225,11.625C4.245,9.679 4.799,7.776 5.825,6.123C6.852,4.47 8.313,3.13 10.048,2.25C11.081,3.889 11.632,5.786 11.636,7.723Z" fill="#D8258C"/>
<g opacity="0.8">
<path d="M19.995,3.06C19.995,6.789 18.513,10.366 15.877,13.003C13.24,15.641 9.664,17.124 5.935,17.125L5.808,17.125C5.808,16.934 5.808,16.744 5.808,16.553C5.807,14.731 6.165,12.926 6.862,11.242C7.559,9.558 8.581,8.028 9.87,6.739C11.158,5.45 12.688,4.428 14.371,3.73C16.055,3.032 17.86,2.673 19.682,2.673L20,2.673C19.995,2.806 19.995,2.927 19.995,3.06Z" fill="#F3EB40"/>
</g>
<g opacity="0.9">
<path d="M6.231,14.859C6.232,15.63 6.105,16.396 5.855,17.125C4.943,16.864 4.092,16.42 3.357,15.82C2.621,15.219 2.015,14.475 1.576,13.633C1.137,12.791 0.875,11.869 0.804,10.922C0.733,9.975 0.856,9.024 1.165,8.126C2.627,8.544 3.913,9.428 4.827,10.643C5.742,11.858 6.235,13.339 6.231,14.859Z" fill="#BDD643"/>
</g>
<path d="M15.728,2.356C14.37,2.735 13.074,3.309 11.88,4.06C11.601,3.266 11.238,2.505 10.795,1.789L10.371,1.112L9.662,1.488C8.272,2.209 7.041,3.201 6.041,4.406C5.041,5.61 4.292,7.003 3.839,8.502C3.1,7.967 2.274,7.565 1.398,7.311L0.689,7.109C1.099,5.591 1.884,4.199 2.972,3.063C4.06,1.927 5.417,1.083 6.916,0.609C8.416,0.134 10.011,0.045 11.555,0.348C13.098,0.652 14.541,1.338 15.749,2.345L15.728,2.356Z" fill="#12A8E0"/>
<path d="M19.079,10.169C18.977,11.704 18.5,13.19 17.688,14.497C16.877,15.804 15.757,16.891 14.426,17.663C13.096,18.435 11.596,18.868 10.059,18.924C8.522,18.979 6.995,18.656 5.612,17.983L5.956,17.983C8.644,17.981 11.282,17.255 13.591,15.88C15.901,14.505 17.797,12.532 19.079,10.169Z" fill="#12A8E0"/>
</svg>
