<svg width="70" height="78" viewBox="0 0 70 78" fill="none" xmlns="http://www.w3.org/2000/svg" xmlns:xlink="http://www.w3.org/1999/xlink">
<path d="M35,47.727C34.156,47.727 33.347,48.063 32.75,48.659C32.153,49.256 31.818,50.065 31.818,50.909C31.818,51.753 32.153,52.562 32.75,53.159C33.347,53.756 34.156,54.091 35,54.091C38.146,54.091 41.222,53.158 43.839,51.41C46.455,49.662 48.494,47.177 49.698,44.27C50.902,41.363 51.217,38.164 50.603,35.078C49.989,31.992 48.474,29.157 46.249,26.932C44.024,24.707 41.19,23.192 38.104,22.578C35.018,21.965 31.819,22.28 28.912,23.484C26.005,24.688 23.52,26.727 21.772,29.343C20.024,31.959 19.091,35.035 19.091,38.182C19.091,39.026 19.426,39.835 20.023,40.432C20.619,41.028 21.429,41.364 22.273,41.364C23.117,41.364 23.926,41.028 24.523,40.432C25.119,39.835 25.454,39.026 25.454,38.182C25.454,36.294 26.014,34.448 27.063,32.879C28.112,31.309 29.603,30.085 31.347,29.363C33.091,28.64 35.011,28.451 36.862,28.82C38.714,29.188 40.415,30.097 41.75,31.432C43.085,32.767 43.994,34.468 44.362,36.32C44.73,38.171 44.541,40.09 43.819,41.835C43.096,43.579 41.873,45.07 40.303,46.119C38.733,47.168 36.888,47.727 35,47.727Z" fill="#FFFFFF"/>
<path d="M70,54.091L70,22.273C70,18.897 68.659,15.66 66.272,13.273C63.885,10.886 60.648,9.545 57.273,9.545L52.611,9.545L49.08,4.248C48.206,2.939 47.023,1.866 45.635,1.125C44.248,0.384 42.698,-0.002 41.125,0L28.859,0C27.286,-0.002 25.736,0.384 24.349,1.125C22.961,1.866 21.778,2.939 20.905,4.248L17.389,9.545L12.727,9.545C9.352,9.545 6.115,10.886 3.728,13.273C1.341,15.66 0,18.897 0,22.273L0,54.091C0,57.466 1.341,60.704 3.728,63.09C6.115,65.477 9.352,66.818 12.727,66.818L20.952,66.818L16.848,70.939C16.515,71.224 16.244,71.575 16.053,71.97C15.862,72.364 15.755,72.794 15.738,73.233C15.721,73.671 15.795,74.108 15.955,74.516C16.115,74.924 16.357,75.295 16.667,75.605C16.978,75.915 17.348,76.158 17.757,76.318C18.165,76.478 18.602,76.552 19.04,76.535C19.478,76.518 19.908,76.411 20.303,76.22C20.698,76.029 21.049,75.758 21.334,75.425L30.88,65.88C31.472,65.283 31.805,64.477 31.805,63.636C31.805,62.796 31.472,61.989 30.88,61.393L21.334,51.848C20.725,51.326 19.942,51.054 19.142,51.085C18.341,51.116 17.581,51.448 17.015,52.015C16.448,52.581 16.116,53.341 16.085,54.142C16.054,54.942 16.326,55.725 16.848,56.334L20.952,60.455L12.727,60.455C11.04,60.455 9.421,59.784 8.227,58.591C7.034,57.397 6.364,55.779 6.364,54.091L6.364,22.273C6.364,20.585 7.034,18.966 8.227,17.773C9.421,16.58 11.04,15.909 12.727,15.909L19.091,15.909C19.614,15.908 20.128,15.778 20.588,15.532C21.049,15.285 21.442,14.928 21.732,14.493L26.218,7.78C26.508,7.345 26.901,6.988 27.362,6.741C27.822,6.494 28.336,6.365 28.859,6.364L41.141,6.364C41.664,6.365 42.178,6.494 42.638,6.741C43.099,6.988 43.492,7.345 43.782,7.78L48.268,14.493C48.558,14.928 48.951,15.285 49.412,15.532C49.872,15.778 50.386,15.908 50.909,15.909L57.273,15.909C58.96,15.909 60.579,16.58 61.773,17.773C62.966,18.966 63.636,20.585 63.636,22.273L63.636,54.091C63.636,55.779 62.966,57.397 61.773,58.591C60.579,59.784 58.96,60.455 57.273,60.455L41.459,60.455C40.615,60.455 39.806,60.79 39.209,61.386C38.612,61.983 38.277,62.793 38.277,63.636C38.277,64.48 38.612,65.29 39.209,65.886C39.806,66.483 40.615,66.818 41.459,66.818L57.273,66.818C60.648,66.818 63.885,65.477 66.272,63.09C68.659,60.704 70,57.466 70,54.091Z" fill="#FFFFFF"/>
</svg>
