<svg width="780" height="118" viewBox="0 0 780 118" fill="none" xmlns="http://www.w3.org/2000/svg" xmlns:xlink="http://www.w3.org/1999/xlink">
<rect  x="0" y="0" width="780" height="108" fill="#05FF00"/>
<rect  x="0" y="0" width="780" height="108" fill="#831441"/>
<g opacity="0.35" style="isolation:isolate">
<rect  x="643.053" y="46" width="47.618" height="26" rx="6" stroke="#FFFFFF" stroke-width="1" stroke-miterlimit="3.999327"/>
</g>
<rect  x="647.022" y="50" width="41.679" height="20" rx="6" fill="#FFFFFF"/>
<g opacity="0.35" style="isolation:isolate">
<path d="M694.656,56C694.656,56 698.626,56.8 698.626,60C698.626,63.2 694.656,64 694.656,64L694.656,56Z" fill="#FFFFFF"/>
</g>
<path d="M612.289,64C615.002,64 617.457,65.119 619.235,66.929L612.289,74L605.343,66.929C607.12,65.119 609.576,64 612.289,64ZM612.289,54C617.714,54 622.626,56.239 626.181,59.858L622.014,64.101C619.525,61.567 616.087,60 612.289,60C608.491,60 605.053,61.567 602.564,64.101L598.396,59.858C601.952,56.239 606.864,54 612.289,54ZM611.56,44.009L612.289,44L613.181,44.013L613.963,44.048L614.637,44.094L615.495,44.175L616.209,44.263L616.983,44.378L617.784,44.521L617.784,44.521L618.578,44.685L619.268,44.846L620.074,45.058L620.074,45.058L620.899,45.301L621.465,45.483L622.084,45.697L622.75,45.945L623.489,46.242L623.489,46.242L624.216,46.559L624.891,46.873L625.547,47.2L625.547,47.2L626.193,47.542L626.821,47.895L627.423,48.253L628.069,48.659L628.069,48.659L628.705,49.081L629.295,49.496L629.831,49.891L629.831,49.891L630.54,50.444L631.063,50.875L631.589,51.327L632.177,51.861L632.177,51.861L632.796,52.455L632.796,52.455L633.13,52.789L628.96,57.029C624.693,52.686 618.799,50 612.289,50C605.779,50 599.885,52.686 595.619,57.028L591.45,52.787L591.497,52.739C591.673,52.561 591.851,52.385 592.031,52.212C592.386,51.869 592.75,51.535 593.122,51.211L593.532,50.86L594.037,50.444L594.488,50.089L594.488,50.089L594.985,49.713L594.985,49.713L595.49,49.348L595.782,49.144L596.594,48.603L597.204,48.223L597.757,47.895L598.57,47.442L599.223,47.102L599.223,47.102L599.886,46.778L600.506,46.494L601.233,46.183L601.233,46.183L601.968,45.891L602.621,45.652L603.462,45.369L603.462,45.369L604.042,45.191L604.8,44.977L605.55,44.788L606.202,44.641L606.953,44.49L606.953,44.49L607.712,44.36L608.444,44.253L609.203,44.162L609.98,44.091L610.837,44.036L611.56,44.009Z" clip-rule="evenodd" fill-rule="evenodd" fill="#FFFFFF"/>
<rect  x="537.862" y="62" width="7.939" height="10" rx="3" fill="#FFFFFF"/>
<rect  x="549.771" y="58" width="7.939" height="14" rx="3" fill="#FFFFFF"/>
<rect  x="561.679" y="52" width="7.939" height="20" rx="3" fill="#FFFFFF"/>
<rect  x="573.587" y="46" width="7.939" height="26" rx="3" fill="#FFFFFF"/>
<path d="M89.188,44C83.466,44 79.389,47.955 79.389,53.37L79.389,53.407C79.389,58.471 82.936,62.205 88,62.205C91.619,62.205 93.923,60.338 94.892,58.231L95.257,58.231C95.257,58.434 95.239,58.638 95.239,58.841C95.038,63.942 93.265,68.082 89.078,68.082C86.756,68.082 85.129,66.862 84.435,64.995L84.38,64.811L79.737,64.811L79.773,65.014C80.614,69.098 84.234,72 89.078,72C95.714,72 99.718,66.677 99.718,57.695L99.718,57.658C99.718,48.048 94.818,44 89.188,44ZM89.17,58.545C86.171,58.545 83.996,56.327 83.996,53.241L83.996,53.204C83.996,50.228 86.318,47.881 89.224,47.881C92.149,47.881 94.435,50.265 94.435,53.315L94.435,53.352C94.435,56.364 92.149,58.545 89.17,58.545Z" fill="#FFFFFF"/>
<path d="M108.017,54.054C109.699,54.054 110.924,52.76 110.924,51.134C110.924,49.489 109.699,48.214 108.017,48.214C106.354,48.214 105.111,49.489 105.111,51.134C105.111,52.76 106.354,54.054 108.017,54.054ZM108.017,67.768C109.699,67.768 110.924,66.492 110.924,64.848C110.924,63.203 109.699,61.927 108.017,61.927C106.354,61.927 105.111,63.203 105.111,64.848C105.111,66.492 106.354,67.768 108.017,67.768Z" fill="#FFFFFF"/>
<path d="M129.114,71.335L133.629,71.335L133.629,66.215L137.176,66.215L137.176,62.279L133.629,62.279L133.629,44.665L126.957,44.665C123.373,50.173 119.626,56.309 116.207,62.316L116.207,66.215L129.114,66.215L129.114,71.335ZM120.595,62.389L120.595,62.112C123.154,57.584 126.207,52.649 128.913,48.473L129.187,48.473L129.187,62.389L120.595,62.389Z" fill="#FFFFFF"/>
<path d="M148.108,71.335L152.824,71.335L152.824,44.665L148.126,44.665L141.234,49.563L141.234,54.054L147.797,49.36L148.108,49.36L148.108,71.335Z" fill="#FFFFFF"/>
<rect  x="246.107" y="22" width="250.076" height="72" rx="200" fill="#000000"/>
</svg>
