<svg width="48" height="72" viewBox="0 0 48 72" fill="none" xmlns="http://www.w3.org/2000/svg" xmlns:xlink="http://www.w3.org/1999/xlink">
<line x1="8" y1="36" x2="8" y2="12" stroke="#831441" stroke-width="2" stroke-miterlimit="3.999327" stroke-linecap="round"/>
<line x1="36" y1="60" x2="36" y2="54" stroke="#831441" stroke-width="2" stroke-miterlimit="3.999327" stroke-linecap="round"/>
<line x1="8" y1="60" x2="8" y2="48" stroke="#831441" stroke-width="2" stroke-miterlimit="3.999327" stroke-linecap="round"/>
<line x1="36" y1="36" x2="36" y2="12" stroke="#831441" stroke-width="2" stroke-miterlimit="3.999327" stroke-linecap="round"/>
<line x1="22" y1="21" x2="22" y2="12" stroke="#831441" stroke-width="2" stroke-miterlimit="3.999327" stroke-linecap="round"/>
<line x1="22" y1="60" x2="22" y2="36" stroke="#831441" stroke-width="2" stroke-miterlimit="3.999327" stroke-linecap="round"/>
<path d="M12,42C12,43.317 11.64,44.419 11.164,45.133C10.679,45.861 10.228,46 10,46L10,50C11.981,50 13.53,48.795 14.493,47.352C15.464,45.895 16,43.997 16,42L12,42ZM10,46C9.772,46 9.321,45.861 8.836,45.133C8.36,44.419 8,43.317 8,42L4,42C4,43.997 4.536,45.895 5.507,47.352C6.47,48.795 8.019,50 10,50L10,46ZM8,42C8,40.683 8.36,39.581 8.836,38.867C9.321,38.139 9.772,38 10,38L10,34C8.019,34 6.47,35.205 5.507,36.648C4.536,38.105 4,40.003 4,42L8,42ZM10,38C10.228,38 10.679,38.139 11.164,38.867C11.64,39.581 12,40.683 12,42L16,42C16,40.003 15.464,38.105 14.493,36.648C13.53,35.205 11.981,34 10,34L10,38Z" fill="#831441"/>
<path d="M26,27C26,28.317 25.64,29.419 25.164,30.133C24.679,30.861 24.228,31 24,31L24,35C25.981,35 27.53,33.795 28.493,32.352C29.464,30.895 30,28.997 30,27L26,27ZM24,31C23.772,31 23.321,30.861 22.836,30.133C22.36,29.419 22,28.317 22,27L18,27C18,28.997 18.536,30.895 19.507,32.352C20.47,33.795 22.019,35 24,35L24,31ZM22,27C22,25.683 22.36,24.581 22.836,23.867C23.321,23.139 23.772,23 24,23L24,19C22.019,19 20.47,20.205 19.507,21.648C18.536,23.105 18,25.003 18,27L22,27ZM24,23C24.228,23 24.679,23.139 25.164,23.867C25.64,24.581 26,25.683 26,27L30,27C30,25.003 29.464,23.105 28.493,21.648C27.53,20.205 25.981,19 24,19L24,23Z" fill="#831441"/>
<path d="M40,45C40,46.317 39.64,47.419 39.164,48.133C38.679,48.861 38.228,49 38,49L38,53C39.981,53 41.53,51.795 42.493,50.352C43.464,48.895 44,46.997 44,45L40,45ZM38,49C37.772,49 37.321,48.861 36.836,48.133C36.36,47.419 36,46.317 36,45L32,45C32,46.997 32.536,48.895 33.507,50.352C34.47,51.795 36.019,53 38,53L38,49ZM36,45C36,43.683 36.36,42.581 36.836,41.867C37.321,41.139 37.772,41 38,41L38,37C36.019,37 34.47,38.205 33.507,39.648C32.536,41.105 32,43.003 32,45L36,45ZM38,41C38.228,41 38.679,41.139 39.164,41.867C39.64,42.581 40,43.683 40,45L44,45C44,43.003 43.464,41.105 42.493,39.648C41.53,38.205 39.981,37 38,37L38,41Z" fill="#831441"/>
</svg>
