<svg width="82" height="96" viewBox="0 0 82 96" fill="none" xmlns="http://www.w3.org/2000/svg" xmlns:xlink="http://www.w3.org/1999/xlink">
<path d="M61.139,59.418C61.139,59.56 61.139,59.709 61.139,59.851C61.139,59.993 61.139,60.148 61.139,60.302C61.139,60.457 61.139,60.605 61.139,60.754C61.139,60.902 61.139,61.069 61.108,61.236C61.077,61.403 61.108,61.552 61.058,61.706L61.003,62.213C61.003,62.374 60.953,62.541 60.929,62.708C60.904,62.875 60.879,63.054 60.848,63.233C60.817,63.413 60.787,63.58 60.756,63.753C60.725,63.926 60.694,64.118 60.657,64.309C60.62,64.501 60.577,64.668 60.54,64.847C60.503,65.027 60.472,65.157 60.435,65.317C54.556,75.267 48.147,83.015 41.362,88.37C33.878,94.467 24.104,97.305 17.04,95.426C12.317,94.189 8.902,90.998 6.877,85.996C6.877,85.89 6.877,85.785 6.877,85.68C6.877,85.575 6.877,85.402 6.914,85.266C6.951,85.13 6.964,84.963 6.988,84.808C7.013,84.654 7.044,84.524 7.075,84.382C7.106,84.239 7.155,84.072 7.198,83.912C7.241,83.751 7.278,83.621 7.322,83.473C7.365,83.324 7.433,83.151 7.495,82.99C7.556,82.83 7.599,82.693 7.655,82.545C7.711,82.397 7.797,82.211 7.871,82.044C7.945,81.877 8.001,81.741 8.075,81.587L8.328,81.073C8.408,80.919 8.482,80.77 8.569,80.616C8.655,80.461 8.76,80.263 8.865,80.09C8.97,79.917 9.044,79.775 9.137,79.62C9.23,79.466 9.359,79.262 9.47,79.082L9.779,78.612C9.896,78.433 10.026,78.247 10.15,78.068L10.489,77.592C10.619,77.406 10.761,77.221 10.897,77.035L11.261,76.559L11.712,75.997L12.101,75.52C12.255,75.329 12.422,75.137 12.582,74.952C12.743,74.766 12.854,74.63 12.996,74.475C13.138,74.321 13.336,74.092 13.515,73.9C13.694,73.709 13.799,73.579 13.947,73.424L14.496,72.843C14.645,72.688 14.793,72.528 14.947,72.373L15.521,71.798L16.003,71.322L16.62,70.747L17.121,70.27L17.738,69.695C17.905,69.541 18.071,69.386 18.25,69.232C18.43,69.077 18.683,68.848 18.905,68.657C19.127,68.465 19.251,68.347 19.43,68.199C19.609,68.051 19.874,67.816 20.103,67.63L20.646,67.172L21.332,66.616L21.893,66.165L22.597,65.614L23.172,65.169L23.894,64.625L24.474,64.192L25.215,63.654L25.833,63.233L26.586,62.708L27.203,62.3L27.981,61.78L28.599,61.391L29.395,60.877L29.97,60.506L30.766,60.012L31.384,59.653C31.649,59.486 31.915,59.332 32.186,59.177L32.804,58.825L33.619,58.361L34.193,58.039L35.039,57.582L35.588,57.285L36.508,56.809L36.972,56.574C37.435,56.339 37.898,56.116 38.355,55.9C47.802,51.429 55.489,50.427 58.922,53.21C59.077,53.336 59.226,53.47 59.366,53.612L59.508,53.779C59.595,53.871 59.688,53.964 59.768,54.069C59.848,54.174 59.867,54.212 59.916,54.28C59.965,54.348 60.058,54.465 60.12,54.57C60.17,54.65 60.215,54.732 60.256,54.818C60.317,54.916 60.373,55.009 60.428,55.114C60.484,55.219 60.509,55.3 60.546,55.386C60.583,55.473 60.645,55.603 60.688,55.714C60.731,55.825 60.756,55.912 60.787,56.011C60.817,56.11 60.867,56.24 60.904,56.357C60.941,56.475 60.959,56.58 60.984,56.691L61.077,57.05L61.132,57.408C61.132,57.538 61.182,57.662 61.2,57.792L61.237,58.175C61.237,58.311 61.268,58.441 61.274,58.583C61.281,58.726 61.274,58.855 61.274,58.991C61.274,59.128 61.139,59.27 61.139,59.418Z" fill="#831441"/>
<path d="M70.141,38.748C70.141,39.008 70.141,39.286 70.141,39.552C70.141,39.818 70.141,40.102 70.141,40.387C70.141,40.671 70.11,40.956 70.092,41.24C70.073,41.524 70.092,41.815 70.036,42.112C69.98,42.409 69.98,42.73 69.95,43.002C69.919,43.274 69.894,43.621 69.857,43.924C69.82,44.227 69.777,44.542 69.733,44.851C69.69,45.16 69.653,45.47 69.604,45.816C69.554,46.162 69.499,46.471 69.443,46.799C69.388,47.127 69.344,47.417 69.289,47.714C67.653,51.486 65.948,55.085 64.195,58.474C64.195,58.387 64.195,58.301 64.195,58.214L64.121,57.478C64.121,57.342 64.084,57.2 64.059,57.064C64.022,56.823 63.979,56.582 63.929,56.347C63.929,56.229 63.886,56.112 63.855,56C63.781,55.685 63.695,55.382 63.596,55.085L63.596,55.005C63.485,54.683 63.367,54.386 63.232,54.083C63.195,53.991 63.145,53.904 63.102,53.818C63.003,53.613 62.904,53.416 62.793,53.199C62.682,52.983 62.67,53.001 62.614,52.902C62.559,52.803 62.386,52.556 62.268,52.395L62.058,52.117C61.929,51.95 61.787,51.789 61.645,51.635L61.441,51.418C61.224,51.198 60.993,50.991 60.749,50.8C54.661,45.853 43.208,50.12 36.916,53.094C36.459,53.31 35.996,53.539 35.533,53.768L35.094,53.991L34.144,54.479L33.637,54.745L32.73,55.24L32.229,55.512L31.229,56.081L30.84,56.297L29.476,57.107L29.161,57.299L28.111,57.954L27.617,58.27L26.747,58.832L26.222,59.173L25.363,59.754L24.876,60.088C24.53,60.323 24.196,60.558 23.857,60.799L23.554,61.015C23.128,61.318 22.702,61.634 22.282,61.943C22.134,62.048 21.998,62.153 21.856,62.264C21.566,62.475 21.282,62.691 20.998,62.883L20.504,63.272L19.732,63.891L19.245,64.286L18.454,64.936L18.028,65.294C17.645,65.616 17.269,65.913 16.898,66.265L16.664,66.469L15.725,67.316C15.583,67.44 15.447,67.57 15.311,67.7L14.533,68.399L14.101,68.819L13.44,69.437L13.033,69.852C12.792,70.093 12.564,70.334 12.329,70.575L12.014,70.903C11.693,71.249 11.397,71.589 11.069,71.936C10.977,72.035 10.897,72.134 10.81,72.232C10.582,72.486 10.366,72.74 10.149,72.993L9.816,73.395L9.273,74.069C9.168,74.205 9.057,74.341 8.952,74.483L8.427,75.164L8.149,75.541C7.933,75.831 7.729,76.122 7.531,76.413C7.494,76.474 7.445,76.53 7.408,76.592C7.173,76.938 6.951,77.285 6.735,77.625L6.544,77.946C6.395,78.189 6.253,78.431 6.118,78.67C6.043,78.793 5.976,78.917 5.908,79.047C5.784,79.269 5.667,79.492 5.556,79.715L5.37,80.086C5.37,80.154 5.296,80.222 5.265,80.296C5.105,79.331 4.981,78.33 4.895,77.291C4.514,71.039 4.514,64.769 4.895,58.517C5.364,51.097 22.918,35.941 39.67,28.44C40.343,28.143 41.003,27.859 41.658,27.587L41.948,27.469C42.566,27.209 43.183,26.974 43.8,26.746L44.128,26.622C44.745,26.399 45.363,26.183 45.931,26.003L46.147,25.935C46.764,25.738 47.332,25.552 47.907,25.385L48.005,25.385C48.586,25.218 49.16,25.064 49.722,24.928L50,24.86C50.543,24.73 51.074,24.612 51.605,24.507L51.877,24.458C52.408,24.352 52.933,24.266 53.445,24.192L53.575,24.192C54.081,24.124 54.575,24.074 55.057,24.031L55.217,24.031C55.699,23.994 56.168,23.975 56.631,23.963L56.884,23.963C57.261,23.963 57.631,23.963 57.996,23.963L58.354,23.963C58.811,23.988 59.255,24.031 59.687,24.093L59.972,24.136C60.305,24.186 60.632,24.241 60.953,24.315L61.379,24.42C61.639,24.482 61.892,24.55 62.139,24.631C62.287,24.674 62.429,24.73 62.571,24.779C62.812,24.86 63.04,24.952 63.269,25.051L63.664,25.224C63.898,25.336 64.121,25.459 64.343,25.583L64.658,25.762C64.974,25.951 65.279,26.157 65.572,26.381C65.85,26.597 66.109,26.832 66.362,27.073C66.455,27.166 66.541,27.271 66.634,27.37C66.726,27.469 66.936,27.685 67.078,27.859C67.22,28.032 67.264,28.112 67.362,28.242C67.461,28.372 67.609,28.557 67.721,28.73C67.832,28.904 67.893,29.015 67.98,29.157C68.066,29.299 68.19,29.503 68.289,29.683C68.387,29.862 68.443,30.004 68.517,30.165C68.591,30.326 68.702,30.53 68.783,30.728C68.863,30.926 68.912,31.086 68.98,31.26C69.048,31.433 69.134,31.649 69.202,31.878C69.27,32.107 69.314,32.261 69.369,32.459C69.425,32.657 69.493,32.874 69.548,33.078C69.604,33.282 69.635,33.498 69.678,33.696C69.721,33.894 69.777,34.141 69.814,34.376C69.851,34.611 69.882,34.821 69.912,35.044C69.943,35.267 69.987,35.514 70.011,35.761C70.036,36.009 70.054,36.244 70.073,36.479C70.092,36.714 70.116,36.973 70.135,37.233C70.153,37.493 70.135,37.74 70.135,38C70.135,38.26 70.141,38.476 70.141,38.748Z" fill="#831441"/>
<path d="M81.033,13.18C78.711,21.923 76.093,30.197 73.21,37.914C73.21,37.469 73.173,37.03 73.142,36.597C73.142,36.498 73.142,36.405 73.142,36.306C73.142,35.88 73.068,35.465 73.019,35.07C73.019,34.958 72.988,34.841 72.975,34.723C72.907,34.247 72.833,33.784 72.747,33.332C72.747,33.258 72.716,33.184 72.697,33.11C72.617,32.72 72.531,32.343 72.432,31.972C72.432,31.867 72.383,31.761 72.352,31.656C72.234,31.236 72.105,30.822 71.969,30.42C71.946,30.367 71.925,30.313 71.907,30.259C71.777,29.906 71.642,29.566 71.493,29.239C71.45,29.146 71.413,29.047 71.37,28.954C71.197,28.589 71.018,28.224 70.827,27.884L70.765,27.779C70.586,27.464 70.394,27.161 70.197,26.87L70.03,26.629C69.808,26.314 69.573,26.011 69.326,25.714L69.283,25.664C69.048,25.392 68.801,25.133 68.542,24.879L68.332,24.675C68.054,24.415 67.77,24.162 67.474,23.927C61.571,19.283 51.247,19.889 38.41,25.64C37.947,25.844 37.484,26.06 37.015,26.258L36.601,26.456L35.558,26.963L35.138,27.173C34.687,27.396 34.236,27.631 33.786,27.866L33.718,27.903C33.242,28.15 32.767,28.404 32.285,28.67L31.89,28.886L30.816,29.504C30.674,29.579 30.538,29.659 30.402,29.739L29.031,30.519L28.957,30.568C28.476,30.852 27.988,31.149 27.506,31.446L27.173,31.656C26.79,31.891 26.413,32.132 26.037,32.374L25.685,32.596L24.283,33.518L22.826,34.513L22.61,34.662C22.196,34.946 21.789,35.237 21.375,35.527L21.134,35.694C20.179,36.387 19.241,37.086 18.319,37.791L18.263,37.834C17.818,38.18 17.374,38.526 16.936,38.879L16.837,38.959C12.126,42.731 8.063,46.707 5.346,50.405C5.488,48.303 5.636,46.169 5.791,43.98C6.075,39.986 6.365,35.855 6.599,31.724C7.1,26.555 6.05,22.449 3.512,19.543C2.519,18.423 1.333,17.49 0.011,16.791L0.69,16.686L2.074,16.469L3.549,16.222L4.883,15.987L6.328,15.721L7.606,15.474L9.02,15.183L10.255,14.923L11.638,14.614L12.823,14.342L14.176,14.021L15.312,13.736L16.645,13.396L17.732,13.112L19.041,12.753L20.091,12.462L21.381,12.085L22.381,11.794L23.666,11.405L24.617,11.12L25.889,10.718L26.796,10.428L28.08,10.014L28.92,9.735C29.359,9.593 29.791,9.451 30.217,9.302L31.007,9.037C31.464,8.888 31.909,8.734 32.353,8.579L33.045,8.344L34.514,7.837L35.051,7.651L36.996,6.971C48.043,3.119 57.582,-0.202 68.968,-0.301C69.446,-0.301 69.909,-0.288 70.357,-0.264L70.771,-0.264L71.672,-0.202L72.173,-0.14C72.426,-0.14 72.673,-0.091 72.914,-0.053L73.438,0.033C73.654,0.07 73.871,0.101 74.056,0.144L74.105,0.144C77.304,0.763 79.52,2.098 80.7,4.028C81.984,6.217 82.132,9.284 81.033,13.18Z" fill="#831441"/>
</svg>
