<svg width="68" height="72" viewBox="0 0 68 72" fill="none" xmlns="http://www.w3.org/2000/svg" xmlns:xlink="http://www.w3.org/1999/xlink">
<path d="M57.139,35.419C57.139,35.561 57.139,35.71 57.139,35.852C57.139,35.994 57.139,36.149 57.139,36.303C57.139,36.458 57.139,36.606 57.139,36.755C57.139,36.903 57.139,37.07 57.108,37.237C57.077,37.404 57.108,37.552 57.058,37.707L57.003,38.214C57.003,38.375 56.953,38.542 56.929,38.709C56.904,38.876 56.879,39.055 56.848,39.234C56.817,39.414 56.787,39.581 56.756,39.754C56.725,39.927 56.694,40.119 56.657,40.31C56.62,40.502 56.577,40.669 56.54,40.848C56.503,41.028 56.472,41.158 56.435,41.318C50.556,51.268 44.147,59.016 37.362,64.371C29.878,70.468 20.104,73.306 13.04,71.427C8.317,70.19 4.902,66.999 2.877,61.997C2.877,61.891 2.877,61.786 2.877,61.681C2.877,61.576 2.877,61.403 2.914,61.267C2.951,61.131 2.964,60.964 2.988,60.809C3.013,60.655 3.044,60.525 3.075,60.383C3.106,60.24 3.155,60.073 3.198,59.913C3.241,59.752 3.278,59.622 3.322,59.474C3.365,59.325 3.433,59.152 3.495,58.991C3.556,58.831 3.599,58.694 3.655,58.546C3.711,58.398 3.797,58.212 3.871,58.045C3.945,57.878 4.001,57.742 4.075,57.588L4.328,57.074C4.408,56.92 4.482,56.771 4.569,56.617C4.655,56.462 4.76,56.264 4.865,56.091C4.97,55.918 5.044,55.776 5.137,55.621C5.23,55.467 5.359,55.263 5.47,55.083L5.779,54.613C5.896,54.434 6.026,54.248 6.15,54.069L6.489,53.593C6.619,53.407 6.761,53.222 6.897,53.036L7.261,52.56L7.712,51.998L8.101,51.521C8.255,51.33 8.422,51.138 8.582,50.953C8.743,50.767 8.854,50.631 8.996,50.476C9.138,50.322 9.336,50.093 9.515,49.901C9.694,49.71 9.799,49.58 9.947,49.425L10.496,48.844C10.645,48.689 10.793,48.529 10.947,48.374L11.521,47.799L12.003,47.323L12.62,46.748L13.121,46.271L13.738,45.696C13.905,45.542 14.071,45.387 14.25,45.233C14.43,45.078 14.683,44.849 14.905,44.658C15.127,44.466 15.251,44.348 15.43,44.2C15.609,44.052 15.874,43.817 16.103,43.631L16.646,43.173L17.332,42.617L17.893,42.166L18.597,41.615L19.172,41.17L19.894,40.626L20.474,40.193L21.215,39.655L21.833,39.234L22.586,38.709L23.203,38.301L23.981,37.781L24.599,37.392L25.395,36.878L25.97,36.507L26.766,36.013L27.384,35.654C27.649,35.487 27.915,35.333 28.186,35.178L28.804,34.826L29.619,34.362L30.193,34.04L31.039,33.583L31.588,33.286L32.508,32.81L32.972,32.575C33.435,32.34 33.898,32.117 34.355,31.901C43.802,27.43 51.489,26.428 54.922,29.211C55.077,29.337 55.226,29.471 55.366,29.613L55.508,29.78C55.595,29.872 55.688,29.965 55.768,30.07C55.848,30.175 55.867,30.212 55.916,30.281C55.965,30.349 56.058,30.466 56.12,30.571C56.17,30.651 56.215,30.733 56.256,30.818C56.317,30.917 56.373,31.01 56.428,31.115C56.484,31.22 56.509,31.301 56.546,31.387C56.583,31.474 56.645,31.604 56.688,31.715C56.731,31.826 56.756,31.913 56.787,32.012C56.817,32.111 56.867,32.241 56.904,32.358C56.941,32.476 56.959,32.581 56.984,32.692L57.077,33.051L57.132,33.409C57.132,33.539 57.182,33.663 57.2,33.793L57.237,34.176C57.237,34.312 57.268,34.442 57.274,34.584C57.281,34.727 57.274,34.856 57.274,34.992C57.274,35.129 57.139,35.271 57.139,35.419Z" fill="#831441"/>
<path d="M66.141,14.749C66.141,15.009 66.141,15.287 66.141,15.553C66.141,15.819 66.141,16.103 66.141,16.388C66.141,16.672 66.11,16.957 66.092,17.241C66.073,17.525 66.092,17.816 66.036,18.113C65.98,18.41 65.98,18.731 65.95,19.003C65.919,19.275 65.894,19.622 65.857,19.925C65.82,20.228 65.777,20.543 65.733,20.852C65.69,21.161 65.653,21.471 65.604,21.817C65.554,22.163 65.499,22.472 65.443,22.8C65.388,23.128 65.344,23.418 65.289,23.715C63.653,27.487 61.948,31.086 60.195,34.475C60.195,34.388 60.195,34.302 60.195,34.215L60.121,33.479C60.121,33.343 60.084,33.201 60.059,33.065C60.022,32.824 59.979,32.583 59.929,32.348C59.929,32.23 59.886,32.113 59.855,32.001C59.781,31.686 59.695,31.383 59.596,31.086L59.596,31.006C59.485,30.684 59.367,30.387 59.232,30.084C59.195,29.992 59.145,29.905 59.102,29.819C59.003,29.614 58.904,29.417 58.793,29.2C58.682,28.984 58.67,29.002 58.614,28.903C58.559,28.804 58.386,28.557 58.268,28.396L58.058,28.118C57.929,27.951 57.787,27.79 57.645,27.636L57.441,27.419C57.224,27.199 56.993,26.992 56.749,26.801C50.661,21.854 39.208,26.121 32.916,29.095C32.459,29.311 31.996,29.54 31.533,29.769L31.094,29.992L30.144,30.48L29.637,30.746L28.73,31.241L28.229,31.513L27.229,32.082L26.84,32.298L25.476,33.108L25.161,33.3L24.111,33.955L23.617,34.271L22.747,34.833L22.222,35.174L21.363,35.755L20.876,36.089C20.53,36.324 20.196,36.559 19.857,36.8L19.554,37.016C19.128,37.319 18.702,37.635 18.282,37.944C18.134,38.049 17.998,38.154 17.856,38.265C17.566,38.476 17.282,38.692 16.998,38.884L16.504,39.273L15.732,39.892L15.245,40.287L14.454,40.937L14.028,41.295C13.645,41.617 13.269,41.914 12.898,42.266L12.664,42.47L11.725,43.317C11.583,43.441 11.447,43.571 11.311,43.701L10.533,44.4L10.101,44.82L9.44,45.438L9.033,45.853C8.792,46.094 8.564,46.335 8.329,46.576L8.014,46.904C7.693,47.25 7.397,47.59 7.069,47.937C6.977,48.036 6.897,48.135 6.81,48.233C6.582,48.487 6.366,48.741 6.149,48.994L5.816,49.396L5.273,50.07C5.168,50.206 5.057,50.342 4.952,50.484L4.427,51.165L4.149,51.542C3.933,51.832 3.729,52.123 3.531,52.414C3.494,52.475 3.445,52.531 3.408,52.593C3.173,52.939 2.951,53.286 2.735,53.626L2.544,53.947C2.395,54.19 2.253,54.432 2.118,54.671C2.043,54.794 1.976,54.918 1.908,55.048C1.784,55.27 1.667,55.493 1.556,55.716L1.37,56.087C1.37,56.155 1.296,56.223 1.265,56.297C1.105,55.332 0.981,54.331 0.895,53.292C0.514,47.04 0.514,40.77 0.895,34.518C1.364,27.098 18.918,11.942 35.67,4.441C36.343,4.144 37.003,3.86 37.658,3.587L37.948,3.47C38.566,3.21 39.183,2.975 39.8,2.747L40.128,2.623C40.745,2.4 41.363,2.184 41.931,2.004L42.147,1.936C42.764,1.739 43.332,1.553 43.907,1.386L44.005,1.386C44.586,1.219 45.16,1.065 45.722,0.929L46,0.86C46.543,0.731 47.074,0.613 47.605,0.508L47.877,0.459C48.408,0.353 48.933,0.267 49.445,0.193L49.575,0.193C50.081,0.125 50.575,0.075 51.057,0.032L51.217,0.032C51.699,-0.005 52.168,-0.024 52.631,-0.036L52.884,-0.036C53.261,-0.036 53.631,-0.036 53.996,-0.036L54.354,-0.036C54.811,-0.011 55.255,0.032 55.687,0.094L55.972,0.137C56.305,0.186 56.632,0.242 56.953,0.316L57.379,0.421C57.639,0.483 57.892,0.551 58.139,0.632C58.287,0.675 58.429,0.731 58.571,0.78C58.812,0.86 59.04,0.953 59.269,1.052L59.664,1.225C59.898,1.337 60.121,1.46 60.343,1.584L60.658,1.763C60.974,1.952 61.279,2.158 61.572,2.382C61.85,2.598 62.109,2.833 62.362,3.074C62.455,3.167 62.541,3.272 62.634,3.371C62.726,3.47 62.936,3.686 63.078,3.86C63.22,4.033 63.264,4.113 63.362,4.243C63.461,4.373 63.609,4.558 63.721,4.731C63.832,4.905 63.893,5.016 63.98,5.158C64.066,5.3 64.19,5.504 64.289,5.684C64.387,5.863 64.443,6.005 64.517,6.166C64.591,6.327 64.702,6.531 64.783,6.729C64.863,6.927 64.912,7.087 64.98,7.261C65.048,7.434 65.134,7.65 65.202,7.879C65.27,8.108 65.314,8.262 65.369,8.46C65.425,8.658 65.493,8.875 65.548,9.079C65.604,9.283 65.635,9.499 65.678,9.697C65.721,9.895 65.777,10.142 65.814,10.377C65.851,10.612 65.882,10.822 65.912,11.045C65.943,11.268 65.987,11.515 66.011,11.762C66.036,12.01 66.054,12.245 66.073,12.48C66.092,12.715 66.116,12.974 66.135,13.234C66.153,13.494 66.135,13.741 66.135,14.001C66.135,14.26 66.141,14.477 66.141,14.749Z" fill="#831441"/>
</svg>
