<svg width="120" height="116" viewBox="0 0 120 116" fill="none" xmlns="http://www.w3.org/2000/svg" xmlns:xlink="http://www.w3.org/1999/xlink">
<path d="M99.139,79.419C99.139,79.561 99.139,79.71 99.139,79.852C99.139,79.994 99.139,80.149 99.139,80.303C99.139,80.458 99.139,80.606 99.139,80.755C99.139,80.903 99.139,81.07 99.108,81.237C99.077,81.404 99.108,81.552 99.058,81.707L99.003,82.214C99.003,82.375 98.953,82.542 98.929,82.709C98.904,82.876 98.879,83.055 98.848,83.234C98.817,83.414 98.787,83.581 98.756,83.754C98.725,83.927 98.694,84.119 98.657,84.31C98.62,84.502 98.577,84.669 98.54,84.848C98.503,85.028 98.472,85.158 98.435,85.318C92.556,95.268 86.147,103.016 79.362,108.371C71.878,114.468 62.104,117.306 55.04,115.427C50.317,114.19 46.902,110.999 44.877,105.997C44.877,105.891 44.877,105.786 44.877,105.681C44.877,105.576 44.877,105.403 44.914,105.267C44.951,105.131 44.963,104.964 44.988,104.809C45.013,104.655 45.044,104.525 45.075,104.383C45.105,104.24 45.155,104.073 45.198,103.913C45.241,103.752 45.278,103.622 45.322,103.474C45.365,103.325 45.433,103.152 45.494,102.991C45.556,102.831 45.599,102.694 45.655,102.546C45.711,102.398 45.797,102.212 45.871,102.045C45.945,101.878 46.001,101.742 46.075,101.588L46.328,101.074C46.408,100.92 46.482,100.771 46.569,100.617C46.655,100.462 46.76,100.264 46.865,100.091C46.97,99.918 47.044,99.776 47.137,99.621C47.229,99.467 47.359,99.263 47.47,99.083L47.779,98.613C47.896,98.434 48.026,98.248 48.149,98.069L48.489,97.593C48.619,97.407 48.761,97.222 48.897,97.036L49.261,96.56L49.712,95.998L50.101,95.521C50.255,95.33 50.422,95.138 50.582,94.953C50.743,94.767 50.854,94.631 50.996,94.476C51.138,94.322 51.335,94.093 51.515,93.901C51.694,93.71 51.799,93.58 51.947,93.425L52.496,92.844C52.644,92.689 52.793,92.529 52.947,92.374L53.521,91.799L54.003,91.323L54.62,90.748L55.12,90.271L55.738,89.696C55.905,89.542 56.071,89.387 56.25,89.233C56.429,89.078 56.683,88.849 56.905,88.658C57.127,88.466 57.251,88.348 57.43,88.2C57.609,88.052 57.874,87.817 58.103,87.631L58.646,87.173L59.331,86.617L59.893,86.166L60.597,85.615L61.171,85.17L61.894,84.626L62.474,84.193L63.215,83.655L63.833,83.234L64.586,82.709L65.203,82.301L65.981,81.781L66.599,81.392L67.395,80.878L67.97,80.507L68.766,80.013L69.384,79.654C69.649,79.487 69.915,79.333 70.186,79.178L70.804,78.826L71.619,78.362L72.193,78.04L73.039,77.583L73.588,77.286L74.508,76.81L74.972,76.575C75.435,76.34 75.898,76.117 76.355,75.901C85.802,71.43 93.489,70.428 96.922,73.211C97.077,73.337 97.226,73.471 97.366,73.613L97.508,73.78C97.595,73.872 97.688,73.965 97.768,74.07C97.848,74.175 97.867,74.212 97.916,74.281C97.965,74.349 98.058,74.466 98.12,74.571C98.17,74.651 98.215,74.733 98.256,74.818C98.317,74.917 98.373,75.01 98.428,75.115C98.484,75.22 98.509,75.301 98.546,75.387C98.583,75.474 98.645,75.604 98.688,75.715C98.731,75.826 98.756,75.913 98.787,76.012C98.817,76.111 98.867,76.241 98.904,76.358C98.941,76.476 98.959,76.581 98.984,76.692L99.077,77.051L99.132,77.409C99.132,77.539 99.182,77.663 99.2,77.793L99.237,78.176C99.237,78.312 99.268,78.442 99.274,78.584C99.281,78.727 99.274,78.856 99.274,78.992C99.274,79.129 99.139,79.271 99.139,79.419Z" fill="#831441"/>
<path d="M108.141,58.749C108.141,59.009 108.141,59.287 108.141,59.553C108.141,59.819 108.141,60.103 108.141,60.388C108.141,60.672 108.11,60.957 108.091,61.241C108.073,61.525 108.091,61.816 108.036,62.113C107.98,62.41 107.98,62.731 107.949,63.003C107.918,63.275 107.894,63.622 107.857,63.925C107.82,64.228 107.776,64.543 107.733,64.852C107.69,65.161 107.653,65.471 107.604,65.817C107.554,66.163 107.499,66.472 107.443,66.8C107.387,67.128 107.344,67.418 107.289,67.715C105.652,71.487 103.948,75.086 102.195,78.475C102.195,78.388 102.195,78.302 102.195,78.215L102.121,77.479C102.121,77.343 102.084,77.201 102.059,77.065C102.022,76.824 101.979,76.583 101.929,76.348C101.929,76.23 101.886,76.113 101.855,76.001C101.781,75.686 101.695,75.383 101.596,75.086L101.596,75.006C101.485,74.684 101.367,74.387 101.231,74.084C101.194,73.992 101.145,73.905 101.102,73.819C101.003,73.614 100.904,73.417 100.793,73.2C100.682,72.984 100.67,73.002 100.614,72.903C100.558,72.804 100.386,72.557 100.268,72.396L100.058,72.118C99.929,71.951 99.787,71.79 99.645,71.636L99.441,71.419C99.223,71.199 98.992,70.992 98.749,70.801C92.661,65.854 81.208,70.121 74.916,73.095C74.459,73.311 73.996,73.54 73.533,73.769L73.094,73.992L72.143,74.48L71.637,74.746L70.729,75.241L70.229,75.513L69.229,76.082L68.84,76.298L67.475,77.108L67.161,77.3L66.111,77.955L65.617,78.271L64.746,78.833L64.221,79.174L63.363,79.755L62.875,80.089C62.53,80.324 62.196,80.559 61.857,80.8L61.554,81.016C61.128,81.319 60.702,81.635 60.282,81.944C60.134,82.049 59.998,82.154 59.856,82.265C59.566,82.476 59.282,82.692 58.998,82.884L58.504,83.273L57.732,83.892L57.244,84.287L56.454,84.937L56.028,85.295C55.645,85.617 55.269,85.914 54.898,86.266L54.663,86.47L53.725,87.317C53.583,87.441 53.447,87.571 53.311,87.701L52.533,88.4L52.101,88.82L51.44,89.438L51.033,89.853C50.792,90.094 50.564,90.335 50.329,90.576L50.014,90.904C49.693,91.25 49.397,91.59 49.069,91.937C48.977,92.036 48.896,92.135 48.81,92.233C48.582,92.487 48.365,92.741 48.149,92.994L47.816,93.396L47.273,94.07C47.168,94.206 47.056,94.342 46.952,94.484L46.427,95.165L46.149,95.542C45.933,95.832 45.729,96.123 45.531,96.414C45.494,96.475 45.445,96.531 45.408,96.593C45.173,96.939 44.951,97.286 44.735,97.626L44.543,97.947C44.395,98.19 44.253,98.432 44.117,98.671C44.043,98.794 43.975,98.918 43.907,99.048C43.784,99.27 43.667,99.493 43.556,99.716L43.37,100.087C43.37,100.155 43.296,100.223 43.265,100.297C43.105,99.332 42.981,98.331 42.895,97.292C42.514,91.04 42.514,84.77 42.895,78.518C43.364,71.098 60.918,55.942 77.67,48.441C78.343,48.144 79.003,47.86 79.658,47.587L79.948,47.47C80.565,47.21 81.183,46.975 81.8,46.747L82.128,46.623C82.745,46.4 83.362,46.184 83.93,46.004L84.147,45.936C84.764,45.739 85.332,45.553 85.906,45.386L86.005,45.386C86.586,45.219 87.16,45.065 87.722,44.929L87.999,44.86C88.543,44.731 89.074,44.613 89.605,44.508L89.877,44.459C90.408,44.353 90.932,44.267 91.445,44.193L91.575,44.193C92.081,44.125 92.575,44.075 93.056,44.032L93.217,44.032C93.699,43.995 94.168,43.976 94.631,43.964L94.884,43.964C95.261,43.964 95.631,43.964 95.995,43.964L96.354,43.964C96.811,43.989 97.255,44.032 97.687,44.094L97.971,44.137C98.305,44.186 98.632,44.242 98.953,44.316L99.379,44.421C99.638,44.483 99.892,44.551 100.139,44.632C100.287,44.675 100.429,44.731 100.571,44.78C100.812,44.86 101.04,44.953 101.268,45.052L101.664,45.225C101.898,45.337 102.121,45.46 102.343,45.584L102.658,45.763C102.974,45.952 103.279,46.158 103.572,46.382C103.849,46.598 104.109,46.833 104.362,47.074C104.455,47.167 104.541,47.272 104.634,47.371C104.726,47.47 104.936,47.686 105.078,47.86C105.22,48.033 105.263,48.113 105.362,48.243C105.461,48.373 105.609,48.558 105.72,48.731C105.831,48.905 105.893,49.016 105.98,49.158C106.066,49.3 106.19,49.504 106.288,49.684C106.387,49.863 106.443,50.005 106.517,50.166C106.591,50.327 106.702,50.531 106.782,50.729C106.863,50.927 106.912,51.087 106.98,51.261C107.048,51.434 107.134,51.65 107.202,51.879C107.27,52.108 107.313,52.262 107.369,52.46C107.424,52.658 107.492,52.875 107.548,53.079C107.604,53.283 107.634,53.499 107.678,53.697C107.721,53.895 107.776,54.142 107.813,54.377C107.851,54.612 107.881,54.822 107.912,55.045C107.943,55.268 107.986,55.515 108.011,55.762C108.036,56.01 108.054,56.245 108.073,56.48C108.091,56.715 108.116,56.974 108.135,57.234C108.153,57.494 108.135,57.741 108.135,58.001C108.135,58.26 108.141,58.477 108.141,58.749Z" fill="#831441"/>
<path d="M119.033,33.181C116.711,41.924 114.093,50.198 111.21,57.915C111.21,57.47 111.173,57.031 111.142,56.598C111.142,56.499 111.142,56.406 111.142,56.307C111.142,55.881 111.068,55.466 111.019,55.071C111.019,54.959 110.988,54.842 110.975,54.724C110.907,54.248 110.833,53.785 110.747,53.333C110.747,53.259 110.716,53.185 110.697,53.111C110.617,52.721 110.531,52.344 110.432,51.973C110.432,51.868 110.383,51.762 110.352,51.657C110.234,51.237 110.105,50.823 109.969,50.421C109.946,50.368 109.925,50.314 109.907,50.26C109.777,49.907 109.642,49.567 109.493,49.24C109.45,49.147 109.413,49.048 109.37,48.955C109.197,48.59 109.018,48.225 108.827,47.885L108.765,47.78C108.586,47.465 108.394,47.162 108.197,46.871L108.03,46.63C107.808,46.315 107.573,46.012 107.326,45.715L107.283,45.665C107.048,45.393 106.801,45.134 106.542,44.88L106.332,44.676C106.054,44.416 105.77,44.163 105.474,43.928C99.571,39.284 89.247,39.89 76.41,45.641C75.947,45.845 75.484,46.061 75.015,46.259L74.601,46.457L73.558,46.964L73.138,47.174C72.687,47.397 72.236,47.632 71.786,47.867L71.718,47.904C71.242,48.151 70.767,48.405 70.285,48.671L69.89,48.887L68.816,49.505C68.674,49.58 68.538,49.66 68.402,49.74L67.031,50.52L66.957,50.569C66.476,50.853 65.988,51.15 65.506,51.447L65.173,51.657C64.79,51.892 64.413,52.133 64.037,52.375L63.685,52.597L62.283,53.519L60.826,54.514L60.61,54.663C60.196,54.947 59.789,55.238 59.375,55.528L59.134,55.695C58.179,56.388 57.241,57.087 56.319,57.792L56.263,57.835C55.818,58.181 55.374,58.527 54.936,58.88L54.837,58.96C50.126,62.732 46.063,66.708 43.346,70.406C43.488,68.304 43.636,66.17 43.791,63.981C44.075,59.987 44.365,55.856 44.599,51.725C45.1,46.556 44.05,42.45 41.512,39.544C40.519,38.424 39.333,37.491 38.011,36.792L38.69,36.687L40.074,36.47L41.549,36.223L42.883,35.988L44.328,35.722L45.606,35.475L47.02,35.184L48.255,34.924L49.638,34.615L50.823,34.343L52.176,34.022L53.312,33.737L54.645,33.397L55.732,33.113L57.041,32.754L58.091,32.463L59.381,32.086L60.381,31.795L61.666,31.406L62.617,31.121L63.889,30.719L64.796,30.429L66.08,30.015L66.92,29.736C67.359,29.594 67.791,29.452 68.217,29.303L69.007,29.038C69.464,28.889 69.909,28.735 70.353,28.58L71.045,28.345L72.514,27.838L73.051,27.652L74.996,26.972C86.043,23.12 95.582,19.799 106.968,19.7C107.446,19.7 107.909,19.713 108.357,19.737L108.771,19.737L109.672,19.799L110.173,19.861C110.426,19.861 110.673,19.91 110.914,19.948L111.438,20.034C111.654,20.071 111.871,20.102 112.056,20.145L112.105,20.145C115.304,20.764 117.52,22.099 118.7,24.029C119.984,26.218 120.132,29.285 119.033,33.181Z" fill="#831441"/>
<path d="M105.313,16.668L105.011,16.668L104.023,16.717C103.64,16.717 103.257,16.754 102.881,16.785L101.911,16.865L100.794,16.971L99.843,17.076L98.738,17.218L97.805,17.354L96.706,17.527L95.786,17.688C95.422,17.75 95.064,17.818 94.706,17.892L93.798,18.071L92.711,18.306L91.822,18.51L90.735,18.776L89.859,18.993L88.76,19.283L87.901,19.518L86.79,19.834L85.944,20.081L84.808,20.427L83.981,20.681L82.801,21.058L82.011,21.311L80.776,21.726L80.035,21.967L78.677,22.431L78.059,22.647L76.546,23.173L76.022,23.352L73.978,24.063C63.561,27.693 51.75,31.811 35.992,33.957C35.19,34.044 34.393,34.118 33.597,34.18C31.207,34.378 28.842,34.483 26.552,34.495C17.339,34.557 9.207,33.172 2.959,30.482L2.736,30.309C2.66,30.256 2.588,30.198 2.52,30.136C2.438,30.064 2.359,29.988 2.286,29.907C2.218,29.839 2.144,29.771 2.082,29.696C2.02,29.622 1.934,29.511 1.866,29.418C1.798,29.325 1.736,29.257 1.674,29.171C1.613,29.084 1.545,28.967 1.477,28.862C1.409,28.757 1.36,28.676 1.31,28.577C1.261,28.478 1.187,28.342 1.131,28.225C1.075,28.107 1.026,28.021 0.977,27.909C0.927,27.798 0.878,27.656 0.822,27.526L0.649,27.18C0.6,27.044 0.563,26.901 0.52,26.759C0.477,26.617 0.446,26.518 0.409,26.388C0.372,26.258 0.341,26.091 0.31,25.943C0.279,25.795 0.248,25.677 0.223,25.541C0.199,25.405 0.174,25.22 0.149,25.065C0.125,24.91 0.106,24.787 0.088,24.644C0.069,24.502 0.088,24.304 0.044,24.137C0.001,23.97 0.044,23.847 0.013,23.705C-0.017,23.562 0.013,23.346 0.013,23.167C0.013,22.987 0.013,22.87 0.013,22.715C0.013,22.561 0.013,22.344 0.013,22.152C0.013,21.961 0.013,21.856 0.013,21.701C0.013,21.546 0.057,21.299 0.081,21.083C0.106,20.866 0.112,20.786 0.131,20.637C0.149,20.489 0.205,20.205 0.248,20.019C0.291,19.834 0.291,19.729 0.322,19.58C0.353,19.432 0.433,19.11 0.495,18.869C0.526,18.739 0.551,18.615 0.588,18.486C0.693,18.115 0.804,17.744 0.933,17.366C0.983,17.218 1.038,17.063 1.106,16.896C1.174,16.729 1.168,16.723 1.205,16.637C3.138,11.789 10.313,0.219 34.548,0.213C37.196,0.213 40.043,0.349 43.105,0.646C49.675,1.264 55.67,1.981 60.962,2.594C79.084,4.69 89.068,5.846 92.211,1.586C92.23,1.557 92.25,1.531 92.273,1.505C94.879,6.774 98.071,12.011 105.313,16.668Z" fill="#831441"/>
</svg>
