<svg width="34" height="20" viewBox="0 0 34 20" fill="none" xmlns="http://www.w3.org/2000/svg" xmlns:xlink="http://www.w3.org/1999/xlink">
<path d="M17.429,17.395C15.673,18.867 13.397,19.756 10.909,19.756C5.357,19.756 0.857,15.33 0.857,9.871C0.857,4.411 5.357,-0.015 10.909,-0.015C13.397,-0.015 15.673,0.874 17.429,2.346C19.184,0.874 21.461,-0.015 23.948,-0.015C29.5,-0.015 34,4.411 34,9.871C34,15.33 29.5,19.756 23.948,19.756C21.461,19.756 19.184,18.867 17.429,17.395Z" clip-rule="evenodd" fill-rule="evenodd" fill="#ED0006"/>
<path d="M17.428,17.395C19.59,15.582 20.96,12.883 20.96,9.871C20.96,6.858 19.59,4.16 17.428,2.346C19.184,0.874 21.46,-0.015 23.948,-0.015C29.5,-0.015 34,4.411 34,9.871C34,15.33 29.5,19.756 23.948,19.756C21.46,19.756 19.184,18.867 17.428,17.395Z" clip-rule="evenodd" fill-rule="evenodd" fill="#F9A000"/>
<path d="M17.429,17.395C19.59,15.581 20.96,12.883 20.96,9.871C20.96,6.858 19.59,4.16 17.429,2.346C15.267,4.16 13.897,6.858 13.897,9.871C13.897,12.883 15.267,15.581 17.429,17.395Z" clip-rule="evenodd" fill-rule="evenodd" fill="#FF5E00"/>
</svg>
