<svg width="194" height="166" viewBox="0 0 194 166" fill="none" xmlns="http://www.w3.org/2000/svg" xmlns:xlink="http://www.w3.org/1999/xlink">
<line x1="87.545" y1="83.87" x2="87.545" y2="165.469" stroke="#FCC20A" stroke-width="6" stroke-miterlimit="3.999327"/>
<path d="M94.028,83.775L97.357,78.783L94.028,76.564L90.7,78.783L94.028,83.775ZM81.976,99.021L97.357,88.768L90.7,78.783L75.32,89.037L81.976,99.021ZM90.7,88.768L106.081,99.021L112.737,89.037L97.357,78.783L90.7,88.768Z" fill="#FCC20A"/>
<path d="M143.262,45.853L131.823,49.479L134.748,58.709L144.387,57.801L143.262,45.853ZM103.539,22.6L95.946,31.892L99.901,35.123L104.972,34.514L103.539,22.6ZM28.708,50.679L34.87,60.976L39.614,58.138L40.539,52.688L28.708,50.679ZM120.235,120.252L147.231,120.252L147.231,96.252L120.235,96.252L120.235,120.252ZM147.231,120.252C171.486,120.252 194,101.702 194,76.959L170,76.959C170,86.133 160.67,96.252 147.231,96.252L147.231,120.252ZM194,76.959C194,51.397 169.662,31.313 142.136,33.906L144.387,57.801C159.886,56.34 170,67.526 170,76.959L194,76.959ZM154.701,42.228C148.32,22.095 128.343,7.531 102.107,10.685L104.972,34.514C119.999,32.707 128.998,40.568 131.823,49.479L154.701,42.228ZM111.132,13.307C76.473,-15.014 24.426,4.202 16.877,48.671L40.539,52.688C44.992,26.457 75.465,15.156 95.946,31.892L111.132,13.307ZM22.546,40.382C2.289,52.505 -3.766,72.721 2.166,90.281C7.853,107.114 24.213,120.252 45.091,120.252L45.091,96.252C34.741,96.252 27.371,89.902 24.904,82.599C22.682,76.022 24.049,67.452 34.87,60.976L22.546,40.382ZM45.091,120.252L66.505,120.252L66.505,96.252L45.091,96.252L45.091,120.252Z" fill="#FCC20A"/>
</svg>
