<svg width="52" height="52" viewBox="0 0 52 52" fill="none" xmlns="http://www.w3.org/2000/svg" xmlns:xlink="http://www.w3.org/1999/xlink">
<path d="M49.957,15.89C48.644,12.794 46.767,10.014 44.381,7.623C41.99,5.238 39.21,3.361 36.114,2.048C32.908,0.69 29.506,0 26,0C11.664,0.005 0,11.669 0,26.003C0,40.337 11.664,52 26,52C40.336,52 52,40.337 52,26.003C52,22.497 51.315,19.095 49.957,15.89ZM26,47.701C14.035,47.701 4.3,37.967 4.3,26.003C4.3,14.039 14.035,4.304 26,4.304C37.965,4.304 47.7,14.039 47.7,26.003C47.7,37.967 37.965,47.701 26,47.701Z" fill="#831441"/>
<path d="M26,47.701C14.035,47.701 4.3,37.967 4.3,26.003C4.3,14.039 14.035,4.304 26,4.304C37.965,4.304 47.7,14.039 47.7,26.003C47.7,37.967 37.965,47.701 26,47.701Z" fill="#831441"/>
<path d="M34.611,16.561L26.025,25.147L17.439,16.561C17.061,16.197 16.556,15.996 16.032,16C15.507,16.005 15.006,16.215 14.635,16.586C14.264,16.957 14.054,17.458 14.049,17.983C14.045,18.507 14.246,19.012 14.611,19.389L23.197,27.975L14.611,36.561C14.42,36.746 14.267,36.967 14.162,37.211C14.058,37.455 14.002,37.717 14,37.983C13.998,38.248 14.048,38.512 14.149,38.757C14.249,39.003 14.398,39.226 14.586,39.414C14.774,39.602 14.997,39.751 15.243,39.851C15.488,39.952 15.752,40.002 16.017,40C16.283,39.998 16.545,39.942 16.789,39.838C17.033,39.733 17.254,39.58 17.439,39.389L26.025,30.803L34.611,39.389C34.988,39.754 35.493,39.955 36.017,39.951C36.542,39.946 37.043,39.736 37.414,39.365C37.785,38.994 37.995,38.493 38,37.968C38.004,37.444 37.803,36.939 37.439,36.561L28.853,27.975L37.439,19.389C37.803,19.012 38.004,18.507 38,17.983C37.995,17.458 37.785,16.957 37.414,16.586C37.043,16.215 36.542,16.005 36.017,16C35.493,15.996 34.988,16.197 34.611,16.561Z" fill="#FCC20A"/>
</svg>
