<svg width="98" height="396" viewBox="0 0 98 396" fill="none" xmlns="http://www.w3.org/2000/svg" xmlns:xlink="http://www.w3.org/1999/xlink">
<path d="M95.026,395.111C96.13,395.111 97.026,394.217 97.026,393.111C97.026,392.007 96.13,391.111 95.026,391.111L95.026,395.111ZM3.311,2.345C3.311,1.24 2.415,0.345 1.311,0.345C0.206,0.345 -0.689,1.24 -0.689,2.345L3.311,2.345ZM95.026,391.111L11.311,391.111L11.311,395.111L95.026,395.111L95.026,391.111ZM3.311,383.111L3.311,2.345L-0.689,2.345L-0.689,383.111L3.311,383.111ZM11.311,391.111C6.892,391.111 3.311,387.529 3.311,383.111L-0.689,383.111C-0.689,389.739 4.683,395.111 11.311,395.111L11.311,391.111Z" transform="rotate(0 48.168 197.728)" fill="#00BC35"/>
</svg>
