<svg width="396" height="100" viewBox="0 0 396 100" fill="none" xmlns="http://www.w3.org/2000/svg" xmlns:xlink="http://www.w3.org/1999/xlink">
<path d="M393.213,98.586C394.319,98.586 395.213,97.691 395.213,96.586C395.213,95.482 394.319,94.586 393.213,94.586L393.213,98.586ZM4.447,2.871C4.447,1.766 3.552,0.871 2.447,0.871C1.343,0.871 0.447,1.766 0.447,2.871L4.447,2.871ZM393.213,94.586L12.447,94.586L12.447,98.586L393.213,98.586L393.213,94.586ZM4.447,86.586L4.447,2.871L0.447,2.871L0.447,86.586L4.447,86.586ZM12.447,94.586C8.029,94.586 4.447,91.004 4.447,86.586L0.447,86.586C0.447,93.214 5.82,98.586 12.447,98.586L12.447,94.586Z" transform="rotate(-180 197.831 49.729)" fill="#00BC35"/>
</svg>
