<svg width="396" height="100" viewBox="0 0 396 100" fill="none" xmlns="http://www.w3.org/2000/svg" xmlns:xlink="http://www.w3.org/1999/xlink">
<path d="M393.214,98.586C394.32,98.586 395.214,97.691 395.214,96.586C395.214,95.482 394.32,94.586 393.214,94.586L393.214,98.586ZM4.448,2.871C4.448,1.766 3.552,0.871 2.448,0.871C1.343,0.871 0.448,1.766 0.448,2.871L4.448,2.871ZM393.214,94.586L12.448,94.586L12.448,98.586L393.214,98.586L393.214,94.586ZM4.448,86.586L4.448,2.871L0.448,2.871L0.448,86.586L4.448,86.586ZM12.448,94.586C8.029,94.586 4.448,91.004 4.448,86.586L0.448,86.586C0.448,93.214 5.82,98.586 12.448,98.586L12.448,94.586Z" transform="rotate(-180 197.831 49.729)" fill="#00BC35"/>
</svg>
