<svg width="220" height="220" viewBox="0 0 220 220" fill="none" xmlns="http://www.w3.org/2000/svg" xmlns:xlink="http://www.w3.org/1999/xlink">
<path d="M110,219C170.751,219 220,169.751 220,109C220,48.249 170.751,-1 110,-1C49.249,-1 0,48.249 0,109C0,169.751 49.249,219 110,219ZM166.571,78.735C170.107,74.492 169.533,68.187 165.291,64.651C161.048,61.115 154.742,61.689 151.207,65.931L97.106,130.853L68.182,101.929C64.277,98.024 57.945,98.024 54.04,101.929C50.135,105.834 50.135,112.166 54.04,116.071L87.609,149.641L87.754,149.785C88.314,150.348 89.332,151.371 90.389,152.17C91.773,153.217 94.455,154.861 98.187,154.692C101.919,154.522 104.441,152.643 105.725,151.474C106.705,150.583 107.627,149.472 108.133,148.861L108.264,148.704L166.571,78.735Z" clip-rule="evenodd" fill-rule="evenodd" fill="#00BC35"/>
</svg>
