<svg width="20" height="8" viewBox="0 0 20 8" fill="none" xmlns="http://www.w3.org/2000/svg" xmlns:xlink="http://www.w3.org/1999/xlink">
<path d="M19.311,-0.207C19.317,-0.392 19.317,-0.577 19.068,-0.577C19.036,-0.634 19.004,-0.634 18.973,-0.577C18.925,-0.566 18.874,-0.564 18.823,-0.562C18.659,-0.555 18.501,-0.549 18.501,-0.233L18.501,7.374C18.501,7.703 18.627,7.707 18.879,7.716C18.891,7.717 18.902,7.717 18.914,7.718C19.19,7.728 19.311,7.67 19.311,7.352L19.311,-0.207ZM17.601,3.572L17.601,7.209C17.601,7.239 17.602,7.269 17.603,7.299L17.603,7.299C17.609,7.534 17.615,7.738 17.215,7.738C16.794,7.738 16.795,7.576 16.797,7.299L16.797,7.241L16.797,-0.117L16.797,-0.117C16.797,-0.393 16.797,-0.562 17.167,-0.557C17.538,-0.551 17.617,-0.456 17.612,-0.096C17.593,0.789 17.596,1.68 17.599,2.571L17.599,2.571C17.6,2.905 17.601,3.239 17.601,3.572ZM4.336,2.959C3.647,1.265 1.578,1.132 0.318,2.72C0.318,2.65 0.317,2.585 0.315,2.526C0.312,2.335 0.309,2.193 0.35,2.048C0.385,1.746 0.256,1.741 0.058,1.733L0.058,1.733C0.017,1.731 -0.027,1.73 -0.074,1.725C-0.344,1.699 -0.434,1.789 -0.434,2.069L-0.434,7.363C-0.439,7.691 -0.291,7.696 -0.063,7.691C-0.039,7.69 -0.016,7.69 0.007,7.69L0.007,7.69C0.202,7.69 0.355,7.69 0.355,7.368L0.355,5.214C0.339,4.703 0.396,4.194 0.524,3.7C0.64,3.264 0.912,2.887 1.287,2.638C1.663,2.389 2.116,2.287 2.562,2.35C3.298,2.44 3.7,3.022 3.7,4.028L3.7,7.04C3.701,7.098 3.695,7.16 3.689,7.221C3.664,7.476 3.639,7.724 4.134,7.707C4.58,7.692 4.538,7.467 4.497,7.252C4.482,7.171 4.467,7.091 4.479,7.024C4.502,6.737 4.502,6.448 4.479,6.161C4.431,5.348 4.479,4.533 4.621,3.731C4.729,3.294 4.993,2.911 5.364,2.655C5.734,2.398 6.186,2.286 6.633,2.339C7.39,2.408 7.761,2.911 7.814,3.97L7.814,4.16L7.814,7.368C7.803,7.691 7.999,7.712 8.179,7.691C8.221,7.686 8.268,7.69 8.315,7.693C8.467,7.705 8.618,7.716 8.618,7.437C8.605,6.956 8.613,6.474 8.621,5.992L8.621,5.992L8.621,5.992C8.635,5.135 8.649,4.278 8.544,3.424C8.517,3.068 8.397,2.725 8.196,2.43C7.994,2.135 7.719,1.899 7.397,1.744C7.075,1.589 6.718,1.522 6.361,1.55C6.005,1.577 5.663,1.698 5.368,1.9C4.951,2.174 4.599,2.535 4.336,2.959ZM15.452,1.709C15.664,1.714 15.733,1.778 15.733,1.984C15.728,3.821 15.728,5.632 15.738,7.426C15.738,7.711 15.57,7.699 15.414,7.689C15.393,7.688 15.372,7.686 15.352,7.686C15.32,7.685 15.285,7.687 15.251,7.69C15.104,7.701 14.955,7.712 14.955,7.442L14.955,6.754C13.102,8.517 11.027,7.834 10.09,6.669C9.593,6.03 9.359,5.225 9.436,4.42C9.513,3.614 9.894,2.868 10.503,2.334C10.82,2.061 11.189,1.856 11.588,1.73C11.987,1.605 12.408,1.562 12.824,1.603C13.24,1.645 13.644,1.77 14.01,1.972C14.376,2.174 14.697,2.449 14.955,2.778C14.969,2.572 14.969,2.365 14.955,2.159C14.886,1.709 15.119,1.709 15.452,1.709ZM10.955,6.454C11.411,6.896 12.022,7.141 12.657,7.135L12.657,7.156C12.974,7.153 13.286,7.087 13.577,6.962C13.868,6.838 14.132,6.657 14.353,6.43C14.574,6.203 14.747,5.935 14.864,5.641C14.981,5.347 15.039,5.032 15.034,4.716C15.036,4.402 14.976,4.09 14.856,3.799C14.736,3.509 14.56,3.245 14.337,3.023C14.115,2.801 13.85,2.626 13.559,2.508C13.268,2.389 12.956,2.33 12.641,2.334C12.319,2.322 11.997,2.378 11.697,2.497C11.397,2.616 11.125,2.796 10.898,3.025C10.671,3.254 10.494,3.528 10.377,3.829C10.261,4.13 10.208,4.452 10.222,4.774C10.236,5.409 10.499,6.012 10.955,6.454Z" clip-rule="evenodd" fill-rule="evenodd" fill="#FFFFFF"/>
</svg>
