<svg width="88" height="90" viewBox="0 0 88 90" fill="none" xmlns="http://www.w3.org/2000/svg" xmlns:xlink="http://www.w3.org/1999/xlink">
<path d="M79.987,19.658C84.93,26.671 87.715,34.976 88,43.551L87.984,46.408C87.634,57.581 83.043,68.201 75.145,76.112C67.248,84.023 56.635,88.63 45.463,89L42.544,89C33.969,88.714 25.664,85.927 18.651,80.983C11.639,76.039 6.225,69.153 3.074,61.172C-0.076,53.192 -0.825,44.464 0.919,36.063C2.664,27.662 6.826,19.955 12.894,13.888C18.961,7.822 26.669,3.661 35.071,1.918C43.472,0.175 52.199,0.925 60.179,4.077C68.16,7.229 75.045,12.644 79.987,19.658ZM71.542,46.445C74.228,46.113 76.706,44.83 78.528,42.829C78.576,42.799 78.617,42.758 78.647,42.71C78.678,42.663 78.697,42.609 78.705,42.552C78.712,42.496 78.707,42.439 78.69,42.385C78.673,42.331 78.644,42.281 78.606,42.239C78.088,41.535 77.571,40.825 77.053,40.114C76.795,39.758 76.536,39.403 76.277,39.048C75.99,38.652 75.982,38.652 75.718,39.048C74.836,40.338 73.529,41.278 72.025,41.704C70.521,42.129 68.916,42.014 67.488,41.378C67.471,41.37 67.452,41.364 67.432,41.358C67.345,41.33 67.248,41.299 67.248,41.16C67.878,41.222 68.512,41.222 69.142,41.16C70.971,40.97 72.657,40.088 73.856,38.694C75.054,37.3 75.674,35.5 75.588,33.663C75.501,31.827 74.715,30.093 73.391,28.818C72.067,27.543 70.305,26.823 68.467,26.805C66.496,26.774 64.578,27.439 63.05,28.683C61.522,29.927 60.482,31.67 60.113,33.606L59.903,34.406C59.853,34.382 59.845,34.39 59.841,34.394C59.837,34.398 59.837,34.398 59.802,34.359C59.773,34.327 59.747,34.295 59.721,34.263C59.685,34.218 59.649,34.175 59.608,34.134C58.928,33.301 58.071,32.632 57.098,32.173C56.126,31.715 55.063,31.481 53.988,31.487C52.913,31.493 51.853,31.739 50.886,32.208C49.918,32.677 49.068,33.356 48.398,34.196C48.257,34.411 48.048,34.572 47.804,34.653C47.56,34.733 47.295,34.728 47.055,34.639C46.503,34.484 45.935,34.398 45.362,34.382C43.542,34.313 41.764,34.944 40.395,36.146C39.026,37.347 38.17,39.028 38.002,40.842C37.971,41.114 37.924,41.199 37.661,41.02C35.443,39.51 32.755,38.851 30.091,39.165C27.997,39.392 26.007,40.198 24.346,41.494C24.152,41.649 24.128,41.758 24.284,41.96C24.672,42.495 25.06,43.033 25.448,43.571C25.836,44.108 26.225,44.646 26.613,45.182C26.745,45.368 26.838,45.415 27.04,45.252C27.776,44.632 28.64,44.184 29.571,43.939C30.501,43.695 31.475,43.661 32.42,43.839C33.096,43.938 33.75,44.154 34.353,44.475C34.3,44.507 34.254,44.495 34.213,44.485C34.194,44.48 34.176,44.475 34.159,44.475C32.765,44.289 31.347,44.516 30.08,45.127C28.814,45.739 27.754,46.708 27.032,47.915C26.912,48.101 26.857,48.194 26.803,48.194C26.749,48.194 26.694,48.101 26.574,47.915C24.478,44.576 21.52,42.814 17.491,43.179C16.453,43.246 15.44,43.53 14.519,44.013C13.597,44.495 12.787,45.166 12.141,45.981C11.013,47.405 10.465,49.203 10.609,51.014C10.753,52.824 11.578,54.513 12.918,55.74C14.229,56.924 15.927,57.589 17.694,57.61C19.46,57.632 21.174,57.008 22.514,55.857C22.617,55.722 22.766,55.631 22.933,55.601L22.63,56.121C21.811,57.392 20.586,58.35 19.154,58.837C17.722,59.325 16.167,59.314 14.742,58.807C14.543,58.741 14.444,58.708 14.395,58.743C14.346,58.779 14.346,58.882 14.346,59.086L14.346,63.077C14.346,63.364 14.424,63.504 14.734,63.566C15.895,63.793 17.085,63.835 18.259,63.69C22.677,63.139 25.697,60.732 27.482,56.703C27.572,56.504 27.613,56.405 27.67,56.394C27.726,56.384 27.798,56.46 27.948,56.61C28.712,57.424 29.659,58.044 30.712,58.416C31.764,58.789 32.89,58.905 33.996,58.753C35.551,58.587 37.029,57.99 38.264,57.03C39.498,56.07 40.44,54.785 40.983,53.318C41.011,53.177 41.092,53.052 41.208,52.969C41.35,53.454 41.501,53.93 41.651,54.401C41.765,54.759 41.878,55.114 41.985,55.469C42.078,55.764 42.202,55.81 42.49,55.717C43.825,55.267 45.168,54.824 46.519,54.405C46.783,54.312 46.891,54.203 46.783,53.893C46.053,51.688 45.339,49.475 44.625,47.262C44.38,46.473 44.126,45.683 43.873,44.892C43.602,44.051 43.332,43.208 43.072,42.364C42.973,42.097 42.928,41.815 42.939,41.531C42.95,41.248 43.017,40.969 43.136,40.711C43.254,40.454 43.422,40.222 43.63,40.029C43.839,39.836 44.083,39.686 44.349,39.588C44.615,39.49 44.898,39.445 45.181,39.456C45.465,39.466 45.743,39.533 46.001,39.652C46.259,39.77 46.491,39.939 46.683,40.147C46.876,40.355 47.026,40.599 47.124,40.865C47.456,41.817 47.762,42.776 48.068,43.732C48.213,44.188 48.359,44.643 48.506,45.096C48.767,45.899 49.031,46.701 49.294,47.502C49.845,49.178 50.395,50.853 50.921,52.534C51.022,52.852 51.13,52.922 51.457,52.813C52.784,52.363 54.119,51.936 55.455,51.517C55.734,51.424 55.843,51.323 55.734,51.004C55.09,49.087 54.469,47.169 53.848,45.244C53.537,44.281 53.225,43.32 52.912,42.36C52.6,41.399 52.287,40.438 51.977,39.475C51.872,39.186 51.83,38.878 51.853,38.571C51.876,38.264 51.964,37.965 52.111,37.695C52.257,37.424 52.459,37.188 52.704,37.001C52.949,36.814 53.23,36.681 53.529,36.611C54.081,36.474 54.664,36.56 55.153,36.851C55.641,37.142 55.995,37.613 56.138,38.163C57.391,41.983 58.63,45.803 59.857,49.623C59.958,49.918 60.074,50.026 60.4,49.918C61.751,49.459 63.102,49.025 64.461,48.59C64.686,48.512 64.779,48.404 64.686,48.147C64.432,47.496 64.215,46.814 63.996,46.128C63.967,46.038 63.938,45.948 63.909,45.857L63.451,44.429C63.615,44.451 63.767,44.524 63.886,44.638C66.14,46.136 68.856,46.776 71.542,46.445ZM71.037,34.002C71.041,33.645 70.974,33.29 70.839,32.958C70.705,32.627 70.505,32.326 70.253,32.072C70.001,31.818 69.701,31.617 69.37,31.481C69.039,31.344 68.685,31.275 68.327,31.277C67.789,31.276 67.263,31.434 66.815,31.732C66.366,32.03 66.017,32.454 65.81,32.951C65.604,33.448 65.549,33.995 65.654,34.523C65.758,35.051 66.017,35.536 66.398,35.916C66.778,36.297 67.263,36.555 67.791,36.66C68.319,36.765 68.866,36.71 69.363,36.504C69.86,36.297 70.284,35.947 70.582,35.499C70.877,35.056 71.035,34.535 71.037,34.002ZM16.339,48.154C16.79,47.863 17.318,47.712 17.856,47.721C18.568,47.731 19.248,48.023 19.747,48.532C20.245,49.04 20.523,49.726 20.519,50.438C20.517,50.976 20.356,51.501 20.055,51.946C19.754,52.392 19.328,52.738 18.83,52.94C18.332,53.143 17.785,53.192 17.258,53.083C16.732,52.974 16.25,52.711 15.874,52.327C15.498,51.943 15.244,51.456 15.146,50.927C15.047,50.399 15.108,49.853 15.32,49.359C15.533,48.866 15.887,48.446 16.339,48.154ZM32.193,49.095C32.526,48.959 32.883,48.891 33.243,48.893C33.781,48.899 34.304,49.064 34.748,49.367C35.192,49.67 35.537,50.098 35.738,50.596C35.94,51.095 35.989,51.642 35.881,52.168C35.772,52.695 35.51,53.177 35.128,53.555C34.745,53.933 34.26,54.19 33.732,54.292C33.204,54.395 32.658,54.339 32.162,54.132C31.666,53.925 31.242,53.576 30.944,53.128C30.646,52.681 30.487,52.155 30.487,51.618C30.489,51.258 30.562,50.902 30.701,50.57C30.841,50.238 31.045,49.937 31.3,49.684C31.556,49.431 31.86,49.231 32.193,49.095Z" clip-rule="evenodd" fill-rule="evenodd" fill="#E8118C"/>
</svg>
