<svg width="56" height="56" viewBox="0 0 56 56" fill="none" xmlns="http://www.w3.org/2000/svg" xmlns:xlink="http://www.w3.org/1999/xlink">
<path d="M27.313,0.206L26.691,0.206C24.946,0.257 23.211,0.497 21.519,0.923C21.344,0.955 21.181,1.033 21.047,1.149C20.913,1.266 20.813,1.416 20.758,1.585C20.435,2.392 20.158,3.216 19.928,4.055C18.921,7.644 18.481,11.369 18.624,15.095C18.673,16.315 18.901,17.522 19.301,18.676C19.461,19.128 19.702,19.546 20.012,19.911C20.02,19.921 20.027,19.931 20.035,19.941L20.035,19.941C20.07,19.99 20.107,20.041 20.185,20.025C20.253,20.011 20.256,19.988 20.264,19.93C20.267,19.908 20.271,19.881 20.279,19.847C20.298,19.765 20.314,19.682 20.329,19.6C20.337,19.559 20.344,19.518 20.353,19.477C20.848,16.933 21.508,14.425 22.329,11.968C23.107,9.656 24.024,7.392 25.075,5.191C25.841,3.625 26.666,2.084 27.545,0.602C27.723,0.295 27.674,0.206 27.313,0.206ZM45.244,17.792C48.456,17.776 51.628,18.505 54.512,19.921C54.642,19.981 54.757,20.07 54.848,20.181C54.939,20.293 55.003,20.423 55.035,20.563C55.579,22.429 55.888,24.356 55.954,26.298C55.971,26.524 55.971,26.75 55.954,26.975C55.954,27.104 55.909,27.242 55.781,27.291C55.681,27.33 55.62,27.26 55.562,27.195C55.546,27.176 55.531,27.158 55.514,27.143C53.851,25.619 51.89,24.455 49.754,23.725C48.334,23.242 46.862,22.927 45.368,22.786C44.189,22.671 43.004,22.64 41.821,22.692C38.657,22.754 35.549,23.541 32.737,24.994C31.687,25.568 30.694,26.241 29.773,27.005C29.759,27.017 29.745,27.031 29.731,27.045C29.668,27.109 29.598,27.18 29.501,27.104C29.383,27.01 29.442,26.891 29.501,26.778C30.151,25.191 31.153,23.772 32.431,22.628C34.099,21.138 36.026,19.966 38.116,19.17C40.208,18.338 42.431,17.885 44.681,17.832C44.822,17.828 44.963,17.816 45.103,17.804C45.15,17.8 45.197,17.796 45.244,17.792ZM42.705,24.337C46.049,24.279 49.349,25.102 52.274,26.723C53.388,27.347 54.419,28.109 55.341,28.991C55.387,29.045 55.439,29.095 55.495,29.139C55.989,29.445 56.028,29.919 55.989,30.438C55.818,32.102 55.497,33.747 55.03,35.353C55.023,35.388 55.013,35.423 55.001,35.457C54.98,35.497 54.969,35.547 54.958,35.597C54.932,35.713 54.907,35.829 54.759,35.832C54.588,35.836 54.535,35.713 54.483,35.59C54.47,35.56 54.457,35.53 54.442,35.501C54.016,34.652 53.489,33.858 52.872,33.135C51.838,31.935 50.605,30.922 49.226,30.142C46.98,28.853 44.512,27.998 41.95,27.622C40.628,27.423 39.295,27.308 37.958,27.277C36.532,27.234 35.104,27.29 33.685,27.445C33.496,27.457 33.306,27.457 33.117,27.445C33.076,27.452 33.034,27.445 32.997,27.425C32.961,27.405 32.932,27.374 32.915,27.336C32.88,27.227 32.964,27.168 33.038,27.124C33.133,27.068 33.227,27.012 33.321,26.956L33.322,26.956C33.57,26.808 33.816,26.662 34.071,26.526C36.004,25.493 38.107,24.813 40.28,24.52C41.082,24.394 41.893,24.333 42.705,24.337ZM22.867,17.308C22.989,15.617 23.305,13.947 23.811,12.329C24.681,9.561 25.81,6.881 27.184,4.326C27.846,3.031 28.575,1.772 29.368,0.552C29.427,0.44 29.519,0.348 29.63,0.288C29.742,0.229 29.869,0.203 29.995,0.216C31.671,0.348 33.333,0.618 34.965,1.021C35.327,1.101 35.682,1.21 36.027,1.347C36.234,1.441 36.229,1.525 36.066,1.673C33.79,3.773 31.677,6.042 29.743,8.461C27.262,11.548 25.068,14.855 23.188,18.34C23.17,18.381 23.148,18.421 23.124,18.459L23.117,18.469C23.093,18.503 23.061,18.548 23.03,18.548C22.995,18.548 22.961,18.484 22.951,18.429C22.933,18.36 22.92,18.289 22.912,18.217C22.895,17.988 22.886,17.759 22.875,17.495L22.867,17.308ZM19.298,1.843C19.34,1.741 19.388,1.624 19.172,1.624L18.95,1.688C17.157,2.258 15.438,3.04 13.832,4.02C13.68,4.098 13.552,4.214 13.458,4.357C13.364,4.5 13.31,4.665 13.299,4.835C13.053,6.662 12.976,8.507 13.067,10.348C13.178,12.613 13.567,14.856 14.222,17.026C14.626,18.581 15.378,20.023 16.421,21.245C16.731,21.672 17.156,22.002 17.646,22.198C17.903,22.268 17.942,22.213 17.903,21.961C17.856,21.663 17.808,21.364 17.759,21.065L17.759,21.065L17.759,21.065L17.759,21.065L17.759,21.065L17.759,21.065L17.759,21.065L17.759,21.065L17.759,21.065L17.759,21.065L17.759,21.065L17.759,21.065L17.759,21.065L17.759,21.064L17.759,21.064C17.692,20.66 17.626,20.255 17.567,19.852C17.308,18.119 17.158,16.372 17.117,14.621C17.08,13.203 17.13,11.784 17.265,10.373C17.468,8.193 17.897,6.041 18.545,3.951L18.592,3.814L18.592,3.814C18.818,3.164 19.041,2.523 19.281,1.886C19.286,1.872 19.292,1.858 19.298,1.843L19.298,1.843ZM38.936,29.079C41.898,29.032 44.823,29.738 47.438,31.129C49.758,32.353 51.752,34.115 53.252,36.267C53.408,36.493 53.545,36.73 53.681,36.967L53.681,36.967C53.766,37.114 53.85,37.26 53.938,37.403C54.028,37.55 54.081,37.717 54.092,37.889C54.103,38.061 54.073,38.233 54.003,38.391C53.544,39.61 52.968,40.781 52.284,41.888C52.088,42.198 51.891,42.518 51.693,42.839L51.693,42.84C51.575,43.03 51.458,43.221 51.34,43.41C51.299,43.48 51.249,43.545 51.192,43.603L51.175,43.621C51.12,43.682 51.055,43.754 50.97,43.736C50.889,43.719 50.881,43.629 50.875,43.551C50.873,43.538 50.872,43.526 50.871,43.514C50.589,41.563 49.942,39.682 48.964,37.971C48.096,36.499 46.982,35.187 45.669,34.093C43.195,32.042 40.256,30.628 37.109,29.974C36.849,29.915 36.589,29.869 36.327,29.823C36.145,29.791 35.962,29.758 35.78,29.722C35.716,29.722 35.617,29.722 35.612,29.623C35.608,29.549 35.656,29.539 35.706,29.528C35.723,29.524 35.74,29.52 35.755,29.514C36.286,29.281 36.855,29.15 37.435,29.129C37.603,29.123 37.772,29.111 37.939,29.1C38.29,29.076 38.632,29.053 38.936,29.079ZM14.015,24.382C14.554,24.707 15.154,24.919 15.778,25.004C16.228,25.014 16.267,24.945 16.065,24.609C16.068,24.593 16.068,24.576 16.065,24.56C14.751,22.228 13.675,19.771 12.854,17.224C12.141,15.021 11.745,12.727 11.678,10.412C11.649,8.839 11.788,7.267 12.093,5.724C12.133,5.635 12.187,5.512 12.093,5.453C12.003,5.396 11.909,5.457 11.827,5.51L11.817,5.517C11.496,5.734 11.175,5.951 10.858,6.179C9.616,7.022 8.475,8.007 7.46,9.113C7.363,9.225 7.292,9.357 7.252,9.499C7.213,9.642 7.206,9.792 7.233,9.938C7.336,10.708 7.455,11.474 7.593,12.24C8.078,15.262 9.095,18.174 10.597,20.84C11.38,22.319 12.565,23.546 14.015,24.382ZM44.968,49.535C45.039,48.448 45.039,47.357 44.968,46.27C44.784,42.391 43.3,38.686 40.754,35.753C39.747,34.605 38.61,33.577 37.365,32.691C37.347,32.676 37.328,32.663 37.309,32.65C37.282,32.631 37.255,32.612 37.232,32.592C37.225,32.586 37.217,32.58 37.209,32.574C37.173,32.546 37.135,32.517 37.168,32.468C37.199,32.421 37.227,32.424 37.26,32.427C37.268,32.428 37.277,32.429 37.286,32.429C37.558,32.427 37.828,32.475 38.082,32.572C40.41,33.303 42.586,34.451 44.503,35.961C46.335,37.416 47.849,39.232 48.949,41.296C49.531,42.434 49.88,43.677 49.977,44.951C49.989,45.055 49.978,45.161 49.946,45.261C49.913,45.36 49.86,45.452 49.789,45.529C48.461,47.092 46.992,48.531 45.402,49.827C45.377,49.847 45.35,49.872 45.322,49.897C45.223,49.988 45.115,50.086 45.022,50.024C44.95,49.977 44.96,49.865 44.97,49.75C44.977,49.675 44.983,49.598 44.968,49.535ZM37.272,36.583C38.744,39.261 39.511,42.27 39.499,45.326C39.504,46.036 39.447,46.746 39.327,47.446C39.008,49.594 38.341,51.677 37.351,53.61C37.325,53.664 37.285,53.719 37.245,53.775C37.149,53.909 37.052,54.043 37.143,54.159C37.249,54.294 37.468,54.198 37.654,54.117C37.693,54.1 37.731,54.083 37.766,54.07C39.656,53.371 41.466,52.472 43.165,51.387C43.285,51.317 43.389,51.222 43.47,51.109C43.55,50.996 43.606,50.867 43.634,50.73C43.99,49.185 44.049,47.586 43.807,46.018C43.606,44.529 43.186,43.077 42.562,41.71C41.804,39.925 40.686,38.316 39.277,36.983C38.601,36.365 37.853,35.831 37.049,35.392L37.022,35.381C36.922,35.339 36.823,35.297 36.723,35.392C36.635,35.476 36.693,35.557 36.744,35.629L36.744,35.629C36.756,35.646 36.768,35.663 36.778,35.679C36.857,35.832 36.941,35.981 37.025,36.131C37.109,36.28 37.193,36.43 37.272,36.583ZM14.163,28.319C12.659,28.266 11.211,27.734 10.029,26.802C8.074,25.228 6.44,23.293 5.217,21.102C4.431,19.75 3.722,18.355 3.093,16.923C2.968,16.66 2.907,16.371 2.915,16.08C2.922,15.789 2.999,15.504 3.137,15.248C3.869,13.842 4.712,12.495 5.657,11.222C5.7,11.164 5.749,11.111 5.805,11.064C5.998,10.911 6.111,10.955 6.136,11.207C6.21,11.859 6.294,12.516 6.403,13.183C6.713,15.075 7.254,16.921 8.013,18.681C9.363,21.743 11.326,24.496 13.783,26.768C14.073,27.045 14.378,27.306 14.683,27.566C14.845,27.705 15.007,27.843 15.166,27.983C15.177,27.992 15.19,28.001 15.202,28.01C15.252,28.044 15.303,28.079 15.28,28.146C15.256,28.213 15.204,28.217 15.154,28.221L15.154,28.221L15.154,28.221C15.141,28.222 15.128,28.223 15.117,28.225C14.802,28.28 14.483,28.312 14.163,28.319ZM40.636,5.457C40.955,4.984 41.171,4.449 41.268,3.887C41.282,3.782 41.262,3.676 41.211,3.584C41.161,3.491 41.082,3.417 40.986,3.373L40.761,3.265C40.016,2.91 39.267,2.553 38.487,2.261C38.27,2.17 38.031,2.143 37.799,2.186C37.568,2.228 37.353,2.336 37.183,2.499C36.393,3.186 35.642,3.919 34.935,4.692C33.908,5.774 32.939,6.9 32.001,8.061C30.39,10.032 28.953,12.111 27.555,14.221C27.538,14.249 27.519,14.277 27.5,14.306L27.5,14.306C27.411,14.441 27.316,14.585 27.422,14.715C27.53,14.848 27.695,14.763 27.839,14.689C27.865,14.675 27.891,14.662 27.916,14.65C28.938,14.181 29.926,13.687 30.914,13.139C33.522,11.745 35.967,10.067 38.205,8.135C39.137,7.361 39.955,6.46 40.636,5.457ZM38.526,44.961C38.485,46.656 38.214,48.338 37.721,49.96C37.255,51.435 36.71,52.883 36.086,54.297C36.037,54.428 35.955,54.544 35.849,54.635C35.742,54.725 35.615,54.788 35.478,54.816C33.481,55.347 31.432,55.662 29.368,55.755L29.17,55.755C29.057,55.755 28.938,55.755 28.899,55.616C28.867,55.506 28.93,55.462 28.992,55.418L28.992,55.418C29.007,55.407 29.023,55.396 29.037,55.384C30.426,54.166 31.651,52.773 32.682,51.24C34.349,48.874 35.448,46.156 35.893,43.297C36.094,41.808 36.058,40.298 35.785,38.821C35.785,38.786 35.773,38.747 35.761,38.709C35.734,38.622 35.707,38.533 35.809,38.475C35.958,38.391 36.101,38.51 36.209,38.619C37.185,39.621 37.876,40.866 38.21,42.225C38.408,43.124 38.514,44.041 38.526,44.961ZM6.516,40.441C8.241,40.959 10.023,41.261 11.822,41.34C13.649,41.35 15.107,41.068 16.426,40.263C17.107,39.846 17.692,39.291 18.145,38.633C18.298,38.406 18.253,38.287 17.982,38.287C17.846,38.281 17.71,38.289 17.577,38.312C16.36,38.535 15.122,38.623 13.887,38.574C12.314,38.49 10.761,38.194 9.268,37.694C6.215,36.652 3.388,35.041 0.934,32.947C0.836,32.839 0.737,32.765 0.598,32.839C0.492,32.895 0.502,32.99 0.513,33.089C0.516,33.119 0.519,33.149 0.519,33.179C0.863,35.04 1.396,36.861 2.11,38.613C2.167,38.761 2.256,38.895 2.372,39.003C2.487,39.112 2.626,39.193 2.777,39.241L3.022,39.325C4.179,39.722 5.335,40.118 6.516,40.441ZM29.684,43.899C29.685,45.713 28.996,47.46 27.757,48.785C26.168,50.531 24.298,52 22.225,53.132C21.764,53.404 21.295,53.666 20.828,53.926L20.828,53.927C20.61,54.048 20.392,54.17 20.175,54.292C20.018,54.386 19.843,54.442 19.661,54.458C19.48,54.473 19.298,54.447 19.128,54.381C17.299,53.752 15.532,52.958 13.847,52.01L13.753,51.956C13.74,51.946 13.727,51.937 13.714,51.927C13.622,51.862 13.52,51.789 13.551,51.664C13.578,51.551 13.68,51.546 13.778,51.541C13.803,51.54 13.829,51.539 13.852,51.536C16.468,51.18 19.021,50.455 21.435,49.382C23.328,48.544 25.057,47.373 26.537,45.924C27.522,44.939 28.377,43.832 29.081,42.63C29.095,42.607 29.106,42.58 29.118,42.552C29.156,42.465 29.196,42.371 29.294,42.383C29.402,42.395 29.44,42.519 29.473,42.626C29.479,42.646 29.485,42.666 29.491,42.684C29.63,43.074 29.696,43.486 29.684,43.899ZM21.43,55.014C23.25,55.447 25.107,55.707 26.977,55.789C27.184,55.807 27.393,55.772 27.583,55.687C27.773,55.603 27.938,55.471 28.064,55.305C28.294,55.03 28.526,54.756 28.758,54.481C29.387,53.736 30.018,52.99 30.618,52.218C31.799,50.747 32.795,49.136 33.581,47.421C34.196,46.145 34.463,44.729 34.357,43.316C34.312,42.454 34.043,41.618 33.577,40.891C33.562,40.87 33.548,40.847 33.533,40.822C33.484,40.739 33.431,40.649 33.339,40.668C33.251,40.687 33.231,40.783 33.212,40.876C33.206,40.907 33.2,40.938 33.191,40.965C32.74,42.538 32.121,44.059 31.344,45.5C29.793,48.323 27.592,50.736 24.922,52.539C23.772,53.321 22.561,54.01 21.301,54.599C21.285,54.606 21.268,54.613 21.25,54.62C21.173,54.649 21.091,54.681 21.099,54.781C21.108,54.893 21.206,54.936 21.298,54.977L21.326,54.989C21.359,55.002 21.394,55.01 21.43,55.014ZM0.001,27.79C-0.006,27.019 0.035,26.249 0.124,25.483C0.13,25.421 0.143,25.36 0.164,25.301C0.176,25.252 0.2,25.207 0.233,25.17C0.267,25.133 0.309,25.105 0.356,25.088C0.461,25.06 0.506,25.133 0.549,25.201C0.559,25.217 0.568,25.232 0.579,25.246C1.216,26.111 1.873,26.965 2.555,27.775C4.287,29.834 6.424,31.516 8.833,32.715C11.134,33.793 13.553,34.6 16.04,35.121C16.129,35.121 16.263,35.121 16.287,35.244C16.306,35.341 16.239,35.389 16.173,35.436C16.154,35.449 16.136,35.462 16.119,35.477C15.265,36.215 14.193,36.656 13.066,36.731C11.463,36.835 9.858,36.543 8.393,35.882C5.652,34.785 3.236,33.14 0.821,31.475C0.562,31.286 0.356,31.035 0.221,30.745C0.085,30.455 0.025,30.135 0.045,29.816C0.011,29.193 0.001,28.586 0.001,27.79ZM23.603,46.443C24.461,45.425 24.98,44.164 25.085,42.837C25.074,42.794 25.061,42.751 25.046,42.709C25.042,42.67 25.042,42.627 25.041,42.584C25.04,42.449 25.039,42.309 24.942,42.264C24.847,42.22 24.757,42.304 24.671,42.384C24.64,42.412 24.611,42.44 24.581,42.462C22.844,43.822 20.942,44.957 18.92,45.841C17.105,46.62 15.167,47.071 13.195,47.174C11.461,47.255 9.723,47.157 8.008,46.883C7.996,46.88 7.983,46.877 7.97,46.874L7.97,46.874C7.877,46.853 7.768,46.829 7.712,46.932C7.648,47.051 7.712,47.159 7.786,47.258C7.836,47.321 7.891,47.38 7.949,47.436C9.023,48.512 10.179,49.503 11.407,50.4C11.749,50.685 12.158,50.877 12.596,50.958C13.034,51.039 13.485,51.007 13.906,50.864C14.242,50.761 14.589,50.672 14.93,50.584L14.93,50.584L14.93,50.584C15.096,50.541 15.261,50.498 15.423,50.454C17.078,50.071 18.697,49.542 20.259,48.874C21.546,48.332 22.69,47.5 23.603,46.443ZM13.358,32.488C11.775,32.48 10.221,32.073 8.838,31.303C6.66,30.079 4.697,28.505 3.029,26.644C2.174,25.736 1.379,24.777 0.608,23.799C0.54,23.72 0.49,23.627 0.464,23.525C0.437,23.424 0.434,23.319 0.455,23.216C0.704,21.564 1.135,19.943 1.74,18.385C1.801,18.234 1.872,18.088 1.952,17.945C1.961,17.929 1.969,17.91 1.977,17.892C2.011,17.815 2.048,17.731 2.14,17.743C2.224,17.754 2.235,17.828 2.245,17.9C2.249,17.925 2.252,17.949 2.258,17.97C2.421,18.523 2.594,19.072 2.797,19.615C3.53,21.623 4.606,23.488 5.978,25.128C7.379,26.776 9.007,28.216 10.814,29.406C12.193,30.322 13.63,31.147 15.117,31.876C15.135,31.885 15.156,31.893 15.178,31.902C15.247,31.929 15.32,31.957 15.324,32.029C15.328,32.104 15.236,32.142 15.156,32.174C15.137,32.182 15.118,32.189 15.102,32.197C14.544,32.402 13.952,32.501 13.358,32.488ZM9.272,45.955C9.623,45.967 9.974,45.979 10.325,45.993C10.441,45.989 10.557,45.985 10.672,45.981C11.604,45.947 12.533,45.913 13.447,45.786C15.007,45.628 16.523,45.179 17.917,44.462C19.354,43.724 20.498,42.521 21.163,41.049C21.168,41.04 21.174,41.031 21.18,41.022C21.227,40.95 21.278,40.871 21.212,40.797C21.155,40.732 21.087,40.776 21.025,40.815C21.006,40.827 20.987,40.838 20.97,40.846C20.178,41.193 19.369,41.498 18.545,41.76C15.723,42.641 12.735,42.854 9.816,42.382C7.657,42.017 5.555,41.366 3.567,40.446C3.518,40.426 3.466,40.396 3.414,40.366C3.285,40.291 3.158,40.216 3.073,40.308C2.97,40.42 3.07,40.612 3.153,40.77C3.165,40.793 3.176,40.815 3.187,40.836C4.047,42.527 5.096,44.114 6.314,45.569C6.374,45.644 6.449,45.706 6.534,45.752C6.619,45.798 6.712,45.826 6.808,45.835C7.629,45.898 8.449,45.926 9.272,45.955Z" clip-rule="evenodd" fill-rule="evenodd" fill="#FFFFFF"/>
</svg>
