<svg width="40" height="40" viewBox="0 0 40 40" fill="none" xmlns="http://www.w3.org/2000/svg" xmlns:xlink="http://www.w3.org/1999/xlink">
<path d="M10,22C10,21.057 10,20.586 10.293,20.293C10.586,20 11.057,20 12,20L16,20C16.943,20 17.414,20 17.707,20.293C18,20.586 18,21.057 18,22C18,22.943 18,23.414 17.707,23.707C17.414,24 16.943,24 16,24L12,24C11.057,24 10.586,24 10.293,23.707C10,23.414 10,22.943 10,22Z" fill="#B8B8B8"/>
<path d="M10.293,28.293C10,28.586 10,29.057 10,30C10,30.943 10,31.414 10.293,31.707C10.586,32 11.057,32 12,32L16,32C16.943,32 17.414,32 17.707,31.707C18,31.414 18,30.943 18,30C18,29.057 18,28.586 17.707,28.293C17.414,28 16.943,28 16,28L12,28C11.057,28 10.586,28 10.293,28.293Z" fill="#B8B8B8"/>
<path d="M22,22C22,21.057 22,20.586 22.293,20.293C22.586,20 23.057,20 24,20L28,20C28.943,20 29.414,20 29.707,20.293C30,20.586 30,21.057 30,22C30,22.943 30,23.414 29.707,23.707C29.414,24 28.943,24 28,24L24,24C23.057,24 22.586,24 22.293,23.707C22,23.414 22,22.943 22,22Z" fill="#B8B8B8"/>
<path d="M22.293,28.293C22,28.586 22,29.057 22,30C22,30.943 22,31.414 22.293,31.707C22.586,32 23.057,32 24,32L28,32C28.943,32 29.414,32 29.707,31.707C30,31.414 30,30.943 30,30C30,29.057 30,28.586 29.707,28.293C29.414,28 28.943,28 28,28L24,28C23.057,28 22.586,28 22.293,28.293Z" fill="#B8B8B8"/>
<path d="M10,0C11.105,0 12,0.895 12,2L12,6L28,6L28,2C28,0.895 28.895,0 30,0C31.105,0 32,0.895 32,2L32,6.008C32.996,6.022 33.886,6.061 34.656,6.164C35.967,6.341 37.223,6.738 38.243,7.757C39.262,8.777 39.659,10.033 39.836,11.344C40,12.568 40,14.095 40,15.868L40,30.132C40,31.905 40,33.432 39.836,34.656C39.659,35.967 39.262,37.223 38.243,38.243C37.223,39.262 35.967,39.659 34.656,39.836C33.432,40 31.905,40 30.132,40L9.868,40C8.095,40 6.568,40 5.344,39.836C4.033,39.659 2.777,39.262 1.757,38.243C0.738,37.223 0.341,35.967 0.164,34.656C0,33.432 0,31.905 0,30.132L0,15.868C0,14.095 0,12.568 0.164,11.344C0.341,10.033 0.738,8.777 1.757,7.757C2.777,6.738 4.033,6.341 5.344,6.164C6.114,6.061 7.004,6.022 8,6.008L8,2C8,0.895 8.895,0 10,0ZM36,16L4,16L4,30C4,31.942 4.004,33.198 4.129,34.123C4.245,34.99 4.434,35.262 4.586,35.414C4.738,35.566 5.01,35.755 5.877,35.871C6.802,35.996 8.058,36 10,36L30,36C31.942,36 33.198,35.996 34.123,35.871C34.99,35.755 35.262,35.566 35.414,35.414C35.566,35.262 35.755,34.99 35.871,34.123C35.996,33.198 36,31.942 36,30L36,16Z" clip-rule="evenodd" fill-rule="evenodd" fill="#B8B8B8"/>
</svg>
