<svg width="56" height="30" viewBox="0 0 56 30" fill="none" xmlns="http://www.w3.org/2000/svg" xmlns:xlink="http://www.w3.org/1999/xlink">
<path d="M26.495,27.99C26.982,28.007 27.459,28.023 27.882,28.008C28.954,28.019 29.933,27.981 30.905,27.934C31.466,27.908 32.029,27.869 32.582,27.826C33.135,27.784 33.686,27.723 34.238,27.661C34.966,27.578 35.691,27.481 36.413,27.369C37.31,27.226 38.202,27.06 39.089,26.869C40.545,26.557 41.984,26.168 43.399,25.704C45.172,25.129 46.89,24.399 48.535,23.523C49.345,23.088 50.128,22.605 50.88,22.076C51.888,21.375 52.811,20.559 53.629,19.644C54.324,18.874 54.896,18.001 55.326,17.058C55.723,16.172 55.95,15.218 55.995,14.248C56.013,13.768 55.979,13.288 55.894,12.815C55.703,11.719 55.291,10.672 54.682,9.74C53.876,8.519 52.873,7.441 51.713,6.549C50.917,5.921 50.075,5.352 49.194,4.848C47.968,4.144 46.691,3.531 45.374,3.015C44.172,2.541 42.946,2.129 41.702,1.78C40.176,1.355 38.629,1.008 37.067,0.741C36.111,0.578 35.151,0.446 34.189,0.337C33.492,0.258 32.794,0.194 32.096,0.138C31.608,0.1 31.119,0.07 30.63,0.051C29.98,0.023 29.33,0.001 28.679,-0.009C28.088,-0.018 27.476,-0.016 26.906,0.004C26.736,0.009 26.565,0.015 26.394,0.02C25.995,0.033 25.596,0.046 25.198,0.064C24.563,0.093 23.933,0.137 23.291,0.19C22.738,0.234 22.18,0.291 21.624,0.356C20.867,0.444 20.119,0.55 19.361,0.673C17.947,0.902 16.543,1.191 15.155,1.55C13.81,1.894 12.485,2.312 11.185,2.8C9.414,3.453 7.712,4.282 6.106,5.273C4.828,6.054 3.657,6.997 2.622,8.079C1.872,8.866 1.247,9.764 0.768,10.74C0.339,11.621 0.083,12.576 0.015,13.553C-0.022,14.11 0.009,14.67 0.108,15.219C0.271,16.14 0.593,17.025 1.06,17.835C1.658,18.858 2.407,19.786 3.281,20.586C4.238,21.47 5.285,22.252 6.404,22.918C7.673,23.68 9.001,24.338 10.375,24.888C11.922,25.509 13.51,26.028 15.126,26.439C16.651,26.833 18.194,27.149 19.751,27.387C20.552,27.511 21.361,27.619 22.174,27.703C22.867,27.776 23.56,27.835 24.254,27.885C24.842,27.928 25.433,27.958 26.022,27.975C26.179,27.979 26.337,27.984 26.494,27.99L26.494,27.99L26.495,27.99ZM29.187,25.741C28.783,25.754 28.378,25.766 27.973,25.754L27.973,25.759C27.522,25.773 27.071,25.758 26.62,25.742C26.4,25.735 26.181,25.728 25.961,25.724C25.376,25.71 24.792,25.675 24.209,25.633C23.468,25.58 22.73,25.515 21.994,25.436C21.195,25.349 20.4,25.244 19.608,25.119C18.744,24.984 17.886,24.824 17.033,24.641C15.985,24.414 14.949,24.15 13.924,23.847C13.01,23.573 12.107,23.265 11.22,22.915C10.293,22.554 9.387,22.141 8.507,21.678C7.38,21.096 6.319,20.395 5.343,19.586C4.548,18.936 3.857,18.17 3.292,17.314C2.822,16.605 2.499,15.808 2.342,14.972C2.238,14.395 2.229,13.805 2.313,13.224C2.478,12.172 2.9,11.177 3.542,10.327C4.248,9.376 5.097,8.541 6.059,7.851C7.053,7.124 8.113,6.49 9.225,5.96C10.584,5.308 11.99,4.758 13.431,4.315C14.79,3.889 16.169,3.535 17.565,3.254C18.551,3.057 19.53,2.892 20.52,2.754C21.155,2.665 21.791,2.594 22.427,2.524C22.81,2.482 23.195,2.453 23.578,2.425L23.578,2.425L23.588,2.424C24.136,2.383 24.684,2.345 25.233,2.312C25.495,2.295 25.758,2.282 26.02,2.282L26.424,2.271C27.212,2.251 28.001,2.23 28.791,2.248C29.425,2.264 30.081,2.283 30.696,2.312C31.311,2.341 31.932,2.379 32.538,2.43C33.271,2.493 34.004,2.569 34.736,2.657C35.799,2.786 36.856,2.951 37.905,3.153C39.363,3.429 40.806,3.783 42.226,4.213C43.372,4.556 44.498,4.961 45.6,5.425C46.889,5.966 48.126,6.625 49.294,7.394C50.179,7.972 50.993,8.653 51.718,9.422C52.424,10.156 52.982,11.018 53.361,11.962C53.674,12.768 53.798,13.635 53.725,14.496C53.652,15.357 53.384,16.19 52.94,16.932C52.445,17.786 51.819,18.556 51.083,19.213C50.419,19.82 49.703,20.365 48.941,20.843C47.754,21.585 46.503,22.22 45.203,22.74C44.064,23.206 42.901,23.611 41.719,23.951C40.497,24.304 39.259,24.594 38.011,24.836C37.184,24.998 36.352,25.131 35.518,25.25C34.882,25.337 34.246,25.414 33.609,25.48C33.087,25.533 32.555,25.575 32.026,25.615C31.627,25.644 31.227,25.664 30.828,25.685L30.828,25.685C30.588,25.697 30.348,25.71 30.109,25.724L30.048,25.724C29.761,25.724 29.474,25.733 29.187,25.741ZM20.963,13.732L21.103,13.52C21.133,13.581 21.145,13.65 21.138,13.718L21.138,18.382L21.138,18.534C21.138,18.664 21.159,18.685 21.29,18.685L23.136,18.685C23.259,18.685 23.321,18.685 23.352,18.654C23.383,18.623 23.383,18.56 23.383,18.434L23.383,9.574L23.383,9.438C23.377,9.339 23.362,9.316 23.268,9.316L23.132,9.316L21.481,9.316C21.422,9.317 21.375,9.316 21.336,9.315C21.244,9.312 21.197,9.311 21.16,9.331C21.121,9.351 21.093,9.394 21.037,9.484L21.037,9.484C21.017,9.515 20.994,9.552 20.966,9.595C20.246,10.706 19.525,11.817 18.804,12.928C18.715,13.061 18.703,13.061 18.612,12.928L18.587,12.89L17.845,11.748L17.49,11.202C17.11,10.618 16.73,10.034 16.353,9.448C16.329,9.404 16.293,9.368 16.25,9.344C16.206,9.32 16.156,9.31 16.106,9.313L14.289,9.313C14.03,9.313 14.03,9.317 14.032,9.511L14.033,9.569L14.033,18.432L14.033,18.568C14.039,18.667 14.052,18.69 14.148,18.69L14.284,18.69L16.012,18.69C16.149,18.69 16.212,18.69 16.241,18.658C16.267,18.631 16.266,18.58 16.266,18.485L16.266,18.485L16.265,18.431L16.265,13.691C16.259,13.629 16.263,13.565 16.279,13.505C16.322,13.538 16.357,13.58 16.382,13.629L16.59,13.947C17.002,14.58 17.415,15.214 17.824,15.851C17.849,15.897 17.887,15.935 17.933,15.96C17.979,15.985 18.031,15.996 18.083,15.992C18.218,15.992 18.353,15.991 18.488,15.99L18.488,15.99C18.757,15.988 19.026,15.986 19.295,15.992C19.359,15.998 19.424,15.984 19.481,15.953C19.537,15.921 19.583,15.874 19.613,15.816C20.007,15.194 20.411,14.575 20.817,13.954L20.963,13.732ZM39.65,14.762C39.666,14.704 39.67,14.644 39.663,14.585L39.663,9.571C39.663,9.442 39.663,9.377 39.696,9.345C39.728,9.313 39.792,9.313 39.919,9.313L41.677,9.313L41.813,9.313C41.827,9.312 41.841,9.314 41.854,9.319C41.867,9.324 41.879,9.332 41.889,9.342C41.899,9.352 41.906,9.364 41.911,9.378C41.915,9.391 41.916,9.405 41.914,9.419L41.914,9.541L41.914,18.446L41.914,18.446C41.914,18.564 41.914,18.623 41.885,18.653C41.856,18.682 41.797,18.682 41.681,18.682L39.848,18.682C39.794,18.686 39.739,18.675 39.69,18.651C39.642,18.626 39.6,18.589 39.571,18.543C38.576,17.157 37.579,15.773 36.578,14.389C36.336,14.055 36.094,13.719 35.852,13.382L35.725,13.214C35.704,13.277 35.697,13.344 35.704,13.411L35.704,18.425C35.704,18.55 35.704,18.614 35.672,18.646C35.64,18.679 35.574,18.679 35.442,18.679L33.583,18.679C33.476,18.679 33.461,18.656 33.453,18.553L33.453,18.417L33.453,9.577C33.453,9.56 33.453,9.544 33.453,9.529C33.452,9.428 33.452,9.374 33.479,9.345C33.509,9.313 33.573,9.313 33.71,9.313L33.72,9.313L35.507,9.313C35.565,9.31 35.622,9.322 35.673,9.349C35.725,9.375 35.768,9.416 35.798,9.465C36.572,10.542 37.35,11.621 38.132,12.7C38.602,13.351 39.072,14.001 39.542,14.651C39.548,14.66 39.554,14.669 39.559,14.678C39.579,14.712 39.6,14.748 39.65,14.762ZM32.132,9.315L28.423,9.315L24.725,9.318L24.574,9.318C24.477,9.325 24.462,9.341 24.454,9.435L24.454,9.541L24.454,11.34C24.454,11.454 24.454,11.511 24.482,11.539C24.511,11.567 24.567,11.567 24.68,11.567L27.196,11.567C27.274,11.564 27.303,11.605 27.303,11.679L27.303,11.801L27.303,18.49C27.303,18.68 27.311,18.68 27.488,18.68L29.291,18.68C29.318,18.68 29.343,18.681 29.366,18.681C29.545,18.683 29.556,18.683 29.556,18.414L29.556,11.857L29.556,11.72C29.556,11.581 29.565,11.569 29.707,11.569L29.813,11.569L32.206,11.569C32.37,11.569 32.381,11.56 32.381,11.399L32.381,9.566C32.381,9.44 32.381,9.377 32.349,9.346C32.318,9.315 32.256,9.315 32.132,9.315Z" clip-rule="evenodd" fill-rule="evenodd" fill="#000000"/>
</svg>
