<svg width="20" height="20" viewBox="0 0 20 20" fill="none" xmlns="http://www.w3.org/2000/svg" xmlns:xlink="http://www.w3.org/1999/xlink">
<path d="M5,11C5,10.529 5,10.293 5.146,10.146C5.293,10 5.529,10 6,10L8,10C8.471,10 8.707,10 8.854,10.146C9,10.293 9,10.529 9,11C9,11.471 9,11.707 8.854,11.854C8.707,12 8.471,12 8,12L6,12C5.529,12 5.293,12 5.146,11.854C5,11.707 5,11.471 5,11Z" fill="#A1A1A1"/>
<path d="M5.146,14.146C5,14.293 5,14.529 5,15C5,15.471 5,15.707 5.146,15.854C5.293,16 5.529,16 6,16L8,16C8.471,16 8.707,16 8.854,15.854C9,15.707 9,15.471 9,15C9,14.529 9,14.293 8.854,14.146C8.707,14 8.471,14 8,14L6,14C5.529,14 5.293,14 5.146,14.146Z" fill="#A1A1A1"/>
<path d="M11,11C11,10.529 11,10.293 11.146,10.146C11.293,10 11.529,10 12,10L14,10C14.471,10 14.707,10 14.854,10.146C15,10.293 15,10.529 15,11C15,11.471 15,11.707 14.854,11.854C14.707,12 14.471,12 14,12L12,12C11.529,12 11.293,12 11.146,11.854C11,11.707 11,11.471 11,11Z" fill="#A1A1A1"/>
<path d="M11.146,14.146C11,14.293 11,14.529 11,15C11,15.471 11,15.707 11.146,15.854C11.293,16 11.529,16 12,16L14,16C14.471,16 14.707,16 14.854,15.854C15,15.707 15,15.471 15,15C15,14.529 15,14.293 14.854,14.146C14.707,14 14.471,14 14,14L12,14C11.529,14 11.293,14 11.146,14.146Z" fill="#A1A1A1"/>
<path d="M5,0C5.552,0 6,0.448 6,1L6,3L14,3L14,1C14,0.448 14.448,0 15,0C15.552,0 16,0.448 16,1L16,3.004C16.498,3.011 16.943,3.03 17.328,3.082C17.983,3.17 18.612,3.369 19.121,3.879C19.631,4.388 19.83,5.017 19.918,5.672C20,6.284 20,7.048 20,7.934L20,15.066C20,15.952 20,16.716 19.918,17.328C19.83,17.983 19.631,18.612 19.121,19.121C18.612,19.631 17.983,19.83 17.328,19.918C16.716,20 15.952,20 15.066,20L4.934,20C4.048,20 3.284,20 2.672,19.918C2.017,19.83 1.388,19.631 0.879,19.121C0.369,18.612 0.17,17.983 0.082,17.328C0,16.716 0,15.952 0,15.066L0,7.934C0,7.048 0,6.284 0.082,5.672C0.17,5.017 0.369,4.388 0.879,3.879C1.388,3.369 2.017,3.17 2.672,3.082C3.057,3.03 3.502,3.011 4,3.004L4,1C4,0.448 4.448,0 5,0ZM18,8L2,8L2,15C2,15.971 2.002,16.599 2.064,17.061C2.123,17.495 2.217,17.631 2.293,17.707C2.369,17.783 2.505,17.877 2.939,17.936C3.401,17.998 4.029,18 5,18L15,18C15.971,18 16.599,17.998 17.061,17.936C17.495,17.877 17.631,17.783 17.707,17.707C17.783,17.631 17.877,17.495 17.936,17.061C17.998,16.599 18,15.971 18,15L18,8Z" clip-rule="evenodd" fill-rule="evenodd" fill="#A1A1A1"/>
</svg>
