<svg width="64" height="64" viewBox="0 0 64 64" fill="none" xmlns="http://www.w3.org/2000/svg" xmlns:xlink="http://www.w3.org/1999/xlink">
<path d="M31.215,-0.764L30.503,-0.764C28.509,-0.707 26.527,-0.432 24.593,0.054C24.393,0.091 24.207,0.18 24.054,0.313C23.901,0.447 23.787,0.618 23.723,0.811C23.355,1.733 23.038,2.676 22.775,3.634C21.623,7.736 21.121,11.994 21.284,16.251C21.341,17.646 21.602,19.025 22.058,20.344C22.241,20.86 22.516,21.338 22.871,21.756L22.885,21.774L22.897,21.79C22.937,21.846 22.98,21.904 23.068,21.886C23.146,21.869 23.15,21.844 23.159,21.777C23.162,21.752 23.166,21.721 23.176,21.682C23.198,21.588 23.216,21.494 23.233,21.4C23.242,21.353 23.251,21.306 23.26,21.259C23.826,18.353 24.58,15.486 25.518,12.678C26.408,10.035 27.456,7.448 28.657,4.932C29.532,3.143 30.475,1.381 31.48,-0.313C31.683,-0.663 31.627,-0.764 31.215,-0.764Z" fill="#FFFFFF"/>
<path d="M51.708,19.334C55.379,19.316 59.004,20.149 62.299,21.767C62.448,21.835 62.58,21.937 62.683,22.064C62.787,22.192 62.86,22.341 62.897,22.501C63.519,24.633 63.872,26.835 63.947,29.055C63.967,29.313 63.967,29.571 63.947,29.829C63.947,29.976 63.897,30.134 63.75,30.19C63.635,30.234 63.565,30.154 63.5,30.08C63.482,30.059 63.463,30.038 63.445,30.021C61.543,28.279 59.302,26.949 56.862,26.114C55.239,25.563 53.556,25.203 51.849,25.041C50.502,24.91 49.148,24.874 47.796,24.934C44.179,25.004 40.627,25.904 37.414,27.565C36.213,28.221 35.079,28.99 34.026,29.863C34.016,29.872 34.005,29.882 33.995,29.892L33.979,29.909C33.907,29.981 33.826,30.063 33.716,29.976C33.58,29.868 33.648,29.733 33.716,29.603C34.458,27.789 35.603,26.168 37.064,24.861C38.97,23.158 41.172,21.818 43.561,20.909C45.952,19.958 48.492,19.44 51.064,19.379C51.225,19.375 51.386,19.361 51.547,19.347L51.601,19.343L51.708,19.334Z" fill="#FFFFFF"/>
<path d="M48.806,26.814C52.627,26.747 56.399,27.687 59.741,29.541C61.015,30.253 62.193,31.124 63.247,32.132C63.3,32.194 63.359,32.251 63.422,32.301C63.987,32.651 64.032,33.193 63.987,33.786C63.792,35.688 63.426,37.568 62.892,39.404C62.883,39.444 62.872,39.483 62.858,39.522C62.834,39.568 62.821,39.625 62.809,39.682C62.78,39.814 62.75,39.947 62.581,39.951C62.386,39.956 62.326,39.815 62.266,39.674C62.251,39.64 62.237,39.605 62.22,39.573C61.733,38.602 61.13,37.694 60.425,36.869C59.243,35.497 57.834,34.339 56.258,33.448C53.692,31.974 50.871,30.997 47.942,30.568C46.432,30.341 44.908,30.209 43.381,30.173C41.751,30.124 40.119,30.188 38.497,30.365C38.281,30.379 38.064,30.379 37.848,30.365C37.801,30.373 37.753,30.365 37.711,30.343C37.669,30.32 37.636,30.284 37.617,30.241C37.577,30.117 37.673,30.049 37.758,29.998C37.866,29.935 37.974,29.871 38.081,29.807C38.365,29.638 38.647,29.471 38.938,29.315C41.148,28.134 43.551,27.358 46.034,27.023C46.951,26.879 47.878,26.809 48.806,26.814Z" fill="#FFFFFF"/>
<path d="M26.134,18.781C26.273,16.848 26.635,14.939 27.212,13.09C28.207,9.927 29.498,6.865 31.068,3.944C31.825,2.464 32.657,1.025 33.563,-0.369C33.631,-0.497 33.735,-0.602 33.863,-0.67C33.991,-0.739 34.136,-0.767 34.28,-0.753C36.195,-0.602 38.095,-0.294 39.96,0.167C40.374,0.258 40.78,0.383 41.173,0.54C41.41,0.647 41.405,0.743 41.219,0.913C38.617,3.312 36.202,5.905 33.992,8.669C31.157,12.197 28.649,15.977 26.501,19.96C26.48,20.007 26.455,20.053 26.427,20.096L26.419,20.108C26.392,20.147 26.356,20.198 26.32,20.198C26.281,20.198 26.241,20.124 26.23,20.062C26.209,19.982 26.194,19.901 26.185,19.819C26.166,19.558 26.155,19.296 26.143,18.995L26.134,18.781Z" fill="#FFFFFF"/>
<path d="M22.055,1.106C22.103,0.99 22.158,0.856 21.911,0.856L21.657,0.93C19.608,1.58 17.644,2.475 15.808,3.594C15.635,3.684 15.487,3.816 15.381,3.98C15.274,4.143 15.211,4.331 15.199,4.526C14.918,6.613 14.829,8.722 14.933,10.826C15.061,13.415 15.505,15.978 16.254,18.459C16.716,20.235 17.575,21.884 18.766,23.28C19.122,23.767 19.607,24.145 20.167,24.37C20.46,24.449 20.505,24.387 20.46,24.099C20.407,23.758 20.351,23.416 20.296,23.074C20.22,22.612 20.144,22.149 20.076,21.688C19.781,19.708 19.61,17.711 19.562,15.709C19.52,14.089 19.577,12.468 19.732,10.854C19.964,8.364 20.454,5.904 21.194,3.515L21.248,3.359C21.506,2.616 21.761,1.883 22.035,1.155C22.041,1.14 22.048,1.123 22.055,1.106Z" fill="#FFFFFF"/>
<path d="M44.499,32.234C47.883,32.18 51.226,32.986 54.215,34.577C56.866,35.975 59.145,37.988 60.859,40.448C61.037,40.706 61.193,40.977 61.35,41.248C61.446,41.415 61.543,41.583 61.644,41.746C61.747,41.915 61.807,42.105 61.82,42.302C61.832,42.499 61.797,42.695 61.717,42.875C61.193,44.268 60.535,45.607 59.753,46.872C59.529,47.227 59.304,47.593 59.077,47.96L59.076,47.962C58.942,48.179 58.808,48.396 58.674,48.611C58.628,48.692 58.571,48.766 58.505,48.831L58.486,48.852C58.423,48.923 58.348,49.004 58.251,48.984C58.159,48.965 58.15,48.862 58.142,48.773C58.141,48.758 58.14,48.744 58.138,48.73C57.816,46.5 57.077,44.351 55.959,42.396C54.967,40.713 53.693,39.214 52.193,37.964C49.365,35.619 46.006,34.003 42.41,33.256C42.114,33.189 41.816,33.136 41.517,33.083C41.309,33.046 41.1,33.009 40.891,32.968C40.818,32.968 40.705,32.968 40.699,32.855C40.695,32.771 40.75,32.759 40.807,32.746C40.826,32.742 40.846,32.738 40.863,32.731C41.469,32.464 42.121,32.315 42.782,32.29C42.975,32.283 43.168,32.27 43.359,32.257C43.76,32.23 44.15,32.203 44.499,32.234Z" fill="#FFFFFF"/>
<path d="M16.017,26.865C16.634,27.236 17.319,27.478 18.032,27.576C18.546,27.587 18.591,27.508 18.36,27.125C18.363,27.106 18.363,27.087 18.36,27.068C16.858,24.404 15.629,21.595 14.69,18.685C13.875,16.166 13.423,13.545 13.347,10.899C13.313,9.102 13.472,7.306 13.821,5.542C13.866,5.44 13.928,5.299 13.821,5.231C13.718,5.166 13.61,5.237 13.516,5.297L13.505,5.305C13.138,5.553 12.771,5.802 12.41,6.061C10.99,7.025 9.686,8.15 8.525,9.415C8.414,9.542 8.333,9.693 8.288,9.856C8.243,10.02 8.236,10.191 8.266,10.357C8.384,11.238 8.52,12.113 8.678,12.988C9.232,16.442 10.394,19.77 12.11,22.817C13.006,24.507 14.36,25.91 16.017,26.865Z" fill="#FFFFFF"/>
<path d="M51.392,55.612C51.474,54.369 51.474,53.123 51.392,51.88C51.182,47.446 49.486,43.213 46.576,39.861C45.425,38.548 44.125,37.374 42.703,36.361C42.692,36.352 42.681,36.344 42.67,36.336L42.639,36.314C42.608,36.292 42.577,36.271 42.551,36.248C42.546,36.243 42.54,36.239 42.534,36.234L42.525,36.227C42.483,36.195 42.44,36.162 42.477,36.107C42.513,36.053 42.546,36.056 42.583,36.059C42.592,36.06 42.602,36.061 42.613,36.061C42.924,36.059 43.232,36.114 43.522,36.225C46.183,37.06 48.67,38.373 50.861,40.098C52.955,41.76 54.684,43.836 55.942,46.195C56.606,47.496 57.006,48.916 57.116,50.373C57.13,50.492 57.118,50.612 57.081,50.726C57.044,50.84 56.983,50.945 56.902,51.033C55.384,52.82 53.706,54.464 51.889,55.945C51.859,55.968 51.828,55.996 51.797,56.025C51.683,56.129 51.56,56.241 51.454,56.171C51.372,56.116 51.383,55.989 51.394,55.857C51.402,55.771 51.41,55.683 51.392,55.612Z" fill="#FFFFFF"/>
<path d="M42.596,40.809C44.279,43.87 45.156,47.309 45.142,50.802C45.148,51.613 45.082,52.424 44.945,53.224C44.581,55.68 43.818,58.06 42.686,60.269C42.657,60.331 42.611,60.394 42.566,60.457C42.456,60.61 42.346,60.764 42.449,60.896C42.571,61.05 42.82,60.941 43.034,60.848L43.1,60.819L43.137,60.804L43.161,60.794C45.321,59.995 47.389,58.968 49.331,57.729C49.468,57.648 49.587,57.54 49.68,57.411C49.772,57.281 49.836,57.134 49.867,56.978C50.274,55.211 50.341,53.384 50.065,51.592C49.835,49.89 49.356,48.232 48.642,46.669C47.776,44.629 46.498,42.79 44.888,41.267C44.116,40.56 43.261,39.95 42.342,39.449L42.311,39.436C42.197,39.388 42.083,39.34 41.969,39.449C41.869,39.544 41.935,39.637 41.993,39.719C42.007,39.739 42.021,39.758 42.032,39.776C42.122,39.951 42.218,40.122 42.314,40.293C42.41,40.463 42.506,40.634 42.596,40.809Z" fill="#FFFFFF"/>
<path d="M16.186,31.364C14.467,31.303 12.812,30.696 11.461,29.631C9.227,27.832 7.36,25.62 5.962,23.116C5.064,21.571 4.253,19.977 3.535,18.34C3.392,18.04 3.322,17.71 3.331,17.377C3.34,17.045 3.427,16.719 3.586,16.426C4.422,14.819 5.385,13.28 6.465,11.825C6.514,11.758 6.571,11.698 6.634,11.645C6.854,11.47 6.984,11.52 7.013,11.808C7.097,12.554 7.193,13.304 7.317,14.067C7.672,16.228 8.29,18.338 9.158,20.35C10.7,23.849 12.944,26.995 15.752,29.592C16.084,29.909 16.432,30.207 16.781,30.504C16.966,30.662 17.15,30.82 17.332,30.98C17.345,30.991 17.36,31.001 17.374,31.011C17.431,31.05 17.489,31.09 17.462,31.167C17.435,31.243 17.376,31.248 17.319,31.253C17.304,31.254 17.29,31.255 17.276,31.257C16.916,31.32 16.552,31.356 16.186,31.364Z" fill="#FFFFFF"/>
<path d="M46.441,5.237C46.806,4.696 47.052,4.085 47.163,3.442C47.179,3.322 47.157,3.201 47.099,3.095C47.041,2.99 46.951,2.905 46.841,2.855L46.584,2.732C45.732,2.326 44.877,1.918 43.985,1.584C43.737,1.48 43.464,1.45 43.199,1.498C42.935,1.546 42.69,1.67 42.494,1.855C41.591,2.642 40.734,3.478 39.926,4.362C38.751,5.598 37.645,6.886 36.572,8.212C34.732,10.465 33.089,12.842 31.491,15.252C31.472,15.284 31.451,15.317 31.429,15.35C31.327,15.504 31.218,15.668 31.339,15.817C31.463,15.969 31.652,15.872 31.816,15.787C31.846,15.772 31.876,15.756 31.904,15.743C33.072,15.207 34.201,14.642 35.33,14.016C38.311,12.423 41.105,10.505 43.663,8.297C44.728,7.412 45.663,6.382 46.441,5.237Z" fill="#FFFFFF"/>
<path d="M44.03,50.384C43.983,52.321 43.673,54.243 43.11,56.097C42.578,57.782 41.954,59.437 41.241,61.054C41.185,61.203 41.091,61.336 40.97,61.439C40.849,61.543 40.703,61.614 40.547,61.647C38.264,62.254 35.923,62.613 33.563,62.719L33.337,62.719C33.208,62.719 33.072,62.719 33.027,62.561C32.991,62.435 33.063,62.385 33.133,62.335L33.147,62.325L33.164,62.313C33.171,62.307 33.178,62.302 33.185,62.296C34.772,60.904 36.173,59.311 37.351,57.559C39.257,54.856 40.512,51.749 41.021,48.481C41.251,46.781 41.209,45.054 40.897,43.367C40.897,43.327 40.883,43.283 40.87,43.238C40.839,43.139 40.808,43.038 40.925,42.971C41.094,42.876 41.258,43.011 41.382,43.135C42.498,44.281 43.287,45.704 43.669,47.256C43.895,48.284 44.016,49.332 44.03,50.384Z" fill="#FFFFFF"/>
<path d="M7.447,45.218C9.418,45.811 11.455,46.156 13.51,46.246C15.599,46.257 17.265,45.935 18.772,45.015C19.55,44.539 20.22,43.904 20.737,43.152C20.912,42.892 20.861,42.757 20.55,42.757C20.396,42.749 20.24,42.759 20.087,42.785C18.697,43.04 17.283,43.14 15.87,43.084C14.074,42.989 12.298,42.651 10.592,42.079C7.103,40.888 3.872,39.047 1.068,36.654C0.955,36.53 0.842,36.445 0.684,36.53C0.563,36.595 0.574,36.703 0.586,36.816C0.59,36.85 0.594,36.885 0.594,36.919C0.986,39.046 1.595,41.127 2.411,43.13C2.476,43.299 2.578,43.451 2.71,43.575C2.842,43.699 3.001,43.792 3.174,43.847L3.453,43.942C4.776,44.396 6.097,44.849 7.447,45.218Z" fill="#FFFFFF"/>
<path d="M33.925,49.17C33.926,51.243 33.139,53.239 31.723,54.754C29.906,56.75 27.769,58.429 25.4,59.722C24.873,60.033 24.338,60.332 23.804,60.629L23.802,60.631C23.553,60.77 23.304,60.909 23.057,61.048C22.878,61.155 22.678,61.219 22.47,61.237C22.263,61.255 22.054,61.225 21.86,61.15C19.771,60.431 17.751,59.524 15.825,58.44L15.718,58.378C15.703,58.367 15.688,58.356 15.673,58.345C15.568,58.27 15.452,58.188 15.486,58.045C15.518,57.915 15.635,57.91 15.746,57.904C15.775,57.903 15.804,57.902 15.831,57.898C18.821,57.491 21.739,56.662 24.497,55.437C26.661,54.478 28.636,53.14 30.328,51.485C31.454,50.359 32.431,49.093 33.236,47.719C33.251,47.693 33.264,47.662 33.278,47.631C33.321,47.531 33.367,47.424 33.479,47.437C33.602,47.451 33.645,47.593 33.683,47.715C33.69,47.738 33.697,47.761 33.704,47.781C33.863,48.227 33.938,48.698 33.925,49.17Z" fill="#FFFFFF"/>
<path d="M24.491,61.873C26.571,62.368 28.694,62.665 30.831,62.759C31.068,62.779 31.306,62.739 31.523,62.642C31.74,62.546 31.93,62.395 32.073,62.206C32.336,61.891 32.601,61.578 32.866,61.264C33.586,60.413 34.307,59.56 34.992,58.677C36.342,56.997 37.48,55.155 38.379,53.195C39.081,51.737 39.387,50.119 39.265,48.504C39.213,47.518 38.906,46.563 38.373,45.732C38.357,45.709 38.34,45.682 38.324,45.654C38.268,45.559 38.207,45.456 38.102,45.478C38.001,45.499 37.978,45.609 37.957,45.715C37.95,45.751 37.943,45.786 37.933,45.817C37.418,47.615 36.71,49.353 35.821,50.999C34.05,54.226 31.534,56.984 28.482,59.044C27.168,59.939 25.785,60.726 24.344,61.398C24.326,61.407 24.306,61.415 24.285,61.423C24.198,61.456 24.104,61.493 24.113,61.607C24.123,61.735 24.235,61.784 24.34,61.83L24.372,61.844C24.41,61.859 24.45,61.869 24.491,61.873Z" fill="#FFFFFF"/>
<path d="M0.001,30.76C-0.007,29.879 0.04,28.999 0.142,28.124C0.149,28.053 0.164,27.983 0.187,27.915C0.201,27.859 0.228,27.808 0.266,27.766C0.305,27.723 0.353,27.691 0.407,27.672C0.527,27.64 0.579,27.723 0.627,27.801C0.639,27.819 0.65,27.837 0.661,27.853C1.39,28.841 2.14,29.817 2.919,30.743C4.9,33.096 7.342,35.018 10.095,36.389C12.725,37.621 15.489,38.543 18.332,39.138C18.433,39.138 18.586,39.138 18.614,39.279C18.636,39.389 18.559,39.444 18.483,39.498C18.462,39.513 18.441,39.528 18.422,39.545C17.446,40.389 16.221,40.892 14.933,40.979C13.1,41.097 11.266,40.764 9.592,40.008C6.459,38.754 3.699,36.874 0.938,34.972C0.643,34.755 0.407,34.468 0.252,34.137C0.097,33.805 0.028,33.44 0.052,33.075C0.012,32.364 0.001,31.669 0.001,30.76Z" fill="#FFFFFF"/>
<path d="M26.975,52.078C27.956,50.914 28.548,49.473 28.669,47.956C28.656,47.907 28.641,47.858 28.623,47.81C28.619,47.765 28.619,47.716 28.618,47.667C28.617,47.513 28.616,47.353 28.505,47.302C28.396,47.251 28.294,47.347 28.195,47.439C28.16,47.471 28.126,47.503 28.093,47.527C26.108,49.082 23.934,50.379 21.623,51.389C19.549,52.279 17.334,52.795 15.08,52.913C13.098,53.006 11.111,52.894 9.152,52.58C9.138,52.577 9.123,52.574 9.108,52.571C9.002,52.546 8.878,52.518 8.813,52.637C8.74,52.772 8.813,52.896 8.898,53.009C8.956,53.081 9.018,53.149 9.084,53.212C10.312,54.442 11.633,55.574 13.036,56.6C13.427,56.925 13.895,57.145 14.395,57.237C14.896,57.33 15.411,57.294 15.893,57.13C16.276,57.013 16.673,56.91 17.063,56.81C17.252,56.761 17.442,56.712 17.626,56.662C19.518,56.224 21.368,55.619 23.153,54.855C24.624,54.236 25.932,53.285 26.975,52.078Z" fill="#FFFFFF"/>
<path d="M15.266,36.129C13.458,36.12 11.681,35.654 10.101,34.774C7.611,33.375 5.368,31.577 3.462,29.451C2.485,28.412 1.576,27.317 0.695,26.199C0.617,26.109 0.56,26.002 0.53,25.886C0.5,25.771 0.496,25.65 0.52,25.533C0.805,23.644 1.297,21.792 1.988,20.011C2.059,19.839 2.14,19.671 2.231,19.509C2.241,19.49 2.25,19.469 2.26,19.447C2.299,19.359 2.341,19.264 2.445,19.277C2.542,19.29 2.554,19.375 2.566,19.457C2.57,19.485 2.574,19.513 2.581,19.537C2.767,20.169 2.965,20.796 3.196,21.417C4.034,23.712 5.264,25.844 6.832,27.717C8.433,29.601 10.294,31.247 12.359,32.606C13.934,33.654 15.577,34.597 17.276,35.429C17.297,35.44 17.321,35.449 17.346,35.459C17.425,35.49 17.509,35.522 17.513,35.604C17.518,35.69 17.413,35.733 17.321,35.77C17.299,35.779 17.278,35.787 17.259,35.796C16.622,36.031 15.946,36.144 15.266,36.129Z" fill="#FFFFFF"/>
<path d="M10.597,51.519C10.997,51.533 11.398,51.547 11.8,51.564C11.932,51.559 12.065,51.554 12.197,51.549C13.261,51.511 14.323,51.472 15.368,51.327C17.151,51.146 18.884,50.633 20.477,49.814C22.119,48.971 23.427,47.595 24.186,45.913C24.192,45.903 24.199,45.892 24.206,45.882C24.259,45.8 24.318,45.71 24.243,45.625C24.178,45.551 24.099,45.6 24.028,45.645C24.007,45.659 23.986,45.672 23.966,45.681C23.061,46.077 22.136,46.426 21.194,46.726C17.969,47.733 14.554,47.976 11.218,47.437C8.75,47.019 6.349,46.275 4.077,45.224C4.02,45.201 3.961,45.167 3.902,45.132C3.755,45.046 3.609,44.961 3.512,45.066C3.394,45.194 3.508,45.413 3.603,45.594C3.617,45.62 3.63,45.646 3.642,45.67C4.625,47.602 5.824,49.416 7.216,51.078C7.285,51.164 7.37,51.236 7.467,51.288C7.564,51.34 7.671,51.373 7.78,51.383C8.718,51.455 9.657,51.487 10.597,51.519Z" fill="#FFFFFF"/>
</svg>
