<svg width="56" height="26" viewBox="0 0 56 26" fill="none" xmlns="http://www.w3.org/2000/svg" xmlns:xlink="http://www.w3.org/1999/xlink">
<path d="M10.342,19.033L10.289,19.039C9.309,19.108 8.34,19.281 7.396,19.553C7.094,19.659 6.811,19.81 6.531,19.961L6.531,19.961C6.326,20.071 6.122,20.18 5.913,20.27C5.798,20.348 5.663,20.389 5.525,20.389C5.386,20.389 5.251,20.348 5.137,20.27C5.026,20.168 4.957,20.028 4.945,19.878C4.932,19.728 4.976,19.578 5.067,19.459C5.989,18.35 5.68,17.184 5.377,16.041L5.377,16.041C5.335,15.885 5.293,15.728 5.255,15.573C4.336,11.831 3.294,8.125 2.13,4.452C2.057,4.221 1.974,3.992 1.892,3.763C1.848,3.639 1.803,3.514 1.759,3.389C1.684,3.16 1.559,2.95 1.393,2.775C1.227,2.6 1.025,2.463 0.8,2.376C0.607,2.301 0.426,2.199 0.261,2.074C0.176,2.02 0.106,1.943 0.06,1.852C0.015,1.762 -0.006,1.66 0.001,1.559C0.008,1.458 0.043,1.36 0.101,1.277C0.159,1.193 0.238,1.127 0.331,1.085C0.794,0.856 1.298,0.719 1.814,0.68C2.276,0.573 2.742,0.478 3.207,0.383L3.207,0.383L3.207,0.383L3.207,0.383L3.207,0.383L3.207,0.383C3.816,0.258 4.425,0.134 5.028,-0.018C7.243,-0.576 8.825,0.393 10.086,2.064C11.154,3.498 11.54,5.234 11.569,7.271C11.599,9.308 10.462,10.836 8.207,11.444C7.772,11.558 7.564,11.696 7.713,12.191C7.87,12.692 8.002,13.2 8.134,13.708C8.36,14.575 8.585,15.441 8.934,16.27C9.238,17.026 9.787,17.66 10.492,18.07C10.724,18.203 10.946,18.337 10.892,18.668C10.842,18.975 10.574,19.006 10.342,19.033ZM5.765,5.283C6.104,6.607 6.522,7.91 7.016,9.184C7.024,9.204 7.033,9.227 7.043,9.251C7.091,9.375 7.151,9.531 7.287,9.511C7.411,9.492 7.424,9.374 7.436,9.264C7.44,9.229 7.444,9.194 7.451,9.164C7.665,8.38 7.764,7.569 7.742,6.757C7.823,5.966 7.656,5.169 7.264,4.478C6.873,3.786 6.276,3.233 5.557,2.895C5.448,2.821 5.295,2.722 5.186,2.821C5.078,2.919 5.121,3.071 5.161,3.209L5.161,3.211C5.249,3.509 5.335,3.807 5.421,4.106C5.534,4.498 5.647,4.89 5.765,5.283ZM50.992,14.549C52.279,14.402 53.583,14.572 54.79,15.044C56.021,15.582 56.135,16.73 55.052,17.516C54.205,18.045 53.26,18.397 52.273,18.549C51.153,18.811 50.013,18.902 48.874,18.993C48.183,19.048 47.491,19.104 46.804,19.197C45.551,19.331 44.317,19.607 43.126,20.018C42.814,20.122 42.523,20.279 42.265,20.483C42.082,20.641 41.88,20.829 41.949,21.081C42.018,21.333 42.27,21.412 42.512,21.467C43.483,21.628 44.476,21.607 45.44,21.407C47.749,21.061 50.063,20.769 52.495,20.636C52.402,20.754 52.312,20.868 52.224,20.979C51.91,21.374 51.625,21.733 51.343,22.119C51.304,22.164 51.254,22.197 51.197,22.216C51.141,22.235 51.08,22.239 51.022,22.228C49.872,22.172 48.729,22.27 47.585,22.368C46.397,22.469 45.21,22.57 44.016,22.5C43.277,22.478 42.548,22.336 41.855,22.08C40.802,21.649 40.653,20.695 41.519,19.939C42.249,19.391 43.094,19.015 43.991,18.841C45.323,18.466 46.685,18.369 48.049,18.271L48.049,18.271C48.412,18.245 48.775,18.219 49.138,18.188C50.508,18.102 51.865,17.865 53.183,17.481C53.353,17.431 53.518,17.367 53.677,17.288C53.73,17.26 53.787,17.233 53.844,17.206L53.844,17.206L53.844,17.206C54.12,17.075 54.405,16.941 54.364,16.552C54.315,16.082 53.895,15.904 53.489,15.79C52.525,15.591 51.529,15.608 50.572,15.84C47.423,16.377 44.316,17.104 41.223,17.828C40.358,18.031 39.494,18.233 38.631,18.431C36.62,18.891 34.615,19.377 32.609,19.864L32.609,19.864L32.609,19.864L32.608,19.864C30.675,20.333 28.74,20.802 26.799,21.249C23.659,21.976 20.509,22.628 17.335,23.172C16.87,23.253 16.405,23.337 15.939,23.421L15.939,23.421L15.938,23.421C14.397,23.7 12.852,23.98 11.288,24.117C10.291,24.249 9.278,24.16 8.321,23.855C6.971,23.37 6.744,22.188 7.826,21.229C8.6,20.592 9.513,20.146 10.492,19.929C13.369,19.162 16.247,18.406 19.154,17.778C20.48,17.471 21.8,17.204 23.135,16.977C23.367,16.937 23.609,16.883 23.506,16.512C22.811,14.037 22.19,11.544 21.57,9.052L21.285,7.909C21.091,7.123 20.787,6.369 20.381,5.669C20.206,5.312 19.946,5.005 19.624,4.774C19.518,4.715 19.427,4.632 19.358,4.533C19.289,4.434 19.243,4.32 19.224,4.2C19.174,3.839 19.446,3.567 19.748,3.706C20.63,4.113 21.491,3.932 22.359,3.75C22.429,3.735 22.5,3.72 22.571,3.706C22.613,3.697 22.656,3.686 22.698,3.674C22.881,3.625 23.068,3.575 23.248,3.755C23.334,3.845 23.427,3.773 23.513,3.706C23.53,3.692 23.548,3.678 23.565,3.666C24.677,2.91 25.76,3.073 26.843,3.745C28.668,4.873 29.573,6.583 29.958,8.63C30.205,9.937 30.131,11.285 29.741,12.556C29.276,14.109 28.292,14.885 26.685,14.861C26.146,14.851 26.072,15.073 26.146,15.484C26.192,15.702 26.255,15.917 26.334,16.126C26.345,16.171 26.366,16.213 26.394,16.25C26.422,16.287 26.457,16.318 26.497,16.341C26.537,16.364 26.581,16.379 26.627,16.384C26.673,16.39 26.72,16.386 26.764,16.374C27.929,16.239 29.084,16.045 30.237,15.851L30.237,15.851L30.237,15.851L30.237,15.851L30.238,15.851L30.238,15.851C30.739,15.766 31.241,15.682 31.743,15.602L35.15,15.048C37.093,14.737 39.012,14.312 40.92,13.817C43.109,13.324 45.271,12.718 47.398,12.003C49.526,11.265 51.555,10.268 53.44,9.036C53.864,8.769 54.225,8.413 54.498,7.993C54.57,7.895 54.611,7.777 54.617,7.656C54.622,7.534 54.591,7.414 54.528,7.31C54.46,7.209 54.363,7.131 54.25,7.086C54.137,7.041 54.013,7.031 53.895,7.058C53.452,7.132 53.03,7.3 52.659,7.553L52.415,7.69C51.385,8.273 50.331,8.869 49.163,9.006C47.902,9.155 46.606,9.164 45.825,7.943C44.718,6.168 44.96,4.314 46.695,3.033C47.181,2.645 47.743,2.364 48.344,2.206C48.945,2.049 49.573,2.019 50.186,2.118C50.62,2.174 51.039,2.315 51.418,2.533C51.798,2.751 52.13,3.042 52.397,3.389C52.792,3.928 52.713,4.185 52.1,4.423C51.866,4.512 51.631,4.602 51.395,4.691C50.616,4.988 49.833,5.286 49.074,5.59C48.574,5.792 48.485,6.163 48.851,6.578C49.346,7.137 49.998,7.053 50.626,6.934C51.226,6.82 51.767,6.555 52.308,6.291C52.584,6.156 52.86,6.021 53.143,5.906C53.41,5.771 53.704,5.698 54.003,5.693C54.303,5.688 54.599,5.751 54.87,5.877C55.142,6.003 55.381,6.189 55.57,6.421C55.759,6.653 55.893,6.925 55.962,7.216C56.015,7.46 56.013,7.712 55.954,7.955C55.896,8.197 55.784,8.423 55.625,8.616C55.039,9.448 54.261,10.127 53.356,10.593C51.305,11.747 49.12,12.642 46.849,13.259C43.274,14.356 39.635,15.231 35.971,16.032L35.552,16.126L35.552,16.126C33.116,16.669 30.681,17.212 28.203,17.516C27.842,17.56 27.768,17.63 28.064,17.916C28.361,18.203 28.173,18.356 27.867,18.411C26.512,18.649 25.21,19.122 24.02,19.81C23.932,19.88 23.825,19.922 23.713,19.931C23.602,19.94 23.49,19.915 23.392,19.86C23.213,19.735 23.272,19.558 23.327,19.39C23.338,19.358 23.349,19.327 23.357,19.296L23.366,19.264L23.366,19.264C23.506,18.769 23.577,18.52 23.486,18.422C23.394,18.324 23.138,18.379 22.623,18.49L22.556,18.505C21.736,18.683 20.913,18.849 20.09,19.015C19.135,19.208 18.181,19.4 17.231,19.612C14.849,20.108 12.505,20.769 10.215,21.59C9.913,21.712 9.624,21.861 9.349,22.035C9.211,22.114 9.018,22.233 9.087,22.431C9.126,22.508 9.187,22.572 9.261,22.616C9.336,22.66 9.421,22.681 9.508,22.678C10.264,22.745 11.024,22.73 11.777,22.633C13.191,22.48 14.6,22.292 16.01,22.05C17.124,21.862 18.229,21.615 19.334,21.368L19.334,21.368C19.798,21.264 20.262,21.16 20.727,21.061C22.81,20.614 24.887,20.146 26.965,19.677L26.965,19.677C27.758,19.499 28.552,19.32 29.345,19.143L38.522,17.1C39.775,16.82 41.028,16.541 42.281,16.263L42.282,16.263L42.283,16.262L42.284,16.262L42.285,16.262C44.103,15.858 45.922,15.453 47.739,15.044C48.808,14.793 49.896,14.627 50.992,14.549ZM48.482,3.699C48.291,3.831 48.147,4.021 48.07,4.24C47.912,4.561 48.05,4.66 48.347,4.635C48.769,4.547 49.17,4.379 49.529,4.141C49.55,4.129 49.574,4.117 49.598,4.105C49.731,4.038 49.879,3.963 49.845,3.8C49.816,3.655 49.683,3.616 49.557,3.579C49.514,3.566 49.472,3.554 49.435,3.538C49.337,3.508 49.235,3.497 49.133,3.503C48.901,3.498 48.673,3.567 48.482,3.699ZM24.158,5.768L24.158,5.837C24.147,7.802 24.553,9.747 25.35,11.543C25.559,12.123 25.921,12.636 26.398,13.026C26.774,13.303 27.041,13.214 27.11,12.72C27.165,12.443 27.165,12.141 27.165,11.948C27.069,10.617 26.801,9.304 26.368,8.042C26.114,7.133 25.704,6.275 25.157,5.505L25.137,5.479C24.967,5.255 24.759,4.98 24.45,5.08C24.153,5.176 24.156,5.491 24.158,5.768ZM13.102,7.627C13.199,7.636 13.295,7.607 13.371,7.547C13.447,7.488 13.498,7.401 13.513,7.305C13.568,7.126 13.606,6.943 13.626,6.757C13.645,6.549 13.725,6.351 13.856,6.189C13.987,6.027 14.164,5.908 14.363,5.847C14.55,5.777 14.752,5.762 14.947,5.804C15.141,5.846 15.32,5.944 15.461,6.084C15.833,6.447 16.086,6.914 16.188,7.424C16.404,8.271 16.395,8.275 15.615,8.626L15.604,8.631C15.494,8.678 15.386,8.733 15.283,8.794C13.844,9.624 13.463,10.984 13.414,12.512C13.407,12.977 13.45,13.441 13.542,13.897C13.598,14.287 13.686,14.672 13.804,15.049C14.018,15.891 14.55,16.617 15.288,17.076C15.508,17.24 15.761,17.355 16.029,17.413C16.297,17.472 16.575,17.472 16.843,17.415C17.112,17.358 17.365,17.245 17.586,17.082C17.807,16.92 17.991,16.712 18.126,16.473C18.289,16.23 18.408,16.072 18.517,16.507C18.573,16.743 18.729,16.686 18.898,16.625L18.922,16.616C19.827,16.198 20.808,15.966 21.805,15.934C21.865,15.938 21.926,15.925 21.979,15.895C22.031,15.865 22.074,15.82 22.101,15.766C22.133,15.704 22.142,15.633 22.125,15.566C22.109,15.499 22.069,15.44 22.012,15.4C21.821,15.253 21.646,15.087 21.488,14.905C20.262,13.114 19.473,11.059 19.184,8.908C19.072,7.449 18.669,6.029 17.997,4.729C17.83,4.376 17.592,4.062 17.296,3.806C17.001,3.551 16.655,3.36 16.282,3.246C15.788,3.11 15.265,3.118 14.776,3.269C14.286,3.42 13.85,3.707 13.518,4.096C12.697,4.962 12.529,6.074 12.608,7.207C12.613,7.488 12.875,7.577 13.102,7.627ZM17.058,10.539C17.341,10.949 17.512,11.427 17.552,11.924C17.571,12.041 17.591,12.159 17.611,12.276C17.726,12.949 17.841,13.621 17.627,14.307C17.537,14.579 17.439,14.851 17.132,14.92C16.825,14.989 16.638,14.727 16.489,14.505C16.128,13.823 15.957,13.056 15.995,12.285C15.973,11.73 16.048,11.176 16.217,10.648C16.435,10.168 16.741,10.124 17.053,10.515L17.058,10.539ZM30.691,6.15C30.552,6.203 30.397,6.201 30.26,6.143C29.929,6.029 29.894,5.718 29.934,5.416C30.009,4.955 30.225,4.528 30.552,4.194C30.88,3.86 31.303,3.636 31.763,3.552C32.093,3.462 32.435,3.422 32.777,3.434C33.644,3.426 34.486,3.724 35.157,4.274C35.827,4.824 36.283,5.593 36.445,6.445C36.718,7.739 37.168,8.99 37.781,10.163C37.966,10.574 38.295,10.902 38.705,11.088C38.873,11.157 39.081,11.266 39.031,11.488C38.982,11.711 38.755,11.711 38.567,11.711C37.581,11.845 36.61,12.067 35.664,12.373C35.641,12.383 35.615,12.395 35.59,12.408C35.475,12.463 35.349,12.524 35.288,12.428C35.027,12 34.834,12.184 34.64,12.369L34.64,12.369C34.596,12.41 34.552,12.452 34.507,12.487C33.133,13.585 31.303,13.174 30.774,11.607C30.559,11.032 30.481,10.415 30.545,9.805C30.609,9.195 30.815,8.608 31.145,8.091C31.381,7.739 31.704,7.454 32.082,7.262C32.461,7.071 32.882,6.98 33.306,6.999C33.672,6.999 33.84,6.944 33.731,6.504C33.688,6.17 33.547,5.855 33.326,5.6C33.106,5.345 32.815,5.161 32.49,5.07C31.817,4.907 31.343,5.307 31.006,5.856C30.943,5.991 30.83,6.096 30.691,6.15ZM34.334,10.751C34.496,9.954 34.344,9.125 33.909,8.437L33.909,8.447C33.874,8.356 33.81,8.28 33.727,8.229C33.643,8.179 33.546,8.158 33.449,8.17C33.351,8.202 33.265,8.265 33.204,8.348C33.143,8.431 33.109,8.532 33.108,8.635C33.078,8.858 33.044,9.075 33.009,9.283C33.023,9.391 33.034,9.5 33.045,9.608L33.045,9.608L33.045,9.608C33.093,10.09 33.14,10.559 33.503,10.934C33.84,11.3 34.23,11.246 34.334,10.751ZM36.876,4.477C37.57,4.929 38.167,5.516 38.631,6.202L41.331,10.292C41.707,10.864 41.893,11.149 41.886,11.428C41.879,11.703 41.684,11.974 41.296,12.512C41.252,12.564 41.216,12.623 41.187,12.685C41.034,13.061 41.187,13.273 41.771,13.278C41.856,13.258 41.944,13.237 42.036,13.215L42.036,13.215C42.476,13.112 42.985,12.992 43.496,12.828C43.783,12.734 43.941,12.472 43.59,12.26C43.061,11.948 43.096,11.478 43.165,10.994C43.216,10.581 43.263,10.167 43.309,9.755C43.413,8.839 43.516,7.928 43.66,7.038C43.708,6.761 43.738,6.478 43.768,6.194L43.768,6.194C43.866,5.255 43.966,4.31 44.733,3.577C44.79,3.521 44.827,3.448 44.837,3.37C44.848,3.291 44.832,3.211 44.792,3.142C44.75,3.064 44.68,3.006 44.596,2.98C44.512,2.953 44.421,2.96 44.342,2.998C44.071,3.095 43.785,3.141 43.499,3.186C42.995,3.266 42.492,3.346 42.072,3.705C42.013,3.76 41.964,3.77 41.909,3.705C41.571,3.258 41.142,3.397 40.74,3.527L40.693,3.542C39.983,3.752 39.232,3.781 38.507,3.626C38.052,3.537 37.586,3.508 37.123,3.542C36.836,3.542 36.549,3.597 36.46,3.918C36.388,4.181 36.572,4.291 36.756,4.401C36.797,4.426 36.838,4.451 36.876,4.477ZM41.589,4.28L41.589,4.28C41.638,4.241 41.686,4.203 41.736,4.165C41.773,4.138 41.803,4.101 41.832,4.067C41.912,3.972 41.981,3.891 42.137,4.047C42.216,4.126 42.339,4.156 42.455,4.185C42.65,4.234 42.827,4.278 42.75,4.541C42.663,5.021 42.62,5.507 42.621,5.995C42.621,6.148 42.592,6.326 42.428,6.385C42.299,6.432 42.229,6.333 42.163,6.241C42.146,6.217 42.129,6.193 42.112,6.173C41.972,6.01 41.836,5.844 41.7,5.678C41.543,5.485 41.386,5.293 41.222,5.105C41.014,4.867 41.088,4.66 41.365,4.502L41.326,4.477C41.418,4.417 41.503,4.348 41.589,4.28ZM53.446,21.061C53.592,20.915 53.788,20.83 53.994,20.823C54.096,20.819 54.198,20.837 54.293,20.876C54.388,20.915 54.474,20.973 54.545,21.048C54.615,21.122 54.669,21.211 54.703,21.308C54.737,21.404 54.749,21.507 54.74,21.61C54.752,21.712 54.74,21.816 54.707,21.913C54.673,22.01 54.618,22.099 54.547,22.173C54.475,22.246 54.387,22.303 54.291,22.339C54.195,22.375 54.091,22.39 53.989,22.381C53.887,22.383 53.785,22.364 53.69,22.326C53.596,22.288 53.509,22.232 53.437,22.16C53.365,22.088 53.307,22.002 53.269,21.907C53.23,21.813 53.211,21.712 53.212,21.61C53.217,21.403 53.301,21.207 53.446,21.061Z" clip-rule="evenodd" fill-rule="evenodd" fill="#FFFFFF"/>
</svg>
