<svg width="88" height="88" viewBox="0 0 88 88" fill="none" xmlns="http://www.w3.org/2000/svg" xmlns:xlink="http://www.w3.org/1999/xlink">
<path d="M12.518,2.147C9.654,-0.717 5.011,-0.717 2.147,2.147C-0.717,5.011 -0.717,9.654 2.147,12.518L33.628,43.999L2.147,75.48C-0.717,78.344 -0.717,82.987 2.147,85.851C5.011,88.715 9.654,88.715 12.518,85.851L43.999,54.37L75.48,85.851C78.344,88.715 82.987,88.715 85.851,85.851C88.715,82.987 88.715,78.344 85.851,75.48L54.37,43.999L85.851,12.518C88.715,9.654 88.715,5.011 85.851,2.147C82.987,-0.717 78.344,-0.717 75.48,2.147L43.999,33.628L12.518,2.147Z" clip-rule="evenodd" fill-rule="evenodd" fill="#FFFFFF"/>
</svg>
