<svg width="72" height="72" viewBox="0 0 72 72" fill="none" xmlns="http://www.w3.org/2000/svg" xmlns:xlink="http://www.w3.org/1999/xlink">
<path d="M65.444,15.265C69.488,21.003 71.767,27.799 72,34.815L71.987,37.152C71.7,46.294 67.944,54.983 61.483,61.455C55.021,67.928 46.338,71.698 37.197,72L34.809,72C27.792,71.766 20.998,69.486 15.26,65.441C9.523,61.396 5.093,55.762 2.515,49.232C-0.062,42.702 -0.675,35.562 0.752,28.688C2.18,21.815 5.585,15.508 10.549,10.545C15.514,5.581 21.82,2.177 28.694,0.751C35.568,-0.675 42.708,-0.061 49.238,2.518C55.767,5.096 61.4,9.527 65.444,15.265ZM58.534,37.182C60.732,36.91 62.76,35.861 64.25,34.224C64.29,34.199 64.323,34.166 64.348,34.127C64.373,34.088 64.389,34.043 64.395,33.997C64.401,33.951 64.397,33.905 64.383,33.86C64.369,33.816 64.345,33.775 64.314,33.741C63.891,33.166 63.467,32.584 63.044,32.003L63.043,32.002C62.832,31.711 62.62,31.42 62.408,31.131C62.173,30.807 62.167,30.807 61.951,31.131C61.229,32.186 60.16,32.955 58.93,33.303C57.699,33.651 56.386,33.557 55.218,33.036C55.204,33.03 55.188,33.025 55.171,33.02L55.171,33.02C55.101,32.997 55.021,32.972 55.021,32.858C55.536,32.909 56.055,32.909 56.571,32.858C58.067,32.703 59.447,31.981 60.428,30.84C61.408,29.7 61.915,28.227 61.844,26.725C61.774,25.222 61.131,23.804 60.047,22.76C58.964,21.717 57.522,21.128 56.018,21.113C54.406,21.088 52.837,21.632 51.587,22.65C50.336,23.668 49.485,25.094 49.183,26.678L49.012,27.332C48.971,27.313 48.964,27.319 48.961,27.322C48.958,27.326 48.958,27.326 48.929,27.294C48.906,27.268 48.884,27.241 48.863,27.215C48.833,27.179 48.804,27.143 48.77,27.11C48.214,26.428 47.512,25.88 46.717,25.506C45.921,25.131 45.052,24.939 44.172,24.944C43.293,24.949 42.425,25.15 41.634,25.534C40.842,25.917 40.147,26.473 39.598,27.16C39.483,27.336 39.312,27.468 39.112,27.534C38.912,27.6 38.696,27.596 38.499,27.523C38.048,27.396 37.583,27.325 37.114,27.313C35.625,27.256 34.171,27.773 33.051,28.756C31.93,29.739 31.23,31.114 31.093,32.598C31.067,32.82 31.029,32.89 30.813,32.744C28.999,31.508 26.8,30.969 24.62,31.226C22.906,31.412 21.278,32.071 19.919,33.131C19.761,33.258 19.741,33.347 19.869,33.513C20.186,33.951 20.504,34.391 20.821,34.831L20.824,34.834C21.14,35.273 21.457,35.711 21.774,36.149C21.882,36.301 21.958,36.339 22.124,36.206C22.726,35.699 23.433,35.332 24.194,35.132C24.956,34.932 25.752,34.904 26.525,35.05C27.079,35.131 27.614,35.308 28.107,35.571C28.064,35.597 28.026,35.587 27.992,35.578C27.977,35.574 27.962,35.571 27.948,35.571C26.808,35.419 25.648,35.604 24.611,36.104C23.575,36.604 22.708,37.397 22.117,38.385L22.091,38.425C22.01,38.551 21.97,38.613 21.93,38.613C21.889,38.613 21.849,38.551 21.768,38.425L21.742,38.385C20.027,35.653 17.607,34.211 14.31,34.51C13.461,34.565 12.633,34.797 11.879,35.192C11.125,35.587 10.462,36.136 9.934,36.803C9.01,37.967 8.562,39.439 8.68,40.92C8.798,42.402 9.473,43.784 10.569,44.788C11.642,45.756 13.031,46.3 14.477,46.318C15.922,46.335 17.324,45.825 18.42,44.883C18.505,44.773 18.627,44.698 18.763,44.673L18.516,45.099C17.845,46.139 16.843,46.922 15.671,47.321C14.5,47.72 13.228,47.712 12.062,47.297C11.899,47.242 11.818,47.215 11.778,47.245C11.738,47.273 11.738,47.358 11.738,47.525L11.738,50.79C11.738,51.025 11.801,51.14 12.055,51.19C13.005,51.376 13.979,51.411 14.939,51.292C18.554,50.841 21.025,48.872 22.486,45.575L22.5,45.543C22.564,45.401 22.596,45.33 22.639,45.322C22.683,45.315 22.738,45.37 22.848,45.48L22.867,45.499C23.491,46.165 24.267,46.672 25.128,46.977C25.989,47.282 26.91,47.376 27.815,47.252C29.087,47.117 30.297,46.629 31.307,45.843C32.317,45.057 33.087,44.006 33.532,42.806C33.555,42.69 33.621,42.588 33.716,42.52C33.832,42.917 33.955,43.306 34.078,43.692L34.078,43.692L34.078,43.692C34.171,43.984 34.264,44.275 34.351,44.565C34.427,44.807 34.529,44.845 34.764,44.768C35.857,44.4 36.956,44.038 38.061,43.695C38.277,43.619 38.366,43.53 38.277,43.276C37.68,41.472 37.095,39.661 36.511,37.851C36.311,37.205 36.104,36.559 35.896,35.912L35.896,35.912L35.896,35.911L35.895,35.91C35.674,35.222 35.453,34.533 35.241,33.843C35.16,33.625 35.123,33.394 35.132,33.162C35.141,32.93 35.196,32.702 35.293,32.491C35.39,32.28 35.527,32.09 35.698,31.933C35.868,31.775 36.068,31.653 36.285,31.572C36.503,31.492 36.735,31.455 36.967,31.464C37.199,31.473 37.426,31.527 37.637,31.624C37.848,31.721 38.038,31.859 38.196,32.029C38.353,32.199 38.476,32.399 38.556,32.617C38.827,33.395 39.078,34.18 39.328,34.962L39.328,34.962L39.328,34.963C39.447,35.336 39.566,35.708 39.687,36.079C39.9,36.735 40.116,37.39 40.331,38.045L40.331,38.047C40.782,39.419 41.233,40.789 41.662,42.164C41.745,42.425 41.834,42.482 42.101,42.393C43.187,42.024 44.28,41.675 45.372,41.332C45.601,41.256 45.69,41.173 45.601,40.913C45.074,39.344 44.565,37.775 44.057,36.2C43.803,35.412 43.547,34.626 43.292,33.84C43.036,33.054 42.78,32.268 42.526,31.48C42.441,31.243 42.406,30.991 42.425,30.74C42.444,30.489 42.516,30.244 42.636,30.023C42.756,29.802 42.921,29.608 43.121,29.455C43.322,29.302 43.552,29.194 43.797,29.136C44.248,29.024 44.725,29.095 45.125,29.333C45.525,29.57 45.814,29.956 45.931,30.406C46.956,33.532 47.97,36.657 48.974,39.782C49.056,40.023 49.152,40.112 49.418,40.023C50.524,39.649 51.629,39.293 52.741,38.937C52.925,38.874 53.001,38.785 52.925,38.575C52.717,38.042 52.539,37.484 52.36,36.923L52.36,36.923L52.29,36.701L51.915,35.533C52.049,35.55 52.173,35.611 52.27,35.704C54.115,36.929 56.337,37.453 58.534,37.182ZM26.34,39.351C26.612,39.24 26.904,39.183 27.199,39.185C27.639,39.19 28.067,39.325 28.43,39.573C28.794,39.821 29.076,40.171 29.24,40.579C29.405,40.987 29.446,41.434 29.357,41.865C29.268,42.296 29.054,42.691 28.741,43C28.428,43.309 28.031,43.519 27.599,43.603C27.167,43.687 26.72,43.641 26.314,43.472C25.908,43.302 25.562,43.017 25.318,42.651C25.074,42.284 24.944,41.854 24.944,41.415C24.945,41.12 25.005,40.829 25.119,40.557C25.234,40.286 25.4,40.04 25.61,39.833C25.819,39.626 26.067,39.462 26.34,39.351ZM14.609,38.226C14.169,38.218 13.737,38.342 13.368,38.58C12.998,38.819 12.708,39.162 12.535,39.566C12.361,39.97 12.311,40.417 12.392,40.849C12.472,41.281 12.68,41.68 12.988,41.994C13.295,42.308 13.69,42.524 14.12,42.613C14.551,42.702 14.998,42.662 15.406,42.496C15.813,42.33 16.162,42.047 16.408,41.683C16.654,41.318 16.786,40.889 16.788,40.449C16.791,39.866 16.564,39.305 16.156,38.889C15.748,38.472 15.192,38.234 14.609,38.226ZM57.959,26.148C58.069,26.419 58.124,26.709 58.121,27.002C58.12,27.438 57.99,27.864 57.749,28.227C57.505,28.593 57.158,28.879 56.751,29.048C56.345,29.217 55.897,29.262 55.465,29.176C55.034,29.091 54.637,28.879 54.326,28.567C54.014,28.256 53.802,27.859 53.717,27.428C53.631,26.996 53.676,26.548 53.845,26.142C54.014,25.735 54.3,25.388 54.666,25.144C55.033,24.9 55.464,24.771 55.904,24.772C56.197,24.77 56.487,24.827 56.757,24.939C57.028,25.05 57.273,25.215 57.48,25.422C57.686,25.63 57.849,25.876 57.959,26.148Z" clip-rule="evenodd" fill-rule="evenodd" fill="#E8118C"/>
</svg>
