<svg width="40" height="8" viewBox="0 0 40 8" fill="none" xmlns="http://www.w3.org/2000/svg" xmlns:xlink="http://www.w3.org/1999/xlink">
<path d="M21.574,7.396C23.649,7.825 25.718,6.814 26.385,5.008C26.326,5.007 26.267,5.004 26.21,5.001C25.755,4.979 25.356,4.96 24.962,5.458C24.189,6.517 23.024,6.75 21.785,6.48C21.103,6.332 20.488,5.963 20.036,5.43C19.584,4.897 19.321,4.229 19.287,3.532C19.249,2.831 19.441,2.137 19.834,1.555C20.227,0.973 20.799,0.535 21.463,0.308C22.128,0.081 22.848,0.077 23.515,0.297C24.181,0.517 24.758,0.948 25.157,1.525C25.21,1.616 25.288,1.689 25.383,1.735C25.477,1.782 25.583,1.799 25.687,1.785L26.407,1.785C25.978,0.228 23.94,-0.989 22.172,-0.783C21.17,-0.706 20.229,-0.271 19.521,0.442C18.813,1.156 18.386,2.1 18.318,3.103C18.256,4.09 18.55,5.066 19.148,5.855C19.745,6.643 20.606,7.19 21.574,7.396ZM39.493,-0.275C39.493,-0.643 39.298,-0.625 39.096,-0.606C39.051,-0.602 39.006,-0.597 38.963,-0.597C38.918,-0.597 38.871,-0.602 38.824,-0.607C38.625,-0.628 38.434,-0.649 38.434,-0.28L38.434,0.779C38.101,0.35 37.685,-0.008 37.212,-0.274C36.739,-0.54 36.217,-0.709 35.677,-0.771C35.138,-0.832 34.592,-0.785 34.07,-0.633C33.549,-0.481 33.064,-0.225 32.643,0.117C32.215,0.463 31.861,0.891 31.599,1.375C31.338,1.859 31.175,2.39 31.12,2.937C31.065,3.484 31.118,4.037 31.278,4.563C31.438,5.09 31.7,5.579 32.05,6.004C32.406,6.434 32.848,6.787 33.347,7.039C33.846,7.292 34.392,7.438 34.951,7.47C35.615,7.54 36.286,7.434 36.897,7.164C37.509,6.894 38.038,6.468 38.434,5.93L38.434,6.597C38.434,7.343 38.434,7.343 39.14,7.308L39.186,7.306C39.434,7.306 39.466,7.195 39.466,6.988C39.479,5.477 39.482,3.965 39.485,2.452L39.485,2.451L39.485,2.451L39.485,2.45L39.485,2.449L39.485,2.448L39.485,2.447C39.487,1.54 39.489,0.633 39.493,-0.275ZM35.3,6.565C34.876,6.575 34.454,6.499 34.061,6.34C33.668,6.181 33.311,5.943 33.014,5.641C32.716,5.339 32.483,4.979 32.33,4.583C32.177,4.188 32.107,3.765 32.124,3.341C32.114,2.91 32.193,2.482 32.355,2.082C32.518,1.683 32.761,1.322 33.069,1.02C33.378,0.719 33.745,0.484 34.148,0.331C34.55,0.177 34.98,0.108 35.411,0.128C36.256,0.151 37.057,0.508 37.64,1.12C38.223,1.731 38.541,2.549 38.524,3.394C38.523,3.815 38.439,4.231 38.276,4.619C38.113,5.007 37.875,5.358 37.575,5.653C37.275,5.948 36.919,6.181 36.529,6.337C36.138,6.494 35.721,6.571 35.3,6.565ZM8.361,-0.264C8.361,-0.652 8.159,-0.628 7.958,-0.604C7.884,-0.595 7.81,-0.586 7.747,-0.597C7.508,-0.64 7.281,-0.597 7.323,-0.237C7.35,-0.006 7.343,0.175 7.334,0.385L7.334,0.385L7.334,0.385L7.334,0.385C7.328,0.501 7.323,0.626 7.323,0.774C6.972,0.329 6.533,-0.038 6.034,-0.305C5.534,-0.572 4.985,-0.732 4.42,-0.777C3.856,-0.822 3.288,-0.749 2.753,-0.565C2.218,-0.38 1.726,-0.086 1.31,0.297C0.525,1.047 0.058,2.068 0.005,3.152C-0.048,4.235 0.316,5.298 1.024,6.12C1.397,6.537 1.852,6.874 2.36,7.109C2.868,7.345 3.418,7.475 3.978,7.491C4.622,7.535 5.267,7.415 5.852,7.142C6.437,6.869 6.943,6.452 7.323,5.93L7.323,6.988C7.287,7.374 7.496,7.349 7.689,7.326C7.747,7.319 7.804,7.312 7.852,7.317L7.9,7.322C8.101,7.345 8.35,7.374 8.35,6.972C8.345,4.548 8.35,2.145 8.361,-0.264ZM4.2,6.57C3.775,6.582 3.351,6.506 2.956,6.347C2.562,6.188 2.204,5.95 1.906,5.646C1.608,5.342 1.376,4.98 1.224,4.583C1.072,4.185 1.004,3.761 1.024,3.336C1.013,2.909 1.089,2.484 1.248,2.088C1.407,1.692 1.645,1.332 1.948,1.032C2.251,0.731 2.612,0.495 3.009,0.338C3.406,0.182 3.831,0.109 4.258,0.123C4.682,0.126 5.102,0.214 5.492,0.38C5.882,0.547 6.235,0.79 6.53,1.094C6.826,1.399 7.058,1.759 7.213,2.153C7.368,2.548 7.443,2.97 7.434,3.394C7.434,3.816 7.35,4.234 7.187,4.623C7.024,5.012 6.785,5.365 6.483,5.661C6.182,5.956 5.825,6.189 5.433,6.345C5.041,6.501 4.622,6.578 4.2,6.57ZM17.519,1.779L16.815,1.779C16.698,1.793 16.58,1.77 16.477,1.714C16.374,1.658 16.29,1.572 16.238,1.467C15.909,0.961 15.436,0.567 14.88,0.334C14.323,0.102 13.71,0.043 13.12,0.165C12.512,0.237 11.939,0.489 11.477,0.891C11.014,1.292 10.683,1.823 10.526,2.414C10.307,3.147 10.355,3.934 10.662,4.634C10.968,5.335 11.512,5.905 12.199,6.242C12.885,6.6 13.678,6.696 14.429,6.511C15.181,6.325 15.839,5.872 16.28,5.236C16.502,4.934 16.598,4.913 17.45,5.003C16.973,6.496 15.226,7.65 13.278,7.486C12.276,7.424 11.33,7 10.617,6.292C9.904,5.585 9.472,4.642 9.403,3.64C9.334,2.637 9.631,1.644 10.24,0.845C10.849,0.046 11.727,-0.504 12.712,-0.703C14.734,-1.132 16.868,-0.074 17.519,1.779ZM29.388,-0.43C29.052,-0.233 28.77,0.044 28.566,0.377C28.552,0.197 28.552,0.016 28.566,-0.163C28.631,-0.579 28.421,-0.58 28.156,-0.58C28.117,-0.58 28.077,-0.58 28.037,-0.582L28.019,-0.582C27.712,-0.593 27.508,-0.599 27.508,-0.153C27.508,0.632 27.511,1.417 27.515,2.203C27.522,3.776 27.529,5.35 27.508,6.925C27.508,7.336 27.662,7.335 27.905,7.332C27.947,7.331 27.991,7.331 28.037,7.332L28.055,7.333C28.363,7.343 28.566,7.35 28.566,6.909L28.566,2.674C28.521,2.111 28.696,1.552 29.055,1.114C29.413,0.677 29.927,0.396 30.488,0.329C30.716,0.281 30.8,0.207 30.8,-0.036C30.782,-0.195 30.782,-0.354 30.8,-0.513C30.827,-0.756 30.721,-0.756 30.493,-0.756C30.104,-0.74 29.724,-0.628 29.388,-0.43Z" clip-rule="evenodd" fill-rule="evenodd" fill="#FFFFFF"/>
</svg>
