<svg width="72" height="38" viewBox="0 0 72 38" fill="none" xmlns="http://www.w3.org/2000/svg" xmlns:xlink="http://www.w3.org/1999/xlink">
<path d="M26.952,18.655L27.133,18.383C27.171,18.462 27.187,18.55 27.178,18.638L27.178,24.829C27.178,24.997 27.205,25.024 27.372,25.024L29.746,25.024C29.904,25.024 29.984,25.024 30.024,24.984C30.064,24.944 30.064,24.863 30.064,24.701L30.064,13.134C30.056,13.008 30.037,12.978 29.916,12.978L27.618,12.978C27.543,12.979 27.482,12.977 27.432,12.976C27.314,12.973 27.253,12.972 27.206,12.997C27.155,13.023 27.12,13.079 27.047,13.194C27.022,13.234 26.992,13.281 26.956,13.337C26.03,14.765 25.104,16.193 24.177,17.621C24.062,17.793 24.046,17.793 23.929,17.621L23.898,17.573L22.487,15.402C21.998,14.651 21.51,13.901 21.025,13.148C20.995,13.091 20.949,13.045 20.892,13.014C20.836,12.984 20.772,12.97 20.708,12.975L18.371,12.975C18.039,12.975 18.039,12.979 18.041,13.229L18.042,13.304L18.042,24.874C18.05,25 18.067,25.03 18.19,25.03L20.587,25.03C20.763,25.03 20.844,25.03 20.882,24.989C20.914,24.954 20.914,24.889 20.913,24.767L20.913,24.697L20.913,18.603C20.904,18.523 20.91,18.441 20.93,18.363C20.986,18.406 21.031,18.461 21.062,18.523L21.33,18.933C21.86,19.747 22.391,20.561 22.917,21.38C22.949,21.439 22.997,21.488 23.056,21.52C23.115,21.552 23.182,21.566 23.25,21.561C23.423,21.561 23.596,21.56 23.77,21.559C24.116,21.556 24.462,21.553 24.808,21.561C24.891,21.569 24.974,21.551 25.047,21.511C25.12,21.471 25.179,21.409 25.217,21.335C25.723,20.535 26.243,19.739 26.765,18.941L26.952,18.655Z" fill="#000000"/>
<path d="M50.978,19.98C50.999,19.906 51.005,19.828 50.996,19.752L50.996,13.306C50.996,13.14 50.996,13.057 51.037,13.016C51.079,12.975 51.161,12.975 51.325,12.975L53.759,12.975C53.777,12.973 53.796,12.975 53.813,12.982C53.83,12.988 53.845,12.998 53.857,13.011C53.87,13.024 53.879,13.04 53.885,13.057C53.891,13.075 53.892,13.093 53.89,13.111L53.89,24.716C53.89,24.869 53.89,24.945 53.852,24.982C53.814,25.02 53.739,25.02 53.59,25.02L51.233,25.02C51.163,25.025 51.093,25.011 51.031,24.979C50.968,24.948 50.915,24.9 50.877,24.841C49.598,23.059 48.315,21.279 47.029,19.501C46.717,19.071 46.406,18.639 46.096,18.206L45.932,17.989C45.905,18.071 45.896,18.157 45.905,18.243L45.905,24.689C45.905,25.016 45.905,25.016 45.568,25.016L43.179,25.016C43.04,25.016 43.021,24.987 43.011,24.854L43.011,13.313C43.011,13.291 43.011,13.271 43.011,13.251C43.01,13.121 43.01,13.052 43.044,13.016C43.083,12.974 43.165,12.974 43.342,12.975L45.652,12.975C45.726,12.97 45.8,12.986 45.866,13.02C45.932,13.054 45.987,13.106 46.026,13.169C47.022,14.555 48.022,15.941 49.027,17.329C49.631,18.165 50.235,19.001 50.84,19.838C50.848,19.849 50.855,19.86 50.862,19.872C50.887,19.916 50.914,19.961 50.978,19.98Z" fill="#000000"/>
<path d="M41.313,12.976L31.595,12.98C31.47,12.99 31.451,13.01 31.441,13.13L31.441,15.58C31.441,15.727 31.441,15.8 31.477,15.836C31.514,15.872 31.586,15.872 31.731,15.872L34.966,15.872C35.067,15.869 35.104,15.921 35.104,16.017L35.104,24.773C35.104,25.018 35.114,25.018 35.342,25.018L37.659,25.018C37.695,25.018 37.727,25.018 37.756,25.019C37.986,25.021 38,25.022 38,24.675L38,16.069C38,15.89 38.012,15.874 38.195,15.874L41.408,15.874C41.619,15.874 41.632,15.863 41.632,15.656L41.632,13.3C41.632,13.137 41.632,13.057 41.592,13.016C41.552,12.976 41.472,12.976 41.313,12.976Z" fill="#000000"/>
<path d="M34.064,36.987C34.692,37.009 35.304,37.03 35.848,37.01C37.227,37.024 38.485,36.975 39.735,36.915C40.456,36.882 41.18,36.831 41.891,36.777C42.602,36.722 43.311,36.644 44.02,36.564C44.956,36.458 45.888,36.333 46.817,36.189C47.969,36.006 49.117,35.791 50.258,35.546C52.13,35.145 53.979,34.645 55.799,34.048C58.078,33.308 60.287,32.37 62.403,31.244C63.444,30.685 64.45,30.064 65.417,29.384C66.713,28.482 67.899,27.433 68.952,26.256C69.845,25.266 70.58,24.145 71.133,22.932C71.644,21.792 71.936,20.567 71.994,19.319C72.017,18.702 71.973,18.084 71.864,17.477C71.618,16.067 71.088,14.722 70.306,13.523C69.269,11.954 67.979,10.567 66.488,9.42C65.464,8.612 64.382,7.881 63.25,7.233C61.673,6.327 60.031,5.54 58.338,4.876C56.792,4.267 55.217,3.738 53.617,3.289C51.655,2.742 49.666,2.296 47.658,1.953C46.429,1.743 45.194,1.573 43.958,1.433C43.062,1.332 42.164,1.25 41.266,1.178C40.639,1.129 40.01,1.09 39.381,1.065C38.545,1.03 37.71,1.001 36.873,0.989C36.113,0.977 35.326,0.979 34.594,1.005C34.374,1.012 34.155,1.019 33.935,1.026C33.422,1.043 32.91,1.059 32.397,1.083C31.581,1.12 30.771,1.176 29.945,1.244C29.234,1.301 28.518,1.375 27.803,1.458C26.829,1.571 25.867,1.708 24.893,1.865C23.074,2.16 21.269,2.531 19.485,2.993C17.756,3.436 16.052,3.972 14.381,4.6C12.103,5.44 9.916,6.505 7.851,7.78C6.208,8.783 4.702,9.996 3.371,11.387C2.407,12.4 1.604,13.554 0.987,14.809C0.435,15.941 0.107,17.169 0.02,18.425C-0.028,19.141 0.012,19.861 0.138,20.567C0.348,21.751 0.763,22.889 1.363,23.931C2.132,25.247 3.094,26.439 4.218,27.468C5.449,28.604 6.795,29.61 8.234,30.467C9.865,31.445 11.572,32.292 13.339,32.999C15.329,33.798 17.37,34.464 19.448,34.993C21.408,35.499 23.393,35.906 25.394,36.212C26.424,36.372 27.464,36.51 28.51,36.619C29.4,36.712 30.292,36.788 31.184,36.853C31.939,36.907 32.699,36.946 33.457,36.968C33.659,36.973 33.863,36.98 34.064,36.987ZM37.527,34.096C37.006,34.112 36.486,34.128 35.965,34.113L35.965,34.118C35.385,34.137 34.805,34.117 34.226,34.098C33.943,34.088 33.661,34.079 33.379,34.074C32.627,34.056 31.875,34.011 31.125,33.957C30.174,33.889 29.225,33.805 28.278,33.704C27.251,33.592 26.229,33.456 25.211,33.297C24.099,33.123 22.996,32.917 21.9,32.681C20.552,32.39 19.22,32.05 17.902,31.661C16.727,31.308 15.567,30.913 14.425,30.463C13.234,29.998 12.069,29.467 10.937,28.872C9.489,28.124 8.125,27.222 6.869,26.182C5.848,25.347 4.959,24.362 4.232,23.261C3.628,22.349 3.213,21.325 3.011,20.25C2.878,19.508 2.865,18.749 2.974,18.003C3.186,16.65 3.729,15.37 4.553,14.277C5.461,13.055 6.553,11.982 7.79,11.095C9.068,10.159 10.431,9.345 11.861,8.662C13.608,7.825 15.416,7.118 17.269,6.547C19.015,6 20.789,5.545 22.584,5.184C23.851,4.931 25.109,4.719 26.383,4.541C27.199,4.426 28.017,4.335 28.835,4.245C29.328,4.191 29.822,4.154 30.315,4.118L30.327,4.117C31.032,4.064 31.737,4.015 32.442,3.973C32.779,3.951 33.118,3.934 33.455,3.934L33.974,3.92C34.987,3.894 36.002,3.868 37.017,3.891C37.833,3.91 38.676,3.936 39.467,3.973C40.257,4.01 41.056,4.058 41.835,4.125C42.777,4.205 43.719,4.302 44.661,4.417C46.028,4.582 47.386,4.794 48.735,5.054C50.61,5.408 52.465,5.863 54.291,6.417C55.764,6.858 57.212,7.378 58.628,7.975C60.286,8.671 61.876,9.518 63.378,10.507C64.516,11.25 65.562,12.126 66.494,13.114C67.402,14.057 68.119,15.166 68.607,16.38C69.009,17.416 69.169,18.531 69.075,19.638C68.981,20.745 68.636,21.816 68.066,22.77C67.43,23.868 66.624,24.857 65.678,25.703C64.825,26.483 63.903,27.184 62.925,27.799C61.398,28.752 59.789,29.568 58.118,30.237C56.654,30.837 55.159,31.357 53.639,31.795C52.067,32.249 50.476,32.621 48.871,32.932C47.808,33.141 46.739,33.312 45.666,33.464C44.849,33.577 44.031,33.676 43.212,33.76C42.54,33.828 41.856,33.883 41.177,33.933C40.663,33.971 40.149,33.997 39.636,34.024C39.328,34.04 39.019,34.055 38.711,34.074L38.633,34.074C38.264,34.074 37.895,34.085 37.527,34.096Z" clip-rule="evenodd" fill-rule="evenodd" fill="#000000"/>
</svg>
