<svg width="88" height="90" viewBox="0 0 88 90" fill="none" xmlns="http://www.w3.org/2000/svg" xmlns:xlink="http://www.w3.org/1999/xlink">
<path d="M12.518,3.147C9.654,0.283 5.011,0.283 2.147,3.147C-0.717,6.011 -0.717,10.654 2.147,13.518L33.628,44.999L2.147,76.48C-0.717,79.344 -0.717,83.987 2.147,86.851C5.011,89.715 9.654,89.715 12.518,86.851L43.999,55.37L75.48,86.851C78.344,89.715 82.987,89.715 85.851,86.851C88.715,83.987 88.715,79.344 85.851,76.48L54.37,44.999L85.851,13.518C88.715,10.654 88.715,6.011 85.851,3.147C82.987,0.283 78.344,0.283 75.48,3.147L43.999,34.628L12.518,3.147Z" clip-rule="evenodd" fill-rule="evenodd" fill="#FFFFFF"/>
</svg>
