<svg width="36" height="42" viewBox="0 0 36 42" fill="none" xmlns="http://www.w3.org/2000/svg" xmlns:xlink="http://www.w3.org/1999/xlink">
<path d="M18,42C15.5,42 13.158,41.525 10.975,40.575C8.792,39.625 6.892,38.342 5.275,36.725C3.658,35.108 2.375,33.208 1.425,31.025C0.475,28.842 0,26.5 0,24L4,24C4,27.9 5.358,31.208 8.075,33.925C10.792,36.642 14.1,38 18,38C21.9,38 25.208,36.642 27.925,33.925C30.642,31.208 32,27.9 32,24C32,20.1 30.642,16.792 27.925,14.075C25.208,11.358 21.9,10 18,10L17.7,10L20.8,13.1L18,16L10,8L18,0L20.8,2.9L17.7,6L18,6C20.5,6 22.842,6.475 25.025,7.425C27.208,8.375 29.108,9.658 30.725,11.275C32.342,12.892 33.625,14.792 34.575,16.975C35.525,19.158 36,21.5 36,24C36,26.5 35.525,28.842 34.575,31.025C33.625,33.208 32.342,35.108 30.725,36.725C29.108,38.342 27.208,39.625 25.025,40.575C22.842,41.525 20.5,42 18,42Z" fill="#831441"/>
</svg>
