<svg width="150" height="136" viewBox="0 0 150 136" fill="none" xmlns="http://www.w3.org/2000/svg" xmlns:xlink="http://www.w3.org/1999/xlink">
<path d="M75,108.75C84.375,108.75 92.345,105.47 98.91,98.91C105.475,92.35 108.755,84.38 108.75,75C108.745,65.62 105.465,57.653 98.91,51.097C92.355,44.542 84.385,41.26 75,41.25C65.615,41.24 57.647,44.522 51.097,51.097C44.547,57.673 41.265,65.64 41.25,75C41.235,84.36 44.517,92.33 51.097,98.91C57.677,105.49 65.645,108.77 75,108.75ZM75,93.75C69.75,93.75 65.312,91.938 61.687,88.312C58.062,84.688 56.25,80.25 56.25,75C56.25,69.75 58.062,65.313 61.687,61.688C65.312,58.063 69.75,56.25 75,56.25C80.25,56.25 84.687,58.063 88.312,61.688C91.937,65.313 93.75,69.75 93.75,75C93.75,80.25 91.937,84.688 88.312,88.312C84.687,91.938 80.25,93.75 75,93.75ZM15,135C10.875,135 7.345,133.533 4.41,130.598C1.475,127.662 0.005,124.13 0,120L0,30C0,25.875 1.47,22.345 4.41,19.41C7.35,16.475 10.88,15.005 15,15L38.625,15L48,4.875C49.375,3.375 51.032,2.188 52.972,1.313C54.912,0.438 56.942,0 59.062,0L90.937,0C93.062,0 95.095,0.438 97.035,1.313C98.975,2.188 100.63,3.375 102,4.875L111.375,15L135,15C139.125,15 142.657,16.47 145.597,19.41C148.537,22.35 150.005,25.88 150,30L150,120C150,124.125 148.532,127.658 145.597,130.598C142.662,133.538 139.13,135.005 135,135L15,135Z" fill="#831441"/>
</svg>
