<svg width="40" height="30" viewBox="0 0 40 30" fill="none" xmlns="http://www.w3.org/2000/svg" xmlns:xlink="http://www.w3.org/1999/xlink">
<path d="M9.868,0L10,0L30,0L30.132,0C31.905,0 33.432,0 34.656,0.164C35.967,0.341 37.223,0.738 38.243,1.757C39.262,2.777 39.659,4.033 39.836,5.344C40,6.568 40,8.095 40,9.868L40,10L40,12L40,20L40,20.132C40,21.905 40,23.432 39.836,24.656C39.659,25.967 39.262,27.223 38.243,28.243C37.223,29.262 35.967,29.659 34.656,29.836C33.432,30 31.905,30 30.132,30L30,30L10,30L9.868,30C8.095,30 6.568,30 5.344,29.836C4.033,29.659 2.777,29.262 1.757,28.243C0.738,27.223 0.341,25.967 0.164,24.656C0,23.432 0,21.905 0,20.132L0,20L0,10L0,9.868C0,8.095 0,6.568 0.164,5.344C0.341,4.033 0.738,2.777 1.757,1.757C2.777,0.738 4.033,0.341 5.344,0.164C6.568,0 8.095,0 9.868,0ZM36,10C36,8.058 35.996,6.802 35.871,5.877C35.755,5.01 35.566,4.738 35.414,4.586C35.262,4.434 34.99,4.245 34.123,4.129C33.198,4.004 31.942,4 30,4L10,4C8.058,4 6.802,4.004 5.877,4.129C5.01,4.245 4.738,4.434 4.586,4.586C4.434,4.738 4.245,5.01 4.129,5.877C4.004,6.802 4,8.058 4,10L36,10ZM4,14L36,14L36,20C36,21.942 35.996,23.198 35.871,24.123C35.755,24.99 35.566,25.262 35.414,25.414C35.262,25.566 34.99,25.755 34.123,25.871C33.198,25.996 31.942,26 30,26L10,26C8.058,26 6.802,25.996 5.877,25.871C5.01,25.755 4.738,25.566 4.586,25.414C4.434,25.262 4.245,24.99 4.129,24.123C4.004,23.198 4,21.942 4,20L4,14ZM8,20C8,18.895 8.895,18 10,18L10.02,18C11.125,18 12.02,18.895 12.02,20C12.02,21.105 11.125,22 10.02,22L10,22C8.895,22 8,21.105 8,20Z" clip-rule="evenodd" fill-rule="evenodd" fill="#FFFFFF"/>
</svg>
