<svg width="150" height="138" viewBox="0 0 150 138" fill="none" xmlns="http://www.w3.org/2000/svg" xmlns:xlink="http://www.w3.org/1999/xlink">
<path d="M16.667,137.805C12.083,137.805 8.161,136.307 4.9,133.311C1.639,130.315 0.006,126.709 0,122.493L0,15.312C0,11.101 1.633,7.498 4.9,4.502C8.167,1.506 12.089,0.005 16.667,0L133.333,0C137.917,0 141.842,1.501 145.108,4.502C148.375,7.503 150.006,11.106 150,15.312L150,122.493C150,126.704 148.369,130.31 145.108,133.311C141.847,136.312 137.922,137.81 133.333,137.805L16.667,137.805ZM16.667,122.493L133.333,122.493L133.333,15.312L16.667,15.312L16.667,122.493ZM25,107.182L125,107.182L93.75,68.902L68.75,99.526L50,76.558L25,107.182ZM45.833,53.591C49.306,53.591 52.258,52.476 54.692,50.245C57.125,48.015 58.339,45.302 58.333,42.107C58.328,38.912 57.114,36.202 54.692,33.977C52.269,31.751 49.317,30.634 45.833,30.623C42.35,30.613 39.4,31.731 36.983,33.977C34.567,36.222 33.35,38.932 33.333,42.107C33.317,45.282 34.533,47.994 36.983,50.245C39.433,52.496 42.383,53.611 45.833,53.591Z" fill="#831441"/>
</svg>
