<svg width="28" height="28" viewBox="0 0 28 28" fill="none" xmlns="http://www.w3.org/2000/svg" xmlns:xlink="http://www.w3.org/1999/xlink">
<path d="M14,3.5C8.201,3.5 3.5,8.201 3.5,14C3.5,19.799 8.201,24.5 14,24.5C19.799,24.5 24.5,19.799 24.5,14C24.5,8.201 19.799,3.5 14,3.5ZM0.5,14C0.5,6.544 6.544,0.5 14,0.5C21.456,0.5 27.5,6.544 27.5,14C27.5,21.456 21.456,27.5 14,27.5C6.544,27.5 0.5,21.456 0.5,14ZM15.5,11.333L15.5,20.667L12.5,20.667L12.5,11.333L15.5,11.333ZM16,8.667C16,7.562 15.105,6.667 14,6.667C12.895,6.667 12,7.562 12,8.667L12,8.68C12,9.785 12.895,10.68 14,10.68C15.105,10.68 16,9.785 16,8.68L16,8.667Z" clip-rule="evenodd" fill-rule="evenodd" fill="#831441"/>
</svg>
