<svg width="148" height="132" viewBox="0 0 148 132" fill="none" xmlns="http://www.w3.org/2000/svg" xmlns:xlink="http://www.w3.org/1999/xlink">
<path d="M74,106.333C83.167,106.333 90.959,103.126 97.379,96.712C103.798,90.298 107.005,82.505 107,73.333C106.995,64.162 103.788,56.371 97.379,49.962C90.969,43.553 83.176,40.343 74,40.333C64.823,40.324 57.033,43.533 50.629,49.962C44.224,56.391 41.015,64.181 41,73.333C40.985,82.485 44.195,90.278 50.629,96.712C57.062,103.146 64.853,106.353 74,106.333ZM74,91.667C68.867,91.667 64.528,89.894 60.983,86.35C57.439,82.806 55.667,78.467 55.667,73.333C55.667,68.2 57.439,63.861 60.983,60.317C64.528,56.772 68.867,55 74,55C79.133,55 83.472,56.772 87.017,60.317C90.561,63.861 92.333,68.2 92.333,73.333C92.333,78.467 90.561,82.806 87.017,86.35C83.472,89.894 79.133,91.667 74,91.667ZM15.333,132C11.3,132 7.848,130.565 4.979,127.695C2.109,124.826 0.671,121.372 0.667,117.333L0.667,29.333C0.667,25.3 2.104,21.848 4.979,18.979C7.853,16.109 11.305,14.672 15.333,14.667L38.433,14.667L47.6,4.767C48.944,3.3 50.565,2.139 52.462,1.283C54.359,0.428 56.344,0 58.417,0L89.583,0C91.661,0 93.648,0.428 95.545,1.283C97.442,2.139 99.06,3.3 100.4,4.767L109.567,14.667L132.667,14.667C136.7,14.667 140.154,16.104 143.029,18.979C145.903,21.853 147.338,25.305 147.333,29.333L147.333,117.333C147.333,121.367 145.898,124.821 143.029,127.695C140.159,130.57 136.705,132.005 132.667,132L15.333,132Z" fill="#831441"/>
</svg>
