<svg width="466" height="902" viewBox="0 0 466 902" fill="none" xmlns="http://www.w3.org/2000/svg" xmlns:xlink="http://www.w3.org/1999/xlink">
<path d="M55.436,898.796C62.921,902.98 71.182,902.98 78.666,898.796L119.443,875.802C121.182,874.79 123.17,874.79 125.002,875.802L165.778,898.796C173.263,903.068 181.524,903.068 189.009,898.796L229.786,875.802C231.524,874.79 233.512,874.79 235.344,875.802L276.122,898.796C279.848,900.954 283.762,901.966 287.736,901.966C291.71,901.966 295.594,900.954 299.35,898.796L340.22,875.67C342.052,874.658 343.946,874.658 345.78,875.67L386.648,898.796C394.134,903.068 402.394,902.98 409.786,898.796L445.656,878.622C457.674,871.838 465.438,855.628 465.438,837.348L465.438,55.378C465.438,40.622 460.284,26.836 451.68,18.599C443.11,10.362 432.116,8.689 422.488,14.106L401.028,26.263C399.288,27.276 397.302,27.276 395.468,26.263L354.6,3.138C347.114,-1.046 338.946,-1.046 331.462,3.138L290.592,26.263C288.76,27.276 286.866,27.276 285.034,26.263L244.256,3.27C236.772,-1.002 228.512,-1.002 221.026,3.27L180.25,26.263C178.511,27.276 176.523,27.276 174.691,26.263L133.914,3.27C126.429,-1.002 118.168,-1.002 110.684,3.27L69.907,26.263C68.168,27.276 66.181,27.276 64.348,26.263L42.951,14.194C33.261,8.777 22.361,10.362 13.758,18.687C5.186,26.924 0,40.798 0,55.466L0,837.482C0,855.762 7.702,871.972 19.721,878.754L55.497,898.928L55.436,898.796ZM23.79,55.382C23.79,50.316 26.088,47.497 27.051,46.572C28.013,45.691 30.715,43.621 34.038,45.559L55.436,57.628C62.92,61.812 71.181,61.812 78.666,57.628L119.443,34.635C121.182,33.622 123.169,33.622 125.002,34.635L165.778,57.628C173.263,61.9 181.524,61.9 189.008,57.628L229.786,34.635C231.524,33.622 233.512,33.622 235.344,34.635L276.122,57.628C283.606,61.9 291.866,61.9 299.352,57.628L340.22,34.503C342.054,33.49 343.948,33.49 345.78,34.503L386.65,57.628C394.134,61.9 402.396,61.812 409.786,57.628L431.246,45.471C434.6,43.533 437.208,45.603 438.234,46.616C439.196,47.497 441.494,50.316 441.494,55.426L441.494,837.442C441.494,841.846 439.662,845.678 436.806,847.352L400.936,867.526C399.196,868.54 397.208,868.54 395.376,867.526L354.506,844.402C350.78,842.242 346.868,841.23 342.892,841.23C338.918,841.23 335.036,842.244 331.278,844.402L290.408,867.526C288.576,868.54 286.682,868.54 284.848,867.526L244.072,844.534C236.588,840.26 228.326,840.26 220.842,844.534L180.065,867.526C178.326,868.54 176.338,868.54 174.506,867.526L133.73,844.534C126.245,840.26 117.984,840.26 110.499,844.534L69.723,867.526C67.984,868.54 65.996,868.54 64.164,867.526L28.387,847.352C25.53,845.766 23.698,841.846 23.698,837.442L23.698,55.392L23.79,55.382Z" fill="#FFFCF9"/>
<path d="M23.79,55.382C23.79,50.316 26.088,47.497 27.051,46.572C28.013,45.691 30.715,43.621 34.038,45.559L55.436,57.628C62.92,61.812 71.181,61.812 78.666,57.628L119.443,34.635C121.182,33.622 123.169,33.622 125.002,34.635L165.778,57.628C173.263,61.9 181.524,61.9 189.008,57.628L229.786,34.635C231.524,33.622 233.512,33.622 235.344,34.635L276.122,57.628C283.606,61.9 291.866,61.9 299.352,57.628L340.22,34.503C342.054,33.49 343.948,33.49 345.78,34.503L386.65,57.628C394.134,61.9 402.396,61.812 409.786,57.628L431.246,45.471C434.6,43.533 437.208,45.603 438.234,46.616C439.196,47.497 441.494,50.316 441.494,55.426L441.494,837.442C441.494,841.846 439.662,845.678 436.806,847.352L400.936,867.526C399.196,868.54 397.208,868.54 395.376,867.526L354.506,844.402C350.78,842.242 346.868,841.23 342.892,841.23C338.918,841.23 335.036,842.244 331.278,844.402L290.408,867.526C288.576,868.54 286.682,868.54 284.848,867.526L244.072,844.534C236.588,840.26 228.326,840.26 220.842,844.534L180.065,867.526C178.326,868.54 176.338,868.54 174.506,867.526L133.73,844.534C126.245,840.26 117.984,840.26 110.499,844.534L69.723,867.526C67.984,868.54 65.996,868.54 64.164,867.526L28.387,847.352C25.53,845.766 23.698,841.846 23.698,837.442L23.698,55.392L23.79,55.382Z" fill="#FFFCF9"/>
</svg>
