<svg width="64" height="58" viewBox="0 0 64 58" fill="none" xmlns="http://www.w3.org/2000/svg" xmlns:xlink="http://www.w3.org/1999/xlink">
<path d="M32,46.4C36,46.4 39.401,45.001 42.202,42.202C45.003,39.403 46.402,36.002 46.4,32C46.398,27.998 44.998,24.598 42.202,21.802C39.405,19.005 36.004,17.604 32,17.6C27.996,17.596 24.596,18.996 21.802,21.802C19.007,24.607 17.606,28.006 17.6,32C17.594,35.994 18.994,39.394 21.802,42.202C24.609,45.009 28.009,46.409 32,46.4ZM32,40C29.76,40 27.867,39.227 26.32,37.68C24.773,36.133 24,34.24 24,32C24,29.76 24.773,27.867 26.32,26.32C27.867,24.773 29.76,24 32,24C34.24,24 36.133,24.773 37.68,26.32C39.227,27.867 40,29.76 40,32C40,34.24 39.227,36.133 37.68,37.68C36.133,39.227 34.24,40 32,40ZM6.4,57.6C4.64,57.6 3.134,56.974 1.882,55.722C0.629,54.469 0.002,52.962 0,51.2L0,12.8C0,11.04 0.627,9.534 1.882,8.282C3.136,7.029 4.642,6.402 6.4,6.4L16.48,6.4L20.48,2.08C21.067,1.44 21.774,0.933 22.602,0.56C23.429,0.187 24.295,0 25.2,0L38.8,0C39.707,0 40.574,0.187 41.402,0.56C42.229,0.933 42.935,1.44 43.52,2.08L47.52,6.4L57.6,6.4C59.36,6.4 60.867,7.027 62.122,8.282C63.376,9.536 64.002,11.042 64,12.8L64,51.2C64,52.96 63.374,54.467 62.122,55.722C60.869,56.976 59.362,57.602 57.6,57.6L6.4,57.6ZM6.4,51.2L57.6,51.2L57.6,12.8L44.64,12.8L38.8,6.4L25.2,6.4L19.36,12.8L6.4,12.8L6.4,51.2Z" fill="#FFFFFF"/>
</svg>
