<svg width="70" height="70" viewBox="0 0 70 70" fill="none" xmlns="http://www.w3.org/2000/svg" xmlns:xlink="http://www.w3.org/1999/xlink">
<path d="M54.719,38.6L4.494,38.6C3.221,38.6 2.154,38.169 1.294,37.306C0.434,36.443 0.003,35.376 0,34.106C-0.003,32.835 0.428,31.769 1.294,30.906C2.16,30.043 3.227,29.611 4.494,29.611L54.719,29.611L32.697,7.589C31.798,6.69 31.366,5.641 31.402,4.443C31.438,3.244 31.907,2.196 32.809,1.297C33.708,0.473 34.757,0.041 35.955,0.002C37.154,-0.037 38.202,0.395 39.101,1.297L68.764,30.96C69.213,31.409 69.533,31.896 69.721,32.42C69.91,32.945 70.003,33.506 70,34.106C69.997,34.705 69.904,35.267 69.721,35.791C69.539,36.315 69.219,36.802 68.764,37.252L39.101,66.915C38.277,67.739 37.248,68.151 36.013,68.151C34.779,68.151 33.711,67.739 32.809,66.915C31.91,66.016 31.461,64.949 31.461,63.715C31.461,62.48 31.91,61.412 32.809,60.51L54.719,38.6Z" fill="#FFFFFF" stroke="#831441" stroke-width="0.5" stroke-miterlimit="3.999327"/>
</svg>
