<svg width="34" height="34" viewBox="0 0 34 34" fill="none" xmlns="http://www.w3.org/2000/svg" xmlns:xlink="http://www.w3.org/1999/xlink">
<path d="M4.218,0.71C3.272,-0.237 1.738,-0.237 0.792,0.71C-0.154,1.656 -0.154,3.19 0.792,4.136L13.615,16.959L0.792,29.782C-0.154,30.728 -0.154,32.262 0.792,33.208C1.738,34.154 3.272,34.154 4.218,33.208L17.041,20.385L29.864,33.208C30.81,34.154 32.344,34.154 33.29,33.208C34.236,32.262 34.236,30.728 33.29,29.782L20.467,16.959L33.29,4.136C34.236,3.19 34.236,1.656 33.29,0.71C32.344,-0.237 30.81,-0.237 29.864,0.71L17.041,13.532L4.218,0.71Z" clip-rule="evenodd" fill-rule="evenodd" fill="#390419"/>
</svg>
