<svg width="20" height="20" viewBox="0 0 20 20" fill="none" xmlns="http://www.w3.org/2000/svg" xmlns:xlink="http://www.w3.org/1999/xlink">
<path d="M15.634,11.029L1.284,11.029C0.92,11.029 0.616,10.905 0.37,10.659C0.124,10.412 0.001,10.107 0,9.744C-0.001,9.382 0.122,9.077 0.37,8.83C0.617,8.584 0.922,8.46 1.284,8.46L15.634,8.46L9.342,2.168C9.085,1.911 8.962,1.612 8.972,1.269C8.982,0.927 9.116,0.627 9.374,0.371C9.631,0.135 9.93,0.012 10.273,0.001C10.615,-0.01 10.915,0.113 11.172,0.371L19.647,8.846C19.775,8.974 19.866,9.113 19.92,9.263C19.974,9.413 20.001,9.573 20,9.744C19.999,9.916 19.973,10.076 19.92,10.226C19.868,10.376 19.777,10.515 19.647,10.643L11.172,19.118C10.936,19.354 10.642,19.472 10.29,19.472C9.937,19.472 9.632,19.354 9.374,19.118C9.117,18.862 8.989,18.557 8.989,18.204C8.989,17.851 9.117,17.546 9.374,17.289L15.634,11.029Z" fill="#831441" stroke="#831441" stroke-width="0.143" stroke-miterlimit="3.999327"/>
</svg>
