<svg width="38" height="38" viewBox="0 0 38 38" fill="none" xmlns="http://www.w3.org/2000/svg" xmlns:xlink="http://www.w3.org/1999/xlink">
<path d="M12.091,34.545L5.182,34.545C4.724,34.545 4.284,34.363 3.96,34.04C3.637,33.716 3.455,33.276 3.455,32.818L3.455,25.909C3.455,25.451 3.273,25.012 2.949,24.688C2.625,24.364 2.185,24.182 1.727,24.182C1.269,24.182 0.83,24.364 0.506,24.688C0.182,25.012 0,25.451 0,25.909L0,32.818C0,34.192 0.546,35.511 1.518,36.482C2.49,37.454 3.808,38 5.182,38L12.091,38C12.549,38 12.988,37.818 13.312,37.494C13.636,37.17 13.818,36.731 13.818,36.273C13.818,35.815 13.636,35.375 13.312,35.051C12.988,34.727 12.549,34.545 12.091,34.545L12.091,34.545ZM36.273,24.182C35.815,24.182 35.375,24.364 35.051,24.688C34.727,25.012 34.545,25.451 34.545,25.909L34.545,32.818C34.545,33.276 34.363,33.716 34.04,34.04C33.716,34.363 33.276,34.545 32.818,34.545L25.909,34.545C25.451,34.545 25.012,34.727 24.688,35.051C24.364,35.375 24.182,35.815 24.182,36.273C24.182,36.731 24.364,37.17 24.688,37.494C25.012,37.818 25.451,38 25.909,38L32.818,38C34.192,38 35.511,37.454 36.482,36.482C37.454,35.511 38,34.192 38,32.818L38,25.909C38,25.451 37.818,25.012 37.494,24.688C37.17,24.364 36.731,24.182 36.273,24.182ZM32.818,0L25.909,0C25.451,0 25.012,0.182 24.688,0.506C24.364,0.83 24.182,1.269 24.182,1.727C24.182,2.185 24.364,2.625 24.688,2.949C25.012,3.273 25.451,3.455 25.909,3.455L32.818,3.455C33.276,3.455 33.716,3.637 34.04,3.96C34.363,4.284 34.545,4.724 34.545,5.182L34.545,12.091C34.545,12.549 34.727,12.988 35.051,13.312C35.375,13.636 35.815,13.818 36.273,13.818C36.731,13.818 37.17,13.636 37.494,13.312C37.818,12.988 38,12.549 38,12.091L38,5.182C38,3.808 37.454,2.489 36.482,1.518C35.511,0.546 34.192,0 32.818,0L32.818,0ZM1.727,13.818C2.185,13.818 2.625,13.636 2.949,13.312C3.273,12.988 3.455,12.549 3.455,12.091L3.455,5.182C3.455,4.724 3.637,4.284 3.96,3.96C4.284,3.637 4.724,3.455 5.182,3.455L12.091,3.455C12.549,3.455 12.988,3.273 13.312,2.949C13.636,2.625 13.818,2.185 13.818,1.727C13.818,1.269 13.636,0.83 13.312,0.506C12.988,0.182 12.549,0 12.091,0L5.182,0C3.808,0 2.49,0.546 1.518,1.518C0.546,2.489 0,3.808 0,5.182L0,12.091C0,12.549 0.182,12.988 0.506,13.312C0.83,13.636 1.269,13.818 1.727,13.818ZM15.545,6.909L8.636,6.909C8.178,6.909 7.739,7.091 7.415,7.415C7.091,7.739 6.909,8.178 6.909,8.636L6.909,15.545C6.909,16.004 7.091,16.443 7.415,16.767C7.739,17.091 8.178,17.273 8.636,17.273L15.545,17.273C16.004,17.273 16.443,17.091 16.767,16.767C17.091,16.443 17.273,16.004 17.273,15.545L17.273,8.636C17.273,8.178 17.091,7.739 16.767,7.415C16.443,7.091 16.004,6.909 15.545,6.909ZM13.818,13.818L10.364,13.818L10.364,10.364L13.818,10.364L13.818,13.818ZM22.455,17.273L29.364,17.273C29.822,17.273 30.261,17.091 30.585,16.767C30.909,16.443 31.091,16.004 31.091,15.545L31.091,8.636C31.091,8.178 30.909,7.739 30.585,7.415C30.261,7.091 29.822,6.909 29.364,6.909L22.455,6.909C21.996,6.909 21.557,7.091 21.233,7.415C20.909,7.739 20.727,8.178 20.727,8.636L20.727,15.545C20.727,16.004 20.909,16.443 21.233,16.767C21.557,17.091 21.996,17.273 22.455,17.273ZM24.182,10.364L27.636,10.364L27.636,13.818L24.182,13.818L24.182,10.364ZM15.545,20.727L8.636,20.727C8.178,20.727 7.739,20.909 7.415,21.233C7.091,21.557 6.909,21.996 6.909,22.455L6.909,29.364C6.909,29.822 7.091,30.261 7.415,30.585C7.739,30.909 8.178,31.091 8.636,31.091L15.545,31.091C16.004,31.091 16.443,30.909 16.767,30.585C17.091,30.261 17.273,29.822 17.273,29.364L17.273,22.455C17.273,21.996 17.091,21.557 16.767,21.233C16.443,20.909 16.004,20.727 15.545,20.727ZM13.818,27.636L10.364,27.636L10.364,24.182L13.818,24.182L13.818,27.636ZM22.455,25.909C22.913,25.909 23.352,25.727 23.676,25.403C24,25.079 24.182,24.64 24.182,24.182C24.64,24.182 25.079,24 25.403,23.676C25.727,23.352 25.909,22.913 25.909,22.455C25.909,21.996 25.727,21.557 25.403,21.233C25.079,20.909 24.64,20.727 24.182,20.727L22.455,20.727C21.996,20.727 21.557,20.909 21.233,21.233C20.909,21.557 20.727,21.996 20.727,22.455L20.727,24.182C20.727,24.64 20.909,25.079 21.233,25.403C21.557,25.727 21.996,25.909 22.455,25.909ZM29.364,20.727C28.906,20.727 28.466,20.909 28.142,21.233C27.818,21.557 27.636,21.996 27.636,22.455L27.636,27.636C27.178,27.636 26.739,27.818 26.415,28.142C26.091,28.466 25.909,28.906 25.909,29.364C25.909,29.822 26.091,30.261 26.415,30.585C26.739,30.909 27.178,31.091 27.636,31.091L29.364,31.091C29.822,31.091 30.261,30.909 30.585,30.585C30.909,30.261 31.091,29.822 31.091,29.364L31.091,22.455C31.091,21.996 30.909,21.557 30.585,21.233C30.261,20.909 29.822,20.727 29.364,20.727ZM22.455,27.636C22.113,27.636 21.779,27.738 21.495,27.927C21.211,28.117 20.989,28.387 20.859,28.703C20.728,29.018 20.694,29.366 20.76,29.701C20.827,30.036 20.992,30.343 21.233,30.585C21.475,30.827 21.783,30.991 22.118,31.058C22.453,31.124 22.8,31.09 23.116,30.959C23.431,30.829 23.701,30.607 23.891,30.323C24.081,30.039 24.182,29.705 24.182,29.364C24.182,28.906 24,28.466 23.676,28.142C23.352,27.818 22.913,27.636 22.455,27.636Z" fill="#FFFFFF"/>
</svg>
