<svg width="40" height="36" viewBox="0 0 40 36" fill="none" xmlns="http://www.w3.org/2000/svg" xmlns:xlink="http://www.w3.org/1999/xlink">
<path d="M5.704,33.543L4.939,35.391L4.939,35.391L5.704,33.543ZM2.457,30.296L0.609,31.061L0.609,31.061L2.457,30.296ZM34.296,33.543L35.061,35.391L35.061,35.391L34.296,33.543ZM37.543,30.296L39.391,31.061L39.391,31.061L37.543,30.296ZM34.296,2.457L35.061,0.609L35.061,0.609L34.296,2.457ZM37.543,5.704L39.391,4.939L39.391,4.939L37.543,5.704ZM5.704,2.457L4.939,0.609L4.939,0.609L5.704,2.457ZM2.457,5.704L0.609,4.939L0.609,4.939L2.457,5.704ZM17.504,16.614L17.319,14.623L17.504,16.614ZM18.485,16.413L17.425,14.717L18.485,16.413ZM19.114,15.377L20.979,16.098L19.114,15.377ZM18.648,16.287L17.278,14.83L17.278,14.83L18.648,16.287ZM16.924,18.366L18.297,16.912L18.297,16.912L16.924,18.366ZM16.004,17.166L14.027,16.864L16.004,17.166ZM16.06,16.995L14.282,16.077L16.06,16.995ZM17.638,20.289L15.682,19.87L15.682,19.87L17.638,20.289ZM17.743,19.475L19.724,19.2L17.743,19.475ZM17.102,18.534L15.729,19.988L15.729,19.988L17.102,18.534ZM17.639,19.137L15.844,20.018L15.844,20.018L17.639,19.137ZM18.947,21.294L20.238,22.821L20.238,22.821L18.947,21.294ZM17.9,22L17.999,20.002L17.9,22ZM17.607,20.436L19.562,20.854L19.562,20.854L17.607,20.436ZM17.469,21.724L15.711,22.678L15.711,22.678L17.469,21.724ZM21.053,21.294L19.762,22.821L19.762,22.821L21.053,21.294ZM20.289,20.76L19.718,22.677L20.289,20.76ZM19.711,20.76L20.282,22.677L19.711,20.76ZM22.393,20.436L20.438,20.854L20.438,20.854L22.393,20.436ZM22.531,21.724L24.289,22.678L24.289,22.678L22.531,21.724ZM22.1,22L22.001,20.002L22.1,22ZM22.898,18.534L24.271,19.988L24.271,19.988L22.898,18.534ZM22.361,19.137L24.156,20.018L22.361,19.137ZM22.362,20.289L24.318,19.87L24.318,19.87L22.362,20.289ZM22.257,19.475L24.238,19.75L22.257,19.475ZM22.496,16.614L22.311,18.606L22.496,16.614ZM23.94,16.995L25.718,16.077L25.718,16.077L23.94,16.995ZM23.077,18.366L21.703,16.912L21.703,16.912L23.077,18.366ZM23.996,17.166L25.973,16.864L23.996,17.166ZM20.886,15.377L19.021,16.098L19.021,16.098L20.886,15.377ZM21.352,16.287L22.722,14.83L22.722,14.83L21.352,16.287ZM21.515,16.413L22.575,14.717L21.515,16.413ZM20.109,14.012L20.54,12.059L20.109,14.012ZM19.891,14.012L19.46,12.059L19.891,14.012ZM11,4L29,4L29,0L11,0L11,4ZM29,32L11,32L11,36L29,36L29,32ZM36,11L36,12.5L40,12.5L40,11L36,11ZM36.5,12L36,12L36,16L36.5,16L36.5,12ZM36,23.5L36,25L40,25L40,23.5L36,23.5ZM36,24L36.5,24L36.5,20L36,20L36,24ZM4,12L3.5,12L3.5,16L4,16L4,12ZM4,12.5L4,11L0,11L0,12.5L4,12.5ZM4,25L4,23.5L0,23.5L0,25L4,25ZM3.5,24L4,24L4,20L3.5,20L3.5,24ZM4,24C7.314,24 10,21.314 10,18L6,18C6,19.105 5.105,20 4,20L4,24ZM4,23.5C4,23.776 3.776,24 3.5,24L3.5,20C1.567,20 0,21.567 0,23.5L4,23.5ZM3.5,12C3.776,12 4,12.224 4,12.5L0,12.5C0,14.433 1.567,16 3.5,16L3.5,12ZM4,16C5.105,16 6,16.895 6,18L10,18C10,14.686 7.314,12 4,12L4,16ZM30,18C30,21.314 32.686,24 36,24L36,20C34.895,20 34,19.105 34,18L30,18ZM40,23.5C40,21.567 38.433,20 36.5,20L36.5,24C36.224,24 36,23.776 36,23.5L40,23.5ZM36,12.5C36,12.224 36.224,12 36.5,12L36.5,16C38.433,16 40,14.433 40,12.5L36,12.5ZM36,12C32.686,12 30,14.686 30,18L34,18C34,16.895 34.895,16 36,16L36,12ZM11,32C9.575,32 8.606,31.999 7.853,31.948C7.118,31.897 6.736,31.806 6.469,31.696L4.939,35.391C5.774,35.737 6.642,35.874 7.581,35.938C8.502,36.001 9.63,36 11,36L11,32ZM0,25C0,26.37 -0.001,27.498 0.062,28.419C0.126,29.358 0.263,30.226 0.609,31.061L4.304,29.531C4.194,29.264 4.103,28.882 4.052,28.147C4.001,27.394 4,26.425 4,25L0,25ZM6.469,31.696C5.489,31.29 4.71,30.511 4.304,29.531L0.609,31.061C1.421,33.022 2.978,34.579 4.939,35.391L6.469,31.696ZM29,36C30.37,36 31.498,36.001 32.419,35.938C33.358,35.874 34.226,35.737 35.061,35.391L33.531,31.696C33.264,31.806 32.882,31.897 32.147,31.948C31.394,31.999 30.425,32 29,32L29,36ZM36,25C36,26.425 35.999,27.394 35.948,28.147C35.897,28.882 35.806,29.264 35.696,29.531L39.391,31.061C39.737,30.226 39.874,29.358 39.938,28.419C40.001,27.498 40,26.37 40,25L36,25ZM35.061,35.391C37.022,34.579 38.579,33.022 39.391,31.061L35.696,29.531C35.29,30.511 34.511,31.29 33.531,31.696L35.061,35.391ZM29,4C30.425,4 31.394,4.001 32.147,4.052C32.882,4.103 33.264,4.194 33.531,4.304L35.061,0.609C34.226,0.263 33.358,0.126 32.419,0.062C31.498,-0.001 30.37,0 29,0L29,4ZM40,11C40,9.63 40.001,8.502 39.938,7.581C39.874,6.642 39.737,5.774 39.391,4.939L35.696,6.469C35.806,6.736 35.897,7.118 35.948,7.853C35.999,8.606 36,9.575 36,11L40,11ZM33.531,4.304C34.511,4.71 35.29,5.489 35.696,6.469L39.391,4.939C38.579,2.978 37.022,1.421 35.061,0.609L33.531,4.304ZM11,0C9.63,0 8.502,-0.001 7.581,0.062C6.642,0.126 5.774,0.263 4.939,0.609L6.469,4.304C6.736,4.194 7.118,4.103 7.853,4.052C8.606,4.001 9.575,4 11,4L11,0ZM4,11C4,9.575 4.001,8.606 4.052,7.853C4.103,7.118 4.194,6.736 4.304,6.469L0.609,4.939C0.263,5.774 0.126,6.642 0.062,7.581C-0.001,8.502 0,9.63 0,11L4,11ZM4.939,0.609C2.978,1.421 1.421,2.978 0.609,4.939L4.304,6.469C4.71,5.489 5.489,4.71 6.469,4.304L4.939,0.609ZM21.703,16.912L21.525,17.08L24.271,19.988L24.45,19.82L21.703,16.912ZM20.406,20.707L20.438,20.854L24.349,20.017L24.318,19.87L20.406,20.707ZM19.562,20.854L19.594,20.707L15.682,19.87L15.651,20.017L19.562,20.854ZM18.475,17.08L18.297,16.912L15.55,19.82L15.729,19.988L18.475,17.08ZM17.689,18.606C17.913,18.585 18.208,18.559 18.468,18.512C18.765,18.458 19.151,18.356 19.546,18.109L17.425,14.717C17.513,14.662 17.597,14.625 17.664,14.602C17.726,14.58 17.763,14.575 17.753,14.576C17.741,14.578 17.706,14.584 17.627,14.593C17.547,14.602 17.453,14.61 17.319,14.623L17.689,18.606ZM17.248,14.656C17.199,14.784 17.163,14.876 17.132,14.953C17.1,15.03 17.084,15.067 17.076,15.082C17.07,15.096 17.082,15.068 17.115,15.019C17.151,14.966 17.205,14.899 17.278,14.83L20.018,17.744C20.35,17.432 20.547,17.093 20.676,16.827C20.79,16.591 20.895,16.315 20.979,16.098L17.248,14.656ZM19.546,18.109C19.715,18.003 19.873,17.88 20.018,17.744L17.278,14.83C17.322,14.789 17.371,14.751 17.425,14.717L19.546,18.109ZM18.297,16.912C18.131,16.755 18.008,16.639 17.908,16.54C17.805,16.439 17.762,16.39 17.749,16.374C17.73,16.351 17.804,16.433 17.875,16.598C17.959,16.792 18.037,17.099 17.981,17.468L14.027,16.864C13.868,17.908 14.442,18.651 14.664,18.92C14.918,19.228 15.271,19.556 15.55,19.82L18.297,16.912ZM17.319,14.623C16.941,14.658 16.458,14.699 16.067,14.786C15.727,14.862 14.784,15.106 14.282,16.077L17.837,17.912C17.659,18.256 17.4,18.467 17.202,18.579C17.034,18.674 16.915,18.695 16.941,18.69C16.957,18.686 17.017,18.675 17.159,18.658C17.297,18.642 17.464,18.627 17.689,18.606L17.319,14.623ZM17.981,17.468C17.958,17.621 17.91,17.771 17.837,17.912L14.282,16.077C14.154,16.325 14.069,16.591 14.027,16.864L17.981,17.468ZM19.594,20.707C19.65,20.442 19.811,19.828 19.724,19.2L15.762,19.75C15.751,19.676 15.75,19.612 15.751,19.565C15.753,19.522 15.756,19.5 15.755,19.513C15.753,19.527 15.747,19.558 15.734,19.623C15.721,19.688 15.705,19.764 15.682,19.87L19.594,20.707ZM15.729,19.988C15.807,20.062 15.862,20.114 15.908,20.159C15.954,20.203 15.974,20.224 15.982,20.233C15.988,20.24 15.971,20.222 15.943,20.184C15.914,20.143 15.878,20.087 15.844,20.018L19.435,18.255C19.151,17.677 18.665,17.259 18.475,17.08L15.729,19.988ZM19.724,19.2C19.678,18.873 19.581,18.554 19.435,18.255L15.844,20.018C15.802,19.932 15.774,19.841 15.762,19.75L19.724,19.2ZM17.656,19.766C17.511,19.889 17.4,19.982 17.305,20.06C17.209,20.139 17.156,20.18 17.128,20.199C17.116,20.208 17.12,20.204 17.136,20.195C17.152,20.185 17.191,20.162 17.251,20.136C17.359,20.087 17.628,19.984 17.999,20.002L17.801,23.997C18.659,24.04 19.29,23.57 19.445,23.46C19.697,23.281 19.985,23.035 20.238,22.821L17.656,19.766ZM15.651,20.017C15.58,20.351 15.499,20.722 15.458,21.029C15.432,21.229 15.323,21.964 15.711,22.678L19.226,20.769C19.39,21.072 19.418,21.334 19.423,21.438C19.427,21.496 19.425,21.536 19.424,21.55C19.423,21.564 19.422,21.565 19.425,21.548C19.43,21.509 19.441,21.438 19.466,21.312C19.491,21.188 19.522,21.042 19.562,20.854L15.651,20.017ZM17.999,20.002C18.54,20.029 18.993,20.34 19.226,20.769L15.711,22.678C16.121,23.433 16.9,23.953 17.801,23.997L17.999,20.002ZM22.344,19.766C22.181,19.628 21.977,19.454 21.784,19.314C21.573,19.16 21.266,18.964 20.859,18.843L19.718,22.677C19.621,22.648 19.544,22.613 19.491,22.584C19.443,22.558 19.421,22.541 19.433,22.55C19.447,22.56 19.477,22.583 19.536,22.632C19.596,22.681 19.666,22.739 19.762,22.821L22.344,19.766ZM20.238,22.821C20.334,22.739 20.404,22.681 20.464,22.632C20.523,22.583 20.553,22.56 20.567,22.55C20.579,22.541 20.557,22.558 20.509,22.584C20.456,22.613 20.379,22.648 20.282,22.677L19.141,18.843C18.734,18.964 18.427,19.16 18.216,19.314C18.023,19.454 17.819,19.628 17.656,19.766L20.238,22.821ZM20.859,18.843C20.298,18.676 19.702,18.676 19.141,18.843L20.282,22.677C20.098,22.732 19.902,22.732 19.718,22.677L20.859,18.843ZM20.438,20.854C20.478,21.042 20.509,21.188 20.534,21.312C20.559,21.438 20.57,21.509 20.575,21.548C20.578,21.565 20.577,21.564 20.576,21.55C20.575,21.536 20.573,21.496 20.577,21.438C20.582,21.334 20.61,21.072 20.774,20.769L24.289,22.678C24.677,21.964 24.568,21.229 24.542,21.029C24.501,20.722 24.42,20.351 24.349,20.017L20.438,20.854ZM19.762,22.821C20.015,23.035 20.303,23.281 20.555,23.46C20.71,23.57 21.341,24.04 22.199,23.997L22.001,20.002C22.372,19.984 22.641,20.087 22.749,20.136C22.809,20.162 22.848,20.185 22.864,20.195C22.88,20.204 22.884,20.208 22.872,20.199C22.844,20.18 22.791,20.139 22.695,20.06C22.6,19.982 22.489,19.889 22.344,19.766L19.762,22.821ZM20.774,20.769C21.007,20.34 21.46,20.029 22.001,20.002L22.199,23.997C23.1,23.953 23.879,23.433 24.289,22.678L20.774,20.769ZM21.525,17.08C21.335,17.259 20.849,17.677 20.565,18.255L24.156,20.018C24.122,20.087 24.086,20.143 24.057,20.184C24.029,20.222 24.012,20.24 24.018,20.233C24.026,20.224 24.046,20.203 24.092,20.159C24.138,20.114 24.193,20.062 24.271,19.988L21.525,17.08ZM24.318,19.87C24.295,19.764 24.279,19.688 24.266,19.623C24.253,19.558 24.247,19.527 24.245,19.513C24.244,19.5 24.247,19.522 24.249,19.565C24.25,19.612 24.249,19.676 24.238,19.75L20.276,19.2C20.189,19.828 20.35,20.442 20.406,20.707L24.318,19.87ZM20.565,18.255C20.419,18.554 20.322,18.873 20.276,19.2L24.238,19.75C24.226,19.841 24.198,19.932 24.156,20.018L20.565,18.255ZM22.311,18.606C22.536,18.627 22.703,18.642 22.841,18.658C22.983,18.675 23.043,18.686 23.059,18.69C23.085,18.695 22.966,18.674 22.798,18.579C22.599,18.467 22.341,18.256 22.163,17.912L25.718,16.077C25.216,15.106 24.273,14.862 23.933,14.786C23.542,14.699 23.059,14.658 22.681,14.623L22.311,18.606ZM24.45,19.82C24.729,19.556 25.082,19.228 25.336,18.92C25.558,18.651 26.132,17.908 25.973,16.864L22.019,17.468C21.963,17.1 22.041,16.792 22.125,16.598C22.196,16.433 22.27,16.351 22.251,16.374C22.238,16.39 22.195,16.439 22.092,16.54C21.992,16.639 21.869,16.755 21.703,16.912L24.45,19.82ZM22.163,17.912C22.09,17.771 22.042,17.621 22.019,17.468L25.973,16.864C25.931,16.591 25.846,16.325 25.718,16.077L22.163,17.912ZM19.021,16.098C19.105,16.315 19.21,16.591 19.324,16.827C19.453,17.093 19.65,17.432 19.982,17.744L22.722,14.83C22.795,14.899 22.849,14.966 22.885,15.019C22.918,15.068 22.93,15.096 22.924,15.082C22.916,15.067 22.9,15.03 22.868,14.953C22.837,14.876 22.801,14.784 22.752,14.656L19.021,16.098ZM22.681,14.623C22.547,14.61 22.453,14.602 22.373,14.593C22.294,14.584 22.259,14.578 22.247,14.576C22.237,14.575 22.274,14.58 22.336,14.602C22.403,14.625 22.487,14.662 22.575,14.717L20.454,18.109C20.849,18.356 21.235,18.458 21.532,18.512C21.792,18.559 22.087,18.585 22.311,18.606L22.681,14.623ZM19.982,17.744C20.127,17.88 20.285,18.003 20.454,18.109L22.575,14.717C22.629,14.751 22.678,14.789 22.722,14.83L19.982,17.744ZM22.752,14.656C22.603,14.271 22.43,13.813 22.245,13.461C22.11,13.205 21.633,12.3 20.54,12.059L19.678,15.965C19.26,15.873 18.985,15.65 18.845,15.502C18.725,15.375 18.683,15.281 18.703,15.321C18.719,15.35 18.752,15.42 18.811,15.564C18.869,15.706 18.935,15.875 19.021,16.098L22.752,14.656ZM20.979,16.098C21.065,15.875 21.131,15.706 21.189,15.564C21.248,15.42 21.281,15.35 21.297,15.321C21.317,15.281 21.275,15.375 21.155,15.502C21.015,15.65 20.74,15.873 20.322,15.965L19.46,12.059C18.367,12.3 17.89,13.205 17.755,13.461C17.57,13.813 17.397,14.271 17.248,14.656L20.979,16.098ZM20.54,12.059C20.184,11.98 19.816,11.98 19.46,12.059L20.322,15.965C20.11,16.012 19.89,16.012 19.678,15.965L20.54,12.059Z" fill="#B8B8B8"/>
</svg>
