<svg width="40" height="40" viewBox="0 0 40 40" fill="none" xmlns="http://www.w3.org/2000/svg" xmlns:xlink="http://www.w3.org/1999/xlink">
<path d="M4.877,0.837C3.762,-0.279 1.953,-0.279 0.837,0.837C-0.279,1.953 -0.279,3.762 0.837,4.877L15.959,20L0.837,35.123C-0.279,36.238 -0.279,38.047 0.837,39.163C1.953,40.279 3.762,40.279 4.877,39.163L20,24.041L35.123,39.163C36.238,40.279 38.047,40.279 39.163,39.163C40.279,38.047 40.279,36.238 39.163,35.123L24.041,20L39.163,4.877C40.279,3.762 40.279,1.953 39.163,0.837C38.047,-0.279 36.238,-0.279 35.123,0.837L20,15.959L4.877,0.837Z" clip-rule="evenodd" fill-rule="evenodd" fill="#831441"/>
</svg>
