<svg width="50" height="50" viewBox="0 0 50 50" fill="none" xmlns="http://www.w3.org/2000/svg" xmlns:xlink="http://www.w3.org/1999/xlink">
<path d="M25,37.5C25.708,37.5 26.302,37.26 26.782,36.78C27.262,36.3 27.502,35.707 27.5,35L27.5,25C27.5,24.292 27.26,23.698 26.78,23.22C26.3,22.742 25.707,22.502 25,22.5C24.293,22.498 23.7,22.738 23.22,23.22C22.74,23.702 22.5,24.295 22.5,25L22.5,35C22.5,35.708 22.74,36.302 23.22,36.782C23.7,37.262 24.293,37.502 25,37.5ZM25,17.5C25.708,17.5 26.302,17.26 26.782,16.78C27.262,16.3 27.502,15.707 27.5,15C27.498,14.293 27.258,13.7 26.78,13.22C26.302,12.74 25.708,12.5 25,12.5C24.292,12.5 23.698,12.74 23.22,13.22C22.742,13.7 22.502,14.293 22.5,15C22.498,15.707 22.738,16.301 23.22,16.783C23.702,17.264 24.295,17.503 25,17.5ZM25,50C21.542,50 18.292,49.343 15.25,48.03C12.208,46.717 9.563,44.936 7.313,42.687C5.063,40.439 3.282,37.793 1.97,34.75C0.658,31.707 0.002,28.457 0,25C-0.002,21.543 0.655,18.293 1.97,15.25C3.285,12.207 5.066,9.561 7.313,7.313C9.559,5.064 12.205,3.283 15.25,1.97C18.295,0.657 21.545,0 25,0C28.455,0 31.705,0.657 34.75,1.97C37.795,3.283 40.441,5.064 42.687,7.313C44.934,9.561 46.716,12.207 48.032,15.25C49.349,18.293 50.005,21.543 50,25C49.995,28.457 49.338,31.707 48.03,34.75C46.722,37.793 44.941,40.439 42.687,42.687C40.434,44.936 37.788,46.717 34.75,48.032C31.712,49.347 28.462,50.003 25,50ZM25,45C30.583,45 35.312,43.062 39.187,39.187C43.062,35.312 45,30.583 45,25C45,19.417 43.062,14.688 39.187,10.813C35.312,6.938 30.583,5 25,5C19.417,5 14.688,6.938 10.813,10.813C6.938,14.688 5,19.417 5,25C5,30.583 6.938,35.312 10.813,39.187C14.688,43.062 19.417,45 25,45Z" fill="#831441"/>
</svg>
