<svg width="134" height="114" viewBox="0 0 134 114" fill="none" xmlns="http://www.w3.org/2000/svg" xmlns:xlink="http://www.w3.org/1999/xlink">
<path d="M12.876,112.281C9.335,112.281 6.305,110.912 3.786,108.173C1.266,105.435 0.004,102.139 0,98.285L0,14.306C0,10.457 1.262,7.163 3.786,4.425C6.309,1.686 9.34,0.314 12.876,0.31L46.194,0.31C47.911,0.31 49.549,0.659 51.107,1.359C52.665,2.059 54.032,3.051 55.208,4.334L64.382,14.306L122.326,14.306C124.151,14.306 125.681,14.978 126.917,16.322C128.153,17.665 128.769,19.326 128.765,21.304C128.76,23.282 128.142,24.946 126.91,26.294C125.679,27.642 124.151,28.312 122.326,28.303L37.664,28.303C31.011,28.303 25.216,30.577 20.28,35.126C15.344,39.675 12.876,45.448 12.876,52.446L12.876,98.285L25.592,52.272C26.45,49.239 28.034,46.82 30.343,45.014C32.653,43.209 35.2,42.304 37.986,42.299L121.039,42.299C125.438,42.299 128.9,44.196 131.424,47.989C133.947,51.782 134.617,55.892 133.432,60.319L121.844,102.309C120.985,105.341 119.403,107.763 117.099,109.573C114.794,111.383 112.244,112.286 109.45,112.281L12.876,112.281Z" fill="#831441"/>
</svg>
