<svg width="44" height="44" viewBox="0 0 44 44" fill="none" xmlns="http://www.w3.org/2000/svg" xmlns:xlink="http://www.w3.org/1999/xlink">
<path d="M14,40L6,40C5.47,40 4.961,39.789 4.586,39.414C4.211,39.039 4,38.53 4,38L4,30C4,29.47 3.789,28.961 3.414,28.586C3.039,28.211 2.53,28 2,28C1.47,28 0.961,28.211 0.586,28.586C0.211,28.961 0,29.47 0,30L0,38C0,39.591 0.632,41.117 1.757,42.243C2.883,43.368 4.409,44 6,44L14,44C14.53,44 15.039,43.789 15.414,43.414C15.789,43.039 16,42.53 16,42C16,41.47 15.789,40.961 15.414,40.586C15.039,40.211 14.53,40 14,40L14,40ZM42,28C41.47,28 40.961,28.211 40.586,28.586C40.211,28.961 40,29.47 40,30L40,38C40,38.53 39.789,39.039 39.414,39.414C39.039,39.789 38.53,40 38,40L30,40C29.47,40 28.961,40.211 28.586,40.586C28.211,40.961 28,41.47 28,42C28,42.53 28.211,43.039 28.586,43.414C28.961,43.789 29.47,44 30,44L38,44C39.591,44 41.117,43.368 42.243,42.243C43.368,41.117 44,39.591 44,38L44,30C44,29.47 43.789,28.961 43.414,28.586C43.039,28.211 42.53,28 42,28ZM38,0L30,0C29.47,0 28.961,0.211 28.586,0.586C28.211,0.961 28,1.47 28,2C28,2.53 28.211,3.039 28.586,3.414C28.961,3.789 29.47,4 30,4L38,4C38.53,4 39.039,4.211 39.414,4.586C39.789,4.961 40,5.47 40,6L40,14C40,14.53 40.211,15.039 40.586,15.414C40.961,15.789 41.47,16 42,16C42.53,16 43.039,15.789 43.414,15.414C43.789,15.039 44,14.53 44,14L44,6C44,4.409 43.368,2.883 42.243,1.757C41.117,0.632 39.591,0 38,0L38,0ZM2,16C2.53,16 3.039,15.789 3.414,15.414C3.789,15.039 4,14.53 4,14L4,6C4,5.47 4.211,4.961 4.586,4.586C4.961,4.211 5.47,4 6,4L14,4C14.53,4 15.039,3.789 15.414,3.414C15.789,3.039 16,2.53 16,2C16,1.47 15.789,0.961 15.414,0.586C15.039,0.211 14.53,0 14,0L6,0C4.409,0 2.883,0.632 1.757,1.757C0.632,2.883 0,4.409 0,6L0,14C0,14.53 0.211,15.039 0.586,15.414C0.961,15.789 1.47,16 2,16ZM18,8L10,8C9.47,8 8.961,8.211 8.586,8.586C8.211,8.961 8,9.47 8,10L8,18C8,18.53 8.211,19.039 8.586,19.414C8.961,19.789 9.47,20 10,20L18,20C18.53,20 19.039,19.789 19.414,19.414C19.789,19.039 20,18.53 20,18L20,10C20,9.47 19.789,8.961 19.414,8.586C19.039,8.211 18.53,8 18,8ZM16,16L12,16L12,12L16,12L16,16ZM26,20L34,20C34.53,20 35.039,19.789 35.414,19.414C35.789,19.039 36,18.53 36,18L36,10C36,9.47 35.789,8.961 35.414,8.586C35.039,8.211 34.53,8 34,8L26,8C25.47,8 24.961,8.211 24.586,8.586C24.211,8.961 24,9.47 24,10L24,18C24,18.53 24.211,19.039 24.586,19.414C24.961,19.789 25.47,20 26,20ZM28,12L32,12L32,16L28,16L28,12ZM18,24L10,24C9.47,24 8.961,24.211 8.586,24.586C8.211,24.961 8,25.47 8,26L8,34C8,34.53 8.211,35.039 8.586,35.414C8.961,35.789 9.47,36 10,36L18,36C18.53,36 19.039,35.789 19.414,35.414C19.789,35.039 20,34.53 20,34L20,26C20,25.47 19.789,24.961 19.414,24.586C19.039,24.211 18.53,24 18,24ZM16,32L12,32L12,28L16,28L16,32ZM26,30C26.53,30 27.039,29.789 27.414,29.414C27.789,29.039 28,28.53 28,28C28.53,28 29.039,27.789 29.414,27.414C29.789,27.039 30,26.53 30,26C30,25.47 29.789,24.961 29.414,24.586C29.039,24.211 28.53,24 28,24L26,24C25.47,24 24.961,24.211 24.586,24.586C24.211,24.961 24,25.47 24,26L24,28C24,28.53 24.211,29.039 24.586,29.414C24.961,29.789 25.47,30 26,30ZM34,24C33.47,24 32.961,24.211 32.586,24.586C32.211,24.961 32,25.47 32,26L32,32C31.47,32 30.961,32.211 30.586,32.586C30.211,32.961 30,33.47 30,34C30,34.53 30.211,35.039 30.586,35.414C30.961,35.789 31.47,36 32,36L34,36C34.53,36 35.039,35.789 35.414,35.414C35.789,35.039 36,34.53 36,34L36,26C36,25.47 35.789,24.961 35.414,24.586C35.039,24.211 34.53,24 34,24ZM26,32C25.604,32 25.218,32.117 24.889,32.337C24.56,32.557 24.304,32.869 24.152,33.235C24.001,33.6 23.961,34.002 24.038,34.39C24.116,34.778 24.306,35.135 24.586,35.414C24.865,35.694 25.222,35.884 25.61,35.962C25.998,36.039 26.4,35.999 26.765,35.848C27.131,35.696 27.443,35.44 27.663,35.111C27.883,34.782 28,34.396 28,34C28,33.47 27.789,32.961 27.414,32.586C27.039,32.211 26.53,32 26,32Z" fill="#FFFFFF"/>
</svg>
