<svg width="40" height="36" viewBox="0 0 40 36" fill="none" xmlns="http://www.w3.org/2000/svg" xmlns:xlink="http://www.w3.org/1999/xlink">
<path d="M10.931,0L29.069,0C30.408,0 31.514,0 32.419,0.062C33.358,0.126 34.226,0.263 35.061,0.609C37.022,1.421 38.579,2.978 39.391,4.939C39.737,5.774 39.874,6.642 39.938,7.581C40,8.486 40,9.592 40,10.931L40,12.5C40,14.433 38.433,16 36.5,16L36,16C34.895,16 34,16.895 34,18C34,19.105 34.895,20 36,20L36.5,20C38.433,20 40,21.567 40,23.5L40,25.069C40,26.408 40,27.514 39.938,28.419C39.874,29.358 39.737,30.226 39.391,31.061C38.579,33.022 37.022,34.579 35.061,35.391C34.226,35.737 33.358,35.874 32.419,35.938C31.514,36 30.408,36 29.069,36L10.931,36C9.592,36 8.486,36 7.581,35.938C6.642,35.874 5.774,35.737 4.939,35.391C2.978,34.579 1.421,33.022 0.609,31.061C0.263,30.226 0.126,29.358 0.062,28.419C0,27.514 0,26.408 0,25.069L0,23.5C0,21.567 1.567,20 3.5,20L4,20C5.105,20 6,19.105 6,18C6,16.895 5.105,16 4,16L3.5,16C1.567,16 0,14.433 0,12.5L0,10.931C0,9.592 0,8.486 0.062,7.581C0.126,6.642 0.263,5.774 0.609,4.939C1.421,2.978 2.978,1.421 4.939,0.609C5.774,0.263 6.642,0.126 7.581,0.062C8.486,0 9.592,0 10.931,0ZM7.853,4.052C7.118,4.103 6.736,4.194 6.469,4.304C5.489,4.71 4.71,5.489 4.304,6.469C4.194,6.736 4.103,7.118 4.052,7.853C4.001,8.606 4,9.575 4,11L4,12C7.314,12 10,14.686 10,18C10,21.314 7.314,24 4,24L4,25C4,26.425 4.001,27.394 4.052,28.147C4.103,28.882 4.194,29.264 4.304,29.531C4.71,30.511 5.489,31.29 6.469,31.696C6.736,31.806 7.118,31.897 7.853,31.948C8.606,31.999 9.575,32 11,32L29,32C30.425,32 31.394,31.999 32.147,31.948C32.882,31.897 33.264,31.806 33.531,31.696C34.511,31.29 35.29,30.511 35.696,29.531C35.806,29.264 35.897,28.882 35.948,28.147C35.999,27.394 36,26.425 36,25L36,24C32.686,24 30,21.314 30,18C30,14.686 32.686,12 36,12L36,11C36,9.575 35.999,8.606 35.948,7.853C35.897,7.118 35.806,6.736 35.696,6.469C35.29,5.489 34.511,4.71 33.531,4.304C33.264,4.194 32.882,4.103 32.147,4.052C31.394,4.001 30.425,4 29,4L11,4C9.575,4 8.606,4.001 7.853,4.052ZM19.46,12.059C19.816,11.98 20.184,11.98 20.54,12.059C21.633,12.3 22.11,13.205 22.245,13.461C22.418,13.791 22.582,14.215 22.724,14.583C22.73,14.599 22.736,14.614 22.741,14.628C22.747,14.629 22.753,14.629 22.759,14.63C23.124,14.664 23.568,14.705 23.933,14.786C24.273,14.862 25.216,15.106 25.718,16.077C25.846,16.325 25.931,16.591 25.973,16.864C26.132,17.908 25.558,18.651 25.336,18.92C25.099,19.207 24.775,19.513 24.506,19.767C24.487,19.785 24.468,19.803 24.45,19.82L24.331,19.932L24.349,20.017C24.349,20.017 24.349,20.017 24.349,20.017C24.353,20.036 24.357,20.055 24.361,20.074C24.429,20.392 24.504,20.739 24.542,21.029C24.542,21.033 24.543,21.038 24.544,21.044C24.573,21.264 24.668,21.981 24.289,22.678C23.879,23.433 23.1,23.953 22.199,23.997C21.365,24.039 20.745,23.596 20.569,23.47C20.564,23.466 20.559,23.463 20.555,23.46C20.379,23.335 20.186,23.178 20,23.022C19.814,23.178 19.621,23.335 19.445,23.46C19.441,23.463 19.436,23.466 19.431,23.47C19.255,23.596 18.635,24.039 17.801,23.997C16.9,23.953 16.121,23.433 15.711,22.678C15.332,21.981 15.427,21.264 15.456,21.044C15.457,21.038 15.458,21.033 15.458,21.029C15.496,20.739 15.571,20.392 15.639,20.074C15.643,20.055 15.647,20.036 15.651,20.017L15.669,19.932L15.55,19.82C15.532,19.803 15.513,19.785 15.494,19.767C15.225,19.513 14.901,19.207 14.664,18.92C14.442,18.651 13.868,17.908 14.027,16.864C14.069,16.591 14.154,16.325 14.282,16.077C14.784,15.106 15.727,14.862 16.067,14.786C16.432,14.705 16.876,14.664 17.242,14.63C17.247,14.629 17.253,14.629 17.259,14.628C17.264,14.614 17.27,14.599 17.276,14.583C17.418,14.215 17.582,13.791 17.755,13.461C17.89,13.205 18.367,12.3 19.46,12.059ZM20,17.761C19.86,17.89 19.708,18.007 19.546,18.109C19.498,18.139 19.45,18.166 19.403,18.192C19.414,18.213 19.424,18.234 19.435,18.255C19.512,18.412 19.575,18.575 19.625,18.742C19.874,18.71 20.126,18.71 20.375,18.742C20.425,18.575 20.488,18.412 20.565,18.255C20.576,18.234 20.586,18.213 20.597,18.192C20.55,18.166 20.502,18.139 20.454,18.109C20.292,18.007 20.14,17.89 20,17.761ZM16.944,18.689C16.937,18.691 16.935,18.691 16.941,18.69ZM22.25,16.376C22.255,16.369 22.256,16.368 22.251,16.374C22.251,16.374 22.25,16.375 22.25,16.376Z" clip-rule="evenodd" fill-rule="evenodd" fill="#E32028"/>
</svg>
