<svg width="28" height="50" viewBox="0 0 28 50" fill="none" xmlns="http://www.w3.org/2000/svg" xmlns:xlink="http://www.w3.org/1999/xlink">
<path d="M13.131,35.716L21.534,23.635L14.05,23.635L19.302,5.252L5.252,5.252L5.252,26.261L13.131,26.261L13.131,35.716ZM27.246,24.554L11.489,47.336C11.227,47.73 10.888,47.993 10.473,48.124C10.058,48.255 9.653,48.255 9.257,48.124C8.861,47.993 8.533,47.763 8.272,47.436C8.011,47.109 7.88,46.703 7.878,46.22L7.878,31.514L5.252,31.514C3.808,31.514 2.572,31 1.544,29.972C0.516,28.945 0.002,27.708 0,26.261L0,5.252C0,3.808 0.515,2.572 1.544,1.544C2.574,0.516 3.81,0.002 5.252,0L20.615,0C22.016,0 23.143,0.547 23.998,1.641C24.852,2.736 25.103,3.939 24.751,5.252L21.009,18.383L23.964,18.383C25.539,18.383 26.711,19.083 27.477,20.484C28.244,21.885 28.167,23.241 27.246,24.554Z" fill="#F99A1C"/>
<path d="M13.131,35.716L21.534,23.635L14.05,23.635L19.302,5.252L5.252,5.252L5.252,26.261L13.131,26.261L13.131,35.716Z" fill="#F99A1C"/>
</svg>
