<svg width="32" height="24" viewBox="0 0 32 24" fill="none" xmlns="http://www.w3.org/2000/svg" xmlns:xlink="http://www.w3.org/1999/xlink">
<path d="M0,2C0,0.895 0.895,0 2,0L30,0C31.105,0 32,0.895 32,2C32,3.105 31.105,4 30,4L2,4C0.895,4 0,3.105 0,2ZM0,12C0,10.895 0.895,10 2,10L22,10C23.105,10 24,10.895 24,12C24,13.105 23.105,14 22,14L2,14C0.895,14 0,13.105 0,12ZM2,20C0.895,20 0,20.895 0,22C0,23.105 0.895,24 2,24L14,24C15.105,24 16,23.105 16,22C16,20.895 15.105,20 14,20L2,20Z" clip-rule="evenodd" fill-rule="evenodd" fill="#FFFFFF"/>
</svg>
