<svg width="20" height="20" viewBox="0 0 20 20" fill="none" xmlns="http://www.w3.org/2000/svg" xmlns:xlink="http://www.w3.org/1999/xlink">
<path d="M2,3.633C2,4.123 2.124,4.593 2.346,5.005C2.14,5.011 1.945,5.022 1.769,5.046C1.386,5.097 0.949,5.223 0.586,5.586C0.223,5.949 0.097,6.386 0.046,6.77C0,7.109 0,7.522 0,7.946L0,9.527C0,9.737 0,9.941 0.012,10.115C0.025,10.306 0.055,10.531 0.152,10.765C0.355,11.255 0.745,11.645 1.235,11.848C1.469,11.945 1.694,11.975 1.885,11.988C2.059,12 2.264,12 2.474,12L2.5,12C2.747,12 2.882,12.001 2.979,12.007L2.992,12.008L2.993,12.021C2.999,12.119 3,12.253 3,12.5L3,16.054C3,16.479 3,16.891 3.046,17.231C3.097,17.614 3.223,18.051 3.586,18.414C3.949,18.777 4.386,18.903 4.77,18.955C5.109,19 5.522,19 5.946,19L14.054,19C14.479,19 14.891,19 15.231,18.955C15.614,18.903 16.051,18.777 16.414,18.414C16.777,18.051 16.903,17.614 16.954,17.231C17,16.891 17,16.479 17,16.054L17,12.5C17,12.253 17.001,12.119 17.007,12.021L17.008,12.008L17.021,12.007C17.118,12.001 17.253,12 17.5,12L17.526,12C17.737,12 17.941,12 18.115,11.988C18.306,11.975 18.531,11.945 18.765,11.848C19.255,11.645 19.645,11.255 19.848,10.765C19.945,10.531 19.975,10.306 19.988,10.115C20,9.941 20,9.737 20,9.527L20,7.946C20,7.522 20,7.109 19.954,6.77C19.903,6.386 19.777,5.949 19.414,5.586C19.051,5.223 18.614,5.097 18.231,5.046C18.055,5.022 17.86,5.011 17.654,5.005C17.876,4.593 18,4.123 18,3.633L18,3.072C18,1.37 16.333,0.168 14.718,0.707C12.87,1.322 11.266,2.508 10.134,4.092L10,4.28L9.866,4.092C8.734,2.508 7.13,1.322 5.282,0.707C3.667,0.168 2,1.37 2,3.072L2,3.633ZM4.65,2.604C4.33,2.497 4,2.735 4,3.072L4,3.633C4,4.019 4.247,4.362 4.614,4.484L6.162,5L8.048,5C7.177,3.887 5.995,3.053 4.65,2.604ZM6.023,7C6.008,7 5.992,7 5.977,7L3,7C2.5,7 2.226,7.002 2.036,7.028L2.029,7.029L2.028,7.036C2.002,7.226 2,7.5 2,8L2,9.5C2,9.747 2.001,9.882 2.007,9.979L2.008,9.992L2.021,9.993C2.118,10 2.253,10 2.5,10L2.526,10C2.662,10 2.796,10 2.92,10.003C2.946,10.001 2.973,10 3,10L9,10L9,7L6.023,7ZM11.952,5L13.838,5L15.386,4.484C15.753,4.362 16,4.019 16,3.633L16,3.072C16,2.735 15.67,2.497 15.35,2.604C14.005,3.053 12.824,3.887 11.952,5ZM13.977,7L11,7L11,10L17,10C17.027,10 17.054,10.001 17.08,10.003C17.204,10 17.338,10 17.473,10L17.5,10C17.747,10 17.882,10 17.979,9.993L17.992,9.992L17.993,9.979C17.999,9.882 18,9.747 18,9.5L18,8C18,7.5 17.998,7.226 17.972,7.036L17.971,7.029L17.964,7.028C17.774,7.002 17.5,7 17,7L14.023,7C14.008,7 13.992,7 13.977,7ZM11,17L14,17C14.5,17 14.774,16.998 14.964,16.972L14.971,16.971L14.972,16.964C14.998,16.774 15,16.5 15,16L15,12.474C15,12.308 15,12.146 15.006,12L11,12L11,17ZM9,12L9,17L6,17C5.5,17 5.226,16.998 5.036,16.972L5.029,16.971L5.028,16.964C5.002,16.774 5,16.5 5,16L5,12.474C5,12.308 5,12.146 4.994,12L9,12Z" clip-rule="evenodd" fill-rule="evenodd" fill="#831441"/>
</svg>
