<svg width="56" height="44" viewBox="0 0 56 44" fill="none" xmlns="http://www.w3.org/2000/svg" xmlns:xlink="http://www.w3.org/1999/xlink">
<path d="M55.139,7.419C55.139,7.561 55.139,7.71 55.139,7.852C55.139,7.994 55.139,8.149 55.139,8.303C55.139,8.458 55.139,8.606 55.139,8.755C55.139,8.903 55.139,9.07 55.108,9.237C55.077,9.404 55.108,9.552 55.058,9.707L55.003,10.214C55.003,10.375 54.953,10.542 54.929,10.709C54.904,10.876 54.879,11.055 54.848,11.234C54.817,11.414 54.787,11.581 54.756,11.754C54.725,11.927 54.694,12.119 54.657,12.31C54.62,12.502 54.577,12.669 54.54,12.848C54.503,13.028 54.472,13.158 54.435,13.318C48.556,23.268 42.147,31.016 35.362,36.371C27.878,42.468 18.104,45.306 11.04,43.427C6.317,42.19 2.902,38.999 0.877,33.997C0.877,33.891 0.877,33.786 0.877,33.681C0.877,33.576 0.877,33.403 0.914,33.267C0.951,33.131 0.963,32.964 0.988,32.809C1.013,32.655 1.044,32.525 1.075,32.383C1.105,32.24 1.155,32.073 1.198,31.913C1.241,31.752 1.278,31.622 1.322,31.474C1.365,31.325 1.433,31.152 1.494,30.991C1.556,30.831 1.599,30.694 1.655,30.546C1.711,30.398 1.797,30.212 1.871,30.045C1.945,29.878 2.001,29.742 2.075,29.588L2.328,29.074C2.408,28.92 2.482,28.771 2.569,28.617C2.655,28.462 2.76,28.264 2.865,28.091C2.97,27.918 3.044,27.776 3.137,27.621C3.229,27.467 3.359,27.263 3.47,27.083L3.779,26.613C3.896,26.434 4.026,26.248 4.149,26.069L4.489,25.593C4.619,25.407 4.761,25.222 4.897,25.036L5.261,24.56L5.712,23.998L6.101,23.521C6.255,23.33 6.422,23.138 6.582,22.953C6.743,22.767 6.854,22.631 6.996,22.476C7.138,22.322 7.335,22.093 7.515,21.901C7.694,21.71 7.799,21.58 7.947,21.425L8.496,20.844C8.644,20.689 8.793,20.529 8.947,20.374L9.521,19.799L10.003,19.323L10.62,18.748L11.12,18.271L11.738,17.696C11.905,17.542 12.071,17.387 12.25,17.233C12.429,17.078 12.683,16.849 12.905,16.658C13.127,16.466 13.251,16.348 13.43,16.2C13.609,16.052 13.874,15.817 14.103,15.631L14.646,15.173L15.331,14.617L15.893,14.166L16.597,13.615L17.171,13.17L17.894,12.626L18.474,12.193L19.215,11.655L19.833,11.234L20.586,10.709L21.203,10.301L21.981,9.781L22.599,9.392L23.395,8.878L23.97,8.507L24.766,8.013L25.384,7.654C25.649,7.487 25.915,7.333 26.186,7.178L26.804,6.826L27.619,6.362L28.193,6.04L29.039,5.583L29.588,5.286L30.508,4.81L30.972,4.575C31.435,4.34 31.898,4.117 32.355,3.901C41.802,-0.57 49.489,-1.572 52.922,1.211C53.077,1.337 53.226,1.471 53.366,1.613L53.508,1.78C53.595,1.872 53.688,1.965 53.768,2.07C53.848,2.175 53.867,2.212 53.916,2.281C53.965,2.349 54.058,2.466 54.12,2.571C54.17,2.651 54.215,2.733 54.256,2.818C54.317,2.917 54.373,3.01 54.428,3.115C54.484,3.22 54.509,3.301 54.546,3.387C54.583,3.474 54.645,3.604 54.688,3.715C54.731,3.826 54.756,3.913 54.787,4.012C54.817,4.111 54.867,4.241 54.904,4.358C54.941,4.476 54.959,4.581 54.984,4.692L55.077,5.051L55.132,5.409C55.132,5.539 55.182,5.663 55.2,5.793L55.237,6.176C55.237,6.312 55.268,6.442 55.274,6.584C55.281,6.727 55.274,6.856 55.274,6.992C55.274,7.129 55.139,7.271 55.139,7.419Z" fill="#831441"/>
</svg>
