<svg width="32" height="36" viewBox="0 0 32 36" fill="none" xmlns="http://www.w3.org/2000/svg" xmlns:xlink="http://www.w3.org/1999/xlink">
<path d="M25.904,27.683C24.531,30.011 22.973,31.939 21.263,33.291C18.511,35.53 13.973,36.368 12.479,32.505C12.511,27.95 28.013,18.789 25.904,27.683Z" fill="#B8B8B8"/>
<path d="M28.022,23.481C27.404,24.924 26.697,26.327 25.906,27.682C28.013,18.79 12.511,27.951 12.48,32.506C12.231,31.833 12.078,31.127 12.026,30.411C11.936,28.913 11.936,27.411 12.026,25.913C12.279,21.866 30.429,10.337 28.022,23.481Z" fill="#A1A1A1"/>
<path d="M30.814,15.294C30.085,18.088 29.151,20.824 28.022,23.481C30.429,10.333 12.279,21.87 12.019,25.914C12.117,23.877 12.312,21.737 12.429,19.56C12.81,15.659 9.149,15.93 8.506,15.874C9.256,15.874 10.02,15.824 10.783,15.744C18.569,14.68 22.197,11.681 27.589,11.634C28.023,11.633 28.456,11.674 28.882,11.756C30.523,12.096 31.409,13.143 30.814,15.294Z" fill="#B8B8B8"/>
<path d="M28.882,11.756C28.456,11.674 28.023,11.633 27.589,11.634C22.197,11.681 18.569,14.68 10.783,15.744C10.02,15.824 9.256,15.87 8.506,15.874C6.376,15.889 4.352,15.58 2.724,14.876C0.718,13.599 1.431,6.046 12.48,7.114C20.824,7.924 25.05,9.078 23.718,6.033C24.754,8.025 25.258,10.141 28.882,11.756Z" fill="#A1A1A1"/>
<path d="M12.48,7.114C1.431,6.046 0.718,13.599 2.724,14.878C0.377,13.853 -1.147,11.996 -0.989,9.039C-0.43,1.627 11.225,-1.262 19.807,2.39C22.095,3.416 23.031,4.699 23.726,6.035C25.053,9.084 20.832,7.93 12.48,7.114Z" fill="#B8B8B8"/>
</svg>
