<svg width="42" height="36" viewBox="0 0 42 36" fill="none" xmlns="http://www.w3.org/2000/svg" xmlns:xlink="http://www.w3.org/1999/xlink">
<path d="M35.099,19.816L33.729,18.359L35.099,19.816ZM35.577,5.055L33.997,6.281L35.577,5.055ZM4.423,5.055L2.843,3.829L4.423,5.055ZM4.901,19.816L3.532,21.274L4.901,19.816ZM18.807,32.879L20.176,31.421L18.807,32.879ZM19.807,33.609L19.422,35.572L19.807,33.609ZM20.193,33.609L20.578,35.572L20.193,33.609ZM20.176,31.421L6.271,18.359L3.532,21.274L17.437,34.337L20.176,31.421ZM5.385,7.078L6.003,6.281L2.843,3.829L2.224,4.626L5.385,7.078ZM33.997,6.281L34.615,7.078L37.776,4.626L37.157,3.829L33.997,6.281ZM33.729,18.359L19.824,31.421L22.563,34.337L36.468,21.274L33.729,18.359ZM34.615,7.078C37.274,10.504 36.89,15.39 33.729,18.359L36.468,21.274C41.132,16.893 41.699,9.682 37.776,4.626L34.615,7.078ZM22.778,7.489C24.903,3.037 30.973,2.383 33.997,6.281L37.157,3.829C32.308,-2.421 22.575,-1.373 19.168,5.766L22.778,7.489ZM17.222,7.489C18.337,9.825 21.663,9.825 22.778,7.489L19.168,5.766C19.502,5.066 20.498,5.066 20.832,5.766L17.222,7.489ZM6.003,6.281C9.027,2.383 15.097,3.037 17.222,7.489L20.832,5.766C17.425,-1.373 7.692,-2.421 2.843,3.829L6.003,6.281ZM6.271,18.359C3.11,15.39 2.726,10.504 5.385,7.078L2.224,4.626C-1.699,9.682 -1.132,16.893 3.532,21.274L6.271,18.359ZM17.437,34.337C17.648,34.534 17.909,34.783 18.16,34.977C18.438,35.19 18.855,35.46 19.422,35.572L20.193,31.647C20.328,31.673 20.439,31.718 20.516,31.757C20.586,31.793 20.617,31.82 20.601,31.808C20.584,31.794 20.545,31.762 20.467,31.692C20.39,31.622 20.3,31.537 20.176,31.421L17.437,34.337ZM19.824,31.421C19.7,31.537 19.61,31.622 19.533,31.692C19.455,31.762 19.416,31.794 19.399,31.808C19.383,31.82 19.414,31.793 19.484,31.757C19.561,31.718 19.672,31.673 19.807,31.647L20.578,35.572C21.145,35.46 21.562,35.19 21.84,34.977C22.09,34.783 22.352,34.534 22.563,34.337L19.824,31.421ZM19.422,35.572C19.804,35.647 20.196,35.647 20.578,35.572L19.807,31.647C19.935,31.622 20.065,31.622 20.193,31.647L19.422,35.572Z" fill="#FCC20A"/>
</svg>
