<svg width="262" height="506" viewBox="0 0 262 506" fill="none" xmlns="http://www.w3.org/2000/svg" xmlns:xlink="http://www.w3.org/1999/xlink">
<g filter="url(#filter878_10559)">
<path d="M31.732,502.493C35.924,504.837 40.551,504.837 44.744,502.493L67.585,489.615C68.559,489.047 69.672,489.047 70.698,489.615L93.539,502.493C97.731,504.887 102.359,504.887 106.551,502.493L129.392,489.615C130.366,489.047 131.479,489.047 132.506,489.615L155.346,502.493C157.434,503.703 159.626,504.271 161.852,504.271C164.079,504.271 166.253,503.703 168.358,502.493L191.251,489.541C192.277,488.973 193.338,488.973 194.365,489.541L217.257,502.493C221.449,504.887 226.077,504.837 230.217,502.493L250.309,491.193C257.041,487.395 261.391,478.315 261.391,468.075L261.391,30.061C261.391,21.796 258.503,14.074 253.685,9.46C248.883,4.846 242.725,3.908 237.331,6.943L225.311,13.752C224.337,14.32 223.223,14.32 222.197,13.752L199.305,0.799C195.113,-1.545 190.538,-1.545 186.345,0.799L163.452,13.752C162.426,14.32 161.365,14.32 160.339,13.752L137.498,0.873C133.305,-1.52 128.678,-1.52 124.486,0.873L101.645,13.752C100.671,14.32 99.557,14.32 98.531,13.752L75.69,0.873C71.498,-1.52 66.871,-1.52 62.678,0.873L39.838,13.752C38.863,14.32 37.75,14.32 36.724,13.752L24.738,6.992C19.31,3.958 13.205,4.846 8.386,9.509C3.585,14.123 0.679,21.894 0.679,30.11L0.679,468.149C0.679,478.389 4.994,487.469 11.726,491.269L31.766,502.569L31.732,502.493ZM14.005,30.063C14.005,27.226 15.293,25.647 15.832,25.129C16.371,24.635 17.885,23.475 19.746,24.561L31.732,31.321C35.924,33.665 40.551,33.665 44.744,31.321L67.584,18.442C68.559,17.874 69.672,17.874 70.698,18.442L93.539,31.321C97.731,33.715 102.359,33.715 106.551,31.321L129.392,18.442C130.366,17.874 131.479,17.874 132.506,18.442L155.346,31.321C159.539,33.715 164.166,33.715 168.358,31.321L191.251,18.368C192.278,17.801 193.339,17.801 194.365,18.368L217.257,31.321C221.449,33.715 226.077,33.665 230.217,31.321L242.239,24.512C244.117,23.426 245.579,24.586 246.153,25.153C246.691,25.647 247.979,27.226 247.979,30.088L247.979,468.127C247.979,470.595 246.953,472.741 245.351,473.679L225.259,484.979C224.285,485.547 223.173,485.547 222.145,484.979L199.254,472.025C197.166,470.817 194.974,470.249 192.748,470.249C190.521,470.249 188.347,470.817 186.242,472.025L163.349,484.979C162.323,485.547 161.262,485.547 160.235,484.979L137.395,472.099C133.202,469.707 128.575,469.707 124.382,472.099L101.542,484.979C100.568,485.547 99.454,485.547 98.428,484.979L75.587,472.099C71.395,469.707 66.767,469.707 62.575,472.099L39.734,484.979C38.76,485.547 37.647,485.547 36.62,484.979L16.581,473.679C14.98,472.791 13.954,470.595 13.954,468.127L13.954,30.069L14.005,30.063Z" fill="#FFFCF9"/>
<path d="M14.005,30.063C14.005,27.226 15.293,25.647 15.832,25.129C16.371,24.635 17.885,23.475 19.746,24.561L31.732,31.321C35.924,33.665 40.551,33.665 44.744,31.321L67.584,18.442C68.559,17.874 69.672,17.874 70.698,18.442L93.539,31.321C97.731,33.715 102.359,33.715 106.551,31.321L129.392,18.442C130.366,17.874 131.479,17.874 132.506,18.442L155.346,31.321C159.539,33.715 164.166,33.715 168.358,31.321L191.251,18.368C192.278,17.801 193.339,17.801 194.365,18.368L217.257,31.321C221.449,33.715 226.077,33.665 230.217,31.321L242.239,24.512C244.117,23.426 245.579,24.586 246.153,25.153C246.691,25.647 247.979,27.226 247.979,30.088L247.979,468.127C247.979,470.595 246.953,472.741 245.351,473.679L225.259,484.979C224.285,485.547 223.173,485.547 222.145,484.979L199.254,472.025C197.166,470.817 194.974,470.249 192.748,470.249C190.521,470.249 188.347,470.817 186.242,472.025L163.349,484.979C162.323,485.547 161.262,485.547 160.235,484.979L137.395,472.099C133.202,469.707 128.575,469.707 124.382,472.099L101.542,484.979C100.568,485.547 99.454,485.547 98.428,484.979L75.587,472.099C71.395,469.707 66.767,469.707 62.575,472.099L39.734,484.979C38.76,485.547 37.647,485.547 36.62,484.979L16.581,473.679C14.98,472.791 13.954,470.595 13.954,468.127L13.954,30.069L14.005,30.063Z" fill="#FFFCF9"/>
</g>
<defs>
<filter id="filter878_10559" x="-13.705345" y="-15.343468" width="159.125412" height="281.3936" filterUnits="userSpaceOnUse" color-interpolation-filters="sRGB">
<feFlood flood-opacity="0" result="BackgroundImageFix"/>
<feColorMatrix in="SourceAlpha" type="matrix" values="0 0 0 0 0 0 0 0 0 0 0 0 0 0 0 0 0 0 127 0" result="hardAlpha"/>
<feMorphology radius="0" operator="dilate" in="SourceAlpha" result="0dropshadow"/>
<feOffset dx="0" dy="4.495256"/>
<feGaussianBlur stdDeviation="7.19241"/>
<feComposite in2="hardAlpha" operator="out"/>
<feColorMatrix type="matrix" values="0 0 0 0 0 0 0 0 0 0 0 0 0 0 0 0 0 0 0.2 0"/>
<feBlend mode="normal" in2="BackgroundImageFix" result="0dropshadow"/>
<feBlend mode="normal" in="SourceGraphic" in2="0dropshadow" result="shape"/>
</filter>
</defs>
</svg>
