<svg width="70" height="68" viewBox="0 0 70 68" fill="none" xmlns="http://www.w3.org/2000/svg" xmlns:xlink="http://www.w3.org/1999/xlink">
<path d="M54.719,38.45L4.494,38.45C3.221,38.45 2.154,38.018 1.294,37.155C0.434,36.292 0.003,35.226 0,33.955C-0.003,32.685 0.428,31.618 1.294,30.755C2.16,29.892 3.227,29.461 4.494,29.461L54.719,29.461L32.697,7.438C31.798,6.539 31.366,5.491 31.402,4.292C31.438,3.094 31.907,2.045 32.809,1.146C33.708,0.322 34.757,-0.109 35.955,-0.148C37.154,-0.187 38.202,0.244 39.101,1.146L68.764,30.809C69.213,31.259 69.533,31.745 69.721,32.27C69.91,32.794 70.003,33.356 70,33.955C69.997,34.554 69.904,35.116 69.721,35.641C69.539,36.165 69.219,36.652 68.764,37.101L39.101,66.764C38.277,67.588 37.248,68 36.013,68C34.779,68 33.711,67.588 32.809,66.764C31.91,65.865 31.461,64.799 31.461,63.564C31.461,62.33 31.91,61.261 32.809,60.36L54.719,38.45Z" transform="rotate(-360 35 33.925)" fill="#FFFFFF" stroke="#831441" stroke-width="0.5" stroke-miterlimit="3.999327"/>
</svg>
