<svg width="40" height="36" viewBox="0 0 40 36" fill="none" xmlns="http://www.w3.org/2000/svg" xmlns:xlink="http://www.w3.org/1999/xlink">
<path d="M8.299,3.208C7.66,2.995 7,3.471 7,4.144L7,5.265C7,6.038 7.494,6.723 8.227,6.968L11.325,8L15.096,8C13.353,5.774 10.991,4.105 8.299,3.208ZM11.047,12C11.016,12.001 10.985,12.001 10.954,12L5,12C4.001,12 3.452,12.004 3.072,12.056L3.057,12.058L3.055,12.072C3.004,12.452 3,13.001 3,14L3,17C3,17.493 3.001,17.763 3.014,17.958L3.016,17.984L3.042,17.986C3.237,17.999 3.507,18 4,18L4.053,18L4.053,18L4.053,18L4.053,18C4.324,18 4.591,18 4.84,18.006C4.893,18.002 4.946,18 5,18L17,18L17,12L11.047,12ZM3,5.265C3,6.247 3.247,7.185 3.691,8.01C3.28,8.021 2.89,8.044 2.539,8.091C1.773,8.194 0.898,8.445 0.172,9.172C-0.555,9.898 -0.806,10.773 -0.909,11.539C-1,12.219 -1,13.043 -1,13.891L-1,14L-1,17L-1,17.053C-1,17.473 -1,17.882 -0.976,18.231C-0.95,18.611 -0.889,19.063 -0.695,19.531C-0.29,20.511 0.489,21.29 1.469,21.696C1.937,21.89 2.389,21.95 2.77,21.976C3.118,22 3.527,22 3.947,22L4,22C4.493,22 4.763,22.001 4.958,22.015L4.984,22.016L4.986,22.042C4.999,22.237 5,22.507 5,23L5,30L5,30.109C5,30.957 5,31.781 5.091,32.461C5.194,33.228 5.445,34.102 6.172,34.829C6.898,35.555 7.773,35.806 8.539,35.909C9.219,36 10.043,36 10.891,36L11,36L19,36L27,36L27.109,36C27.957,36 28.781,36 29.461,35.909C30.227,35.806 31.102,35.555 31.828,34.829C32.555,34.102 32.806,33.228 32.909,32.461C33,31.781 33,30.957 33,30.109L33,30L33,23C33,22.507 33.001,22.237 33.014,22.042L33.016,22.016L33.042,22.015C33.237,22.001 33.507,22 34,22L34.053,22C34.473,22 34.882,22 35.23,21.976C35.611,21.95 36.063,21.89 36.531,21.696C37.511,21.29 38.29,20.511 38.696,19.531C38.889,19.063 38.95,18.611 38.976,18.231C39,17.883 39,17.474 39,17.054L39,17.054L39,17.054L39,17.054L39,17.053L39,17L39,14L39,13.891C39,13.043 39,12.219 38.909,11.539C38.806,10.773 38.555,9.898 37.828,9.172C37.102,8.445 36.227,8.194 35.461,8.091C35.11,8.044 34.72,8.021 34.309,8.01C34.753,7.185 35,6.247 35,5.265L35,4.144C35,0.741 31.665,-1.663 28.436,-0.587C24.741,0.645 21.531,3.016 19.267,6.185L19,6.559L18.733,6.185C16.469,3.016 13.259,0.645 9.564,-0.587C6.335,-1.663 3,0.741 3,4.144L3,5.265ZM22.904,8L26.675,8L29.773,6.968C30.506,6.723 31,6.038 31,5.265L31,4.144C31,3.471 30.34,2.995 29.701,3.208C27.01,4.105 24.647,5.774 22.904,8ZM26.953,12L21,12L21,18L33,18C33.054,18 33.107,18.002 33.16,18.006C33.409,18 33.676,18 33.947,18L33.947,18L33.947,18L33.947,18L34,18C34.493,18 34.763,17.999 34.958,17.986L34.984,17.984L34.986,17.958C34.999,17.763 35,17.493 35,17L35,14C35,13.001 34.996,12.452 34.945,12.072L34.943,12.058L34.928,12.056C34.548,12.004 33.999,12 33,12L27.046,12C27.015,12.001 26.984,12.001 26.953,12ZM21,32L27,32C27.999,32 28.548,31.996 28.928,31.945L28.943,31.943L28.945,31.928C28.996,31.548 29,30.999 29,30L29,23L29,22.947L29,22.947L29,22.947L29,22.947C29,22.617 29,22.293 29.012,22L21,22L21,32ZM17,22L17,32L11,32C10.001,32 9.452,31.996 9.072,31.945L9.057,31.943L9.055,31.928C9.004,31.548 9,30.999 9,30L9,23L9,22.947C9,22.617 9,22.293 8.989,22L17,22Z" clip-rule="evenodd" fill-rule="evenodd" fill="#B8B8B8"/>
</svg>
