<svg width="42" height="36" viewBox="0 0 42 36" fill="none" xmlns="http://www.w3.org/2000/svg" xmlns:xlink="http://www.w3.org/1999/xlink">
<path d="M10.299,3.208C9.66,2.995 9,3.47 9,4.144L9,5.265C9,6.037 9.494,6.723 10.227,6.967L13.325,8L17.096,8C15.353,5.774 12.991,4.105 10.299,3.208ZM13.047,12C13.016,12.001 12.985,12.001 12.954,12L7,12C6.001,12 5.452,12.004 5.072,12.055L5.057,12.057L5.055,12.072C5.004,12.452 5,13.001 5,14L5,17C5,17.493 5.001,17.763 5.014,17.958L5.016,17.984L5.042,17.985C5.237,17.999 5.507,18 6,18L6.053,18L6.053,18L6.053,18L6.053,18C6.324,18 6.591,18 6.84,18.006C6.893,18.002 6.946,18 7,18L19,18L19,12L13.047,12ZM5,5.265C5,6.246 5.247,7.185 5.691,8.01C5.28,8.021 4.89,8.044 4.539,8.091C3.773,8.194 2.898,8.445 2.172,9.171C1.445,9.898 1.194,10.772 1.091,11.539C1,12.219 1,13.043 1,13.891L1,14L1,17L1,17.053C1,17.473 1,17.882 1.024,18.23C1.05,18.611 1.111,19.063 1.304,19.531C1.71,20.511 2.489,21.289 3.469,21.695C3.937,21.889 4.389,21.95 4.77,21.976C5.118,22 5.527,22 5.947,22L6,22C6.493,22 6.763,22.001 6.958,22.014L6.984,22.016L6.986,22.042C6.999,22.237 7,22.507 7,23L7,30L7,30.109C7,30.957 7,31.781 7.091,32.461C7.194,33.227 7.445,34.102 8.172,34.828C8.898,35.555 9.773,35.806 10.539,35.909C11.219,36 12.043,36 12.891,36L13,36L21,36L29,36L29.109,36C29.957,36 30.781,36 31.461,35.909C32.227,35.806 33.102,35.555 33.828,34.828C34.555,34.102 34.806,33.227 34.909,32.461C35,31.781 35,30.957 35,30.109L35,30L35,23C35,22.507 35.001,22.237 35.014,22.042L35.016,22.016L35.042,22.014C35.237,22.001 35.507,22 36,22L36.053,22C36.473,22 36.882,22 37.23,21.976C37.611,21.95 38.063,21.889 38.531,21.695C39.511,21.289 40.29,20.511 40.696,19.531C40.889,19.063 40.95,18.611 40.976,18.23C41,17.882 41,17.473 41,17.053L41,17.053L41,17.053L41,17.053L41,17.053L41,17L41,14L41,13.891C41,13.043 41,12.219 40.909,11.539C40.806,10.772 40.555,9.898 39.828,9.171C39.102,8.445 38.227,8.194 37.461,8.091C37.11,8.044 36.72,8.021 36.309,8.01C36.753,7.185 37,6.246 37,5.265L37,4.144C37,0.74 33.665,-1.663 30.436,-0.587C26.741,0.645 23.531,3.015 21.267,6.185L21,6.559L20.733,6.185C18.469,3.015 15.259,0.645 11.564,-0.587C8.335,-1.663 5,0.74 5,4.144L5,5.265ZM24.904,8L28.675,8L31.773,6.967C32.506,6.723 33,6.037 33,5.265L33,4.144C33,3.47 32.34,2.995 31.701,3.208C29.01,4.105 26.647,5.774 24.904,8ZM28.953,12L23,12L23,18L35,18C35.054,18 35.107,18.002 35.16,18.006C35.409,18 35.676,18 35.947,18L35.947,18L35.947,18L35.947,18L36,18C36.493,18 36.763,17.999 36.958,17.985L36.984,17.984L36.986,17.958C36.999,17.763 37,17.493 37,17L37,14C37,13.001 36.996,12.452 36.945,12.072L36.943,12.057L36.928,12.055C36.548,12.004 35.999,12 35,12L29.046,12C29.015,12.001 28.984,12.001 28.953,12ZM23,32L29,32C29.999,32 30.548,31.996 30.928,31.945L30.943,31.943L30.945,31.928C30.996,31.548 31,30.999 31,30L31,23L31,22.947L31,22.947L31,22.947L31,22.947C31,22.616 31,22.293 31.012,22L23,22L23,32ZM19,22L19,32L13,32C12.001,32 11.452,31.996 11.072,31.945L11.057,31.943L11.055,31.928C11.004,31.548 11,30.999 11,30L11,23L11,22.947C11,22.616 11,22.293 10.989,22L19,22Z" clip-rule="evenodd" fill-rule="evenodd" fill="#B8B8B8"/>
</svg>
