<svg width="20" height="20" viewBox="0 0 20 20" fill="none" xmlns="http://www.w3.org/2000/svg" xmlns:xlink="http://www.w3.org/1999/xlink">
<path d="M5.466,1L14.534,1C15.204,1 15.757,1 16.21,1.031C16.679,1.063 17.113,1.131 17.531,1.304C18.511,1.71 19.29,2.489 19.696,3.469C19.869,3.887 19.937,4.321 19.969,4.79C20,5.243 20,5.796 20,6.466L20,7.25C20,8.216 19.217,9 18.25,9L18,9C17.448,9 17,9.448 17,10C17,10.552 17.448,11 18,11L18.25,11C19.217,11 20,11.784 20,12.75L20,13.534C20,14.204 20,14.757 19.969,15.21C19.937,15.679 19.869,16.113 19.696,16.531C19.29,17.511 18.511,18.29 17.531,18.696C17.113,18.869 16.679,18.937 16.21,18.969C15.757,19 15.204,19 14.534,19L5.466,19C4.796,19 4.243,19 3.79,18.969C3.321,18.937 2.887,18.869 2.469,18.696C1.489,18.29 0.71,17.511 0.304,16.531C0.131,16.113 0.063,15.679 0.031,15.21C0,14.757 0,14.204 0,13.534L0,12.75C0,11.784 0.784,11 1.75,11L2,11C2.552,11 3,10.552 3,10C3,9.448 2.552,9 2,9L1.75,9C0.784,9 0,8.216 0,7.25L0,6.466C0,5.796 0,5.243 0.031,4.79C0.063,4.321 0.131,3.887 0.304,3.469C0.71,2.489 1.489,1.71 2.469,1.304C2.887,1.131 3.321,1.063 3.79,1.031C4.243,1 4.796,1 5.466,1ZM3.927,3.026C3.559,3.051 3.368,3.097 3.235,3.152C2.745,3.355 2.355,3.745 2.152,4.235C2.097,4.368 2.051,4.559 2.026,4.927C2.001,5.303 2,5.787 2,6.5L2,7C3.657,7 5,8.343 5,10C5,11.657 3.657,13 2,13L2,13.5C2,14.213 2.001,14.697 2.026,15.073C2.051,15.441 2.097,15.632 2.152,15.765C2.355,16.255 2.745,16.645 3.235,16.848C3.368,16.903 3.559,16.949 3.927,16.974C4.303,16.999 4.787,17 5.5,17L14.5,17C15.213,17 15.697,16.999 16.073,16.974C16.441,16.949 16.632,16.903 16.765,16.848C17.255,16.645 17.645,16.255 17.848,15.765C17.903,15.632 17.949,15.441 17.974,15.073C17.999,14.697 18,14.213 18,13.5L18,13C16.343,13 15,11.657 15,10C15,8.343 16.343,7 18,7L18,6.5C18,5.787 17.999,5.303 17.974,4.927C17.949,4.559 17.903,4.368 17.848,4.235C17.645,3.745 17.255,3.355 16.765,3.152C16.632,3.097 16.441,3.051 16.073,3.026C15.697,3.001 15.213,3 14.5,3L5.5,3C4.787,3 4.303,3.001 3.927,3.026ZM9.73,7.029C9.908,6.99 10.092,6.99 10.27,7.029C10.816,7.15 11.055,7.602 11.122,7.73C11.209,7.895 11.291,8.107 11.362,8.292C11.365,8.299 11.368,8.307 11.371,8.314C11.373,8.314 11.376,8.315 11.379,8.315C11.562,8.332 11.784,8.352 11.966,8.393C12.136,8.431 12.608,8.553 12.859,9.039C12.923,9.163 12.966,9.296 12.987,9.432C13.066,9.954 12.779,10.326 12.668,10.46C12.55,10.604 12.388,10.756 12.253,10.884C12.243,10.893 12.234,10.901 12.225,10.91L12.165,10.966L12.175,11.009C12.175,11.009 12.175,11.009 12.175,11.009C12.177,11.018 12.179,11.028 12.181,11.037C12.215,11.196 12.252,11.37 12.271,11.514C12.271,11.517 12.271,11.519 12.272,11.522C12.286,11.632 12.334,11.99 12.145,12.339C11.94,12.716 11.55,12.976 11.1,12.999C10.683,13.019 10.373,12.798 10.284,12.735C10.282,12.733 10.279,12.731 10.277,12.73C10.19,12.668 10.093,12.589 10,12.511C9.907,12.589 9.81,12.668 9.723,12.73C9.721,12.731 9.718,12.733 9.716,12.735C9.627,12.798 9.317,13.019 8.9,12.999C8.45,12.976 8.06,12.716 7.855,12.339C7.666,11.99 7.714,11.632 7.728,11.522C7.729,11.519 7.729,11.517 7.729,11.514C7.748,11.37 7.785,11.196 7.819,11.037C7.821,11.028 7.823,11.018 7.825,11.009L7.835,10.966L7.775,10.91C7.766,10.901 7.757,10.893 7.747,10.884C7.612,10.756 7.45,10.604 7.332,10.46C7.221,10.326 6.934,9.954 7.013,9.432C7.034,9.296 7.077,9.163 7.141,9.039C7.392,8.553 7.864,8.431 8.034,8.393C8.216,8.352 8.438,8.332 8.621,8.315C8.624,8.315 8.627,8.314 8.629,8.314C8.632,8.307 8.635,8.299 8.638,8.292C8.709,8.107 8.791,7.895 8.878,7.73C8.945,7.602 9.184,7.15 9.73,7.029ZM10,9.881C9.93,9.945 9.854,10.003 9.773,10.054C9.749,10.069 9.725,10.083 9.701,10.096C9.707,10.107 9.712,10.117 9.717,10.128C9.756,10.206 9.788,10.288 9.812,10.371C9.937,10.355 10.063,10.355 10.188,10.371C10.212,10.288 10.244,10.206 10.283,10.128C10.288,10.117 10.293,10.107 10.299,10.096C10.275,10.083 10.251,10.069 10.227,10.054C10.146,10.003 10.07,9.945 10,9.881ZM8.472,10.344C8.468,10.345 8.468,10.345 8.47,10.345ZM11.125,9.188C11.128,9.184 11.128,9.184 11.126,9.187C11.125,9.187 11.125,9.188 11.125,9.188Z" clip-rule="evenodd" fill-rule="evenodd" fill="#F99A1C"/>
</svg>
