<svg width="42" height="36" viewBox="0 0 42 36" fill="none" xmlns="http://www.w3.org/2000/svg" xmlns:xlink="http://www.w3.org/1999/xlink">
<path d="M36.099,19.816L34.729,18.359L36.099,19.816ZM36.577,5.055L34.997,6.281L36.577,5.055ZM5.423,5.055L3.843,3.829L5.423,5.055ZM5.901,19.816L4.532,21.274L5.901,19.816ZM19.807,32.879L21.176,31.421L19.807,32.879ZM20.807,33.609L20.422,35.572L20.807,33.609ZM21.193,33.609L21.578,35.572L21.193,33.609ZM21.176,31.421L7.271,18.359L4.532,21.274L18.437,34.337L21.176,31.421ZM6.385,7.078L7.003,6.281L3.843,3.829L3.224,4.626L6.385,7.078ZM34.997,6.281L35.615,7.078L38.776,4.626L38.157,3.829L34.997,6.281ZM34.729,18.359L20.824,31.421L23.563,34.337L37.468,21.274L34.729,18.359ZM35.615,7.078C38.274,10.504 37.89,15.39 34.729,18.359L37.468,21.274C42.132,16.893 42.699,9.682 38.776,4.626L35.615,7.078ZM23.778,7.489C25.903,3.037 31.973,2.383 34.997,6.281L38.157,3.829C33.308,-2.421 23.575,-1.373 20.168,5.766L23.778,7.489ZM18.222,7.489C19.337,9.825 22.663,9.825 23.778,7.489L20.168,5.766C20.502,5.066 21.498,5.066 21.832,5.766L18.222,7.489ZM7.003,6.281C10.027,2.383 16.097,3.037 18.222,7.489L21.832,5.766C18.425,-1.373 8.692,-2.421 3.843,3.829L7.003,6.281ZM7.271,18.359C4.11,15.39 3.726,10.504 6.385,7.078L3.224,4.626C-0.699,9.682 -0.132,16.893 4.532,21.274L7.271,18.359ZM18.437,34.337C18.648,34.534 18.91,34.783 19.16,34.977C19.438,35.19 19.855,35.46 20.422,35.572L21.193,31.647C21.328,31.673 21.439,31.718 21.516,31.757C21.586,31.793 21.617,31.82 21.601,31.808C21.584,31.794 21.545,31.762 21.467,31.692C21.39,31.622 21.3,31.537 21.176,31.421L18.437,34.337ZM20.824,31.421C20.7,31.537 20.61,31.622 20.533,31.692C20.455,31.762 20.416,31.794 20.399,31.808C20.383,31.82 20.414,31.793 20.484,31.757C20.561,31.718 20.672,31.673 20.807,31.647L21.578,35.572C22.145,35.46 22.562,35.19 22.84,34.977C23.09,34.783 23.352,34.534 23.563,34.337L20.824,31.421ZM20.422,35.572C20.804,35.647 21.196,35.647 21.578,35.572L20.807,31.647C20.935,31.622 21.065,31.622 21.193,31.647L20.422,35.572Z" fill="#B8B8B8"/>
</svg>
