<svg width="36" height="36" viewBox="0 0 36 36" fill="none" xmlns="http://www.w3.org/2000/svg" xmlns:xlink="http://www.w3.org/1999/xlink">
<path d="M18,36C15.533,36 13.208,35.525 11.025,34.575C8.842,33.625 6.933,32.333 5.3,30.7C3.667,29.067 2.375,27.158 1.425,24.975C0.475,22.792 0,20.467 0,18C0,16.533 0.167,15.108 0.5,13.725C0.833,12.342 1.317,11.042 1.95,9.825C2.583,8.608 3.342,7.475 4.225,6.425C5.108,5.375 6.1,4.433 7.2,3.6L20.8,17.2L18,20L7.2,9.2C6.2,10.4 5.417,11.742 4.85,13.225C4.283,14.708 4,16.3 4,18C4,21.867 5.367,25.167 8.1,27.9C10.833,30.633 14.133,32 18,32C21.867,32 25.167,30.633 27.9,27.9C30.633,25.167 32,21.867 32,18C32,14.433 30.858,11.358 28.575,8.775C26.292,6.192 23.433,4.667 20,4.2L20,8L16,8L16,0L18,0C20.467,0 22.792,0.475 24.975,1.425C27.158,2.375 29.067,3.667 30.7,5.3C32.333,6.933 33.625,8.842 34.575,11.025C35.525,13.208 36,15.533 36,18C36,20.467 35.525,22.792 34.575,24.975C33.625,27.158 32.333,29.067 30.7,30.7C29.067,32.333 27.158,33.625 24.975,34.575C22.792,35.525 20.467,36 18,36ZM8,20C7.433,20 6.958,19.808 6.575,19.425C6.192,19.042 6,18.567 6,18C6,17.433 6.192,16.958 6.575,16.575C6.958,16.192 7.433,16 8,16C8.567,16 9.042,16.192 9.425,16.575C9.808,16.958 10,17.433 10,18C10,18.567 9.808,19.042 9.425,19.425C9.042,19.808 8.567,20 8,20ZM18,30C17.433,30 16.958,29.808 16.575,29.425C16.192,29.042 16,28.567 16,28C16,27.433 16.192,26.958 16.575,26.575C16.958,26.192 17.433,26 18,26C18.567,26 19.042,26.192 19.425,26.575C19.808,26.958 20,27.433 20,28C20,28.567 19.808,29.042 19.425,29.425C19.042,29.808 18.567,30 18,30ZM28,20C27.433,20 26.958,19.808 26.575,19.425C26.192,19.042 26,18.567 26,18C26,17.433 26.192,16.958 26.575,16.575C26.958,16.192 27.433,16 28,16C28.567,16 29.042,16.192 29.425,16.575C29.808,16.958 30,17.433 30,18C30,18.567 29.808,19.042 29.425,19.425C29.042,19.808 28.567,20 28,20Z" fill="#B8B8B8"/>
</svg>
