<svg width="28" height="16" viewBox="0 0 28 16" fill="none" xmlns="http://www.w3.org/2000/svg" xmlns:xlink="http://www.w3.org/1999/xlink">
<path d="M8.884,2.884C9.372,2.396 9.372,1.604 8.884,1.116C8.396,0.628 7.604,0.628 7.116,1.116L8.884,2.884ZM2,8L1.116,7.116L0.232,8L1.116,8.884L2,8ZM7.116,14.884C7.604,15.372 8.396,15.372 8.884,14.884C9.372,14.396 9.372,13.604 8.884,13.116L7.116,14.884ZM26,9.25C26.69,9.25 27.25,8.69 27.25,8C27.25,7.31 26.69,6.75 26,6.75L26,9.25ZM7.116,1.116L1.116,7.116L2.884,8.884L8.884,2.884L7.116,1.116ZM1.116,8.884L7.116,14.884L8.884,13.116L2.884,7.116L1.116,8.884ZM2,9.25L26,9.25L26,6.75L2,6.75L2,9.25Z" transform="rotate(-360 14 8)" fill="#F99A1C"/>
</svg>
